<svg xmlns="http://www.w3.org/2000/svg" width="82.08" height="108.96" viewBox="0 0 82.08 108.96"><title>AC Ajaccio logo - Brandlogos.net</title><path d="M472.07,475.11l39.76-16.47,39.36,16.47s10.11,56.42-39.24,90.25C511.95,565.36,469.47,544.3,472.07,475.11Z" transform="translate(-470.96 -457.56)" style="fill:#fff;stroke:#231f20;stroke-miterlimit:10"/><path d="M480.15,493.87v-.36c.09-.26.17-.53.28-.79.41-.93.83-1.85,1.23-2.78a10.19,10.19,0,0,0,.42-1.09,3,3,0,0,0,0-1.53,2.33,2.33,0,0,1,.14-1.53,2.75,2.75,0,0,0,.11-.32l0,0a.83.83,0,0,1-.16-.25,8.7,8.7,0,0,1-.15-1,10.44,10.44,0,0,1,.17-2.23,10,10,0,0,1,1.55-4,4,4,0,0,0,.35-.67c.17-.41.31-.83.46-1.24a2.78,2.78,0,0,1,1.12-1.43l.64-.42,1.24-.83.18-.15.17.22a.61.61,0,0,0,.87.18c.21-.11.41-.24.62-.35a13.51,13.51,0,0,1,1.22-.6,1.63,1.63,0,0,1,1.4,0c.41.2.45.17.69-.22.09-.16.2-.33.39-.37a9,9,0,0,1,.92-.17.39.39,0,0,1,.39.19.66.66,0,0,0,.52.29,1.85,1.85,0,0,0,.4,0,2.34,2.34,0,0,1,1.14.08l.8.25a1.41,1.41,0,0,0,.86.05,1.31,1.31,0,0,1,1.12.11c.37.2.72.43,1.07.67a1,1,0,0,0,.69.18,3.42,3.42,0,0,1,.42,0,2.09,2.09,0,0,1,.45.08c.11,0,.14.13.11.24s-.06.2-.1.29a.27.27,0,0,0,.11.36,8.33,8.33,0,0,1,1.3,1.22,3.35,3.35,0,0,0,1.13.8l.8.36c.25.11.26.12.14.37a2.15,2.15,0,0,0-.14.35c-.05.21.06.31.27.25a1.06,1.06,0,0,0,.19-.09c.24-.13.36-.07.37.2a2.11,2.11,0,0,1-.05.63,1,1,0,0,0,.19.93c.23.28.48.54.72.82a4.09,4.09,0,0,1,.32.37.38.38,0,0,1,0,.53,3.33,3.33,0,0,1-.28.24c-.31.26-.33.38-.09.7.08.11.18.22.28.32l.34.38-.93.77.62.68-.2.12c-.17.11-.34.21-.5.33a.34.34,0,0,0-.09.51l.32.56-.23.06a5.51,5.51,0,0,0-.68.27c-.22.12-.23.3-.07.49a1.09,1.09,0,0,0,1.54.17,2.54,2.54,0,0,0,.7-.92,7.31,7.31,0,0,0,.5-5.22,19.94,19.94,0,0,0-2.07-4.88,6.06,6.06,0,0,1-.32-.65.75.75,0,0,1,0-.65c.09-.18.18-.36.28-.53a3.9,3.9,0,0,1,.81-.92,2.27,2.27,0,0,1,2.39-.37c.3.11.3.1.3.42v1.8c-.35.16-.69.28-1,.46a6.47,6.47,0,0,0-1.5,1.24.17.17,0,0,0,0,.24c.28.58.58,1.16.83,1.76a12.66,12.66,0,0,1,1.13,4.58,4,4,0,0,1-.38,2.06,5.16,5.16,0,0,0-.33,1,.62.62,0,0,0,.07.52c.1.16.24.18.37,0a1.11,1.11,0,0,0,.2-.31c.19-.44.37-.88.55-1.32l.06-.13c0,.44,0,.88,0,1.31a.83.83,0,0,1-.08.32c-.18.38-.37.76-.55,1.14a.19.19,0,0,0,0,.15.39.39,0,0,0,.57.11l.05,0c.06.31,0,.57-.29.71l-.09.06-.41.33,0,0,.78-.19v.47l-.16,0c-.37,0-.74.08-1.11.1a1.2,1.2,0,0,0-1.19.7.85.85,0,0,0,.17,1,2.92,2.92,0,0,0,.63.45,4.64,4.64,0,0,0,1.53.46c.05,0,.14.07.14.1,0,.31,0,.63,0,.95l-.09,0-2.86-.72a.17.17,0,0,0-.2.07l-.85,1-.12.15.16,0a3.72,3.72,0,0,1,1,.29,4.39,4.39,0,0,1,.93.89c.22.25.14.48-.16.63-.12.06-.25.09-.37.14a5.66,5.66,0,0,0,2.53.67V497a4.83,4.83,0,0,0-.65-.25,11.54,11.54,0,0,0-1.23-.23,2.45,2.45,0,0,1-2.13-1.66,7.09,7.09,0,0,1-.41-2.08c0-.57-.07-1.15-.1-1.72a1.06,1.06,0,0,0-.49-.86c-.11.12-.21.22-.3.33a.56.56,0,0,0-.14.26,3.14,3.14,0,0,0,0,.65.74.74,0,0,0,.45.66.19.19,0,0,1,.1.12c0,.19.06.39.09.61l-.2,0c-.37-.09-.73-.18-1.11-.25a.89.89,0,0,0-.3.06,1.12,1.12,0,0,0,.09.27c.16.24.34.47.51.71a2,2,0,0,1,.14.3,1,1,0,0,0-1.13.47,6.31,6.31,0,0,1,.71.24c.2.09.22.24.08.42a2.36,2.36,0,0,1-.24.24c-.17.16-.35.3-.51.47a.56.56,0,0,0-.16.31,3.13,3.13,0,0,0,0,.71,4.73,4.73,0,0,0,1.49,2.79,11.72,11.72,0,0,0,1.92,1.41,3.72,3.72,0,0,1,.59.45c.19.19.14.35-.12.42a5.14,5.14,0,0,0-.56.16,7.52,7.52,0,0,0-2.3,1.52,8.77,8.77,0,0,0-1.82,2.63,12.1,12.1,0,0,1-3.71,4.52A6.87,6.87,0,0,1,495,512a.61.61,0,0,1-.78-.54c-.08-.36-.12-.74-.2-1.1a9.11,9.11,0,0,0-1.12-2.9,2.08,2.08,0,0,0-1.34-1,2.53,2.53,0,0,1-1.44-1q-.4-.52-.79-1a2.62,2.62,0,0,0-2.39-1.15c-.48,0-.95.07-1.42.11a3.52,3.52,0,0,1-2.38-.58,1.32,1.32,0,0,1-.63-.91,1.24,1.24,0,0,1,.13-.72c.13-.28.28-.55.39-.84a.74.74,0,0,0-.34-1c-.16-.11-.34-.2-.5-.31a.55.55,0,0,1-.25-.66c0-.12.06-.23.07-.35a1.21,1.21,0,0,0-.2-.83,1,1,0,0,1,.09-1.21c.12-.15.25-.3.38-.45a2.26,2.26,0,0,0,.21-.27.22.22,0,0,0-.1-.35,1.2,1.2,0,0,0-.31-.12l-.88-.17C480.76,494.52,480.31,494.41,480.15,493.87Zm2.31-12.22,0,.1c-.08.44-.18.88-.24,1.32a5.82,5.82,0,0,0,.07,2c0,.1.06.12.15.11l.39,0a15,15,0,0,1,4.09.38c1.47.35,2.93.75,4.39,1.13a23.14,23.14,0,0,0,3.2.74,1.6,1.6,0,0,0,1.06-.13,4.55,4.55,0,0,1,1.9-.64,1.67,1.67,0,0,1,1.78,1,3.85,3.85,0,0,1,.24,1.89,1.23,1.23,0,0,1-.29.69,1.09,1.09,0,0,0-.17.29c-.06.15,0,.28.18.27a6.84,6.84,0,0,0,.77-.1.11.11,0,0,0,.07-.07.62.62,0,0,1,.54-.47,2.37,2.37,0,0,1,1.06,0c.7.15,1.4.32,2.1.47a.41.41,0,0,0,.3-.05,3.26,3.26,0,0,0,.46-.43c.13-.15.23-.32.39-.52l-1.74-.46a.82.82,0,0,0-.2,0v.05c.36.38.89.37,1.35.54a1.44,1.44,0,0,1-.51,0,5.64,5.64,0,0,1-2.38-1,3.31,3.31,0,0,1-.53-.5.3.3,0,0,1-.07-.34c1.38.53,2.84.75,4.21,1.37a3.54,3.54,0,0,0-.27-3.48c-.48-.67-1-1.28-1.57-1.9a8.15,8.15,0,0,0-.68-.65.56.56,0,0,0-.46-.15,4.14,4.14,0,0,1-.58,0l-4.26-.23c-.12,0-.16-.09-.08-.17a1.46,1.46,0,0,1,.34-.27c.22-.12.46-.21.69-.32l.12-.06-2.26-.79a2.25,2.25,0,0,0-.47-.08.47.47,0,0,0-.17,0,.62.62,0,0,0,.08.16,1.3,1.3,0,0,0,.79.34l.83.1,0,0a1,1,0,0,1-.27.15,2.3,2.3,0,0,1-.61.05,5.79,5.79,0,0,1-2.56-.91,2.6,2.6,0,0,1-1-.94.24.24,0,0,0-.15-.08,12.53,12.53,0,0,0-2.43-.44,2.22,2.22,0,0,0-1.58.33.14.14,0,0,1-.13,0,.16.16,0,0,1,0-.14l.46-.65.08-.13a8.79,8.79,0,0,1-2.51-.38,5.24,5.24,0,0,1-2.18-1.28,18.51,18.51,0,0,0-1.63,3.66c0,.1,0,.12.1.15.31.11.62.23.93.32l4.17,1.21a13.84,13.84,0,0,1,2.95,1.21,1.25,1.25,0,0,1,.51.65c.05.13,0,.2-.14.15a1.66,1.66,0,0,1-.44-.21,2.51,2.51,0,0,0-.73-.38,27.56,27.56,0,0,0-3.2-.93,1.27,1.27,0,0,0-.33,0,1.36,1.36,0,0,0,.21.27,2.9,2.9,0,0,0,1.1.46l1.19.27a.39.39,0,0,1-.23.12,5.49,5.49,0,0,1-1,0,10.6,10.6,0,0,1-4-1.65A3,3,0,0,1,482.46,481.64Zm24.1,6.21a1.15,1.15,0,0,0-.66.46,2.86,2.86,0,0,0-.64,1.52c-.09.91.19,1.08.81,1.23h0c.54.09.84-.15.85-.69a5.4,5.4,0,0,0-.09-1C506.81,488.87,506.68,488.38,506.56,487.85Zm-22,1.7c-.09.12-.13.24,0,.34a.21.21,0,0,0,.28,0,2.34,2.34,0,0,1,.41-.24c.27-.11.55-.18.82-.3s.3-.32.08-.53a2.52,2.52,0,0,0-1.9-.67.23.23,0,0,0-.16.12.35.35,0,0,0,0,.21,2.54,2.54,0,0,1,.1.24A1.33,1.33,0,0,0,484.6,489.55Zm2.21-1.52a.46.46,0,0,0-.07-.13,2.9,2.9,0,0,0-.32-.32,3.75,3.75,0,0,0-2.86-.67.2.2,0,0,0-.18.24.21.21,0,0,0,.26.17l.42,0a2.92,2.92,0,0,1,2.4.9l.06,0A.21.21,0,0,0,486.81,488Zm8.88,6.16a1.9,1.9,0,0,0,1.25-.53s0-.11,0-.17a.42.42,0,0,0-.17,0c-.16.09-.3.21-.46.3a1.2,1.2,0,0,1-.86.14,1,1,0,0,1-.81-.65.94.94,0,0,1,.22-1,2.26,2.26,0,0,1,.82-.57c.05,0,.08-.1.12-.15s-.15-.06-.19,0a6.26,6.26,0,0,0-.8.51,1.12,1.12,0,0,0-.43.81A1.23,1.23,0,0,0,495.69,494.19Z" transform="translate(-470.96 -457.56)"/><path d="M507.21,512.48l-.36-.09a3,3,0,0,1-1.76-1.31,4.83,4.83,0,0,1-.77-1.89.62.62,0,0,1,.24-.66,32.51,32.51,0,0,0,2.66-2.33c.39-.34.77-.7,1.16-1a.61.61,0,0,0,.17-.83c-.08-.18-.2-.35-.29-.53s-.24-.52-.34-.79a.75.75,0,0,1,.15-.77c.22-.25.45-.5.68-.74l1-1s0,.08,0,.12c0,.46,0,.91,0,1.36a.32.32,0,0,1-.11.23,11.11,11.11,0,0,1-1,.65c-.4.23-.49.46-.23.84a9.37,9.37,0,0,0,.7.83,2.89,2.89,0,0,0,.37.36.63.63,0,0,1,.25.62c0,.22,0,.45,0,.7l-.34-.18a.39.39,0,0,0-.42,0,2.82,2.82,0,0,0-.45.29l-2.8,2.47c-.23.2-.45.4-.69.6a.48.48,0,0,0-.18.46.42.42,0,0,0,0,.11,3.68,3.68,0,0,0,1.59,2.11.92.92,0,0,0,.46.11.28.28,0,0,0,.24-.47,3.93,3.93,0,0,0-.43-.46c-.14-.15-.31-.28-.44-.43s-.13-.33.12-.39.38,0,.56-.1a1.06,1.06,0,0,0,.42-.2,2.82,2.82,0,0,0,.4-.51,2.82,2.82,0,0,1,.78-.8,3.79,3.79,0,0,0,1.08-1l.05,0v2.54a2.2,2.2,0,0,1-1.87,2.18l-.1,0Z" transform="translate(-470.96 -457.56)" style="fill-rule:evenodd"/><path d="M482.46,481.64a3,3,0,0,0,1.16,1.22,10.6,10.6,0,0,0,4,1.65,5.49,5.49,0,0,0,1,0,.39.39,0,0,0,.23-.12l-1.19-.27a2.9,2.9,0,0,1-1.1-.46,1.36,1.36,0,0,1-.21-.27,1.27,1.27,0,0,1,.33,0,27.56,27.56,0,0,1,3.2.93,2.51,2.51,0,0,1,.73.38,1.66,1.66,0,0,0,.44.21c.13,0,.2,0,.14-.15a1.25,1.25,0,0,0-.51-.65,13.84,13.84,0,0,0-2.95-1.21l-4.17-1.21c-.31-.09-.62-.21-.93-.32-.07,0-.13,0-.1-.15a18.51,18.51,0,0,1,1.63-3.66,5.24,5.24,0,0,0,2.18,1.28,8.79,8.79,0,0,0,2.51.38l-.08.13-.46.65a.16.16,0,0,0,0,.14.14.14,0,0,0,.13,0,2.22,2.22,0,0,1,1.58-.33,12.53,12.53,0,0,1,2.43.44.24.24,0,0,1,.15.08,2.6,2.6,0,0,0,1,.94,5.79,5.79,0,0,0,2.56.91,2.3,2.3,0,0,0,.61-.05A1,1,0,0,0,497,482l0,0-.83-.1a1.3,1.3,0,0,1-.79-.34.62.62,0,0,1-.08-.16.47.47,0,0,1,.17,0,2.25,2.25,0,0,1,.47.08l2.26.79-.12.06c-.23.11-.47.2-.69.32a1.46,1.46,0,0,0-.34.27c-.08.08,0,.16.08.17l4.26.23a4.14,4.14,0,0,0,.58,0,.56.56,0,0,1,.46.15,8.15,8.15,0,0,1,.68.65c.54.62,1.09,1.23,1.57,1.9a3.54,3.54,0,0,1,.27,3.48c-1.36-.62-2.83-.84-4.21-1.37a.3.3,0,0,0,.07.34,3.31,3.31,0,0,0,.53.5,5.64,5.64,0,0,0,2.38,1,1.44,1.44,0,0,0,.51,0c-.46-.16-1-.15-1.35-.54v-.05a.82.82,0,0,1,.2,0l1.74.46c-.15.21-.26.37-.39.52a3.26,3.26,0,0,1-.46.43.41.41,0,0,1-.3.05c-.7-.15-1.4-.33-2.1-.47a2.37,2.37,0,0,0-1.06,0,.62.62,0,0,0-.54.47.11.11,0,0,1-.07.07,6.84,6.84,0,0,1-.77.1c-.16,0-.23-.12-.18-.27a1.09,1.09,0,0,1,.17-.29,1.23,1.23,0,0,0,.29-.69,3.85,3.85,0,0,0-.24-1.89,1.67,1.67,0,0,0-1.78-1,4.55,4.55,0,0,0-1.9.64,1.6,1.6,0,0,1-1.06.13,23.14,23.14,0,0,1-3.2-.74c-1.46-.39-2.92-.79-4.39-1.13a15,15,0,0,0-4.09-.38l-.39,0c-.09,0-.13,0-.15-.11a5.82,5.82,0,0,1-.07-2c.06-.44.16-.88.24-1.32Zm16.29,2.81.88.19a2.24,2.24,0,0,1,1.12.52,1.25,1.25,0,0,1,.17.31,1.28,1.28,0,0,1-.35,0,17.91,17.91,0,0,1-2.9-1,8.89,8.89,0,0,0-3.4-.63.82.82,0,0,0-.23.07c.05.06.1.15.17.18.33.16.66.33,1,.46,2.09.81,4.23,1.45,6.36,2.11a24.18,24.18,0,0,1,2.77.92,1,1,0,0,0-.18-.73,6,6,0,0,0-.78-.91,7.71,7.71,0,0,0-2.58-1.5,3.69,3.69,0,0,0-1.45-.29A.9.9,0,0,0,498.75,484.45Z" transform="translate(-470.96 -457.56)" style="fill:#fff;fill-rule:evenodd"/><path d="M506.56,487.85c.12.52.24,1,.33,1.53a5.4,5.4,0,0,1,.09,1c0,.55-.31.78-.85.69h0c-.62-.14-.9-.32-.81-1.23a2.86,2.86,0,0,1,.64-1.52A1.15,1.15,0,0,1,506.56,487.85Z" transform="translate(-470.96 -457.56)" style="fill:#fff;fill-rule:evenodd"/><path d="M484.6,489.55a1.33,1.33,0,0,1-.36-.83,2.54,2.54,0,0,0-.1-.24.35.35,0,0,1,0-.21.23.23,0,0,1,.16-.12,2.52,2.52,0,0,1,1.9.67c.22.21.2.4-.08.53s-.55.19-.82.3a2.34,2.34,0,0,0-.41.24.21.21,0,0,1-.28,0C484.47,489.78,484.5,489.67,484.6,489.55Zm.53-.9-.67-.1,0,0c.07.23.14.46.22.68,0,.05.11.12.15.11a.24.24,0,0,0,.15-.14C485,489.05,485.06,488.87,485.13,488.65Zm.2.08-.15.52.6-.2v0Z" transform="translate(-470.96 -457.56)" style="fill:#fff;fill-rule:evenodd"/><path d="M486.81,488a.21.21,0,0,1-.29.22l-.06,0a2.92,2.92,0,0,0-2.4-.9l-.42,0a.21.21,0,0,1-.26-.17.2.2,0,0,1,.18-.24,3.75,3.75,0,0,1,2.86.67,2.9,2.9,0,0,1,.32.32A.46.46,0,0,1,486.81,488Z" transform="translate(-470.96 -457.56)" style="fill:#fff;fill-rule:evenodd"/><path d="M495.69,494.19a1.23,1.23,0,0,1-1.28-1.3,1.12,1.12,0,0,1,.43-.81,6.26,6.26,0,0,1,.8-.51s.13,0,.19,0-.07.13-.12.15a2.26,2.26,0,0,0-.82.57.94.94,0,0,0-.22,1,1,1,0,0,0,.81.65,1.2,1.2,0,0,0,.86-.14c.16-.09.3-.21.46-.3a.42.42,0,0,1,.17,0c0,.06,0,.13,0,.17A1.9,1.9,0,0,1,495.69,494.19Z" transform="translate(-470.96 -457.56)" style="fill:#fff;fill-rule:evenodd"/><path d="M498.75,484.45a.9.9,0,0,1,.59-.23,3.69,3.69,0,0,1,1.45.29,7.71,7.71,0,0,1,2.58,1.5,6,6,0,0,1,.78.91,1,1,0,0,1,.18.73,24.18,24.18,0,0,0-2.77-.92c-2.13-.67-4.27-1.31-6.36-2.11-.34-.13-.67-.3-1-.46-.07,0-.11-.12-.17-.18a.82.82,0,0,1,.23-.07,8.89,8.89,0,0,1,3.4.63,17.91,17.91,0,0,0,2.9,1,1.28,1.28,0,0,0,.35,0,1.25,1.25,0,0,0-.17-.31,2.24,2.24,0,0,0-1.12-.52Z" transform="translate(-470.96 -457.56)" style="fill-rule:evenodd"/><path d="M485.13,488.65c-.07.22-.12.41-.19.59a.24.24,0,0,1-.15.14s-.13-.06-.15-.11c-.08-.22-.15-.45-.22-.68l0,0Z" transform="translate(-470.96 -457.56)" style="fill-rule:evenodd"/><path d="M485.32,488.72l.46.28v0l-.6.2Z" transform="translate(-470.96 -457.56)" style="fill-rule:evenodd"/><path d="M542,496.52c-.35.17-1.34.68-1.47.79a5.74,5.74,0,0,1,1.94.61c.17.1.34.22.5.33v.05c-.2,0-.4,0-.61,0l-1.49,0a13.8,13.8,0,0,0-4.17.41,10.05,10.05,0,0,0-2.87,1.34l.2-.27.23-.28a13.3,13.3,0,0,1,3.38-2.87,7,7,0,0,0,1.74-1.41,6.86,6.86,0,0,0,1.25-2.37c.24-.76.42-1.54.63-2.31l0-.17a5.54,5.54,0,0,1-2.24,6.88l.11,0,1.17,0a.23.23,0,0,0,.2-.09c.21-.22,2.21-2.2,2.53-3.3a11,11,0,0,0,.39-3.23c0-.41,0-.82,0-1.23,0-.07,0-.14,0-.23l-.56.72-.11.12a.22.22,0,0,1-.32,0,.24.24,0,0,1-.05-.33c.08-.16.19-.31.26-.48a4.09,4.09,0,0,0,.28-2,8.15,8.15,0,0,0-.78-2.73l-.07-.13a1.09,1.09,0,0,0-.08.11,3.59,3.59,0,0,1-.61.67l-.5.59-.49.55a2.78,2.78,0,0,0-.24.24,17.21,17.21,0,0,0-2.36,4.86c-.28.92-.53,1.85-.79,2.78a4.9,4.9,0,0,1-.25.68.91.91,0,0,1-1.24.57,5.63,5.63,0,0,1-1.15-.55,10.34,10.34,0,0,1-1.79-1.44.4.4,0,0,1-.11-.24c0-.62-.07-1.25-.09-1.87,0-1.1-.07-2.2-.06-3.31s0-2.23.11-3.34a6.72,6.72,0,0,1,1.85-4.08,7.69,7.69,0,0,1,3.67-2.3,5.54,5.54,0,0,1,1.62-.25,2.38,2.38,0,0,1,2,1.13,5.09,5.09,0,0,1,.75,2.14c.07.47.1.94.15,1.46.08-.14.16-.25.23-.37a9,9,0,0,0,1-3.21c.05-.42.07-.85.1-1.28a.21.21,0,0,0-.08-.17,3.41,3.41,0,0,1-1.76-2.34c0-.1,0-.2-.07-.3s0-.19-.05-.32l-.14.08a6,6,0,0,1-1.66.82,1.62,1.62,0,0,1-.6,0,.77.77,0,0,1-.65-.84c0-.33.07-.67.1-1a11.33,11.33,0,0,0-5.41,4.39,10.33,10.33,0,0,0-1.64,6.78,1.35,1.35,0,0,1-.07-.15,6.94,6.94,0,0,1,.23-5.95,9.25,9.25,0,0,1,2.38-2.89l.17-.14h-.67a17.2,17.2,0,0,0-3.13.34,5,5,0,0,0-2.28,1,6.72,6.72,0,0,0-.55.6,5.24,5.24,0,0,0-1.52-.54,6.79,6.79,0,0,0-3.34.26,10.23,10.23,0,0,0-2.12,1,.22.22,0,0,1-.15,0c.24-.21.47-.43.72-.64a7.22,7.22,0,0,1,2.61-1.44,3.72,3.72,0,0,1,2.43.09,8.34,8.34,0,0,1,.95.52c.09-.1.18-.23.3-.35a4.53,4.53,0,0,1,2.46-1.27,5.91,5.91,0,0,1,2-.11c.73.11,1.46.29,2.19.44a.29.29,0,0,0,.27-.05,20.46,20.46,0,0,1,4.49-2.59,1.52,1.52,0,0,1,.51-.08,6.34,6.34,0,0,1,2,.17,3,3,0,0,1,2.32,2.49,10.85,10.85,0,0,1,.19,2.22,9.93,9.93,0,0,1-.85,3.92c-.23.5-.53,1-.81,1.45-.1.17-.27.33-.29.51s.15.34.22.51a5.85,5.85,0,0,0,.66,1.13A9.73,9.73,0,0,1,544,487a8.41,8.41,0,0,1,.53,3.45A7.36,7.36,0,0,1,542,496.52Zm-4.37-16,.08-.09c.14-.18.27-.37.42-.55a.55.55,0,0,1,.15-.1,1,1,0,0,1,.07.18,2.85,2.85,0,0,1,0,.3l.39-.31s.12-.06.14,0a.26.26,0,0,1,.07.15,1.34,1.34,0,0,1,0,.2l.39-.3s.12-.06.15,0,.06.1.06.15,0,.19,0,.31h.2c.15,0,.21,0,.2.2s0,.33,0,.54l.64-.6c.13-.12.15-.19,0-.3a2.19,2.19,0,0,0-.49-.32,7.73,7.73,0,0,0-1.86-.53l-.64-.11Zm-3.61,9.73,0,0a.93.93,0,0,0-.14.17c-.16.33-.32.66-.46,1s-.09.3.2.41a13,13,0,0,0,2.73.61.14.14,0,0,0,.11-.05c.1-.3.2-.61.29-.91l0,0a2.7,2.7,0,0,1-.28.31.57.57,0,0,1-.29.14,8,8,0,0,1-.84,0,.34.34,0,0,1-.23-.09.54.54,0,0,0-.63-.2h-.15c-.22,0-.3-.09-.29-.31S534,490.64,534.06,490.29Zm1.64-8.83c.62-.45,1.06-1.59.77-2l-1,.76a.15.15,0,0,0-.05.12C535.48,480.68,535.59,481.07,535.7,481.46Zm5,1.22.06,0c.19-.18.38-.36.56-.55a.42.42,0,0,0,.1-.22,4.38,4.38,0,0,0,0-.52c0-.37-.16-.52-.53-.49l-.22,0Z" transform="translate(-470.96 -457.56)" style="fill-rule:evenodd"/><path d="M520.54,495a9.6,9.6,0,0,0,3.48.9l-.23.14a12,12,0,0,1-2.59.89,29.81,29.81,0,0,1-3.76.65c-1.07.12-2.14.21-3.2.31l-.5,0c0-.25,0-.49,0-.72,0,0,.08-.1.13-.13.75-.43,1.52-.83,2.26-1.27a31,31,0,0,0,5.3-3.95,19.16,19.16,0,0,0,4-5.07.18.18,0,0,1,.05-.06,18.92,18.92,0,0,1-1.81,4.53A12,12,0,0,1,520.54,495Z" transform="translate(-470.96 -457.56)" style="fill-rule:evenodd"/><path d="M513.73,492.14c0-.38,0-.76,0-1.13a.52.52,0,0,1,.11-.25,12.06,12.06,0,0,1,3.94-3.57,17.33,17.33,0,0,1,4.94-1.89c.52-.12,1.05-.22,1.58-.31a2.57,2.57,0,0,1,.45,0l0,.06-.34.5a30.07,30.07,0,0,1-2.64,3.32,15.11,15.11,0,0,1-3.47,2.88,6.37,6.37,0,0,1-2.6.9,3.83,3.83,0,0,1-.72,0,8.56,8.56,0,0,0,4.87-3.92,2.52,2.52,0,0,0-1,0,6.5,6.5,0,0,0-2.48,1.13,16.56,16.56,0,0,0-2.54,2.21.89.89,0,0,0-.09.14Z" transform="translate(-470.96 -457.56)" style="fill-rule:evenodd"/><path d="M526.64,501.7a5.06,5.06,0,0,1-1,1.46,7.57,7.57,0,0,1-2.57,1.61,16.14,16.14,0,0,1-4.11,1,29.59,29.59,0,0,1-4.1.18l-1,0c-.05-.26,0-.27.22-.29a25.07,25.07,0,0,0,5.06-.81,6.13,6.13,0,0,0,2.12-1l.3-.27a4.11,4.11,0,0,0-.44-.23,6.12,6.12,0,0,0-1.6-.29,40.17,40.17,0,0,0-4-.09c-.46,0-.92,0-1.38,0a.16.16,0,0,1-.12,0l.71-.31a11.62,11.62,0,0,1,2.95-.7,35.78,35.78,0,0,1,4.38-.13c1.11,0,2.22,0,3.32,0C525.71,501.76,526.16,501.73,526.64,501.7Z" transform="translate(-470.96 -457.56)" style="fill-rule:evenodd"/><path d="M541.12,504.89a9.23,9.23,0,0,0,2.54-1,16.26,16.26,0,0,0,2.25-1.56c-.05.11-.1.22-.16.32a5.28,5.28,0,0,1-1.7,1.78,13.74,13.74,0,0,1-3.74,1.71,33,33,0,0,1-5.63,1.18l-1.26.14h-.21l1.27-.49a21.62,21.62,0,0,0,5.6-3.31,13.62,13.62,0,0,0,3.82-4.83,11.09,11.09,0,0,0,.77-2.35.32.32,0,0,1,.06-.13C545.32,499.92,543.84,502.65,541.12,504.89Z" transform="translate(-470.96 -457.56)" style="fill-rule:evenodd"/><path d="M521.39,497.82a4.64,4.64,0,0,0,3.34-1.31,6,6,0,0,0,3.24,3.37,9.3,9.3,0,0,0,3.13.86l.78.08-.12.06a10.33,10.33,0,0,1-4.37.6,7.55,7.55,0,0,1-4.39-1.82,9.15,9.15,0,0,1-1.53-1.71Z" transform="translate(-470.96 -457.56)" style="fill-rule:evenodd"/><path d="M531,502.17c0,.52.08,1,.1,1.49s0,1.11,0,1.66a7.11,7.11,0,0,1-.88,3.27,3.49,3.49,0,0,1-2.82,1.8,6.63,6.63,0,0,1-1,0c2.17-1,3-2.79,3.09-5.06a10.61,10.61,0,0,1-6.63,1.56l.94-.31a23.78,23.78,0,0,0,5.13-2.31,6.5,6.5,0,0,0,1.8-1.57C530.74,502.54,530.83,502.37,531,502.17Z" transform="translate(-470.96 -457.56)" style="fill-rule:evenodd"/><path d="M534.94,504.28a8.89,8.89,0,0,1,3.53-.82l-.3.21a24.33,24.33,0,0,1-3.42,1.82c-.63.29-1.26.55-1.9.83l-.14,0c0-.16,0-.3,0-.44a6.08,6.08,0,0,1,1.37-3.49,6.3,6.3,0,0,1,2.76-1.9,10.06,10.06,0,0,1,2.9-.59c.64,0,1.29,0,1.94,0A10.19,10.19,0,0,0,534.94,504.28Z" transform="translate(-470.96 -457.56)" style="fill-rule:evenodd"/><path d="M535.57,497.57c-.17.09-.34.2-.51.28a7.73,7.73,0,0,1-2.56.63,4,4,0,0,1-3.36-1.23,5.18,5.18,0,0,1-1.13-2.08,12.21,12.21,0,0,1-.43-2.67,20.28,20.28,0,0,1,.16-3.53c0-.29.07-.59.11-.88a1.82,1.82,0,0,1,.08-.28H528c0,.14.05.28.06.42,0,.59,0,1.17.07,1.76a13.71,13.71,0,0,0,.79,3.77,6.75,6.75,0,0,0,1.6,2.57,4.54,4.54,0,0,0,3.12,1.28c.5,0,1-.06,1.51-.09h.41Z" transform="translate(-470.96 -457.56)" style="fill-rule:evenodd"/><path d="M513.73,488.74v-.2c0-1.2,0-2.39,0-3.59a.58.58,0,0,1,.12-.32,4.56,4.56,0,0,1,1.45-1.3c.13-.07.28-.12.45-.19-.11.29-.21.53-.29.78a8.77,8.77,0,0,0-.21.93c0,.21,0,.22.21.22h2.61l3,.05.17,0A21.23,21.23,0,0,0,513.73,488.74Z" transform="translate(-470.96 -457.56)" style="fill-rule:evenodd"/><path d="M521.71,482a8.7,8.7,0,0,1,2.91-1.14,30.65,30.65,0,0,0-6,4.18l0,0c.09-.22.17-.44.28-.66a9.92,9.92,0,0,1,1.48-2.09c.38-.44.79-.85,1.19-1.27a.55.55,0,0,1,.13-.1,7,7,0,0,0-.73,1.64c.23-.19.54-.26.69-.56a6.27,6.27,0,0,1,1.92-2.35s.07,0,.09-.07a2.51,2.51,0,0,0-1.08,0,6.53,6.53,0,0,0-3.1,1.46,13.89,13.89,0,0,0-2.84,3.22l-.26.4,0,0s0,0,0,0a16.38,16.38,0,0,1,2.26-3.56,7.26,7.26,0,0,1,2.52-2,4.33,4.33,0,0,1,4.13.34A8.48,8.48,0,0,0,521.71,482Z" transform="translate(-470.96 -457.56)" style="fill-rule:evenodd"/><path d="M513.73,500.87c0-.34,0-.66,0-1a.21.21,0,0,1,.08-.13l.24-.18c-.33-.08-.33-.08-.33-.42v-.61l7.08.21c-.25.15-.5.31-.75.44a12.54,12.54,0,0,1-3.14,1.09c-1,.22-2,.38-3,.57Z" transform="translate(-470.96 -457.56)" style="fill-rule:evenodd"/><path d="M520.6,478.87c-.54-.16-1.11-.36-1.7-.5a4.3,4.3,0,0,0-1.9-.06,2.33,2.33,0,0,0-1.85,1.72,5.1,5.1,0,0,0-.2,1.8c0,.49.07,1,.12,1.49-.12-.31-.24-.6-.35-.89a9,9,0,0,1-.51-2.07,4,4,0,0,1,.11-1.64,2.15,2.15,0,0,1,2.34-1.59,4.85,4.85,0,0,1,2.36.74c.5.34,1,.65,1.54,1Z" transform="translate(-470.96 -457.56)" style="fill-rule:evenodd"/><path d="M528.39,513.08l.43-.45a16.69,16.69,0,0,1,3.32-2.62,10.14,10.14,0,0,1,3.32-1.28,4.12,4.12,0,0,1,.64-.07l-.07.05a11.69,11.69,0,0,0-2.82,1.88,22.28,22.28,0,0,0-2.37,2.42.3.3,0,0,1-.25.12h-2.17Z" transform="translate(-470.96 -457.56)" style="fill-rule:evenodd"/><path d="M527.14,487.79a5.46,5.46,0,0,1,.76-1.32,23.29,23.29,0,0,1,2.71-3l.48-.45c-.19.46-.38.88-.55,1.3a16.61,16.61,0,0,0-1.09,4.22,9.76,9.76,0,0,0,.08,3s0,.06,0,.11a8.37,8.37,0,0,1-.75-2.25,6.89,6.89,0,0,1,0-2.41A4.5,4.5,0,0,0,527.14,487.79Z" transform="translate(-470.96 -457.56)" style="fill-rule:evenodd"/><path d="M524.29,513.11h-4.8a1.25,1.25,0,0,1-.34-.05l-3.48-1a.31.31,0,0,1-.11,0,13.64,13.64,0,0,1,8.73,1Z" transform="translate(-470.96 -457.56)" style="fill-rule:evenodd"/><path d="M513.73,508a25.31,25.31,0,0,0,10.13,1.26c-.34.05-.69.12-1,.16-.91.1-1.83.21-2.74.29a21,21,0,0,1-4,0c-.72-.08-1.44-.23-2.15-.34-.13,0-.17-.08-.16-.21C513.74,508.77,513.73,508.4,513.73,508Z" transform="translate(-470.96 -457.56)" style="fill-rule:evenodd"/><path d="M526.69,478.95a3.66,3.66,0,0,0-2.19-.72,1.48,1.48,0,0,1,1-.29,3.29,3.29,0,0,1,1.54.57c.48.32.92.68,1.38,1l.07.08a5,5,0,0,0-3.72,1.66,4.26,4.26,0,0,1,.15-.43,4.5,4.5,0,0,1,1.12-1.38C526.27,479.29,526.47,479.13,526.69,478.95Z" transform="translate(-470.96 -457.56)" style="fill-rule:evenodd"/><path d="M530.05,480.08l.1-.82a1.14,1.14,0,0,1,0-.27,1.51,1.51,0,0,1,.19-.37c.15-.2.32-.39.49-.59l-.12-.17-.6.51c-.1.09-.2.14-.32.06s-.12-.18-.09-.32a.31.31,0,0,1,.16-.21c.44-.28.86-.58,1.32-.82a2,2,0,0,1,1.47-.17c.12,0,.22.08.24.21s-.06.21-.16.27c-.49.33-1,.65-1.45,1a2.83,2.83,0,0,0-1.19,1.69Z" transform="translate(-470.96 -457.56)" style="fill-rule:evenodd"/><path d="M534.22,496c-.85.13-2.78-1-3.58-2.1a5.36,5.36,0,0,1-.81-4.36c0,.17,0,.33,0,.5a6.32,6.32,0,0,0,1.89,4.38,6.86,6.86,0,0,0,1.92,1.3Z" transform="translate(-470.96 -457.56)" style="fill-rule:evenodd"/><path d="M513.73,495.55c0-.3,0-.57,0-.85a.14.14,0,0,1,.07-.11l2.39-.9A8.16,8.16,0,0,1,513.73,495.55Z" transform="translate(-470.96 -457.56)" style="fill-rule:evenodd"/><path d="M540,486.94l-2.5,6.26A18,18,0,0,1,540,486.94Z" transform="translate(-470.96 -457.56)" style="fill-rule:evenodd"/><path d="M531.42,484.63a3.05,3.05,0,0,1-.85,3.26A7,7,0,0,0,531.42,484.63Z" transform="translate(-470.96 -457.56)" style="fill-rule:evenodd"/><path d="M514.67,504.24l-.92.14v-.26l.92.08Z" transform="translate(-470.96 -457.56)" style="fill-rule:evenodd"/><polygon points="38.69 106.18 40.99 107.8 42.79 106.54 42.85 95.39 38.69 95.39 38.69 106.18" style="fill:#ec1c24"/><polygon points="43 55.61 43.02 2.06 38.69 2.06 38.69 55.61 4.63 55.63 7.88 65.61 15.37 65.64 15.37 80.53 15.57 81.26 19.62 87.23 19.68 87.22 19.68 65.67 28.04 65.69 28.03 96.46 28.3 97.11 32.34 100.61 32.34 65.68 38.69 65.68 38.69 72.95 42.96 72.95 43 65.67 49.34 65.69 49.34 100.08 53.38 96.56 53.64 95.95 53.65 65.66 61.99 65.68 62.02 87.13 66.09 81.43 66.3 80.71 66.3 65.61 73.67 65.61 74.13 65.31 77.33 55.61 43 55.61" style="fill:#ec1c24"/><path d="M472.07,475.11l39.76-16.47,39.36,16.47s10.11,56.42-39.24,90.25C511.95,565.36,469.47,544.3,472.07,475.11Z" transform="translate(-470.96 -457.56)" style="fill:none;stroke:#231f20;stroke-miterlimit:10;stroke-width:2px"/><path d="M486.13,515l-5,6.16h5.17l.68-.66h3.89l.5.48h5.39l-4.86-6Zm1.73,4.05,1-2,1,2Z" transform="translate(-470.96 -457.56)" style="fill:#fff"/><path d="M537.56,515h-5.79l-5,6.16H532l.68-.66h3.89l.5.48h5.39Zm-4.06,4.05,1-2,1,2Z" transform="translate(-470.96 -457.56)" style="fill:#fff"/><path d="M506.15,517.91c0,4,11.24,3,11.24,3v-2s-5.86,1.29-5.86-1,5.86-1,5.86-1v-2S506.15,513.86,506.15,517.91Z" transform="translate(-470.96 -457.56)" style="fill:#fff"/><path d="M504.72,546a1,1,0,0,0,1.14-.83h.7v6.59h-1v-5h-.8Z" transform="translate(-470.96 -457.56)" style="fill:#231f20"/><path d="M510.84,550.09c0,1.11-.51,1.71-1.58,1.71s-1.54-.6-1.54-1.66V550h1v.23c0,.47.21.65.54.65s.57-.18.57-.81v-1.2a1,1,0,0,1-1,.58c-.76,0-1.15-.54-1.15-1.51v-1.21a1.57,1.57,0,1,1,3.14,0Zm-1-2.25v-1.19c0-.47-.21-.64-.54-.64s-.54.17-.54.64v1.19c0,.47.21.65.54.65S509.81,548.31,509.81,547.84Z" transform="translate(-470.96 -457.56)" style="fill:#231f20"/><path d="M512.17,546a1,1,0,0,0,1.14-.83h.7v6.59h-1v-5h-.8Z" transform="translate(-470.96 -457.56)" style="fill:#231f20"/><path d="M515.18,546.72a1.57,1.57,0,1,1,3.14,0v3.43a1.57,1.57,0,1,1-3.14,0Zm1,3.49c0,.47.21.65.54.65s.54-.18.54-.65v-3.56c0-.47-.21-.65-.54-.65s-.54.18-.54.65Z" transform="translate(-470.96 -457.56)" style="fill:#231f20"/><polygon points="39.38 78.71 40.42 76.69 40.42 76.11 39.07 76.11 39.07 75.06 40.42 75.06 40.42 73.76 41.41 73.76 41.41 75.17 42.72 75.12 42.72 76.24 41.36 76.24 41.41 76.69 42.3 78.71 42.25 84.6 39.49 84.6 39.38 78.71"/><path d="M507.73,542.16s-3.91-8.23,3-6.59l-.36.7s-4.29-.57-1.68,5.68Z" transform="translate(-470.96 -457.56)"/><path d="M515.81,542.16s3.91-8.23-3-6.59l.36.7s4.29-.57,1.67,5.68Z" transform="translate(-470.96 -457.56)"/><path d="M507.32,542.16a22.46,22.46,0,0,1,8.81,0v1.41h-8.81Z" transform="translate(-470.96 -457.56)"/><path d="M515.35,535.46s7.86.5.77,6.7l-.42-.05s5.78-5.37-.37-6.15Z" transform="translate(-470.96 -457.56)"/><path d="M508.11,535.46s-7.86.5-.77,6.7l.42-.05s-5.78-5.37.36-6.15Z" transform="translate(-470.96 -457.56)"/></svg>