<?xml version="1.0" encoding="UTF-8"?>
<svg id="Calque_2" data-name="Calque 2" xmlns="http://www.w3.org/2000/svg" viewBox="0 0 6331.71 8599.09">
  <defs>
    <style>
      .cls-1 {
        fill: #e1171a;
      }

      .cls-2 {
        fill: #fab815;
      }

      .cls-3 {
        fill: #fff;
      }

      .cls-4 {
        fill: #00579f;
      }

      .cls-5 {
        fill: #ba6916;
      }
    </style>
  </defs>
  <g id="Calque_1-2" data-name="Calque 1">
    <g>
      <path d="M3122.4,8564.12c-517.85-416.81-1000.86-938-1435.63-1549.16C850.75,5835.77,325.82,4576.67,126.55,3272.55,40.09,2700.87-2.46,2073.33.11,1407.25l.27-69.04h1838c17.33,0,42.19-25.56,42.19-43.43C1880.58,580.84,2457.13,0,3165.85,0s1285.28,580.84,1285.28,1294.77c0,17.87,24.86,43.43,42.24,43.43h1837.96l.27,69.04c2.62,665.97-39.89,1293.51-126.35,1865.19-199.31,1304.14-724.2,2563.24-1560.22,3742.43-434.86,611.3-917.92,1132.48-1435.72,1549.25l-43.45,34.97-43.45-34.97Z"/>
      <path class="cls-2" d="M1949.89,1294.77c0,56.37-56.37,112.74-111.52,112.74H69.43c-2.3,599.85,31.71,1233.59,125.61,1854.58,206.64,1352.15,755.95,2595.21,1548.22,3712.69,410.83,577.5,887.38,1104.59,1422.61,1535.33,535.22-430.74,1011.77-957.83,1422.62-1535.33,792.27-1117.48,1341.58-2360.55,1548.22-3712.69,93.89-620.99,127.9-1254.73,125.59-1854.58h-1768.95c-55.13,0-111.51-56.37-111.51-112.74,0-657.31-529.39-1225.45-1215.97-1225.45s-1215.97,568.15-1215.97,1225.45h0Z"/>
      <path d="M2990.93,1636.36H299.51c5.83,485.9,36.45,974.24,102.16,1455.53h1582.23l1007.17-924.92v-530.62h-.13Z"/>
      <path d="M5930.16,3091.9c65.75-481.29,96.25-969.5,102.21-1455.53h-2691.45v530.48l1007.17,924.92h1582.21l-.14.13Z"/>
      <path d="M5621.36,4442.94c105.72-325.18,191.34-659.59,252.34-1000.1h-1662.05l-1045.78-961.37-1045.78,961.37H457.9c60.98,340.37,146.75,674.92,252.3,1000.1h4911.15Z"/>
      <path d="M3165.86,8214.34c467.2-400.29,880.34-869.81,1236.03-1372.22,451.88-636.18,825.18-1322.87,1097.53-2047.12H832.43c272.35,724.25,645.65,1410.8,1097.54,2047.12,355.69,502.41,768.82,971.92,1236.02,1372.22h-.13Z"/>
      <path class="cls-3" d="M2921.69,1705.6H369.97c3.52,217.21,12.87,435.49,26.96,655,15.31,224.12,37.53,444.85,65.72,662.05h1494.29l964.89-886.17v-430.75l-.14-.14Z"/>
      <path class="cls-3" d="M5869.07,3022.66c28.19-217.07,50.55-437.8,65.71-662.05,14.09-219.51,23.43-437.8,26.99-655h-2551.87v430.75l964.89,886.16h1494.29v.14Z"/>
      <path class="cls-4" d="M5570.99,4373.72c46.85-145.53,89.13-293.49,126.79-444.84,35.26-138.48,65.75-276.96,92.69-415.57h-1604.58l-1020.04-937.79-1020.04,937.79H541.24c26.97,138.48,57.45,276.96,92.68,415.57,37.53,151.35,79.81,299.32,126.69,444.84h4810.38Z"/>
      <path class="cls-1" d="M1118.74,2563.72v-672.62h-333.33v680.75c0,54.06,31.71,99.73,100.94,146.75,100.95,62.19,262.87,92.68,487.12,92.68,379.13,0,564.63-85.64,564.63-262.87v-665.57h-340.37v665.57c0,99.72-77.51,154.87-224.12,154.87-170.19,0-254.74-47.02-254.74-139.7l-.13.13Z"/>
      <path class="cls-1" d="M5305.67,2331.21c0-200.67-116.26-308.66-340.36-332.11l-239.45-8.26v689.01l254.74-15.31c197.17-32.93,325.07-102.17,325.07-333.33ZM5630.74,2339.47c0,377.91-462.49,448.37-742.97,448.37h-494.15v-912.05h455.43c518.82,0,781.69,153.79,781.69,463.68h0Z"/>
      <path d="M3165.86,290.04c548.09,0,995.38,449.59,995.38,997.68h-1990.76c0-548.23,447.28-997.68,995.38-997.68h0Z"/>
      <path class="cls-2" d="M3165.86,1213.88c171.41,0,312.19-140.78,312.19-313.41s-140.92-313.41-312.19-313.41-312.19,140.92-312.19,313.41,140.92,313.41,312.19,313.41h0Z"/>
      <path class="cls-3" d="M3165.86,359.29c487.12,0,888.6,380.35,922.61,859.2h-708.93c100.95-69.24,168.97-185.5,168.97-318.16,0-210.16-172.49-382.65-382.65-382.65s-382.65,172.49-382.65,382.65c0,132.66,68.02,248.91,169.11,318.16h-708.93c34.01-478.86,435.49-859.2,922.61-859.2h-.13Z"/>
      <path class="cls-3" d="M4692.91,3608.29h-161.91v649.04h161.91v-649.04Z"/>
      <path class="cls-3" d="M1631.74,4265.73v-650.4h161.92v572.89h325.2v77.5h-487.12Z"/>
      <path class="cls-3" d="M3285.64,4179.96h293.36v85.77h-455.41v-650.4h455.41v85.77h-293.36v185.5h262.87v92.68h-262.87v200.67Z"/>
      <path class="cls-3" d="M2752.72,3793.79l-170.19,215.99h-30.49l-163.28-208.94v464.9h-161.92v-650.4h161.92l183.2,232.52,180.75-232.52h161.92v650.4h-161.92v-471.94Z"/>
      <path class="cls-3" d="M4143.62,3800.83c0-93.9-82.11-99.73-154.87-99.73v200.67c72.76,0,154.87,2.31,154.87-100.94ZM4043.9,3986.33h-55.15v279.4h-154.88v-650.26h154.88c82.11,0,203.11,9.35,272.35,63.41,42.28,35.23,68.02,98.64,53.93,152.57-15.31,58.67-71.55,97.42-132.66,117.34,122.08,34.01,191.33,204.19,217.21,316.93h-170.19c-35.23-77.5-95.12-260.56-185.5-279.4h0Z"/>
      <path class="cls-3" d="M5156.6,3778.61l-92.69,262.87h185.52l-92.69-262.87h-.14ZM4824.37,4272.78l247.67-657.31h177.25l240.65,657.31h-163.16l-45.79-146.74h-240.65l-53.92,146.74h-162.05Z"/>
      <path class="cls-3" d="M1175.11,3778.61l92.68,262.87h-185.5l92.68-262.87h.13ZM1507.35,4272.78l-247.69-657.31h-177.24l-240.64,657.31h163.14l45.8-146.74h240.64l54.07,146.74h161.92Z"/>
      <path class="cls-5" d="M3165.86,5278.6c-215.99,0-412.05,88.07-554.06,231.27-42.28,42.28-63.41,120.88-30.49,176.05,21.14,34.01,45.8,65.71,73.98,93.89,58.67,57.44,119.78,12.85,157.31-41.08,170.19-248.78,381.43-366.24,655.01-399.05-92.68-38.72-194.85-60.95-301.62-60.95l-.13-.14ZM2494.46,5658.93c44.58,102.16,116.26,180.76,206.64,240.65,92.68,60.99,206.63,100.96,333.33,123.28,82.12,14.09,83.34,19.96,95.12,118.57,7.05,50.55,2.3,99.76-2.31,151.38,1.22,78.6-72.76,117.32-130.35,100.92-332.11-63.4-504.73-212.46-603.24-461.33,16.39-98.65,51.62-190.14,100.94-273.45h-.13ZM2382.94,6079.1c5.83,269.94,149.05,505.97,361.51,643.25,84.55,53.92,178.45,68.02,251.21-29.43,26.97-36.46,50.54-73.98,69.24-113.81,37.53-82.11-26.96-107.99-89.16-118.57-304.06-55.12-480.08-176-592.81-381.44h0ZM2963.97,6819.75c104.47-100.96,170.19-217.08,201.89-342.81,32.79-116.26,45.8-237.14,28.18-354.46-12.87-83.36-10.57-107.99,44.58-177.25,37.53-48.1,89.16-86.87,137.4-122.08,52.84-44.59,112.73-3.51,133.87,51.61,136.18,335.65,37.53,636.18-159.62,949.61-58.67,14.09-120.86,21.12-184.28,21.12-69.24,0-137.26-9.33-201.89-25.88l-.13.14ZM3465.18,6786.81c183.06-320.45,251.22-622.04,113.82-944.8-24.66-59.88-37.53-132.66,44.58-153.82,38.75-10.54,79.81-16.36,120.86-16.36,88.08-4.76,124.39,37.52,152.57,109.19,32.93,88.07,51.63,181.96,51.63,281.73,0,325.02-200.67,605.69-483.6,724.21l.13-.14ZM3804.47,5609.49c-110.3-10.58-213.69,11.78-309.89,58.64-104.47,49.35-203.11,127.95-285.22,228.86-39.97,46.9-62.2,75.09-132.66,65.71-64.5-9.33-125.61-23.43-180.75-42.23-65.72-22.36-64.5-95.14-30.49-143.24,179.54-264.07,405.01-367.35,712.46-381.44,88.07,55.17,165.45,127.9,226.55,213.71h0Z"/>
      <path class="cls-1" d="M2148.26,4864.22h-679.66v1126.81c158.4,278.21,331.02,548.25,517.6,811.12,52.85,73.98,106.78,147.82,162.06,220.73v-2158.67h0Z"/>
      <path class="cls-1" d="M4183.59,7022.88c55.15-72.78,109.22-146.75,161.92-220.73,186.59-262.87,359.22-532.91,517.62-811.12v-1126.81h-679.68v2158.67h.13Z"/>
      <path class="cls-1" d="M3505.02,5284.56v-420.21h-678.44v420.21c104.47-45.79,219.51-71.71,339.29-71.71s234.82,25.92,339.15,71.71Z"/>
      <path class="cls-1" d="M3165.86,8122.71c116.26-102.16,228.86-207.7,339.15-318v-963.7c-104.47,45.84-219.51,70.47-339.15,70.47s-234.82-24.63-339.29-70.47v963.7c110.3,110.3,223.03,215.97,339.29,318.14v-.14Z"/>
      <path class="cls-3" d="M1468.6,4864.22h-535.22c124.39,321.7,269.91,636.18,434.27,941.47,32.93,62.2,66.94,123.28,100.94,185.48v-1126.95Z"/>
      <path class="cls-3" d="M2826.71,4864.22h-678.44v2158.67c133.87,177.21,275.88,348.63,424.93,514.06,82.11,91.63,166.66,180.76,253.52,267.63v-963.65c-299.32-131.46-509.48-431.99-509.48-778.18s210.16-646.76,509.48-778.18v-420.35Z"/>
      <path class="cls-3" d="M4863.14,5991.17c34.01-62.2,68.02-123.28,100.92-185.48,164.36-305.15,309.91-619.78,434.3-941.47h-535.22v1126.95Z"/>
      <path class="cls-3" d="M3505.02,7804.57c86.86-86.87,171.41-176,253.52-267.63,149.05-165.56,291.05-336.85,424.92-514.06v-2158.67h-678.44v420.21c299.32,131.41,509.48,430.74,509.48,778.18s-210.16,646.72-509.48,778.18v963.79Z"/>
    </g>
  </g>
</svg>