<?xml version="1.0" encoding="UTF-8" standalone="no"?>
<svg
   inkscape:version="1.1.1 (c3084ef, 2021-09-22)"
   sodipodi:docname="Logo_Amiens_SC_-_2022.svg"
   viewBox="0 0 543.34832 650"
   height="650"
   width="543.34833"
   xml:space="preserve"
   id="svg833"
   version="1.1"
   xmlns:inkscape="http://www.inkscape.org/namespaces/inkscape"
   xmlns:sodipodi="http://sodipodi.sourceforge.net/DTD/sodipodi-0.dtd"
   xmlns="http://www.w3.org/2000/svg"
   xmlns:svg="http://www.w3.org/2000/svg"
   xmlns:rdf="http://www.w3.org/1999/02/22-rdf-syntax-ns#"
   xmlns:cc="http://creativecommons.org/ns#"
   xmlns:dc="http://purl.org/dc/elements/1.1/"><metadata
     id="metadata839"><rdf:RDF><cc:Work
         rdf:about=""><dc:format>image/svg+xml</dc:format><dc:type
           rdf:resource="http://purl.org/dc/dcmitype/StillImage" /></cc:Work></rdf:RDF></metadata><defs
     id="defs837" /><sodipodi:namedview
     inkscape:current-layer="g841"
     inkscape:window-maximized="0"
     inkscape:window-y="0"
     inkscape:window-x="0"
     inkscape:cy="440"
     inkscape:cx="354"
     inkscape:zoom="0.5"
     showgrid="false"
     id="namedview835"
     inkscape:window-height="900"
     inkscape:window-width="1440"
     inkscape:pageshadow="2"
     inkscape:pageopacity="0"
     guidetolerance="10"
     gridtolerance="10"
     objecttolerance="10"
     borderopacity="1"
     bordercolor="#666666"
     pagecolor="#ffffff"
     inkscape:document-rotation="0"
     inkscape:pagecheckerboard="0"
     showguides="false" /><g
     transform="matrix(1.3333333,0,0,-1.3333333,544.97708,795.12465)"
     inkscape:label="Logo"
     inkscape:groupmode="layer"
     id="g841"><g
       id="g1303"
       transform="matrix(1.0331115,0,0,1.0331115,13.533754,-19.745823)"><path
         style="fill:#000000;fill-opacity:1;stroke:none;stroke-width:0.610604px;stroke-linecap:butt;stroke-linejoin:miter;stroke-opacity:1"
         d="M -408.73282,596.3435 V 373.47292 c 0.8372,-38.99583 22.64892,-99.75074 50.28184,-138.77653 38.87279,-54.89981 89.85556,-91.37378 146.94336,-110.2284 57.08781,18.85462 108.07057,55.32859 146.943363,110.2284 27.632917,39.02579 49.444632,99.7807 50.281838,138.77653 V 596.3435 Z"
         id="path890" /><path
         style="fill:#ffffff;fill-opacity:1;stroke:none;stroke-width:0.610604px;stroke-linecap:butt;stroke-linejoin:miter;stroke-opacity:1"
         d="M -392.85711,580.46779 H -30.158132 V 386.90621 c 2.376252,-41.4298 -15.226695,-97.16489 -44.352296,-140.65844 -31.429232,-46.93356 -85.703562,-88.67151 -136.997192,-105.90406 -51.29362,17.23255 -105.56795,58.9705 -136.99719,105.90406 -29.1256,43.49355 -46.72855,99.22864 -44.3523,140.65844 z"
         id="path1209" /></g><g
       id="g6953"><g
         id="g1351"
         transform="matrix(1.0331115,0,0,1.0331115,13.533754,-19.745823)"><path
           d="m -244.96861,538.84268 c 0.49027,0.0313 0.95283,-0.0711 1.25475,0.10245 1.17164,0.67726 1.65914,-0.074 2.23804,-0.87931 3.03298,-4.22009 6.09367,-8.42026 9.15158,-12.62327 0.0886,-0.11952 0.2299,-0.20204 0.46811,-0.40408 1.22981,4.69815 2.4347,9.27964 3.62296,13.86397 0.23544,0.90776 0.42933,1.8269 0.6066,2.74605 0.11634,0.5862 0.46257,0.85084 1.02485,0.9419 0.60382,0.0968 1.20211,0.23335 1.86688,0.36709 2.36822,-7.42997 4.75306,-14.90832 7.13513,-22.39521 -1.64529,-0.34432 -3.30997,-0.69434 -5.01066,-1.05289 -1.44309,5.00833 -2.90557,10.08781 -4.37082,15.16444 -0.0776,-0.009 -0.15234,-0.0142 -0.2299,-0.0228 -0.91959,-3.66803 -1.85026,-7.33607 -2.75877,-11.00695 -0.41825,-1.696 -0.77002,-3.40908 -1.21597,-5.09654 -0.0886,-0.33579 -0.41547,-0.70003 -0.73124,-0.86508 -0.45979,-0.23903 -0.7811,0.0427 -1.09409,0.48091 -3.0136,4.19448 -6.0632,8.36335 -9.1045,12.53791 -0.072,0.0996 -0.15788,0.1935 -0.23544,0.29025 -0.11079,-0.0171 -0.21881,-0.0341 -0.32684,-0.0512 0.4958,-5.11931 0.99161,-10.23862 1.48741,-15.34371 -0.81987,-0.14512 -1.74224,-0.30733 -2.74769,-0.4866 -0.0166,0.17358 -0.0526,0.41262 -0.0582,0.65165 -0.072,2.71474 -0.0859,5.42949 -0.22159,8.14139 -0.20497,4.07211 -0.50411,8.13854 -0.74232,12.20781 -0.0526,0.87645 -0.008,1.7586 -0.008,2.73181"
           style="fill:#000000;fill-opacity:1;fill-rule:nonzero;stroke:none;stroke-width:2.80749"
           id="path929" /><path
           d="m -167.18149,535.70878 c 0.91682,-0.30733 1.67576,-0.5606 2.47347,-0.82524 -2.14109,-7.55234 -4.2628,-15.04492 -6.40112,-22.59725 -0.82819,0.2618 -1.58436,0.44676 -2.29067,0.75125 -0.27421,0.12236 -0.49857,0.48091 -0.63706,0.78255 -2.16326,4.64978 -4.2905,9.31379 -6.46207,13.95788 -0.88912,1.90089 -1.85857,3.76478 -2.8751,5.8108 -1.54004,-5.43233 -3.02468,-10.67685 -4.52317,-15.96406 -0.83372,0.25611 -1.63144,0.50084 -2.49286,0.76264 2.1217,7.48973 4.24341,14.97946 6.39281,22.56879 1.02208,-0.31871 1.94998,-0.5862 2.86126,-0.90491 0.17727,-0.0626 0.33515,-0.2931 0.42655,-0.48092 2.76986,-5.83641 5.52863,-11.67567 8.29294,-17.51493 0.24652,-0.52075 0.50134,-1.03866 0.85865,-1.77853 1.49849,5.28152 2.93328,10.34392 4.37637,15.43193"
           style="fill:#000000;fill-opacity:1;fill-rule:nonzero;stroke:none;stroke-width:2.80749"
           id="path945" /><path
           d="m -245.84748,514.58101 c -1.69515,-0.81954 -3.29058,-1.59071 -4.98573,-2.40741 -1.60098,1.76714 -3.26012,3.59974 -4.95804,5.47217 -2.24357,-1.05858 -4.44561,-2.08586 -6.62825,-3.15297 -0.22159,-0.10814 -0.4681,-0.48945 -0.44871,-0.72279 0.18558,-2.29359 0.42655,-4.58434 0.65645,-6.94337 -0.82819,-0.3927 -1.69515,-0.80532 -2.72276,-1.29193 -0.28253,8.60238 -0.56505,17.13362 -0.85035,25.71608 0.20497,0.074 0.40994,0.0967 0.54566,0.20489 1.36277,1.09842 2.23804,0.43823 3.29059,-0.63743 5.10483,-5.23029 10.29553,-10.37806 15.45577,-15.55713 0.20496,-0.20773 0.40162,-0.424 0.64537,-0.68011 m -17.02904,1.95781 c 1.89457,0.89637 3.68944,1.74438 5.5674,2.63222 -1.98876,2.06593 -3.88333,4.03512 -5.77514,6.00146 -0.0637,-0.0512 -0.12742,-0.10245 -0.18835,-0.15651 0.13018,-2.7802 0.26036,-5.56324 0.39609,-8.47717"
           style="fill:#000000;fill-opacity:1;fill-rule:nonzero;stroke:none;stroke-width:2.80749"
           id="path953" /><path
           d="m -203.74519,543.45433 c 4.18802,-0.43823 8.23477,-0.86507 12.36739,-1.29761 -0.0803,-0.94475 -0.16066,-1.88951 -0.23821,-2.81719 -1.9666,0.34432 -3.91934,0.66304 -5.86378,1.02443 -1.57881,0.29595 -1.65914,0.21058 -1.76716,-1.33745 -0.1191,-1.71592 -0.349,-3.42331 -0.5235,-5.13354 -0.0249,-0.25326 -0.003,-0.50937 -0.003,-0.89353 2.4707,-0.17643 4.9054,-0.35002 7.35949,-0.52645 -0.10525,-0.82239 -0.21605,-1.70169 -0.33238,-2.61514 -2.35991,0.31302 -4.73368,0.63173 -7.27363,0.97036 -0.28529,-2.9367 -0.56505,-5.82787 -0.86142,-8.86987 2.59258,-0.15366 5.05498,-0.29594 7.5146,-0.44107 -0.072,-0.87646 -0.14403,-1.74153 -0.22989,-2.74605 -4.09661,0.4297 -8.16276,0.85654 -12.39509,1.30046 0.74509,7.76861 1.49018,15.5116 2.24635,23.38265"
           style="fill:#000000;fill-opacity:1;fill-rule:nonzero;stroke:none;stroke-width:2.80749"
           id="path961" /><path
           d="m -164.93071,515.07672 c 0.0277,-0.28171 0.11633,-0.57197 0.0748,-0.84515 -0.45148,-2.93101 1.89181,-5.49494 4.69767,-5.54616 2.49564,-0.0455 4.08276,2.8741 2.86957,5.24737 -0.6897,1.34599 -1.62867,2.57246 -2.5178,3.81031 -2.45685,3.42047 -2.46516,6.68442 0.10803,9.80609 1.73946,2.10862 4.36805,2.88264 7.61432,1.69316 2.11893,-0.77402 4.19909,-2.62084 5.06883,-4.51889 -0.79495,-0.83092 -1.60098,-1.67323 -2.57597,-2.69482 -0.13849,0.91345 -0.20773,1.62771 -0.36285,2.32205 -0.36562,1.61917 -1.79486,2.92532 -3.38198,3.12167 -1.09687,0.13659 -2.09124,-0.0683 -2.80863,-0.99598 -0.8365,-1.08988 -1.13841,-2.33058 -0.45426,-3.54567 0.99715,-1.77853 2.18541,-3.44892 3.23796,-5.19899 1.38769,-2.30497 1.78101,-4.70954 0.52904,-7.22509 -1.54558,-3.11029 -4.67828,-4.52457 -8.10182,-3.73064 -2.75323,0.63743 -4.98573,2.01472 -6.65318,4.30262 -0.28529,0.38985 -0.40717,0.66872 -0.0249,1.09557 0.81988,0.91914 1.58159,1.89235 2.36823,2.8428 0.10525,0.0199 0.20773,0.0398 0.31299,0.0598"
           style="fill:#000000;fill-opacity:1;fill-rule:nonzero;stroke:none;stroke-width:2.80749"
           id="path985" /><path
           d="m -214.72765,543.4549 h 4.85001 c 0.15234,-7.72592 0.30468,-15.55144 0.4598,-23.50217 h -4.89433 c -0.13849,7.73162 -0.27422,15.53722 -0.41548,23.50217"
           style="fill:#000000;fill-opacity:1;fill-rule:nonzero;stroke:none;stroke-width:2.80749"
           id="path1005" /></g><g
         id="g6489"><g
           id="g1360"
           transform="matrix(1.0331115,0,0,1.0331115,13.533754,-19.745823)"><path
             d="m -236.21782,425.66035 c 1.48741,-3.69364 2.90281,-7.15679 4.27942,-10.63416 1.37939,-3.48307 2.53719,-7.11127 4.79462,-10.12765 1.75054,-2.33627 3.79192,-4.51034 5.98011,-6.44253 2.49009,-2.194 5.21009,-4.16318 7.9744,-6.01569 5.82776,-3.90992 11.77463,-7.64056 17.62733,-11.51348 4.65889,-3.07898 8.96601,-6.60758 12.70254,-10.75653 3.42907,-3.80462 5.65049,-8.26375 6.2931,-13.37452 0.29914,-2.37896 0.4681,-4.80345 0.37947,-7.19663 -0.12465,-3.33225 -0.88081,-6.57628 -2.24635,-9.64958 -0.31022,-0.70003 -0.63707,-1.39152 -0.97499,-2.13139 -2.80586,1.03297 -5.2184,2.46149 -7.31795,4.35099 -1.44309,1.30046 -2.70614,2.79727 -4.08276,4.17172 -0.91128,0.9106 -0.57059,2.10293 -0.71462,3.14443 -0.47364,3.37778 -1.73392,6.39985 -3.68667,9.16297 -2.32944,3.2981 -5.5397,5.65145 -8.78043,7.92227 -4.5564,3.18712 -9.21529,6.23196 -13.84094,9.31949 -3.57865,2.38749 -7.22655,4.67254 -10.7498,7.13687 -4.9885,3.4916 -9.20421,7.71454 -11.76632,13.34606 -1.14395,2.51271 -1.87242,5.12785 -2.10786,7.90236 -0.50411,5.95308 0.53181,11.59315 3.37645,16.86043 0.8088,1.49681 1.81979,2.88833 2.86125,4.52457"
             style="fill:#000000;fill-opacity:1;fill-rule:nonzero;stroke:none;stroke-width:2.80749"
             id="path873" /><path
             d="m -207.22994,389.91025 c -1.80594,1.17241 -3.60634,2.3562 -5.42337,3.51153 -3.89995,2.48709 -7.49521,5.33273 -10.76087,8.6223 -1.92781,1.94073 -3.4263,4.15179 -4.60072,6.55351 -1.27967,2.618 -2.29344,5.36689 -3.40415,8.0674 -1.57881,3.84447 -3.13824,7.69178 -4.70044,11.54193 -0.48472,1.19517 -0.93067,2.40172 -1.41816,3.59689 -0.14126,0.34433 -0.35454,0.66019 -0.70077,1.28339 -5.74744,-14.49286 -11.38409,-28.71254 -17.0789,-43.07166 0.48472,-0.0228 0.82818,-0.0541 1.16887,-0.0541 5.1907,-0.003 10.38141,0.0142 15.57211,-0.0313 0.47918,-0.003 1.06639,-0.28171 1.40985,-0.62319 1.45417,-1.4399 2.83356,-2.95378 4.27111,-4.47335 -0.28529,-0.0142 -0.62322,-0.0427 -0.96391,-0.0427 -7.58939,-0.003 -15.17878,-0.006 -22.76817,0.009 -0.62322,0.003 -0.9279,-0.11667 -1.17442,-0.79678 -1.42647,-3.90422 -2.9859,-7.76292 -4.41237,-11.66714 -0.9833,-2.68344 -1.8835,-5.40103 -2.69507,-8.14138 -0.48749,-1.63909 -0.68415,-3.3664 -0.26036,-5.0624 0.63429,-2.5497 2.45685,-3.85016 4.92756,-4.33392 1.49018,-0.2931 3.00529,-0.47237 4.58133,-0.71425 v -1.65332 h -27.30796 v 1.58218 c 1.28244,0.41546 2.61751,0.76832 3.88887,1.28338 2.42085,0.98175 4.18248,2.76027 5.29873,5.06809 2.16325,4.47051 4.24618,8.97801 6.28756,13.50542 1.15226,2.5497 2.17987,5.15915 3.22965,7.75438 1.396,3.45461 2.74215,6.9263 4.14369,10.37806 0.97776,2.41595 2.03585,4.8006 3.0136,7.2194 1.37108,3.39485 2.67014,6.81531 4.05229,10.20448 2.12448,5.21037 4.31266,10.39228 6.43714,15.60266 1.23812,3.0363 2.38761,6.10959 3.61465,9.14874 0.98884,2.4501 2.06908,4.86036 3.05792,7.31046 1.36831,3.38631 2.67568,6.79824 4.04952,10.18171 0.22159,0.54352 0.54012,1.10411 1.37108,0.98175 0.65368,-0.0968 1.21596,0.0797 1.58712,-0.85085 1.47633,-3.70787 3.13824,-7.33892 4.66997,-11.02402 1.84195,-4.42782 3.59804,-8.89264 5.43445,-13.3233 0.82819,-1.99195 1.79486,-3.92699 2.63967,-5.91325 1.11071,-2.60946 2.15217,-5.25021 3.24349,-7.8682 2.69507,-6.47669 5.39844,-12.94768 8.10459,-19.41867 0.58167,-1.38868 1.19103,-2.76881 1.78655,-4.1518 -0.0582,-0.0626 -0.11356,-0.12805 -0.17173,-0.19066"
             style="fill:#000000;fill-opacity:1;fill-rule:nonzero;stroke:none;stroke-width:2.80749"
             id="path877" /><path
             d="m -142.48965,347.35651 c 0.39885,-0.55206 0.80602,-1.1155 1.31567,-1.82122 -1.45417,-1.53949 -2.79201,-3.14728 -4.33481,-4.53311 -1.65637,-1.48827 -3.43185,-2.87694 -5.28765,-4.1091 -3.90272,-2.59238 -8.14336,-4.47051 -12.72469,-5.56324 -3.64236,-0.87076 -7.34011,-1.13541 -11.05725,-0.95613 -4.25172,0.20773 -8.45082,0.95613 -12.44217,2.39887 -4.45115,1.60779 -8.51729,3.94976 -12.10702,7.12834 -3.49832,3.09891 -6.26263,6.74702 -8.50344,10.77361 -2.06077,3.69933 -3.26289,7.75722 -4.25172,11.87202 -0.34624,1.4342 -0.85866,2.82572 -1.19381,4.26277 -0.4044,1.71023 -0.70077,3.44608 -1.08578,5.37827 1.20211,-0.78824 2.33221,-1.48827 3.41799,-2.24806 3.33214,-2.33343 6.64488,-4.69816 9.97701,-7.03728 1.65083,-1.15817 2.35714,-2.76881 2.85294,-4.701 1.04424,-4.04935 2.88342,-7.74584 5.31258,-11.20899 2.85572,-4.06642 6.4399,-7.17102 10.86059,-9.33371 2.71999,-1.3346 5.63664,-2.02894 8.66132,-2.35619 4.2905,-0.46384 8.50898,-0.14228 12.65822,1.00736 4.34867,1.20086 8.33171,3.15297 11.84388,6.00146 1.99153,1.61633 3.94981,3.26964 6.08814,5.04533"
             style="fill:#000000;fill-opacity:1;fill-rule:nonzero;stroke:none;stroke-width:2.80749"
             id="path893" /><path
             d="m -239.55105,321.73348 h -2.63136 c -0.27976,2.12001 -0.55397,4.22294 -0.84204,6.32302 -0.30468,2.23952 -0.62875,4.4762 -0.93067,6.71287 -0.28806,2.14562 -0.5512,4.29408 -0.84203,6.43685 -0.31023,2.27082 -0.65646,4.53311 -0.95837,6.80393 -0.29083,2.21107 -0.58167,4.42213 -0.80326,6.64173 -0.17173,1.71592 -0.12464,1.68178 1.63698,1.70739 0.70909,0.009 0.95837,-0.31871 1.17165,-0.89923 1.85026,-4.97987 4.0606,-9.78332 7.07697,-14.18553 3.45955,-5.05101 7.7085,-9.23411 13.32022,-11.88625 2.94712,-1.39436 6.04381,-2.23667 9.30669,-2.544 3.13825,-0.29311 6.22386,-0.31302 9.28455,0.5862 4.10215,1.20371 7.43151,3.48022 10.02132,6.85231 0.1191,0.15366 0.22159,0.31586 0.34623,0.46384 0.0609,0.0711 0.15511,0.11382 0.0554,0.0427 3.26565,-1.36591 6.41497,-2.68629 9.71109,-4.06642 -1.6813,-1.31184 -3.32382,-2.7802 -5.14638,-3.97821 -3.9969,-2.62938 -8.40927,-4.25424 -13.17618,-4.84044 -1.99706,-0.24757 -4.00798,-0.56628 -6.01058,-0.5549 -5.39567,0.0285 -10.60299,1.15533 -15.67459,2.97085 -2.6452,0.94475 -5.3098,1.84682 -7.99656,2.66921 -1.64252,0.50084 -3.34321,0.48092 -4.69489,-0.7484 -0.63707,-0.57767 -1.08025,-1.41428 -1.47079,-2.20253 -0.34901,-0.70856 -0.50412,-1.51388 -0.7534,-2.30497"
             style="fill:#000000;fill-opacity:1;fill-rule:nonzero;stroke:none;stroke-width:2.80749"
             id="path897" /><path
             d="m -221.65782,427.48384 c -0.89743,2.14562 -1.76439,4.22578 -2.74215,6.5649 2.28236,0.44108 4.48162,0.87931 6.68642,1.28339 0.63707,0.11667 1.28798,0.16789 1.93613,0.20204 4.85555,0.25041 9.46735,-0.8537 14.00437,-2.44156 2.83632,-0.99029 5.6865,-1.94073 8.54222,-2.87695 2.18818,-0.7171 4.81954,-0.13374 5.96072,1.51388 0.77278,1.11549 1.22704,2.45579 1.87795,3.80747 0.0776,0 0.30469,-0.003 0.52905,0 1.68961,0.0171 1.66191,0.0142 1.83364,-1.65901 0.37116,-3.63673 0.79771,-7.26777 1.1578,-10.90166 0.30191,-3.03345 0.51242,-6.06975 0.81433,-9.10036 0.36008,-3.63958 0.77556,-7.27062 1.1578,-10.90451 0.0499,-0.4866 0.0748,-0.98459 0.0222,-1.46835 -0.0249,-0.21058 -0.2576,-0.54921 -0.42656,-0.56913 -0.58167,-0.0711 -1.20765,-0.13659 -1.75885,0.0114 -0.33239,0.0911 -0.71186,0.53783 -0.80326,0.89354 -1.13287,4.39367 -2.67568,8.63083 -4.86386,12.61473 -2.54826,4.64125 -6.05212,8.36335 -10.68609,11.0098 -2.50948,1.4342 -5.07713,2.68059 -7.88853,3.429 -5.0993,1.36021 -10.06564,1.28907 -14.84363,-1.19517 -0.14404,-0.0768 -0.30192,-0.12806 -0.50966,-0.21343"
             style="fill:#000000;fill-opacity:1;fill-rule:nonzero;stroke:none;stroke-width:2.80749"
             id="path909" /><path
             d="m -179.64693,410.44555 c -0.16619,1.35738 -0.31022,2.64076 -0.48472,3.92415 -0.0692,0.50937 0.11633,0.85084 0.6149,0.90776 3.42631,0.39554 6.83046,0.70002 10.31216,0.49514 5.03836,-0.29879 9.77757,-1.79276 14.5888,-3.04769 1.21597,-0.31586 2.41531,-0.72848 3.65067,-0.92768 1.94443,-0.31586 4.80015,1.39437 5.47876,3.29811 0.313,0.88214 0.89744,0.84231 1.54281,0.77401 0.76448,-0.0797 0.50688,-0.72279 0.52073,-1.16102 0.0831,-2.64076 0.12742,-5.28152 0.21882,-7.92227 0.11356,-3.25257 0.24375,-6.50799 0.39332,-9.75771 0.0997,-2.10863 0.2576,-4.2144 0.37116,-6.32302 0.0332,-0.61466 0.003,-1.23217 0.003,-1.91797 h -1.89181 c -1.23258,3.88431 -2.59258,7.72593 -4.80569,11.21184 -3.70883,5.83926 -8.78043,9.84023 -15.63858,11.25452 -2.30452,0.47522 -4.71706,0.63742 -7.0742,0.58904 -2.34329,-0.0455 -4.72537,-0.27318 -6.93848,-1.23785 -0.26036,-0.11383 -0.57059,-0.10813 -0.86142,-0.15936"
             style="fill:#000000;fill-opacity:1;fill-rule:nonzero;stroke:none;stroke-width:2.80749"
             id="path933" /><path
             d="m -185.59491,407.31478 c -7.70295,-5.72544 -11.38409,-13.67047 -13.14848,-22.92166 -1.15226,0.72279 -2.18264,1.36306 -3.20749,2.00903 -0.16342,0.10244 -0.2936,0.27033 -0.4681,0.34432 -2.41808,1.06142 -3.40415,3.15013 -4.51209,5.40957 -1.01377,2.06878 -0.24652,3.37777 0.70631,4.88027 2.09955,3.30095 4.50932,6.36855 7.43982,8.97232 2.85849,2.54116 5.95241,4.7693 9.5366,6.22626 0.18004,0.074 0.36562,0.15936 0.50688,0.28741 0.48472,0.44962 0.74509,0.16221 0.94452,-0.27887 0.73955,-1.63909 1.46802,-3.28387 2.20203,-4.92865"
             style="fill:#000000;fill-opacity:1;fill-rule:nonzero;stroke:none;stroke-width:2.80749"
             id="path941" /></g><g
           id="g1370"
           transform="matrix(1.0331115,0,0,1.0331115,13.533754,-19.745823)"><path
             d="m -251.88548,304.57198 c -0.55674,-6.14375 -2.65075,-10.7167 -8.14059,-13.1298 -2.6092,-1.1468 -5.30427,-1.18948 -8.01318,-0.37847 -3.60358,1.0785 -6.60609,3.03061 -8.80813,6.11813 -2.23527,3.1359 -2.62581,6.59336 -1.6259,10.21301 0.89743,3.25257 2.58981,6.06692 5.42337,8.00195 3.11054,2.12001 6.55624,2.60092 10.16258,1.45413 4.36252,-1.38299 7.97717,-3.77617 9.89945,-8.08163 0.64261,-1.44559 0.82265,-3.09321 1.1024,-4.19732 m -15.60257,-11.17769 c 1.14949,0.40977 2.39315,0.65734 3.43185,1.25493 3.14932,1.81552 5.08267,4.68393 6.4399,7.96495 0.83373,2.01472 1.16611,4.13757 0.72293,6.28888 -0.97499,4.71523 -7.02711,7.69746 -11.52535,3.46314 -3.05238,-2.87125 -5.25164,-6.30025 -5.85269,-10.51749 -0.65369,-4.59003 2.66736,-8.11578 6.78336,-8.45441"
             style="fill:#000000;fill-opacity:1;fill-rule:nonzero;stroke:none;stroke-width:2.80749"
             id="path921" /><path
             d="m -250.73571,291.34713 c 0.18558,4.25139 1.23812,7.94219 4.34035,10.81345 2.06077,1.90658 4.51763,2.91109 7.30133,3.05906 3.99413,0.21058 7.68634,-0.70856 10.90768,-3.17858 2.31005,-1.76999 3.62296,-4.17171 4.08276,-6.98605 0.66476,-4.03797 -0.0138,-7.84544 -2.51226,-11.18338 -2.17987,-2.91394 -5.12422,-4.53026 -8.78597,-4.80345 -4.02459,-0.30163 -7.6891,0.6858 -10.90213,3.13021 -2.38207,1.80983 -3.77254,4.24285 -4.20187,7.20517 -0.10248,0.70572 -0.16896,1.41713 -0.22989,1.94357 m 21.41649,3.58267 c -0.11357,0.70856 -0.18004,1.9265 -0.5152,3.06476 -1.51234,5.13638 -7.14898,6.06122 -10.25399,3.84161 -1.77547,-1.26915 -2.86679,-3.08752 -3.62019,-5.11362 -1.20212,-3.2298 -2.10232,-6.50514 -1.24643,-9.97967 0.67861,-2.75173 2.34329,-4.60994 5.16577,-5.26159 2.77539,-0.64312 4.98019,0.37562 6.74736,2.49563 2.5261,3.03061 3.54818,6.58766 3.72268,10.95288"
             style="fill:#000000;fill-opacity:1;fill-rule:nonzero;stroke:none;stroke-width:2.80749"
             id="path925" /><path
             d="m -200.23911,301.915 c 1.709,0.39554 3.34044,0.79393 4.98296,1.14679 1.90289,0.40693 3.80024,0.89638 5.72805,1.11834 1.9112,0.22196 3.76423,-0.20489 4.95527,-1.88951 1.12456,-1.58502 1.45971,-3.36924 0.7534,-5.26728 -0.64538,-1.72731 -1.93059,-2.82003 -3.51771,-3.63104 -0.23821,-0.11952 -0.46811,-0.24757 -0.65092,-0.60612 0.77002,-0.037 1.54004,-0.0654 2.30729,-0.11668 3.46231,-0.24188 4.97742,-2.54969 5.18793,-5.50916 0.26867,-3.76479 -2.21311,-6.35432 -5.7973,-7.44705 -2.756,-0.83946 -5.61172,-1.35453 -8.4342,-1.9578 -0.19943,-0.0427 -0.67861,0.35286 -0.73401,0.60897 -0.76725,3.63957 -1.48187,7.29338 -2.21588,10.94434 -0.83926,4.15179 -1.68961,8.30074 -2.56488,12.6062 m 9.56429,-21.06061 c 2.09124,0.0911 3.71437,0.80248 4.5481,2.66068 0.95283,2.12 0.50688,4.17171 -0.82265,5.97016 -1.48464,2.00902 -3.54541,1.59071 -5.69481,1.05858 0.65922,-3.24119 1.30737,-6.42831 1.96936,-9.68942 m -2.36545,11.71836 c 0.54843,0.11098 0.99715,0.17643 1.43201,0.2931 2.70338,0.71426 3.88888,3.22412 2.94159,6.20351 -0.76171,2.39603 -2.72277,3.17858 -5.42891,2.24805 -0.54566,-0.18781 -0.67031,-0.45814 -0.57613,-0.92198 0.52627,-2.55824 1.06639,-5.11363 1.63144,-7.82268"
             style="fill:#000000;fill-opacity:1;fill-rule:nonzero;stroke:none;stroke-width:2.80749"
             id="path937" /><path
             d="m -153.42724,292.90029 c -1.61206,-0.78825 -3.03299,-1.43705 -4.40684,-2.16838 -1.08855,-0.58052 -1.11071,-0.56629 -1.97767,0.44392 -1.40154,1.63624 -2.87234,3.21273 -4.31543,4.81482 -2.5538,-1.235 -4.98296,-2.40741 -7.48967,-3.61965 0.15234,-1.73015 0.29083,-3.47169 0.45979,-5.21322 0.0693,-0.70857 0.24929,-1.4086 0.2936,-2.11716 0.0166,-0.26749 -0.13295,-0.6858 -0.33792,-0.79678 -0.76171,-0.41546 -1.57604,-0.73418 -2.43747,-1.11834 -0.0582,0.18781 -0.14957,0.3614 -0.15511,0.53498 -0.0803,2.5184 -0.13295,5.03395 -0.22713,7.54949 -0.18835,4.92866 -0.39608,9.85731 -0.60105,14.78597 -0.0499,1.17525 -0.0997,2.3505 -0.19389,3.5229 -0.0443,0.57767 0.17727,0.84231 0.70354,1.08135 1.72285,0.78539 1.70346,0.80816 3.05238,-0.52076 5.58401,-5.50062 11.16803,-11.00125 16.76036,-16.49904 0.25483,-0.25041 0.56505,-0.44392 0.87251,-0.6801 m -12.51973,4.59286 c -2.1134,2.08017 -4.16586,4.09773 -6.14076,6.03846 0.13295,-2.76597 0.27699,-5.7169 0.42656,-8.79304 2.0303,0.9789 3.89718,1.87813 5.7142,2.75458"
             style="fill:#000000;fill-opacity:1;fill-rule:nonzero;stroke:none;stroke-width:2.80749"
             id="path949" /><path
             d="m -271.81068,322.97788 c -0.54843,-0.60043 -1.17996,-1.29477 -1.80594,-1.98057 -1.8004,2.00334 -3.60358,4.01236 -5.45384,6.06976 -1.78655,-1.96349 -3.46785,-3.81316 -5.25718,-5.77666 1.94444,-1.84397 3.85564,-3.65665 5.80284,-5.50347 -0.58721,-0.64311 -1.23258,-1.34883 -1.88073,-2.0574 -1.7727,1.90943 -3.57033,3.84162 -5.45937,5.87625 -2.71446,-2.98223 -5.34305,-5.86487 -7.78328,-8.53977 -1.2686,1.28338 -2.48179,2.50701 -3.74484,3.77901 5.22671,5.73966 10.68054,11.73259 16.05405,17.63445 3.20749,-3.1985 6.3762,-6.35716 9.52829,-9.5016"
             style="fill:#000000;fill-opacity:1;fill-rule:nonzero;stroke:none;stroke-width:2.80749"
             id="path957" /><path
             d="m -209.56631,276.57768 h -5.11591 v 22.44074 c -2.30729,-0.19635 -4.4013,-0.37563 -6.52854,-0.56059 v 2.95947 h 17.74366 v -2.82857 c -1.9749,0.13943 -4.00797,0.28172 -6.09921,0.42684 z"
             style="fill:#000000;fill-opacity:1;fill-rule:nonzero;stroke:none;stroke-width:2.80749"
             id="path977" /><path
             d="m -132.00355,310.46018 c -5.76683,5.67706 -11.48104,11.3029 -17.20355,16.93442 1.18273,1.33176 2.32391,2.618 3.49832,3.94407 5.13531,-5.02826 10.27615,-10.0622 15.53333,-15.20997 1.69515,2.11716 3.35706,4.18879 4.99958,6.24334 0.63984,-0.70287 1.28798,-1.41428 1.96659,-2.15984 -2.81139,-3.11882 -5.76406,-6.39416 -8.79427,-9.75202"
             style="fill:#000000;fill-opacity:1;fill-rule:nonzero;stroke:none;stroke-width:2.80749"
             id="path997" /><path
             d="m -162.06558,316.90642 c 1.42925,1.12403 2.74769,2.15984 4.13262,3.24688 4.19079,-5.89902 8.39265,-11.81227 12.69977,-17.87064 2.06354,1.81267 4.04675,3.5542 6.04658,5.30997 0.56228,-0.78825 1.10794,-1.55372 1.70623,-2.39319 -3.47339,-2.69767 -6.9551,-5.40103 -10.48666,-8.14708 -4.73644,6.67019 -9.40918,13.24932 -14.09854,19.85406"
             style="fill:#000000;fill-opacity:1;fill-rule:nonzero;stroke:none;stroke-width:2.80749"
             id="path1001" /></g><g
           id="g1517"><g
             id="g1509"><path
               d="m -139.80771,484.01644 c -1.18183,-0.11171 -2.36366,-0.29693 -3.54835,-0.32339 -2.78143,-0.0647 -5.56574,-0.0793 -8.34717,-0.0559 -0.86134,0.006 -1.7198,0.25871 -2.584,0.30575 -2.64122,0.14994 -5.27672,0.35279 -7.90937,-0.27929 -1.51663,-0.36453 -3.05329,-0.66146 -4.06628,-1.91973 -0.64957,-0.80846 -1.05592,-1.81389 -1.56527,-2.73701 -0.14023,-0.24989 -0.186,-0.60855 -0.39204,-0.75554 -0.79838,-0.57034 -1.60534,-1.15244 -2.48097,-1.59048 -4.58137,-2.28134 -9.21138,-4.46271 -13.75841,-6.81167 -1.22189,-0.63207 -2.35506,-1.59635 -3.24788,-2.64588 -0.56373,-0.66441 -0.75545,-1.7551 -0.8556,-2.68116 -0.13736,-1.30236 -0.0343,-2.63118 -0.0343,-3.98646 -1.39931,-0.17932 -2.74997,-0.34984 -4.09777,-0.52623 -0.92428,-0.12053 -1.84856,-0.24695 -2.77285,-0.3763 -0.48647,-0.0647 -0.79551,-0.003 -0.94432,0.59973 -0.29474,1.18476 -0.17456,2.30779 0.22893,3.42788 0.77262,2.13141 1.74555,4.19226 3.47107,5.69158 0.95863,0.83493 2.23489,1.31118 3.37952,1.92562 3.37664,1.81096 6.81624,3.51313 10.12421,5.43875 4.8847,2.83698 9.67496,5.82976 14.50813,8.75198 1.85716,1.12304 3.91463,0.83787 5.90628,0.70557 2.1662,-0.14405 4.31237,-0.51154 6.47286,-0.72615 1.27339,-0.12935 2.55824,-0.23518 3.83449,-0.1999 3.33945,0.0852 6.67603,0.24989 10.01262,0.39688 0.73542,0.0323 1.47084,0.11759 2.20341,0.20578 0.18028,0.0236 0.43209,0.11466 0.50649,0.25284 0.99297,1.84035 2.72135,2.93986 4.35816,4.04819 1.55383,1.04953 3.25933,1.96089 5.01919,2.5959 2.33218,0.84374 4.77023,1.42584 7.19398,1.97266 0.80695,0.18227 1.21616,0.60267 1.59388,1.19652 1.14463,1.79625 2.28068,3.60134 3.42244,5.3976 0.35197,0.55563 0.69822,1.12009 1.08167,1.6522 0.62669,0.86726 1.39072,1.01719 2.70132,0.57033 0.3348,1.30531 -0.17742,2.08437 -1.51663,2.13435 -0.79838,0.0323 -1.60248,-0.12348 -2.40372,-0.18522 -1.0044,-0.0734 -2.02598,-0.27046 -3.01036,-0.16757 -1.47084,0.15876 -2.49815,-0.3616 -3.40526,-1.46405 -1.10744,-1.3494 -2.23203,-2.71056 -3.51401,-3.88651 -1.92583,-1.76391 -3.28794,-3.93354 -4.79884,-6.00614 -0.15452,-0.21167 -0.73256,-0.33809 -0.97007,-0.22049 -0.79266,0.391 -1.51663,0.91429 -2.26922,1.38468 0.0286,0.0941 0.0543,0.19108 0.0802,0.28517 0.27757,0.0676 0.57231,0.097 0.82127,0.21461 0.22607,0.10877 0.52939,0.28222 0.57804,0.47919 0.35769,1.44053 1.42792,2.27252 2.51245,3.1192 0.42638,0.3322 0.79552,0.74085 1.14749,1.14949 0.372,0.43804 0.20603,0.77612 -0.32908,0.82316 -0.84416,0.0734 -1.6311,-0.0177 -2.31214,-0.69087 -0.82986,-0.81728 -1.86003,-1.44936 -2.63551,-2.31073 -0.58375,-0.64384 -0.90139,-1.52285 -1.33635,-2.29898 -0.0543,-0.1 -0.10874,-0.20285 -0.19745,-0.36454 -1.30773,1.86387 -2.57254,3.64837 -3.80874,5.45345 -0.0973,0.14405 -0.0429,0.41747 -0.008,0.62032 0.53226,3.28088 2.04603,6.18547 3.65708,9.01656 2.00024,3.51903 4.14642,6.95867 6.30118,10.38655 1.12173,1.78451 2.42088,3.45729 3.60557,5.20357 0.89566,1.31999 1.73411,2.68116 2.60402,4.02174 0.57231,0.88195 0.46357,1.19064 -0.44926,1.75803 -1.22762,0.76437 -2.46096,1.53462 -3.62275,2.39894 -4.40395,3.27795 -8.78214,6.59118 -13.1632,9.89853 -2.36651,1.78744 -4.71586,3.59251 -7.0652,5.39759 -0.0915,0.0706 -0.12877,0.21168 -0.34912,0.59973 1.4451,-0.7526 2.64124,-1.34645 3.81162,-1.99029 3.01322,-1.65514 6.00928,-3.33674 9.01393,-4.99777 5.11075,-2.81933 10.23009,-5.62397 15.3294,-8.46388 0.70966,-0.39394 1.17896,-0.2734 1.63967,0.33221 2.11469,2.79287 4.22367,5.58869 6.36984,8.35511 1.34208,1.73157 1.72839,1.70217 2.63265,-0.23226 0.70394,-1.50227 1.27053,-3.06922 1.93728,-4.58913 0.12018,-0.2734 0.41778,-0.49683 0.67533,-0.67911 0.86704,-0.60855 1.80851,-1.12303 2.62405,-1.79038 2.875869,-2.34601 5.542846,-4.97426 7.328466,-8.20222 1.78562,-3.2221 3.511143,-6.58825 3.828773,-10.38068 0.231789,-2.77229 0.509365,-5.57398 0.36628,-8.3404 -0.186002,-3.58075 -0.907114,-7.11741 -2.100388,-10.51884 -1.994505,-5.69746 -4.126372,-11.34788 -6.075099,-17.06005 -1.276252,-3.74244 -2.234882,-7.57898 -2.566832,-11.54191 -0.19744,-2.36366 -0.56945,-4.73025 -0.57803,-7.0939 -0.02,-5.57104 1.77417,-10.47475 5.577189,-14.67288 2.904489,-3.20739 6.198152,-5.9591 9.440305,-8.78725 3.91176,-3.4132 8.278508,-6.10317 12.982921,-8.21694 3.608433,-1.61987 7.302714,-3.08392 11.034195,-4.39216 3.31083,-1.16125 6.452829,-2.55181 8.756388,-5.24766 3.136276,-3.66895 5.434112,-7.81122 6.341228,-12.60908 0.323357,-1.69631 0.520805,-3.41613 0.786931,-5.21239 h -1.141764 c 1.00727,-6.81756 -1.073088,-12.90308 -4.335272,-18.48588 -0.486466,-0.13523 -0.981517,-0.13818 -1.290566,-0.37924 -1.156072,-0.90843 -2.24919,-1.89328 -3.413846,-2.88695 -0.208895,0.30868 -0.386312,0.57327 -0.563729,0.8408 -3.207814,-1.44935 -6.404182,-2.89577 -9.72646,-4.39511 -0.134493,3.88063 -2.887318,6.22665 -4.529857,9.13418 -0.738283,1.30236 -1.588168,2.54298 -2.28639,3.86004 -0.629544,1.18771 -0.334804,2.06084 0.738284,2.82227 4.020498,2.8605 8.035275,5.72686 12.05005,8.59618 0.174556,0.12346 0.320495,0.28515 0.620959,0.5615 -0.475019,0.0941 -0.775483,0.15582 -1.227611,0.24696 0.349111,0.42921 0.62096,0.83197 0.961486,1.173 1.236196,1.24357 1.425059,2.88989 1.691185,4.47448 0.191725,1.15243 0.163109,2.34013 0.226063,3.5102 0.04006,0.79082 0.117324,1.62868 -1.287704,1.25238 0.103022,0.54976 0.263265,0.93782 0.228925,1.30531 -0.151663,1.72275 -0.286156,3.44845 -0.560866,5.15358 -0.286156,1.77862 -1.799925,2.03145 -3.202092,2.08142 -1.293426,0.047 -2.592578,-0.2734 -3.891728,-0.33514 -0.804099,-0.0382 -0.752591,-0.4939 -0.826992,-1.07011 -0.303326,-2.37248 -0.512221,-4.7714 -1.053056,-7.09096 -0.746869,-3.20151 -2.438054,-6.00909 -4.172162,-8.78138 -1.548107,-2.47243 -3.319416,-4.82432 -4.163577,-7.69658 -0.784069,-2.67527 -0.380588,-5.16534 1.027302,-7.47901 1.453675,-2.38717 3.084767,-4.66557 4.564196,-7.03804 2.117558,-3.39555 1.728385,-6.77934 -0.257541,-10.08375 -1.556691,-2.59296 -3.247876,-5.10949 -4.692966,-7.76125 -1.239059,-2.27251 -2.203405,-4.6979 -3.310831,-7.04392 -0.294741,-0.63207 -0.758315,-1.19652 -0.978656,-1.84623 -0.912838,-2.71938 -0.632405,-5.44463 0.09157,-8.15813 0.25468,-0.9584 0.477883,-1.92562 0.749731,-3.03394 -3.65708,-1.16125 -7.305575,-2.31956 -10.994143,-3.48962 -0.214608,2.493 1.216169,4.31866 2.41231,6.14431 2.080358,3.16624 3.711449,6.52944 5.159402,10.01025 0.454988,1.09069 1.213302,2.0726 1.925832,3.03394 2.226298,3.00161 3.49111,6.39421 4.300933,9.99849 0.174555,0.782 0.520804,1.52579 0.789791,2.28721 0.246096,0.6997 -0.486465,2.04615 -1.422198,2.57533 -1.539521,0.87314 -3.239291,0.87902 -4.770228,0.28516 -3.130552,-1.21416 -4.558473,0.36161 -6.633105,2.44598 -0.403482,0.40276 -0.70108,0.6791 -1.28484,0.35866 -1.224764,-0.67324 -2.458082,-1.32588 -3.708602,-1.94913 -2.512444,-1.24651 -3.582665,-3.51608 -4.352436,-6.00909 -0.231789,-0.74672 -0.809818,-0.68793 -1.376418,-0.54094 -0.63241,0.16464 -0.53511,0.60562 -0.25468,1.00544 0.89281,1.2759 1.76845,2.56944 2.721351,3.7983 2.246335,2.89872 4.552757,5.75038 6.784773,8.65791 0.246098,0.31751 0.226066,0.87902 0.237513,1.32882 0.01147,0.53212 0.171693,0.80553 0.75259,0.84081 0.495047,0.0294 0.995828,0.13229 1.473709,0.27635 1.124596,0.34102 2.191959,0.26459 3.041844,-0.57034 1.842848,-1.81096 3.648495,-3.66013 5.428388,-5.53283 0.87564,-0.92312 1.648263,-1.94325 2.489562,-2.89871 0.128771,-0.14699 0.380588,-0.18815 0.575175,-0.27929 0.08299,0.0618 0.16597,0.12348 0.251818,0.18815 -0.351973,0.67912 -0.623822,1.41996 -1.067365,2.03145 -1.582444,2.18433 -3.147721,4.39216 -4.876106,6.45596 -0.981517,1.173 -2.309283,2.05201 -3.422432,3.12213 -1.038748,1.00543 -2.077496,2.03145 -2.981746,3.15742 -1.479426,1.84917 -2.904489,3.74832 -4.255148,5.69157 -2.005951,2.88696 -2.961714,6.18255 -3.728613,9.58104 -1.035891,4.58619 -2.232033,9.13709 -3.459633,13.67919 -0.29761,1.10245 -0.88423,2.15493 -1.49661,3.1339 -0.74401,1.19653 -2.02312,1.69042 -3.32227,2.102 -4.02622,1.27003 -8.06675,2.49007 -12.0615,3.85417 -3.55979,1.21711 -7.11099,2.50477 -10.26443,4.62735 -3.86025,2.59296 -6.66745,6.01203 -8.30713,10.3983 -0.75259,2.0197 -1.78562,3.93649 -2.61546,5.92972 -1.51949,3.6425 -3.05329,7.28499 -4.44688,10.97746 -1.02444,2.7135 -2.15762,5.32116 -4.41825,7.26148 -3.17062,2.72525 -6.44712,5.29764 -10.48192,6.67349 -0.28043,0.097 -0.77549,0.0793 -0.9529,-0.1 -2.53249,-2.59885 -4.87038,-5.34762 -5.90627,-8.92544 -0.34052,-1.17594 -0.4693,-2.33426 0.3348,-3.50138 0.50937,-0.7379 0.62096,-1.74334 0.96149,-2.60766 1.116,-2.8311 3.26504,-4.81551 5.7031,-6.45007 2.21199,-1.48463 4.34385,-3.1486 6.9536,-3.97176 0.16884,-0.0559 0.37772,-0.51448 0.31478,-0.69381 -0.7669,-2.15493 -1.57387,-4.29515 -2.38655,-6.43536 -0.22321,-0.58798 -0.60952,-0.48215 -1.03875,-0.19404 -1.51949,1.0172 -2.53534,2.4489 -3.4396,3.99528 -0.3577,0.61149 -0.90426,1.11127 -1.26481,1.72276 -0.31191,0.52624 -0.43496,1.1583 -0.71825,1.70512 -1.96876,3.78949 -5.0335,6.47947 -8.67627,8.61087 -0.85848,0.50272 -1.62251,1.17595 -2.38083,1.8286 -1.03874,0.89372 -1.20757,2.09024 -0.79265,3.29853 0.38345,1.12303 1.02444,2.15492 1.47085,3.25738 1.24191,3.07804 2.42374,6.17959 3.6628,9.25764 0.5065,1.26413 1.13318,2.4783 1.63968,3.74244 0.61523,1.53755 2.00882,1.58166 3.25932,1.56989 3.2679,-0.0323 6.53581,-0.21167 9.80372,-0.37336 2.40372,-0.1176 4.75307,0.16169 7.09096,0.69381 1.58817,0.3616 3.19923,0.62031 4.79598,0.94076 0.20031,0.0411 0.37772,0.18521 0.56659,0.28223 -0.0315,0.10583 -0.0601,0.21166 -0.0915,0.32044 m 25.39926,41.82254 c 0.0286,0.12053 0.0543,0.24107 0.083,0.36161 -0.64671,0.33808 -1.27626,0.91429 -1.94301,0.9584 -1.14462,0.0765 -2.22629,-0.37925 -3.07046,-1.22887 -1.92869,-1.93737 -2.0546,-4.4392 -2.18623,-6.991 0.32622,0.10877 0.59521,0.26164 0.7297,0.4939 0.51794,0.89371 0.98438,1.81389 1.48514,2.71937 0.79265,1.4376 1.56814,2.90165 3.35948,3.33969 0.51222,0.12347 1.0273,0.23224 1.54239,0.3469"
               style="fill:#000000;fill-opacity:1;fill-rule:nonzero;stroke:none;stroke-width:2.90045"
               id="path901" /><path
               d="m -128.13739,341.68632 c 1.13031,2.04908 1.69119,4.25399 3.48825,5.90032 2.01168,1.8433 3.54548,4.22164 5.62297,5.9738 2.3608,1.99323 3.8345,4.64794 5.86048,6.87341 0.86706,0.95546 1.10744,2.45774 1.71123,3.6719 1.63967,3.28677 0.55514,6.36775 -0.69537,9.42227 -1.64826,4.03056 -3.35947,8.03466 -5.03349,12.05345 -1.32777,3.18975 -0.88708,6.30896 0.39776,9.39875 1.49373,3.59253 3.82018,6.68526 5.91485,9.91618 1.98879,3.06628 3.15631,6.43537 3.67711,10.02494 0.24896,1.71982 0.37486,3.45729 0.57517,5.37114 0.68106,-0.69969 1.37642,-1.33176 1.98021,-2.04321 1.79993,-2.11964 2.52963,-4.66262 3.02753,-7.34967 0.7898,-4.26868 1.46799,-8.59911 4.031949,-12.29746 0.380588,-0.54682 0.778346,-1.08187 1.236201,-1.71688 -1.233339,-0.81435 -2.501008,-1.60223 -3.71718,-2.46655 -3.37092,-2.40187 -6.6331,-4.9331 -9.05971,-8.34922 -1.31632,-1.85212 -1.73984,-3.86004 -1.13891,-6.13845 0.96721,-3.64837 1.78562,-7.3379 2.65554,-11.01274 0.30333,-1.28471 0.66674,-2.56944 0.83558,-3.87473 0.24896,-1.9462 -0.51222,-3.6719 -1.83712,-4.99778 -2.87874,-2.87225 -5.88911,-5.61221 -8.8451,-8.40508 -1.43651,-1.35822 -2.14904,-3.04276 -2.59258,-4.95662 -0.28616,-1.23768 -0.95291,-2.41068 -1.59104,-3.53077 -0.17741,-0.30869 -0.85274,-0.37631 -1.31918,-0.47332 -1.68546,-0.34397 -3.3795,-0.64971 -5.18515,-0.99368"
               style="fill:#000000;fill-opacity:1;fill-rule:nonzero;stroke:none;stroke-width:2.90045"
               id="path905" /></g><g
             id="g1505"><path
               d="m -272.87935,482.32014 c 0.18886,-0.097 0.36628,-0.24107 0.56659,-0.28223 1.59674,-0.32044 3.20781,-0.57916 4.79598,-0.94076 2.3379,-0.53211 4.6901,-0.80846 7.09096,-0.69087 3.26791,0.15876 6.53581,0.34103 9.80372,0.37337 1.2505,0.0118 2.64408,-0.0353 3.25932,-1.56989 0.50936,-1.26414 1.13318,-2.48125 1.63967,-3.74245 1.23907,-3.08098 2.42376,-6.1796 3.66281,-9.25764 0.44641,-1.10539 1.0874,-2.13728 1.47085,-3.25737 0.41492,-1.20829 0.24609,-2.40775 -0.79266,-3.30148 -0.75831,-0.64971 -1.52235,-1.32587 -2.38082,-1.82565 -3.64277,-2.1314 -6.70751,-4.82432 -8.67627,-8.61381 -0.28329,-0.54387 -0.40634,-1.17889 -0.71825,-1.70512 -0.36055,-0.60856 -0.90711,-1.10834 -1.26481,-1.71982 -0.90426,-1.54932 -1.92011,-2.97809 -3.4396,-3.99528 -0.42923,-0.28811 -0.81554,-0.39688 -1.03875,0.19403 -0.81269,2.13728 -1.61965,4.2775 -2.38655,6.43243 -0.0629,0.17932 0.14595,0.64089 0.31478,0.6938 2.60974,0.82317 4.74161,2.49007 6.95361,3.9747 2.43805,1.63457 4.58708,3.61604 5.70309,6.45007 0.34052,0.86432 0.45212,1.86681 0.96149,2.60472 0.8041,1.16713 0.67532,2.32838 0.3348,3.50433 -1.03589,3.57782 -3.37378,6.32365 -5.90627,8.92543 -0.17742,0.17933 -0.67247,0.19403 -0.9529,0.0999 -4.03481,-1.37586 -7.3113,-3.94824 -10.48192,-6.6735 -2.26349,-1.94325 -3.39381,-4.5509 -4.41826,-7.2644 -1.39643,-3.69248 -2.92737,-7.33204 -4.44687,-10.97746 -0.82985,-1.99324 -1.86287,-3.90709 -2.61547,-5.92678 -1.63967,-4.38628 -4.44687,-7.80829 -8.30712,-10.40125 -3.15344,-2.11964 -6.70465,-3.40731 -10.26443,-4.6244 -3.99189,-1.3641 -8.03527,-2.58709 -12.0615,-3.85712 -1.29915,-0.40863 -2.57827,-0.90547 -3.32227,-2.09906 -0.61238,-0.97898 -1.199,-2.03438 -1.4966,-3.13684 -1.22475,-4.53915 -2.42375,-9.09007 -3.45963,-13.67626 -0.7669,-3.39848 -1.72266,-6.69407 -3.72862,-9.58102 -1.35066,-1.9462 -2.77573,-3.84534 -4.25515,-5.69159 -0.90425,-1.12596 -1.94301,-2.15198 -2.98461,-3.15741 -1.1103,-1.07305 -2.4352,-1.95207 -3.41958,-3.12214 -1.72838,-2.06673 -3.29365,-4.27456 -4.8761,-6.45594 -0.44354,-0.61444 -0.71539,-1.35235 -1.06737,-2.0344 0.0859,-0.0618 0.16883,-0.12641 0.25182,-0.18815 0.19459,0.0911 0.44641,0.1323 0.57518,0.2793 0.8413,0.95839 1.61679,1.97853 2.49242,2.90164 1.77703,1.87269 3.58268,3.72187 5.42553,5.52989 0.84702,0.83786 1.91725,0.9143 3.04184,0.57034 0.47789,-0.14406 0.97866,-0.24696 1.4737,-0.27635 0.5809,-0.0353 0.74115,-0.30575 0.75546,-0.84081 0.008,-0.44979 -0.0115,-1.00837 0.23465,-1.32882 2.23489,-2.90752 4.53845,-5.75919 6.78477,-8.65496 0.95576,-1.23181 1.8314,-2.5224 2.72135,-3.80125 0.28043,-0.39983 0.37773,-0.83786 -0.25468,-1.00544 -0.56659,-0.14699 -1.14463,-0.20578 -1.37642,0.54094 -0.76976,2.49595 -1.83998,4.76258 -4.35243,6.01203 -1.25051,0.62031 -2.4867,1.27296 -3.70859,1.94619 -0.58376,0.32045 -0.88136,0.047 -1.28484,-0.35573 -2.07464,-2.08729 -3.50256,-3.66307 -6.63312,-2.44596 -1.53093,0.59385 -3.2307,0.58503 -4.77022,-0.28517 -0.93573,-0.52917 -1.66829,-1.87858 -1.4222,-2.57826 0.26899,-0.76143 0.61523,-1.50522 0.78979,-2.28722 0.80982,-3.60133 2.07464,-6.99688 4.30093,-9.99555 0.71253,-0.96428 1.47084,-1.94619 1.92584,-3.03394 1.44795,-3.4808 3.07904,-6.84401 5.1594,-10.01024 1.19613,-1.82566 2.62692,-3.65426 2.4123,-6.14726 -3.68856,1.173 -7.33705,2.33131 -10.99413,3.49256 0.27184,1.10833 0.49504,2.07554 0.74973,3.03394 0.72397,2.71349 1.00441,5.43581 0.0915,8.15519 -0.22034,0.65265 -0.68392,1.2171 -0.97866,1.84623 -1.10743,2.34896 -2.07178,4.77141 -3.31083,7.04687 -1.44223,2.65176 -3.13628,5.16534 -4.69297,7.7583 -1.98592,3.30735 -2.37509,6.6882 -0.25753,10.08668 1.47942,2.36954 3.11051,4.64793 4.56419,7.03511 1.40789,2.31661 1.81136,4.80668 1.02729,7.47902 -0.84415,2.87225 -2.61546,5.22414 -4.16357,7.69657 -1.73411,2.77523 -3.42529,5.5828 -4.17216,8.78138 -0.54083,2.31956 -0.74973,4.72143 -1.05306,7.09096 -0.0744,0.57621 -0.0229,1.03483 -0.82698,1.07305 -1.29916,0.0618 -2.59831,0.37924 -3.89173,0.33515 -1.40504,-0.05 -2.91594,-0.30281 -3.20209,-2.08437 -0.27472,-1.70218 -0.40921,-3.43083 -0.56088,-5.15065 -0.0343,-0.37042 0.12592,-0.75554 0.22893,-1.30824 -1.40502,0.37631 -1.32777,-0.45861 -1.2877,-1.24944 0.0601,-1.17301 0.0343,-2.36071 0.22606,-3.51314 0.26612,-1.58458 0.45498,-3.23092 1.69119,-4.47448 0.34052,-0.33808 0.61523,-0.74378 0.96148,-1.173 -0.45213,-0.0911 -0.75545,-0.15288 -1.22761,-0.24696 0.30047,-0.2734 0.4464,-0.43509 0.62096,-0.56151 4.01477,-2.86637 8.02955,-5.73274 12.05005,-8.59323 1.07309,-0.76437 1.36782,-1.63457 0.73829,-2.82227 -0.69823,-1.32 -1.54811,-2.56062 -2.28353,-3.86005 -1.64541,-2.91046 -4.39823,-5.25353 -4.53273,-9.1371 -3.32228,1.50227 -6.51864,2.94575 -9.72645,4.3951 -0.17742,-0.26459 -0.35483,-0.52918 -0.56373,-0.8408 -1.16466,0.99661 -2.25778,1.98147 -3.41385,2.88695 -0.30905,0.24107 -0.80409,0.24694 -1.29057,0.37924 -3.26504,5.5828 -5.34254,11.67127 -4.33526,18.48883 h -1.14177 c 0.26612,1.79625 0.46357,3.51607 0.78407,5.21237 0.90998,4.79787 3.20781,8.94014 6.34409,12.60615 2.30356,2.69586 5.44555,4.08642 8.75639,5.24766 3.73148,1.30824 7.42576,2.7723 11.0342,4.39216 4.7044,2.11377 9.07115,4.80669 12.98291,8.21987 3.24215,2.82816 6.53582,5.57693 9.44031,8.78432 3.80301,4.20108 5.59722,9.10477 5.57719,14.67288 -0.008,2.36659 -0.38059,4.73025 -0.57804,7.09684 -0.33194,3.96294 -1.29056,7.79653 -2.56683,11.53897 -1.94872,5.71217 -4.08059,11.36259 -6.0751,17.06005 -1.19041,3.40143 -1.91438,6.94102 -2.10038,10.51884 -0.14309,2.76936 0.13449,5.56811 0.36628,8.34334 0.31763,3.7895 2.04315,7.15564 3.82877,10.38067 1.78562,3.22504 4.4526,5.85328 7.32561,8.20224 0.81841,0.6644 1.75986,1.18182 2.62405,1.78744 0.2604,0.1852 0.558,0.4057 0.67819,0.68205 0.66674,1.51697 1.23333,3.08392 1.93729,4.58618 0.90425,1.93443 1.29056,1.96384 2.63263,0.23519 2.14618,-2.76936 4.25515,-5.56516 6.36985,-8.3551 0.4607,-0.60856 0.93,-0.72909 1.63967,-0.33514 5.09931,2.83991 10.21865,5.64454 15.3294,8.46681 3.00751,1.66103 6.00357,3.34263 9.01393,4.99778 1.16752,0.64089 2.36652,1.23475 3.81161,1.98735 -0.22034,-0.38513 -0.25754,-0.52624 -0.34912,-0.5968 -2.34933,-1.80507 -4.69868,-3.61309 -7.0652,-5.3976 -4.38105,-3.31028 -8.75924,-6.62057 -13.16319,-9.90146 -1.1618,-0.86139 -2.39514,-1.63162 -3.62274,-2.39894 -0.91571,-0.56739 -1.02158,-0.87608 -0.44927,-1.75803 0.86991,-1.34059 1.70835,-2.6988 2.60402,-4.02174 1.18469,-1.74628 2.48384,-3.41907 3.60558,-5.20062 2.15761,-3.42789 4.30092,-6.87047 6.30116,-10.3895 1.61106,-2.82815 3.12483,-5.73568 3.65708,-9.01363 0.0343,-0.20579 0.0888,-0.47919 -0.008,-0.62325 -1.2362,-1.80214 -2.50101,-3.58958 -3.80874,-5.45051 -0.0888,0.16169 -0.14023,0.26164 -0.19745,0.36454 -0.43496,0.77319 -0.75259,1.65515 -1.33635,2.29897 -0.77549,0.86139 -1.80565,1.49052 -2.63551,2.31074 -0.68105,0.6703 -1.46798,0.76437 -2.31215,0.68793 -0.53511,-0.047 -0.70108,-0.38512 -0.32907,-0.82022 0.35197,-0.41158 0.72111,-0.82022 1.14748,-1.15243 1.08453,-0.84668 2.15476,-1.67866 2.51246,-3.11626 0.0487,-0.19991 0.35197,-0.37337 0.57804,-0.4792 0.24895,-0.12053 0.54369,-0.14993 0.82127,-0.21755 0.0257,-0.0941 0.0515,-0.18815 0.0801,-0.28222 -0.75259,-0.47333 -1.47942,-0.99368 -2.26922,-1.38468 -0.23751,-0.11759 -0.81554,0.009 -0.97007,0.21755 -1.5109,2.07261 -2.87301,4.24223 -4.79884,6.00615 -1.28198,1.17595 -2.40657,2.5371 -3.51401,3.8865 -0.90711,1.10539 -1.9344,1.62281 -3.40526,1.467 -0.98724,-0.10584 -2.00595,0.0941 -3.01036,0.16757 -0.80124,0.0588 -1.60534,0.21461 -2.40372,0.1852 -1.33921,-0.0529 -1.85429,-0.83197 -1.51663,-2.13433 1.3106,0.44392 2.0775,0.29693 2.70132,-0.57327 0.38345,-0.53212 0.7297,-1.09364 1.08168,-1.64927 1.14176,-1.7992 2.2778,-3.60134 3.42243,-5.3976 0.37773,-0.59385 0.78693,-1.01719 1.59388,-1.19653 2.42376,-0.54681 4.86181,-1.13184 7.19398,-1.97264 1.75987,-0.63501 3.46536,-1.54932 5.01919,-2.59885 1.63681,-1.10538 3.36519,-2.20489 4.35816,-4.04819 0.0744,-0.13818 0.32622,-0.22931 0.5065,-0.24989 0.73256,-0.0911 1.46798,-0.17345 2.2034,-0.2058 3.33659,-0.14992 6.67317,-0.31162 10.01262,-0.39981 1.27625,-0.0353 2.5611,0.0734 3.8345,0.19991 2.16048,0.21461 4.30666,0.58503 6.47285,0.72614 1.99166,0.1323 4.04912,0.4204 5.90628,-0.70556 4.83319,-2.92223 9.62344,-5.91502 14.50813,-8.75199 3.30797,-1.92267 6.74757,-3.62485 10.12421,-5.43875 1.14464,-0.61443 2.42089,-1.09069 3.37952,-1.92267 1.72838,-1.50228 2.69845,-3.56019 3.47108,-5.69452 0.40348,-1.11716 0.52366,-2.24018 0.22892,-3.42789 -0.14881,-0.60267 -0.45785,-0.66441 -0.94431,-0.5968 -0.9243,0.12642 -1.84858,0.25577 -2.77286,0.37631 -1.3478,0.17639 -2.69846,0.34396 -4.09777,0.5233 0,1.35822 0.103,2.68409 -0.0343,3.98645 -0.1001,0.92606 -0.29187,2.01675 -0.8556,2.68117 -0.8928,1.04952 -2.02599,2.01674 -3.24787,2.64588 -4.54703,2.34895 -9.17704,4.53033 -13.75841,6.81461 -0.87564,0.43509 -1.6826,1.01719 -2.48098,1.58752 -0.20603,0.147 -0.25467,0.50566 -0.39204,0.75849 -0.50935,0.92018 -0.91569,1.92561 -1.56526,2.73408 -1.013,1.2612 -2.5468,1.55812 -4.06629,1.92267 -2.63264,0.63207 -5.26814,0.42921 -7.90937,0.27929 -0.86419,-0.05 -1.72266,-0.29987 -2.58399,-0.30869 -2.78144,-0.0236 -5.56575,-0.006 -8.34718,0.0559 -1.18469,0.0294 -2.36652,0.21167 -3.54835,0.32338 -0.0315,-0.10583 -0.0601,-0.21461 -0.0915,-0.32044 m -23.76531,41.79609 c 1.79421,-0.43805 2.56683,-1.90211 3.35949,-3.3397 0.50077,-0.90254 0.96721,-1.82565 1.48515,-2.71938 0.13449,-0.22931 0.40348,-0.38511 0.72969,-0.49095 -0.13163,2.54886 -0.25753,5.05363 -2.18336,6.98807 -0.84703,0.84962 -1.93156,1.30824 -3.07333,1.2318 -0.66674,-0.0441 -1.29629,-0.62326 -1.943,-0.96134 0.0286,-0.12054 0.0543,-0.24107 0.083,-0.36161 0.51509,-0.11465 1.03017,-0.22343 1.54238,-0.34689"
               style="fill:#000000;fill-opacity:1;fill-rule:nonzero;stroke:none;stroke-width:2.90045"
               id="path1025" /><path
               d="m -284.45753,340.31223 c -1.13318,2.04908 -1.69119,4.25398 -3.48825,5.90031 -2.01168,1.8433 -3.54834,4.22165 -5.62297,5.97381 -2.3608,1.99323 -3.8345,4.64793 -5.86049,6.8734 -0.86991,0.95547 -1.10743,2.45774 -1.71408,3.66897 -1.63681,3.2897 -0.55228,6.37069 0.69536,9.42521 1.65113,4.03056 3.36234,8.03465 5.03635,12.05345 1.32777,3.18975 0.8871,6.30896 -0.39775,9.39875 -1.49374,3.59252 -3.82019,6.68526 -5.91486,9.91617 -1.98879,3.06629 -3.15631,6.43538 -3.67711,10.02495 -0.24896,1.71982 -0.37486,3.45435 -0.57517,5.36819 -0.68105,-0.69675 -1.37642,-1.32881 -1.98021,-2.04027 -1.80278,-2.11964 -2.53248,-4.66262 -3.02753,-7.34966 -0.7898,-4.26869 -1.46798,-8.59911 -4.03195,-12.29746 -0.38059,-0.54682 -0.77834,-1.08481 -1.23619,-1.71689 1.23333,-0.81434 2.50101,-1.60222 3.71717,-2.46949 3.37093,-2.39892 6.63311,-4.93015 9.05971,-8.34628 1.31632,-1.85211 1.73984,-3.86004 1.13891,-6.13844 -0.96721,-3.64837 -1.78561,-7.33791 -2.65553,-11.01274 -0.30333,-1.28766 -0.66674,-2.56944 -0.83558,-3.87474 -0.24895,-1.94619 0.50936,-3.6719 1.83713,-4.99777 2.87873,-2.87225 5.88909,-5.61221 8.84509,-8.40508 1.4365,-1.35822 2.14904,-3.0457 2.59258,-4.95662 0.28616,-1.23768 0.9529,-2.41069 1.59103,-3.53078 0.17742,-0.30868 0.85275,-0.37924 1.31918,-0.47331 1.68546,-0.34398 3.37951,-0.64971 5.18516,-0.99368"
               style="fill:#000000;fill-opacity:1;fill-rule:nonzero;stroke:none;stroke-width:2.90045"
               id="path1029" /></g></g></g><g
         id="g6767"><g
           id="g6102"
           transform="translate(-409.03194)"
           style="fill:#000000"><path
             id="path1768"
             style="fill:#000000;stroke:none;stroke-width:0.3;stroke-linecap:butt;stroke-linejoin:miter;stroke-miterlimit:4;stroke-dasharray:none;stroke-opacity:1"
             d="m 735.56836,444.59375 -17.50195,31.99609 c 28.8328,17.70916 68.7141,24.65335 97.43554,24.52735 28.72144,0.126 68.6008,-6.81819 97.4336,-24.52735 L 895.43359,444.59375 C 876.59523,455.69807 848.78898,464.91521 815.50195,465 c -33.28702,-0.0848 -61.09523,-9.30193 -79.93359,-20.40625 z"
             transform="matrix(0.75000002,0,0,-0.75000002,-408.73282,596.3435)" /><path
             id="path2164"
             style="fill:#000000;stroke:none;stroke-width:0.225;stroke-linecap:butt;stroke-linejoin:miter;stroke-miterlimit:4;stroke-dasharray:none;stroke-opacity:1"
             d="m 109.88487,251.6892 c -3.5814,0.0505 -6.61562,-0.29138 -8.9707,-1.12061 5.33125,-6.37484 10.16767,-10.4494 9.68554,-15.38086 -0.52101,-5.32927 -9.12984,-10.68624 -15.651852,-15.2461 10.788092,1.74841 20.971152,0.77173 30.345702,-3.84081 11.69832,-4.83251 22.56831,-6.35268 32.49903,-4.11475 l 2.9165,13.2583 0.003,0.0132 c -11.46104,2.95734 -22.75226,7.26978 -32.39502,13.19238 l 4.50878,8.24268 c -7.14286,2.28349 -13.74569,4.40146 -19.18213,4.81933 -1.31076,0.10076 -2.56498,0.16041 -3.75879,0.17725 z" /><g
             id="path885"
             style="fill:#000000;stroke:none"><path
               style="color:#000000;fill:#000000;stroke:none;stroke-width:1.5;stroke-linecap:round;stroke-linejoin:round;-inkscape-stroke:none"
               d="m 97.630996,262.43895 c 2.816144,-1.16877 3.955484,-3.52213 5.272504,-6.04503 -0.63298,0.23735 -1.05717,0.38431 -1.47248,0.55837 -1.616835,0.67821 -3.231465,0.64429 -4.83498,-0.0249 -0.750676,-0.31424 -1.428055,-2.03687 -1.006076,-3.02478 0.657386,-1.53952 1.381419,-3.08129 2.303099,-4.47838 2.116557,-3.21015 4.375247,-6.32988 6.567297,-9.49254 0.35092,-0.50641 0.65074,-1.04444 0.96834,-1.55535 -0.69293,-0.91784 -0.93946,-0.99017 -1.60796,-0.18764 -0.77732,0.93365 -1.79452,1.24111 -2.91386,1.42197 -1.225968,0.19893 -2.440807,0.5335 -3.671203,0.59455 -1.843384,0.095 -2.5985,-0.6149 -2.538529,-2.36693 0.02445,-0.72114 0.0023,-1.44681 0.0023,-2.37821 -0.852838,0.84096 -1.583537,1.55986 -2.314221,2.28102 -1.405851,1.38804 -1.381418,1.36317 -2.805035,0.0384 -0.586332,-0.54482 -1.30369,-0.94721 -2.092125,-1.51013 -0.171011,1.22981 -0.308712,2.2132 -0.453071,3.2599 -3.460217,1.01277 -6.605055,2.72862 -9.605534,4.83104 1.810049,-0.37753 3.535727,-0.90879 5.294699,-1.05347 1.778973,-0.14469 3.589031,0.095 5.510144,0.16956 0.05557,1.16423 0.1066,2.18833 0.155466,3.21015 0.85061,-0.15598 1.439162,-0.69857 2.913871,-2.73316 0.915013,0.9201 1.890005,1.75428 3.235893,1.70681 -0.09771,-0.94723 -0.222096,-1.92609 -0.275393,-2.90948 -0.0089,-0.18764 0.237634,-0.52221 0.42198,-0.56743 1.301461,-0.32101 2.616249,-0.58099 3.924383,-0.86132 0.979434,-0.21024 1.958875,-0.42274 3.038245,-0.65333 -0.0644,0.2645 -0.0623,0.42275 -0.13548,0.53352 -2.425263,3.71653 -4.857178,7.42628 -7.291325,11.13831 -0.126594,0.19217 -0.264295,0.3798 -0.419761,0.54935 -0.384221,0.42049 -0.795094,1.18008 -1.172648,1.1665 -0.777329,-0.0249 -1.625727,-0.33683 -2.289788,-0.76409 -1.576863,-1.01279 -2.654017,-2.50936 -3.589031,-4.18451 -0.764003,0.68046 -0.930575,1.55307 -0.915021,2.39406 0.0333,1.98485 0.168791,3.97198 0.304265,5.95459 0.04215,0.60134 -0.159905,0.91558 -0.748458,1.03085 -0.581884,0.11531 -1.157102,0.2713 -1.738987,0.3798 -1.694578,0.31877 -2.865006,1.49432 -4.104293,2.51613 -0.744009,0.61264 -1.328114,1.41971 -1.974401,2.1273 1.37919,0.0655 2.645129,0.0701 3.893295,0.22154 0.370895,0.043 0.786207,0.4363 1.01497,0.7754 0.828406,1.2298 0.597431,2.53873 0.330917,3.91549 -0.426427,2.18154 -0.721805,4.397 -0.926128,6.6102 -0.1377,1.50559 -0.13548,3.04511 -0.0023,4.55297 0.224309,2.54552 0.268734,5.12494 1.086034,7.59133 0.05557,0.1673 0.1377,0.32553 0.293165,0.68951 0.370895,-1.19816 0.755116,-2.20641 0.990539,-3.25084 0.619643,-2.73315 1.818944,-5.2131 3.369154,-7.52125 1.130458,-1.68195 2.343092,-3.31866 3.631229,-4.88304 1.072714,-1.30215 2.56962,-1.99843 4.275296,-2.09564 1.319235,-0.0747 2.647358,-0.0136 4.019887,-0.0136 0.390894,-2.81678 -0.803969,-5.22666 -1.918884,-7.66365"
               id="path2797" /><path
               id="path2916"
               style="color:#000000;fill:#000000;stroke:none;stroke-width:1.33333;stroke-linecap:round;stroke-linejoin:round;-inkscape-stroke:none"
               d="m 655.07617,410.9082 c -0.19843,0.46459 -0.31237,0.67426 -0.41992,0.99805 a 1.0001,1.0001 0 0 1 -0.002,0 c -1.15182,3.47585 -1.20119,7.00096 -1.4961,10.34766 -0.18274,2.06892 -0.18346,4.18 0.006,6.25 0.27485,2.97709 0.67197,5.96444 1.24805,8.91211 0.35316,1.82433 0.58187,3.17578 -0.28906,4.4707 -0.19169,0.28413 -0.75223,0.61489 -0.63867,0.60156 a 1.0001,1.0001 0 0 0 -0.006,0 c -1.58637,0.19252 -3.25153,0.20053 -5.11719,0.28906 a 1.0001,1.0001 0 0 0 -0.69141,1.67578 c 0.8087,0.88542 1.60989,2.00411 2.73633,2.93165 1.59994,1.31938 3.30648,3.07246 5.92187,3.56445 a 1.0001,1.0001 0 0 0 0.002,0.004 c 0.7228,0.13479 1.48733,0.33921 2.30859,0.50196 a 1.0001,1.0001 0 0 1 0.002,0 c 0.11785,0.0232 0.16734,0.0431 0.18946,0.0527 0.001,0.009 0.0185,0.0613 0.004,0.26953 a 1.0001,1.0001 0 0 0 0,0.004 c -0.18063,2.64357 -0.36323,5.31143 -0.4082,7.99219 -0.023,1.26564 0.27366,2.81412 1.55469,3.95508 a 1.0001,1.0001 0 0 0 1.53906,-0.25977 c 1.21092,-2.16945 2.5494,-4.00634 4.44922,-5.22656 a 1.0001,1.0001 0 0 0 0.004,0 c 0.69908,-0.44979 1.6185,-0.74296 2.38476,-0.80469 0.0437,0.0444 0.0716,0.0662 0.13281,0.14062 0.21799,0.26515 0.47969,0.66257 0.81836,1.03321 a 1.0001,1.0001 0 0 0 0.002,0.004 c 0.15728,0.17152 0.31129,0.37651 0.46093,0.60352 2.97166,4.53172 5.93691,9.06073 8.89844,13.5957 -0.66172,-0.14261 -1.35545,-0.29091 -2.00195,-0.42968 -1.68087,-0.3602 -3.34786,-0.69871 -4.98438,-1.09571 0.0744,-1.19273 0.21551,-2.40411 0.33985,-3.60937 a 1.0001,1.0001 0 0 0 -0.95703,-1.10157 c -1.78917,-0.0631 -3.09256,0.86296 -4.21485,1.86915 -0.61224,-0.80464 -1.21914,-1.62962 -1.70703,-2.08594 -0.67975,-0.63576 -1.40365,-1.00106 -2.13281,-1.13477 a 1.0001,1.0001 0 0 0 -1.17969,0.93555 c -0.051,1.0672 -0.10787,2.19431 -0.16406,3.35547 -2.23555,0.12478 -4.36481,0.35942 -6.31055,0.20117 -2.19922,-0.18089 -4.4649,-0.86905 -6.9375,-1.38477 a 1.0001,1.0001 0 0 0 -0.77539,1.79688 c 3.8724,2.71336 7.97923,4.92085 12.46875,6.33008 0.16603,1.19962 0.32747,2.35203 0.52539,3.77539 a 1.0001,1.0001 0 0 0 1.57031,0.67773 c 1.00121,-0.71484 1.98881,-1.25954 2.88868,-2.0957 a 1.0001,1.0001 0 0 1 0.002,0 c 0.47672,-0.44363 0.82596,-0.76734 1.04492,-0.93359 0.0839,-0.0637 0.11567,-0.08 0.14649,-0.0977 0.0291,0.0176 0.0566,0.0324 0.13671,0.0957 0.21424,0.16947 0.55681,0.50219 1.02539,0.96485 0.975,0.96228 1.94928,1.92214 3.08594,3.04296 a 1.0001,1.0001 0 0 0 1.08789,0.21094 1.0001,1.0001 0 0 0 0.61524,-0.92578 c 0,-1.22601 0.0321,-2.19846 -0.002,-3.20312 -0.0349,-1.01999 0.15926,-1.491 0.42188,-1.73633 0.26262,-0.24532 0.8161,-0.44507 1.91016,-0.38867 a 1.0001,1.0001 0 0 0 0.004,0 c 1.49246,0.074 3.0767,0.50434 4.78321,0.78125 1.41045,0.22789 2.44436,0.55262 3.27539,1.55078 0.2469,0.2964 0.47297,0.54517 0.76953,0.75781 0.29657,0.21265 0.743,0.39186 1.19726,0.32812 0.45427,-0.0637 0.78033,-0.30492 1.03321,-0.54296 0.25289,-0.23806 0.46659,-0.50642 0.71093,-0.83008 a 1.0001,1.0001 0 0 0 0.0527,-1.13086 c -0.40626,-0.65353 -0.81544,-1.38862 -1.32032,-2.11719 -2.93054,-4.22816 -5.93619,-8.3809 -8.74218,-12.63672 -1.17525,-1.78144 -2.11926,-3.78192 -2.98633,-5.8125 -0.12292,-0.28776 -0.11626,-0.9997 0.10547,-1.625 0.22135,-0.62421 0.70066,-1.09069 0.70117,-1.09179 1.92891,-0.805 3.74801,-0.84102 5.67383,-0.0332 0.59254,0.24835 1.16648,0.44528 2,0.75781 a 1.0001,1.0001 0 0 0 1.23828,-1.39843 c -1.60531,-3.07514 -3.24373,-6.1901 -6.66797,-8.00781 1.37967,-3.00006 2.82426,-6.17314 2.30078,-9.94532 a 1.0001,1.0001 0 0 0 -0.99023,-0.86328 c -1.85972,0 -3.61426,0.0782 -5.30469,-0.0176 -2.03659,-0.11608 -3.73314,-0.91278 -4.98437,-2.43164 -1.69572,-2.05936 -3.29308,-4.21651 -4.78321,-6.43359 -2.0152,-3.00048 -3.55414,-6.1894 -4.34765,-9.68945 -0.33487,-1.48558 -0.85615,-2.84565 -1.33985,-4.40821 a 1.0001,1.0001 0 0 0 -1.875,-0.0996 z"
               transform="matrix(0.75000002,0,0,-0.75000002,-408.73282,596.3435)" /></g><path
             id="path6072"
             style="fill:#000000;stroke:none;stroke-width:0.225;stroke-linecap:butt;stroke-linejoin:miter;stroke-miterlimit:4;stroke-dasharray:none;stroke-opacity:1"
             d="m 295.90117,251.6892 c 3.5814,0.0505 6.61562,-0.29138 8.9707,-1.12061 -5.33125,-6.37484 -10.16767,-10.4494 -9.68554,-15.38086 0.52101,-5.32927 9.12984,-10.68624 15.65185,-15.2461 -10.78809,1.74841 -20.97115,0.77173 -30.3457,-3.84081 -11.69832,-4.83251 -22.56831,-6.35268 -32.49903,-4.11475 l -2.9165,13.2583 -0.003,0.0132 c 11.46104,2.95734 22.75226,7.26978 32.39502,13.19238 l -4.50878,8.24268 c 7.14286,2.28349 13.74569,4.40146 19.18213,4.81933 1.31076,0.10076 2.56498,0.16041 3.75879,0.17725 z" /><g
             id="g6078"
             style="fill:#000000;stroke:none"
             transform="matrix(-1,0,0,1,405.78604,0)"><path
               style="color:#000000;fill:#000000;stroke:none;stroke-width:1.5;stroke-linecap:round;stroke-linejoin:round;-inkscape-stroke:none"
               d="m 97.630996,262.43895 c 2.816144,-1.16877 3.955484,-3.52213 5.272504,-6.04503 -0.63298,0.23735 -1.05717,0.38431 -1.47248,0.55837 -1.616835,0.67821 -3.231465,0.64429 -4.83498,-0.0249 -0.750676,-0.31424 -1.428055,-2.03687 -1.006076,-3.02478 0.657386,-1.53952 1.381419,-3.08129 2.303099,-4.47838 2.116557,-3.21015 4.375247,-6.32988 6.567297,-9.49254 0.35092,-0.50641 0.65074,-1.04444 0.96834,-1.55535 -0.69293,-0.91784 -0.93946,-0.99017 -1.60796,-0.18764 -0.77732,0.93365 -1.79452,1.24111 -2.91386,1.42197 -1.225968,0.19893 -2.440807,0.5335 -3.671203,0.59455 -1.843384,0.095 -2.5985,-0.6149 -2.538529,-2.36693 0.02445,-0.72114 0.0023,-1.44681 0.0023,-2.37821 -0.852838,0.84096 -1.583537,1.55986 -2.314221,2.28102 -1.405851,1.38804 -1.381418,1.36317 -2.805035,0.0384 -0.586332,-0.54482 -1.30369,-0.94721 -2.092125,-1.51013 -0.171011,1.22981 -0.308712,2.2132 -0.453071,3.2599 -3.460217,1.01277 -6.605055,2.72862 -9.605534,4.83104 1.810049,-0.37753 3.535727,-0.90879 5.294699,-1.05347 1.778973,-0.14469 3.589031,0.095 5.510144,0.16956 0.05557,1.16423 0.1066,2.18833 0.155466,3.21015 0.85061,-0.15598 1.439162,-0.69857 2.913871,-2.73316 0.915013,0.9201 1.890005,1.75428 3.235893,1.70681 -0.09771,-0.94723 -0.222096,-1.92609 -0.275393,-2.90948 -0.0089,-0.18764 0.237634,-0.52221 0.42198,-0.56743 1.301461,-0.32101 2.616249,-0.58099 3.924383,-0.86132 0.979434,-0.21024 1.958875,-0.42274 3.038245,-0.65333 -0.0644,0.2645 -0.0623,0.42275 -0.13548,0.53352 -2.425263,3.71653 -4.857178,7.42628 -7.291325,11.13831 -0.126594,0.19217 -0.264295,0.3798 -0.419761,0.54935 -0.384221,0.42049 -0.795094,1.18008 -1.172648,1.1665 -0.777329,-0.0249 -1.625727,-0.33683 -2.289788,-0.76409 -1.576863,-1.01279 -2.654017,-2.50936 -3.589031,-4.18451 -0.764003,0.68046 -0.930575,1.55307 -0.915021,2.39406 0.0333,1.98485 0.168791,3.97198 0.304265,5.95459 0.04215,0.60134 -0.159905,0.91558 -0.748458,1.03085 -0.581884,0.11531 -1.157102,0.2713 -1.738987,0.3798 -1.694578,0.31877 -2.865006,1.49432 -4.104293,2.51613 -0.744009,0.61264 -1.328114,1.41971 -1.974401,2.1273 1.37919,0.0655 2.645129,0.0701 3.893295,0.22154 0.370895,0.043 0.786207,0.4363 1.01497,0.7754 0.828406,1.2298 0.597431,2.53873 0.330917,3.91549 -0.426427,2.18154 -0.721805,4.397 -0.926128,6.6102 -0.1377,1.50559 -0.13548,3.04511 -0.0023,4.55297 0.224309,2.54552 0.268734,5.12494 1.086034,7.59133 0.05557,0.1673 0.1377,0.32553 0.293165,0.68951 0.370895,-1.19816 0.755116,-2.20641 0.990539,-3.25084 0.619643,-2.73315 1.818944,-5.2131 3.369154,-7.52125 1.130458,-1.68195 2.343092,-3.31866 3.631229,-4.88304 1.072714,-1.30215 2.56962,-1.99843 4.275296,-2.09564 1.319235,-0.0747 2.647358,-0.0136 4.019887,-0.0136 0.390894,-2.81678 -0.803969,-5.22666 -1.918884,-7.66365"
               id="path6074" /><path
               id="path6076"
               style="color:#000000;fill:#000000;stroke:none;stroke-width:1.33333;stroke-linecap:round;stroke-linejoin:round;-inkscape-stroke:none"
               d="m 655.07617,410.9082 c -0.19843,0.46459 -0.31237,0.67426 -0.41992,0.99805 a 1.0001,1.0001 0 0 1 -0.002,0 c -1.15182,3.47585 -1.20119,7.00096 -1.4961,10.34766 -0.18274,2.06892 -0.18346,4.18 0.006,6.25 0.27485,2.97709 0.67197,5.96444 1.24805,8.91211 0.35316,1.82433 0.58187,3.17578 -0.28906,4.4707 -0.19169,0.28413 -0.75223,0.61489 -0.63867,0.60156 a 1.0001,1.0001 0 0 0 -0.006,0 c -1.58637,0.19252 -3.25153,0.20053 -5.11719,0.28906 a 1.0001,1.0001 0 0 0 -0.69141,1.67578 c 0.8087,0.88542 1.60989,2.00411 2.73633,2.93165 1.59994,1.31938 3.30648,3.07246 5.92187,3.56445 a 1.0001,1.0001 0 0 0 0.002,0.004 c 0.7228,0.13479 1.48733,0.33921 2.30859,0.50196 a 1.0001,1.0001 0 0 1 0.002,0 c 0.11785,0.0232 0.16734,0.0431 0.18946,0.0527 0.001,0.009 0.0185,0.0613 0.004,0.26953 a 1.0001,1.0001 0 0 0 0,0.004 c -0.18063,2.64357 -0.36323,5.31143 -0.4082,7.99219 -0.023,1.26564 0.27366,2.81412 1.55469,3.95508 a 1.0001,1.0001 0 0 0 1.53906,-0.25977 c 1.21092,-2.16945 2.5494,-4.00634 4.44922,-5.22656 a 1.0001,1.0001 0 0 0 0.004,0 c 0.69908,-0.44979 1.6185,-0.74296 2.38476,-0.80469 0.0437,0.0444 0.0716,0.0662 0.13281,0.14062 0.21799,0.26515 0.47969,0.66257 0.81836,1.03321 a 1.0001,1.0001 0 0 0 0.002,0.004 c 0.15728,0.17152 0.31129,0.37651 0.46093,0.60352 2.97166,4.53172 5.93691,9.06073 8.89844,13.5957 -0.66172,-0.14261 -1.35545,-0.29091 -2.00195,-0.42968 -1.68087,-0.3602 -3.34786,-0.69871 -4.98438,-1.09571 0.0744,-1.19273 0.21551,-2.40411 0.33985,-3.60937 a 1.0001,1.0001 0 0 0 -0.95703,-1.10157 c -1.78917,-0.0631 -3.09256,0.86296 -4.21485,1.86915 -0.61224,-0.80464 -1.21914,-1.62962 -1.70703,-2.08594 -0.67975,-0.63576 -1.40365,-1.00106 -2.13281,-1.13477 a 1.0001,1.0001 0 0 0 -1.17969,0.93555 c -0.051,1.0672 -0.10787,2.19431 -0.16406,3.35547 -2.23555,0.12478 -4.36481,0.35942 -6.31055,0.20117 -2.19922,-0.18089 -4.4649,-0.86905 -6.9375,-1.38477 a 1.0001,1.0001 0 0 0 -0.77539,1.79688 c 3.8724,2.71336 7.97923,4.92085 12.46875,6.33008 0.16603,1.19962 0.32747,2.35203 0.52539,3.77539 a 1.0001,1.0001 0 0 0 1.57031,0.67773 c 1.00121,-0.71484 1.98881,-1.25954 2.88868,-2.0957 a 1.0001,1.0001 0 0 1 0.002,0 c 0.47672,-0.44363 0.82596,-0.76734 1.04492,-0.93359 0.0839,-0.0637 0.11567,-0.08 0.14649,-0.0977 0.0291,0.0176 0.0566,0.0324 0.13671,0.0957 0.21424,0.16947 0.55681,0.50219 1.02539,0.96485 0.975,0.96228 1.94928,1.92214 3.08594,3.04296 a 1.0001,1.0001 0 0 0 1.08789,0.21094 1.0001,1.0001 0 0 0 0.61524,-0.92578 c 0,-1.22601 0.0321,-2.19846 -0.002,-3.20312 -0.0349,-1.01999 0.15926,-1.491 0.42188,-1.73633 0.26262,-0.24532 0.8161,-0.44507 1.91016,-0.38867 a 1.0001,1.0001 0 0 0 0.004,0 c 1.49246,0.074 3.0767,0.50434 4.78321,0.78125 1.41045,0.22789 2.44436,0.55262 3.27539,1.55078 0.2469,0.2964 0.47297,0.54517 0.76953,0.75781 0.29657,0.21265 0.743,0.39186 1.19726,0.32812 0.45427,-0.0637 0.78033,-0.30492 1.03321,-0.54296 0.25289,-0.23806 0.46659,-0.50642 0.71093,-0.83008 a 1.0001,1.0001 0 0 0 0.0527,-1.13086 c -0.40626,-0.65353 -0.81544,-1.38862 -1.32032,-2.11719 -2.93054,-4.22816 -5.93619,-8.3809 -8.74218,-12.63672 -1.17525,-1.78144 -2.11926,-3.78192 -2.98633,-5.8125 -0.12292,-0.28776 -0.11626,-0.9997 0.10547,-1.625 0.22135,-0.62421 0.70066,-1.09069 0.70117,-1.09179 1.92891,-0.805 3.74801,-0.84102 5.67383,-0.0332 0.59254,0.24835 1.16648,0.44528 2,0.75781 a 1.0001,1.0001 0 0 0 1.23828,-1.39843 c -1.60531,-3.07514 -3.24373,-6.1901 -6.66797,-8.00781 1.37967,-3.00006 2.82426,-6.17314 2.30078,-9.94532 a 1.0001,1.0001 0 0 0 -0.99023,-0.86328 c -1.85972,0 -3.61426,0.0782 -5.30469,-0.0176 -2.03659,-0.11608 -3.73314,-0.91278 -4.98437,-2.43164 -1.69572,-2.05936 -3.29308,-4.21651 -4.78321,-6.43359 -2.0152,-3.00048 -3.55414,-6.1894 -4.34765,-9.68945 -0.33487,-1.48558 -0.85615,-2.84565 -1.33985,-4.40821 a 1.0001,1.0001 0 0 0 -1.875,-0.0996 z"
               transform="matrix(0.75000002,0,0,-0.75000002,-408.73282,596.3435)" /></g></g><g
           id="g6126"
           transform="translate(-409.03194)"><path
             d="m 180.93819,226.94558 q 0.24283,0.6019 0.4175,1.26504 0.19418,0.65862 0.38933,1.49862 l 2.75711,11.8676 -0.93823,0.21797 q -0.54729,0.12715 -1.02641,0.19308 -0.45458,0.0829 -1.01688,0.14549 l 0.63549,2.73536 q 0.42956,-0.19055 0.83502,-0.3075 0.40548,-0.11689 1.0896,-0.27583 l 1.79828,-0.41778 q 0.37138,-0.0863 0.62549,-0.14531 0.27364,-0.0636 0.49366,-0.092 0.22001,-0.0284 0.41548,-0.0738 0.20046,-0.0239 0.48412,-0.0444 -0.31791,-0.92498 -0.54714,-1.73436 -0.20973,-0.8139 -0.4349,-1.78313 l -2.53194,-10.89837 q -0.20015,-0.86154 -0.33069,-1.51224 -0.10605,-0.63368 -0.1634,-1.32408 z"
             style="font-weight:600;font-size:40px;line-height:1.25;font-family:'.Aqua Kana';-inkscape-font-specification:'.Aqua Kana Semi-Bold';white-space:pre;fill:#ffffff;stroke-width:0.526617"
             id="path5898" /><path
             d="m 193.11136,229.50865 q 0.13982,-0.49972 0.23791,-0.77409 0.11991,-0.254 0.28164,-0.48927 0.6851,-0.96645 2.22498,-1.09402 1.4399,-0.11928 2.33469,0.71629 0.82566,0.73036 1.28786,1.93458 0.46403,1.22626 0.7065,3.18087 -0.31832,-0.43957 -0.56021,-0.68579 -0.24006,-0.22417 -0.60377,-0.48248 -0.72194,-0.45052 -1.52379,-0.65034 -0.80002,-0.17779 -1.79995,-0.0949 -1.23991,0.10271 -2.22697,0.58385 -0.96524,0.50153 -1.62313,1.31042 -0.63788,0.80722 -0.9284,1.91848 -0.29052,1.11126 -0.18099,2.43345 0.14056,1.6968 0.89004,2.96598 0.76949,1.26751 2.07876,2.00218 1.48023,0.85364 3.58008,0.67968 1.93985,-0.16069 3.30299,-1.44956 1.36497,-1.26684 1.83697,-3.34721 0.43027,-1.85503 0.20209,-4.60958 -0.10406,-1.25608 -0.35898,-2.38871 -0.23491,-1.1343 -0.59704,-2.10275 -0.34213,-0.97011 -0.80782,-1.73029 -0.44569,-0.76182 -0.98947,-1.24928 -0.87296,-0.8152 -1.92574,-1.12736 -1.03279,-0.31382 -2.47268,-0.19454 -1.25991,0.10437 -2.15429,0.48909 -0.89437,0.38472 -1.59955,1.10877 -0.24173,0.2419 -0.42346,0.47883 -0.1799,0.25896 -0.35615,0.56201 -0.15627,0.30138 -0.32704,0.67054 -0.15078,0.36749 -0.3306,0.87051 z m 3.18299,3.9076 q 0.73995,-0.0613 1.3818,0.15178 0.66369,0.23345 1.16199,0.65812 0.50012,0.4467 0.81488,1.08625 0.31474,0.63956 0.37864,1.41084 0.0639,0.77127 -0.14315,1.43186 -0.18522,0.68098 -0.58685,1.18019 -0.39981,0.52125 -0.99786,0.83704 -0.59805,0.3158 -1.338,0.3771 -0.71994,0.0596 -1.3418,-0.15511 -0.62186,-0.21473 -1.102,-0.66308 -0.46013,-0.45001 -0.75487,-1.09122 -0.29475,-0.64122 -0.36047,-1.43453 -0.13326,-1.60866 0.64635,-2.6495 0.78144,-1.0188 2.24134,-1.13974 z"
             style="font-weight:600;font-size:40px;line-height:1.25;font-family:'.Aqua Kana';-inkscape-font-specification:'.Aqua Kana Semi-Bold';white-space:pre;fill:#ffffff;stroke-width:0.526617"
             id="path5900" /><path
             d="m 213.39683,224.6608 q -2.57599,-0.25569 -4.37038,1.36607 -1.01903,0.921 -1.53853,2.09156 -1.0103,2.25511 -1.28112,4.98358 -0.0874,0.88015 -0.0926,1.74623 0.0125,0.89005 0.0936,1.69805 0.0789,0.83 0.23089,1.53392 0.15196,0.70392 0.38129,1.23776 0.67021,1.57752 1.89175,2.47648 1.21936,0.92097 2.89674,1.08747 2.59596,0.25767 4.39035,-1.36409 1.01904,-0.921 1.53854,-2.09157 0.51513,-1.12656 0.82371,-2.40694 0.32636,-1.2564 0.46177,-2.62063 0.20312,-2.04636 -0.0281,-3.78029 -0.21123,-1.73195 -0.80313,-2.87951 -1.43964,-2.76492 -4.59473,-3.07809 z m -0.23334,2.55442 q 0.65897,0.0654 1.19408,0.36295 0.53509,0.29754 0.87083,0.77528 0.6025,0.83752 0.8156,2.34744 0.21312,1.50994 0.0209,3.44627 -0.1922,1.93634 -0.6936,3.3309 -0.50358,1.41658 -1.26334,2.16333 -0.40312,0.4044 -1.00624,0.58896 -0.58316,0.18654 -1.2621,0.11915 -1.39782,-0.13874 -2.12514,-1.34419 -1.14758,-1.84711 -0.78722,-5.47773 0.17254,-1.7383 0.56755,-3.07677 0.41498,-1.33648 0.97067,-2.05905 1.06053,-1.33907 2.69799,-1.17654 z"
             style="font-weight:600;font-size:40px;line-height:1.25;font-family:'.Aqua Kana';-inkscape-font-specification:'.Aqua Kana Semi-Bold';white-space:pre;fill:#ffffff;stroke-width:0.526617"
             id="path5902" /><path
             d="m 226.70613,227.16121 q -0.0784,0.64429 -0.24606,1.30924 -0.1484,0.67042 -0.38364,1.50008 l -3.32342,11.72163 -0.92669,-0.26275 q -0.54057,-0.15327 -0.99186,-0.32716 -0.43801,-0.14716 -0.9605,-0.36422 l -0.76601,2.70172 q 0.46816,0.0409 0.87962,0.13448 0.41146,0.0937 1.08718,0.28527 l 1.77615,0.5036 q 0.36682,0.104 0.61779,0.17516 0.27029,0.0766 0.47663,0.15811 0.20634,0.0815 0.3994,0.13621 0.18703,0.076 0.44526,0.19516 0.16886,-0.9634 0.35945,-1.78274 0.20986,-0.81387 0.48129,-1.77117 l 3.05199,-10.76432 q 0.24127,-0.85094 0.44156,-1.48366 0.21349,-0.60598 0.49704,-1.23808 z"
             style="font-weight:600;font-size:40px;line-height:1.25;font-family:'.Aqua Kana';-inkscape-font-specification:'.Aqua Kana Semi-Bold';white-space:pre;fill:#ffffff;stroke-width:0.526617"
             id="path5904" /></g></g></g></g></svg>
