<?xml version="1.0" encoding="UTF-8" standalone="no"?>
<svg
   xmlns:dc="http://purl.org/dc/elements/1.1/"
   xmlns:cc="http://creativecommons.org/ns#"
   xmlns:rdf="http://www.w3.org/1999/02/22-rdf-syntax-ns#"
   xmlns:svg="http://www.w3.org/2000/svg"
   xmlns="http://www.w3.org/2000/svg"
   xmlns:sodipodi="http://sodipodi.sourceforge.net/DTD/sodipodi-0.dtd"
   xmlns:inkscape="http://www.inkscape.org/namespaces/inkscape"
   inkscape:version="1.0 (4035a4f, 2020-05-01)"
   sodipodi:docname="Logo_AC_ArleÌsien.svg.2021_09_20_16_52_58.0.svg"
   id="svg2"
   version="1.1"
   xml:space="preserve"
   width="615"
   height="615"
   viewBox="0 0 615 615"><sodipodi:namedview
     inkscape:document-rotation="0"
     inkscape:current-layer="svg2"
     inkscape:window-maximized="0"
     inkscape:window-y="25"
     inkscape:window-x="0"
     inkscape:cy="406.05782"
     inkscape:cx="688.174"
     inkscape:zoom="0.60003061"
     showgrid="false"
     id="namedview937"
     inkscape:window-height="756"
     inkscape:window-width="1440"
     inkscape:pageshadow="2"
     inkscape:pageopacity="0"
     guidetolerance="10"
     gridtolerance="10"
     objecttolerance="10"
     borderopacity="1"
     bordercolor="#666666"
     pagecolor="#ffffff" /><metadata
     id="metadata8"><rdf:RDF><cc:Work
         rdf:about=""><dc:format>image/svg+xml</dc:format><dc:type
           rdf:resource="http://purl.org/dc/dcmitype/StillImage" /><dc:title /></cc:Work></rdf:RDF></metadata><defs
     id="defs6" /><g
     transform="translate(615)"
     id="g1346"><path
       id="path14"
       style="fill:#275ba6;fill-opacity:1;fill-rule:nonzero;stroke:none;stroke-width:1.29643"
       d="M 0,307.5 C 0,477.24002 -137.76031,615 -307.5011,615 -477.24014,615 -615,477.24002 -615,307.5 -615,137.75973 -477.24014,0 -307.5011,0 -137.76031,0 0,137.75973 0,307.5" /><path
       id="path915"
       style="fill:#ffde24;fill-opacity:1;fill-rule:nonzero;stroke:none;stroke-width:1.06455"
       d="m -309.20312,26.666016 c -139.37923,0 -252.5,113.119774 -252.5,252.500004 0,83.76027 40.86174,158.02255 103.71484,203.96484 36.07078,55.89894 72.5122,81.44276 105.53711,84.66992 32.51987,3.17781 69.72557,-14.32933 102.23633,-43.0918 110.95339,-26.59012 193.511715,-126.47551 193.511715,-245.54296 0,-139.38023 -113.119365,-252.500004 -252.499995,-252.500004 z" /></g><g
     transform="translate(615)"
     id="g1342"><g
       id="g1273"
       style="fill:#275ba6;fill-opacity:1"><path
         id="path1221"
         d="m -224.13281,485.24414 c -0.22585,-0.0117 -0.007,0.25235 0.59961,0.90039 0.5832,0.62292 2.5698,1.72255 4.41601,2.44336 1.84622,0.72082 4.42819,1.31953 5.73633,1.33203 1.97695,0.0189 1.46015,-0.30464 -3.05859,-1.91601 -2.99005,-1.06625 -6.0474,-2.17488 -6.79493,-2.46485 -0.46659,-0.18099 -0.76292,-0.28789 -0.89843,-0.29492 z"
         style="fill:#275ba6;fill-opacity:1;fill-rule:evenodd;stroke-width:1.55096" /><path
         id="path1219"
         d="m -213.00391,469.93945 c -0.59393,-0.073 -0.0886,1.05965 1.51953,3.86328 2.37092,4.13352 5.76597,7.70857 8.88282,9.35547 5.4276,2.86785 12.81083,1.06679 20.84375,-5.08593 7.12261,-5.45548 8.33539,-7.33446 2.96875,-4.60157 -1.27213,0.64781 -3.38326,1.56148 -4.69141,2.0293 -2.98147,1.06622 -13.7092,1.12625 -16.94141,0.0957 -4.8089,-1.53325 -8.6736,-3.22442 -11.08984,-4.85351 -0.72364,-0.4879 -1.22222,-0.76957 -1.49219,-0.80274 z"
         style="fill:#275ba6;fill-opacity:1;fill-rule:evenodd;stroke-width:1.55096" /><path
         id="path1217"
         d="m -190.15625,451.89062 c -0.23203,0.002 -0.0318,0.28826 0.53516,0.98438 0.54766,0.67242 1.61842,1.47494 2.3789,1.7832 2.24183,0.9087 6.15438,0.72396 8.60938,-0.40625 l 2.28711,-1.05273 -2.81641,0.29883 c -2.7718,0.29409 -7.42996,-0.32135 -10.0957,-1.33203 -0.46431,-0.17604 -0.75922,-0.27642 -0.89844,-0.2754 z"
         style="fill:#275ba6;fill-opacity:1;fill-rule:evenodd;stroke-width:1.55096" /><path
         id="path1215"
         d="m -128.75391,419.55859 c -0.52353,0.10196 -2.38014,0.94866 -4.48437,2.0586 -13.36297,7.04868 -36.24696,12.67415 -48.07813,11.81836 -2.31155,-0.16724 -4.19314,-0.13065 -4.18164,0.0801 0.043,0.78448 5.95316,4.81371 9.10743,6.20899 1.79655,0.7947 4.68184,1.65138 6.4121,1.9043 9.748,1.42491 19.65829,-1.9449 29.5879,-10.06055 4.78912,-3.91423 12.25511,-11.52613 11.77539,-12.00586 -0.0172,-0.0172 -0.0639,-0.0185 -0.13868,-0.004 z"
         style="fill:#275ba6;fill-opacity:1;fill-rule:evenodd;stroke-width:1.55096" /><path
         id="path1213"
         d="m -121.11328,398.11523 c -0.29865,0.0192 -1.49018,0.74804 -3.58594,2.13282 -3.47942,2.29904 -9.99249,5.42922 -13.16406,6.32617 -1.35658,0.38365 -5.44699,0.82235 -9.08984,0.97461 -5.57447,0.23301 -7.29279,0.0378 -10.85938,-1.22852 -4.72712,-1.67833 -7.94185,-3.34571 -11.22852,-5.82422 -2.66362,-2.00868 -2.76626,-1.29169 -0.46679,3.2461 3.14503,6.20641 8.29089,10.85131 13.54883,12.23047 1.12127,0.29406 3.96515,0.38505 6.31836,0.20312 7.44847,-0.57586 15.69119,-5.30439 25.28124,-14.50195 2.53861,-2.4347 3.63008,-3.58326 3.2461,-3.5586 z"
         style="fill:#275ba6;fill-opacity:1;fill-rule:evenodd;stroke-width:1.55096" /><path
         id="path1211"
         d="m -163.4668,373.22852 c -0.39249,0.40141 1.72509,5.63001 2.9375,7.2539 1.52826,2.04695 4.73027,3.93192 7.39063,4.34766 5.18635,0.81051 12.15177,-0.71414 19.60547,-4.29102 4.31536,-2.07086 12.50194,-7.22875 10.19336,-6.42187 -5.71077,1.99599 -11.53486,3.07159 -18.96289,3.49804 -7.5166,0.43153 -12.34259,-0.37756 -17.65821,-2.96093 -1.82708,-0.88796 -3.40417,-1.52978 -3.50586,-1.42578 z"
         style="fill:#275ba6;fill-opacity:1;fill-rule:evenodd;stroke-width:1.55096" /><path
         id="path1209"
         d="m -530.49219,346.45312 c -0.35199,0.0744 -0.22041,2.1021 0.42383,6.09571 1.40478,8.70821 4.45306,16.7006 8.79688,23.06836 2.93813,4.30712 3.89936,4.61705 2.13086,0.6875 -0.7149,-1.58847 -1.96368,-4.72231 -2.7754,-6.96485 -0.81171,-2.24254 -1.74485,-4.68998 -2.07226,-5.4375 -0.3274,-0.74751 -1.89236,-5.33452 -3.47852,-10.19336 -1.60508,-4.9168 -2.62647,-7.3402 -3.02539,-7.25586 z"
         style="fill:#275ba6;fill-opacity:1;fill-rule:evenodd;stroke-width:1.55096" /><path
         id="path1207"
         d="m -91.833984,327.68359 c -0.28812,0.0561 -0.128463,0.97523 0.507812,2.75196 2.64498,7.38583 2.489551,22.60776 -0.324219,31.64843 -1.53157,4.92093 -1.008961,4.83012 2.480469,-0.43164 3.70588,-5.58815 5.583984,-10.50396 5.583984,-14.61328 0,-4.32212 -2.840059,-12.24602 -6.068359,-16.92968 -1.155045,-1.67577 -1.891567,-2.48186 -2.179687,-2.42579 z"
         style="fill:#275ba6;fill-opacity:1;fill-rule:evenodd;stroke-width:1.55096" /><path
         id="path1205"
         d="m -525.29883,322.56055 c -0.53921,-0.12175 1.97082,5.48515 7.54883,16.8789 6.34949,12.96961 7.63344,15.12119 14.64648,24.57032 7.24206,9.75771 16.52361,17.94796 24.54493,21.6582 2.13785,0.98886 4.4174,2.07669 5.0664,2.41797 0.64901,0.34128 1.87272,0.62586 2.71875,0.63086 0.84602,0.006 1.99797,0.30761 2.5586,0.66992 0.56064,0.36231 4.21191,0.66392 8.11523,0.66992 5.7474,0.008 8.16975,-0.32422 12.73828,-1.74805 3.10271,-0.967 5.81454,-2.03774 6.02539,-2.3789 0.21274,-0.34423 -1.22246,-0.62079 -3.22461,-0.6211 -9.36423,-10e-4 -23.06194,-4.45384 -33.87304,-11.00976 -14.87052,-9.01758 -31.24467,-26.44429 -42.60547,-45.34571 -2.51491,-4.18414 -3.93624,-6.31952 -4.25977,-6.39257 z"
         style="fill:#275ba6;fill-opacity:1;fill-rule:evenodd;stroke-width:1.55096" /><path
         id="path1203"
         d="m -526.31836,320.07227 c -0.18688,0 -0.33984,0.15296 -0.33984,0.33984 0,0.18688 0.15296,0.33984 0.33984,0.33984 0.18688,0 0.33984,-0.15296 0.33984,-0.33984 0,-0.18688 -0.15296,-0.33984 -0.33984,-0.33984 z"
         style="fill:#275ba6;fill-opacity:1;fill-rule:evenodd;stroke-width:1.55096" /><path
         id="path1201"
         d="m -164.01172,300.44922 c -0.67743,0.0137 -1.26636,0.0876 -1.60156,0.2168 -1.07529,0.41439 -0.96618,0.68484 0.92187,2.29296 2.69924,2.29906 7.6389,9.09027 11.60547,15.95704 1.68406,2.91538 3.19989,5.16339 3.36914,4.99414 0.16925,-0.16925 -0.0183,-1.56039 -0.41797,-3.0918 -0.39966,-1.53141 -1.04649,-4.08537 -1.4375,-5.67383 -2.01597,-8.18995 -6.05069,-13.88945 -10.30273,-14.55469 -0.69263,-0.10835 -1.45928,-0.15434 -2.13672,-0.14062 z"
         style="fill:#275ba6;fill-opacity:1;fill-rule:evenodd;stroke-width:1.55096" /><path
         id="path1199"
         d="m -536.05078,291.84961 c -0.0543,-0.002 -0.10559,0.0114 -0.15039,0.0391 -0.9216,0.56958 -0.80703,3.96836 0.16601,4.94141 1.14655,1.14654 2.58203,1.01572 2.58204,-0.23633 0,-1.56636 -1.78395,-4.72101 -2.59766,-4.74414 z"
         style="fill:#275ba6;fill-opacity:1;fill-rule:evenodd;stroke-width:1.55096" /><path
         id="path1197"
         d="m -181.92188,278.19141 c -0.15301,0.15303 -0.3774,10.17511 -0.49804,22.26953 l -0.21875,21.99023 -2.79883,5.18555 c -1.53973,2.85247 -2.80078,5.78638 -2.80078,6.51953 0,0.73315 -0.63316,3.13809 -1.4082,5.3457 -0.77504,2.20761 -1.69248,7.22595 -2.03711,11.15039 -1.67094,19.02792 -3.20508,24.82935 -7.82227,29.58008 -2.63796,2.71427 -3.00195,3.45878 -3.00195,6.11328 0,1.6622 0.36198,4.37606 0.80469,6.03125 0.66992,2.50481 0.60692,3.84495 -0.37696,7.99414 -1.27057,5.35817 -6.16887,20.50503 -7.2832,22.52149 -1.0771,1.94912 -1.51843,9.22178 -0.98828,16.29297 l 0.48828,6.51562 2.13476,-2.5039 c 1.17431,-1.37697 3.86696,-4.31678 5.98438,-6.53321 l 3.84961,-4.03125 0.48437,-9.99023 c 0.2661,-5.49544 0.42923,-14.08029 0.36133,-19.07617 -0.1595,-11.74109 0.25027,-19.30913 1.10547,-20.42579 0.9371,-1.2236 3.62891,-8.91342 3.62891,-10.36718 0,-0.65144 0.59073,-2.01371 1.3125,-3.02735 0.72178,-1.01364 1.83618,-3.20292 2.47851,-4.86328 1.50596,-3.89266 3.83381,-6.40641 8.26953,-8.93164 l 3.56836,-2.03125 v -34.82031 -34.82227 l -2.47851,-3.18164 c -1.36354,-1.75015 -2.60477,-3.05731 -2.75782,-2.90429 z"
         style="fill:#275ba6;fill-opacity:1;fill-rule:evenodd;stroke-width:1.55096" /><path
         id="path1195"
         d="m -348.61328,275.25977 c -0.16423,0 -0.32854,0.0629 -0.45313,0.1875 -0.24917,0.24918 -0.0452,0.45312 0.45313,0.45312 0.49834,0 0.70229,-0.20394 0.45312,-0.45312 -0.12458,-0.12459 -0.28889,-0.1875 -0.45312,-0.1875 z"
         style="fill:#275ba6;fill-opacity:1;fill-rule:evenodd;stroke-width:1.55096" /><path
         id="path1193"
         d="m -506.70898,268.95508 c -0.40314,-0.14219 0.005,1.67728 1.17382,5.44336 8.15705,26.28197 21.71654,47.59366 38.17578,59.99609 5.56131,4.19057 13.99543,8.7832 16.13086,8.7832 0.62345,0 1.3616,0.22751 1.63868,0.50782 0.27707,0.28032 2.23817,0.85415 4.35937,1.27343 6.6861,1.32157 15.42762,0.84348 20.16602,-1.10156 0.74752,-0.30684 1.97123,-0.7861 2.71875,-1.0664 1.45357,-0.54506 1.45038,-0.54576 -8.46485,-2.33204 -26.90218,-4.84654 -54.03578,-29.33671 -72.20898,-65.17187 -2.07132,-4.08436 -3.28631,-6.18985 -3.68945,-6.33203 z"
         style="fill:#275ba6;fill-opacity:1;fill-rule:evenodd;stroke-width:1.55096" /><path
         id="path1191"
         d="m -165.87109,267.83203 c -4.02265,0.0448 -8.09571,0.58677 -8.09571,1.24414 0,0.30443 1.45317,0.76376 3.22852,1.01953 5.59737,0.80641 13.75838,5.31327 19.06836,10.5293 4.14991,4.07649 10.32226,12.03674 10.32226,13.3125 0,0.24312 0.56594,1.25205 1.25782,2.24414 0.69188,0.99209 1.99011,3.72979 2.88672,6.08398 3.03442,7.96758 2.25589,-0.22146 -0.92383,-9.71679 -5.17887,-15.46517 -13.05598,-23.57027 -23.89063,-24.58203 -1.17659,-0.10988 -2.51263,-0.14971 -3.85351,-0.13477 z"
         style="fill:#275ba6;fill-opacity:1;fill-rule:evenodd;stroke-width:1.55096" /><path
         id="path1189"
         d="m -521.11719,263.32812 -0.0527,4.67969 c -0.0872,7.85626 2.87548,22.91704 6.46875,32.89063 8.87839,24.64313 24.72327,45.16987 48.18555,62.42383 5.79858,4.26425 9.87555,6.45028 13.92187,7.46484 3.99877,1.00263 5.1704,1.03397 8.8418,0.22461 4.47461,-0.98642 9.85828,-3.85943 13.47461,-7.18945 l 3.17578,-2.92383 -2.20899,-0.11133 c -1.21471,-0.0616 -2.43843,-0.17219 -2.71875,-0.24609 -0.28032,-0.0739 -2.34534,-0.35655 -4.58789,-0.62696 -18.32418,-2.20961 -34.86845,-10.08622 -48.33398,-23.01367 -3.08547,-2.96217 -6.92757,-7.11954 -8.53711,-9.23828 -1.60955,-2.11874 -3.10001,-4.00648 -3.3125,-4.19336 -1.31399,-1.15561 -5.43997,-8.05553 -9.14844,-15.29883 -6.32188,-12.34775 -10.78746,-24.94405 -13.9707,-39.4043 z"
         style="fill:#275ba6;fill-opacity:1;fill-rule:evenodd;stroke-width:1.55096" /><path
         id="path1187"
         d="m -200.23242,259.36719 c -0.21924,0.009 -0.46069,0.0358 -0.71289,0.084 -1.12945,0.21591 -4.76307,3.18246 -9.45703,7.72071 l -7.62305,7.36914 h -27.17188 l -2.99218,4.58789 c -5.14989,7.89781 -6.20358,10.71466 -6.29688,16.81836 -0.0793,5.1895 -0.23095,5.6904 -3.33008,11.03711 -1.78564,3.08064 -3.59139,5.81443 -4.01171,6.07421 -0.42035,0.25978 -7.04484,0.43498 -14.72266,0.38868 -13.37003,-0.0808 -16.02596,0.14242 -22.11524,1.86718 -2.97405,0.84238 -5.70661,1.53963 -10.81054,2.75782 l -3.33594,0.79687 -11.30664,-11.75781 -11.30469,-11.75586 -41.91015,2.79492 c -7.68807,0.15869 -13.26865,0.53932 -13.05274,0.88867 0.76912,1.24445 8.71359,4.02245 11.61133,4.06055 3.34837,0.0441 12.1664,9.38404 17.46875,18.50195 1.03241,1.77534 2.1615,3.22656 2.50976,3.22656 0.6026,0 8.89939,-3.17984 13.24219,-5.07617 1.12127,-0.48962 3.4138,-1.40683 5.09571,-2.03906 3.5849,-1.34755 7.3309,-2.93712 8.99414,-3.81445 1.78796,-0.94311 2.70864,-0.74933 4.9375,1.03711 1.12127,0.8987 3.98273,3.10982 6.35937,4.91406 2.55905,1.94271 5.02372,4.52688 6.04297,6.33789 0.94661,1.6819 2.28777,4.05287 2.98242,5.26758 0.69466,1.21471 1.9104,3.3515 2.70117,4.74804 2.95601,5.22043 8.91754,8.94563 22.00782,13.75391 2.24254,0.82373 4.68803,1.75355 5.43554,2.06836 2.5866,1.08929 3.62206,0.65127 6.03907,-2.5625 1.3352,-1.77535 3.65886,-4.75622 5.16406,-6.625 6.40534,-7.95258 8.60372,-10.85147 10.24219,-13.50195 1.79581,-2.90498 6.24546,-13.74427 8.83789,-21.5293 l 1.48046,-4.45117 5.6504,-0.0352 c 5.06631,-0.032 6.66708,-0.34789 11.51562,-2.27343 11.9699,-4.75374 17.83026,-11.10467 18.98828,-20.57618 0.38448,-3.14466 0.97786,-4.51205 2.97852,-6.875 7.51932,-8.88093 10.99023,-13.25389 10.99023,-13.83984 0,-0.2708 -0.46336,-0.41439 -1.12109,-0.38867 z"
         style="fill:#275ba6;fill-opacity:1;fill-rule:evenodd;stroke-width:1.55096" /><path
         id="path1185"
         d="m -360.50586,254.1543 c -0.18688,0 -0.33984,0.15296 -0.33984,0.33984 0,0.18687 0.15296,0.33984 0.33984,0.33984 0.18687,0 0.33984,-0.15297 0.33984,-0.33984 0,-0.18688 -0.15297,-0.33984 -0.33984,-0.33984 z"
         style="fill:#275ba6;fill-opacity:1;fill-rule:evenodd;stroke-width:1.55096" /><path
         id="path1183"
         d="m -327.88672,246.67969 c -0.18688,0 -0.33984,0.15296 -0.33984,0.33984 0,0.18688 0.15296,0.33984 0.33984,0.33985 0.18688,-10e-6 0.33984,-0.15297 0.33984,-0.33985 0,-0.18688 -0.15296,-0.33984 -0.33984,-0.33984 z"
         style="fill:#275ba6;fill-opacity:1;fill-rule:evenodd;stroke-width:1.55096" /><path
         id="path1181"
         d="m -543.59961,246.45703 c -0.33478,0.0315 -0.70602,1.07665 -0.85351,3.11133 -0.36327,5.011 0.47846,9.69213 2.17187,12.07031 1.99457,2.80112 2.88588,2.54306 1.78125,-0.51758 -1.46563,-4.06089 -2.4668,-8.80821 -2.4668,-11.69336 0,-2.0208 -0.29803,-3.00221 -0.63281,-2.9707 z"
         style="fill:#275ba6;fill-opacity:1;fill-rule:evenodd;stroke-width:1.55096" /><path
         id="path1179"
         d="m -297.98633,239.88477 c -0.18688,0 -0.33984,0.15296 -0.33984,0.33984 0,0.18688 0.15296,0.33984 0.33984,0.33984 0.18688,0 0.33985,-0.15296 0.33985,-0.33984 0,-0.18688 -0.15297,-0.33984 -0.33985,-0.33984 z"
         style="fill:#275ba6;fill-opacity:1;fill-rule:evenodd;stroke-width:1.55096" /><path
         id="path1177"
         d="m -260.67383,235.92969 c -0.16246,-0.0244 -0.27734,0.18288 -0.27734,0.55664 0,0.49834 0.20395,0.70229 0.45312,0.45312 0.24917,-0.24917 0.24917,-0.65708 0,-0.90625 -0.0623,-0.0623 -0.12163,-0.0954 -0.17578,-0.10351 z"
         style="fill:#275ba6;fill-opacity:1;fill-rule:evenodd;stroke-width:1.55096" /><path
         id="path1175"
         d="m -283.7793,235.25 c -0.16245,-0.0244 -0.27539,0.18289 -0.27539,0.55664 0,0.49834 0.20396,0.7023 0.45313,0.45313 0.24917,-0.24917 0.24917,-0.65708 0,-0.90625 -0.0623,-0.0623 -0.12358,-0.0954 -0.17774,-0.10352 z"
         style="fill:#275ba6;fill-opacity:1;fill-rule:evenodd;stroke-width:1.55096" /><path
         id="path1173"
         d="m -408.28906,226.12695 c -0.0723,-0.0139 -0.1105,-0.006 -0.10938,0.0274 0.0288,0.8158 8.12515,6.5861 15.79883,11.26172 7.56517,4.60951 13.42352,7.89674 23.92969,13.42968 3.35816,1.76853 6.23706,3.08522 6.39844,2.92383 0.38708,-0.38707 1.52517,0.33222 -13.86329,-8.77344 -7.47514,-4.42319 -15.19195,-9.06469 -17.14843,-10.31445 -1.95647,-1.24975 -3.69224,-2.27344 -3.85742,-2.27344 -0.16519,0 -2.76963,-1.51523 -5.78711,-3.36718 -2.64032,-1.62045 -4.85507,-2.8165 -5.36133,-2.91407 z"
         style="fill:#275ba6;fill-opacity:1;fill-rule:evenodd;stroke-width:1.55096" /><path
         id="path1171"
         d="m -149.92383,203.8125 c -3.97379,0.0163 -8.33295,0.38538 -9.6875,0.82031 -4.71526,1.51398 -11.30612,4.0993 -12.65625,4.96485 -0.81714,0.52386 -4.74635,1.0254 -9.85351,1.25781 -12.16411,0.55356 -18.00528,2.735 -23.40625,8.74219 -2.92754,3.25612 -5.81446,9.33487 -5.81446,12.24218 0,1.20016 0.49687,0.93753 3.22657,-1.70312 7.86797,-7.61128 12.82029,-10.10494 20.21679,-10.17774 4.48389,-0.0441 5.91235,0.22083 8.1543,1.50391 5.36008,3.0676 10.51774,9.20384 13.57812,16.1582 1.09402,2.48605 1.6319,2.92873 4.36914,3.5918 9.92265,2.40366 18.70777,7.64461 26.81055,15.99414 11.23331,11.57542 19.63303,29.93733 24.31641,53.1582 0.4687,2.32386 0.93034,4.14583 1.02734,4.04883 0.42025,-0.42025 -1.24232,-22.05167 -1.83203,-23.83398 -0.35853,-1.08361 -0.65234,-2.74393 -0.65234,-3.68946 0,-1.74864 -0.20568,-2.50887 -2.79493,-10.31054 -4.44908,-13.40566 -12.74978,-24.68161 -23.61328,-32.07617 -5.63902,-3.83837 -8.91204,-5.41153 -16.74414,-8.05469 -4.51876,-1.52499 -5.38847,-2.04973 -5.14843,-3.10742 0.15884,-0.69987 0.27852,-3.10869 0.26562,-5.35352 -0.0247,-4.30104 -2.22791,-9.87909 -5.17187,-13.08789 -2.13356,-2.3255 -0.69853,-3.23648 4.91992,-3.125 15.47883,0.30715 31.03194,13.21838 45.32031,37.62305 3.89785,6.65756 10.17266,19.41961 10.82422,22.01562 0.5419,2.15908 1.81817,2.38466 1.34765,0.23828 -0.18433,-0.84095 -0.97125,-5.1985 -1.74804,-9.68359 -5.56248,-32.11753 -16.56702,-50.58104 -33.78516,-56.68359 -3.39399,-1.20291 -5.68949,-1.49646 -11.46875,-1.47266 z"
         style="fill:#275ba6;fill-opacity:1;fill-rule:evenodd;stroke-width:1.55096" /><path
         id="path1169"
         d="m -83.988281,193.79688 c -0.162459,-0.0244 -0.277344,0.18288 -0.277344,0.55664 0,0.49834 0.203945,0.70229 0.453125,0.45312 0.24916,-0.24917 0.24916,-0.65708 0,-0.90625 -0.0623,-0.0623 -0.121628,-0.0954 -0.175781,-0.10351 z"
         style="fill:#275ba6;fill-opacity:1;fill-rule:evenodd;stroke-width:1.55096" /><path
         id="path1167"
         d="m -513.40625,185.51953 c -0.18688,0 -0.33984,0.15295 -0.33984,0.33985 0,0.18686 0.15296,0.33984 0.33984,0.33984 0.18688,0 0.33984,-0.15298 0.33984,-0.33984 0,-0.18689 -0.15296,-0.33985 -0.33984,-0.33985 z"
         style="fill:#275ba6;fill-opacity:1;fill-rule:evenodd;stroke-width:1.55096" /><path
         id="path1165"
         d="m -527.76758,185.04102 c -0.42921,0.13995 -1.09318,2.24759 -1.57617,5.58984 -1.00957,6.986 -0.85977,17.12422 0.32031,21.75781 1.6385,6.4336 4.91538,12.25338 9.00196,15.98828 3.9,3.56438 5.58528,4.34096 3.96289,1.82422 -0.54211,-0.84096 -1.49661,-2.90598 -2.11914,-4.58789 -0.62254,-1.68191 -1.37354,-3.67045 -1.66993,-4.41797 -0.29639,-0.74751 -0.9153,-2.73411 -1.375,-4.41601 -0.45971,-1.68191 -1.07288,-3.82343 -1.36328,-4.75782 -0.49883,-1.60497 -1.32921,-5.50969 -2.8164,-13.25 -0.35906,-1.86879 -0.94241,-4.70304 -1.29493,-6.29687 -0.35251,-1.59382 -0.64062,-4.0248 -0.64062,-5.40234 0,-1.49131 -0.17216,-2.11523 -0.42969,-2.03125 z"
         style="fill:#275ba6;fill-opacity:1;fill-rule:evenodd;stroke-width:1.55096" /><path
         id="path1163"
         d="m -512.04688,184.16016 c -0.18686,0 -0.33984,0.15296 -0.33984,0.33984 0,0.18688 0.15298,0.33984 0.33984,0.33984 0.1869,0 0.33985,-0.15296 0.33985,-0.33984 0,-0.18688 -0.15296,-0.33984 -0.33985,-0.33984 z"
         style="fill:#275ba6;fill-opacity:1;fill-rule:evenodd;stroke-width:1.55096" /><path
         id="path1161"
         d="m -464.23047,178.75 c -0.23732,-0.015 -1.00216,0.81397 -1.69922,1.8418 -1.9757,2.91322 -1.75251,14.61761 0.39063,20.55664 5.8546,16.22426 15.83377,29.11824 31.54101,40.74609 7.84575,5.80809 9.1975,7.93073 7.55274,11.86719 -0.58871,1.40898 -2.36874,3.42416 -4.23438,4.79297 -6.01928,4.41629 -11.10571,3.01678 -20.26367,-5.57617 -4.25512,-3.99259 -10.05866,-10.87312 -13.72461,-16.27149 -2.55379,-3.76061 -3.42636,-5.20076 -6.82422,-11.26367 -2.98697,-5.32972 -8.01279,-19.0475 -9.64648,-26.33203 -0.46102,-2.05566 -1.10445,-4.62538 -1.43164,-5.70899 -0.32719,-1.08361 -0.59571,-3.05568 -0.59571,-4.38281 0,-1.92981 -0.17024,-2.24297 -0.8496,-1.56445 -1.17571,1.17426 -1.56896,19.44427 -0.53516,24.86133 0.88763,4.65116 1.9613,8.90265 2.75586,10.91797 0.29472,0.7475 1.23769,3.19496 2.0957,5.4375 4.4311,11.58149 14.09413,25.78046 26.06641,38.30273 6.05264,6.33069 12.62098,11.71303 20.41406,16.72851 7.6964,4.95327 9.17283,6.61494 9.17383,10.32618 6.6e-4,2.25796 -0.36487,3.12777 -1.78906,4.24804 -3.63588,2.85999 -13.25548,1.23104 -24.63086,-4.16992 -10.9768,-5.21172 -23.16122,-15.63671 -29.9375,-25.61523 -7.22681,-10.64195 -12.75145,-23.74576 -16.35743,-38.80078 -0.31333,-1.30815 -0.86958,-3.60264 -1.23632,-5.09766 -0.36673,-1.49503 -1.05521,-4.85831 -1.5293,-7.47461 -0.4741,-2.6163 -1.08491,-5.01838 -1.35938,-5.33789 -0.27447,-0.31951 -0.71902,1.75294 -0.98632,4.60547 -0.95134,10.15223 1.61004,26.274 5.86328,36.91797 0.33603,0.84095 0.87247,2.21764 1.19336,3.05859 2.17055,5.6884 13.53956,25.32056 15.64257,27.01172 0.23238,0.18688 1.78201,1.99531 3.44336,4.01758 3.2768,3.98868 9.76653,10.3602 12.35352,12.1289 0.88821,0.60726 1.7682,1.31248 1.95508,1.56641 0.88683,1.20499 10.65439,7.00118 16.05078,9.52539 10.83581,5.06855 16.28708,6.82026 26.25976,8.43164 3.29479,0.53237 3.61762,-0.29944 2.21485,-5.71289 -1.09099,-4.21025 -1.53664,-11.33251 -0.75781,-12.11133 0.48719,-0.48719 1.31588,0.51075 5.77734,6.95899 1.8102,2.6163 3.9288,5.32806 4.70898,6.02734 2.69377,2.41438 3.0323,5.0581 1.84375,14.42774 -0.51873,4.08927 -0.49851,4.16826 1.53907,5.61914 2.50521,1.78387 3.83586,5.29401 2.91992,7.70312 -0.35424,0.9317 -1.96868,2.79441 -3.58789,4.14063 l -2.94336,2.44922 7.67187,-0.0586 c 8.55044,-0.0645 9.16398,0.22858 10.07032,4.82227 0.33967,1.72159 0.12264,2.84865 -0.74414,3.9082 l 1.18359,1.58789 a 102.5,102.5 0 0 0 -54.10938,90.35742 102.5,102.5 0 0 0 102.5,102.5 102.5,102.5 0 0 0 102.5,-102.5 102.5,102.5 0 0 0 0,-0.0215 l 0.90235,1.49023 c 0.66787,1.1032 0.63369,-2.12476 3.22656,-2.13476 4.42066,-0.0163 8.00616,-1.44275 11.90234,-4.73828 5.07619,-4.29362 5.71489,-5.74404 4.375,-9.92969 -0.7912,-2.4716 -1.07953,-6.39733 -1.11523,-15.22266 -0.0511,-12.62617 0.27619,-14.39115 4.39258,-23.69531 1.74345,-3.94067 2.27316,-5.26288 3.29687,-8.24414 0.44919,-1.30815 1.06587,-2.98882 1.3711,-3.73633 0.30522,-0.74752 0.88645,-2.39944 1.29101,-3.66992 0.9906,-3.11089 0.95815,-23.23908 -0.041,-25.68945 -0.42628,-1.04542 -1.18286,-2.85146 -1.6836,-4.01368 -0.50073,-1.16221 -1.17826,-2.83453 -1.5039,-3.71484 -0.20959,-0.56657 -0.35263,-0.91186 -0.49024,-0.98828 -0.22935,-0.12738 -0.44509,0.49244 -0.93945,2.08203 -2.62111,8.42809 -6.38898,13.64792 -11.85156,16.41602 -3.79688,1.92402 -5.61365,1.93793 -29.64453,0.24023 -10.41878,-0.73606 -21.2299,-0.40899 -28.34571,0.81445 a 102.5,102.5 0 0 0 -57.64258,-17.74414 102.5,102.5 0 0 0 -5.78711,0.16211 l -0.13867,-0.14453 c -2.01305,-2.11478 -4.21048,-4.68506 -4.88086,-5.71289 -1.9477,-2.98619 -4.1235,-2.49473 -8.2832,1.86914 -1.95949,2.05567 -4.1363,3.73633 -4.83789,3.73633 -0.7016,0 -2.54267,0.61185 -4.08984,1.35937 -3.55925,1.71958 -6.94151,1.72563 -10.47266,0.0195 -1.52434,-0.73646 -4.3371,-1.50938 -6.25195,-1.71874 -4.29384,-0.46952 -6.69706,-2.14291 -7.42188,-5.16602 -0.30452,-1.27011 -0.84267,-3.2487 -1.19531,-4.39648 -0.7936,-2.58311 -0.7818,-8.46078 0.0254,-12.52344 0.4012,-2.01928 0.34788,-3.98048 -0.1582,-5.77539 -1.22508,-4.34499 -7.7908,-13.56223 -15.73243,-22.08594 -4.30826,-4.62405 -9.02061,-11.56083 -11.38085,-16.75391 -2.83273,-6.23265 -3.07444,-12.33474 -0.62891,-15.86523 5.91709,-8.54222 9.95115,-11.50938 14.43164,-10.61328 1.11491,0.22298 5.44538,2.0608 9.62305,4.08398 4.17766,2.02318 8.97239,4.28541 10.65429,5.02539 8.56997,3.77048 12.97401,5.56156 16.98828,6.90821 2.42944,0.81498 5.02983,1.74478 5.77735,2.0664 1.5735,0.677 9.31911,3.03643 12.06055,3.67383 4.0899,0.95094 1.31359,-0.86756 -9.53321,-6.24219 -6.24981,-3.0968 -12.58505,-6.33152 -14.08008,-7.18945 -1.49503,-0.85793 -5.16423,-2.88424 -8.15429,-4.50391 -2.99005,-1.61966 -6.5785,-3.66028 -7.97266,-4.5332 -1.39416,-0.87292 -2.71515,-1.58594 -2.93555,-1.58594 -0.22041,0 -1.73357,-0.91779 -3.36328,-2.03906 -1.62971,-1.12127 -3.12611,-2.03906 -3.32617,-2.03906 -0.20006,0 -3.50959,-2.0394 -7.35351,-4.53125 -11.28347,-7.3146 -21.74466,-15.50525 -27.47071,-21.50977 -8.96883,-9.405 -18.74018,-23.83569 -24.36914,-35.99023 -1.49503,-3.2282 -2.91306,-5.88354 -3.15039,-5.89844 z"
         style="fill:#275ba6;fill-opacity:1;fill-rule:evenodd;stroke-width:1.55096" /><path
         id="path1159"
         d="m -148.89844,178.04492 c -16.71792,0 -29.65637,3.70699 -37.42187,10.72266 -4.89234,4.41994 -4.37684,5.0041 1.66015,1.88476 3.07757,-1.59019 6.36054,-3.06553 7.29493,-3.27929 0.93439,-0.21376 3.5348,-0.86099 5.77734,-1.4375 4.55478,-1.17094 21.87745,-1.51175 25.21094,-0.4961 1.08361,0.33015 3.34739,0.97754 5.02929,1.4375 16.21704,4.43498 29.13032,16.97336 39.19532,38.05664 3.442395,7.21085 4.138663,8.74306 5.716793,12.57227 2.14406,5.20239 6.828446,21.97667 8.728516,31.25976 0.459,2.24254 1.100311,5.29991 1.425781,6.79493 0.32548,1.49503 0.760497,3.7895 0.966797,5.09765 1.03484,6.56174 1.842358,12.41447 2.392578,17.32813 0.33482,2.99005 0.648111,5.58851 0.695313,5.77539 0.0472,0.18688 0.39606,-0.42498 0.77539,-1.35938 0.4387,-1.08061 0.559178,-8.12874 0.330078,-19.36718 -0.42556,-20.87542 -1.001424,-25.82746 -5.052734,-43.49024 -0.34292,-1.49503 -1.625943,-5.62314 -2.851563,-9.17383 -5.60915,-16.24996 -12.399369,-27.47268 -22.205079,-36.69726 -6.29011,-5.91732 -7.13748,-6.55339 -12.72851,-9.56055 -7.88025,-4.23841 -15.40161,-6.06836 -24.93946,-6.06836 z"
         style="fill:#275ba6;fill-opacity:1;fill-rule:evenodd;stroke-width:1.55096" /><path
         id="path1157"
         d="m -113.82617,168.53125 c -0.18688,0 -0.33985,0.15296 -0.33985,0.33984 0,0.18687 0.15297,0.33789 0.33985,0.33789 0.18688,0 0.33984,-0.15102 0.33984,-0.33789 0,-0.18688 -0.15296,-0.33984 -0.33984,-0.33984 z"
         style="fill:#275ba6;fill-opacity:1;fill-rule:evenodd;stroke-width:1.55096" /><path
         id="path1155"
         d="m -510.13867,154.02344 c -0.4065,0.10574 -1.19302,1.87446 -2.44727,5.33203 -0.94907,2.6163 -3.12658,8.3969 -4.83984,12.8457 -1.71327,4.44882 -3.11524,8.19646 -3.11524,8.32617 0,1.58488 5.29378,-4.58828 7.08399,-8.25976 2.28988,-4.69622 2.95508,-7.29081 3.48242,-13.58985 0.26798,-3.201 0.24244,-4.76004 -0.16406,-4.65429 z"
         style="fill:#275ba6;fill-opacity:1;fill-rule:evenodd;stroke-width:1.55096" /><path
         id="path1153"
         d="m -157.66797,145.44922 c -2.50475,0.0406 -4.69114,0.22796 -5.83398,0.57617 -1.0836,0.33014 -3.34739,1.01195 -5.0293,1.51367 -11.58383,3.45552 -25.35613,14.02859 -37.52344,28.80664 -5.56381,6.75764 -8.00586,10.08011 -8.00586,10.89063 0,0.2679 2.06825,-1.4625 4.59766,-3.84375 15.1224,-14.23663 35.49147,-25.61879 50.82031,-28.39844 4.7484,-0.86105 13.70789,-1.06469 17.63672,-0.40039 7.97829,1.34902 14.16712,4.14498 21.43164,9.67969 4.45895,3.39719 4.76548,3.53499 3.1582,1.42773 -5.95658,-7.80948 -19.56541,-16.73732 -29.42968,-19.30664 -2.58937,-0.67444 -7.64769,-1.01295 -11.82227,-0.94531 z"
         style="fill:#275ba6;fill-opacity:1;fill-rule:evenodd;stroke-width:1.55096" /><path
         id="path1151"
         d="m -481.88477,132.22852 c -0.32229,-0.0734 -1.72806,0.50369 -3.40429,1.41601 -4.6685,2.54092 -10.69629,9.37022 -13.78711,15.62109 -2.48471,5.02509 -7.875,20.44035 -7.875,22.52149 0,1.52365 -1.33556,5.51061 -2.81055,8.38867 -0.69649,1.35905 -1.26562,2.7308 -1.26562,3.04883 0,1.18709 5.45029,-7.0528 7.69726,-11.63672 1.28247,-2.6163 3.15272,-7.50924 4.15625,-10.87305 3.92571,-13.159 7.07787,-18.85391 13.61133,-24.58398 2.05582,-1.80302 3.74109,-3.52644 3.74609,-3.83008 5.9e-4,-0.038 -0.0223,-0.0618 -0.0684,-0.0723 z"
         style="fill:#275ba6;fill-opacity:1;fill-rule:evenodd;stroke-width:1.55096" /><path
         id="path1149"
         d="m -480.10742,131.1543 c -0.18688,0 -0.33985,0.15296 -0.33985,0.33984 0,0.18687 0.15297,0.33984 0.33985,0.33984 0.18687,0 0.33984,-0.15297 0.33984,-0.33984 0,-0.18688 -0.15297,-0.33984 -0.33984,-0.33984 z"
         style="fill:#275ba6;fill-opacity:1;fill-rule:evenodd;stroke-width:1.55096" /><path
         id="path1147"
         d="m -439.93164,115.01562 c -0.66497,-0.0331 -1.20844,4.51017 -1.21094,12.40235 -0.003,9.06826 0.30358,11.22754 2.71485,19.11328 1.75665,5.74491 7.3806,14.7313 12.59961,20.13086 1.71598,1.77535 3.29278,3.22656 3.5039,3.22656 0.21112,0 -0.50252,-1.29825 -1.58594,-2.88672 -3.76339,-5.51768 -9.25791,-19.00164 -11.14648,-27.35351 -2.30493,-10.19313 -3.08276,-14.33126 -3.63867,-19.36719 -0.39509,-3.57898 -0.83735,-5.24572 -1.23633,-5.26563 z"
         style="fill:#275ba6;fill-opacity:1;fill-rule:evenodd;stroke-width:1.55096" /><path
         id="path1145"
         d="m -160.36328,111.66406 c -0.70343,-0.01 -1.40779,-0.008 -2.11524,0.006 -4.71633,0.0916 -9.57303,0.71596 -15.22656,1.91602 -17.96528,3.81341 -33.23916,15.59641 -43.60156,33.63672 -1.25696,2.18829 -2.60677,4.73919 -3,5.66796 -0.39323,0.92878 -1.18517,2.76243 -1.75977,4.07618 -1.81068,4.13991 -2.14392,5.00892 -3.52148,9.18554 -1.7097,5.18362 -3.23375,11.60325 -4.19531,17.66797 -0.41481,2.6163 -1.03959,6.41294 -1.38868,8.4375 -0.34907,2.02456 -0.60275,4.62497 -0.56445,5.77735 l 0.0684,2.09375 0.52344,-2.03711 c 0.2876,-1.12127 1.65652,-5.09642 3.04297,-8.83399 1.38644,-3.73757 2.70391,-7.40874 2.92773,-8.15625 0.87518,-2.92297 10.48141,-20.97165 13.69922,-25.74023 3.54379,-5.25168 9.93694,-13.12993 13.0293,-16.05274 11.81726,-11.16936 21.51611,-16.14995 35.80859,-18.39453 6.42357,-1.0088 14.51074,-0.22998 22.85352,2.20117 22.84504,6.65722 42.44402,28.0693 55.873044,61.04493 3.98701,9.79027 3.849099,6.98157 -0.332032,-6.79493 -2.733519,-9.00673 -4.142561,-12.65407 -8.138671,-21.0664 -9.798541,-20.62725 -26.553421,-36.54094 -43.607421,-41.41602 -1.68191,-0.48079 -3.82341,-1.12072 -4.75781,-1.42187 -0.93439,-0.30115 -5.09754,-0.92766 -9.25196,-1.39063 -2.15294,-0.23992 -4.25495,-0.37634 -6.36523,-0.40625 z"
         style="fill:#275ba6;fill-opacity:1;fill-rule:evenodd;stroke-width:1.55096" /><path
         id="path1143"
         d="m -179.7168,95.560547 c -9.88313,0.109079 -19.74314,1.819256 -27.20898,4.951173 -16.47536,6.91141 -29.34516,18.36578 -37.48438,33.36133 -8.02643,14.78775 -11.58306,37.69306 -8.9082,57.37695 0.46055,3.38912 0.91225,5.24432 1.00195,4.12305 1.20905,-15.11431 3.57322,-28.76361 6.69336,-38.64063 5.39497,-17.07808 15.12428,-31.66153 26.125,-39.15625 16.2207,-11.05105 41.63702,-17.0711 63.3711,-15.00976 4.95145,0.46961 9.88905,1.13206 10.97265,1.4707 1.08361,0.33864 2.76622,0.60279 3.73828,0.58789 l 1.76758,-0.0273 -1.69922,-0.91407 c -3.24631,-1.74514 -13.97248,-5.079995 -21.0664,-6.550778 -5.43352,-1.126526 -11.37286,-1.637713 -17.30274,-1.572265 z"
         style="fill:#275ba6;fill-opacity:1;fill-rule:evenodd;stroke-width:1.55096" /><path
         id="path1141"
         d="m -198.46289,81.695312 c -8.30321,-0.06223 -23.36575,0.810376 -29.5293,1.931641 -12.60799,2.293631 -18.34481,4.018313 -27.42969,8.251953 -7.15914,3.336222 -11.70124,6.565541 -17.41992,12.382814 -10.75507,10.94049 -14.45559,22.34391 -13.70312,42.24023 0.41612,11.00266 1.41592,18.45971 3.8164,28.48438 0.35799,1.49503 0.84051,3.63459 1.07227,4.75586 0.23175,1.12127 0.66966,2.65092 0.97266,3.39843 0.303,0.74753 0.92773,2.73606 1.38867,4.41797 1.79569,6.55231 7.89806,24.42597 9.97656,29.22071 0.56708,1.30814 1.27582,2.99077 1.57422,3.73828 0.2984,0.74752 1.18399,2.80686 1.96875,4.57812 0.78476,1.77128 1.42773,3.339 1.42773,3.48242 0,0.14346 0.63728,1.70047 1.41602,3.46094 1.97315,4.46065 2.40697,3.3652 0.71094,-1.79492 -0.77564,-2.35986 -1.90451,-6.1266 -2.50782,-8.36914 -0.60332,-2.24254 -1.39549,-5.14693 -1.76171,-6.45508 -0.36622,-1.30815 -0.96605,-3.60067 -1.33204,-5.0957 -0.366,-1.49502 -0.97202,-3.94247 -1.34765,-5.4375 -0.37562,-1.49503 -0.97166,-4.09349 -1.32422,-5.77539 -0.35256,-1.68191 -0.94967,-4.43529 -1.32617,-6.11719 -0.60993,-2.72467 -2.70779,-14.69217 -3.69336,-21.06641 -1.03009,-6.66219 -1.79828,-22.99632 -1.40625,-29.90039 1.13279,-19.94954 6.48805,-29.95603 21.48828,-40.14843 8.93502,-6.071198 18.00251,-9.784423 36.27344,-14.857426 1.12127,-0.311319 4.02761,-0.926548 6.45703,-1.367187 2.42942,-0.440639 5.63973,-1.064595 7.13476,-1.386719 1.49503,-0.322124 5.30645,-0.805827 8.47071,-1.074219 4.53321,-0.384501 5.40461,-0.618298 4.10351,-1.099609 -0.68603,-0.253781 -2.70297,-0.377694 -5.4707,-0.398438 z"
         style="fill:#275ba6;fill-opacity:1;fill-rule:evenodd;stroke-width:1.55096" /><path
         id="path1139"
         d="m -425.08984,69.994141 c -0.77603,0 -7.46391,5.782384 -14.14454,12.228515 -17.50406,16.889735 -26.49911,32.604144 -29.60937,51.728514 -1.19249,7.33241 -0.69031,13.78789 1.8457,23.73242 1.56563,6.13932 8.0195,17.52618 13.47657,23.77735 8.96653,10.27132 22.58407,20.34994 36.64453,27.12304 13.90593,6.69867 19.85814,9.69524 23.07226,11.61329 1.86879,1.11521 4.57749,2.66056 6.01953,3.43359 4.31759,2.31454 31.27994,20.39438 32.37696,21.71094 0.18688,0.22428 1.71457,1.36539 3.39648,2.53515 1.68191,1.16976 5.50408,4.11062 8.49414,6.53516 2.99005,2.42453 5.53541,4.42802 5.6543,4.45312 1.00541,0.21287 -3.79702,-5.02595 -8.9043,-9.71484 -14.97868,-13.7516 -25.00148,-21.05178 -55.63086,-40.51758 -24.68307,-15.68676 -41.44027,-31.94322 -49.46875,-47.99414 -1.51694,-3.03274 -2.75781,-5.8673 -2.75781,-6.29687 0,-0.42958 -0.27646,-1.31193 -0.61523,-1.96094 -1.03464,-1.98212 -1.96793,-6.30014 -2.8418,-13.1582 -2.28053,-17.89743 5.40772,-34.78355 29.12109,-63.960941 2.35416,-2.896616 4.09647,-5.267578 3.8711,-5.267578 z"
         style="fill:#275ba6;fill-opacity:1;fill-rule:evenodd;stroke-width:1.55096" /><path
         id="path1137"
         d="m -225.99805,67.351562 c -4.53326,-0.09837 -13.64591,1.438534 -22.7207,3.832032 -2.05567,0.542186 -4.42891,1.143658 -5.27539,1.33789 -0.84648,0.194224 -1.70674,0.622042 -1.91016,0.951172 -0.20341,0.329131 -0.82429,0.59961 -1.38086,0.59961 -1.82982,0 -13.60366,5.901779 -18.89257,9.470703 -9.20461,6.211201 -18.63964,16.935481 -23.35352,26.544921 -6.69066,13.63907 -9.08516,32.31294 -6.62305,51.64649 2.77412,21.78358 6.79259,36.31005 17.16016,62.02734 2.07539,5.14813 3.91011,9.2227 4.07812,9.05469 0.16802,-0.16802 -0.51664,-2.85156 -1.52148,-5.96289 -1.00485,-3.11133 -2.07221,-6.57405 -2.37305,-7.69532 -1.916,-7.14121 -6.0402,-23.76071 -6.74609,-27.18359 -0.46247,-2.24254 -1.09926,-5.29989 -1.41406,-6.79492 -0.31481,-1.49503 -0.9075,-4.93445 -1.31836,-7.64258 -0.41086,-2.70813 -1.10203,-6.98921 -1.53516,-9.51367 -1.08169,-6.30472 -1.028,-32.75742 0.0762,-37.54883 3.3086,-14.35722 7.32179,-21.78769 17.45508,-32.320313 12.12362,-12.601384 33.22418,-23.925733 54.98047,-29.507813 l 4.75781,-1.220703 z"
         style="fill:#275ba6;fill-opacity:1;fill-rule:evenodd;stroke-width:1.55096" /><path
         id="path1135"
         d="m -300.22266,59.904297 c -0.26894,-0.134428 -2.55545,1.020831 -6.3789,3.367187 -27.96004,17.158374 -45.05548,35.059471 -50.65039,53.033206 -1.41424,4.54328 -1.56583,16.51583 -0.26953,21.30664 6.16521,22.78526 17.83274,43.85786 47.2207,85.2832 2.51893,3.55069 6.01449,8.67159 7.76758,11.37891 1.75309,2.70733 3.27625,4.65708 3.38476,4.33398 0.26796,-0.79793 -12.45369,-25.61886 -20.59179,-40.17578 -1.56712,-2.80318 -3.61624,-6.47434 -4.55274,-8.15625 -0.93651,-1.6819 -2.31958,-4.1274 -3.07422,-5.43555 -0.75464,-1.30815 -2.4321,-4.21253 -3.72656,-6.45507 -1.29446,-2.24254 -3.36723,-5.76075 -4.60547,-7.81641 -6.13727,-10.18872 -8.95994,-17.23277 -10.54297,-26.31055 -2.83101,-16.23419 0.3589,-32.25263 9.44336,-47.419919 6.51752,-10.881579 20.59563,-25.344167 33.31836,-34.228516 2.45552,-1.714702 3.46699,-2.600523 3.25781,-2.705078 z"
         style="fill:#275ba6;fill-opacity:1;fill-rule:evenodd;stroke-width:1.55096" /><path
         id="path1133"
         d="m -298.32617,58.482422 c -0.16423,0 -0.32854,0.06096 -0.45313,0.185547 -0.24916,0.249172 -0.0452,0.453125 0.45313,0.453125 0.49834,0 0.70229,-0.203953 0.45312,-0.453125 -0.12458,-0.124586 -0.2889,-0.185547 -0.45312,-0.185547 z"
         style="fill:#275ba6;fill-opacity:1;fill-rule:evenodd;stroke-width:1.55096" /><path
         id="path1131"
         d="m -296.62695,57.082031 c -0.18688,0 -0.33985,0.152965 -0.33985,0.339844 0,0.186878 0.15297,0.339844 0.33985,0.339844 0.18688,0 0.33984,-0.152966 0.33984,-0.339844 0,-0.186879 -0.15296,-0.339844 -0.33984,-0.339844 z"
         style="fill:#275ba6;fill-opacity:1;fill-rule:evenodd;stroke-width:1.55096" /><path
         id="path1129"
         d="m -245.32031,55.773438 c -4.47384,-0.08506 -17.84616,1.794998 -23.44531,3.296874 -5.27144,1.413971 -8.26711,2.28996 -9.51368,2.779297 -0.74751,0.293436 -2.43014,0.921101 -3.73828,1.396485 -1.30815,0.475384 -4.51847,1.923782 -7.13476,3.21875 -15.75938,7.80029 -26.43965,19.482856 -32.73828,35.808596 -2.50827,6.50129 -4.04278,12.01145 -5.77149,20.72656 -1.08382,5.46373 -1.13945,28.85516 -0.0801,33.63867 0.41385,1.86879 1.13012,5.23207 1.5918,7.47461 2.09934,10.19732 5.91054,20.44217 12.07031,32.44141 2.44401,4.76095 4.5702,8.52942 4.72461,8.375 0.15441,-0.15441 -0.31709,-2.06117 -1.04883,-4.23828 -0.73173,-2.17711 -1.67174,-5.18271 -2.08789,-6.67774 -0.41615,-1.49503 -1.3614,-4.85831 -2.10156,-7.47461 -1.55742,-5.50512 -4.31639,-19.76499 -5.48633,-28.35742 -1.35576,-9.95699 -0.99622,-30.20073 0.6836,-38.48047 1.79307,-8.83802 2.82413,-11.93158 6.34375,-19.02929 4.76975,-9.618771 13.4173,-18.964719 24.58984,-26.576177 4.69404,-3.197884 19.74124,-10.896484 21.29687,-10.896484 0.43866,0 1.32756,-0.292334 1.97657,-0.648438 1.94634,-1.067946 9.00238,-3.250723 14.43164,-4.464843 8.02604,-1.794825 9.08274,-2.243201 5.4375,-2.3125 z"
         style="fill:#275ba6;fill-opacity:1;fill-rule:evenodd;stroke-width:1.55096" /><path
         id="path1127"
         d="m -374.26367,52.449219 c -1.4718,0.27107 -11.35208,4.475814 -14.27344,6.113281 -1.21471,0.680862 -3.35622,1.883959 -4.75781,2.671875 -10.83839,6.092899 -22.40123,17.332587 -27.73242,26.957031 -5.05716,9.129754 -7.77298,22.460514 -6.47657,31.800784 1.26055,9.08188 2.96559,16.08995 5.44336,22.375 3.47047,8.80313 11.38263,22.76578 17.27735,30.48828 9.38488,12.29486 13.44805,16.3917 40.85742,41.20508 1.85787,1.68191 5.36273,4.89222 7.78906,7.13476 2.42634,2.24254 4.76574,4.38405 5.19727,4.75781 0.43153,0.37376 4.2644,3.90956 8.51953,7.85743 4.25513,3.94787 8.96005,8.29795 10.45508,9.66601 1.49503,1.36805 2.80986,2.49576 2.92187,2.50586 1.28171,0.11572 -9.83949,-11.8434 -33.16211,-35.66015 -19.31953,-19.72884 -20.46252,-20.96874 -27.26758,-29.56055 -15.91732,-20.0966 -26.1588,-40.41612 -28.52343,-56.58789 -0.96611,-6.60729 -0.44437,-17.09904 1.10547,-22.24024 4.7873,-15.880738 18.69244,-32.601516 38.16796,-45.896481 2.68813,-1.835055 4.77439,-3.450211 4.63672,-3.58789 -0.0188,-0.01882 -0.0796,-0.01807 -0.17773,0 z"
         style="fill:#275ba6;fill-opacity:1;fill-rule:evenodd;stroke-width:1.55096" /><path
         id="path1125"
         d="m -328.00781,49.222656 c -2.69501,0.260597 -20.91883,5.805195 -23.48438,7.212891 -0.649,0.356104 -1.47897,0.646484 -1.84375,0.646484 -1.54799,0 -17.85082,8.237388 -23.42187,11.833985 -6.51052,4.203107 -17.01296,14.162518 -19.05469,18.068359 -5.1954,9.938856 -6.6328,15.055755 -7.54102,26.841795 -1.56969,20.36988 7.77838,40.63034 30.5879,66.28711 1.50996,1.69846 3.79176,4.29692 5.07031,5.77539 1.27854,1.47848 3.87895,4.37074 5.77734,6.42774 1.89838,2.05699 4.52193,4.9881 5.83008,6.51171 1.30815,1.52363 4.41023,5.03928 6.89453,7.8125 3.9353,4.39299 14.21818,16.11024 23.54688,26.83008 1.60637,1.84593 7.57006,8.7725 13.25195,15.39258 5.68188,6.62007 10.54343,12.04645 10.80273,12.06055 0.59214,0.0322 -1.71743,-5.25181 -4.4414,-10.16602 -3.68005,-6.63906 -15.62037,-24.15487 -21.31055,-31.25976 -0.44901,-0.56064 -3.3369,-4.2318 -6.41797,-8.15625 -4.73657,-6.03311 -8.02007,-10.02523 -18.15039,-22.08399 -2.60404,-3.09977 -10.35041,-12.11377 -16.10547,-18.74023 -9.15236,-10.53813 -10.12217,-12.43045 -11.44726,-22.32031 -0.73428,-5.48039 -0.10823,-15.94119 1.26367,-21.11915 0.24757,-0.93438 0.7737,-3.0759 1.16797,-4.75781 1.84348,-7.86412 7.13862,-21.92103 10.8164,-28.710935 1.98098,-3.657266 0.78501,-3.080216 -3.02734,1.460937 -7.68592,9.155238 -14.34215,21.223988 -18.88281,34.234378 -0.87693,2.51267 -1.94573,4.56836 -2.375,4.56836 -1.02412,0 -3.84898,-5.45719 -5.625,-10.86719 -1.5991,-4.87113 -1.91604,-13.63567 -0.63672,-17.62695 1.79069,-5.586722 5.39613,-12.261988 9.20117,-17.037113 5.78509,-7.25997 11.05257,-11.837207 22.26562,-19.341797 10.16414,-6.802585 23.66162,-13.786138 36.31446,-18.789062 0.89279,-0.35301 1.47642,-0.787241 1.29687,-0.966797 -0.0324,-0.03239 -0.1426,-0.03886 -0.32226,-0.02148 z"
         style="fill:#275ba6;fill-opacity:1;fill-rule:evenodd;stroke-width:1.55096" /><path
         id="path1113"
         d="m -325.50781,48.289062 c -0.16423,0 -0.32854,0.06096 -0.45313,0.185547 -0.24916,0.249171 -0.0452,0.453125 0.45313,0.453125 0.49834,0 0.70229,-0.203954 0.45312,-0.453125 -0.12458,-0.124585 -0.2889,-0.185547 -0.45312,-0.185547 z"
         style="fill:#275ba6;fill-opacity:1;fill-rule:evenodd;stroke-width:1.55096" /></g><g
       id="g1117"><path
         sodipodi:nodetypes="ssssssccccssss"
         id="path968"
         d="m -228.00948,391.45916 c 0.57023,-1.10271 1.03678,-2.65307 1.03678,-3.44524 0,-0.79217 0.91741,-2.77371 2.03868,-4.40342 1.74171,-2.53149 2.03867,-3.59366 2.03867,-7.29178 0,-5.19798 -0.6285,-6.05178 -3.80851,-5.17374 -2.73486,0.75514 -19.0648,0.40966 -30.16939,-0.63826 -9.06672,-0.8556 -27.44475,-0.25124 -27.44475,0.98548 l 7.894,7.70117 h 22.89703 18.89703 l 1.49132,4.24724 c 0.82023,2.33598 1.75938,4.85884 2.08702,5.60635 0.32763,0.74752 0.78842,2.04717 1.02398,2.88812 0.55539,1.98282 0.77323,1.93146 2.01814,-0.47592 z"
         style="fill:#ffffff;stroke-width:0.679558" /><path
         sodipodi:nodetypes="sssssssssccs"
         id="path964"
         d="m -240.79981,441.71271 c 2.21246,-1.94257 2.61058,-2.03868 8.44518,-2.03868 5.6736,0 6.25182,-0.12855 7.87383,-1.75056 1.87365,-1.87364 1.88097,-2.15481 0.28194,-10.82126 -0.34481,-1.86878 -0.90746,-5.16769 -1.25034,-7.3309 -0.34288,-2.16321 -0.95218,-4.26188 -1.35402,-4.66371 -1.00523,-1.00523 -2.20815,-0.11932 -2.20815,1.62621 0,2.05637 -2.64494,9.24878 -4.46173,12.1328 -1.55866,2.47429 -4.37646,3.71507 -9.46921,4.16965 -1.12127,0.10009 -3.98056,0.41313 -3.90954,0.69566 l 1.39797,10.01946 c 0.18268,0 3.37702,-0.9174 4.65407,-2.03867 z"
         style="fill:#ffffff;stroke-width:0.679558" /></g><g
       id="g1860"
       transform="matrix(0.76936027,0,0,0.76936027,-217.37222,176.93856)"><path
         id="path1645"
         d="m -161.10601,227.34757 c 69.023221,0 124.999661,55.97588 124.999661,124.99993 0,69.02337 -55.97644,125.00007 -124.999661,125.00007 -69.0239,0 -125.00034,-55.9767 -125.00034,-125.00007 0,-69.02405 55.97644,-124.99993 125.00034,-124.99993 z"
         style="fill:#231f20;fill-opacity:1;fill-rule:evenodd;stroke:none;stroke-width:0.0690856" /><g
         id="g1846"><path
           style="fill:#ffffff;fill-opacity:1;fill-rule:evenodd;stroke:none;stroke-width:0.0690856"
           d="m -251.6431,271.11326 0.39309,8.84986 c 9.63534,-7.76521 20.86725,-11.37217 32.34371,-13.0164 10.57283,-11.45784 23.91252,-19.51943 38.64983,-24.52675 0.99136,-3.3845 1.85701,-7.064 2.64527,-10.60809 -29.26802,3.97242 -55.22617,18.35949 -74.0319,39.30138"
           id="path1834" /><path
           style="fill:#ffffff;fill-opacity:1;fill-rule:evenodd;stroke:none;stroke-width:0.0690856"
           d="m -129.04624,290.76603 -4.6529,-35.67232 c -12.65437,-8.46643 -26.94192,-11.46751 -42.76662,-10.3877 l -0.0684,0.0214 c -16.05613,4.99143 -30.54334,13.61261 -41.597,26.36857 -3.52543,12.0126 -3.8674,24.55715 1.88396,37.08789 15.21606,-1.52472 32.2083,0.84559 45.67857,8.38628 13.60499,-7.18283 27.67354,-15.74666 41.52239,-25.80413 z"
           id="path1832" /><path
           style="fill:#ffffff;fill-opacity:1;fill-rule:evenodd;stroke:none;stroke-width:0.0690856"
           d="m -84.05783,321.87732 27.947801,-4.86086 c 3.26567,-8.18179 2.73648,-16.16325 1.24907,-23.94573 -10.39805,-18.59507 -25.534651,-34.18215 -43.774581,-45.12392 -11.05228,-2.78346 -23.1816,-2.61627 -31.83524,6.0291 l 4.80766,36.85714 c 10.3932,7.10959 29.80412,19.98092 41.60529,31.04427 z"
           id="path1830" /><path
           style="fill:#ffffff;fill-opacity:1;fill-rule:evenodd;stroke:none;stroke-width:0.0690856"
           d="m -102.17893,371.58713 c 8.08852,10.96734 14.31104,24.1682 17.06478,37.59083 17.986391,0.11814 29.289441,-4.12302 36.684351,-10.91344 5.78313,-14.17013 8.97765,-29.67017 8.97765,-45.91702 0,-4.01249 -0.20035,-7.978 -0.58032,-11.891 -2.43733,-6.11822 -6.39593,-13.53248 -14.98601,-20.23378 l -27.891151,4.8505 c -4.34892,13.94492 -12.53554,34.85365 -19.2693,46.51391 z"
           id="path1828" /><path
           style="fill:#ffffff;fill-opacity:1;fill-rule:evenodd;stroke:none;stroke-width:0.0690856"
           d="m -188.36227,405.04595 31.32194,-34.42809 c -3.83631,-18.91286 -8.70545,-34.65331 -14.26821,-50.61759 -13.66025,-7.99804 -31.47323,-10.20463 -46.87789,-8.2274 l -1.08188,0.13886 c -11.66368,7.37212 -21.62994,17.83098 -29.05662,32.05155 -1.34717,9.33622 -0.41175,19.07452 2.47671,28.03768 2.57758,7.99941 6.97832,16.10315 13.18495,21.86834 l 1.15787,1.07635 c 11.882,8.15416 26.79477,9.50547 43.14313,10.1003 z"
           id="path1826" /><path
           style="fill:#ffffff;fill-opacity:1;fill-rule:evenodd;stroke:none;stroke-width:0.0690856"
           d="m -282.33222,342.1028 c 2.56445,-4.78901 5.86397,-9.16212 9.78802,-13.01157 0.75511,-12.72832 7.0329,-31.41595 18.09485,-45.77331 l -0.37859,-8.51342 c -15.40052,18.58747 -25.37852,41.82716 -27.50428,67.2983 z"
           id="path1824" /><path
           style="fill:#ffffff;fill-opacity:1;fill-rule:evenodd;stroke:none;stroke-width:0.0690856"
           d="m -272.16215,402.06353 c 7.4018,11.60775 16.36286,20.14811 29.52226,24.17234 -1.67256,-11.76803 -0.10916,-22.93018 4.28606,-33.48783 -4.85879,-5.6968 -8.42152,-12.71658 -10.67854,-19.72116 -2.71505,-8.42498 -3.78795,-17.49039 -2.98103,-26.33127 -5.94273,-3.82457 -12.76836,-8.06988 -19.23131,-14.16253 -5.22285,5.42252 -9.17038,11.87373 -11.511,19.0455 -0.002,0.25631 -0.005,0.51192 -0.005,0.76892 0,17.71077 3.79003,34.53656 10.59839,49.71603 z"
           id="path1822" /><path
           style="fill:#ffffff;fill-opacity:1;fill-rule:evenodd;stroke:none;stroke-width:0.0690856"
           d="m -196.46045,468.77695 c -2.9085,-3.33012 -5.14134,-7.26427 -6.90717,-11.32574 l -0.0573,-0.13168 c -11.05297,-4.80953 -21.93877,-9.2556 -36.8695,-26.98067 -8.44845,-2.05874 -16.45407,-6.27227 -23.0455,-12.04507 15.45233,23.90305 39.05881,42.04257 66.8795,50.48316 z"
           id="path1820" /><path
           style="fill:#ffffff;fill-opacity:1;fill-rule:evenodd;stroke:none;stroke-width:0.0690856"
           d="m -117.93869,448.81123 c -15.06407,3.59107 -35.42077,3.95108 -49.61022,-0.82039 -10.57559,5.8215 -21.15049,9.40724 -31.7247,10.34957 2.33923,4.77823 5.48054,9.27425 9.85986,12.34393 9.08404,2.16645 18.56049,3.31749 28.30774,3.31749 18.79953,0 36.60282,-4.27011 52.4973,-11.88762 -2.7641,-4.99302 -6.01595,-9.66307 -9.32998,-13.30298 z"
           id="path1818" /><path
           style="fill:#ffffff;fill-opacity:1;fill-rule:evenodd;stroke:none;stroke-width:0.0690856"
           d="m -167.73337,444.37787 c 14.67374,5.43697 37.46985,4.64304 52.49661,0.26066 12.0022,-8.21655 20.72354,-19.71252 27.08631,-33.56763 -2.5603,-13.58083 -8.87747,-27.02074 -17.11591,-38.02813 -16.0354,-0.32678 -32.71953,-0.43662 -48.76668,-0.75857 l -31.72056,34.86541 c 1.133,11.95525 5.2726,24.65456 18.02023,37.22826 z"
           id="path1816" /></g></g></g><g
     style="fill:#ffffff"
     transform="translate(4.7e-4)"
     id="g1516"><path
       id="path1434"
       style="font-style:normal;font-variant:normal;font-weight:bold;font-stretch:normal;font-size:52px;line-height:1.25;font-family:Arial;-inkscape-font-specification:'Arial Bold';letter-spacing:5px;white-space:pre;fill:#ffffff"
       d="m 338.20297,587.72603 7.4558,1.68871 q -1.15669,6.21322 -4.8028,9.50264 -3.62295,3.26198 -9.59386,3.76657 -7.38773,0.62432 -12.56969,-4.00851 -5.1841,-4.65813 -5.92388,-13.41208 -0.78254,-9.25996 3.56735,-14.77475 4.34775,-5.54009 12.14029,-6.19862 6.80582,-0.57515 11.39625,3.08843 2.73102,2.16443 4.37235,6.5104 l -7.26336,2.39749 q -0.90156,-2.82866 -3.14261,-4.32103 -2.21575,-1.4945 -5.2012,-1.24221 -4.12397,0.34851 -6.45446,3.52675 -2.30519,3.1761 -1.74501,9.80481 0.59439,7.03353 3.37673,9.80517 2.78233,2.77164 6.8304,2.42955 2.98546,-0.2523 4.97564,-2.33157 1.99018,-2.07927 2.58206,-6.23175 z" /><path
       id="path1436"
       style="font-style:normal;font-variant:normal;font-weight:bold;font-stretch:normal;font-size:52px;line-height:1.25;font-family:Arial;-inkscape-font-specification:'Arial Bold';letter-spacing:5px;white-space:pre;fill:#ffffff"
       d="m 358.15206,598.71225 -7.97268,-36.04682 7.33828,-1.62305 6.61831,29.92332 18.24653,-4.03568 1.35437,6.12349 z" /><path
       id="path1438"
       style="font-style:normal;font-variant:normal;font-weight:bold;font-stretch:normal;font-size:52px;line-height:1.25;font-family:Arial;-inkscape-font-specification:'Arial Bold';letter-spacing:5px;white-space:pre;fill:#ffffff"
       d="m 380.90396,555.24026 7.05739,-2.58417 6.93185,18.93096 q 1.65003,4.50624 2.40119,5.74539 1.23874,1.97995 3.41172,2.67143 2.1881,0.65892 5.14457,-0.42364 3.00416,-1.10001 4.08484,-2.87472 1.07194,-1.79855 0.72712,-3.70023 -0.34482,-1.90169 -1.86389,-6.05029 l -7.08027,-19.33628 7.05739,-2.58417 6.72233,18.35874 q 2.30479,6.29443 2.68417,9.10279 0.37939,2.80836 -0.51561,5.16402 -0.87114,2.34693 -3.05327,4.36271 -2.19086,1.99195 -6.33946,3.51102 -5.00693,1.83336 -8.02482,1.64052 -3.00278,-0.22541 -5.17709,-1.51128 -2.18304,-1.3097 -3.40197,-3.16171 -1.79145,-2.75098 -3.9391,-8.61624 z" /><path
       id="path1440"
       style="font-style:normal;font-variant:normal;font-weight:bold;font-stretch:normal;font-size:52px;line-height:1.25;font-family:Arial;-inkscape-font-specification:'Arial Bold';letter-spacing:5px;white-space:pre;fill:#ffffff"
       d="m 415.80372,541.90286 13.10006,-7.05481 q 3.88978,-2.09477 5.97054,-2.78275 2.09108,-0.72238 4.14266,-0.50065 2.07394,0.20968 4.00691,1.38927 1.92094,1.15723 3.06463,3.28096 1.24001,2.30257 1.02347,4.89929 -0.19418,2.58467 -1.80023,4.68964 3.46509,-0.74137 6.20631,0.4932 2.74123,1.23457 4.27017,4.07367 1.20389,2.2355 1.2969,4.92506 0.10333,2.65517 -1.02122,4.90456 -1.11422,2.21499 -3.59561,3.9262 -1.55796,1.06972 -7.86036,4.52144 l -11.15517,6.00742 z m 9.55459,1.89111 4.0812,7.57836 4.33688,-2.33555 q 3.86742,-2.08273 4.74614,-2.70014 1.59063,-1.11615 2.03423,-2.59509 0.45391,-1.51334 -0.40086,-3.10055 -0.81864,-1.52014 -2.17377,-2.00157 -1.34481,-0.51583 -3.10744,0.17385 -1.04381,0.41794 -5.71602,2.93408 z m 7.01869,13.033 4.71926,8.76318 6.12528,-3.29867 q 3.57681,-1.92622 4.42973,-2.64509 1.33096,-1.06283 1.69373,-2.58476 0.37308,-1.55632 -0.56595,-3.30002 -0.79457,-1.47543 -2.06372,-2.11852 -1.26915,-0.64308 -2.88563,-0.37817 -1.59412,0.25288 -6.10984,2.68475 z" /><path
       id="path1442"
       style="font-style:normal;font-variant:normal;font-weight:bold;font-stretch:normal;font-size:52px;line-height:1.25;font-family:Arial;-inkscape-font-specification:'Arial Bold';letter-spacing:5px;white-space:pre;fill:#ffffff"
       d="m 510.5537,522.0664 -6.27501,5.24096 -7.91441,-4.40601 -11.41974,9.53789 3.06199,8.4588 -6.11911,5.11075 -12.73358,-37.86259 6.09962,-5.09447 z m -20.06098,-2.43225 -12.79079,-7.31345 4.99574,13.82396 z" /><path
       id="path1444"
       style="font-style:normal;font-variant:normal;font-weight:bold;font-stretch:normal;font-size:52px;line-height:1.25;font-family:Arial;-inkscape-font-specification:'Arial Bold';letter-spacing:5px;white-space:pre;fill:#ffffff"
       d="m 516.91556,515.57316 -27.6893,-24.87627 10.57157,-11.76701 q 3.98767,-4.43859 6.54187,-5.76193 2.55228,-1.3592 5.54594,-0.85416 2.99365,0.50504 5.44905,2.71099 3.11646,2.79985 3.51035,6.46458 0.37501,3.64777 -2.37112,7.76821 2.68672,-0.86296 5.00425,-0.89708 2.33451,-0.053 7.36299,0.84656 l 8.43929,1.47219 -6.00696,6.68623 -9.65648,-1.3711 q -5.16424,-0.74847 -6.70798,-0.70182 -1.56264,0.0297 -2.66237,0.64591 -1.11863,0.59925 -2.84945,2.52579 l -1.01813,1.13326 11.55925,10.38491 z m -10.95619,-19.94635 3.71617,-4.1364 q 3.61436,-4.02307 4.17373,-5.32955 0.55937,-1.30649 0.23737,-2.61974 -0.32199,-1.31326 -1.56857,-2.4332 -1.39769,-1.25569 -2.92639,-1.26378 -1.53061,-0.0439 -2.97902,1.11233 -0.70531,0.59512 -3.7597,3.99489 l -3.91979,4.36305 z" /><path
       id="path1446"
       style="font-style:normal;font-variant:normal;font-weight:bold;font-stretch:normal;font-size:52px;line-height:1.25;font-family:Arial;-inkscape-font-specification:'Arial Bold';letter-spacing:5px;white-space:pre;fill:#ffffff"
       d="m 544.69531,483.06983 -30.49827,-20.80365 4.23514,-6.20873 25.31733,17.26961 10.5306,-15.43791 5.18093,3.53405 z" /><path
       id="path1448"
       style="font-style:normal;font-variant:normal;font-weight:bold;font-stretch:normal;font-size:52px;line-height:1.25;font-family:Arial;-inkscape-font-specification:'Arial Bold';letter-spacing:5px;white-space:pre;fill:#ffffff"
       d="m 564.7251,452.43733 -33.18586,-16.85899 12.50049,-24.60642 5.61398,2.85199 -9.09649,17.90587 7.35703,3.7375 8.46399,-16.66083 5.59134,2.84049 -8.46399,16.66084 9.03216,4.5885 9.41849,-18.53971 5.59135,2.8405 z" /><path
       id="path1450"
       style="font-style:normal;font-variant:normal;font-weight:bold;font-stretch:normal;font-size:52px;line-height:1.25;font-family:Arial;-inkscape-font-specification:'Arial Bold';letter-spacing:5px;white-space:pre;fill:#ffffff"
       d="m 569.91321,414.42646 1.744,-7.13699 q 3.69309,0.5928 5.98523,-0.73029 2.30053,-1.34706 3.43259,-4.58246 1.19914,-3.42712 0.36494,-5.65581 -0.84977,-2.26103 -2.79101,-2.94026 -1.24623,-0.43605 -2.36896,0.005 -1.1383,0.40871 -2.42269,2.00371 -0.86744,1.09529 -3.5212,5.14325 -3.40976,5.20914 -6.27585,6.78871 -4.03193,2.22074 -8.202,0.76165 -2.68418,-0.93918 -4.48059,-3.26244 -1.81198,-2.3556 -2.03636,-5.63522 -0.21599,-3.30357 1.20117,-7.35381 2.31442,-6.6146 6.3799,-8.93121 4.07386,-2.34057 8.97367,-0.81445 l -2.17057,7.20293 q -2.86748,-0.49222 -4.5701,0.60674 -1.7182,1.06661 -2.7664,4.06235 -1.08174,3.09161 -0.4237,5.28556 0.42072,1.4115 1.78678,1.88948 1.24623,0.43605 2.50194,-0.30818 1.59599,-0.94797 4.62954,-5.69695 3.03354,-4.74897 5.21539,-6.75626 2.16626,-2.03963 4.92938,-2.63302 2.74755,-0.62575 6.07882,0.53985 3.0197,1.05658 5.06896,3.65661 2.04927,2.60003 2.27007,6.12049 0.19684,3.51208 -1.40481,8.08957 -2.33119,6.66253 -6.64828,9.1601 -4.34106,2.48918 -10.47986,1.12134 z" /><path
       id="path1452"
       style="font-style:normal;font-variant:normal;font-weight:bold;font-stretch:normal;font-size:52px;line-height:1.25;font-family:Arial;-inkscape-font-specification:'Arial Bold';letter-spacing:5px;white-space:pre;fill:#ffffff"
       d="m 593.9679,379.00365 -36.18001,-8.74834 1.76638,-7.3051 36.18,8.74834 z" /><path
       id="path1454"
       style="font-style:normal;font-variant:normal;font-weight:bold;font-stretch:normal;font-size:52px;line-height:1.25;font-family:Arial;-inkscape-font-specification:'Arial Bold';letter-spacing:5px;white-space:pre;fill:#ffffff"
       d="m 598.4734,359.85743 -36.86948,-5.11539 3.79292,-27.33774 6.23713,0.86536 -2.76007,19.89342 8.17365,1.13404 2.56817,-18.51019 6.21198,0.86187 -2.56817,18.51019 10.03474,1.39225 2.85778,-20.59762 6.21198,0.86187 z" /><path
       id="path1456"
       style="font-style:normal;font-variant:normal;font-weight:bold;font-stretch:normal;font-size:52px;line-height:1.25;font-family:Arial;-inkscape-font-specification:'Arial Bold';letter-spacing:5px;white-space:pre;fill:#ffffff"
       d="m 603.16988,320.30548 -37.22265,0.0169 -0.003,-7.3125 24.8505,-15.24566 -24.85742,0.0113 -0.003,-6.98242 37.22266,-0.0169 0.003,7.54101 -24.26662,15.01688 24.27343,-0.011 z" /><path
       id="path1459"
       style="font-style:normal;font-variant:normal;font-weight:bold;font-stretch:normal;font-size:52px;line-height:1.25;font-family:Arial;-inkscape-font-specification:'Arial Bold';letter-spacing:5px;white-space:pre;fill:#ffffff"
       d="m 19.182659,378.17879 -1.537136,-8.02998 7.693263,-4.78169 -2.797396,-14.61357 -8.881918,-1.42783 -1.498945,-7.83049 39.284652,7.24125 1.494173,7.80554 z m 11.862268,-16.35987 12.601891,-7.63435 -14.511375,-2.34078 z" /><path
       id="path1461"
       style="font-style:normal;font-variant:normal;font-weight:bold;font-stretch:normal;font-size:52px;line-height:1.25;font-family:Arial;-inkscape-font-specification:'Arial Bold';letter-spacing:5px;white-space:pre;fill:#ffffff"
       d="m 23.597716,391.03823 29.394209,-9.61168 -3.432744,-10.49793 5.985028,-1.95705 9.19344,28.11515 -5.985028,1.95706 -3.424853,-10.4738 -29.394208,9.61168 z" /><path
       id="path1463"
       style="font-style:normal;font-variant:normal;font-weight:bold;font-stretch:normal;font-size:52px;line-height:1.25;font-family:Arial;-inkscape-font-specification:'Arial Bold';letter-spacing:5px;white-space:pre;fill:#ffffff"
       d="m 33.0593,417.87786 33.525581,-16.17286 3.265462,6.76915 -13.195267,6.36544 6.398541,13.26388 13.195267,-6.36544 3.265462,6.76914 -33.525582,16.17287 -3.265462,-6.76916 14.658866,-7.07149 -6.39854,-13.26387 -14.658866,7.07149 z" /><path
       id="path1465"
       style="font-style:normal;font-variant:normal;font-weight:bold;font-stretch:normal;font-size:52px;line-height:1.25;font-family:Arial;-inkscape-font-specification:'Arial Bold';letter-spacing:5px;white-space:pre;fill:#ffffff"
       d="m 52.584876,455.91639 30.824779,-20.31673 4.136005,6.27519 -25.588382,16.8654 10.284121,15.60319 -5.236396,3.45133 z" /><path
       id="path1467"
       style="font-style:normal;font-variant:normal;font-weight:bold;font-stretch:normal;font-size:52px;line-height:1.25;font-family:Arial;-inkscape-font-specification:'Arial Bold';letter-spacing:5px;white-space:pre;fill:#ffffff"
       d="m 73.31854,486.07687 28.19964,-24.29623 18.015,20.90928 -4.77047,4.11014 -13.10935,-15.21549 -6.251627,5.38627 12.197827,14.15752 -4.75123,4.09357 -12.197832,-14.15753 -7.675073,6.61268 13.573401,15.7541 -4.751236,4.09356 z" /><path
       id="path1469"
       style="font-style:normal;font-variant:normal;font-weight:bold;font-stretch:normal;font-size:52px;line-height:1.25;font-family:Arial;-inkscape-font-specification:'Arial Bold';letter-spacing:5px;white-space:pre;fill:#ffffff"
       d="m 106.17215,521.1808 20.64848,-23.02269 -8.22239,-7.37446 4.20429,-4.68771 22.02088,19.74999 -4.20429,4.68771 -8.20348,-7.35751 -20.64849,23.02269 z" /><path
       id="path1471"
       style="font-style:normal;font-variant:normal;font-weight:bold;font-stretch:normal;font-size:52px;line-height:1.25;font-family:Arial;-inkscape-font-specification:'Arial Bold';letter-spacing:5px;white-space:pre;fill:#ffffff"
       d="m 127.78866,539.24912 22.1267,-29.93218 6.04361,4.46761 -22.1267,29.93218 z" /><path
       id="path1473"
       style="font-style:normal;font-variant:normal;font-weight:bold;font-stretch:normal;font-size:52px;line-height:1.25;font-family:Arial;-inkscape-font-specification:'Arial Bold';letter-spacing:5px;white-space:pre;fill:#ffffff"
       d="m 171.10916,551.19836 5.10604,5.68938 q -4.53676,4.39998 -9.41361,4.97502 -4.84209,0.56605 -10.00511,-2.47527 -6.38813,-3.76298 -7.93654,-10.53928 -1.53553,-6.79818 2.92336,-14.36768 4.71661,-8.00705 11.45457,-9.99061 6.75083,-2.00543 13.489,1.96375 5.88496,3.46659 7.5113,9.11006 0.97634,3.34514 -0.1979,7.83987 l -7.31209,-2.24446 q 0.9003,-2.82906 -0.065,-5.34258 -0.94339,-2.50061 -3.52489,-4.02128 -3.56599,-2.10057 -7.30522,-0.8554 -3.71738,1.25804 -7.09375,6.98986 -3.58257,6.08186 -2.91551,9.95206 0.66706,3.8702 4.1674,5.93211 2.58151,1.52066 5.4076,0.97526 2.82607,-0.5454 5.71032,-3.59081 z" /></g></svg>
