<?xml version="1.0" encoding="UTF-8" standalone="no"?>
<svg
   xmlns:dc="http://purl.org/dc/elements/1.1/"
   xmlns:cc="http://creativecommons.org/ns#"
   xmlns:rdf="http://www.w3.org/1999/02/22-rdf-syntax-ns#"
   xmlns:svg="http://www.w3.org/2000/svg"
   xmlns="http://www.w3.org/2000/svg"
   xmlns:sodipodi="http://sodipodi.sourceforge.net/DTD/sodipodi-0.dtd"
   xmlns:inkscape="http://www.inkscape.org/namespaces/inkscape"
   inkscape:version="1.0 (4035a4f, 2020-05-01)"
   sodipodi:docname="Logo Ascoli Picchio FC 1898.svg"
   viewBox="0 0 424.25924 700"
   id="svg127"
   height="700"
   width="424.25925"
   version="1.1">
  <metadata
     id="metadata133">
    <rdf:RDF>
      <cc:Work
         rdf:about="">
        <dc:format>image/svg+xml</dc:format>
        <dc:type
           rdf:resource="http://purl.org/dc/dcmitype/StillImage" />
        <dc:title></dc:title>
      </cc:Work>
    </rdf:RDF>
  </metadata>
  <defs
     id="defs131" />
  <sodipodi:namedview
     inkscape:current-layer="svg127"
     inkscape:window-maximized="0"
     inkscape:window-y="0"
     inkscape:window-x="0"
     inkscape:cy="286.4567"
     inkscape:cx="43.839454"
     inkscape:zoom="0.70555555"
     showgrid="false"
     id="namedview129"
     inkscape:window-height="900"
     inkscape:window-width="1440"
     inkscape:pageshadow="2"
     inkscape:pageopacity="0"
     guidetolerance="10"
     gridtolerance="10"
     objecttolerance="10"
     borderopacity="1"
     bordercolor="#666666"
     pagecolor="#ffffff" />
  <path
     sodipodi:nodetypes="sssscscss"
     id="path323"
     style="fill:#ffffff;fill-rule:evenodd;stroke-width:1.02118"
     d="m 360.56029,106.69596 c 37.51634,62.00392 60.66853,147.63273 60.66853,242.38498 0,94.86427 -23.2292,181.05086 -60.84712,243.53666 C 322.3265,655.82998 269.45766,695 210.67443,695 152.06779,695 100.07817,656.11571 62.775174,593.2875 25.673154,530.79822 3.03042,444.40198 3.03042,349.23401 c 0,-95.04838 22.616692,-180.97355 59.672462,-243.0808 C 100.03355,43.585806 152.08953,5 210.75113,5 c 58.84581,0 111.7551,38.803214 149.80916,101.69596 z" />
  <path
     sodipodi:nodetypes="cccscsc"
     d="M 210.10014,688.2523 V 264.05024 l -192.07419,-0.0382 c -4.10425,27.20297 -6.27949,55.75385 -6.27949,85.2109 0,94.43495 22.34515,179.95799 58.95917,241.62552 35.60321,59.96584 84.6236,97.15482 139.39451,97.40387 z"
     style="fill:#e20612;fill-rule:evenodd;stroke-width:1.03598"
     id="path120" />
  <g
     id="g224">
    <path
       id="path16"
       style="fill:#1b1918;fill-rule:evenodd;stroke-width:1.03598"
       d="m 211.17725,239.23479 v -1.82311 c -2.20302,-0.31598 -2.24207,-1.63944 -2.25885,-6.01449 l -0.0731,-18.92839 c -0.0167,-4.42726 -0.30831,-5.35021 2.4533,-5.90912 v -1.82271 l -11.34895,0.0244 v 1.82281 c 1.59582,0.46184 2.6691,0.53674 2.6691,4.96224 l -3.2e-4,19.2197 c 0,4.48227 0.57829,6.39666 -2.64464,6.66415 v 1.82301 z" />
    <path
       id="path18"
       style="fill:#1b1918;fill-rule:evenodd;stroke-width:1.03598"
       d="m 189.20857,234.33678 c -1.61396,0.0279 -4.293,-0.0294 -5.46003,-0.15363 -1.12766,-0.12007 -1.7391,-0.21611 -1.7391,-2.66413 v -19.04991 c 0,-4.47926 -0.28396,-5.25335 3.02206,-5.8366 v -1.82271 l -11.73683,-0.0241 v 1.82281 c 2.79269,0.0247 2.57017,1.84415 2.51225,6.32196 l -0.24283,18.70928 c -0.0567,4.3706 0.11075,5.75964 -2.23533,5.7356 v 1.82302 h 22.30485 c 0.63557,-2.35313 2.38493,-6.22624 3.09292,-8.26806 l -0.94502,-0.0875 c -1.44188,1.23603 -4.37153,3.42122 -8.57294,3.49405 z" />
    <path
       id="path20"
       style="fill:#1b1918;fill-rule:evenodd;stroke-width:1.03598"
       d="m 152.12215,208.83821 c 5.98951,0 12.25253,4.84259 12.1509,13.74994 -0.0973,8.51503 -6.85145,12.75146 -11.7994,12.75146 -6.66673,0 -13.11737,-5.34141 -13.12617,-13.56843 -0.009,-8.7186 7.51396,-12.93297 12.77467,-12.93297 z m 0.20875,-4.13004 c -11.92714,0 -19.98116,8.65686 -19.98116,17.61539 0,10.00011 9.88646,16.87922 20.30335,16.87922 9.79156,0 18.86053,-6.19164 18.86053,-17.44155 0,-10.31266 -9.70351,-17.05306 -19.18272,-17.05306 z" />
    <path
       id="path22"
       style="fill:#1b1918;fill-rule:evenodd;stroke-width:1.03598"
       d="m 121.27978,234.42401 c -7.08144,-0.16679 -12.91939,-4.99145 -12.67687,-13.21485 0.22584,-7.65289 4.31278,-11.6094 11.86435,-11.68399 4.74821,-0.047 6.70082,1.53232 9.28767,3.48048 l 0.18585,-7.10993 c -1.33351,-0.45811 -5.58279,-1.14911 -9.80099,-1.13264 -12.20498,0.0482 -18.9718,7.63642 -18.92311,16.80784 0.0437,8.28131 5.10158,17.72873 18.95574,17.72873 3.5416,0 8.04252,-0.70157 9.39634,-1.15968 0.82164,-1.44043 2.44999,-4.22431 3.31431,-7.11894 l -0.69546,-0.35275 c -1.98452,1.31331 -5.73901,3.87756 -10.90783,3.75573 z" />
    <path
       id="path24"
       style="fill:#1b1918;fill-rule:evenodd;stroke-width:1.03598"
       d="m 97.10954,213.27107 -0.1642,-7.61788 c -0.93767,-0.36476 -5.52084,-0.8842 -8.85421,-0.8842 -9.0469,0 -13.17787,3.78702 -13.12918,8.71528 0.0494,4.99964 3.97474,7.88723 9.54821,10.13261 4.32097,1.74086 8.58672,3.67493 8.74771,6.7434 0.12121,2.30909 -3.90222,4.41048 -7.07823,4.40022 -4.54557,-0.0149 -9.08627,-2.2083 -12.85568,-5.3643 0.74622,2.73281 1.49233,5.46531 2.23855,8.19812 1.66161,1.79929 8.79205,1.6469 9.70029,1.64638 9.35407,-0.008 14.74427,-4.57655 14.74427,-10.51375 0,-5.15648 -5.61718,-7.42911 -11.39173,-10.01285 -4.59592,-2.05621 -6.44328,-3.48576 -6.51911,-5.86416 -0.0816,-2.55452 3.37397,-3.82049 6.29057,-3.82049 4.27103,0 7.36364,2.34867 7.97155,4.22141 z" />
    <path
       id="path26"
       style="fill:#1b1918;fill-rule:evenodd;stroke-width:1.03598"
       d="m 59.5159,221.77501 -8.56237,-0.0244 4.15128,-10.04859 h 0.15622 z m 15.17742,17.47211 V 237.424 c -2.04306,-0.2707 -2.96135,-1.93231 -4.87926,-6.45405 l -10.40952,-24.53884 0.0118,-1.56495 -9.43156,-0.0826 -0.7974,1.26607 c 2.10387,0.66686 2.2055,1.86176 1.49098,3.5847 l -9.22042,22.23068 c -1.79898,4.33765 -2.13412,5.11826 -4.45461,5.55896 l -0.0523,1.82312 h 10.67971 v -1.82312 c -2.3208,-0.34736 -2.76752,-0.68302 -1.72025,-3.0667 l 3.4291,-7.80642 11.8455,0.0485 3.05531,7.77907 c 0.89125,2.2689 0.85188,2.88054 -1.18941,3.04557 v 1.82312 z" />
    <path
       id="path28"
       style="fill:#1b1918;fill-rule:evenodd;stroke-width:1.03598"
       d="m 239.03889,234.42401 c -6.20687,-0.11841 -12.14241,-4.79762 -11.89978,-13.02081 0.22553,-7.65289 3.5359,-11.80375 11.08726,-11.87803 4.7479,-0.0467 6.60354,2.01798 9.19049,3.96614 l 0.28303,-7.59559 c -1.33352,-0.45811 -5.5831,-1.14911 -9.80099,-1.13264 -12.20499,0.0479 -17.56318,7.83056 -17.51469,17.00198 0.0437,8.28101 5.0043,17.53459 17.54732,17.53459 3.5415,0 8.04252,-0.70157 9.39634,-1.15968 0.35824,-1.46011 1.20256,-3.53984 2.77093,-6.58158 l -0.8381,-0.63754 c -2.06471,1.33973 -5.35757,3.59588 -10.22181,3.50316 z" />
    <path
       id="path30"
       style="fill:#1b1918;fill-rule:evenodd;stroke-width:1.03598"
       d="m 270.0727,221.77501 -8.56237,-0.0244 4.15127,-10.04859 h 0.15623 z m 15.17742,17.47211 V 237.424 c -2.04306,-0.2707 -2.96135,-1.93231 -4.87926,-6.45405 l -10.40953,-24.53884 0.0118,-1.56495 -9.43166,-0.0826 -0.79729,1.26607 c 2.10387,0.66686 2.2055,1.86176 1.49098,3.5847 l -9.22043,22.23068 c -1.79897,4.33765 -2.13411,5.11826 -4.45461,5.55896 l -0.0523,1.82312 h 10.67971 v -1.82312 c -2.32081,-0.34736 -2.76752,-0.68302 -1.72025,-3.0667 l 3.4291,-7.80642 11.84549,0.0485 3.05531,7.77907 c 0.89126,2.2689 0.85189,2.88054 -1.1894,3.04557 v 1.82312 z" />
    <path
       id="path32"
       style="fill:#1b1918;fill-rule:evenodd;stroke-width:1.03598"
       d="m 300.2134,234.33678 c -1.61365,0.0276 -4.02613,0.11572 -5.19285,-0.008 -1.12736,-0.11976 -2.00628,-0.36146 -2.00628,-2.80948 v -19.04991 c 0,-4.47926 -0.26666,-5.54466 2.14106,-5.8366 v -1.82271 l -10.56213,-0.0241 v 1.82281 c 2.79269,0.0247 2.81269,0.58201 2.80119,5.05921 l -0.0487,18.6609 c -0.0112,4.36914 0.0714,6.9739 -1.83752,7.04673 v 1.82302 h 20.24937 c 0.63547,-2.35313 2.38482,-6.22624 3.09281,-8.26806 l -0.94502,-0.0875 c -1.44188,1.23603 -3.49073,3.42153 -7.69194,3.49405 z" />
    <path
       id="path34"
       style="fill:#1b1918;fill-rule:evenodd;stroke-width:1.03598"
       d="m 327.43159,234.42401 c -6.20686,-0.11841 -12.14241,-4.79762 -11.89978,-13.02081 0.22553,-7.65289 3.53601,-11.80375 11.08726,-11.87803 4.7479,-0.0467 6.60365,2.01798 9.19049,3.96614 l 0.28314,-7.59559 c -1.33362,-0.45811 -5.58321,-1.14911 -9.8011,-1.13264 -12.20488,0.0479 -17.56307,7.83056 -17.51469,17.00198 0.0438,8.28101 5.0044,17.53459 17.54732,17.53459 3.5416,0 8.04252,-0.70157 9.39634,-1.15968 0.35824,-1.46011 1.20257,-3.53984 2.77104,-6.58158 l -0.83811,-0.63754 c -2.06481,1.33973 -5.35767,3.59588 -10.22191,3.50316 z" />
    <path
       id="path36"
       style="fill:#1b1918;fill-rule:evenodd;stroke-width:1.03598"
       d="m 349.19919,239.23479 v -1.82311 c -2.20312,-0.31598 -2.24217,-1.63944 -2.25885,-6.01449 l -0.0731,-18.92839 c -0.0168,-4.42726 -0.30841,-5.35021 2.4532,-5.90912 v -1.82271 l -11.34885,0.0244 v 1.82281 c 1.59572,0.46184 2.6691,0.53674 2.6691,4.96224 l -3.1e-4,19.2197 c 0,4.48227 0.57818,6.39666 -2.64476,6.66415 v 1.82301 z" />
    <path
       id="path38"
       style="fill:#1b1918;fill-rule:evenodd;stroke-width:1.03598"
       d="m 368.8482,208.78952 c 5.83392,0.2331 11.47462,4.74645 11.37382,13.65297 -0.0962,8.5142 -6.24913,12.50832 -12.36256,12.50832 -6.66684,0 -11.09793,-5.19606 -11.10611,-13.42216 -0.008,-8.71797 6.83829,-12.94912 12.09485,-12.73913 z m -0.96822,-4.08135 c -11.92714,0.0505 -17.78426,8.65686 -17.78426,17.61539 0,10.00011 7.76271,16.87539 18.73632,16.9218 9.35376,0.0397 18.04998,-7.40177 18.0964,-17.67858 0.0467,-10.31018 -7.5783,-16.90709 -19.04846,-16.85861 z" />
  </g>
  <g
     id="g230">
    <path
       id="path10"
       style="fill:#1b1918;fill-rule:evenodd;stroke-width:1.03598"
       d="m 236.82262,89.49043 c -2.27035,2.22093 -6.17838,3.77179 -8.70658,3.77179 -9.47767,0 -13.23599,-5.51649 -13.23599,-13.28147 0,-5.68825 4.59529,-12.16882 12.42057,-12.07165 7.58378,0.0943 13.52637,7.37069 13.55227,17.6474 0.0314,12.44046 -11.37775,25.58249 -24.65073,27.83989 l -5.13939,5.40139 c 18.87172,-0.49603 38.47515,-13.68208 38.47515,-33.99423 0,-12.27988 -10.03885,-23.23931 -22.49899,-23.23931 -13.00228,0 -20.98139,10.62709 -21.07826,20.87645 -0.0899,9.48015 7.65931,16.69046 18.04294,16.69046 1.79131,0 3.97184,-0.18886 6.55982,-1.20494 2.32319,-1.58723 5.77321,-7.10755 6.25919,-8.43578 z" />
    <path
       id="path12"
       style="fill:#1b1918;fill-rule:evenodd;stroke-width:1.03598"
       d="m 178.86462,113.19437 c -4.78561,0 -13.85219,-2.44677 -13.85219,-11.02448 0,-4.7855 4.42912,-8.45308 9.08803,-10.90483 8.85483,3.36942 18.1311,5.82014 18.08085,12.60726 -0.0458,6.17578 -7.98968,9.32205 -13.31669,9.32205 z m -0.95155,-45.81268 c 3.79241,0 11.04676,2.09526 11.01972,9.03156 -0.0205,5.23844 -4.14765,7.67558 -6.44266,9.36702 -7.06351,-2.675 -15.67168,-4.95032 -15.67168,-11.41649 0,-5.31883 6.39956,-6.98209 11.09462,-6.98209 z m 0.501,-5.81745 c -13.3946,0.0799 -20.04196,6.64758 -20.04196,14.86404 0,6.59152 4.52806,10.43293 10.03595,12.48304 -4.4026,2.2489 -12.05073,4.41109 -12.09921,14.64709 -0.0443,9.39012 11.07411,15.25957 22.08968,15.25957 8.39734,0 22.44295,-4.90536 22.32692,-15.92031 -0.0972,-9.20842 -6.85404,-11.86695 -13.17435,-15.29811 8.93098,-4.39939 9.85569,-8.9345 9.85569,-12.11662 0,-7.76498 -7.47252,-13.98749 -18.99272,-13.9187 z" />
    <path
       id="path14"
       style="fill:#1b1918;fill-rule:evenodd;stroke-width:1.03598"
       d="m 146.69081,118.8127 3.1e-4,-0.85748 c -2.82532,-1.70709 -3.90429,-2.77715 -3.89455,-9.08213 0.024,-15.80698 0.0367,-31.46809 0.061,-47.27518 l -2.0964,9.4e-4 c -3.82909,4.97933 -9.49828,11.03733 -15.71219,12.50272 l -0.38829,1.53087 7.23446,-0.0687 c 1.12797,-0.0106 2.21005,-0.63371 2.20363,3.51663 l -0.0482,30.22938 c -0.0104,6.39427 -1.88797,7.71515 -5.29624,8.71798 v 0.78268 z" />
    <path
       id="path40"
       style="fill:#1b1918;fill-rule:evenodd;stroke-width:1.03598"
       d="m 277.82919,113.19437 c -4.7855,0 -13.85209,-2.44677 -13.85209,-11.02448 0,-4.7855 4.42902,-8.45308 9.08803,-10.90483 8.85483,3.36942 18.1311,5.82014 18.08085,12.60726 -0.0458,6.17578 -7.98968,9.32205 -13.31679,9.32205 z m -0.95145,-45.81268 c 3.79241,0 11.04676,2.09526 11.01972,9.03156 -0.0205,5.23844 -4.14765,7.67558 -6.44265,9.36702 -7.06352,-2.675 -15.67169,-4.95032 -15.67169,-11.41649 0,-5.31883 6.39956,-6.98209 11.09462,-6.98209 z m 0.501,-5.81745 c -13.3946,0.0799 -20.04196,6.64758 -20.04196,14.86404 0,6.59152 4.52796,10.43293 10.03595,12.48304 -4.4026,2.2489 -12.05083,4.41109 -12.09921,14.64709 -0.0443,9.39012 11.07401,15.25957 22.08968,15.25957 8.39724,0 22.44295,-4.90536 22.32692,-15.92031 -0.0972,-9.20842 -6.85414,-11.86695 -13.17435,-15.29811 8.93088,-4.39939 9.8557,-8.9345 9.8557,-12.11662 0,-7.76498 -7.47263,-13.98749 -18.99273,-13.9187 z" />
  </g>
  <g
     id="g321">
    <path
       id="path260"
       style="fill:#1b1918;fill-rule:evenodd;stroke-width:1.03598"
       d="M 39.857422 304.39648 L 39.857422 332.53906 L 39.857422 333.71484 L 48.070312 343.39648 L 48.070312 494.02734 L 48.070312 497.25586 L 51.300781 497.25586 L 186.71484 497.25586 L 186.71484 490.79688 L 186.71094 490.79688 L 186.71094 382.92969 L 198.9707 382.92969 L 170.74023 331.52539 L 142.75 382.92773 L 153.54297 382.92773 L 153.54297 391.22461 L 83.550781 391.22461 L 83.525391 343.28125 L 92.548828 331.58984 L 92.548828 330.50391 L 92.548828 304.39648 L 39.857422 304.39648 z M 102.85547 452.0957 L 102.88281 452.0957 C 104.89852 452.0957 106.73434 452.92184 108.06641 454.25391 C 109.39847 455.58597 110.22461 457.42179 110.22461 459.4375 L 110.22461 490.79688 L 95.513672 490.79688 L 95.513672 459.4375 C 95.513672 457.42179 96.339815 455.58597 97.671875 454.25391 C 99.003945 452.92184 100.83976 452.0957 102.85547 452.0957 z M 135.74414 452.0957 L 135.77344 452.0957 C 137.78914 452.0957 139.62497 452.92184 140.95703 454.25391 C 142.28909 455.58597 143.11523 457.42179 143.11523 459.4375 L 143.11523 490.79688 L 128.4043 490.79688 L 128.4043 459.4375 C 128.4043 457.42179 129.23044 455.58597 130.5625 454.25391 C 131.89456 452.92184 133.72844 452.0957 135.74414 452.0957 z " />
    <g
       id="g310">
      <path
         sodipodi:nodetypes="ccccccccccccccccccccccccccccccc"
         d="M 71.66505,374.86507 H 61.02968 v -19.03613 h 10.63537 z m 5.43692,115.93102 -0.0112,-148.61577 -3.1e-4,-1.10125 0.66894,-0.86722 8.32917,-10.79273 -5.2e-4,-18.56186 h -6.42007 l -0.005,13.16378 H 72.3931 v -13.16492 l -10.59103,0.002 v 13.16316 H 54.03916 V 310.8575 h -7.72137 l 6.3e-4,20.50774 7.44289,8.77496 0.76973,0.90772 v 1.17429 148.57412 z M 61.02968,443.92794 h 10.63537 v 21.16497 H 61.02968 Z"
         style="fill:#e6b455;fill-rule:evenodd;stroke-width:1.03598"
         id="path60" />
      <path
         d="M 153.24888,434.30255 H 83.56255 v 56.49354 h 5.48997 v -31.3588 c 0,-3.79884 1.5521,-7.25031 4.05203,-9.75023 2.49992,-2.50003 5.95139,-4.05203 9.75023,-4.05203 h 0.029 c 3.79884,0 7.25031,1.552 9.75023,4.05203 2.50003,2.49992 4.05203,5.95139 4.05203,9.75023 v 31.3588 h 5.25687 v -31.3588 c 0,-3.79884 1.552,-7.25031 4.05193,-9.75023 2.50002,-2.50003 5.95139,-4.05203 9.75022,-4.05203 h 0.0291 c 3.79883,0 7.2502,1.552 9.75022,4.05203 2.49993,2.49992 4.05193,5.95139 4.05193,9.75023 v 31.3588 h 3.67255 z"
         style="fill:#e6b455;fill-rule:evenodd;stroke-width:1.03598"
         id="path62" />
      <path
         d="m 160.00316,382.92872 v 107.86737 h 20.24781 V 382.92872 Z m 17.08714,33.12235 h -12.10367 v -21.16486 h 12.10367 z m -12.10367,27.87687 h 11.22267 v 21.16497 h -11.22267 z"
         style="fill:#e6b455;fill-rule:evenodd;stroke-width:1.03598"
         id="path64" />
      <path
         d="m 153.5834,376.49311 34.49512,6.2e-4 -17.32138,-31.54009 z"
         style="fill:#e6b455;fill-rule:evenodd;stroke-width:1.03598"
         id="path66" />
      <path
         d="M 103.24855,418.86262 H 95.6342 l 0.003,-20.00353 -12.07517,3.1e-4 v 28.98257 h 69.68632 V 398.8594 l -10.68437,-5.2e-4 v 19.92656 h -7.5756 l -9.3e-4,-19.92604 h -12.0816 v 19.84761 h -7.57591 v -19.84875 l -12.08191,0.001 z"
         style="fill:#e6b455;fill-rule:evenodd;stroke-width:1.03598"
         id="path80" />
    </g>
  </g>
  <g
     id="g328">
    <path
       id="path90"
       style="fill:#1d1d1b;fill-rule:evenodd;stroke-width:1.03598"
       d="M 258.895,678.43981 V 264.05987 l -48.79486,-0.009 v 424.20206 c 0.1844,8.3e-4 0.36881,10e-4 0.55321,10e-4 16.6196,0 32.77758,-3.40299 48.24165,-9.81363 z" />
    <path
       id="path92"
       style="fill:#1d1d1b;fill-rule:evenodd;stroke-width:1.03598"
       d="m 289.09557,264.06578 v 397.47046 c 17.68739,-12.60373 34.09555,-29.32942 48.79486,-49.44742 v -348.0133 z" />
    <path
       id="path94"
       style="fill:#1d1d1b;fill-rule:evenodd;stroke-width:1.03598"
       d="m 367.21011,264.08132 v 298.75577 c 28.35239,-58.45723 45.30257,-132.85665 45.30257,-213.76947 0,-29.37521 -2.23243,-57.84705 -6.4326,-84.97832 z" />
  </g>
  <g
     id="g238">
    <rect
       style="fill:#000000;stroke:none;stroke-width:0.203655;stroke-linecap:round;stroke-linejoin:round"
       id="rect232"
       width="288.439"
       height="41.355999"
       x="67.76136"
       y="140.66882" />
    <path
       id="path100"
       style="fill:#ffffff;fill-rule:evenodd;stroke-width:1.03598"
       d="m 166.22328,178.06049 h 91.1825 v -33.42734 h -91.1825 z" />
    <path
       id="path122"
       style="fill:#e20612;fill-rule:evenodd;stroke-width:1.03598"
       d="m 261.37026,178.06049 h 90.8657 v -33.42734 h -90.8657 z" />
    <path
       id="path124"
       style="fill:#019541;fill-rule:evenodd;stroke-width:1.03598"
       d="M 162.25879,178.06049 V 144.63315 H 71.72586 v 33.42734 z" />
  </g>
  <g
     id="g332">
    <path
       id="path86"
       style="fill:#e6b559;fill-rule:evenodd;stroke-width:1.03598"
       d="m 412.51268,349.06762 c 0,-93.95799 -22.83993,-178.67379 -59.8498,-239.84064 -36.47654,-60.28563 -86.63692,-97.480419 -141.93173,-97.480419 -55.07952,0 -104.39061,36.957239 -140.14528,96.883389 -36.5386,61.24029 -58.83941,146.26969 -58.83941,240.59296 0,94.43495 22.34515,179.95799 58.95917,241.62552 35.72297,60.16764 84.95366,97.40501 139.94772,97.40501 55.21431,0 105.33657,-37.5607 141.82834,-98.17671 37.11325,-61.64764 60.03099,-146.92515 60.03099,-241.00911 z m -49.80121,-245.8978 c 38.06004,62.90252 61.54777,149.77233 61.54777,245.8978 0,96.23911 -23.56584,183.67478 -61.72896,247.06618 C 323.92356,660.2623 270.2885,700 210.65335,700 151.19733,700 98.45424,660.55217 60.61062,596.8134 22.97089,533.41848 0,445.77012 0,349.22291 0,252.79701 22.94447,165.62656 60.53728,102.61919 98.40897,39.14502 151.21939,0 210.73115,0 270.4298,0 324.10589,39.36558 362.71147,103.16982 Z" />
    <path
       id="path88"
       style="fill:#e6b559;fill-rule:evenodd;stroke-width:1.03598"
       d="m 16.08949,252.31103 392.1448,0.0778 v 11.70077 l -392.1448,-0.0778 z" />
  </g>
</svg>
