<?xml version="1.0" encoding="UTF-8"?>
<svg id="Calque_2" data-name="Calque 2" xmlns="http://www.w3.org/2000/svg" viewBox="0 0 1427.55 1631.93">
  <defs>
    <style>
      .cls-1 {
        fill: #000;
      }

      .cls-1, .cls-2, .cls-3 {
        stroke-width: 0px;
      }

      .cls-2 {
        fill: #fff;
      }

      .cls-3 {
        fill: #e0092c;
      }
    </style>
  </defs>
  <g id="Calque_2-2" data-name="Calque 2">
    <path class="cls-2" d="M1401.95,25.56c0,26.77-.08,87.11-.46,98.05-.08,1.55-.08,4.93-.13,9.94-1.63,187.42-20.59,369.21-54.79,525.6-60.68,277.08-183.33,501.42-397.65,727.39-91.41,96.38-207.13,190.68-234.53,212.73-27.48-22.43-144.24-119.02-235.82-215.61-214.44-225.93-337.05-450.26-397.65-727.35C46.73,499.83,27.77,318.09,26.1,130.67c-.04-4.97-.08-8.35-.13-9.9-.33-9.6-.38-63.64-.38-95.13l1376.35-.08Z"/>
  </g>
  <g id="Calque_1-2" data-name="Calque 1">
    <path class="cls-3" d="M555.29,715.2l-113.71,84.06v180.11c4.22,7.06,8.52,14.12,12.86,21.09,30.53,49.03,64.44,96.3,100.89,140.32v-425.58h-.04ZM769.99,556.55l-112.96,83.52v612.17c25.01,25.56,45.98,45.98,57.13,56.71,1.38-1.29,2.88-2.71,4.55-4.3,4.13-3.93,9.15-8.69,14.83-14.16,10.27-9.9,22.72-22.09,36.46-35.87l.04-.04v-698.03h-.04ZM985.89,396.98l-110.71,81.85v661.49c30.36-36.58,58.92-75.46,85.19-115.76,8.77-13.45,17.29-27.02,25.56-40.72V396.98h-.04ZM1177.74,255.2v.04l-92.29,68.2-1.21,457.28v.17c3.26-8.85,6.39-17.62,9.35-26.43,0,0-.04,0,0-.04,3.01-8.77,5.85-17.54,8.52-26.27,32.62-106.82,50.15-209.97,59.8-287.77,6.6-53.29,9.56-94.67,11.19-117.31.08-1.46.21-2.84.29-4.13.04-.63.08-1.25.13-1.88.25-3.05.46-5.6.63-7.64.46-5.68,1-13.36,1.55-21.72.17-2.38.29-4.84.5-7.31.58-8.56,1.13-17.41,1.59-25.18h-.04Z"/>
    <path class="cls-1" d="M1349.08,430.97h-31.99l-39.38,48.4-39.38-48.4h-31.99l53.25,68.86-53.25,69.95h31.99l39.38-48.44,39.38,48.44h31.99l-53.2-69.95,53.2-68.86ZM1308.41,119.64c3.26-3.3,8.1-8.44,8.1-18.46,0-17.37-13.15-24.97-26.64-24.97h-51.78v91.75h51.78c17.58,0,30.94-9.19,30.94-26.64,0-11.53-7.31-19.34-12.4-21.67ZM1251.11,89.45h38.75c9.23,0,13.53,4.38,13.53,11.73,0,8.14-4.59,13.45-13.53,13.45h-38.75v-25.18ZM1289.87,154.81h-38.75v-26.94h38.75c13.7,0,17.92,5.26,17.92,13.45,0,8.77-5.72,13.49-17.92,13.49ZM351.58,455.78c-19.67,0-36.04,10.69-42.18,25.68l85.11-.17c-6.1-14.95-23.26-25.52-42.93-25.52ZM395.85,677.03c-4.55-9.81-15.12-12.57-34.45-7.81-4.38-2.38-9.06-1.96-19.92,3.38-4.97-6.56-15.7-3.67-19.21,3.3-2.51,4.97,4.89,8.81,14.37,4.97,2.38,3.42,6.81,4.55,15.95-2.67l11.9,3.55c3.93,1.96,8.44,1.71,23.8-1.17,2.3,5.05,9.86,1.5,7.56-3.55ZM424.04,747.77c-4.55-9.81-15.16-12.57-22.34-4.93l-12.11-2.88c-4.38-2.34-9.1-1.92-19.88,3.38-4.93-6.56-15.7-3.67-19.25,3.3-2.55,5.01,4.8,8.81,14.37,4.97,2.34,3.38,6.77,4.55,15.99-2.67l11.9,3.55c3.93,2.05,8.44,1.67,23.76-1.17,2.34,5.09,9.86,1.55,7.56-3.55ZM433.77,701.62c-4.55-9.9-15.16-12.61-22.3-4.97l-12.15-2.84c-4.39-2.38-9.1-1.92-19.92,3.34-4.89-6.56-15.7-3.63-19.21,3.34-2.46,4.97,4.89,8.81,14.37,4.97,5.18,7.39,11.78,2.17,15.99-2.71l11.9,3.51c3.88,2.09,8.44,1.75,23.8-1.09,2.3,5.01,9.77,1.55,7.52-3.55ZM473.61,724.22c-4.51-9.9-15.16-12.57-34.45-7.81-4.34-2.38-9.06-1.96-19.84,3.34-4.93-6.56-15.74-3.63-19.25,3.38-2.46,4.93,4.84,8.73,14.37,4.93,5.22,7.43,11.78,2.13,15.99-2.71l11.9,3.55c3.88,2,8.44,1.71,23.8-1.17,2.3,5.05,9.81,1.55,7.48-3.51ZM474.61,677.07c-4.51-9.86-15.12-12.61-22.3-4.97l-12.19-2.88c-4.38-2.38-9.06-1.92-19.88,3.38-4.97-6.56-15.7-3.67-19.25,3.34-2.46,4.93,4.89,8.77,14.41,4.93,5.22,7.48,11.78,2.17,15.99-2.67l11.9,3.55c3.88,1.96,8.44,1.71,23.8-1.17,2.3,5.05,9.77,1.55,7.52-3.51ZM426.84,375.14h84.86l-40.59-84.82v-25.52h10.27v-3.8h-10.27l-3.72-11.36v11.36l-6.01,2.05-5.22,1.75h11.23v25.52l-40.55,84.82ZM515.41,701.62c-4.47-9.9-15.08-12.61-34.45-7.81-4.34-2.38-9.06-1.92-19.84,3.34-4.97-6.56-15.74-3.63-19.25,3.34-2.55,4.97,4.84,8.81,14.37,4.97,2.38,3.38,6.77,4.55,15.99-2.71l11.9,3.51c3.93,2.09,8.44,1.75,23.76-1.09,2.34,5.01,9.86,1.55,7.52-3.55ZM594.21,646.62c-4.51-9.86-15.12-12.61-34.45-7.89-4.38-2.38-9.02-1.92-19.88,3.42-4.97-6.6-15.66-3.67-19.17,3.34-2.63,4.97,4.84,8.77,14.32,4.93,2.3,3.38,6.77,4.51,15.99-2.71l11.86,3.55c3.93,2.05,8.44,1.71,23.8-1.17,2.3,5.09,9.81,1.59,7.52-3.47ZM594.21,646.62c-4.51-9.86-15.12-12.61-34.45-7.89-4.38-2.38-9.02-1.92-19.88,3.42-4.97-6.6-15.66-3.67-19.17,3.34-2.63,4.97,4.84,8.77,14.32,4.93,2.3,3.38,6.77,4.51,15.99-2.71l11.86,3.55c3.93,2.05,8.44,1.71,23.8-1.17,2.3,5.09,9.81,1.59,7.52-3.47ZM480.96,693.81c-4.34-2.38-9.06-1.92-19.84,3.34-4.97-6.56-15.74-3.63-19.25,3.34-2.55,4.97,4.84,8.81,14.37,4.97,2.38,3.38,6.77,4.55,15.99-2.71l11.9,3.51c3.93,2.09,8.44,1.75,23.76-1.09,2.34,5.01,9.86,1.55,7.52-3.55-4.47-9.9-15.08-12.61-34.45-7.81ZM415.39,680.87c5.22,7.48,11.78,2.17,15.99-2.67l11.9,3.55c3.88,1.96,8.44,1.71,23.8-1.17,2.3,5.05,9.77,1.55,7.52-3.51-4.51-9.86-15.12-12.61-22.3-4.97l-12.19-2.88c-4.38-2.38-9.06-1.92-19.88,3.38-4.97-6.56-15.7-3.67-19.25,3.34-2.46,4.93,4.89,8.77,14.41,4.93ZM439.16,716.41c-4.34-2.38-9.06-1.96-19.84,3.34-4.93-6.56-15.74-3.63-19.25,3.38-2.46,4.93,4.84,8.73,14.37,4.93,5.22,7.43,11.78,2.13,15.99-2.71l11.9,3.55c3.88,2,8.44,1.71,23.8-1.17,2.3,5.05,9.81,1.55,7.48-3.51-4.51-9.9-15.16-12.57-34.45-7.81ZM379.4,697.15c-4.89-6.56-15.7-3.63-19.21,3.34-2.46,4.97,4.89,8.81,14.37,4.97,5.18,7.39,11.78,2.17,15.99-2.71l11.9,3.51c3.88,2.09,8.44,1.75,23.8-1.09,2.3,5.01,9.77,1.55,7.52-3.55-4.55-9.9-15.16-12.61-22.3-4.97l-12.15-2.84c-4.39-2.38-9.1-1.92-19.92,3.34ZM401.7,742.84l-12.11-2.88c-4.38-2.34-9.1-1.92-19.88,3.38-4.93-6.56-15.7-3.67-19.25,3.3-2.55,5.01,4.8,8.81,14.37,4.97,2.34,3.38,6.77,4.55,15.99-2.67l11.9,3.55c3.93,2.05,8.44,1.67,23.76-1.17,2.34,5.09,9.86,1.55,7.56-3.55-4.55-9.81-15.16-12.57-22.34-4.93ZM364.49,681.74c3.93,1.96,8.44,1.71,23.8-1.17,2.3,5.05,9.86,1.5,7.56-3.55-4.55-9.81-15.12-12.57-34.45-7.81-4.38-2.38-9.06-1.96-19.92,3.38-4.97-6.56-15.7-3.67-19.21,3.3-2.51,4.97,4.89,8.81,14.37,4.97,2.38,3.42,6.81,4.55,15.95-2.67l11.9,3.55ZM426.84,375.14h84.86l-40.59-84.82v-25.52h10.27v-3.8h-10.27l-3.72-11.36v11.36l-6.01,2.05-5.22,1.75h11.23v25.52l-40.55,84.82ZM351.58,455.78c-19.67,0-36.04,10.69-42.18,25.68l85.11-.17c-6.1-14.95-23.26-25.52-42.93-25.52ZM594.21,646.62c-4.51-9.86-15.12-12.61-34.45-7.89-4.38-2.38-9.02-1.92-19.88,3.42-4.97-6.6-15.66-3.67-19.17,3.34-2.63,4.97,4.84,8.77,14.32,4.93,2.3,3.38,6.77,4.51,15.99-2.71l11.86,3.55c3.93,2.05,8.44,1.71,23.8-1.17,2.3,5.09,9.81,1.59,7.52-3.47ZM480.96,693.81c-4.34-2.38-9.06-1.92-19.84,3.34-4.97-6.56-15.74-3.63-19.25,3.34-2.55,4.97,4.84,8.81,14.37,4.97,2.38,3.38,6.77,4.55,15.99-2.71l11.9,3.51c3.93,2.09,8.44,1.75,23.76-1.09,2.34,5.01,9.86,1.55,7.52-3.55-4.47-9.9-15.08-12.61-34.45-7.81ZM426.84,375.14h84.86l-40.59-84.82v-25.52h10.27v-3.8h-10.27l-3.72-11.36v11.36l-6.01,2.05-5.22,1.75h11.23v25.52l-40.55,84.82ZM480.75,723.13c-2.13,4.22,4.18,8.64,11.4,6.89l14.95-11.02-7.14.75c-4.93-6.56-15.66-3.63-19.21,3.38ZM458.16,743.34c-4.89-6.56-15.66-3.67-19.25,3.38-2.46,4.93,4.89,8.73,7.43,3.76.92-1.88,5.35-1.09,9.02,6.77l22.38-16.54c-4.26-1.71-10.11-2-19.59,2.63ZM415.39,680.87c5.22,7.48,11.78,2.17,15.99-2.67l11.9,3.55c3.88,1.96,8.44,1.71,23.8-1.17,2.3,5.05,9.77,1.55,7.52-3.51-4.51-9.86-15.12-12.61-22.3-4.97l-12.19-2.88c-4.38-2.38-9.06-1.92-19.88,3.38-4.97-6.56-15.7-3.67-19.25,3.34-2.46,4.93,4.89,8.77,14.41,4.93ZM466.13,727.72c2.3,5.05,9.81,1.55,7.48-3.51-4.51-9.9-15.16-12.57-34.45-7.81-4.34-2.38-9.06-1.96-19.84,3.34-4.93-6.56-15.74-3.63-19.25,3.38-2.46,4.93,4.84,8.73,14.37,4.93,5.22,7.43,11.78,2.13,15.99-2.71l11.9,3.55c3.88,2,8.44,1.71,23.8-1.17ZM379.4,697.15c-4.89-6.56-15.7-3.63-19.21,3.34-2.46,4.97,4.89,8.81,14.37,4.97,5.18,7.39,11.78,2.17,15.99-2.71l11.9,3.51c3.88,2.09,8.44,1.75,23.8-1.09,2.3,5.01,9.77,1.55,7.52-3.55-4.55-9.9-15.16-12.61-22.3-4.97l-12.15-2.84c-4.39-2.38-9.1-1.92-19.92,3.34ZM401.7,742.84l-12.11-2.88c-4.38-2.34-9.1-1.92-19.88,3.38-4.93-6.56-15.7-3.67-19.25,3.3-2.55,5.01,4.8,8.81,14.37,4.97,2.34,3.38,6.77,4.55,15.99-2.67l11.9,3.55c3.93,2.05,8.44,1.67,23.76-1.17,2.34,5.09,9.86,1.55,7.56-3.55-4.55-9.81-15.16-12.57-22.34-4.93ZM364.49,681.74c3.93,1.96,8.44,1.71,23.8-1.17,2.3,5.05,9.86,1.5,7.56-3.55-4.55-9.81-15.12-12.57-34.45-7.81-4.38-2.38-9.06-1.96-19.92,3.38-4.97-6.56-15.7-3.67-19.21,3.3-2.51,4.97,4.89,8.81,14.37,4.97,2.38,3.42,6.81,4.55,15.95-2.67l11.9,3.55ZM351.58,455.78c-19.67,0-36.04,10.69-42.18,25.68l85.11-.17c-6.1-14.95-23.26-25.52-42.93-25.52ZM395.85,677.03c-4.55-9.81-15.12-12.57-34.45-7.81-4.38-2.38-9.06-1.96-19.92,3.38-4.97-6.56-15.7-3.67-19.21,3.3-2.51,4.97,4.89,8.81,14.37,4.97,2.38,3.42,6.81,4.55,15.95-2.67l11.9,3.55c3.93,1.96,8.44,1.71,23.8-1.17,2.3,5.05,9.86,1.5,7.56-3.55ZM424.04,747.77c-4.55-9.81-15.16-12.57-22.34-4.93l-12.11-2.88c-4.38-2.34-9.1-1.92-19.88,3.38-4.93-6.56-15.7-3.67-19.25,3.3-2.55,5.01,4.8,8.81,14.37,4.97,2.34,3.38,6.77,4.55,15.99-2.67l11.9,3.55c3.93,2.05,8.44,1.67,23.76-1.17,2.34,5.09,9.86,1.55,7.56-3.55ZM433.77,701.62c-4.55-9.9-15.16-12.61-22.3-4.97l-12.15-2.84c-4.39-2.38-9.1-1.92-19.92,3.34-4.89-6.56-15.7-3.63-19.21,3.34-2.46,4.97,4.89,8.81,14.37,4.97,5.18,7.39,11.78,2.17,15.99-2.71l11.9,3.51c3.88,2.09,8.44,1.75,23.8-1.09,2.3,5.01,9.77,1.55,7.52-3.55ZM473.61,724.22c-4.51-9.9-15.16-12.57-34.45-7.81-4.34-2.38-9.06-1.96-19.84,3.34-4.93-6.56-15.74-3.63-19.25,3.38-2.46,4.93,4.84,8.73,14.37,4.93,5.22,7.43,11.78,2.13,15.99-2.71l11.9,3.55c3.88,2,8.44,1.71,23.8-1.17,2.3,5.05,9.81,1.55,7.48-3.51ZM474.61,677.07c-4.51-9.86-15.12-12.61-22.3-4.97l-12.19-2.88c-4.38-2.38-9.06-1.92-19.88,3.38-4.97-6.56-15.7-3.67-19.25,3.34-2.46,4.93,4.89,8.77,14.41,4.93,5.22,7.48,11.78,2.17,15.99-2.67l11.9,3.55c3.88,1.96,8.44,1.71,23.8-1.17,2.3,5.05,9.77,1.55,7.52-3.51ZM499.96,719.75c-4.93-6.56-15.66-3.63-19.21,3.38-2.13,4.22,4.18,8.64,11.4,6.89l14.95-11.02-7.14.75ZM515.41,701.62c-4.47-9.9-15.08-12.61-34.45-7.81-4.34-2.38-9.06-1.92-19.84,3.34-4.97-6.56-15.74-3.63-19.25,3.34-2.55,4.97,4.84,8.81,14.37,4.97,2.38,3.38,6.77,4.55,15.99-2.71l11.9,3.51c3.93,2.09,8.44,1.75,23.76-1.09,2.34,5.01,9.86,1.55,7.52-3.55ZM594.21,646.62c-4.51-9.86-15.12-12.61-34.45-7.89-4.38-2.38-9.02-1.92-19.88,3.42-4.97-6.6-15.66-3.67-19.17,3.34-2.63,4.97,4.84,8.77,14.32,4.93,2.3,3.38,6.77,4.51,15.99-2.71l11.86,3.55c3.93,2.05,8.44,1.71,23.8-1.17,2.3,5.09,9.81,1.59,7.52-3.47ZM351.58,455.78c-19.67,0-36.04,10.69-42.18,25.68l85.11-.17c-6.1-14.95-23.26-25.52-42.93-25.52ZM426.84,375.14h84.86l-40.59-84.82v-25.52h10.27v-3.8h-10.27l-3.72-11.36v11.36l-6.01,2.05-5.22,1.75h11.23v25.52l-40.55,84.82ZM1190.22,76.21v57.13c0,13.45-5.6,23.39-26.77,23.39s-26.77-9.94-26.77-23.39v-57.13h-13.07v57.13c0,17.41,6.51,36.62,39.84,36.62s39.8-19.21,39.8-36.62v-57.13h-13.03ZM1047.44,154.81v-78.59h-13.15v91.75h68.2v-13.15h-55.04ZM1013.62,1153.02c-13.53-62.22-47.82-37.25-60.22-24.93-12.36,12.4-43.35,52.49-29.86,114.72,13.53,62.22,47.73,37.25,60.14,24.89,12.4-12.32,43.35-52.45,29.94-114.68ZM978.58,1244.26c-10.52,10.52-27.44,16.16-35.41-20.96-8.1-37.13,4.76-61.18,15.33-71.75,10.57-10.52,27.48-16.12,35.45,20.96,8.1,37.13-4.8,61.22-15.37,71.75ZM998.04,142.03c-4.01,4.76-14.16,14.7-33.53,14.7-24.85,0-37.92-17.5-37.92-33.91,0-22.84,17.66-35.33,34.62-35.33,18.67,0,30.15,10.48,34.29,13.91l9.86-8.39c-4.38-4.3-19.42-18.75-44.27-18.75-26.85,0-47.61,21.55-47.61,48.57s23.3,47.15,47.86,47.15c26.06,0,36.79-8.98,45.44-18.33l-8.73-9.61ZM886.33,1236.24l-24.93,23.51-36.87,184.21,22.8-21.47,7.18-37.63,38.21-36,6.6,24.56,23.51-22.09-36.5-115.09ZM860.27,1353.68l13.53-71.91,12.86,47.06-26.39,24.85ZM841.1,142.03c-4.01,4.76-14.12,14.7-33.53,14.7-24.85,0-37.92-17.5-37.92-33.91,0-22.84,17.71-35.33,34.62-35.33,18.71,0,30.23,10.48,34.33,13.91l9.77-8.39c-4.34-4.3-19.34-18.75-44.18-18.75-26.89,0-47.61,21.55-47.61,48.57s23.26,47.15,47.86,47.15c25.98,0,36.75-8.98,45.35-18.33l-8.69-9.61ZM787.94,1398.53c4.38-7.18,12.7-21.09,12.7-42.51,0-15.37-6.47-32.2-31.86-8.27l-50.24,47.4v149.42l43.77-41.34c21.21-19.92,26.85-30.44,32.74-44.35,5.51-12.82,8.94-27.35,8.94-39.17,0-14.83-3.34-26.23-16.04-21.17ZM739.25,1401.37l24.85-23.34c9.77-9.27,15.79-11.19,15.79,1.04s-6.72,23.05-15.24,31.07l-25.39,23.93v-32.7ZM765.81,1474.16l-26.56,25.01v-39.96l27.56-25.93c7.77-7.31,15.53-9.69,15.53,3.42,0,15.2-6.06,27.56-16.54,37.46ZM716.24,76.21v91.75h13.11v-91.75h-13.11ZM614.93,76.21v13.24h31.82v78.51h13.11v-78.51h31.86v-13.24h-76.8ZM634.39,1448.97v-119.9l-22.13-20.42v149.17l73.58,68.86v-29.23l-51.45-48.48ZM533.2,154.81v-28.02h30.86v-13.24h-30.86v-24.1h61.26v-13.24h-74.38v91.75h76.63v-13.15h-63.52ZM594.21,646.62c-4.51-9.86-15.12-12.61-34.45-7.89-4.38-2.38-9.02-1.92-19.88,3.42-4.97-6.6-15.66-3.67-19.17,3.34-2.63,4.97,4.84,8.77,14.32,4.93,2.3,3.38,6.77,4.51,15.99-2.71l11.86,3.55c3.93,2.05,8.44,1.71,23.8-1.17,2.3,5.09,9.81,1.59,7.52-3.47ZM542.76,1238.33v149.25l19.46,21.84v-149.25l-19.46-21.84ZM515.41,701.62c-4.47-9.9-15.08-12.61-34.45-7.81-4.34-2.38-9.06-1.92-19.84,3.34-4.97-6.56-15.74-3.63-19.25,3.34-2.55,4.97,4.84,8.81,14.37,4.97,2.38,3.38,6.77,4.55,15.99-2.71l11.9,3.51c3.93,2.09,8.44,1.75,23.76-1.09,2.34,5.01,9.86,1.55,7.52-3.55ZM500.34,1258.25c3.93,1.21,11.44,3.67,11.44-17.75,0-15.37-5.85-44.85-28.69-70.49l-45.35-50.82v149.34l39.51,44.31c19.08,21.42,24.14,21.92,29.48,19.54,4.93-2.17,8.06-9.9,8.06-21.76,0-14.78-3.01-32.7-14.45-52.37ZM456.53,1165.96l22.3,25.06c8.81,9.9,14.24,19.75,14.24,32.03s-6.1,9.81-13.74,1.21l-22.8-25.64v-32.66ZM480.37,1290.58l-23.85-26.81v-39.97l24.76,27.85c7.02,7.81,14.03,20.67,14.03,33.83,0,15.2-5.51,15.7-14.95,5.09ZM426.84,375.14h84.86l-40.59-84.82v-25.52h10.27v-3.8h-10.27l-3.72-11.36v11.36l-6.01,2.05-5.22,1.75h11.23v25.52l-40.55,84.82ZM499.96,719.75c-4.93-6.56-15.66-3.63-19.21,3.38-2.13,4.22,4.18,8.64,11.4,6.89l14.95-11.02-7.14.75ZM446.46,154.81v-78.59h-13.07v91.75h68.2v-13.15h-55.12ZM474.61,677.07c-4.51-9.86-15.12-12.61-22.3-4.97l-12.19-2.88c-4.38-2.38-9.06-1.92-19.88,3.38-4.97-6.56-15.7-3.67-19.25,3.34-2.46,4.93,4.89,8.77,14.41,4.93,5.22,7.48,11.78,2.17,15.99-2.67l11.9,3.55c3.88,1.96,8.44,1.71,23.8-1.17,2.3,5.05,9.77,1.55,7.52-3.51ZM473.61,724.22c-4.51-9.9-15.16-12.57-34.45-7.81-4.34-2.38-9.06-1.96-19.84,3.34-4.93-6.56-15.74-3.63-19.25,3.38-2.46,4.93,4.84,8.73,14.37,4.93,5.22,7.43,11.78,2.13,15.99-2.71l11.9,3.55c3.88,2,8.44,1.71,23.8-1.17,2.3,5.05,9.81,1.55,7.48-3.51ZM433.77,701.62c-4.55-9.9-15.16-12.61-22.3-4.97l-12.15-2.84c-4.39-2.38-9.1-1.92-19.92,3.34-4.89-6.56-15.7-3.63-19.21,3.34-2.46,4.97,4.89,8.81,14.37,4.97,5.18,7.39,11.78,2.17,15.99-2.71l11.9,3.51c3.88,2.09,8.44,1.75,23.8-1.09,2.3,5.01,9.77,1.55,7.52-3.55ZM424.04,747.77c-4.55-9.81-15.16-12.57-22.34-4.93l-12.11-2.88c-4.38-2.34-9.1-1.92-19.88,3.38-4.93-6.56-15.7-3.67-19.25,3.3-2.55,5.01,4.8,8.81,14.37,4.97,2.34,3.38,6.77,4.55,15.99-2.67l11.9,3.55c3.93,2.05,8.44,1.67,23.76-1.17,2.34,5.09,9.86,1.55,7.56-3.55ZM395.85,677.03c-4.55-9.81-15.12-12.57-34.45-7.81-4.38-2.38-9.06-1.96-19.92,3.38-4.97-6.56-15.7-3.67-19.21,3.3-2.51,4.97,4.89,8.81,14.37,4.97,2.38,3.42,6.81,4.55,15.95-2.67l11.9,3.55c3.93,1.96,8.44,1.71,23.8-1.17,2.3,5.05,9.86,1.5,7.56-3.55ZM382.78,76.21v37.08h-53.29v-37.08h-13.07v91.75h13.07v-41.47h53.29v41.47h13.07v-91.75h-13.07ZM351.58,455.78c-19.67,0-36.04,10.69-42.18,25.68l85.11-.17c-6.1-14.95-23.26-25.52-42.93-25.52ZM213.48,76.21v13.24h31.86v78.51h13.07v-78.51h31.86v-13.24h-76.8ZM220.75,430.97h-32.03l-39.38,48.4-39.38-48.4h-31.95l53.2,68.86-53.2,69.95h31.95l39.42-48.44,39.38,48.44h31.99l-53.25-69.95,53.25-68.86ZM163.16,76.21h-14.53l-41.05,91.75h14.24l13.49-30.19h40.51l12.99,30.19h14.78l-40.42-91.75ZM141.32,124.57l14.32-31.99,14.28,31.99h-28.61ZM163.16,76.21h-14.53l-41.05,91.75h14.24l13.49-30.19h40.51l12.99,30.19h14.78l-40.42-91.75ZM141.32,124.57l14.32-31.99,14.28,31.99h-28.61ZM220.75,430.97h-32.03l-39.38,48.4-39.38-48.4h-31.95l53.2,68.86-53.2,69.95h31.95l39.42-48.44,39.38,48.44h31.99l-53.25-69.95,53.25-68.86ZM213.48,76.21v13.24h31.86v78.51h13.07v-78.51h31.86v-13.24h-76.8ZM351.58,455.78c-19.67,0-36.04,10.69-42.18,25.68l85.11-.17c-6.1-14.95-23.26-25.52-42.93-25.52ZM382.78,76.21v37.08h-53.29v-37.08h-13.07v91.75h13.07v-41.47h53.29v41.47h13.07v-91.75h-13.07ZM395.85,677.03c-4.55-9.81-15.12-12.57-34.45-7.81-4.38-2.38-9.06-1.96-19.92,3.38-4.97-6.56-15.7-3.67-19.21,3.3-2.51,4.97,4.89,8.81,14.37,4.97,2.38,3.42,6.81,4.55,15.95-2.67l11.9,3.55c3.93,1.96,8.44,1.71,23.8-1.17,2.3,5.05,9.86,1.5,7.56-3.55ZM424.04,747.77c-4.55-9.81-15.16-12.57-22.34-4.93l-12.11-2.88c-4.38-2.34-9.1-1.92-19.88,3.38-4.93-6.56-15.7-3.67-19.25,3.3-2.55,5.01,4.8,8.81,14.37,4.97,2.34,3.38,6.77,4.55,15.99-2.67l11.9,3.55c3.93,2.05,8.44,1.67,23.76-1.17,2.34,5.09,9.86,1.55,7.56-3.55ZM433.77,701.62c-4.55-9.9-15.16-12.61-22.3-4.97l-12.15-2.84c-4.39-2.38-9.1-1.92-19.92,3.34-4.89-6.56-15.7-3.63-19.21,3.34-2.46,4.97,4.89,8.81,14.37,4.97,5.18,7.39,11.78,2.17,15.99-2.71l11.9,3.51c3.88,2.09,8.44,1.75,23.8-1.09,2.3,5.01,9.77,1.55,7.52-3.55ZM473.61,724.22c-4.51-9.9-15.16-12.57-34.45-7.81-4.34-2.38-9.06-1.96-19.84,3.34-4.93-6.56-15.74-3.63-19.25,3.38-2.46,4.93,4.84,8.73,14.37,4.93,5.22,7.43,11.78,2.13,15.99-2.71l11.9,3.55c3.88,2,8.44,1.71,23.8-1.17,2.3,5.05,9.81,1.55,7.48-3.51ZM474.61,677.07c-4.51-9.86-15.12-12.61-22.3-4.97l-12.19-2.88c-4.38-2.38-9.06-1.92-19.88,3.38-4.97-6.56-15.7-3.67-19.25,3.34-2.46,4.93,4.89,8.77,14.41,4.93,5.22,7.48,11.78,2.17,15.99-2.67l11.9,3.55c3.88,1.96,8.44,1.71,23.8-1.17,2.3,5.05,9.77,1.55,7.52-3.51ZM446.46,154.81v-78.59h-13.07v91.75h68.2v-13.15h-55.12ZM426.84,375.14h84.86l-40.59-84.82v-25.52h10.27v-3.8h-10.27l-3.72-11.36v11.36l-6.01,2.05-5.22,1.75h11.23v25.52l-40.55,84.82ZM500.34,1258.25c3.93,1.21,11.44,3.67,11.44-17.75,0-15.37-5.85-44.85-28.69-70.49l-45.35-50.82v149.34l39.51,44.31c19.08,21.42,24.14,21.92,29.48,19.54,4.93-2.17,8.06-9.9,8.06-21.76,0-14.78-3.01-32.7-14.45-52.37ZM456.53,1165.96l22.3,25.06c8.81,9.9,14.24,19.75,14.24,32.03s-6.1,9.81-13.74,1.21l-22.8-25.64v-32.66ZM480.37,1290.58l-23.85-26.81v-39.97l24.76,27.85c7.02,7.81,14.03,20.67,14.03,33.83,0,15.2-5.51,15.7-14.95,5.09ZM515.41,701.62c-4.47-9.9-15.08-12.61-34.45-7.81-4.34-2.38-9.06-1.92-19.84,3.34-4.97-6.56-15.74-3.63-19.25,3.34-2.55,4.97,4.84,8.81,14.37,4.97,2.38,3.38,6.77,4.55,15.99-2.71l11.9,3.51c3.93,2.09,8.44,1.75,23.76-1.09,2.34,5.01,9.86,1.55,7.52-3.55ZM542.76,1238.33v149.25l19.46,21.84v-149.25l-19.46-21.84ZM594.21,646.62c-4.51-9.86-15.12-12.61-34.45-7.89-4.38-2.38-9.02-1.92-19.88,3.42-4.97-6.6-15.66-3.67-19.17,3.34-2.63,4.97,4.84,8.77,14.32,4.93,2.3,3.38,6.77,4.51,15.99-2.71l11.86,3.55c3.93,2.05,8.44,1.71,23.8-1.17,2.3,5.09,9.81,1.59,7.52-3.47ZM533.2,154.81v-28.02h30.86v-13.24h-30.86v-24.1h61.26v-13.24h-74.38v91.75h76.63v-13.15h-63.52ZM634.39,1448.97v-119.9l-22.13-20.42v149.17l73.58,68.86v-29.23l-51.45-48.48ZM614.93,76.21v13.24h31.82v78.51h13.11v-78.51h31.86v-13.24h-76.8ZM716.24,76.21v91.75h13.11v-91.75h-13.11ZM787.94,1398.53c4.38-7.18,12.7-21.09,12.7-42.51,0-15.37-6.47-32.2-31.86-8.27l-50.24,47.4v149.42l43.77-41.34c21.21-19.92,26.85-30.44,32.74-44.35,5.51-12.82,8.94-27.35,8.94-39.17,0-14.83-3.34-26.23-16.04-21.17ZM739.25,1401.37l24.85-23.34c9.77-9.27,15.79-11.19,15.79,1.04s-6.72,23.05-15.24,31.07l-25.39,23.93v-32.7ZM765.81,1474.16l-26.56,25.01v-39.96l27.56-25.93c7.77-7.31,15.53-9.69,15.53,3.42,0,15.2-6.06,27.56-16.54,37.46ZM841.1,142.03c-4.01,4.76-14.12,14.7-33.53,14.7-24.85,0-37.92-17.5-37.92-33.91,0-22.84,17.71-35.33,34.62-35.33,18.71,0,30.23,10.48,34.33,13.91l9.77-8.39c-4.34-4.3-19.34-18.75-44.18-18.75-26.89,0-47.61,21.55-47.61,48.57s23.26,47.15,47.86,47.15c25.98,0,36.75-8.98,45.35-18.33l-8.69-9.61ZM886.33,1236.24l-24.93,23.51-36.87,184.21,22.8-21.47,7.18-37.63,38.21-36,6.6,24.56,23.51-22.09-36.5-115.09ZM860.27,1353.68l13.53-71.91,12.86,47.06-26.39,24.85ZM998.04,142.03c-4.01,4.76-14.16,14.7-33.53,14.7-24.85,0-37.92-17.5-37.92-33.91,0-22.84,17.66-35.33,34.62-35.33,18.67,0,30.15,10.48,34.29,13.91l9.86-8.39c-4.38-4.3-19.42-18.75-44.27-18.75-26.85,0-47.61,21.55-47.61,48.57s23.3,47.15,47.86,47.15c26.06,0,36.79-8.98,45.44-18.33l-8.73-9.61ZM1013.62,1153.02c-13.53-62.22-47.82-37.25-60.22-24.93-12.36,12.4-43.35,52.49-29.86,114.72,13.53,62.22,47.73,37.25,60.14,24.89,12.4-12.32,43.35-52.45,29.94-114.68ZM978.58,1244.26c-10.52,10.52-27.44,16.16-35.41-20.96-8.1-37.13,4.76-61.18,15.33-71.75,10.57-10.52,27.48-16.12,35.45,20.96,8.1,37.13-4.8,61.22-15.37,71.75ZM1047.44,154.81v-78.59h-13.15v91.75h68.2v-13.15h-55.04ZM1190.22,76.21v57.13c0,13.45-5.6,23.39-26.77,23.39s-26.77-9.94-26.77-23.39v-57.13h-13.07v57.13c0,17.41,6.51,36.62,39.84,36.62s39.8-19.21,39.8-36.62v-57.13h-13.03ZM426.84,375.14h84.86l-40.59-84.82v-25.52h10.27v-3.8h-10.27l-3.72-11.36v11.36l-6.01,2.05-5.22,1.75h11.23v25.52l-40.55,84.82ZM351.58,455.78c-19.67,0-36.04,10.69-42.18,25.68l85.11-.17c-6.1-14.95-23.26-25.52-42.93-25.52ZM594.21,646.62c-4.51-9.86-15.12-12.61-34.45-7.89-4.38-2.38-9.02-1.92-19.88,3.42-4.97-6.6-15.66-3.67-19.17,3.34-2.63,4.97,4.84,8.77,14.32,4.93,2.3,3.38,6.77,4.51,15.99-2.71l11.86,3.55c3.93,2.05,8.44,1.71,23.8-1.17,2.3,5.09,9.81,1.59,7.52-3.47ZM480.96,693.81c-4.34-2.38-9.06-1.92-19.84,3.34-4.97-6.56-15.74-3.63-19.25,3.34-2.55,4.97,4.84,8.81,14.37,4.97,2.38,3.38,6.77,4.55,15.99-2.71l11.9,3.51c3.93,2.09,8.44,1.75,23.76-1.09,2.34,5.01,9.86,1.55,7.52-3.55-4.47-9.9-15.08-12.61-34.45-7.81ZM415.39,680.87c5.22,7.48,11.78,2.17,15.99-2.67l11.9,3.55c3.88,1.96,8.44,1.71,23.8-1.17,2.3,5.05,9.77,1.55,7.52-3.51-4.51-9.86-15.12-12.61-22.3-4.97l-12.19-2.88c-4.38-2.38-9.06-1.92-19.88,3.38-4.97-6.56-15.7-3.67-19.25,3.34-2.46,4.93,4.89,8.77,14.41,4.93ZM439.16,716.41c-4.34-2.38-9.06-1.96-19.84,3.34-4.93-6.56-15.74-3.63-19.25,3.38-2.46,4.93,4.84,8.73,14.37,4.93,5.22,7.43,11.78,2.13,15.99-2.71l11.9,3.55c3.88,2,8.44,1.71,23.8-1.17,2.3,5.05,9.81,1.55,7.48-3.51-4.51-9.9-15.16-12.57-34.45-7.81ZM379.4,697.15c-4.89-6.56-15.7-3.63-19.21,3.34-2.46,4.97,4.89,8.81,14.37,4.97,5.18,7.39,11.78,2.17,15.99-2.71l11.9,3.51c3.88,2.09,8.44,1.75,23.8-1.09,2.3,5.01,9.77,1.55,7.52-3.55-4.55-9.9-15.16-12.61-22.3-4.97l-12.15-2.84c-4.39-2.38-9.1-1.92-19.92,3.34ZM401.7,742.84l-12.11-2.88c-4.38-2.34-9.1-1.92-19.88,3.38-4.93-6.56-15.7-3.67-19.25,3.3-2.55,5.01,4.8,8.81,14.37,4.97,2.34,3.38,6.77,4.55,15.99-2.67l11.9,3.55c3.93,2.05,8.44,1.67,23.76-1.17,2.34,5.09,9.86,1.55,7.56-3.55-4.55-9.81-15.16-12.57-22.34-4.93ZM364.49,681.74c3.93,1.96,8.44,1.71,23.8-1.17,2.3,5.05,9.86,1.5,7.56-3.55-4.55-9.81-15.12-12.57-34.45-7.81-4.38-2.38-9.06-1.96-19.92,3.38-4.97-6.56-15.7-3.67-19.21,3.3-2.51,4.97,4.89,8.81,14.37,4.97,2.38,3.42,6.81,4.55,15.95-2.67l11.9,3.55ZM594.21,646.62c-4.51-9.86-15.12-12.61-34.45-7.89-4.38-2.38-9.02-1.92-19.88,3.42-4.97-6.6-15.66-3.67-19.17,3.34-2.63,4.97,4.84,8.77,14.32,4.93,2.3,3.38,6.77,4.51,15.99-2.71l11.86,3.55c3.93,2.05,8.44,1.71,23.8-1.17,2.3,5.09,9.81,1.59,7.52-3.47ZM480.96,693.81c-4.34-2.38-9.06-1.92-19.84,3.34-4.97-6.56-15.74-3.63-19.25,3.34-2.55,4.97,4.84,8.81,14.37,4.97,2.38,3.38,6.77,4.55,15.99-2.71l11.9,3.51c3.93,2.09,8.44,1.75,23.76-1.09,2.34,5.01,9.86,1.55,7.52-3.55-4.47-9.9-15.08-12.61-34.45-7.81ZM426.84,375.14h84.86l-40.59-84.82v-25.52h10.27v-3.8h-10.27l-3.72-11.36v11.36l-6.01,2.05-5.22,1.75h11.23v25.52l-40.55,84.82ZM480.75,723.13c-2.13,4.22,4.18,8.64,11.4,6.89l14.95-11.02-7.14.75c-4.93-6.56-15.66-3.63-19.21,3.38ZM458.16,743.34c-4.89-6.56-15.66-3.67-19.25,3.38-2.46,4.93,4.89,8.73,7.43,3.76.92-1.88,5.35-1.09,9.02,6.77l22.38-16.54c-4.26-1.71-10.11-2-19.59,2.63ZM415.39,680.87c5.22,7.48,11.78,2.17,15.99-2.67l11.9,3.55c3.88,1.96,8.44,1.71,23.8-1.17,2.3,5.05,9.77,1.55,7.52-3.51-4.51-9.86-15.12-12.61-22.3-4.97l-12.19-2.88c-4.38-2.38-9.06-1.92-19.88,3.38-4.97-6.56-15.7-3.67-19.25,3.34-2.46,4.93,4.89,8.77,14.41,4.93ZM466.13,727.72c2.3,5.05,9.81,1.55,7.48-3.51-4.51-9.9-15.16-12.57-34.45-7.81-4.34-2.38-9.06-1.96-19.84,3.34-4.93-6.56-15.74-3.63-19.25,3.38-2.46,4.93,4.84,8.73,14.37,4.93,5.22,7.43,11.78,2.13,15.99-2.71l11.9,3.55c3.88,2,8.44,1.71,23.8-1.17ZM379.4,697.15c-4.89-6.56-15.7-3.63-19.21,3.34-2.46,4.97,4.89,8.81,14.37,4.97,5.18,7.39,11.78,2.17,15.99-2.71l11.9,3.51c3.88,2.09,8.44,1.75,23.8-1.09,2.3,5.01,9.77,1.55,7.52-3.55-4.55-9.9-15.16-12.61-22.3-4.97l-12.15-2.84c-4.39-2.38-9.1-1.92-19.92,3.34ZM401.7,742.84l-12.11-2.88c-4.38-2.34-9.1-1.92-19.88,3.38-4.93-6.56-15.7-3.67-19.25,3.3-2.55,5.01,4.8,8.81,14.37,4.97,2.34,3.38,6.77,4.55,15.99-2.67l11.9,3.55c3.93,2.05,8.44,1.67,23.76-1.17,2.34,5.09,9.86,1.55,7.56-3.55-4.55-9.81-15.16-12.57-22.34-4.93ZM364.49,681.74c3.93,1.96,8.44,1.71,23.8-1.17,2.3,5.05,9.86,1.5,7.56-3.55-4.55-9.81-15.12-12.57-34.45-7.81-4.38-2.38-9.06-1.96-19.92,3.38-4.97-6.56-15.7-3.67-19.21,3.3-2.51,4.97,4.89,8.81,14.37,4.97,2.38,3.42,6.81,4.55,15.95-2.67l11.9,3.55ZM351.58,455.78c-19.67,0-36.04,10.69-42.18,25.68l85.11-.17c-6.1-14.95-23.26-25.52-42.93-25.52ZM1308.41,119.64c3.26-3.3,8.1-8.44,8.1-18.46,0-17.37-13.15-24.97-26.64-24.97h-51.78v91.75h51.78c17.58,0,30.94-9.19,30.94-26.64,0-11.53-7.31-19.34-12.4-21.67ZM1251.11,89.45h38.75c9.23,0,13.53,4.38,13.53,11.73,0,8.14-4.59,13.45-13.53,13.45h-38.75v-25.18ZM1289.87,154.81h-38.75v-26.94h38.75c13.7,0,17.92,5.26,17.92,13.45,0,8.77-5.72,13.49-17.92,13.49ZM1349.08,430.97h-31.99l-39.38,48.4-39.38-48.4h-31.99l53.25,68.86-53.25,69.95h31.99l39.38-48.44,39.38,48.44h31.99l-53.2-69.95,53.2-68.86ZM163.16,76.21h-14.53l-41.05,91.75h14.24l13.49-30.19h40.51l12.99,30.19h14.78l-40.42-91.75ZM141.32,124.57l14.32-31.99,14.28,31.99h-28.61ZM220.75,430.97h-32.03l-39.38,48.4-39.38-48.4h-31.95l53.2,68.86-53.2,69.95h31.95l39.42-48.44,39.38,48.44h31.99l-53.25-69.95,53.25-68.86ZM213.48,76.21v13.24h31.86v78.51h13.07v-78.51h31.86v-13.24h-76.8ZM351.58,455.78c-19.67,0-36.04,10.69-42.18,25.68l85.11-.17c-6.1-14.95-23.26-25.52-42.93-25.52ZM382.78,76.21v37.08h-53.29v-37.08h-13.07v91.75h13.07v-41.47h53.29v41.47h13.07v-91.75h-13.07ZM395.85,677.03c-4.55-9.81-15.12-12.57-34.45-7.81-4.38-2.38-9.06-1.96-19.92,3.38-4.97-6.56-15.7-3.67-19.21,3.3-2.51,4.97,4.89,8.81,14.37,4.97,2.38,3.42,6.81,4.55,15.95-2.67l11.9,3.55c3.93,1.96,8.44,1.71,23.8-1.17,2.3,5.05,9.86,1.5,7.56-3.55ZM424.04,747.77c-4.55-9.81-15.16-12.57-22.34-4.93l-12.11-2.88c-4.38-2.34-9.1-1.92-19.88,3.38-4.93-6.56-15.7-3.67-19.25,3.3-2.55,5.01,4.8,8.81,14.37,4.97,2.34,3.38,6.77,4.55,15.99-2.67l11.9,3.55c3.93,2.05,8.44,1.67,23.76-1.17,2.34,5.09,9.86,1.55,7.56-3.55ZM433.77,701.62c-4.55-9.9-15.16-12.61-22.3-4.97l-12.15-2.84c-4.39-2.38-9.1-1.92-19.92,3.34-4.89-6.56-15.7-3.63-19.21,3.34-2.46,4.97,4.89,8.81,14.37,4.97,5.18,7.39,11.78,2.17,15.99-2.71l11.9,3.51c3.88,2.09,8.44,1.75,23.8-1.09,2.3,5.01,9.77,1.55,7.52-3.55ZM473.61,724.22c-4.51-9.9-15.16-12.57-34.45-7.81-4.34-2.38-9.06-1.96-19.84,3.34-4.93-6.56-15.74-3.63-19.25,3.38-2.46,4.93,4.84,8.73,14.37,4.93,5.22,7.43,11.78,2.13,15.99-2.71l11.9,3.55c3.88,2,8.44,1.71,23.8-1.17,2.3,5.05,9.81,1.55,7.48-3.51ZM474.61,677.07c-4.51-9.86-15.12-12.61-22.3-4.97l-12.19-2.88c-4.38-2.38-9.06-1.92-19.88,3.38-4.97-6.56-15.7-3.67-19.25,3.34-2.46,4.93,4.89,8.77,14.41,4.93,5.22,7.48,11.78,2.17,15.99-2.67l11.9,3.55c3.88,1.96,8.44,1.71,23.8-1.17,2.3,5.05,9.77,1.55,7.52-3.51ZM446.46,154.81v-78.59h-13.07v91.75h68.2v-13.15h-55.12ZM426.84,375.14h84.86l-40.59-84.82v-25.52h10.27v-3.8h-10.27l-3.72-11.36v11.36l-6.01,2.05-5.22,1.75h11.23v25.52l-40.55,84.82ZM500.34,1258.25c3.93,1.21,11.44,3.67,11.44-17.75,0-15.37-5.85-44.85-28.69-70.49l-45.35-50.82v149.34l39.51,44.31c19.08,21.42,24.14,21.92,29.48,19.54,4.93-2.17,8.06-9.9,8.06-21.76,0-14.78-3.01-32.7-14.45-52.37ZM456.53,1165.96l22.3,25.06c8.81,9.9,14.24,19.75,14.24,32.03s-6.1,9.81-13.74,1.21l-22.8-25.64v-32.66ZM480.37,1290.58l-23.85-26.81v-39.97l24.76,27.85c7.02,7.81,14.03,20.67,14.03,33.83,0,15.2-5.51,15.7-14.95,5.09ZM515.41,701.62c-4.47-9.9-15.08-12.61-34.45-7.81-4.34-2.38-9.06-1.92-19.84,3.34-4.97-6.56-15.74-3.63-19.25,3.34-2.55,4.97,4.84,8.81,14.37,4.97,2.38,3.38,6.77,4.55,15.99-2.71l11.9,3.51c3.93,2.09,8.44,1.75,23.76-1.09,2.34,5.01,9.86,1.55,7.52-3.55ZM542.76,1238.33v149.25l19.46,21.84v-149.25l-19.46-21.84ZM594.21,646.62c-4.51-9.86-15.12-12.61-34.45-7.89-4.38-2.38-9.02-1.92-19.88,3.42-4.97-6.6-15.66-3.67-19.17,3.34-2.63,4.97,4.84,8.77,14.32,4.93,2.3,3.38,6.77,4.51,15.99-2.71l11.86,3.55c3.93,2.05,8.44,1.71,23.8-1.17,2.3,5.09,9.81,1.59,7.52-3.47ZM533.2,154.81v-28.02h30.86v-13.24h-30.86v-24.1h61.26v-13.24h-74.38v91.75h76.63v-13.15h-63.52ZM634.39,1448.97v-119.9l-22.13-20.42v149.17l73.58,68.86v-29.23l-51.45-48.48ZM614.93,76.21v13.24h31.82v78.51h13.11v-78.51h31.86v-13.24h-76.8ZM716.24,76.21v91.75h13.11v-91.75h-13.11ZM787.94,1398.53c4.38-7.18,12.7-21.09,12.7-42.51,0-15.37-6.47-32.2-31.86-8.27l-50.24,47.4v149.42l43.77-41.34c21.21-19.92,26.85-30.44,32.74-44.35,5.51-12.82,8.94-27.35,8.94-39.17,0-14.83-3.34-26.23-16.04-21.17ZM739.25,1401.37l24.85-23.34c9.77-9.27,15.79-11.19,15.79,1.04s-6.72,23.05-15.24,31.07l-25.39,23.93v-32.7ZM765.81,1474.16l-26.56,25.01v-39.96l27.56-25.93c7.77-7.31,15.53-9.69,15.53,3.42,0,15.2-6.06,27.56-16.54,37.46ZM841.1,142.03c-4.01,4.76-14.12,14.7-33.53,14.7-24.85,0-37.92-17.5-37.92-33.91,0-22.84,17.71-35.33,34.62-35.33,18.71,0,30.23,10.48,34.33,13.91l9.77-8.39c-4.34-4.3-19.34-18.75-44.18-18.75-26.89,0-47.61,21.55-47.61,48.57s23.26,47.15,47.86,47.15c25.98,0,36.75-8.98,45.35-18.33l-8.69-9.61ZM886.33,1236.24l-24.93,23.51-36.87,184.21,22.8-21.47,7.18-37.63,38.21-36,6.6,24.56,23.51-22.09-36.5-115.09ZM860.27,1353.68l13.53-71.91,12.86,47.06-26.39,24.85ZM998.04,142.03c-4.01,4.76-14.16,14.7-33.53,14.7-24.85,0-37.92-17.5-37.92-33.91,0-22.84,17.66-35.33,34.62-35.33,18.67,0,30.15,10.48,34.29,13.91l9.86-8.39c-4.38-4.3-19.42-18.75-44.27-18.75-26.85,0-47.61,21.55-47.61,48.57s23.3,47.15,47.86,47.15c26.06,0,36.79-8.98,45.44-18.33l-8.73-9.61ZM1013.62,1153.02c-13.53-62.22-47.82-37.25-60.22-24.93-12.36,12.4-43.35,52.49-29.86,114.72,13.53,62.22,47.73,37.25,60.14,24.89,12.4-12.32,43.35-52.45,29.94-114.68ZM978.58,1244.26c-10.52,10.52-27.44,16.16-35.41-20.96-8.1-37.13,4.76-61.18,15.33-71.75,10.57-10.52,27.48-16.12,35.45,20.96,8.1,37.13-4.8,61.22-15.37,71.75ZM1047.44,154.81v-78.59h-13.15v91.75h68.2v-13.15h-55.04ZM1190.22,76.21v57.13c0,13.45-5.6,23.39-26.77,23.39s-26.77-9.94-26.77-23.39v-57.13h-13.07v57.13c0,17.41,6.51,36.62,39.84,36.62s39.8-19.21,39.8-36.62v-57.13h-13.03ZM426.84,375.14h84.86l-40.59-84.82v-25.52h10.27v-3.8h-10.27l-3.72-11.36v11.36l-6.01,2.05-5.22,1.75h11.23v25.52l-40.55,84.82ZM351.58,455.78c-19.67,0-36.04,10.69-42.18,25.68l85.11-.17c-6.1-14.95-23.26-25.52-42.93-25.52ZM594.21,646.62c-4.51-9.86-15.12-12.61-34.45-7.89-4.38-2.38-9.02-1.92-19.88,3.42-4.97-6.6-15.66-3.67-19.17,3.34-2.63,4.97,4.84,8.77,14.32,4.93,2.3,3.38,6.77,4.51,15.99-2.71l11.86,3.55c3.93,2.05,8.44,1.71,23.8-1.17,2.3,5.09,9.81,1.59,7.52-3.47ZM480.96,693.81c-4.34-2.38-9.06-1.92-19.84,3.34-4.97-6.56-15.74-3.63-19.25,3.34-2.55,4.97,4.84,8.81,14.37,4.97,2.38,3.38,6.77,4.55,15.99-2.71l11.9,3.51c3.93,2.09,8.44,1.75,23.76-1.09,2.34,5.01,9.86,1.55,7.52-3.55-4.47-9.9-15.08-12.61-34.45-7.81ZM415.39,680.87c5.22,7.48,11.78,2.17,15.99-2.67l11.9,3.55c3.88,1.96,8.44,1.71,23.8-1.17,2.3,5.05,9.77,1.55,7.52-3.51-4.51-9.86-15.12-12.61-22.3-4.97l-12.19-2.88c-4.38-2.38-9.06-1.92-19.88,3.38-4.97-6.56-15.7-3.67-19.25,3.34-2.46,4.93,4.89,8.77,14.41,4.93ZM439.16,716.41c-4.34-2.38-9.06-1.96-19.84,3.34-4.93-6.56-15.74-3.63-19.25,3.38-2.46,4.93,4.84,8.73,14.37,4.93,5.22,7.43,11.78,2.13,15.99-2.71l11.9,3.55c3.88,2,8.44,1.71,23.8-1.17,2.3,5.05,9.81,1.55,7.48-3.51-4.51-9.9-15.16-12.57-34.45-7.81ZM379.4,697.15c-4.89-6.56-15.7-3.63-19.21,3.34-2.46,4.97,4.89,8.81,14.37,4.97,5.18,7.39,11.78,2.17,15.99-2.71l11.9,3.51c3.88,2.09,8.44,1.75,23.8-1.09,2.3,5.01,9.77,1.55,7.52-3.55-4.55-9.9-15.16-12.61-22.3-4.97l-12.15-2.84c-4.39-2.38-9.1-1.92-19.92,3.34ZM401.7,742.84l-12.11-2.88c-4.38-2.34-9.1-1.92-19.88,3.38-4.93-6.56-15.7-3.67-19.25,3.3-2.55,5.01,4.8,8.81,14.37,4.97,2.34,3.38,6.77,4.55,15.99-2.67l11.9,3.55c3.93,2.05,8.44,1.67,23.76-1.17,2.34,5.09,9.86,1.55,7.56-3.55-4.55-9.81-15.16-12.57-22.34-4.93ZM364.49,681.74c3.93,1.96,8.44,1.71,23.8-1.17,2.3,5.05,9.86,1.5,7.56-3.55-4.55-9.81-15.12-12.57-34.45-7.81-4.38-2.38-9.06-1.96-19.92,3.38-4.97-6.56-15.7-3.67-19.21,3.3-2.51,4.97,4.89,8.81,14.37,4.97,2.38,3.42,6.81,4.55,15.95-2.67l11.9,3.55ZM594.21,646.62c-4.51-9.86-15.12-12.61-34.45-7.89-4.38-2.38-9.02-1.92-19.88,3.42-4.97-6.6-15.66-3.67-19.17,3.34-2.63,4.97,4.84,8.77,14.32,4.93,2.3,3.38,6.77,4.51,15.99-2.71l11.86,3.55c3.93,2.05,8.44,1.71,23.8-1.17,2.3,5.09,9.81,1.59,7.52-3.47ZM480.96,693.81c-4.34-2.38-9.06-1.92-19.84,3.34-4.97-6.56-15.74-3.63-19.25,3.34-2.55,4.97,4.84,8.81,14.37,4.97,2.38,3.38,6.77,4.55,15.99-2.71l11.9,3.51c3.93,2.09,8.44,1.75,23.76-1.09,2.34,5.01,9.86,1.55,7.52-3.55-4.47-9.9-15.08-12.61-34.45-7.81ZM426.84,375.14h84.86l-40.59-84.82v-25.52h10.27v-3.8h-10.27l-3.72-11.36v11.36l-6.01,2.05-5.22,1.75h11.23v25.52l-40.55,84.82ZM480.75,723.13c-2.13,4.22,4.18,8.64,11.4,6.89l14.95-11.02-7.14.75c-4.93-6.56-15.66-3.63-19.21,3.38ZM458.16,743.34c-4.89-6.56-15.66-3.67-19.25,3.38-2.46,4.93,4.89,8.73,7.43,3.76.92-1.88,5.35-1.09,9.02,6.77l22.38-16.54c-4.26-1.71-10.11-2-19.59,2.63ZM415.39,680.87c5.22,7.48,11.78,2.17,15.99-2.67l11.9,3.55c3.88,1.96,8.44,1.71,23.8-1.17,2.3,5.05,9.77,1.55,7.52-3.51-4.51-9.86-15.12-12.61-22.3-4.97l-12.19-2.88c-4.38-2.38-9.06-1.92-19.88,3.38-4.97-6.56-15.7-3.67-19.25,3.34-2.46,4.93,4.89,8.77,14.41,4.93ZM466.13,727.72c2.3,5.05,9.81,1.55,7.48-3.51-4.51-9.9-15.16-12.57-34.45-7.81-4.34-2.38-9.06-1.96-19.84,3.34-4.93-6.56-15.74-3.63-19.25,3.38-2.46,4.93,4.84,8.73,14.37,4.93,5.22,7.43,11.78,2.13,15.99-2.71l11.9,3.55c3.88,2,8.44,1.71,23.8-1.17ZM379.4,697.15c-4.89-6.56-15.7-3.63-19.21,3.34-2.46,4.97,4.89,8.81,14.37,4.97,5.18,7.39,11.78,2.17,15.99-2.71l11.9,3.51c3.88,2.09,8.44,1.75,23.8-1.09,2.3,5.01,9.77,1.55,7.52-3.55-4.55-9.9-15.16-12.61-22.3-4.97l-12.15-2.84c-4.39-2.38-9.1-1.92-19.92,3.34ZM401.7,742.84l-12.11-2.88c-4.38-2.34-9.1-1.92-19.88,3.38-4.93-6.56-15.7-3.67-19.25,3.3-2.55,5.01,4.8,8.81,14.37,4.97,2.34,3.38,6.77,4.55,15.99-2.67l11.9,3.55c3.93,2.05,8.44,1.67,23.76-1.17,2.34,5.09,9.86,1.55,7.56-3.55-4.55-9.81-15.16-12.57-22.34-4.93ZM364.49,681.74c3.93,1.96,8.44,1.71,23.8-1.17,2.3,5.05,9.86,1.5,7.56-3.55-4.55-9.81-15.12-12.57-34.45-7.81-4.38-2.38-9.06-1.96-19.92,3.38-4.97-6.56-15.7-3.67-19.21,3.3-2.51,4.97,4.89,8.81,14.37,4.97,2.38,3.42,6.81,4.55,15.95-2.67l11.9,3.55ZM351.58,455.78c-19.67,0-36.04,10.69-42.18,25.68l85.11-.17c-6.1-14.95-23.26-25.52-42.93-25.52ZM1308.41,119.64c3.26-3.3,8.1-8.44,8.1-18.46,0-17.37-13.15-24.97-26.64-24.97h-51.78v91.75h51.78c17.58,0,30.94-9.19,30.94-26.64,0-11.53-7.31-19.34-12.4-21.67ZM1251.11,89.45h38.75c9.23,0,13.53,4.38,13.53,11.73,0,8.14-4.59,13.45-13.53,13.45h-38.75v-25.18ZM1289.87,154.81h-38.75v-26.94h38.75c13.7,0,17.92,5.26,17.92,13.45,0,8.77-5.72,13.49-17.92,13.49ZM1349.08,430.97h-31.99l-39.38,48.4-39.38-48.4h-31.99l53.25,68.86-53.25,69.95h31.99l39.38-48.44,39.38,48.44h31.99l-53.2-69.95,53.2-68.86ZM1349.08,430.97h-31.99l-39.38,48.4-39.38-48.4h-31.99l53.25,68.86-53.25,69.95h31.99l39.38-48.44,39.38,48.44h31.99l-53.2-69.95,53.2-68.86ZM1308.41,119.64c3.26-3.3,8.1-8.44,8.1-18.46,0-17.37-13.15-24.97-26.64-24.97h-51.78v91.75h51.78c17.58,0,30.94-9.19,30.94-26.64,0-11.53-7.31-19.34-12.4-21.67ZM1251.11,89.45h38.75c9.23,0,13.53,4.38,13.53,11.73,0,8.14-4.59,13.45-13.53,13.45h-38.75v-25.18ZM1289.87,154.81h-38.75v-26.94h38.75c13.7,0,17.92,5.26,17.92,13.45,0,8.77-5.72,13.49-17.92,13.49ZM351.58,455.78c-19.67,0-36.04,10.69-42.18,25.68l85.11-.17c-6.1-14.95-23.26-25.52-42.93-25.52ZM395.85,677.03c-4.55-9.81-15.12-12.57-34.45-7.81-4.38-2.38-9.06-1.96-19.92,3.38-4.97-6.56-15.7-3.67-19.21,3.3-2.51,4.97,4.89,8.81,14.37,4.97,2.38,3.42,6.81,4.55,15.95-2.67l11.9,3.55c3.93,1.96,8.44,1.71,23.8-1.17,2.3,5.05,9.86,1.5,7.56-3.55ZM424.04,747.77c-4.55-9.81-15.16-12.57-22.34-4.93l-12.11-2.88c-4.38-2.34-9.1-1.92-19.88,3.38-4.93-6.56-15.7-3.67-19.25,3.3-2.55,5.01,4.8,8.81,14.37,4.97,2.34,3.38,6.77,4.55,15.99-2.67l11.9,3.55c3.93,2.05,8.44,1.67,23.76-1.17,2.34,5.09,9.86,1.55,7.56-3.55ZM433.77,701.62c-4.55-9.9-15.16-12.61-22.3-4.97l-12.15-2.84c-4.39-2.38-9.1-1.92-19.92,3.34-4.89-6.56-15.7-3.63-19.21,3.34-2.46,4.97,4.89,8.81,14.37,4.97,5.18,7.39,11.78,2.17,15.99-2.71l11.9,3.51c3.88,2.09,8.44,1.75,23.8-1.09,2.3,5.01,9.77,1.55,7.52-3.55ZM473.61,724.22c-4.51-9.9-15.16-12.57-34.45-7.81-4.34-2.38-9.06-1.96-19.84,3.34-4.93-6.56-15.74-3.63-19.25,3.38-2.46,4.93,4.84,8.73,14.37,4.93,5.22,7.43,11.78,2.13,15.99-2.71l11.9,3.55c3.88,2,8.44,1.71,23.8-1.17,2.3,5.05,9.81,1.55,7.48-3.51ZM474.61,677.07c-4.51-9.86-15.12-12.61-22.3-4.97l-12.19-2.88c-4.38-2.38-9.06-1.92-19.88,3.38-4.97-6.56-15.7-3.67-19.25,3.34-2.46,4.93,4.89,8.77,14.41,4.93,5.22,7.48,11.78,2.17,15.99-2.67l11.9,3.55c3.88,1.96,8.44,1.71,23.8-1.17,2.3,5.05,9.77,1.55,7.52-3.51ZM426.84,375.14h84.86l-40.59-84.82v-25.52h10.27v-3.8h-10.27l-3.72-11.36v11.36l-6.01,2.05-5.22,1.75h11.23v25.52l-40.55,84.82ZM515.41,701.62c-4.47-9.9-15.08-12.61-34.45-7.81-4.34-2.38-9.06-1.92-19.84,3.34-4.97-6.56-15.74-3.63-19.25,3.34-2.55,4.97,4.84,8.81,14.37,4.97,2.38,3.38,6.77,4.55,15.99-2.71l11.9,3.51c3.93,2.09,8.44,1.75,23.76-1.09,2.34,5.01,9.86,1.55,7.52-3.55ZM594.21,646.62c-4.51-9.86-15.12-12.61-34.45-7.89-4.38-2.38-9.02-1.92-19.88,3.42-4.97-6.6-15.66-3.67-19.17,3.34-2.63,4.97,4.84,8.77,14.32,4.93,2.3,3.38,6.77,4.51,15.99-2.71l11.86,3.55c3.93,2.05,8.44,1.71,23.8-1.17,2.3,5.09,9.81,1.59,7.52-3.47ZM594.21,646.62c-4.51-9.86-15.12-12.61-34.45-7.89-4.38-2.38-9.02-1.92-19.88,3.42-4.97-6.6-15.66-3.67-19.17,3.34-2.63,4.97,4.84,8.77,14.32,4.93,2.3,3.38,6.77,4.51,15.99-2.71l11.86,3.55c3.93,2.05,8.44,1.71,23.8-1.17,2.3,5.09,9.81,1.59,7.52-3.47ZM480.96,693.81c-4.34-2.38-9.06-1.92-19.84,3.34-4.97-6.56-15.74-3.63-19.25,3.34-2.55,4.97,4.84,8.81,14.37,4.97,2.38,3.38,6.77,4.55,15.99-2.71l11.9,3.51c3.93,2.09,8.44,1.75,23.76-1.09,2.34,5.01,9.86,1.55,7.52-3.55-4.47-9.9-15.08-12.61-34.45-7.81ZM415.39,680.87c5.22,7.48,11.78,2.17,15.99-2.67l11.9,3.55c3.88,1.96,8.44,1.71,23.8-1.17,2.3,5.05,9.77,1.55,7.52-3.51-4.51-9.86-15.12-12.61-22.3-4.97l-12.19-2.88c-4.38-2.38-9.06-1.92-19.88,3.38-4.97-6.56-15.7-3.67-19.25,3.34-2.46,4.93,4.89,8.77,14.41,4.93ZM439.16,716.41c-4.34-2.38-9.06-1.96-19.84,3.34-4.93-6.56-15.74-3.63-19.25,3.38-2.46,4.93,4.84,8.73,14.37,4.93,5.22,7.43,11.78,2.13,15.99-2.71l11.9,3.55c3.88,2,8.44,1.71,23.8-1.17,2.3,5.05,9.81,1.55,7.48-3.51-4.51-9.9-15.16-12.57-34.45-7.81ZM379.4,697.15c-4.89-6.56-15.7-3.63-19.21,3.34-2.46,4.97,4.89,8.81,14.37,4.97,5.18,7.39,11.78,2.17,15.99-2.71l11.9,3.51c3.88,2.09,8.44,1.75,23.8-1.09,2.3,5.01,9.77,1.55,7.52-3.55-4.55-9.9-15.16-12.61-22.3-4.97l-12.15-2.84c-4.39-2.38-9.1-1.92-19.92,3.34ZM401.7,742.84l-12.11-2.88c-4.38-2.34-9.1-1.92-19.88,3.38-4.93-6.56-15.7-3.67-19.25,3.3-2.55,5.01,4.8,8.81,14.37,4.97,2.34,3.38,6.77,4.55,15.99-2.67l11.9,3.55c3.93,2.05,8.44,1.67,23.76-1.17,2.34,5.09,9.86,1.55,7.56-3.55-4.55-9.81-15.16-12.57-22.34-4.93ZM364.49,681.74c3.93,1.96,8.44,1.71,23.8-1.17,2.3,5.05,9.86,1.5,7.56-3.55-4.55-9.81-15.12-12.57-34.45-7.81-4.38-2.38-9.06-1.96-19.92,3.38-4.97-6.56-15.7-3.67-19.21,3.3-2.51,4.97,4.89,8.81,14.37,4.97,2.38,3.42,6.81,4.55,15.95-2.67l11.9,3.55ZM426.84,375.14h84.86l-40.59-84.82v-25.52h10.27v-3.8h-10.27l-3.72-11.36v11.36l-6.01,2.05-5.22,1.75h11.23v25.52l-40.55,84.82ZM351.58,455.78c-19.67,0-36.04,10.69-42.18,25.68l85.11-.17c-6.1-14.95-23.26-25.52-42.93-25.52ZM594.21,646.62c-4.51-9.86-15.12-12.61-34.45-7.89-4.38-2.38-9.02-1.92-19.88,3.42-4.97-6.6-15.66-3.67-19.17,3.34-2.63,4.97,4.84,8.77,14.32,4.93,2.3,3.38,6.77,4.51,15.99-2.71l11.86,3.55c3.93,2.05,8.44,1.71,23.8-1.17,2.3,5.09,9.81,1.59,7.52-3.47ZM480.96,693.81c-4.34-2.38-9.06-1.92-19.84,3.34-4.97-6.56-15.74-3.63-19.25,3.34-2.55,4.97,4.84,8.81,14.37,4.97,2.38,3.38,6.77,4.55,15.99-2.71l11.9,3.51c3.93,2.09,8.44,1.75,23.76-1.09,2.34,5.01,9.86,1.55,7.52-3.55-4.47-9.9-15.08-12.61-34.45-7.81ZM426.84,375.14h84.86l-40.59-84.82v-25.52h10.27v-3.8h-10.27l-3.72-11.36v11.36l-6.01,2.05-5.22,1.75h11.23v25.52l-40.55,84.82ZM480.75,723.13c-2.13,4.22,4.18,8.64,11.4,6.89l14.95-11.02-7.14.75c-4.93-6.56-15.66-3.63-19.21,3.38ZM458.16,743.34c-4.89-6.56-15.66-3.67-19.25,3.38-2.46,4.93,4.89,8.73,7.43,3.76.92-1.88,5.35-1.09,9.02,6.77l22.38-16.54c-4.26-1.71-10.11-2-19.59,2.63ZM415.39,680.87c5.22,7.48,11.78,2.17,15.99-2.67l11.9,3.55c3.88,1.96,8.44,1.71,23.8-1.17,2.3,5.05,9.77,1.55,7.52-3.51-4.51-9.86-15.12-12.61-22.3-4.97l-12.19-2.88c-4.38-2.38-9.06-1.92-19.88,3.38-4.97-6.56-15.7-3.67-19.25,3.34-2.46,4.93,4.89,8.77,14.41,4.93ZM466.13,727.72c2.3,5.05,9.81,1.55,7.48-3.51-4.51-9.9-15.16-12.57-34.45-7.81-4.34-2.38-9.06-1.96-19.84,3.34-4.93-6.56-15.74-3.63-19.25,3.38-2.46,4.93,4.84,8.73,14.37,4.93,5.22,7.43,11.78,2.13,15.99-2.71l11.9,3.55c3.88,2,8.44,1.71,23.8-1.17ZM379.4,697.15c-4.89-6.56-15.7-3.63-19.21,3.34-2.46,4.97,4.89,8.81,14.37,4.97,5.18,7.39,11.78,2.17,15.99-2.71l11.9,3.51c3.88,2.09,8.44,1.75,23.8-1.09,2.3,5.01,9.77,1.55,7.52-3.55-4.55-9.9-15.16-12.61-22.3-4.97l-12.15-2.84c-4.39-2.38-9.1-1.92-19.92,3.34ZM401.7,742.84l-12.11-2.88c-4.38-2.34-9.1-1.92-19.88,3.38-4.93-6.56-15.7-3.67-19.25,3.3-2.55,5.01,4.8,8.81,14.37,4.97,2.34,3.38,6.77,4.55,15.99-2.67l11.9,3.55c3.93,2.05,8.44,1.67,23.76-1.17,2.34,5.09,9.86,1.55,7.56-3.55-4.55-9.81-15.16-12.57-22.34-4.93ZM364.49,681.74c3.93,1.96,8.44,1.71,23.8-1.17,2.3,5.05,9.86,1.5,7.56-3.55-4.55-9.81-15.12-12.57-34.45-7.81-4.38-2.38-9.06-1.96-19.92,3.38-4.97-6.56-15.7-3.67-19.21,3.3-2.51,4.97,4.89,8.81,14.37,4.97,2.38,3.42,6.81,4.55,15.95-2.67l11.9,3.55ZM351.58,455.78c-19.67,0-36.04,10.69-42.18,25.68l85.11-.17c-6.1-14.95-23.26-25.52-42.93-25.52ZM395.85,677.03c-4.55-9.81-15.12-12.57-34.45-7.81-4.38-2.38-9.06-1.96-19.92,3.38-4.97-6.56-15.7-3.67-19.21,3.3-2.51,4.97,4.89,8.81,14.37,4.97,2.38,3.42,6.81,4.55,15.95-2.67l11.9,3.55c3.93,1.96,8.44,1.71,23.8-1.17,2.3,5.05,9.86,1.5,7.56-3.55ZM424.04,747.77c-4.55-9.81-15.16-12.57-22.34-4.93l-12.11-2.88c-4.38-2.34-9.1-1.92-19.88,3.38-4.93-6.56-15.7-3.67-19.25,3.3-2.55,5.01,4.8,8.81,14.37,4.97,2.34,3.38,6.77,4.55,15.99-2.67l11.9,3.55c3.93,2.05,8.44,1.67,23.76-1.17,2.34,5.09,9.86,1.55,7.56-3.55ZM433.77,701.62c-4.55-9.9-15.16-12.61-22.3-4.97l-12.15-2.84c-4.39-2.38-9.1-1.92-19.92,3.34-4.89-6.56-15.7-3.63-19.21,3.34-2.46,4.97,4.89,8.81,14.37,4.97,5.18,7.39,11.78,2.17,15.99-2.71l11.9,3.51c3.88,2.09,8.44,1.75,23.8-1.09,2.3,5.01,9.77,1.55,7.52-3.55ZM473.61,724.22c-4.51-9.9-15.16-12.57-34.45-7.81-4.34-2.38-9.06-1.96-19.84,3.34-4.93-6.56-15.74-3.63-19.25,3.38-2.46,4.93,4.84,8.73,14.37,4.93,5.22,7.43,11.78,2.13,15.99-2.71l11.9,3.55c3.88,2,8.44,1.71,23.8-1.17,2.3,5.05,9.81,1.55,7.48-3.51ZM474.61,677.07c-4.51-9.86-15.12-12.61-22.3-4.97l-12.19-2.88c-4.38-2.38-9.06-1.92-19.88,3.38-4.97-6.56-15.7-3.67-19.25,3.34-2.46,4.93,4.89,8.77,14.41,4.93,5.22,7.48,11.78,2.17,15.99-2.67l11.9,3.55c3.88,1.96,8.44,1.71,23.8-1.17,2.3,5.05,9.77,1.55,7.52-3.51ZM499.96,719.75c-4.93-6.56-15.66-3.63-19.21,3.38-2.13,4.22,4.18,8.64,11.4,6.89l14.95-11.02-7.14.75ZM515.41,701.62c-4.47-9.9-15.08-12.61-34.45-7.81-4.34-2.38-9.06-1.92-19.84,3.34-4.97-6.56-15.74-3.63-19.25,3.34-2.55,4.97,4.84,8.81,14.37,4.97,2.38,3.38,6.77,4.55,15.99-2.71l11.9,3.51c3.93,2.09,8.44,1.75,23.76-1.09,2.34,5.01,9.86,1.55,7.52-3.55ZM594.21,646.62c-4.51-9.86-15.12-12.61-34.45-7.89-4.38-2.38-9.02-1.92-19.88,3.42-4.97-6.6-15.66-3.67-19.17,3.34-2.63,4.97,4.84,8.77,14.32,4.93,2.3,3.38,6.77,4.51,15.99-2.71l11.86,3.55c3.93,2.05,8.44,1.71,23.8-1.17,2.3,5.09,9.81,1.59,7.52-3.47ZM351.58,455.78c-19.67,0-36.04,10.69-42.18,25.68l85.11-.17c-6.1-14.95-23.26-25.52-42.93-25.52ZM426.84,375.14h84.86l-40.59-84.82v-25.52h10.27v-3.8h-10.27l-3.72-11.36v11.36l-6.01,2.05-5.22,1.75h11.23v25.52l-40.55,84.82ZM1190.22,76.21v57.13c0,13.45-5.6,23.39-26.77,23.39s-26.77-9.94-26.77-23.39v-57.13h-13.07v57.13c0,17.41,6.51,36.62,39.84,36.62s39.8-19.21,39.8-36.62v-57.13h-13.03ZM1047.44,154.81v-78.59h-13.15v91.75h68.2v-13.15h-55.04ZM1013.62,1153.02c-13.53-62.22-47.82-37.25-60.22-24.93-12.36,12.4-43.35,52.49-29.86,114.72,13.53,62.22,47.73,37.25,60.14,24.89,12.4-12.32,43.35-52.45,29.94-114.68ZM978.58,1244.26c-10.52,10.52-27.44,16.16-35.41-20.96-8.1-37.13,4.76-61.18,15.33-71.75,10.57-10.52,27.48-16.12,35.45,20.96,8.1,37.13-4.8,61.22-15.37,71.75ZM998.04,142.03c-4.01,4.76-14.16,14.7-33.53,14.7-24.85,0-37.92-17.5-37.92-33.91,0-22.84,17.66-35.33,34.62-35.33,18.67,0,30.15,10.48,34.29,13.91l9.86-8.39c-4.38-4.3-19.42-18.75-44.27-18.75-26.85,0-47.61,21.55-47.61,48.57s23.3,47.15,47.86,47.15c26.06,0,36.79-8.98,45.44-18.33l-8.73-9.61ZM886.33,1236.24l-24.93,23.51-36.87,184.21,22.8-21.47,7.18-37.63,38.21-36,6.6,24.56,23.51-22.09-36.5-115.09ZM860.27,1353.68l13.53-71.91,12.86,47.06-26.39,24.85ZM841.1,142.03c-4.01,4.76-14.12,14.7-33.53,14.7-24.85,0-37.92-17.5-37.92-33.91,0-22.84,17.71-35.33,34.62-35.33,18.71,0,30.23,10.48,34.33,13.91l9.77-8.39c-4.34-4.3-19.34-18.75-44.18-18.75-26.89,0-47.61,21.55-47.61,48.57s23.26,47.15,47.86,47.15c25.98,0,36.75-8.98,45.35-18.33l-8.69-9.61ZM787.94,1398.53c4.38-7.18,12.7-21.09,12.7-42.51,0-15.37-6.47-32.2-31.86-8.27l-50.24,47.4v149.42l43.77-41.34c21.21-19.92,26.85-30.44,32.74-44.35,5.51-12.82,8.94-27.35,8.94-39.17,0-14.83-3.34-26.23-16.04-21.17ZM739.25,1401.37l24.85-23.34c9.77-9.27,15.79-11.19,15.79,1.04s-6.72,23.05-15.24,31.07l-25.39,23.93v-32.7ZM765.81,1474.16l-26.56,25.01v-39.96l27.56-25.93c7.77-7.31,15.53-9.69,15.53,3.42,0,15.2-6.06,27.56-16.54,37.46ZM716.24,76.21v91.75h13.11v-91.75h-13.11ZM614.93,76.21v13.24h31.82v78.51h13.11v-78.51h31.86v-13.24h-76.8ZM634.39,1448.97v-119.9l-22.13-20.42v149.17l73.58,68.86v-29.23l-51.45-48.48ZM533.2,154.81v-28.02h30.86v-13.24h-30.86v-24.1h61.26v-13.24h-74.38v91.75h76.63v-13.15h-63.52ZM594.21,646.62c-4.51-9.86-15.12-12.61-34.45-7.89-4.38-2.38-9.02-1.92-19.88,3.42-4.97-6.6-15.66-3.67-19.17,3.34-2.63,4.97,4.84,8.77,14.32,4.93,2.3,3.38,6.77,4.51,15.99-2.71l11.86,3.55c3.93,2.05,8.44,1.71,23.8-1.17,2.3,5.09,9.81,1.59,7.52-3.47ZM542.76,1238.33v149.25l19.46,21.84v-149.25l-19.46-21.84ZM515.41,701.62c-4.47-9.9-15.08-12.61-34.45-7.81-4.34-2.38-9.06-1.92-19.84,3.34-4.97-6.56-15.74-3.63-19.25,3.34-2.55,4.97,4.84,8.81,14.37,4.97,2.38,3.38,6.77,4.55,15.99-2.71l11.9,3.51c3.93,2.09,8.44,1.75,23.76-1.09,2.34,5.01,9.86,1.55,7.52-3.55ZM500.34,1258.25c3.93,1.21,11.44,3.67,11.44-17.75,0-15.37-5.85-44.85-28.69-70.49l-45.35-50.82v149.34l39.51,44.31c19.08,21.42,24.14,21.92,29.48,19.54,4.93-2.17,8.06-9.9,8.06-21.76,0-14.78-3.01-32.7-14.45-52.37ZM456.53,1165.96l22.3,25.06c8.81,9.9,14.24,19.75,14.24,32.03s-6.1,9.81-13.74,1.21l-22.8-25.64v-32.66ZM480.37,1290.58l-23.85-26.81v-39.97l24.76,27.85c7.02,7.81,14.03,20.67,14.03,33.83,0,15.2-5.51,15.7-14.95,5.09ZM426.84,375.14h84.86l-40.59-84.82v-25.52h10.27v-3.8h-10.27l-3.72-11.36v11.36l-6.01,2.05-5.22,1.75h11.23v25.52l-40.55,84.82ZM499.96,719.75c-4.93-6.56-15.66-3.63-19.21,3.38-2.13,4.22,4.18,8.64,11.4,6.89l14.95-11.02-7.14.75ZM446.46,154.81v-78.59h-13.07v91.75h68.2v-13.15h-55.12ZM474.61,677.07c-4.51-9.86-15.12-12.61-22.3-4.97l-12.19-2.88c-4.38-2.38-9.06-1.92-19.88,3.38-4.97-6.56-15.7-3.67-19.25,3.34-2.46,4.93,4.89,8.77,14.41,4.93,5.22,7.48,11.78,2.17,15.99-2.67l11.9,3.55c3.88,1.96,8.44,1.71,23.8-1.17,2.3,5.05,9.77,1.55,7.52-3.51ZM473.61,724.22c-4.51-9.9-15.16-12.57-34.45-7.81-4.34-2.38-9.06-1.96-19.84,3.34-4.93-6.56-15.74-3.63-19.25,3.38-2.46,4.93,4.84,8.73,14.37,4.93,5.22,7.43,11.78,2.13,15.99-2.71l11.9,3.55c3.88,2,8.44,1.71,23.8-1.17,2.3,5.05,9.81,1.55,7.48-3.51ZM433.77,701.62c-4.55-9.9-15.16-12.61-22.3-4.97l-12.15-2.84c-4.39-2.38-9.1-1.92-19.92,3.34-4.89-6.56-15.7-3.63-19.21,3.34-2.46,4.97,4.89,8.81,14.37,4.97,5.18,7.39,11.78,2.17,15.99-2.71l11.9,3.51c3.88,2.09,8.44,1.75,23.8-1.09,2.3,5.01,9.77,1.55,7.52-3.55ZM424.04,747.77c-4.55-9.81-15.16-12.57-22.34-4.93l-12.11-2.88c-4.38-2.34-9.1-1.92-19.88,3.38-4.93-6.56-15.7-3.67-19.25,3.3-2.55,5.01,4.8,8.81,14.37,4.97,2.34,3.38,6.77,4.55,15.99-2.67l11.9,3.55c3.93,2.05,8.44,1.67,23.76-1.17,2.34,5.09,9.86,1.55,7.56-3.55ZM395.85,677.03c-4.55-9.81-15.12-12.57-34.45-7.81-4.38-2.38-9.06-1.96-19.92,3.38-4.97-6.56-15.7-3.67-19.21,3.3-2.51,4.97,4.89,8.81,14.37,4.97,2.38,3.42,6.81,4.55,15.95-2.67l11.9,3.55c3.93,1.96,8.44,1.71,23.8-1.17,2.3,5.05,9.86,1.5,7.56-3.55ZM382.78,76.21v37.08h-53.29v-37.08h-13.07v91.75h13.07v-41.47h53.29v41.47h13.07v-91.75h-13.07ZM351.58,455.78c-19.67,0-36.04,10.69-42.18,25.68l85.11-.17c-6.1-14.95-23.26-25.52-42.93-25.52ZM213.48,76.21v13.24h31.86v78.51h13.07v-78.51h31.86v-13.24h-76.8ZM220.75,430.97h-32.03l-39.38,48.4-39.38-48.4h-31.95l53.2,68.86-53.2,69.95h31.95l39.42-48.44,39.38,48.44h31.99l-53.25-69.95,53.25-68.86ZM163.16,76.21h-14.53l-41.05,91.75h14.24l13.49-30.19h40.51l12.99,30.19h14.78l-40.42-91.75ZM141.32,124.57l14.32-31.99,14.28,31.99h-28.61ZM1308.41,119.64c3.26-3.3,8.1-8.44,8.1-18.46,0-17.37-13.15-24.97-26.64-24.97h-51.78v91.75h51.78c17.58,0,30.94-9.19,30.94-26.64,0-11.53-7.31-19.34-12.4-21.67ZM1251.11,89.45h38.75c9.23,0,13.53,4.38,13.53,11.73,0,8.14-4.59,13.45-13.53,13.45h-38.75v-25.18ZM1289.87,154.81h-38.75v-26.94h38.75c13.7,0,17.92,5.26,17.92,13.45,0,8.77-5.72,13.49-17.92,13.49ZM1190.22,76.21v57.13c0,13.45-5.6,23.39-26.77,23.39s-26.77-9.94-26.77-23.39v-57.13h-13.07v57.13c0,17.41,6.51,36.62,39.84,36.62s39.8-19.21,39.8-36.62v-57.13h-13.03ZM1047.44,154.81v-78.59h-13.15v91.75h68.2v-13.15h-55.04ZM998.04,142.03c-4.01,4.76-14.16,14.7-33.53,14.7-24.85,0-37.92-17.5-37.92-33.91,0-22.84,17.66-35.33,34.62-35.33,18.67,0,30.15,10.48,34.29,13.91l9.86-8.39c-4.38-4.3-19.42-18.75-44.27-18.75-26.85,0-47.61,21.55-47.61,48.57s23.3,47.15,47.86,47.15c26.06,0,36.79-8.98,45.44-18.33l-8.73-9.61ZM841.1,142.03c-4.01,4.76-14.12,14.7-33.53,14.7-24.85,0-37.92-17.5-37.92-33.91,0-22.84,17.71-35.33,34.62-35.33,18.71,0,30.23,10.48,34.33,13.91l9.77-8.39c-4.34-4.3-19.34-18.75-44.18-18.75-26.89,0-47.61,21.55-47.61,48.57s23.26,47.15,47.86,47.15c25.98,0,36.75-8.98,45.35-18.33l-8.69-9.61ZM716.24,76.21v91.75h13.11v-91.75h-13.11ZM614.93,76.21v13.24h31.82v78.51h13.11v-78.51h31.86v-13.24h-76.8ZM533.2,154.81v-28.02h30.86v-13.24h-30.86v-24.1h61.26v-13.24h-74.38v91.75h76.63v-13.15h-63.52ZM446.46,154.81v-78.59h-13.07v91.75h68.2v-13.15h-55.12ZM382.78,76.21v37.08h-53.29v-37.08h-13.07v91.75h13.07v-41.47h53.29v41.47h13.07v-91.75h-13.07ZM213.48,76.21v13.24h31.86v78.51h13.07v-78.51h31.86v-13.24h-76.8ZM163.16,76.21h-14.53l-41.05,91.75h14.24l13.49-30.19h40.51l12.99,30.19h14.78l-40.42-91.75ZM141.32,124.57l14.32-31.99,14.28,31.99h-28.61ZM220.75,430.97h-32.03l-39.38,48.4-39.38-48.4h-31.95l53.2,68.86-53.2,69.95h31.95l39.42-48.44,39.38,48.44h31.99l-53.25-69.95,53.25-68.86ZM1349.08,430.97h-31.99l-39.38,48.4-39.38-48.4h-31.99l53.25,68.86-53.25,69.95h31.99l39.38-48.44,39.38,48.44h31.99l-53.2-69.95,53.2-68.86ZM1013.62,1153.02c-13.53-62.22-47.82-37.25-60.22-24.93-12.36,12.4-43.35,52.49-29.86,114.72,13.53,62.22,47.73,37.25,60.14,24.89,12.4-12.32,43.35-52.45,29.94-114.68ZM978.58,1244.26c-10.52,10.52-27.44,16.16-35.41-20.96-8.1-37.13,4.76-61.18,15.33-71.75,10.57-10.52,27.48-16.12,35.45,20.96,8.1,37.13-4.8,61.22-15.37,71.75ZM886.33,1236.24l-24.93,23.51-36.87,184.21,22.8-21.47,7.18-37.63,38.21-36,6.6,24.56,23.51-22.09-36.5-115.09ZM860.27,1353.68l13.53-71.91,12.86,47.06-26.39,24.85ZM787.94,1398.53c4.38-7.18,12.7-21.09,12.7-42.51,0-15.37-6.47-32.2-31.86-8.27l-50.24,47.4v149.42l43.77-41.34c21.21-19.92,26.85-30.44,32.74-44.35,5.51-12.82,8.94-27.35,8.94-39.17,0-14.83-3.34-26.23-16.04-21.17ZM739.25,1401.37l24.85-23.34c9.77-9.27,15.79-11.19,15.79,1.04s-6.72,23.05-15.24,31.07l-25.39,23.93v-32.7ZM765.81,1474.16l-26.56,25.01v-39.96l27.56-25.93c7.77-7.31,15.53-9.69,15.53,3.42,0,15.2-6.06,27.56-16.54,37.46ZM634.39,1448.97v-119.9l-22.13-20.42v149.17l73.58,68.86v-29.23l-51.45-48.48ZM542.76,1238.33v149.25l19.46,21.84v-149.25l-19.46-21.84ZM500.34,1258.25c3.93,1.21,11.44,3.67,11.44-17.75,0-15.37-5.85-44.85-28.69-70.49l-45.35-50.82v149.34l39.51,44.31c19.08,21.42,24.14,21.92,29.48,19.54,4.93-2.17,8.06-9.9,8.06-21.76,0-14.78-3.01-32.7-14.45-52.37ZM456.53,1165.96l22.3,25.06c8.81,9.9,14.24,19.75,14.24,32.03s-6.1,9.81-13.74,1.21l-22.8-25.64v-32.66ZM480.37,1290.58l-23.85-26.81v-39.97l24.76,27.85c7.02,7.81,14.03,20.67,14.03,33.83,0,15.2-5.51,15.7-14.95,5.09ZM594.21,646.62c-4.51-9.86-15.12-12.61-34.45-7.89-4.38-2.38-9.02-1.92-19.88,3.42-4.97-6.6-15.66-3.67-19.17,3.34-2.63,4.97,4.84,8.77,14.32,4.93,2.3,3.38,6.77,4.51,15.99-2.71l11.86,3.55c3.93,2.05,8.44,1.71,23.8-1.17,2.3,5.09,9.81,1.59,7.52-3.47ZM515.41,701.62c-4.47-9.9-15.08-12.61-34.45-7.81-4.34-2.38-9.06-1.92-19.84,3.34-4.97-6.56-15.74-3.63-19.25,3.34-2.55,4.97,4.84,8.81,14.37,4.97,2.38,3.38,6.77,4.55,15.99-2.71l11.9,3.51c3.93,2.09,8.44,1.75,23.76-1.09,2.34,5.01,9.86,1.55,7.52-3.55ZM499.96,719.75c-4.93-6.56-15.66-3.63-19.21,3.38-2.13,4.22,4.18,8.64,11.4,6.89l14.95-11.02-7.14.75ZM458.16,743.34c-4.89-6.56-15.66-3.67-19.25,3.38-2.46,4.93,4.89,8.73,7.43,3.76.92-1.88,5.35-1.09,9.02,6.77l22.38-16.54c-4.26-1.71-10.11-2-19.59,2.63ZM474.61,677.07c-4.51-9.86-15.12-12.61-22.3-4.97l-12.19-2.88c-4.38-2.38-9.06-1.92-19.88,3.38-4.97-6.56-15.7-3.67-19.25,3.34-2.46,4.93,4.89,8.77,14.41,4.93,5.22,7.48,11.78,2.17,15.99-2.67l11.9,3.55c3.88,1.96,8.44,1.71,23.8-1.17,2.3,5.05,9.77,1.55,7.52-3.51ZM473.61,724.22c-4.51-9.9-15.16-12.57-34.45-7.81-4.34-2.38-9.06-1.96-19.84,3.34-4.93-6.56-15.74-3.63-19.25,3.38-2.46,4.93,4.84,8.73,14.37,4.93,5.22,7.43,11.78,2.13,15.99-2.71l11.9,3.55c3.88,2,8.44,1.71,23.8-1.17,2.3,5.05,9.81,1.55,7.48-3.51ZM433.77,701.62c-4.55-9.9-15.16-12.61-22.3-4.97l-12.15-2.84c-4.39-2.38-9.1-1.92-19.92,3.34-4.89-6.56-15.7-3.63-19.21,3.34-2.46,4.97,4.89,8.81,14.37,4.97,5.18,7.39,11.78,2.17,15.99-2.71l11.9,3.51c3.88,2.09,8.44,1.75,23.8-1.09,2.3,5.01,9.77,1.55,7.52-3.55ZM424.04,747.77c-4.55-9.81-15.16-12.57-22.34-4.93l-12.11-2.88c-4.38-2.34-9.1-1.92-19.88,3.38-4.93-6.56-15.7-3.67-19.25,3.3-2.55,5.01,4.8,8.81,14.37,4.97,2.34,3.38,6.77,4.55,15.99-2.67l11.9,3.55c3.93,2.05,8.44,1.67,23.76-1.17,2.34,5.09,9.86,1.55,7.56-3.55ZM395.85,677.03c-4.55-9.81-15.12-12.57-34.45-7.81-4.38-2.38-9.06-1.96-19.92,3.38-4.97-6.56-15.7-3.67-19.21,3.3-2.51,4.97,4.89,8.81,14.37,4.97,2.38,3.42,6.81,4.55,15.95-2.67l11.9,3.55c3.93,1.96,8.44,1.71,23.8-1.17,2.3,5.05,9.86,1.5,7.56-3.55ZM426.84,375.14h84.86l-40.59-84.82v-25.52h10.27v-3.8h-10.27l-3.72-11.36v11.36l-6.01,2.05-5.22,1.75h11.23v25.52l-40.55,84.82ZM351.58,455.78c-19.67,0-36.04,10.69-42.18,25.68l85.11-.17c-6.1-14.95-23.26-25.52-42.93-25.52ZM351.58,455.78c-19.67,0-36.04,10.69-42.18,25.68l85.11-.17c-6.1-14.95-23.26-25.52-42.93-25.52ZM395.85,677.03c-4.55-9.81-15.12-12.57-34.45-7.81-4.38-2.38-9.06-1.96-19.92,3.38-4.97-6.56-15.7-3.67-19.21,3.3-2.51,4.97,4.89,8.81,14.37,4.97,2.38,3.42,6.81,4.55,15.95-2.67l11.9,3.55c3.93,1.96,8.44,1.71,23.8-1.17,2.3,5.05,9.86,1.5,7.56-3.55ZM424.04,747.77c-4.55-9.81-15.16-12.57-22.34-4.93l-12.11-2.88c-4.38-2.34-9.1-1.92-19.88,3.38-4.93-6.56-15.7-3.67-19.25,3.3-2.55,5.01,4.8,8.81,14.37,4.97,2.34,3.38,6.77,4.55,15.99-2.67l11.9,3.55c3.93,2.05,8.44,1.67,23.76-1.17,2.34,5.09,9.86,1.55,7.56-3.55ZM433.77,701.62c-4.55-9.9-15.16-12.61-22.3-4.97l-12.15-2.84c-4.39-2.38-9.1-1.92-19.92,3.34-4.89-6.56-15.7-3.63-19.21,3.34-2.46,4.97,4.89,8.81,14.37,4.97,5.18,7.39,11.78,2.17,15.99-2.71l11.9,3.51c3.88,2.09,8.44,1.75,23.8-1.09,2.3,5.01,9.77,1.55,7.52-3.55ZM473.61,724.22c-4.51-9.9-15.16-12.57-34.45-7.81-4.34-2.38-9.06-1.96-19.84,3.34-4.93-6.56-15.74-3.63-19.25,3.38-2.46,4.93,4.84,8.73,14.37,4.93,5.22,7.43,11.78,2.13,15.99-2.71l11.9,3.55c3.88,2,8.44,1.71,23.8-1.17,2.3,5.05,9.81,1.55,7.48-3.51ZM474.61,677.07c-4.51-9.86-15.12-12.61-22.3-4.97l-12.19-2.88c-4.38-2.38-9.06-1.92-19.88,3.38-4.97-6.56-15.7-3.67-19.25,3.34-2.46,4.93,4.89,8.77,14.41,4.93,5.22,7.48,11.78,2.17,15.99-2.67l11.9,3.55c3.88,1.96,8.44,1.71,23.8-1.17,2.3,5.05,9.77,1.55,7.52-3.51ZM426.84,375.14h84.86l-40.59-84.82v-25.52h10.27v-3.8h-10.27l-3.72-11.36v11.36l-6.01,2.05-5.22,1.75h11.23v25.52l-40.55,84.82ZM515.41,701.62c-4.47-9.9-15.08-12.61-34.45-7.81-4.34-2.38-9.06-1.92-19.84,3.34-4.97-6.56-15.74-3.63-19.25,3.34-2.55,4.97,4.84,8.81,14.37,4.97,2.38,3.38,6.77,4.55,15.99-2.71l11.9,3.51c3.93,2.09,8.44,1.75,23.76-1.09,2.34,5.01,9.86,1.55,7.52-3.55ZM594.21,646.62c-4.51-9.86-15.12-12.61-34.45-7.89-4.38-2.38-9.02-1.92-19.88,3.42-4.97-6.6-15.66-3.67-19.17,3.34-2.63,4.97,4.84,8.77,14.32,4.93,2.3,3.38,6.77,4.51,15.99-2.71l11.86,3.55c3.93,2.05,8.44,1.71,23.8-1.17,2.3,5.09,9.81,1.59,7.52-3.47ZM594.21,646.62c-4.51-9.86-15.12-12.61-34.45-7.89-4.38-2.38-9.02-1.92-19.88,3.42-4.97-6.6-15.66-3.67-19.17,3.34-2.63,4.97,4.84,8.77,14.32,4.93,2.3,3.38,6.77,4.51,15.99-2.71l11.86,3.55c3.93,2.05,8.44,1.71,23.8-1.17,2.3,5.09,9.81,1.59,7.52-3.47ZM480.96,693.81c-4.34-2.38-9.06-1.92-19.84,3.34-4.97-6.56-15.74-3.63-19.25,3.34-2.55,4.97,4.84,8.81,14.37,4.97,2.38,3.38,6.77,4.55,15.99-2.71l11.9,3.51c3.93,2.09,8.44,1.75,23.76-1.09,2.34,5.01,9.86,1.55,7.52-3.55-4.47-9.9-15.08-12.61-34.45-7.81ZM415.39,680.87c5.22,7.48,11.78,2.17,15.99-2.67l11.9,3.55c3.88,1.96,8.44,1.71,23.8-1.17,2.3,5.05,9.77,1.55,7.52-3.51-4.51-9.86-15.12-12.61-22.3-4.97l-12.19-2.88c-4.38-2.38-9.06-1.92-19.88,3.38-4.97-6.56-15.7-3.67-19.25,3.34-2.46,4.93,4.89,8.77,14.41,4.93ZM439.16,716.41c-4.34-2.38-9.06-1.96-19.84,3.34-4.93-6.56-15.74-3.63-19.25,3.38-2.46,4.93,4.84,8.73,14.37,4.93,5.22,7.43,11.78,2.13,15.99-2.71l11.9,3.55c3.88,2,8.44,1.71,23.8-1.17,2.3,5.05,9.81,1.55,7.48-3.51-4.51-9.9-15.16-12.57-34.45-7.81ZM379.4,697.15c-4.89-6.56-15.7-3.63-19.21,3.34-2.46,4.97,4.89,8.81,14.37,4.97,5.18,7.39,11.78,2.17,15.99-2.71l11.9,3.51c3.88,2.09,8.44,1.75,23.8-1.09,2.3,5.01,9.77,1.55,7.52-3.55-4.55-9.9-15.16-12.61-22.3-4.97l-12.15-2.84c-4.39-2.38-9.1-1.92-19.92,3.34ZM401.7,742.84l-12.11-2.88c-4.38-2.34-9.1-1.92-19.88,3.38-4.93-6.56-15.7-3.67-19.25,3.3-2.55,5.01,4.8,8.81,14.37,4.97,2.34,3.38,6.77,4.55,15.99-2.67l11.9,3.55c3.93,2.05,8.44,1.67,23.76-1.17,2.34,5.09,9.86,1.55,7.56-3.55-4.55-9.81-15.16-12.57-22.34-4.93ZM364.49,681.74c3.93,1.96,8.44,1.71,23.8-1.17,2.3,5.05,9.86,1.5,7.56-3.55-4.55-9.81-15.12-12.57-34.45-7.81-4.38-2.38-9.06-1.96-19.92,3.38-4.97-6.56-15.7-3.67-19.21,3.3-2.51,4.97,4.89,8.81,14.37,4.97,2.38,3.42,6.81,4.55,15.95-2.67l11.9,3.55ZM426.84,375.14h84.86l-40.59-84.82v-25.52h10.27v-3.8h-10.27l-3.72-11.36v11.36l-6.01,2.05-5.22,1.75h11.23v25.52l-40.55,84.82ZM351.58,455.78c-19.67,0-36.04,10.69-42.18,25.68l85.11-.17c-6.1-14.95-23.26-25.52-42.93-25.52ZM594.21,646.62c-4.51-9.86-15.12-12.61-34.45-7.89-4.38-2.38-9.02-1.92-19.88,3.42-4.97-6.6-15.66-3.67-19.17,3.34-2.63,4.97,4.84,8.77,14.32,4.93,2.3,3.38,6.77,4.51,15.99-2.71l11.86,3.55c3.93,2.05,8.44,1.71,23.8-1.17,2.3,5.09,9.81,1.59,7.52-3.47ZM480.96,693.81c-4.34-2.38-9.06-1.92-19.84,3.34-4.97-6.56-15.74-3.63-19.25,3.34-2.55,4.97,4.84,8.81,14.37,4.97,2.38,3.38,6.77,4.55,15.99-2.71l11.9,3.51c3.93,2.09,8.44,1.75,23.76-1.09,2.34,5.01,9.86,1.55,7.52-3.55-4.47-9.9-15.08-12.61-34.45-7.81ZM426.84,375.14h84.86l-40.59-84.82v-25.52h10.27v-3.8h-10.27l-3.72-11.36v11.36l-6.01,2.05-5.22,1.75h11.23v25.52l-40.55,84.82ZM480.75,723.13c-2.13,4.22,4.18,8.64,11.4,6.89l14.95-11.02-7.14.75c-4.93-6.56-15.66-3.63-19.21,3.38ZM458.16,743.34c-4.89-6.56-15.66-3.67-19.25,3.38-2.46,4.93,4.89,8.73,7.43,3.76.92-1.88,5.35-1.09,9.02,6.77l22.38-16.54c-4.26-1.71-10.11-2-19.59,2.63ZM415.39,680.87c5.22,7.48,11.78,2.17,15.99-2.67l11.9,3.55c3.88,1.96,8.44,1.71,23.8-1.17,2.3,5.05,9.77,1.55,7.52-3.51-4.51-9.86-15.12-12.61-22.3-4.97l-12.19-2.88c-4.38-2.38-9.06-1.92-19.88,3.38-4.97-6.56-15.7-3.67-19.25,3.34-2.46,4.93,4.89,8.77,14.41,4.93ZM466.13,727.72c2.3,5.05,9.81,1.55,7.48-3.51-4.51-9.9-15.16-12.57-34.45-7.81-4.34-2.38-9.06-1.96-19.84,3.34-4.93-6.56-15.74-3.63-19.25,3.38-2.46,4.93,4.84,8.73,14.37,4.93,5.22,7.43,11.78,2.13,15.99-2.71l11.9,3.55c3.88,2,8.44,1.71,23.8-1.17ZM379.4,697.15c-4.89-6.56-15.7-3.63-19.21,3.34-2.46,4.97,4.89,8.81,14.37,4.97,5.18,7.39,11.78,2.17,15.99-2.71l11.9,3.51c3.88,2.09,8.44,1.75,23.8-1.09,2.3,5.01,9.77,1.55,7.52-3.55-4.55-9.9-15.16-12.61-22.3-4.97l-12.15-2.84c-4.39-2.38-9.1-1.92-19.92,3.34ZM401.7,742.84l-12.11-2.88c-4.38-2.34-9.1-1.92-19.88,3.38-4.93-6.56-15.7-3.67-19.25,3.3-2.55,5.01,4.8,8.81,14.37,4.97,2.34,3.38,6.77,4.55,15.99-2.67l11.9,3.55c3.93,2.05,8.44,1.67,23.76-1.17,2.34,5.09,9.86,1.55,7.56-3.55-4.55-9.81-15.16-12.57-22.34-4.93ZM364.49,681.74c3.93,1.96,8.44,1.71,23.8-1.17,2.3,5.05,9.86,1.5,7.56-3.55-4.55-9.81-15.12-12.57-34.45-7.81-4.38-2.38-9.06-1.96-19.92,3.38-4.97-6.56-15.7-3.67-19.21,3.3-2.51,4.97,4.89,8.81,14.37,4.97,2.38,3.42,6.81,4.55,15.95-2.67l11.9,3.55ZM351.58,455.78c-19.67,0-36.04,10.69-42.18,25.68l85.11-.17c-6.1-14.95-23.26-25.52-42.93-25.52ZM351.58,455.78c-19.67,0-36.04,10.69-42.18,25.68l85.11-.17c-6.1-14.95-23.26-25.52-42.93-25.52ZM426.84,375.14h84.86l-40.59-84.82v-25.52h10.27v-3.8h-10.27l-3.72-11.36v11.36l-6.01,2.05-5.22,1.75h11.23v25.52l-40.55,84.82ZM395.85,677.03c-4.55-9.81-15.12-12.57-34.45-7.81-4.38-2.38-9.06-1.96-19.92,3.38-4.97-6.56-15.7-3.67-19.21,3.3-2.51,4.97,4.89,8.81,14.37,4.97,2.38,3.42,6.81,4.55,15.95-2.67l11.9,3.55c3.93,1.96,8.44,1.71,23.8-1.17,2.3,5.05,9.86,1.5,7.56-3.55ZM424.04,747.77c-4.55-9.81-15.16-12.57-22.34-4.93l-12.11-2.88c-4.38-2.34-9.1-1.92-19.88,3.38-4.93-6.56-15.7-3.67-19.25,3.3-2.55,5.01,4.8,8.81,14.37,4.97,2.34,3.38,6.77,4.55,15.99-2.67l11.9,3.55c3.93,2.05,8.44,1.67,23.76-1.17,2.34,5.09,9.86,1.55,7.56-3.55ZM433.77,701.62c-4.55-9.9-15.16-12.61-22.3-4.97l-12.15-2.84c-4.39-2.38-9.1-1.92-19.92,3.34-4.89-6.56-15.7-3.63-19.21,3.34-2.46,4.97,4.89,8.81,14.37,4.97,5.18,7.39,11.78,2.17,15.99-2.71l11.9,3.51c3.88,2.09,8.44,1.75,23.8-1.09,2.3,5.01,9.77,1.55,7.52-3.55ZM473.61,724.22c-4.51-9.9-15.16-12.57-34.45-7.81-4.34-2.38-9.06-1.96-19.84,3.34-4.93-6.56-15.74-3.63-19.25,3.38-2.46,4.93,4.84,8.73,14.37,4.93,5.22,7.43,11.78,2.13,15.99-2.71l11.9,3.55c3.88,2,8.44,1.71,23.8-1.17,2.3,5.05,9.81,1.55,7.48-3.51ZM474.61,677.07c-4.51-9.86-15.12-12.61-22.3-4.97l-12.19-2.88c-4.38-2.38-9.06-1.92-19.88,3.38-4.97-6.56-15.7-3.67-19.25,3.34-2.46,4.93,4.89,8.77,14.41,4.93,5.22,7.48,11.78,2.17,15.99-2.67l11.9,3.55c3.88,1.96,8.44,1.71,23.8-1.17,2.3,5.05,9.77,1.55,7.52-3.51ZM499.96,719.75c-4.93-6.56-15.66-3.63-19.21,3.38-2.13,4.22,4.18,8.64,11.4,6.89l14.95-11.02-7.14.75ZM515.41,701.62c-4.47-9.9-15.08-12.61-34.45-7.81-4.34-2.38-9.06-1.92-19.84,3.34-4.97-6.56-15.74-3.63-19.25,3.34-2.55,4.97,4.84,8.81,14.37,4.97,2.38,3.38,6.77,4.55,15.99-2.71l11.9,3.51c3.93,2.09,8.44,1.75,23.76-1.09,2.34,5.01,9.86,1.55,7.52-3.55ZM594.21,646.62c-4.51-9.86-15.12-12.61-34.45-7.89-4.38-2.38-9.02-1.92-19.88,3.42-4.97-6.6-15.66-3.67-19.17,3.34-2.63,4.97,4.84,8.77,14.32,4.93,2.3,3.38,6.77,4.51,15.99-2.71l11.86,3.55c3.93,2.05,8.44,1.71,23.8-1.17,2.3,5.09,9.81,1.59,7.52-3.47ZM594.21,646.62c-4.51-9.86-15.12-12.61-34.45-7.89-4.38-2.38-9.02-1.92-19.88,3.42-4.97-6.6-15.66-3.67-19.17,3.34-2.63,4.97,4.84,8.77,14.32,4.93,2.3,3.38,6.77,4.51,15.99-2.71l11.86,3.55c3.93,2.05,8.44,1.71,23.8-1.17,2.3,5.09,9.81,1.59,7.52-3.47ZM515.41,701.62c-4.47-9.9-15.08-12.61-34.45-7.81-4.34-2.38-9.06-1.92-19.84,3.34-4.97-6.56-15.74-3.63-19.25,3.34-2.55,4.97,4.84,8.81,14.37,4.97,2.38,3.38,6.77,4.55,15.99-2.71l11.9,3.51c3.93,2.09,8.44,1.75,23.76-1.09,2.34,5.01,9.86,1.55,7.52-3.55ZM426.84,375.14h84.86l-40.59-84.82v-25.52h10.27v-3.8h-10.27l-3.72-11.36v11.36l-6.01,2.05-5.22,1.75h11.23v25.52l-40.55,84.82ZM499.96,719.75c-4.93-6.56-15.66-3.63-19.21,3.38-2.13,4.22,4.18,8.64,11.4,6.89l14.95-11.02-7.14.75ZM474.61,677.07c-4.51-9.86-15.12-12.61-22.3-4.97l-12.19-2.88c-4.38-2.38-9.06-1.92-19.88,3.38-4.97-6.56-15.7-3.67-19.25,3.34-2.46,4.93,4.89,8.77,14.41,4.93,5.22,7.48,11.78,2.17,15.99-2.67l11.9,3.55c3.88,1.96,8.44,1.71,23.8-1.17,2.3,5.05,9.77,1.55,7.52-3.51ZM473.61,724.22c-4.51-9.9-15.16-12.57-34.45-7.81-4.34-2.38-9.06-1.96-19.84,3.34-4.93-6.56-15.74-3.63-19.25,3.38-2.46,4.93,4.84,8.73,14.37,4.93,5.22,7.43,11.78,2.13,15.99-2.71l11.9,3.55c3.88,2,8.44,1.71,23.8-1.17,2.3,5.05,9.81,1.55,7.48-3.51ZM433.77,701.62c-4.55-9.9-15.16-12.61-22.3-4.97l-12.15-2.84c-4.39-2.38-9.1-1.92-19.92,3.34-4.89-6.56-15.7-3.63-19.21,3.34-2.46,4.97,4.89,8.81,14.37,4.97,5.18,7.39,11.78,2.17,15.99-2.71l11.9,3.51c3.88,2.09,8.44,1.75,23.8-1.09,2.3,5.01,9.77,1.55,7.52-3.55ZM424.04,747.77c-4.55-9.81-15.16-12.57-22.34-4.93l-12.11-2.88c-4.38-2.34-9.1-1.92-19.88,3.38-4.93-6.56-15.7-3.67-19.25,3.3-2.55,5.01,4.8,8.81,14.37,4.97,2.34,3.38,6.77,4.55,15.99-2.67l11.9,3.55c3.93,2.05,8.44,1.67,23.76-1.17,2.34,5.09,9.86,1.55,7.56-3.55ZM395.85,677.03c-4.55-9.81-15.12-12.57-34.45-7.81-4.38-2.38-9.06-1.96-19.92,3.38-4.97-6.56-15.7-3.67-19.21,3.3-2.51,4.97,4.89,8.81,14.37,4.97,2.38,3.42,6.81,4.55,15.95-2.67l11.9,3.55c3.93,1.96,8.44,1.71,23.8-1.17,2.3,5.05,9.86,1.5,7.56-3.55ZM351.58,455.78c-19.67,0-36.04,10.69-42.18,25.68l85.11-.17c-6.1-14.95-23.26-25.52-42.93-25.52ZM458.16,743.34c-4.89-6.56-15.66-3.67-19.25,3.38-2.46,4.93,4.89,8.73,7.43,3.76.92-1.88,5.35-1.09,9.02,6.77l22.38-16.54c-4.26-1.71-10.11-2-19.59,2.63ZM426.84,375.14h84.86l-40.59-84.82v-25.52h10.27v-3.8h-10.27l-3.72-11.36v11.36l-6.01,2.05-5.22,1.75h11.23v25.52l-40.55,84.82ZM351.58,455.78c-19.67,0-36.04,10.69-42.18,25.68l85.11-.17c-6.1-14.95-23.26-25.52-42.93-25.52ZM424.04,747.77c-4.55-9.81-15.16-12.57-22.34-4.93l-12.11-2.88c-4.38-2.34-9.1-1.92-19.88,3.38-4.93-6.56-15.7-3.67-19.25,3.3-2.55,5.01,4.8,8.81,14.37,4.97,2.34,3.38,6.77,4.55,15.99-2.67l11.9,3.55c3.93,2.05,8.44,1.67,23.76-1.17,2.34,5.09,9.86,1.55,7.56-3.55ZM499.96,719.75c-4.93-6.56-15.66-3.63-19.21,3.38-2.13,4.22,4.18,8.64,11.4,6.89l14.95-11.02-7.14.75ZM433.77,701.62c-4.55-9.9-15.16-12.61-22.3-4.97l-12.15-2.84c-4.39-2.38-9.1-1.92-19.92,3.34-4.89-6.56-15.7-3.63-19.21,3.34-2.46,4.97,4.89,8.81,14.37,4.97,5.18,7.39,11.78,2.17,15.99-2.71l11.9,3.51c3.88,2.09,8.44,1.75,23.8-1.09,2.3,5.01,9.77,1.55,7.52-3.55ZM594.21,646.62c-4.51-9.86-15.12-12.61-34.45-7.89-4.38-2.38-9.02-1.92-19.88,3.42-4.97-6.6-15.66-3.67-19.17,3.34-2.63,4.97,4.84,8.77,14.32,4.93,2.3,3.38,6.77,4.51,15.99-2.71l11.86,3.55c3.93,2.05,8.44,1.71,23.8-1.17,2.3,5.09,9.81,1.59,7.52-3.47ZM473.61,724.22c-4.51-9.9-15.16-12.57-34.45-7.81-4.34-2.38-9.06-1.96-19.84,3.34-4.93-6.56-15.74-3.63-19.25,3.38-2.46,4.93,4.84,8.73,14.37,4.93,5.22,7.43,11.78,2.13,15.99-2.71l11.9,3.55c3.88,2,8.44,1.71,23.8-1.17,2.3,5.05,9.81,1.55,7.48-3.51ZM395.85,677.03c-4.55-9.81-15.12-12.57-34.45-7.81-4.38-2.38-9.06-1.96-19.92,3.38-4.97-6.56-15.7-3.67-19.21,3.3-2.51,4.97,4.89,8.81,14.37,4.97,2.38,3.42,6.81,4.55,15.95-2.67l11.9,3.55c3.93,1.96,8.44,1.71,23.8-1.17,2.3,5.05,9.86,1.5,7.56-3.55ZM515.41,701.62c-4.47-9.9-15.08-12.61-34.45-7.81-4.34-2.38-9.06-1.92-19.84,3.34-4.97-6.56-15.74-3.63-19.25,3.34-2.55,4.97,4.84,8.81,14.37,4.97,2.38,3.38,6.77,4.55,15.99-2.71l11.9,3.51c3.93,2.09,8.44,1.75,23.76-1.09,2.34,5.01,9.86,1.55,7.52-3.55ZM474.61,677.07c-4.51-9.86-15.12-12.61-22.3-4.97l-12.19-2.88c-4.38-2.38-9.06-1.92-19.88,3.38-4.97-6.56-15.7-3.67-19.25,3.34-2.46,4.93,4.89,8.77,14.41,4.93,5.22,7.48,11.78,2.17,15.99-2.67l11.9,3.55c3.88,1.96,8.44,1.71,23.8-1.17,2.3,5.05,9.77,1.55,7.52-3.51Z"/>
    <path class="cls-1" d="M224.67,219.58l.75,13.53c.13,2.26,3.13,55.42,5.09,78.47.25,3.13.58,7.48.96,12.95,4.01,56.42,16.16,228.06,72.12,411.14,10.61,34.7,23.68,69.95,38.67,105.15.46,1.04.88,2.09,1.34,3.13,2.05,4.76,4.13,9.52,6.26,14.28,50.7,113.88,122.32,226.84,205.63,322.35,69.07,79.18,148.92,154.56,149.71,155.31l8.69,8.14,8.73-8.06c.84-.75,82.81-76.17,151.93-155.39,86.86-99.52,160.99-217.95,211.98-336.68,15.53-36.25,29.07-72.5,40.01-108.24,55.79-182.7,68.07-354.38,72.08-410.76.38-5.64.71-10.15,1-13.32,1.71-20.76,4.34-65.69,4.93-76.21.08-1.17.13-2.05.13-2.26l.33-5.51.46-8.02H224.67ZM762.64,462.88l4.38-.88,11.44,15.37s-5.01,8.69-6.22,10.65l6.64.38c2.84-3.22,6.93-10.48,6.93-10.48l-4.05-13.32,11.4,8.81,1.09,13.95,4.59-.42,1.92-14.78-12.44-19.08,11.48,3.38,19.88-9.35-19.08.79-25.85-5.68-11.9.84.54-52.66,3.63-.71,11.48,15.33s-5.01,8.69-6.26,10.65l6.68.42c2.84-3.22,6.89-10.52,6.89-10.52l-4.05-13.32,11.4,8.85,1.09,13.91,4.64-.42,1.88-14.74-12.44-19.13,11.53,3.38,19.84-9.31-19.04.75-25.89-5.64-11.19.71.21-18.46c18.58-3.63,32.78-19.71,34.29-38.8h21.21v-25.52h-20.21c-6.01-20.38-17.83-25.01-35.29-30.61v-12.03h385.03l-370.54,273.66-.21-.08-15.91-5.72.5-50.15ZM274.99,489.44c-11.57-76.88-15.91-137.52-18-166.71-.38-5.64-.71-10.11-.96-13.32-1.34-15.7-3.22-46.48-4.26-64.23h487.72v12.03c-15.95,4.55-31.32,14.28-35.33,30.61h-20.25v25.52h21.17c1.59,19.08,15.83,35.16,34.41,38.8v20.17l-7.39.5-10.15-11.57,3.38-2.84-5.64-1.71-.88-4.22-4.13,6.06-18.63,11.94,5.43,6.1,15.24-1.96,1.34,12.53-30.44,19.67,9.98.54c7.77-4.05,23.97-14.2,23.97-14.2l-2.05,22.22,6.1-.08,5.55-18.37,8.27-1.71v49.44l-7.35.54-10.15-11.57,3.38-2.84-5.64-1.71-.88-4.26-4.13,6.1-18.63,11.94,5.43,6.1,15.24-1.96,1.34,12.44-30.49,19.75,10.02.54c7.73-4.05,23.93-14.24,23.93-14.24l-2.05,22.26,6.14-.08,5.55-18.42,8.27-1.63v39.26l-152.05-34.79-75.71,48.99v-133.63h-84.86v102.02h-151.84ZM684.63,587.78l-69.2,51.2c.38-37.75,18.75-75.46,41.51-75.46,10.65,0,20.34,12.49,27.69,24.26ZM351.67,796c2.59,4.22,9.35.88,7.18-3.97-2.63-5.76-7.35-8.94-12.24-9.19-1.21-3.17-2.26-6.39-3.42-9.56,3.42.04,8.56-.88,18.83-2.3,2.25,5.09,9.81,1.55,7.52-3.51-4.51-9.86-15.12-12.61-22.3-4.97l-8.6-2.05c-1.25-3.59-2.46-7.22-3.67-10.82l4.68,1.67c2.34,5.09,9.86,1.59,7.52-3.51-3.22-7.06-9.56-10.15-15.58-8.69-.92-2.88-1.88-5.72-2.76-8.56,2.63.04,6.1-1.25,11.11-5.22l11.94,3.55c3.88,2,8.39,1.71,23.8-1.13,2.26,5.01,9.86,1.55,7.52-3.51-4.55-9.9-15.16-12.61-34.49-7.81-4.3-2.42-9.02-2-19.88,3.3-1.09-1.46-2.51-2.34-4.05-2.92-1-3.34-1.96-6.72-2.92-10.06,3.72,1.5,8.73,1,22.76-1.59,2.26,5.01,9.77,1.55,7.48-3.55-4.55-9.9-15.12-12.61-28.77-3.59l-4.89-2.92c-1.13-4.09-2.17-8.1-3.26-12.15,2.67-.04,5.35-2.63,3.84-5.93-1.71-3.72-4.3-6.35-7.52-7.73-1.25-4.89-2.51-9.73-3.72-14.57h203.92c9.06-123.78,83.1-117.18,90.79-6.22l-39.55,29.23c-5.09-7.93-14.66-12.53-21.21-5.64l-12.07-2.88c-4.38-2.38-9.1-1.96-19.96,3.38-4.89-6.56-15.66-3.67-19.17,3.3-2.51,4.97,4.84,8.81,14.37,4.97,2.3,3.42,6.81,4.55,15.99-2.67l11.86,3.55c3.76,1.88,9.19,3.59,23.22,1.17l-48.86,36.08-14.95,11.02-14.41,10.69-22.38,16.54-9.65,7.18h-.04l-15.24-4.8c-4.38-2.38-9.06-1.92-19.88,3.38-4.93-6.56-15.7-3.67-19.25,3.34-2.51,4.97,4.89,8.69,14.41,4.93,5.18,7.43,11.78,2.13,15.95-2.76l12.61,4.3-20.88,15.45-9.23-4.09c-4.38-2.38-9.06-1.92-19.84,3.38-5.01-6.56-15.74-3.67-19.29,3.34-2.51,4.97,4.89,8.77,14.37,4.97,5.22,7.43,11.82,2.09,16.04-2.76l8.73,1.96-19.17,14.16-11.99-3.42c-3.84-2.13-8.23-1.8-16.7,2-1.59-3.97-3.09-7.89-4.64-11.82ZM362.15,822.02l2.13-7.27,9.65,2.67-10.48,7.73c-.42-1.04-.88-2.09-1.29-3.13ZM1177.74,255.24c-.29,4.84-.63,10.11-.92,15.45-.21,3.22-.42,6.47-.63,9.69-.21,2.46-.33,4.93-.5,7.31-.21,3.13-.42,6.18-.63,9.06-.33,4.76-.67,9.1-.96,12.65-.13,1.55-.29,3.34-.42,5.43-.08.71-.13,1.46-.17,2.21-.04.63-.08,1.25-.13,1.88-.08,1.29-.21,2.67-.29,4.13-1.63,22.63-4.59,64.02-11.19,117.31-2.71,21.88-6.06,45.77-10.19,71.2-5.51,33.87-12.4,70.45-21.05,108.58-2.92,12.74-5.97,25.64-9.27,38.63-2.46,9.77-5.05,19.63-7.77,29.52-3.63,13.2-7.48,26.48-11.57,39.84-2.67,8.73-5.51,17.5-8.48,26.27v.04c-3.01,8.77-6.1,17.5-9.35,26.27,0,.04-.04.08-.04.13-7.73,20.96-16.25,42.05-25.52,63.06-20.8,47.15-45.23,94.17-72.75,139.86,0,.04-.04.04-.04.08-2.05,3.42-4.13,6.85-6.22,10.23-6.26,10.23-12.7,20.42-19.29,30.49-6.6,10.06-13.28,20.05-20.13,29.94-20.59,29.65-42.35,58.38-65.06,85.82l-.04.04c-6.51,7.93-13.15,15.7-19.84,23.39-28.48,32.66-59.09,64.56-85.28,90.83l-.04.04c-13.74,13.78-26.18,25.98-36.46,35.87-5.64,5.47-10.65,10.23-14.83,14.16-1.67,1.59-3.17,3.01-4.55,4.3l-.04.04c-11.15-10.73-32.11-31.15-57.13-56.71-25.22-25.81-54.58-56.84-82.19-88.53-6.56-7.52-13.03-15.2-19.5-22.97-22.8-27.52-44.56-56.29-65.15-85.99-12.36-17.79-24.26-35.96-35.71-54.33-4.38-6.97-8.64-14.03-12.86-21.09v-.04c-25.39-42.6-48.11-86.24-67.69-130.04l67.69-50.03,113.71-84.06h.04l101.65-75.13h.04l112.96-83.52h.04l105.11-77.72h.04l110.71-81.85h.04l99.47-73.54h.04l92.29-68.24v.04Z"/>
    <path class="cls-1" d="M1427.55,12.78V0L0,.04v12.78c0,29.11,0,97.3.42,108.83.04,1.46.08,4.59.13,9.23,1.63,189.18,20.8,372.76,55.42,530.9,61.6,281.93,186.21,509.98,404.04,739.5,105.15,110.87,242.92,221.67,244.47,222.88l9.94,7.77,9.86-7.81c1.38-1.09,138.02-109.08,243.21-219.95,217.74-229.56,342.35-457.61,404.08-739.54,34.62-158.11,53.75-341.69,55.37-530.86.04-4.68.08-7.81.13-9.27.54-14.45.5-107.74.5-111.71ZM1401.49,123.61c-.08,1.55-.08,4.93-.13,9.94-1.63,187.42-20.59,369.21-54.79,525.6-60.68,277.08-183.33,501.42-397.65,727.39-91.41,96.38-207.13,190.68-234.53,212.73-27.48-22.43-144.24-119.02-235.82-215.61-214.44-225.93-337.05-450.26-397.65-727.35C46.73,499.83,27.77,318.09,26.1,130.67c-.04-4.97-.08-8.35-.13-9.9-.33-9.6-.38-63.64-.38-95.13l1376.35-.08c0,26.77-.08,87.11-.46,98.05Z"/>
  </g>
</svg>