<?xml version="1.0" encoding="UTF-8"?>
<svg id="Calque_2" data-name="Calque 2" xmlns="http://www.w3.org/2000/svg" viewBox="0 0 8393.46 10615.1">
  <defs>
    <style>
      .cls-1 {
        fill: #000;
      }

      .cls-1, .cls-2, .cls-3 {
        stroke-width: 0px;
      }

      .cls-2 {
        fill: #0053db;
      }

      .cls-3 {
        fill: #fff;
      }
    </style>
  </defs>
  <g id="Calque_1-2" data-name="Calque 1">
    <path class="cls-3" d="M198.11,5216.11c-19.59-87.08-38.1-176.34-54.43-266.68,16.33,90.35,34.83,178.51,54.43,266.68Z"/>
    <polygon class="cls-3" points="8393.46 856.65 4197.27 0 0 856.65 4197.27 0 8393.46 856.65"/>
    <path class="cls-3" d="M72.93,4493.35c-19.59-156.74-34.83-317.84-45.72-484.38,10.89,166.54,26.12,327.64,45.72,484.38Z"/>
    <path class="cls-3" d="M143.68,4950.52c-27.21-148.04-51.16-300.43-70.75-457.17,19.59,156.74,42.45,309.14,70.75,457.17Z"/>
    <path class="cls-3" d="M4610.91,10366.92c-26.12,17.42-51.16,32.66-75.11,47.89,23.95-15.24,48.98-31.57,75.11-47.89Z"/>
    <path class="cls-3" d="M5014.74,10084.99c-50.07,37.01-99.05,71.84-145.86,105.59,46.81-33.74,95.79-68.58,145.86-105.59Z"/>
    <path class="cls-3" d="M4165.71,10596.59c14.15,7.62,23.95,13.06,31.57,16.33,7.62-3.27,17.42-8.71,31.57-16.33-14.15,7.62-23.95,13.06-31.57,16.33-7.62-3.27-17.42-8.71-31.57-16.33Z"/>
    <path class="cls-3" d="M4778.54,10254.8c-44.63,30.48-87.08,59.87-127.36,85.99,40.27-27.21,82.73-55.51,127.36-85.99Z"/>
    <path class="cls-3" d="M4467.22,10458.35c-43.54,27.21-83.81,51.16-117.56,70.75,34.83-19.59,74.02-43.54,117.56-70.75Z"/>
    <path class="cls-3" d="M5905.14,9327.4c-39.19,38.1-78.37,76.2-117.56,113.2,39.19-37.01,78.37-74.02,117.56-113.2Z"/>
    <path class="cls-3" d="M6082.56,9148.88c-39.19,41.36-79.46,80.55-118.65,120.82,39.19-39.19,78.37-79.46,118.65-120.82Z"/>
    <path class="cls-3" d="M4348.58,10529.1c-52.25,30.48-92.52,52.25-119.74,67.49,27.21-14.15,68.58-37.01,119.74-67.49Z"/>
    <path class="cls-3" d="M5169.31,9968.52c-34.83,27.21-69.66,53.34-103.41,79.46,33.74-26.12,68.58-52.25,103.41-79.46Z"/>
    <path class="cls-3" d="M3524.58,10190.58c-46.81-33.74-95.79-68.58-145.86-105.59,50.07,37.01,99.05,71.84,145.86,105.59Z"/>
    <path class="cls-3" d="M3328.65,10047.99c-33.74-26.12-68.58-52.25-103.41-79.46,34.83,27.21,69.66,53.34,103.41,79.46Z"/>
    <path class="cls-3" d="M4165.71,10596.59c-27.21-14.15-68.58-37.01-119.74-67.49,52.25,30.48,92.52,52.25,119.74,67.49Z"/>
    <path class="cls-3" d="M2430.63,9268.62c-29.39-29.39-58.78-58.78-88.17-89.26,29.39,30.48,58.78,59.87,88.17,89.26Z"/>
    <path class="cls-3" d="M274.3,5525.25c-21.77-81.64-42.45-165.45-62.04-249.27,19.59,83.81,40.27,167.63,62.04,249.27Z"/>
    <path class="cls-3" d="M2578.67,9412.3c-29.39-28.3-58.78-56.6-89.26-85.99,29.39,29.39,59.87,57.69,89.26,85.99Z"/>
    <path class="cls-3" d="M4045.97,10529.1c-34.83-19.59-74.02-43.54-117.56-70.75,43.54,27.21,83.81,51.16,117.56,70.75Z"/>
    <path class="cls-3" d="M3743.37,10340.79c-40.27-27.21-82.73-55.51-127.36-85.99,44.63,30.48,87.08,59.87,127.36,85.99Z"/>
    <path class="cls-3" d="M3858.75,10415.9c-23.95-15.24-48.98-31.57-75.11-47.89,26.12,17.42,51.16,32.66,75.11,47.89Z"/>
    <path class="cls-3" d="M27.21,4008.96c-7.62-111.03-13.06-224.23-17.42-339.61,3.27,115.38,9.8,228.59,17.42,339.61Z"/>
    <path class="cls-3" d="M8327.06,3131.63l5.44-2224.9L4197.27,62.04,60.96,906.72l5.44,2223.81c-32.66,2000.67,448.46,3240.48,1234.36,4592.4,1027.55,1767.73,2670.1,2699.49,2896.51,2821.4,225.32-121.91,1867.87-1053.67,2896.51-2821.4,785.9-1351.92,1267.02-2590.64,1234.36-4591.31h-1.09ZM8155.08,3133.8c31.57,1960.4-439.76,3175.17-1210.42,4500.97-535.54,920.87-1252.87,1608.81-1761.2,2023.53-451.73,367.91-817.47,593.23-986.19,687.94-167.63-95.79-534.46-320.02-986.19-687.94-507.24-414.72-1224.57-1101.57-1761.2-2023.53C679.23,6308.97,206.82,5093.11,239.47,3133.8v-4.35l-5.44-2082.31L4197.27,237.29l3963.25,809.85-5.44,2082.31v4.35h0Z"/>
    <path class="cls-3" d="M7965.68,3129.45l4.35-1927.74-3772.76-771.75L423.43,1201.71l4.35,1927.74v8.71c-31.57,1915.77,429.96,3105.5,1185.38,4403,521.39,896.93,1221.3,1567.45,1716.57,1971.28,367.91,300.43,675.96,501.8,866.45,616.09,190.49-114.29,498.54-315.67,866.45-616.09,495.27-404.92,1195.18-1074.35,1716.57-1971.28,754.33-1297.5,1215.86-2487.23,1185.38-4403v-8.71h1.09ZM6388.43,7823.08c-969.86,1403.08-2191.16,2100.81-2191.16,2100.81,0,0-1218.04-694.47-2186.81-2092.11v-2801.81s-357.03-551.87-426.69-660.72v-741.27c133.89-25.04,249.27-45.72,334.17-62.04,15.24-3.27,30.48-5.44,43.54-7.62v312.4l115.38-20.68c63.13-10.89,151.3-26.12,269.95-43.54h0c181.78-26.12,302.6-39.19,374.45-45.72l87.08-7.62v-302.6c261.24-31.57,518.13-52.25,716.24-64.22,108.85-6.53,200.28-10.89,263.42-14.15v327.64l101.23-4.35c67.49-3.27,232.94-6.53,306.96-6.53s243.83,3.27,311.31,6.53l101.23,4.35v-327.64c179.6,7.62,573.64,28.3,979.65,78.37v302.6l87.08,7.62c71.84,6.53,193.75,19.59,374.45,45.72h0c118.65,17.42,206.82,31.57,269.95,43.54l115.38,20.68v-312.4c87.08,15.24,218.79,40.27,377.71,69.66v741.27c-69.66,107.76-426.69,660.72-426.69,660.72v2792.01l2.18,1.09ZM7789.34,3130.54c0,1326.89-131.71,2605.88-1157.08,4315.92-16.33,27.21-33.74,54.43-50.07,81.64v-2449.14c31.57-50.07,427.78-661.81,427.78-661.81v-928.49l-77.28-14.15c-336.35-63.13-572.55-105.59-573.64-105.59l-115.38-20.68v313.49c-45.72-7.62-99.05-15.24-160.01-25.04h0c-126.27-18.5-225.32-30.48-299.34-39.19v-297.16l-82.73-10.89c-593.23-78.37-1183.2-94.7-1185.38-94.7l-100.14-3.27v326.55c-76.2-2.18-166.54-3.27-218.79-3.27s-139.33,1.09-214.44,3.27v-326.55l-100.14,3.27c-2.18,0-592.15,16.33-1185.38,94.7l-82.73,10.89v297.16c-74.02,7.62-173.07,20.68-299.34,39.19h0c-60.96,8.71-114.29,17.42-160.01,25.04v-313.49l-115.38,20.68s-237.29,41.36-573.64,105.59l-77.28,14.15v928.49s365.74,566.02,427.78,661.81v2460.02c-18.5-30.48-38.1-60.96-56.6-92.52C734.74,5737.51,603.03,4457.43,603.03,3130.54s-3.27-1786.24-3.27-1786.24l3597.51-735.83,3597.51,734.74s-5.44,460.44-5.44,1786.24v1.09Z"/>
    <path class="cls-2" d="M6815.13,3629.07c-158.92-29.39-290.63-53.34-377.71-69.66v312.4l-115.38-20.68c-63.13-10.89-151.3-26.12-269.95-43.54h0c-181.78-26.12-302.6-39.19-374.45-45.72l-87.08-7.62v-302.6c-406.01-50.07-801.14-70.75-979.65-78.37v327.64l-101.23-4.35c-67.49-3.27-238.38-6.53-311.31-6.53s-239.47,3.27-306.96,6.53l-101.23,4.35v-327.64c-63.13,2.18-154.57,7.62-263.42,14.15-198.11,11.97-454.99,32.66-716.24,64.22v302.6l-87.08,7.62c-71.84,6.53-193.75,19.59-374.45,45.72h0c-118.65,17.42-206.82,31.57-269.95,43.54l-115.38,20.68v-312.4c-13.06,2.18-28.3,5.44-43.54,7.62-84.9,15.24-200.28,37.01-334.17,62.04v741.27c69.66,107.76,426.69,660.72,426.69,660.72v2801.81c968.77,1397.64,2186.81,2092.11,2186.81,2092.11,0,0,1221.3-697.73,2191.16-2100.81v-2792.01s357.03-551.87,426.69-660.72v-741.27l-2.18-1.09ZM3699.83,8982.34h-90.35v-416.9c-14.15,4.35-32.66,6.53-51.16,5.44v-87.08c46.81,0,58.78-9.8,58.78-43.54h82.73v542.08ZM4088.42,8661.23c0,52.25-10.89,94.7-30.48,138.24l-82.73,183.96h-96.88l80.55-171.98c-13.06,3.27-26.12,4.35-38.1,4.35-88.17,0-131.71-57.69-131.71-144.77v-80.55c0-93.61,59.87-155.66,150.21-155.66s150.21,63.13,150.21,155.66v71.84l-1.09-1.09ZM4462.87,8833.21c0,91.43-62.04,155.66-151.3,155.66s-150.21-64.22-150.21-155.66v-243.83c0-92.52,62.04-156.74,150.21-156.74s151.3,64.22,151.3,156.74v243.83ZM4836.23,8815.8c0,103.41-51.16,174.16-151.3,174.16s-150.21-63.13-150.21-155.66h90.35c0,51.16,27.21,68.58,62.04,68.58s58.78-23.95,58.78-68.58v-63.13c0-50.07-18.5-79.46-60.96-79.46s-51.16,27.21-56.6,41.36l-84.9-14.15,42.45-279.75h228.59v87.08h-156.74l-18.5,118.65c6.53-7.62,30.48-27.21,71.84-27.21,82.73,0,125.18,48.98,125.18,152.39v45.72h0ZM5576.41,6716.07c-125.18,220.97-259.06,412.54-399.48,580.17-224.23,267.77-463.7,472.41-706.44,633.51-30.48,20.68-60.96,39.19-91.43,58.78-60.96,38.1-121.91,72.93-181.78,105.59h0c-60.96-32.66-121.91-67.49-181.78-105.59-91.43-56.6-181.78-118.65-272.13-187.22-90.35-68.58-179.6-144.77-266.68-228.59-234.03-223.14-457.17-501.8-657.46-855.56-406.01-715.15-530.1-1456.42-517.04-2094.28,316.75-180.69,684.67-323.29,1099.39-404.92,82.73-16.33,167.63-30.48,254.71-41.36,87.08-10.89,175.25-19.59,265.6-26.12,90.35-6.53,182.87-8.71,276.48-8.71h0c281.92,0,547.52,27.21,796.79,76.2,414.72,81.64,782.64,224.23,1099.39,404.92,13.06,637.86-112.12,1379.14-517.04,2094.28l-1.09-1.09Z"/>
    <path class="cls-2" d="M4311.57,8519.73c-32.66,0-59.87,17.42-59.87,69.66v241.65c0,53.34,28.3,70.75,59.87,70.75s60.96-17.42,60.96-69.66v-242.74c0-53.34-28.3-69.66-60.96-69.66h0Z"/>
    <path class="cls-2" d="M3939.3,8519.73c-33.74,0-59.87,15.24-59.87,75.11v79.46c0,50.07,27.21,64.22,59.87,64.22s59.87-15.24,59.87-64.22v-79.46c0-58.78-25.04-75.11-59.87-75.11Z"/>
    <polygon class="cls-2" points="4346.4 2204.22 4244.08 1706.78 4137.41 2203.13 4346.4 2204.22"/>
    <path class="cls-2" d="M3599.68,2235.79c-7.62-106.67-56.6-132.8-139.33-126.27l-115.38,7.62,21.77,335.26,108.85-7.62c89.26-5.44,136.06-31.57,128.44-148.04l-4.35-60.96h0Z"/>
    <polygon class="cls-2" points="6814.04 2008.29 6598.51 2468.73 6800.98 2516.62 6814.04 2008.29"/>
    <path class="cls-2" d="M600.85,1344.3s3.27,460.44,3.27,1786.24,131.71,2605.88,1157.08,4315.92c18.5,31.57,38.1,62.04,56.6,92.52v-2460.02c-60.96-94.7-427.78-661.81-427.78-661.81v-928.49l77.28-14.15c336.35-63.13,572.55-105.59,573.64-105.59l115.38-20.68v313.49c45.72-7.62,99.05-15.24,160.01-25.04h0c126.27-18.5,225.32-30.48,299.34-39.19v-297.16l82.73-10.89c593.23-78.37,1183.2-94.7,1185.38-94.7l100.14-3.27v326.55c75.11-2.18,162.19-3.27,214.44-3.27s142.59,1.09,218.79,3.27v-326.55l100.14,3.27c2.18,0,592.15,16.33,1185.38,94.7l82.73,10.89v297.16c74.02,7.62,173.07,20.68,299.34,39.19h0c60.96,8.71,114.29,17.42,160.01,25.04v-313.49l115.38,20.68s237.29,41.36,573.64,105.59l77.28,14.15v928.49s-396.22,611.74-427.78,661.81v2449.14c17.42-27.21,33.74-54.43,50.07-81.64,1025.37-1708.95,1157.08-2989.03,1157.08-4315.92s5.44-1786.24,5.44-1786.24l-3598.6-735.83L600.85,1343.21v1.09ZM1779.71,2905.22c-193.75,45.72-361.38-48.98-410.37-257.98l191.58-44.63c26.12,111.03,100.14,137.15,176.34,118.65,74.02-17.42,118.65-75.11,100.14-152.39-46.81-201.37-518.13-195.93-586.7-486.56-42.45-181.78,53.34-329.82,243.82-374.45,182.87-42.45,342.88,52.25,389.68,252.53l-190.49,44.63c-23.95-102.32-88.17-132.8-160.01-116.47-70.75,16.33-108.85,69.66-92.52,138.24,47.89,206.82,509.42,175.25,582.35,484.38,44.63,191.58-41.36,346.14-243.82,394.04h0ZM2489.41,2763.71c-192.67,31.57-349.41-87.08-382.07-286.28l-87.08-529.01c-32.66-201.37,78.37-363.56,271.04-395.13,192.67-31.57,351.59,87.08,384.24,287.37l9.8,62.04-195.93,31.57-11.97-70.75c-17.42-106.67-85.99-133.89-155.66-121.91-67.49,10.89-125.18,56.6-106.67,165.45l89.26,544.25c17.42,106.67,85.99,133.89,154.57,123,65.31-10.89,126.27-56.6,108.85-165.45l-14.15-84.9,195.93-31.57,13.06,78.37c32.66,199.2-79.46,362.47-272.13,394.04l-1.09-1.09ZM3495.19,2633.09l-313.49,20.68-79.46-1194.09,302.6-20.68c194.84-13.06,334.17,64.22,348.32,280.83l3.27,55.51c8.71,130.62-30.48,201.37-104.5,238.38,83.81,30.48,137.15,91.43,145.86,231.85l4.35,69.66c14.15,211.17-114.29,303.69-309.14,316.75l2.18,1.09ZM6983.85,1748.14l4.35,1228.92-197.02-45.72,3.27-239.47-271.04-63.13-104.5,216.61-197.02-45.72,552.96-1099.39,207.9,48.98,1.09-1.09ZM6373.19,1616.43l-211.17,1177.76-195.93-34.83,211.17-1177.76,195.93,34.83ZM5449.05,1477.1l598.68,79.46-25.04,191.58-201.37-27.21-131.71,993.8-197.02-26.12,131.71-993.8-200.29-26.12,25.04-191.58h0ZM4642.47,2286.95l195.93,14.15c-7.62,113.2,54.43,160.01,132.8,166.54,76.2,5.44,134.97-35.92,141.51-115.38,15.24-206.82-436.49-340.7-414.72-638.95,13.06-186.13,149.13-299.34,343.97-285.19,188.31,13.06,312.4,151.3,297.16,357.03l-194.84-14.15c7.62-104.5-45.72-153.48-117.56-157.83-72.93-5.44-125.18,33.74-129.53,104.5-15.24,211.17,434.31,318.93,412.54,635.69-14.15,195.93-141.51,317.84-350.5,303.69-198.11-14.15-330.91-154.57-315.67-367.91l-1.09-2.18ZM4631.59,2612.41h-202.46l-50.07-235.12h-278.66c0-1.09-53.34,232.94-53.34,232.94h-202.46l293.9-1196.27h213.35l278.66,1198.44h1.09Z"/>
    <path class="cls-2" d="M3562.68,1809.09l-3.27-45.72c-7.62-121.91-63.13-137.15-148.04-131.71l-97.97,6.53,21.77,322.2,112.12-7.62c74.02-5.44,124.09-27.21,116.47-143.68h-1.09Z"/>
    <path class="cls-1" d="M8393.46,856.65L4197.27,0,0,856.65l5.44,2273.89c-3.27,186.13-2.18,364.65,4.35,538.81,3.27,115.38,9.8,228.59,17.42,339.61,10.89,166.54,26.12,327.64,45.72,484.38,19.59,156.74,42.45,309.14,70.75,457.17,16.33,90.35,34.83,178.51,54.43,266.68,4.35,19.59,8.71,40.27,13.06,59.87,19.59,83.81,40.27,167.63,62.04,249.27,75.11,278.66,165.45,546.43,268.86,808.76,17.42,43.54,34.83,87.08,53.34,130.62,54.43,130.62,112.12,259.06,173.07,387.51,20.68,42.45,41.36,85.99,62.04,128.44,126.27,256.89,265.6,511.6,416.9,771.75,248.18,426.69,534.46,807.67,827.26,1139.66,19.59,21.77,39.19,44.63,58.78,66.4,68.58,76.2,138.24,150.21,206.82,220.97,29.39,30.48,58.78,59.87,88.17,89.26,19.59,19.59,39.19,39.19,58.78,58.78,29.39,29.39,59.87,57.69,89.26,85.99,29.39,27.21,57.69,54.43,87.08,81.64,136.06,125.18,269.95,240.56,397.3,345.06,37.01,29.39,72.93,58.78,108.85,87.08,17.42,14.15,35.92,28.3,53.34,41.36,34.83,27.21,69.66,53.34,103.41,79.46,17.42,13.06,33.74,25.04,50.07,38.1,50.07,37.01,99.05,71.84,145.86,105.59,31.57,21.77,62.04,43.54,91.43,64.22,44.63,30.48,87.08,59.87,127.36,85.99,13.06,8.71,27.21,17.42,40.27,26.12,26.12,17.42,51.16,32.66,75.11,47.89,23.95,15.24,46.81,29.39,68.58,43.54,43.54,27.21,83.81,51.16,117.56,70.75,52.25,30.48,92.52,52.25,119.74,67.49,14.15,7.62,23.95,13.06,31.57,16.33,7.62-3.27,17.42-8.71,31.57-16.33,27.21-14.15,68.58-37.01,119.74-67.49,34.83-19.59,74.02-43.54,117.56-70.75,21.77-13.06,44.63-28.3,68.58-43.54,23.95-15.24,48.98-31.57,75.11-47.89,13.06-8.71,26.12-17.42,40.27-26.12,40.27-27.21,82.73-55.51,127.36-85.99,29.39-20.68,59.87-41.36,91.43-64.22,46.81-33.74,95.79-68.58,145.86-105.59,16.33-11.97,33.74-25.04,50.07-38.1,33.74-26.12,68.58-52.25,103.41-79.46,192.67-150.21,402.75-326.55,617.18-527.92,39.19-37.01,78.37-74.02,117.56-113.2,19.59-19.59,39.19-38.1,58.78-58.78,39.19-39.19,78.37-79.46,118.65-120.82,374.45-388.6,748.89-854.48,1063.47-1395.46,101.23-173.07,197.02-345.06,286.28-515.95,44.63-85.99,88.17-170.9,130.62-256.89,20.68-42.45,41.36-85.99,62.04-128.44,365.74-770.66,613.92-1558.74,714.06-2517.71,10.89-106.67,20.68-215.52,28.3-325.46,7.62-111.03,13.06-224.23,17.42-339.61,5.44-173.07,6.53-352.68,4.35-538.81l5.44-2273.89h4.35ZM7093.78,7721.85c-1027.55,1767.73-2670.1,2699.49-2896.51,2821.4-225.32-121.91-1867.87-1053.67-2896.51-2821.4C514.86,6369.93,33.74,5131.21,66.4,3129.45l-5.44-2223.81L4197.27,62.04l4136.32,844.68-5.44,2224.9c32.66,1999.58-448.46,3239.39-1234.36,4591.31v-1.09Z"/>
    <path class="cls-1" d="M8160.52,1047.14L4197.27,237.29,234.03,1047.14l5.44,2082.31v4.35c-31.57,1960.4,439.76,3175.17,1210.42,4500.97,535.54,920.87,1252.87,1608.81,1761.2,2023.53,451.73,367.91,817.47,593.23,986.19,687.94,167.63-95.79,534.46-320.02,986.19-687.94,507.24-414.72,1224.57-1101.57,1761.2-2023.53,770.66-1325.8,1243.07-2541.66,1210.42-4500.97v-4.35l5.44-2082.31ZM7965.68,3134.89v2.18c31.57,1915.77-429.96,3105.5-1185.38,4403-521.39,896.93-1221.3,1567.45-1716.57,1971.28-367.91,300.43-675.96,501.8-866.45,616.09-190.49-114.29-498.53-315.67-866.45-616.09-495.27-404.92-1195.18-1074.35-1716.57-1971.28C859.92,6242.57,398.39,5052.84,428.87,3137.07v-8.71l-4.35-1927.74,3772.76-770.66,3773.85,770.66-4.35,1927.74v6.53h-1.09Z"/>
    <path class="cls-3" d="M3558.32,8483.8v87.08c18.5,1.09,38.1,0,51.16-5.44v416.9h90.35v-542.08h-82.73c0,33.74-11.97,43.54-58.78,43.54Z"/>
    <path class="cls-3" d="M3939.3,8432.64c-90.35,0-150.21,63.13-150.21,155.66v80.55c0,87.08,43.54,144.77,131.71,144.77s25.04-1.09,38.1-4.35l-80.55,171.98h96.88l82.73-183.96c19.59-43.54,30.48-84.9,30.48-138.24v-71.84c0-93.61-59.87-155.66-150.21-155.66l1.09,1.09ZM3999.17,8674.29c0,48.98-26.12,64.22-59.87,64.22s-59.87-14.15-59.87-64.22v-79.46c0-58.78,26.12-75.11,59.87-75.11s59.87,15.24,59.87,75.11v79.46Z"/>
    <path class="cls-3" d="M4311.57,8432.64c-88.17,0-150.21,64.22-150.21,156.74v243.83c0,91.43,62.04,155.66,150.21,155.66s151.3-64.22,151.3-155.66v-243.83c0-92.52-62.04-156.74-151.3-156.74h0ZM4372.52,8832.13c0,53.34-29.39,69.66-60.96,69.66s-59.87-17.42-59.87-70.75v-241.65c0-53.34,27.21-69.66,59.87-69.66s60.96,17.42,60.96,69.66v242.74Z"/>
    <path class="cls-3" d="M4709.96,8617.69c-41.36,0-65.31,19.59-71.84,27.21l18.5-118.65h156.74v-87.08h-228.59l-42.45,279.75,84.9,14.15c6.53-14.15,18.5-41.36,56.6-41.36s60.96,29.39,60.96,79.46v63.13c0,44.63-25.04,68.58-58.78,68.58s-62.04-17.42-62.04-68.58h-90.35c0,92.52,62.04,155.66,150.21,155.66s151.3-69.66,151.3-174.16v-45.72c0-103.41-43.54-152.39-125.18-152.39h0Z"/>
    <path class="cls-3" d="M1442.27,2027.88c-16.33-69.66,21.77-121.91,92.52-138.24,70.75-16.33,136.06,13.06,160.01,116.47l190.49-44.63c-46.81-200.28-206.82-294.98-389.68-252.53-190.49,44.63-286.28,192.67-243.82,374.45,68.58,290.63,538.81,285.19,586.7,486.56,18.5,77.28-26.12,134.97-100.14,152.39-76.2,17.42-150.21-8.71-176.34-118.65l-191.58,44.63c48.98,207.9,217.7,302.6,410.37,257.98,203.55-47.89,289.54-201.37,243.82-394.04-71.84-309.14-533.37-277.57-582.35-484.38h0Z"/>
    <path class="cls-3" d="M2749.56,2291.3l-195.93,31.57,14.15,84.9c17.42,108.85-43.54,154.57-108.85,165.45-68.58,10.89-137.15-15.24-154.57-123l-89.26-544.25c-17.42-108.85,40.27-154.57,106.67-165.45,70.75-11.97,138.24,15.24,155.66,121.91l11.97,70.75,195.93-31.57-9.8-62.04c-32.66-201.37-191.58-318.93-384.24-287.37-192.67,31.57-303.69,193.75-271.04,395.13l87.08,529.01c32.66,199.2,189.4,317.84,382.07,286.28,192.67-31.57,304.78-194.84,272.13-394.04l-13.06-78.37,1.09,1.09Z"/>
    <path class="cls-3" d="M3798.88,2247.76c-9.8-140.42-63.13-201.37-145.86-231.85,74.02-37.01,113.2-107.76,104.5-238.38l-3.27-55.51c-14.15-216.61-153.48-293.9-348.32-280.83l-302.6,20.68,79.46,1194.09,313.49-20.68c194.84-13.06,323.29-104.5,309.14-316.75l-4.35-69.66-2.18-1.09ZM3313.41,1638.2l97.97-6.53c84.9-5.44,140.42,9.8,148.04,131.71l3.27,45.72c7.62,116.47-41.36,139.33-116.47,143.68l-112.12,7.62-21.77-322.2h1.09ZM3475.6,2444.78l-108.85,7.62-21.77-335.26,115.38-7.62c82.73-5.44,132.8,19.59,139.33,126.27l4.35,60.96c7.62,116.47-38.1,141.51-128.44,148.04h0Z"/>
    <path class="cls-3" d="M3845.69,2609.15h202.46l53.34-232.94h278.66c0,1.09,50.07,235.12,50.07,235.12h202.46l-278.66-1196.27h-213.35l-293.9,1194.09h-1.09ZM4346.4,2204.22h-208.99l107.76-497.45,101.23,497.45Z"/>
    <path class="cls-3" d="M4958.14,2654.86c207.9,15.24,336.35-106.67,350.5-303.69,22.86-316.75-427.78-423.43-412.54-635.69,5.44-70.75,57.69-109.94,129.53-104.5,72.93,5.44,125.18,53.34,117.56,157.83l194.84,14.15c15.24-204.64-109.94-342.88-297.16-357.03-194.84-14.15-330.91,99.05-343.97,285.19-21.77,298.25,429.96,432.14,414.72,638.95-5.44,79.46-65.31,120.82-141.51,115.38-78.37-5.44-140.42-52.25-132.8-166.54l-195.93-14.15c-15.24,213.35,117.56,353.76,315.67,367.91l1.09,2.18Z"/>
    <polygon class="cls-3" points="5492.59 2689.69 5689.61 2715.82 5821.32 1722.01 6022.7 1749.23 6048.82 1556.56 5449.05 1477.1 5424.02 1669.77 5624.3 1695.89 5492.59 2689.69"/>
    <rect class="cls-3" x="5576.21" y="2090.69" width="1196.27" height="198.11" transform="translate(2925.83 7878.74) rotate(-79.8)"/>
    <path class="cls-3" d="M6420,2845.35l104.5-216.61,271.04,63.13-3.27,239.47,197.02,45.72-4.35-1228.92-207.9-48.98-552.96,1099.39,197.02,45.72-1.09,1.09ZM6814.04,2008.29l-11.97,507.24-203.55-47.89,215.52-460.44v1.09Z"/>
    <path class="cls-3" d="M4823.16,5968.27c-6.53-54.43-35.92-90.35-50.07-103.41-3.27,4.35-6.53,7.62-10.89,10.89h0c6.53,40.27,38.1,151.3,105.59,207.9-51.16-28.3-103.41-127.36-119.74-198.11-5.44,4.35-10.89,6.53-17.42,8.71,63.13,101.23,51.16,188.31,99.05,249.27,63.13,76.2,198.11,35.92,232.94,181.78,3.27-29.39,3.27-64.22-2.18-96.88,15.24,33.74,17.42,82.73,19.59,117.56v26.12l7.62-10.89c5.44-28.3,10.89-74.02,3.27-115.38,9.8,20.68,14.15,58.78,15.24,88.17l11.97-17.42c0-21.77,0-44.63-4.35-67.49,6.53,13.06,10.89,33.74,13.06,53.34l22.86-32.66c2.18-33.74-3.27-134.97-3.27-134.97-3.27-20.68-13.06-51.16-44.63-66.4-45.72-27.21-162.19-45.72-208.99-108.85-13.06-20.68-42.45-64.22-67.49-94.7-4.35-2.18-8.71-5.44-13.06-8.71,10.89,22.86,16.33,53.34,14.15,75.11-6.53-50.07-29.39-77.28-40.27-88.17-2.18,4.35-5.44,9.8-8.71,13.06,40.27,38.1,39.19,67.49,42.45,112.12h3.27Z"/>
    <path class="cls-3" d="M4697.99,5868.13c6.53,17.42,79.46-10.89,83.81-67.49s-45.72-58.78-52.25-53.34c-9.8,9.8,11.97,19.59,9.8,56.6-6.53,37.01-48.98,40.27-41.36,63.13v1.09Z"/>
    <path class="cls-3" d="M3945.83,5394.63c-117.56-4.35-370.09-92.52-401.66-119.74,65.31,21.77,414.72,124.09,348.32,68.58-65.31-54.43-424.52-208.99-451.73-211.17-4.35-2.18-14.15-3.27-16.33,8.71-5.44,26.12-47.89,48.98-59.87,54.43-23.95,10.89-20.68,40.27-14.15,46.81,2.18,11.97,50.07,50.07,56.6,55.51-3.27,0-16.33-5.44-40.27-6.53-27.21-2.18-30.48,17.42-32.66,21.77-2.18,4.35-11.97,29.39-4.35,40.27,5.44,10.89,66.4,42.45,66.4,42.45l-67.49-5.44s-11.97,7.62-13.06,41.36c0,64.22,97.97,74.02,143.68,92.52,28.3,9.8,132.8,63.13,218.79,88.17,87.08,23.95,227.5,18.5,269.95,22.86,0,0-31.57,16.33-94.7,20.68,9.8,5.44,128.44,57.69,191.58,57.69,9.8-14.15,59.87-72.93,130.62-93.61,112.12-25.04,164.36,63.13,169.81,97.97,7.62,55.51-15.24,103.41-42.45,124.09-27.21,20.68-54.43,23.95-78.37,65.31-23.95,62.04-55.51,132.8-103.41,132.8s-56.6-19.59-64.22-30.48c0,4.35,6.53,48.98,69.66,53.34,62.04,3.27,97.97-79.46,114.29-118.65,16.33-40.27,50.07-57.69,71.84-70.75,22.86-13.06,48.98-45.72,56.6-66.4,6.53-13.06,26.12-18.5,50.07-7.62,18.5,8.71,28.3,32.66,83.81,34.83,28.3,2.18,90.35,0,115.38-13.06-22.86-33.74-56.6-5.44-97.97-23.95-46.81-15.24-64.22-33.74-108.85-34.83,45.72-16.33,105.59,20.68,173.07,15.24,43.54-1.09,43.54,37.01,94.7,40.27,6.53,0,27.21-3.27,27.21-21.77-2.18-70.75-96.88-97.97-136.06-124.09-50.07-27.21-141.51-130.62-262.33-161.1-26.12-5.44-78.37-16.33-118.65-35.92,9.8,0,46.81,0,65.31-8.71-44.63-4.35-112.12-20.68-158.92-45.72-56.6-29.39-116.47-20.68-149.13-21.77l-1.09-4.35ZM3595.33,5503.48c-76.2-48.98-178.51-63.13-242.74-66.4,68.58-2.18,145.86-23.95,269.95,44.63,81.64,56.6,240.56,43.54,269.95,34.83-40.27,31.57-211.17,42.45-298.25-14.15l1.09,1.09ZM4263.67,5541.58c100.14,14.15,183.96,57.69,268.86,120.82,50.07,38.1,129.53,59.87,139.33,109.94-18.5-27.21-102.32-67.49-185.05-70.75-83.81-3.27-102.32,2.18-121.91-25.04-56.6-76.2-237.29-155.66-321.11-185.05,127.36,26.12,263.42,82.73,339.61,170.9,8.71,9.8,30.48,15.24,57.69,15.24s74.02,5.44,85.99,11.97c-14.15-15.24-127.36-108.85-263.42-148.04h0Z"/>
    <path class="cls-3" d="M4151.56,5850.71c-16.33,15.24-6.53,62.04-25.04,62.04s0-25.04-23.95-21.77c-18.5,1.09-18.5,42.45,15.24,50.07,47.89,8.71,43.54-32.66,54.43-66.4,5.44-17.42,52.25-16.33,52.25-62.04s-52.25-42.45-53.34-27.21c0,14.15,23.95,11.97,23.95,27.21s-26.12,23.95-42.45,40.27l-1.09-2.18Z"/>
    <path class="cls-3" d="M4998.41,5715.74c-8.71,21.77-67.49,66.4-197.02,60.96,0,2.18,0,5.44,1.09,8.71,57.69,20.68,158.92,11.97,205.73-23.95-34.83,37.01-109.94,64.22-204.64,38.1,0,5.44-1.09,10.89-3.27,17.42,14.15,8.71,29.39,18.5,39.19,26.12,27.21,20.68,74.02,23.95,106.67,9.8,32.66-14.15,131.71-46.81,163.28-101.23,27.21-47.89,35.92-77.28,50.07-145.86,15.24-67.49,186.13-478.94,186.13-478.94-47.89,4.35-173.07,15.24-173.07,15.24-7.62,19.59-50.07,93.61-133.89,67.49,26.12,88.17,14.15,247.09-11.97,293.9,8.71-35.92,23.95-236.21-8.71-308.05-9.8-9.8-14.15-17.42-15.24-37.01,0-19.59,23.95-52.25,68.58-56.6,43.54-4.35,97.97,0,96.88-32.66,0-33.74-45.72-30.48-58.78-30.48-93.61,0-116.47,112.12-224.23,99.05,0,0,79.46,275.39,87.08,297.16,9.8,25.04,58.78,335.26-177.43,322.2,0,1.09,1.09,3.27,2.18,5.44,41.36,7.62,155.66,6.53,202.46-45.72l-1.09-1.09ZM5233.53,5174.75c-27.21,0-44.63-1.09-65.31,27.21,14.15-39.19,47.89-32.66,65.31-27.21ZM5150.8,5231.35s-20.68,85.99,15.24,137.15c-32.66-8.71-44.63-97.97-15.24-137.15Z"/>
    <path class="cls-3" d="M4284.35,5777.78c6.53-19.59,20.68-78.37-31.57-111.03-60.96-37.01-170.9,45.72-176.34,85.99,0,38.1,100.14-100.14,161.1-60.96,40.27,26.12,20.68,87.08,15.24,103.41-2.18,23.95,23.95,6.53,31.57-17.42h0Z"/>
    <path class="cls-3" d="M4740.44,6901.12c11.97,89.26,68.58,103.41,104.5,93.61-32.66-15.24-64.22-52.25-67.49-63.13,11.97,18.5,53.34,47.89,88.17,53.34,0,0,1.09,0,2.18-1.09,3.27-3.27,6.53-6.53,9.8-9.8-35.92-8.71-77.28-55.51-79.46-67.49,11.97,18.5,53.34,48.98,89.26,53.34,2.18-3.27,3.27-7.62,5.44-10.89-35.92-8.71-76.2-55.51-79.46-67.49,10.89,17.42,50.07,45.72,83.81,52.25,13.06-57.69-17.42-129.53-20.68-154.57l-137.15,124.09,1.09-2.18Z"/>
    <path class="cls-3" d="M4844.93,6585.45c9.8,8.71,67.49,151.3,74.02,286.28,7.62-26.12,17.42-79.46,9.8-128.44,10.89,26.12,13.06,76.2,13.06,104.5,3.27-3.27,5.44-6.53,8.71-9.8,6.53-28.3,11.97-71.84,6.53-112.12,9.8,22.86,11.97,64.22,13.06,93.61,5.44-5.44,10.89-9.8,16.33-15.24,4.35-27.21,7.62-62.04,2.18-95.79,8.71,19.59,11.97,53.34,13.06,81.64,6.53-5.44,11.97-10.89,17.42-15.24,3.27-26.12,5.44-56.6,0-85.99,7.62,17.42,11.97,47.89,13.06,75.11,7.62-5.44,14.15-10.89,20.68-15.24,0-22.86,0-46.81-5.44-70.75,7.62,15.24,13.06,39.19,16.33,63.13,5.44-3.27,10.89-6.53,15.24-8.71,0-28.3,9.8-156.74,44.63-216.61,34.83-53.34,76.2-120.82,40.27-214.44-57.69,64.22-101.23,203.55-320.02,286.28l1.09-2.18Z"/>
    <path class="cls-3" d="M4886.3,5111.62c4.35,1.09,8.71,2.18,14.15,2.18,78.37-4.35,105.59-94.7,190.49-101.23v-47.89c-37.01,33.74-150.21,60.96-182.87,65.31-41.36,5.44-55.51,19.59-56.6,34.83,0,4.35,1.09,9.8,3.27,15.24,14.15-10.89,28.3-20.68,53.34-23.95-21.77,7.62-38.1,25.04-46.81,35.92,3.27,4.35,6.53,8.71,10.89,11.97,10.89-11.97,37.01-30.48,56.6-32.66-17.42,8.71-33.74,27.21-42.45,40.27h0Z"/>
    <path class="cls-3" d="M5090.94,4912.42c0-47.89-75.11-35.92-88.17-31.57v96.88s89.26-21.77,88.17-65.31Z"/>
    <path class="cls-3" d="M5366.33,5081.14c0-17.42-38.1-47.89-52.25-47.89,7.62,31.57-7.62,64.22-11.97,68.58,0,0,64.22-4.35,64.22-20.68h0Z"/>
    <path class="cls-3" d="M4197.27,8093.03h0c-60.96-32.66-121.91-67.49-181.78-105.59,60.96,38.1,121.91,72.93,181.78,105.59Z"/>
    <path class="cls-3" d="M3743.37,7800.22c-90.35-68.58-179.6-144.77-266.68-228.59,88.17,83.81,177.43,158.92,266.68,228.59Z"/>
    <path class="cls-3" d="M3409.2,5652.6c-23.95,23.95,15.24,60.96,15.24,60.96-17.42,10.89-15.24,85.99,15.24,88.17,30.48,5.44,44.63-27.21,42.45-51.16,11.97,9.8,53.34,29.39,75.11,32.66-59.87,4.35-96.88,43.54-77.28,62.04,18.5-44.63,128.44-31.57,128.44-81.64-117.56-14.15-177.43-84.9-198.11-112.12l-1.09,1.09Z"/>
    <path class="cls-3" d="M3400.49,4217.96c82.73-16.33,167.63-30.48,254.71-41.36-87.08,10.89-171.98,25.04-254.71,41.36Z"/>
    <path class="cls-3" d="M2552.54,4773.09c7.62,483.3,105.59,1151.64,485.47,1818.89,297.16,526.84,677.05,924.14,1159.26,1211.51,482.21-287.37,862.1-685.76,1159.26-1211.51,378.8-668.34,477.85-1336.68,485.47-1818.89-486.56-248.18-1052.58-378.8-1644.73-378.8s-1158.17,130.62-1644.73,378.8h0ZM4301.77,4841.67c15.24,3.27,101.23,3.27,101.23,3.27l5.44,33.74c17.42,8.71,120.82,47.89,150.21,63.13,25.04,11.97,68.58,2.18,96.88,27.21,0,1.09-13.06,34.83-13.06,34.83,11.97,4.35,33.74,7.62,54.43,57.69,20.68,50.07,58.78,84.9,81.64,92.52s51.16,14.15,54.43,27.21l-38.1,42.45,79.46,78.37-22.86,39.19c1.09,13.06,4.35,72.93,16.33,89.26,11.97,15.24,29.39,13.06,34.83,38.1,2.18,11.97-2.18,20.68-13.06,23.95-10.89,4.35-43.54,13.06-43.54,18.5s42.45,54.43,43.54,58.78c-11.97,13.06-66.4,23.95-88.17,26.12,3.27,31.57,21.77,78.37,34.83,90.35,13.06,11.97-22.86,30.48-70.75,11.97,1.09,10.89,6.53,20.68,10.89,31.57,25.04,5.44,82.73,9.8,119.74-26.12,45.72-41.36,78.37-156.74,43.54-274.3-10.89-35.92-85.99-297.16-99.05-318.93-14.15-14.15-16.33-28.3-17.42-42.45-2.18-23.95,18.5-51.16,67.49-58.78,48.98-7.62,85.99-21.77,85.99-21.77v-127.36c34.83-6.53,133.89-27.21,137.15,53.34v100.14c17.42,0,76.2,5.44,77.28,55.51,2.18,41.36-40.27,48.98-64.22,51.16-25.04,2.18-102.32,0-100.14,46.81,2.18,22.86,34.83,25.04,43.54,25.04,29.39,0,58.78-21.77,78.37-68.58l117.56-15.24s22.86-22.86,22.86-50.07c2.18-22.86-10.89-40.27-6.53-47.89,5.44-7.62,18.5-6.53,31.57-2.18,11.97,5.44,76.2,37.01,72.93,74.02s-166.54,376.62-206.82,527.93c-9.8,35.92-26.12,142.59-87.08,197.02-45.72,35.92-152.39,72.93-173.07,78.37-20.68,4.35-29.39,3.27-45.72,0,11.97,20.68,28.3,48.98,41.36,64.22,42.45,47.89,126.27,53.34,204.64,100.14,31.57,20.68,51.16,45.72,51.16,82.73s3.27,142.59,3.27,142.59c18.5,22.86,32.66,62.04,26.12,116.47-6.53,62.04-46.81,118.65-63.13,144.77-23.95,42.45-34.83,144.77-37.01,205.73-29.39,27.21-127.36,83.81-175.25,176.34-3.27,23.95-27.21,107.76-106.67,106.67-79.46-2.18-103.41-92.52-105.59-118.65,0-7.62,3.27-14.15,6.53-18.5,7.62-6.53,151.3-141.51,151.3-141.51-3.27-30.48-33.74-128.44-55.51-168.72,20.68-14.15,164.36-57.69,232.94-164.36-4.35-46.81-14.15-105.59-44.63-145.86-31.57-40.27-141.51-33.74-199.2-114.29-55.51-76.2-37.01-150.21-100.14-254.71-8.71,0-17.42-4.35-22.86-9.8-9.8,21.77-9.8,35.92-9.8,42.45-2.18,21.77,0,31.57,11.97,51.16,11.97,19.59,17.42,42.45,20.68,54.43-16.33,4.35-81.64,6.53-85.99,6.53s44.63,57.69,56.6,72.93c10.89,15.24-2.18,18.5-7.62,19.59-5.44,1.09-56.6,8.71-56.6,8.71,4.35,37.01,56.6,250.36,189.4,362.47,8.71,8.71,1.09,11.97,0,14.15-2.18,2.18-138.24,69.66-195.93,133.89-158.92,150.21-306.96,518.13-633.51,421.25-56.6-342.88-232.94-238.38-280.83-437.58-180.69,45.72-364.65,20.68-383.15-92.52-8.71-63.13,38.1-79.46,0-173.07-23.95,0-84.9,2.18-91.43-41.36-5.44-34.83,0-41.36,10.89-66.4-16.33-7.62-47.89-30.48-47.89-63.13,0-43.54,56.6-48.98,57.69-81.64,1.09-32.66,0-32.66,0-32.66h-66.4c-17.42-1.09-53.34-9.8-55.51-59.87-1.09-25.04,11.97-56.6,22.86-76.2,17.42-37.01,140.42-262.33,142.59-266.68,2.18-5.44,2.18-20.68,0-28.3-4.35-8.71-14.15-32.66-15.24-57.69-1.09-25.04,18.5-95.79,25.04-111.03,4.35-11.97-1.09-22.86-4.35-27.21-5.44-7.62-11.97-31.57-10.89-50.07,0-11.97,13.06-32.66,10.89-56.6-3.27-27.21,7.62-43.54,25.04-58.78,11.97-9.8,10.89-25.04,10.89-28.3,0-10.89-6.53-15.24-6.53-27.21s6.53-48.98,17.42-58.78c21.77-21.77,53.34-25.04,56.6-54.43,1.09-11.97,8.71-44.63,25.04-69.66,15.24-25.04,37.01-39.19,37.01-67.49v-29.39h44.63c9.8-16.33,39.19-42.45,72.93-56.6,33.74-13.06,75.11-29.39,91.43-41.36,17.42-11.97,47.89-56.6,47.89-56.6l47.89,23.95c41.36-20.68,153.48-11.97,178.51-80.55,2.18-9.8,22.86-16.33,26.12,5.44,2.18,17.42,4.35,41.36,4.35,41.36,20.68-11.97,112.12-23.95,211.17,9.8,33.74,7.62,30.48-4.35,47.89-2.18,17.42,1.09,38.1,34.83,78.37,39.19v-1.09Z"/>
    <path class="cls-3" d="M4197.27,4141.76c-93.61,0-186.13,3.27-276.48,8.71,90.35-5.44,182.87-8.71,276.48-8.71h0Z"/>
    <path class="cls-3" d="M2413.21,4689.28c-3.27,703.17,169.81,1383.49,503.98,1971.28,323.29,573.64,743.45,1000.34,1280.08,1304.03,537.72-303.69,956.8-730.39,1280.08-1304.03,334.17-587.79,507.24-1268.11,503.98-1971.28-523.57-284.1-1138.58-434.31-1784.06-434.31s-1260.49,150.21-1784.06,434.31h0ZM5879.01,4750.23v22.86c-7.62,457.17-99.05,1147.28-489.83,1837.4-301.52,533.37-684.67,933.94-1173.41,1225.66l-18.5,10.89-18.5-10.89c-488.74-291.72-871.89-692.29-1173.41-1225.66-391.86-690.11-482.21-1380.22-489.83-1837.4v-22.86l20.68-10.89c492-250.36,1065.65-383.15,1662.15-383.15s1170.14,132.8,1662.15,383.15l20.68,10.89h-2.18Z"/>
    <path class="cls-3" d="M3655.2,4176.59c87.08-10.89,175.25-19.59,265.6-26.12-90.35,5.44-178.51,14.15-265.6,26.12Z"/>
    <path class="cls-1" d="M4994.06,4217.96c-249.27-48.98-514.86-76.2-796.79-76.2h0c-93.61,0-186.13,3.27-276.48,8.71-90.35,5.44-178.51,14.15-265.6,26.12-87.08,10.89-171.98,25.04-254.71,41.36-414.72,81.64-782.63,224.23-1099.39,404.92-13.06,637.86,112.12,1379.14,517.04,2094.28,200.28,353.76,423.43,632.42,657.46,855.56,88.17,83.81,177.43,158.92,266.68,228.59,89.26,69.66,180.69,131.71,272.13,187.22,60.96,38.1,121.91,72.93,181.78,105.59h0c60.96-32.66,121.91-67.49,181.78-105.59,30.48-18.5,60.96-38.1,91.43-58.78,242.74-161.1,482.21-365.74,706.44-633.51,140.42-167.63,274.3-359.21,399.48-580.17,406.01-715.15,530.1-1456.42,517.04-2094.28-316.75-180.69-684.67-323.29-1099.39-404.92l1.09,1.09ZM5477.36,6660.56c-323.29,573.64-743.45,1000.34-1280.08,1304.03-537.72-303.69-956.8-730.39-1280.08-1304.03-334.17-587.79-507.24-1268.11-503.98-1971.28,523.57-284.1,1138.58-434.31,1784.06-434.31s1260.49,150.21,1784.06,434.31c3.27,703.17-169.81,1383.49-503.98,1971.28Z"/>
    <path class="cls-1" d="M2535.13,4739.35l-20.68,10.89v22.86c7.62,457.17,99.05,1147.28,489.83,1837.4,301.52,533.37,684.67,933.94,1173.41,1225.66l18.5,10.89,18.5-10.89c488.74-291.72,871.89-692.29,1173.41-1225.66,391.86-690.11,482.21-1380.22,489.83-1837.4v-22.86l-20.68-10.89c-492-250.36-1065.65-383.15-1662.15-383.15s-1170.14,132.8-1662.15,383.15h2.18ZM5356.53,6591.98c-297.16,526.84-677.05,924.14-1159.26,1211.51-482.21-287.37-862.1-685.76-1159.26-1211.51-378.8-668.34-477.85-1336.68-485.47-1818.89,486.56-248.18,1052.58-378.8,1644.73-378.8s1158.17,130.62,1644.73,378.8c-7.62,483.3-105.59,1151.64-485.47,1818.89h0Z"/>
    <path class="cls-1" d="M5166.04,5369.59c-37.01-52.25-15.24-137.15-15.24-137.15-29.39,40.27-17.42,129.53,15.24,137.15Z"/>
    <path class="cls-1" d="M5233.53,5174.75c-16.33-5.44-51.16-11.97-65.31,27.21,19.59-28.3,37.01-26.12,65.31-27.21Z"/>
    <path class="cls-1" d="M3622.54,5482.8c-125.18-68.58-202.46-46.81-269.95-44.63,64.22,3.27,166.54,17.42,242.74,66.4,87.08,56.6,257.98,45.72,298.25,14.15-30.48,8.71-189.4,21.77-269.95-34.83l-1.09-1.09Z"/>
    <path class="cls-1" d="M4383.41,5662.4c-76.2-87.08-212.26-144.77-339.61-170.9,83.81,29.39,264.51,108.85,321.11,185.05,19.59,27.21,38.1,21.77,121.91,25.04,83.81,3.27,166.54,42.45,185.05,70.75-9.8-50.07-89.26-71.84-139.33-109.94-85.99-64.22-168.72-107.76-268.86-120.82,136.06,40.27,250.36,132.8,263.42,148.04-11.97-6.53-57.69-13.06-85.99-11.97-27.21,0-48.98-5.44-57.69-15.24Z"/>
    <path class="cls-1" d="M4175.5,4804.66c-100.14-33.74-190.49-22.86-211.17-9.8,0,0-1.09-23.95-4.35-41.36-4.35-20.68-23.95-15.24-26.12-5.44-25.04,67.49-137.15,58.78-178.51,80.55l-47.89-23.95s-31.57,44.63-47.89,56.6c-16.33,11.97-57.69,27.21-91.43,41.36-33.74,14.15-64.22,40.27-72.93,56.6h-44.63v29.39c0,29.39-20.68,43.54-37.01,67.49-16.33,25.04-23.95,56.6-25.04,69.66-3.27,29.39-34.83,32.66-56.6,54.43-10.89,9.8-17.42,46.81-17.42,58.78s7.62,15.24,6.53,27.21c0,3.27,1.09,18.5-10.89,28.3-16.33,15.24-27.21,31.57-25.04,58.78,3.27,22.86-9.8,43.54-10.89,56.6-2.18,18.5,5.44,42.45,10.89,50.07,2.18,4.35,8.71,15.24,4.35,27.21-5.44,15.24-25.04,85.99-25.04,111.03s9.8,48.98,15.24,57.69c3.27,6.53,3.27,22.86,0,28.3-2.18,4.35-125.18,229.67-142.59,266.68-9.8,19.59-23.95,51.16-22.86,76.2,2.18,50.07,37.01,58.78,55.51,59.87h66.4v32.66c-1.09,32.66-57.69,38.1-57.69,81.64,0,33.74,31.57,55.51,47.89,63.13-10.89,25.04-16.33,31.57-10.89,66.4,6.53,43.54,67.49,41.36,91.43,41.36,38.1,92.52-8.71,109.94,0,173.07,18.5,113.2,202.46,138.24,383.15,92.52,48.98,199.2,224.23,94.7,280.83,437.58,326.55,96.88,473.5-271.04,633.51-421.25,57.69-63.13,193.75-130.62,195.93-133.89,2.18-2.18,9.8-5.44,0-14.15-132.8-112.12-185.05-326.55-189.4-362.47,0,0,51.16-6.53,56.6-8.71,5.44,0,18.5-4.35,7.62-19.59-13.06-15.24-62.04-72.93-56.6-72.93s69.66-1.09,85.99-6.53c-2.18-11.97-8.71-34.83-20.68-54.43-10.89-19.59-13.06-29.39-11.97-51.16,0-6.53,0-19.59,9.8-42.45,5.44,6.53,14.15,9.8,22.86,9.8,64.22,105.59,45.72,178.52,100.14,254.71,57.69,80.55,167.63,72.93,199.2,114.29,31.57,41.36,41.36,100.14,44.63,145.86-68.58,105.59-212.26,149.13-232.94,164.36,20.68,40.27,52.25,138.24,55.51,168.72,0,0-142.59,133.89-151.3,141.51-4.35,4.35-7.62,10.89-6.53,18.5,2.18,27.21,27.21,117.56,105.59,118.65,79.46,1.09,103.41-81.64,106.67-106.67,47.89-92.52,144.77-150.21,175.25-176.34,2.18-60.96,11.97-163.28,37.01-205.73,16.33-26.12,55.51-82.73,63.13-144.77,6.53-53.34-6.53-93.61-26.12-116.47,0,0-2.18-105.59-3.27-142.59,0-37.01-19.59-62.04-51.16-82.73-78.37-45.72-163.28-52.25-204.64-100.14-13.06-15.24-29.39-43.54-41.36-64.22,15.24,3.27,25.04,4.35,45.72,0,20.68-5.44,127.36-41.36,173.07-78.37,60.96-54.43,77.28-162.19,87.08-197.02,40.27-152.39,203.55-492,206.82-527.92,3.27-37.01-60.96-68.58-72.93-74.02-11.97-5.44-26.12-5.44-31.57,2.18-4.35,7.62,7.62,23.95,6.53,47.89,0,27.21-22.86,50.07-22.86,50.07l-117.56,15.24c-18.5,46.81-48.98,68.58-78.37,68.58-8.71,0-42.45-2.18-43.54-25.04-2.18-47.89,75.11-44.63,100.14-46.81,25.04-2.18,66.4-9.8,64.22-51.16-1.09-50.07-59.87-55.51-77.28-55.51v-100.14c-3.27-80.55-103.41-59.87-138.24-53.34v127.36s-35.92,14.15-84.9,21.77c-48.98,7.62-69.66,33.74-67.49,58.78,2.18,14.15,4.35,28.3,17.42,42.45,13.06,21.77,89.26,283.01,99.05,318.93,34.83,117.56,2.18,232.94-43.54,274.3-37.01,35.92-94.7,31.57-119.74,26.12-5.44-9.8-9.8-19.59-10.89-31.57,47.89,18.5,83.81,0,70.75-11.97-14.15-11.97-31.57-58.78-34.83-90.35,21.77-1.09,76.2-11.97,88.17-26.12-2.18-4.35-43.54-53.34-43.54-58.78s32.66-15.24,43.54-18.5c11.97-4.35,15.24-11.97,13.06-23.95-5.44-23.95-21.77-22.86-34.83-38.1-13.06-15.24-15.24-75.11-16.33-89.26l22.86-39.19-79.46-78.37,38.1-42.45c-3.27-13.06-31.57-19.59-54.43-27.21-22.86-7.62-60.96-42.45-81.64-92.52s-42.45-53.34-54.43-57.69c0,0,13.06-32.66,13.06-34.83-28.3-25.04-71.84-15.24-96.88-27.21-29.39-15.24-133.89-54.43-150.21-63.13l-5.44-33.74s-87.08,0-101.23-3.27c-40.27-4.35-60.96-38.1-78.37-39.19s-14.15,9.8-47.89,2.18v1.09ZM3479.95,5846.36c-19.59-19.59,17.42-57.69,77.28-62.04-22.86-3.27-63.13-22.86-75.11-32.66,2.18,23.95-11.97,56.6-42.45,51.16-30.48-2.18-31.57-77.28-15.24-88.17,0,0-40.27-37.01-15.24-60.96,20.68,27.21,81.64,97.97,198.11,112.12,0,50.07-108.85,37.01-128.44,81.64l1.09-1.09ZM4898.27,6931.6c-33.74-6.53-72.93-34.83-83.81-52.25,2.18,11.97,43.54,58.78,79.46,67.49-1.09,3.27-3.27,7.62-5.44,10.89-34.83-4.35-77.28-34.83-89.26-53.34,2.18,11.97,43.54,58.78,79.46,67.49-3.27,3.27-6.53,6.53-9.8,9.8,0,0-1.09,0-2.18,1.09-34.83-5.44-77.28-34.83-88.17-53.34,2.18,10.89,34.83,48.98,67.49,63.13-35.92,9.8-92.52-3.27-104.5-93.61l137.15-124.09c2.18,23.95,32.66,95.79,20.68,154.57l-1.09,2.18ZM5124.68,6513.61c-35.92,59.87-44.63,188.31-44.63,216.61-4.35,2.18-9.8,5.44-15.24,8.71-3.27-23.95-7.62-47.89-16.33-63.13,5.44,23.95,6.53,47.89,5.44,70.75-6.53,4.35-13.06,9.8-20.68,15.24-1.09-26.12-4.35-56.6-13.06-75.11,4.35,29.39,2.18,59.87,0,85.99-5.44,5.44-11.97,9.8-17.42,15.24,0-28.3-4.35-62.04-13.06-81.64,5.44,32.66,2.18,67.49-2.18,95.79-5.44,5.44-10.89,9.8-16.33,15.24,0-29.39-3.27-70.75-13.06-93.61,5.44,40.27,0,83.81-6.53,112.12-3.27,3.27-6.53,6.53-8.71,9.8,0-28.3-2.18-78.37-13.06-104.5,6.53,48.98-2.18,102.32-9.8,128.44-6.53-134.97-65.31-277.57-74.02-286.28,218.79-82.73,262.33-220.97,320.02-286.28,35.92,93.61-5.44,162.19-40.27,214.44l-1.09,2.18ZM5314.08,5033.24c14.15,0,52.25,31.57,52.25,47.89s-64.22,20.68-64.22,20.68c4.35-4.35,19.59-37.01,11.97-68.58h0ZM5002.77,4880.85c13.06-4.35,87.08-16.33,88.17,31.57,1.09,43.54-88.17,65.31-88.17,65.31v-96.88ZM4862.35,5093.11c8.71-10.89,25.04-28.3,46.81-35.92-25.04,3.27-40.27,11.97-53.34,23.95-2.18-5.44-3.27-10.89-3.27-15.24,0-15.24,14.15-29.39,56.6-34.83,31.57-4.35,145.86-31.57,182.87-65.31v47.89c-84.9,6.53-112.12,95.79-190.49,101.23-5.44,0-9.8-1.09-14.15-2.18,8.71-13.06,25.04-31.57,42.45-40.27-18.5,3.27-45.72,20.68-56.6,32.66-4.35-3.27-7.62-7.62-10.89-11.97h0ZM4971.2,5433.81c-6.53-21.77-87.08-297.16-87.08-297.16,107.76,13.06,130.62-99.05,224.23-99.05,14.15,0,58.78-3.27,58.78,30.48s-53.34,28.3-96.88,32.66c-44.63,4.35-68.58,37.01-68.58,56.6s5.44,27.21,15.24,37.01c32.66,71.84,17.42,272.13,8.71,308.05,26.12-45.72,37.01-205.73,11.97-293.9,83.81,26.12,126.27-47.89,133.89-67.49,0,0,125.18-9.8,173.07-15.24,0,0-171.98,411.45-186.13,478.94-15.24,67.49-23.95,97.97-50.07,145.86-30.48,54.43-130.62,87.08-163.28,101.23s-79.46,10.89-106.67-9.8c-9.8-7.62-25.04-17.42-39.19-26.12,1.09-6.53,2.18-11.97,3.27-17.42,94.7,26.12,169.81-1.09,204.64-38.1-45.72,35.92-146.95,44.63-205.73,23.95,0-3.27,0-5.44-1.09-8.71,129.53,6.53,188.31-39.19,197.02-60.96-46.81,51.16-161.1,53.34-202.46,45.72,0-2.18-1.09-4.35-2.18-5.44,235.12,13.06,187.22-297.16,177.43-322.2l1.09,1.09ZM4829.69,5930.17c2.18-21.77-4.35-52.25-14.15-75.11,4.35,3.27,8.71,5.44,13.06,8.71,23.95,30.48,53.34,74.02,67.49,94.7,46.81,63.13,163.28,82.73,208.99,108.85,31.57,15.24,41.36,44.63,44.63,66.4,0,0,5.44,101.23,3.27,134.97l-22.86,32.66c-2.18-20.68-6.53-40.27-13.06-53.34,4.35,22.86,4.35,45.72,4.35,67.49l-11.97,17.42c-1.09-29.39-5.44-67.49-15.24-88.17,7.62,41.36,2.18,87.08-3.27,115.38l-7.62,10.89c0-10.89-1.09-22.86,0-26.12-1.09-34.83-4.35-83.81-19.59-117.56,5.44,32.66,5.44,67.49,2.18,96.88-34.83-145.86-170.9-105.59-232.94-181.78-48.98-59.87-37.01-146.95-99.05-249.27,5.44-2.18,11.97-4.35,17.42-8.71,16.33,71.84,68.58,169.81,119.74,198.11-67.49-57.69-97.97-167.63-105.59-207.9h0c4.35-3.27,7.62-6.53,10.89-10.89,14.15,13.06,42.45,47.89,50.07,103.41-3.27-44.63-3.27-74.02-42.45-112.12,3.27-4.35,6.53-8.71,8.71-13.06,10.89,10.89,34.83,38.1,40.27,88.17h-3.27ZM4729.55,5747.3c5.44-6.53,55.51-4.35,52.25,53.34-4.35,56.6-76.2,84.9-83.81,67.49-7.62-22.86,34.83-26.12,41.36-63.13,2.18-37.01-19.59-47.89-9.8-56.6v-1.09ZM4253.88,5463.2c-18.5,8.71-55.51,8.71-65.31,8.71,40.27,19.59,92.52,30.48,118.65,35.92,120.82,29.39,212.26,132.8,262.33,161.1,39.19,26.12,133.89,53.34,136.06,124.09,0,18.5-20.68,21.77-27.21,21.77-51.16-2.18-51.16-41.36-94.7-40.27-67.49,4.35-128.44-32.66-173.07-15.24,45.72,2.18,62.04,19.59,108.85,34.83,41.36,18.5,75.11-9.8,97.97,23.95-25.04,11.97-87.08,15.24-115.38,13.06-55.51-2.18-65.31-26.12-83.81-34.83-23.95-10.89-44.63-5.44-50.07,7.62-7.62,20.68-34.83,53.34-56.6,66.4-21.77,11.97-55.51,30.48-71.84,70.75-17.42,40.27-52.25,123-114.29,118.65-62.04-4.35-70.75-48.98-69.66-53.34,7.62,10.89,17.42,29.39,64.22,30.48,48.98,0,80.55-70.75,103.41-132.8,22.86-41.36,50.07-44.63,78.37-65.31,27.21-20.68,51.16-69.66,42.45-124.09-5.44-34.83-57.69-123-169.81-97.97-71.84,21.77-121.91,79.46-130.62,93.61-62.04,0-181.78-52.25-191.58-57.69,63.13-4.35,94.7-20.68,94.7-20.68-41.36-4.35-182.87,1.09-269.95-22.86-87.08-23.95-191.58-78.37-218.79-88.17-45.72-18.5-144.77-28.3-143.68-92.52,1.09-32.66,13.06-41.36,13.06-41.36l67.49,5.44s-62.04-30.48-66.4-42.45c-7.62-10.89,2.18-35.92,4.35-40.27,2.18-3.27,6.53-23.95,32.66-21.77,23.95,1.09,37.01,5.44,40.27,6.53-6.53-4.35-54.43-43.54-56.6-55.51-6.53-6.53-8.71-35.92,14.15-46.81,11.97-5.44,55.51-27.21,59.87-54.43,2.18-11.97,10.89-10.89,16.33-8.71,27.21,2.18,386.42,156.74,451.73,211.17,65.31,54.43-283.01-46.81-348.32-68.58,31.57,27.21,284.1,115.38,401.66,119.74,32.66,1.09,92.52-7.62,149.13,21.77,47.89,25.04,114.29,42.45,158.92,45.72l1.09,4.35ZM4236.46,5691.79c-59.87-38.1-161.1,100.14-161.1,60.96,5.44-40.27,116.47-123,176.34-85.99,53.34,32.66,39.19,91.43,31.57,111.03-8.71,23.95-34.83,40.27-31.57,17.42,4.35-16.33,25.04-78.37-15.24-103.41h0ZM4170.06,5783.22c1.09-15.24,53.34-20.68,53.34,27.21s-46.81,44.63-52.25,62.04c-10.89,33.74-6.53,75.11-54.43,66.4-33.74-7.62-32.66-47.89-15.24-50.07,23.95-2.18,5.44,22.86,23.95,21.77,18.5,0,8.71-46.81,25.04-62.04s43.54-23.95,42.45-40.27c0-15.24-23.95-11.97-23.95-27.21l1.09,2.18Z"/>
  </g>
</svg>