<?xml version="1.0" encoding="UTF-8" standalone="no"?>
<!-- Generator: Adobe Illustrator 15.0.2, SVG Export Plug-In . SVG Version: 6.00 Build 0)  -->

<svg
   version="1.1"
   id="Capa_1"
   x="0px"
   y="0px"
   width="700"
   height="574.66168"
   viewBox="0 0 700 1820.5282"
   enable-background="new 0 0 612 792"
   xml:space="preserve"
   inkscape:version="1.2 (dc2aeda, 2022-05-15)"
   sodipodi:docname="Logo Real Betis BalompieÌ - ancien.svg"
   xmlns:inkscape="http://www.inkscape.org/namespaces/inkscape"
   xmlns:sodipodi="http://sodipodi.sourceforge.net/DTD/sodipodi-0.dtd"
   xmlns="http://www.w3.org/2000/svg"
   xmlns:svg="http://www.w3.org/2000/svg"
   xmlns:rdf="http://www.w3.org/1999/02/22-rdf-syntax-ns#"
   xmlns:cc="http://creativecommons.org/ns#"
   xmlns:dc="http://purl.org/dc/elements/1.1/"><metadata
   id="metadata53"><rdf:RDF><cc:Work
       rdf:about=""><dc:format>image/svg+xml</dc:format><dc:type
         rdf:resource="http://purl.org/dc/dcmitype/StillImage" /></cc:Work></rdf:RDF></metadata><defs
   id="defs51" /><sodipodi:namedview
   pagecolor="#ffffff"
   bordercolor="#666666"
   borderopacity="1"
   objecttolerance="10"
   gridtolerance="10"
   guidetolerance="10"
   inkscape:pageopacity="0"
   inkscape:pageshadow="2"
   inkscape:window-width="1440"
   inkscape:window-height="900"
   id="namedview49"
   showgrid="false"
   fit-margin-top="0"
   fit-margin-left="0"
   fit-margin-right="0"
   fit-margin-bottom="0"
   inkscape:zoom="0.44775288"
   inkscape:cx="291.45541"
   inkscape:cy="366.27347"
   inkscape:window-x="0"
   inkscape:window-y="0"
   inkscape:window-maximized="0"
   inkscape:current-layer="Capa_1"
   inkscape:showpageshadow="2"
   inkscape:pagecheckerboard="0"
   inkscape:deskcolor="#d1d1d1" />























<g
   id="g1696"><g
     id="g1683"><path
       style="fill:#ffffff;stroke:none;stroke-width:3.34523px;stroke-linecap:butt;stroke-linejoin:miter;stroke-opacity:1"
       d="M -722.0724,730.06938 H 1422.0725 L 350.00004,1794.3969 Z"
       id="path1676" /><path
       id="rect1559"
       style="fill:#00954c;fill-rule:evenodd;stroke-width:5.33037;fill-opacity:1"
       d="M -509.07868 730.06931 L -509.07868 941.52093 L -352.88143 1096.5921 L -352.88143 730.06931 L -509.07868 730.06931 z M -196.68418 730.06931 L -196.68418 1251.6632 L -40.486936 1406.7343 L -40.486936 730.06931 L -196.68418 730.06931 z M 115.70413 730.06931 L 115.70413 1561.7931 L 271.90138 1716.8642 L 271.90138 730.06931 L 115.70413 730.06931 z M 428.09862 730.06931 L 428.09862 1716.8642 L 584.29587 1561.7931 L 584.29587 730.06931 L 428.09862 730.06931 z M 740.48694 730.06931 L 740.48694 1406.7343 L 896.68418 1251.6632 L 896.68418 730.06931 L 740.48694 730.06931 z M 1052.8814 730.06931 L 1052.8814 1096.5921 L 1209.0787 941.52093 L 1209.0787 730.06931 L 1052.8814 730.06931 z " /><path
       id="path3"
       style="fill:#de9500;stroke-width:3.91802"
       d="M -758.79999 719.74237 L 350 1820.5296 L 1458.8 719.74237 L -758.79999 719.74237 z M -665.27593 758.28431 L 1365.2759 758.28431 L 350 1766.2219 L -665.27593 758.28431 z " /></g><g
     id="g1215"><path
       style="fill:#d7013e;fill-opacity:1;stroke:none;stroke-width:0.63551;stroke-linecap:butt;stroke-linejoin:miter;stroke-dasharray:none;stroke-opacity:1"
       d="M -33.575102,511.82047 C -20.810803,420.76641 26.976001,365.01199 81.531146,327.3476 157.54241,274.87005 270.55571,251.07069 351.4233,250.83319 c 80.86769,0.2375 193.88089,24.03686 269.89215,76.51441 54.55516,37.66439 102.34176,93.41881 115.10605,184.47287 L 608.8706,616.41655 351.4233,511.82047 93.976109,616.41655 Z"
       id="path500"
       sodipodi:nodetypes="cscsccccc" /><path
       d="m 833.31531,383.29218 c 0,-46.21306 -20.072,-90.57682 -56.5448,-124.86342 -39.1019,-36.86466 -91.7719,-57.35591 -149.978,-58.93879 C 581.91161,137.02104 493.59941,91.854089 389.12538,82.576215 389.01176,64.757054 377.20284,49.739279 360.96264,44.790818 v -7.440322 l 19.45689,-0.02743 -0.0196,-22.273951 -19.49999,0.02743 L 360.89212,0 350.00002,0.01175406 339.10792,0 l -0.008,15.076546 -19.49999,-0.02743 -0.0196,22.273951 19.45689,0.02743 v 7.440322 C 322.79311,49.73928 310.98811,64.757055 310.87449,82.576216 206.40045,91.85409 118.08826,137.02104 73.20732,199.48997 15.0012,201.07285 -37.66876,221.5641 -76.77061,258.42876 c -36.47286,34.2866 -56.54488,78.65036 -56.54488,124.86342 0,50.27996 26.23899,97.94661 73.22781,135.16781 -0.0744,1.10488 -0.17239,2.2176 -0.17239,3.34991 0,26.89721 21.83905,48.73235 48.77545,48.73235 5.3559295,0 10.50812952,-0.8894 15.3429695,-2.48795 3.98463,7.86347 17.1021605,27.82187 47.9291505,28.41741 -1.90807,1.36739 -3.871,2.67601 -5.78692,4.08258 -5.09342,3.86708 -12.56509,14.55545 -4.31766,27.44965 3.83575,5.94364 9.45027,9.07414 16.26763,9.07414 2.38607,0 4.61543,-0.41139 6.49608,-0.90506 l 24.97347,34.15339 4.9798,-3.63984 c 74.65398,-54.69558 163.01711,-83.63408 255.59211,-83.63408 92.575,0 180.942,28.9385 255.5921,83.63408 l 4.9798,3.63984 24.9734,-34.15339 c 1.8807,0.49367 4.11,0.90506 6.4961,0.90506 6.8174,0 12.4319,-3.13442 16.2676,-9.07414 8.2475,-12.8942 0.7758,-23.58257 -4.3176,-27.44965 -1.912,-1.41049 -3.8749,-2.71911 -5.7869,-4.08258 30.827,-0.59554 43.9484,-20.55394 47.9291,-28.41741 4.8349,1.60247 9.9871,2.48795 15.343,2.48795 26.9364,0 48.7754,-21.83905 48.7754,-48.73235 0,-1.13231 -0.098,-2.24503 -0.1724,-3.34991 47.0045,-37.2212 73.2435,-84.88785 73.2435,-135.16781 z m -702.2935,142.33779 c -9.9792,0 -19.35502,-3.98463 -26.38395,-10.66877 1.67691,-2.55063 2.66817,-5.60277 2.66817,-8.88999 0,-9.01929 -7.31494,-16.33032 -16.35382,-16.33032 -9.01145,0 -16.32639,7.31103 -16.32639,16.33032 0,8.51777 6.51175,15.40174 14.80228,16.1971 0.17631,1.46925 0.30561,2.94243 0.30561,4.46654 0,21.24743 -17.29023,38.5259 -38.54158,38.5259 -10.33966,0 -19.70764,-4.08649 -26.62687,-10.73929 7.85563,-8.64708 12.68264,-20.1308 12.68264,-32.71156 0,-26.92856 -21.83122,-48.74802 -48.73235,-48.74802 -4.7604,0 -9.29355,0.69741 -13.61121,1.97468 -2.04129,0.60338 -4.03164,1.27336 -5.95931,2.12357 -33.35803,-27.17931 -51.92553,-60.15338 -51.92553,-93.87187 0,-32.19046 14.44966,-63.54247 40.68865,-88.21033 23.91168,-22.51295 54.77393,-37.03314 89.49935,-42.66725 -3.76521,13.17239 -5.77908,26.77967 -5.77908,40.70824 0,18.95147 3.61242,37.52289 10.52381,55.34597 11.41711,29.48311 31.90836,56.87007 60.19648,80.35469 -0.0784,0.82671 -0.15281,1.64949 -0.15281,2.48403 0,26.92464 21.83905,48.73626 48.76369,48.73626 2.71519,0 5.33243,-0.28209 7.94183,-0.70132 0.50543,2.53104 0.85413,5.12085 0.85413,7.7616 0.004,21.25526 -17.27455,38.52982 -38.53374,38.52982 z m 210.57797,-66.87279 c -3.28722,9.77155 -10.13984,17.65461 -19.36678,22.23477 -9.23086,4.58409 -19.69197,5.28933 -29.43609,2.01387 -9.46986,-3.16185 -17.08257,-9.94394 -21.60397,-18.50482 2.39783,-1.88457 4.30199,-4.45871 5.35985,-7.57745 2.86016,-8.56871 -1.73568,-17.83875 -10.27697,-20.69107 -8.55695,-2.88366 -17.84267,1.70434 -20.72633,10.26521 -2.67993,8.05937 1.29687,16.67902 8.92134,20.0446 -0.30169,1.4771 -0.6739,2.92676 -1.15974,4.34117 -3.27155,9.75587 -10.15159,17.67027 -19.37461,22.25436 -9.23478,4.57233 -19.68414,5.28933 -29.4361,2.00994 -9.75979,-3.28722 -17.65852,-10.17902 -22.23868,-19.38245 l -0.25859,-0.63863 c 16.25978,-7.89482 27.50842,-24.52682 27.50842,-43.81915 0,-26.9364 -21.81554,-48.77545 -48.75194,-48.77545 -7.02501,0 -13.66214,1.53195 -19.68022,4.21187 -23.87642,-20.78118 -39.59944,-44.71245 -45.77816,-69.71727 -1.94333,-7.88697 -2.96202,-15.86015 -2.96202,-23.90384 0,-82.16091 104.22328,-152.35617 232.83233,-160.66238 v 228.54993 c -14.2616,8.50994 -23.87642,24.05273 -23.87642,41.87581 0,24.62085 18.26189,44.88093 41.94633,48.22301 -0.31736,2.57414 -0.7836,5.1326 -1.64165,7.64797 z m 176.13463,17.00813 c -4.5802,9.20343 -12.4789,16.09523 -22.2387,19.38245 -9.748,3.27939 -20.1974,2.56239 -29.4361,-2.00994 -9.223,-4.58409 -16.103,-12.49457 -19.3746,-22.25436 -0.4858,-1.41441 -0.858,-2.86407 -1.1597,-4.34117 7.6244,-3.36166 11.6012,-11.98523 8.9213,-20.0446 -2.8837,-8.56479 -12.1694,-13.14887 -20.72633,-10.26521 -8.54128,2.85232 -13.14104,12.12236 -10.27697,20.69107 1.06179,3.11874 2.96203,5.69288 5.35986,7.57745 -4.51748,8.5648 -12.13411,15.34689 -21.60397,18.50482 -9.7402,3.27546 -20.20131,2.57414 -29.43608,-2.01387 -9.22694,-4.58016 -16.07956,-12.46714 -19.36678,-22.23477 -0.85805,-2.51537 -1.32429,-5.06992 -1.64557,-7.64797 23.68444,-3.34208 41.94632,-23.60216 41.94632,-48.22301 0,-17.81916 -9.61481,-33.36587 -23.87641,-41.87581 V 132.46046 c 128.60903,8.31012 232.83233,78.50147 232.83233,160.66238 0,8.04369 -1.0187,16.01687 -2.962,23.90384 -6.1748,25.00482 -21.9018,48.93609 -45.7782,69.71727 -6.0181,-2.68384 -12.6552,-4.21187 -19.6802,-4.21187 -26.9364,0 -48.752,21.83905 -48.752,48.77545 0,19.29233 11.2487,35.92433 27.5085,43.81915 z m 213.3167,1.39874 c -1.9238,-0.85413 -3.9181,-1.5202 -5.9593,-2.12357 -4.3177,-1.27728 -8.8509,-1.97468 -13.6113,-1.97468 -26.9011,0 -48.7323,21.81946 -48.7323,48.74802 0,12.58076 4.827,24.06448 12.6826,32.71155 -6.9192,6.6528 -16.2872,10.7393 -26.6268,10.7393 -21.2514,0 -38.5416,-17.27847 -38.5416,-38.5259 0,-1.52019 0.1293,-2.99729 0.3056,-4.46655 8.2905,-0.79535 14.8023,-7.67932 14.8023,-16.1971 0,-9.01928 -7.315,-16.33031 -16.3264,-16.33031 -9.0389,0 -16.3538,7.31103 -16.3538,16.33031 0,3.28722 0.9912,6.33936 2.6681,8.88999 -7.0289,6.68415 -16.4086,10.66878 -26.3839,10.66878 -21.2592,0 -38.5377,-17.27848 -38.5377,-38.52591 0,-2.64466 0.3487,-5.23447 0.8542,-7.7616 2.6094,0.41531 5.2266,0.70133 7.9418,0.70133 26.9246,0 48.7637,-21.81162 48.7637,-48.73627 0,-0.83453 -0.078,-1.65732 -0.1528,-2.48402 28.292,-23.48462 48.7793,-50.87159 60.1965,-80.3547 6.9113,-17.82308 10.5238,-36.3945 10.5238,-55.34596 0,-13.92465 -2.0139,-27.53194 -5.7791,-40.70824 34.7215,5.63411 65.5876,20.1543 89.4993,42.66725 26.239,24.66786 40.6887,56.01986 40.6887,88.21032 0,33.71458 -18.5636,66.68864 -51.9216,93.86796 z"
       id="path47"
       inkscape:connector-curvature="0"
       style="fill:#de9500;stroke-width:3.91802" /></g><g
     id="g1323"><path
       d="m 349.96966,601.53618 c 228.62924,0 414.70347,186.01791 414.70347,414.69482 0,228.6639 -186.07423,414.6514 -414.70347,414.6514 -228.63355,0 -414.642779,-185.9919 -414.642779,-414.6514 0,-228.68125 186.009229,-414.69482 414.642779,-414.69482"
       id="path1249"
       inkscape:connector-curvature="0"
       style="fill:#de9500;stroke-width:4.33659;fill-opacity:1" /><path
       d="m 349.97259,641.5603 c 206.56202,0 374.67642,168.06352 374.67642,374.6686 0,206.5933 -168.1144,374.6294 -374.67642,374.6294 -206.56591,0 -374.62159,-168.04 -374.62159,-374.6294 0,-206.609 168.05568,-374.6686 374.62159,-374.6686"
       id="path5"
       inkscape:connector-curvature="0"
       style="fill:#ffffff;stroke-width:3.91802" /><path
       d="m 176.92927,943.55745 h 30.97196 v -46.98491 h -30.97196 v -56.56055 h 90.76488 v 154.76184 h -90.76488 v -51.21638 m 0,203.88205 h 30.97196 v -46.934 h -30.97196 v -50.2016 h 90.76488 v 150.5931 h -90.76488 z m 254.115,53.4536 H 321.09286 V 1050.3 h 21.40023 v 16.0561 h 30.94453 V 1050.3 h 43.79171 c 12.10669,0 13.81103,21.5922 13.81103,21.5922 v 129.0009 z m 0,-237.71812 -0.16847,7.06028 c 0,0 -2.71127,24.18986 -18.46172,24.54248 h -38.97254 v -20.25617 h -30.94453 v 20.25617 H 321.09678 V 840.01591 h 109.95141 v 123.15907 z m 135.26964,188.56262 c -2.7857,8.1064 -17.2157,48.7284 -32.7272,48.7284 -0.7953,0 -1.2812,0.3095 -1.8023,0.431 h -52.713 v -131.336 h -0.3017 c -0.717,-8.7215 -4.4391,-18.0895 -4.9955,-19.2571 h 54.6407 c 4.3099,0.4232 40.0892,14.4105 40.242,58.7429 h -35.0663 v 42.6908 z m 2.4292,-209.23409 v 0.0548 c 0,0 -19.2218,52.16453 -36.0536,52.16453 l -1.1441,0.0509 h -59.6558 c 0.8698,-1.70826 7.1818,-13.70132 7.1818,-24.54249 V 840.00807 h 50.9342 c 0.909,0.30169 38.7375,13.64647 38.7375,59.74982 h -35.1564 v 42.7417 h 35.1564 z m 82.3294,-42.7417 h -31.8222 c 0,-0.34478 -6.6058,-84.4216 -69.7016,-112.06716 h -67.8954 v -1.67691 c 0,-68.07562 -49.89987,-82.05512 -86.25911,-82.05512 -36.32396,0 -53.23022,15.20976 -53.23022,15.20976 v 49.08889 c 0,0 0.86196,-17.29415 47.88213,-17.29415 52.3839,0 42.09521,36.69619 42.09521,36.69619 v 0.0274 H 321.09286 v -29.95327 c 0,-50.78147 -25.69439,-64.10274 -55.72602,-64.10274 l -21.14164,0.0666 v 54.4605 h 12.77667 c 8.52169,0 10.31223,6.35503 10.69228,10.75105 V 787.6868 H 96.87234 v 52.31341 h 37.42102 v 56.56056 H 96.87234 v 46.98491 h 37.42102 v 51.21637 H 96.87234 v 55.53015 h 37.42102 v 50.2016 H 96.87234 v 46.934 h 37.42102 v 53.4574 H 96.87234 v 46.985 h 168.16931 v 13.3212 c 0,9.082 -8.03978,7.985 -8.03978,7.985 h -16.97679 v 54.4644 h 34.0672 c 14.00692,0 45.94271,-14.4928 45.94271,-50.2212 v -19.1709 l 0.0548,-6.3825 h 111.32273 c 0,24.856 -13.01567,36.657 -47.16121,36.657 -34.12988,0 -43.72903,-16.4713 -43.72903,-16.4713 v 49.5042 c 10.13592,11.2917 51.84324,14.5006 51.84324,14.5006 84.75859,0 87.25439,-70.8692 86.93309,-84.1905 h 75.5591 c 0,0 53.6337,-22.603 60.7332,-96.1443 h 35.4776 v -42.6907 h -33.1386 c -0.074,-3.1031 -1.7083,-71.547 -37.8168,-91.1254 0,0 34.7019,-19.62928 35.0154,-75.36313 l -0.2469,-0.0549 h 36.1908 z"
       id="path7"
       inkscape:connector-curvature="0"
       style="fill:#00954c;stroke-width:3.91802" /></g></g></svg>
