<?xml version="1.0" encoding="UTF-8"?>
<svg width="435" height="600" version="1.1" xmlns="http://www.w3.org/2000/svg">
 <path d="m424.64 590h-89.762v-356.22h89.762zm-138.1-105.78c0 62.626-49.783 105.78-115.86 105.78h-160.33v-356.22h124.29c65.526 0 116 42.119 116 105.23a90.452 90.452 0 0 1-20.714 59.933 87.621 87.621 0 0 1 56.619 85.274m-190.3-109.58h34.524c21.336 0 34.524-12.36 34.524-31.279s-12.981-31.279-34.524-31.279h-34.524zm100.53 105.78c0-20.714-13.81-31.279-34.524-31.279h-66.01v62.626h66.355c20.714 0 34.524-10.288 34.524-31.348m227.51-470.42h-89.762v76.988h-74.779v-76.988h-85.205v76.988h-74.779v-76.988h-89.762v165.71h414.29z" fill="#e30014"/>
</svg>
