<?xml version="1.0" encoding="UTF-8" standalone="no"?>
<svg
   xmlns:dc="http://purl.org/dc/elements/1.1/"
   xmlns:cc="http://creativecommons.org/ns#"
   xmlns:rdf="http://www.w3.org/1999/02/22-rdf-syntax-ns#"
   xmlns:svg="http://www.w3.org/2000/svg"
   xmlns="http://www.w3.org/2000/svg"
   xmlns:sodipodi="http://sodipodi.sourceforge.net/DTD/sodipodi-0.dtd"
   xmlns:inkscape="http://www.inkscape.org/namespaces/inkscape"
   inkscape:version="1.0 (4035a4f, 2020-05-01)"
   sodipodi:docname="20201105115952!Logo_des_Girondins_de_Bordeaux.svg"
   xml:space="preserve"
   id="svg49890"
   height="800"
   width="654.16614"
   version="1.0"><metadata
     id="metadata202"><rdf:RDF><cc:Work
         rdf:about=""><dc:format>image/svg+xml</dc:format><dc:type
           rdf:resource="http://purl.org/dc/dcmitype/StillImage" /></cc:Work></rdf:RDF></metadata><sodipodi:namedview
     inkscape:current-layer="svg49890"
     inkscape:window-maximized="0"
     inkscape:window-y="0"
     inkscape:window-x="0"
     inkscape:cy="404.88053"
     inkscape:cx="332.87873"
     inkscape:zoom="0.68422523"
     showgrid="false"
     id="namedview200"
     inkscape:window-height="900"
     inkscape:window-width="1440"
     inkscape:pageshadow="2"
     inkscape:pageopacity="0"
     guidetolerance="10"
     gridtolerance="10"
     objecttolerance="10"
     borderopacity="1"
     bordercolor="#666666"
     pagecolor="#ffffff" /><defs
     id="defs49893" /><path
     d="m 647.32577,64.212401 5.87425,361.829769 c 0,0 14.01058,279.77849 -323.21433,373.04985 0,0 -303.601903,-58.91134 -329.10043573,-373.04985 L 7.6122243,65.671249 c 0,0 312.2948557,-144.793584 639.7135457,-1.458848 z"
     id="path50591"
     style="fill:#131734;fill-opacity:1;fill-rule:nonzero;stroke:#ffffff;stroke-width:1.76917;stroke-linecap:butt;stroke-linejoin:miter;stroke-miterlimit:4;stroke-dasharray:none;stroke-opacity:1" /><path
     d="m 615.13579,91.278172 2.66473,331.253278 c 0,0 17.77674,253.76831 -288.07538,338.3696 0,0 -270.298665,-53.43177 -293.416703,-338.3696 L 39.731138,92.606562 c 0,0 278.434982,-131.320006 575.404652,-1.32839 z"
     id="path50639"
     style="fill:none;stroke:#ffffff;stroke-width:31.9056;stroke-linecap:butt;stroke-linejoin:miter;stroke-miterlimit:4;stroke-dasharray:none;stroke-opacity:1" /><g
     style="stroke-width:1.02242"
     transform="matrix(0.97806849,0,0,0.97807846,-22.261692,-17.806841)"
     id="g552"><g
       style="stroke-width:1.02242"
       id="g517"><path
         d="m 325.62367,505.94037 c 0,2.18274 1.29565,3.17711 3.31782,3.17711 0.94449,0 1.48938,0.14551 1.48938,0.75183 0,0.5942 -0.29061,0.83672 -1.2351,0.83672 -2.38543,0 -4.8072,-0.20614 -7.19264,-0.20614 -2.57918,0 -5.09781,0.20614 -7.67699,0.20614 -0.49646,0 -1.04136,-0.24252 -1.04136,-0.83672 0,-0.60632 0.5449,-0.75183 1.48939,-0.75183 2.51863,0 3.7174,-0.54569 3.7174,-2.32827 V 485.5438 c 0,-1.23689 -0.25428,-1.58856 -1.04135,-1.58856 -1.39252,0 -2.78503,1.38241 -3.66898,1.38241 -0.44802,0 -0.65387,-0.19402 -0.65387,-0.78821 0,-0.48506 0.60544,-0.94586 5.44897,-3.22562 5.20679,-2.42528 5.55795,-2.67993 6.26026,-2.67993 0.48435,0 0.78707,0.20615 0.78707,0.65482 v 26.64166"
         id="path50593"
         style="fill:#ffffff;fill-opacity:1;fill-rule:nonzero;stroke:none;stroke-width:12.3893" /><path
         d="m 349.72023,492.15268 c 4.21387,1.83108 7.88284,4.4625 7.88284,9.5192 0,6.25721 -5.94543,9.64047 -11.60025,9.64047 -5.00094,0 -11.10379,-2.69205 -11.10379,-8.5976 0,-4.57164 3.32992,-5.55388 6.59931,-7.14244 -2.97877,-1.78257 -5.44897,-4.36549 -5.44897,-8.1853 0,-5.91767 5.30366,-8.74312 10.59522,-8.74312 5.75169,0 9.42066,3.03159 9.42066,7.15456 0,3.61366 -3.41469,5.29923 -6.34502,6.35423 z m -6.79305,4.31699 c -1.38041,1.9766 -1.68313,3.56515 -1.68313,6.00255 0,4.95969 2.08272,7.23945 5.15836,7.23945 3.07564,0 4.85564,-1.94022 4.85564,-4.65653 0,-4.71716 -4.74666,-6.8029 -8.33087,-8.58547 z m 5.41264,-5.21435 c 1.68313,-1.49154 2.4702,-2.78906 2.4702,-5.35986 0,-2.4859 -0.98081,-5.66301 -4.75877,-5.66301 -2.6155,0 -3.66897,1.84321 -3.66897,3.7713 0,3.97745 3.23306,5.66302 5.95754,7.25157"
         id="path50595"
         style="fill:#ffffff;fill-opacity:1;fill-rule:nonzero;stroke:none;stroke-width:12.3893" /><path
         d="m 376.49283,492.15268 c 4.21387,1.83108 7.88285,4.4625 7.88285,9.5192 0,6.25721 -5.94544,9.64047 -11.58815,9.64047 -5.01305,0 -11.10379,-2.69205 -11.10379,-8.5976 0,-4.57164 3.31782,-5.55388 6.5872,-7.14244 -2.96666,-1.78257 -5.44897,-4.36549 -5.44897,-8.1853 0,-5.91767 5.30367,-8.74312 10.60733,-8.74312 5.75169,0 9.40856,3.03159 9.40856,7.15456 0,3.61366 -3.41469,5.29923 -6.34503,6.35423 z m -6.78094,4.31699 c -1.39251,1.9766 -1.68312,3.56515 -1.68312,6.00255 0,4.95969 2.08271,7.23945 5.14625,7.23945 3.07564,0 4.85563,-1.94022 4.85563,-4.65653 0,-4.71716 -4.75876,-6.8029 -8.31876,-8.58547 z m 5.40054,-5.21435 c 1.68312,-1.49154 2.48231,-2.78906 2.48231,-5.35986 0,-2.4859 -0.99293,-5.66301 -4.75877,-5.66301 -2.62762,0 -3.66897,1.84321 -3.66897,3.7713 0,3.97745 3.22094,5.66302 5.94543,7.25157"
         id="path50597"
         style="fill:#ffffff;fill-opacity:1;fill-rule:nonzero;stroke:none;stroke-width:12.3893" /><path
         d="m 401.9819,505.94037 c 0,2.18274 1.29565,3.17711 3.32993,3.17711 0.93238,0 1.47727,0.14551 1.47727,0.75183 0,0.5942 -0.29061,0.83672 -1.23509,0.83672 -2.38544,0 -4.80721,-0.20614 -7.19265,-0.20614 -2.56707,0 -5.09781,0.20614 -7.67699,0.20614 -0.49646,0 -1.04136,-0.24252 -1.04136,-0.83672 0,-0.60632 0.5449,-0.75183 1.48939,-0.75183 2.53074,0 3.71741,-0.54569 3.71741,-2.32827 V 485.5438 c 0,-1.23689 -0.24218,-1.58856 -1.04136,-1.58856 -1.38041,0 -2.77292,1.38241 -3.66898,1.38241 -0.44802,0 -0.64176,-0.19402 -0.64176,-0.78821 0,-0.48506 0.59333,-0.94586 5.44897,-3.22562 5.20679,-2.42528 5.54584,-2.67993 6.24815,-2.67993 0.49646,0 0.78707,0.20615 0.78707,0.65482 v 26.64166"
         id="path50599"
         style="fill:#ffffff;fill-opacity:1;fill-rule:nonzero;stroke:none;stroke-width:12.3893" /></g><g
       style="stroke-width:1.02242"
       id="g511"><path
         d="m 269.63248,391.97667 c 0,1.49154 -0.10898,2.34039 1.63469,2.34039 1.04136,0 3.22095,0 4.15333,-0.20615 1.39251,-0.24253 1.98584,-1.3339 2.38543,-2.63143 0.19374,-0.64269 0.5449,-1.62493 1.44095,-1.62493 0.78708,0 0.99293,0.58207 0.99293,1.2854 -0.10898,1.3824 -0.10898,2.88607 -0.20585,4.26848 0,1.38241 0.0969,2.87395 0.20585,4.26849 0,0.64269 -0.20585,1.3824 -1.05347,1.3824 -2.37333,0 -0.64177,-4.75354 -5.897,-4.75354 l -2.11904,0.097 c -1.6468,0.097 -1.53782,0.78822 -1.53782,2.13425 v 6.34209 c 0,2.93459 -0.20585,4.12297 2.91822,4.62015 0.64177,0.097 1.58626,0.25466 1.58626,1.15201 0,0.73971 -0.5449,0.93373 -1.18666,0.93373 -2.57918,0 -5.06149,-0.19402 -7.62856,-0.19402 -2.38544,0 -4.75877,0.19402 -7.14421,0.19402 -0.6902,0 -1.18666,-0.19402 -1.18666,-0.93373 0,-0.80034 0.73864,-1.055 1.34408,-1.15201 3.25727,-0.54568 3.11196,-1.39453 3.11196,-4.62015 V 387.211 c 0,-2.97096 0.20585,-4.31699 -2.96666,-4.81417 -0.64176,-0.0849 -1.58625,-0.0849 -1.58625,-0.93373 0,-0.80034 0.49646,-0.99437 1.18666,-0.99437 4.56503,0 9.21482,0.19403 13.77984,0.19403 3.17251,0 6.44189,-0.19403 9.61441,-0.19403 1.28353,0 1.63469,0.0485 1.63469,1.44304 v 4.75354 c 0,0.65483 -0.24218,1.34603 -0.99293,1.34603 -0.94448,0 -1.48938,-1.18838 -1.93741,-1.89171 -0.73864,-1.23689 -1.13823,-1.9766 -2.4702,-2.6193 -1.44095,-0.70333 -3.22094,-0.6427 -4.8072,-0.6427 -0.59333,0 -2.17959,-0.10914 -2.78503,0.29103 -0.48435,0.35167 -0.48435,1.18839 -0.48435,1.73408 v 7.09393"
         id="path50601"
         style="fill:#ffffff;fill-opacity:1;fill-rule:nonzero;stroke:none;stroke-width:12.3893" /><path
         d="m 467.5875,407.07401 c -0.0969,1.63706 -0.0484,2.27976 -1.58626,3.17711 -2.78502,1.68556 -6.29658,2.27976 -9.51753,2.27976 -4.35918,0 -9.4691,-0.99437 -13.0412,-3.6743 -3.76584,-2.82544 -6.29659,-7.5426 -6.29659,-12.30827 0,-4.91118 2.48231,-9.38582 6.39346,-12.30827 3.87482,-2.82545 9.17849,-4.17148 13.93725,-4.17148 2.3249,0 5.14625,0.40017 7.42271,1.04287 1.34408,0.40017 1.34408,0.59419 1.59837,1.98873 l 0.39959,2.53441 c 0.0969,0.49718 0.19374,0.93373 0.19374,1.43091 0,0.54569 -0.39959,0.84885 -0.94449,0.84885 -2.27646,0 -2.43387,-5.90555 -9.11794,-5.90555 -3.28149,0 -6.29659,1.83109 -8.18557,4.46251 -1.9253,2.72844 -2.72448,6.35422 -2.72448,9.62834 0,3.22562 0.75075,6.8029 2.48231,9.53134 1.88897,2.93458 4.85563,4.95969 8.42774,4.95969 1.93741,0 3.71741,-0.69121 5.20679,-1.87959 1.47728,-1.24902 2.37333,-2.88608 3.26938,-4.57165 0.24218,-0.54568 0.59334,-1.04286 1.2351,-1.04286 1.0898,0 1.04136,1.13987 0.99293,1.89171 l -0.14531,2.08574"
         id="path50603"
         style="fill:#ffffff;fill-opacity:1;fill-rule:nonzero;stroke:none;stroke-width:12.3893" /></g><path
       style="fill:#ffffff;fill-opacity:1;fill-rule:nonzero;stroke:none;stroke-width:12.3893"
       id="path50641"
       d="m 103.76583,493.66847 h 157.45102 l 98.54159,107.1608 98.26309,-107.1608 h 157.45101 l -255.7141,243.7402 -255.99261,-243.7402" /><g
       style="stroke-width:1.02242"
       id="g507"><path
         d="m 362.5798,318.17553 c 0,0 25.51328,37.15522 8.63359,68.12599 -16.86759,30.95864 -61.86398,29.57624 -61.86398,29.57624 0,0 54.41705,18.33508 76.09184,-21.68197 20.42758,-37.68878 -22.86145,-76.02026 -22.86145,-76.02026"
         id="path50643"
         style="fill:#ffffff;fill-opacity:1;fill-rule:nonzero;stroke:none;stroke-width:12.3893" /><path
         d="m 360.17014,319.16989 c 0,0 -25.51329,37.15523 -8.63359,68.11387 16.86759,30.97077 61.86397,29.58836 61.86397,29.58836 0,0 -54.41704,18.32296 -76.09184,-21.68196 -20.42758,-37.68879 22.86146,-76.02027 22.86146,-76.02027"
         id="path50645"
         style="fill:#ffffff;fill-opacity:1;fill-rule:nonzero;stroke:none;stroke-width:12.3893" /><path
         d="m 416.65779,411.73054 c 0,0 -20.12486,-40.33234 -55.34942,-40.52636 -35.22456,-0.19402 -55.79745,39.90791 -55.79745,39.90791 0,0 10.31671,-56.55743 55.77323,-56.20576 42.8168,0.32741 55.37364,56.82421 55.37364,56.82421"
         id="path50647"
         style="fill:#ffffff;fill-opacity:1;fill-rule:nonzero;stroke:none;stroke-width:12.3893" /></g><g
       style="stroke-width:1.02242"
       id="g495"><path
         d="m 207.35681,191.0062 c 0,3.09223 1.6468,3.62579 3.30571,3.92895 1.64679,0.30316 3.40257,0.61845 3.40257,2.47378 0,1.13988 -1.02925,1.44304 -2.78503,1.44304 -2.16747,0 -5.3642,-0.4123 -11.85453,-0.4123 -6.50244,0 -9.68706,0.4123 -11.85454,0.4123 -1.75578,0 -2.78503,-0.30316 -2.78503,-1.44304 0,-1.85533 1.75578,-2.17062 3.81428,-2.47378 2.26435,-0.30316 2.8819,-1.86746 2.8819,-6.60888 v -46.25 c 0,-2.36465 0,-3.91682 -1.85265,-4.94756 -1.75578,-0.83672 -4.22598,-0.83672 -4.22598,-2.17063 0,-1.44303 1.2351,-1.55217 3.09986,-1.55217 1.2351,0 4.41972,0.4123 10.92216,0.4123 6.49033,0 9.68706,-0.4123 11.85453,-0.4123 1.75578,0 2.78503,0.4123 2.78503,1.44304 0,1.23689 -2.37333,1.86746 -4.02012,2.47378 -2.26435,0.93373 -2.68816,2.27976 -2.68816,5.16584 v 48.51763"
         id="path50605"
         style="fill:#ffffff;fill-opacity:1;fill-rule:nonzero;stroke:none;stroke-width:12.3893" /><path
         d="m 308.80452,200.10099 c -18.34487,0 -28.75845,-18.38359 -28.75845,-33.96599 0,-17.656 10.00188,-33.96598 28.75845,-33.96598 18.34486,0 28.75845,18.37146 28.75845,33.96598 0,17.64388 -10.00189,33.96599 -28.75845,33.96599 z m -1.13823,-64.6336 c -6.79305,0 -10.30461,12.9146 -10.30461,23.64644 0,19.92364 4.74666,37.67666 13.19862,37.67666 6.1755,0 9.68705,-10.1134 9.68705,-25.6958 0,-16.52825 -4.33495,-35.6273 -12.58106,-35.6273"
         id="path50607"
         style="fill:#ffffff;fill-opacity:1;fill-rule:nonzero;stroke:none;stroke-width:12.3893" /><path
         d="m 386.30098,145.18062 c 0,-4.13509 -0.60544,-7.85789 -3.80217,-8.27019 -1.6468,-0.19402 -3.81428,-0.71545 -3.81428,-2.06148 0,-0.92161 0.61755,-1.44304 1.74367,-1.44304 1.96163,0 3.60843,0.4123 7.32584,0.4123 2.26435,0 4.73455,-0.4123 7.31373,-0.4123 1.2351,0 1.96162,0.52143 1.96162,1.55217 0,1.2369 -1.75577,1.64919 -3.40257,1.95235 -2.4702,0.52144 -3.40258,1.96447 -3.40258,5.48112 v 56.36341 c 0,1.03074 -0.8234,1.34603 -2.99088,1.34603 -1.2351,0 -2.0585,-0.31529 -2.8819,-1.55218 l -32.36688,-51.3067 h -0.31483 v 40.25957 c 0,6.49974 1.96163,7.53048 4.02013,7.84577 2.0706,0.31528 4.1291,0.10913 4.1291,1.96447 0,0.81247 -0.8355,1.54005 -2.0585,1.54005 -2.894,0 -5.06148,-0.4123 -7.4227,-0.4123 -2.48231,0 -5.15836,0.4123 -6.91414,0.4123 -1.54993,0 -2.26435,-0.30316 -2.26435,-1.54005 0,-3.61366 6.59931,0 6.59931,-6.51186 v -49.34224 c 0,-7.02117 -6.39346,-3.29837 -6.39346,-6.19658 0,-1.13988 1.02925,-1.85533 2.78503,-1.85533 2.36122,0 4.84353,0.4123 7.31373,0.4123 2.4702,0 4.95251,-0.4123 7.42271,-0.4123 2.05849,0 3.3057,0.31528 4.22597,1.7462 l 22.98255,37.27648 h 0.20585 v -27.24797"
         id="path50609"
         style="fill:#ffffff;fill-opacity:1;fill-rule:nonzero;stroke:none;stroke-width:12.3893" /><path
         d="m 409.31985,142.5977 c 0,-5.99043 -6.9989,-1.55217 -6.9989,-4.6444 0,-2.26763 6.90203,-5.78428 24.21764,-5.78428 21.74745,0 34.32851,11.76258 34.32851,33.44455 0,20.44507 -11.5397,33.2384 -28.66158,33.2384 -7.21686,0 -11.9514,-0.4123 -16.28636,-0.4123 -5.25523,0 -8.45196,0.4123 -10.60733,0.4123 -1.75578,0 -2.78503,-0.30316 -2.78503,-1.44304 0,-1.85533 1.74367,-2.17062 3.39047,-2.47378 1.65891,-0.30316 3.40258,-0.83672 3.40258,-3.92895 z m 15.87466,46.86845 c 0,2.88608 2.48231,5.469 5.36421,5.469 7.01101,0 12.98066,-6.19658 12.98066,-29.73388 0,-19.60835 -5.14625,-29.11543 -13.70719,-29.11543 -3.08775,0 -4.63768,1.55217 -4.63768,4.65653 v 48.72378"
         id="path50611"
         style="fill:#ffffff;fill-opacity:1;fill-rule:nonzero;stroke:none;stroke-width:12.3893" /><path
         d="m 489.20175,191.0062 c 0,3.09223 1.6468,3.62579 3.2936,3.92895 1.6468,0.30316 3.40258,0.61845 3.40258,2.47378 0,1.13988 -1.02925,1.44304 -2.78503,1.44304 -2.16748,0 -5.3521,-0.4123 -11.85454,-0.4123 -6.49033,0 -9.68706,0.4123 -11.85454,0.4123 -1.74367,0 -2.77292,-0.30316 -2.77292,-1.44304 0,-1.85533 1.74367,-2.17062 3.81428,-2.47378 2.26435,-0.30316 2.8819,-1.86746 2.8819,-6.60888 v -46.25 c 0,-2.36465 0,-3.91682 -1.85265,-4.94756 -1.75578,-0.83672 -4.23809,-0.83672 -4.23809,-2.17063 0,-1.44303 1.24721,-1.55217 3.09986,-1.55217 1.2351,0 4.43183,0.4123 10.92216,0.4123 6.50244,0 9.68706,-0.4123 11.85454,-0.4123 1.75578,0 2.78503,0.4123 2.78503,1.44304 0,1.23689 -2.37333,1.86746 -4.00802,2.47378 -2.27646,0.93373 -2.68816,2.27976 -2.68816,5.16584 v 48.51763"
         id="path50613"
         style="fill:#ffffff;fill-opacity:1;fill-rule:nonzero;stroke:none;stroke-width:12.3893" /><path
         d="m 544.33321,145.18062 c 0,-4.13509 -0.62965,-7.85789 -3.81427,-8.27019 -1.65891,-0.19402 -3.82639,-0.71545 -3.82639,-2.06148 0,-0.92161 0.62966,-1.44304 1.76789,-1.44304 1.94952,0 3.59632,0.4123 7.31372,0.4123 2.26435,0 4.73455,-0.4123 7.31373,-0.4123 1.2351,0 1.96163,0.52143 1.96163,1.55217 0,1.2369 -1.75578,1.64919 -3.40258,1.95235 -2.4702,0.52144 -3.40258,1.96447 -3.40258,5.48112 v 56.36341 c 0,1.03074 -0.8234,1.34603 -2.99088,1.34603 -1.2351,0 -2.0585,-0.31529 -2.8819,-1.55218 l -32.36688,-51.3067 h -0.31483 v 40.25957 c 0,6.49974 1.96163,7.53048 4.02013,7.84577 2.0585,0.31528 4.12911,0.10913 4.12911,1.96447 0,0.81247 -0.8234,1.54005 -2.07061,1.54005 -2.8819,0 -5.04938,-0.4123 -7.4106,-0.4123 -2.4823,0 -5.15835,0.4123 -6.91413,0.4123 -1.53782,0 -2.26435,-0.30316 -2.26435,-1.54005 0,-3.61366 6.5993,0 6.5993,-6.51186 v -49.34224 c 0,-7.02117 -6.39345,-3.29837 -6.39345,-6.19658 0,-1.13988 1.02925,-1.85533 2.78503,-1.85533 2.36122,0 4.84352,0.4123 7.31372,0.4123 2.48231,0 4.95251,-0.4123 7.42271,-0.4123 2.0585,0 3.30571,0.31528 4.22598,1.7462 l 22.98255,37.27648 h 0.21795 v -27.24797"
         id="path50615"
         style="fill:#ffffff;fill-opacity:1;fill-rule:nonzero;stroke:none;stroke-width:12.3893" /><path
         d="m 581.02294,132.16902 c 4.02013,0 9.57808,1.03074 12.78692,2.37677 1.44095,0.60632 2.56707,0.9216 2.56707,2.77694 0,3.41964 0,6.82715 -0.0969,10.22254 0,3.20136 -0.10898,4.54739 -2.4702,4.54739 -4.33496,0 -4.85564,-16.62527 -14.22787,-16.62527 -4.85563,0 -7.21685,3.3105 -7.21685,7.63962 0,13.8362 26.69995,15.89768 26.69995,35.51816 0,12.90247 -11.14012,21.47582 -23.92703,21.47582 -2.8819,0 -17.10977,-0.10914 -17.10977,-5.57814 0,-5.89342 0.20585,-8.77949 0.31483,-10.95012 0.30272,-5.35985 0.8234,-7.11818 3.40258,-7.11818 5.25523,0 2.57918,20.33594 14.11889,20.33594 6.28448,0 10.00188,-4.53527 10.00188,-10.1134 0,-14.45465 -26.69995,-18.4806 -26.69995,-35.93046 0,-12.07787 11.64869,-18.57761 21.85642,-18.57761"
         id="path50617"
         style="fill:#ffffff;fill-opacity:1;fill-rule:nonzero;stroke:none;stroke-width:12.3893" /><path
         d="m 129.13382,238.73563 c 0,-2.41315 -0.61755,-2.95884 -2.85769,-2.95884 -1.06557,0 -2.04639,0.1819 -2.76081,0.1819 -1.16244,0 -1.34408,-0.27891 -1.34408,-1.16414 0,-1.87958 13.04121,-3.67429 20.19752,-3.67429 16.6133,0 26.97845,11.09564 26.97845,29.07906 0,12.62356 -6.97468,28.72739 -23.93914,28.72739 -3.8506,0 -7.32583,-0.3638 -10.72841,-0.3638 -7.24108,0 -9.7476,0.3638 -11.61236,0.3638 -0.5449,0 -0.89606,-0.53356 -0.89606,-1.16414 0,-0.98223 0.44803,-1.16413 3.12408,-1.34602 2.85768,-0.0849 3.8385,-1.61281 3.8385,-6.43911 z m 8.75467,40.52635 c 0,5.10521 2.42177,7.15457 7.07156,7.15457 9.2027,0 14.73643,-11.09564 14.73643,-25.0531 0,-16.4555 -6.42978,-27.73303 -16.26214,-27.73303 -3.40258,0 -5.54585,1.24902 -5.54585,5.35986 v 40.2717"
         id="path50619"
         style="fill:#ffffff;fill-opacity:1;fill-rule:nonzero;stroke:none;stroke-width:12.3893" /><path
         d="m 178.8042,238.00805 c 0,-2.23126 -0.61755,-2.8497 -3.3057,-3.31051 -1.69524,-0.25465 -2.50653,-0.16977 -2.50653,-1.3339 0,-0.98223 0.72653,-1.16413 2.6034,-1.16413 0.79918,0 2.85768,0.35166 14.20364,0.35166 9.38434,0 13.5861,-0.35166 16.17739,-0.35166 1.59837,0 2.04639,0.35166 2.04639,1.69769 v 11.36242 c 0,1.16413 -0.35115,1.61281 -0.98081,1.61281 -1.42884,0 -0.89606,-0.44868 -2.95456,-5.0082 -2.40965,-5.37198 -4.90407,-7.16669 -11.79399,-7.16669 -4.28652,0 -4.73455,0.3638 -4.73455,2.42528 v 18.16531 c 0,1.24902 0.18164,1.60069 2.42177,1.60069 7.4106,0 7.76175,-0.0849 9.38433,-3.39539 1.41674,-2.94671 1.33197,-4.11084 2.49442,-4.11084 0.79918,0 1.06558,0.44867 1.06558,1.60068 0,1.87959 -0.35116,4.92331 -0.35116,7.70025 0,3.39539 0.35116,5.72365 0.35116,7.51835 0,1.61281 -0.16953,2.49804 -1.24721,2.49804 -1.33197,0 -1.33197,-1.78258 -2.31279,-4.91119 -1.25931,-4.12296 -1.62258,-4.38974 -7.87073,-4.38974 -3.5721,0 -3.93537,0.0849 -3.93537,1.6128 v 17.08607 c 0,6.43911 1.07769,8.3187 7.15632,8.3187 5.88488,0 8.75467,-2.49804 11.06746,-8.76738 1.79211,-4.74141 1.70734,-5.09307 2.6034,-5.09307 0.79918,0 0.9687,0.26678 0.9687,2.04935 v 12.72057 c 0,1.23689 -0.35115,1.60069 -2.14326,1.60069 -2.40965,0 -6.69618,-0.3638 -15.80201,-0.3638 -10.09876,0 -12.69005,0.3638 -16.98868,0.3638 -1.59836,0 -1.86476,-0.44868 -1.86476,-1.07925 0,-0.98224 0.2664,-1.24902 1.5136,-1.43091 3.85061,-0.61845 4.73455,-1.43092 4.73455,-4.11085 v -44.29765"
         id="path50621"
         style="fill:#ffffff;fill-opacity:1;fill-rule:nonzero;stroke:none;stroke-width:12.3893" /><path
         d="m 245.16055,236.58926 c 0,-1.16413 -0.53279,-1.89172 -2.0585,-1.89172 h -2.76081 c -0.62966,0 -1.07769,-0.25465 -1.07769,-0.98223 0,-0.88523 0.89606,-1.3339 2.14326,-1.5158 7.32584,-0.89735 11.97563,-1.07925 17.50936,-1.07925 11.97563,0 18.76867,4.12297 18.76867,12.97523 0,7.25157 -4.46815,10.56207 -11.16433,12.79333 v 0.18189 c 8.30665,0.98224 14.5548,6.8029 14.5548,15.21861 0,8.40358 -6.34502,16.63739 -15.54772,16.63739 -3.92326,0 -7.32584,-0.3638 -13.3076,-0.3638 -5.27944,0 -8.75468,0.3638 -10.99481,0.3638 -1.5136,0 -1.96163,-0.3638 -1.96163,-0.98224 0,-0.80034 0.44803,-0.80034 2.3249,-1.43091 2.95455,-0.98224 3.5721,-1.26115 3.5721,-3.6743 z m 8.75468,16.00682 c 0,3.04372 0.89605,3.40751 3.48734,3.40751 6.16339,0 11.34596,-3.04372 11.34596,-11.99299 0,-6.53612 -3.75373,-10.38018 -10.00188,-10.38018 -4.117,0 -4.83142,1.34603 -4.83142,3.6743 z m 0,27.19946 c 0,4.30487 1.97374,6.62101 7.15631,6.62101 4.73455,0 10.35304,-3.57729 10.35304,-14.49103 0,-7.43347 -3.83849,-13.41177 -12.67793,-13.41177 -4.117,0 -4.83142,0.52143 -4.83142,2.49803 v 18.78376"
         id="path50623"
         style="fill:#ffffff;fill-opacity:1;fill-rule:nonzero;stroke:none;stroke-width:12.3893" /><path
         d="m 307.70261,289.99383 c -13.75562,0 -22.34077,-15.20648 -22.34077,-29.43072 0,-14.22424 8.58515,-29.44285 22.34077,-29.44285 13.75563,0 22.34078,15.21861 22.34078,29.44285 0,14.22424 -8.58515,29.43072 -22.34078,29.43072 z m 0,-56.36341 c -8.85154,0 -12.69004,15.92194 -12.69004,26.93269 0,11.01075 3.8385,26.93268 12.69004,26.93268 8.85155,0 12.69005,-15.92193 12.69005,-26.93268 0,-11.01075 -3.8385,-26.93269 -12.69005,-26.93269"
         id="path50625"
         style="fill:#ffffff;fill-opacity:1;fill-rule:nonzero;stroke:none;stroke-width:12.3893" /><path
         d="m 349.15111,281.32347 c 0,2.59504 0.71442,4.37762 3.47523,4.92331 3.40258,0.61844 3.76585,1.07924 3.76585,1.69769 0,0.61844 -0.2664,0.98224 -1.16245,0.98224 -1.97374,0 -5.26734,-0.3638 -9.56597,-0.3638 -5.00094,0 -7.4106,0.3638 -9.65073,0.3638 -0.89605,0 -1.33197,-0.3638 -1.33197,-1.16414 0,-0.61844 0.35116,-1.16413 1.86476,-1.34602 2.86979,-0.25466 3.8506,-1.96448 3.8506,-3.75918 v -43.83686 c 0,-2.95883 -0.62965,-3.94107 -3.22094,-4.12297 -2.0585,-0.16977 -2.49442,-0.53356 -2.49442,-1.16413 0,-0.88522 0.61755,-1.3339 1.59836,-1.3339 2.50653,0 5.09782,0.35166 8.93632,0.35166 4.74665,0 7.95549,-0.35166 13.13807,-0.35166 9.73549,0 15.63249,6.26934 15.63249,14.67292 0,7.96703 -6.51455,12.34465 -13.75563,13.32689 v 0.18189 c 2.67605,0.44868 3.75374,1.6977 5.08571,4.38975 7.32584,14.7578 8.22189,19.94789 10.81318,21.64559 1.7921,1.16413 3.22094,0.36379 3.22094,1.69769 0,0.44867 -0.26639,0.81247 -1.07768,0.81247 -2.04639,0 -4.10489,-0.3638 -6.16339,-0.3638 -2.22802,0 -2.94244,0.3638 -4.73455,0.3638 -0.61755,0 -1.07769,-0.44868 -1.61047,-1.6977 l -10.98271,-23.98597 c -0.53278,-1.16413 -1.16244,-1.87959 -2.85768,-1.87959 -1.96163,0 -2.77292,0.4608 -2.77292,2.14637 z m 0,-24.60442 c 0,1.7947 0.2664,2.14637 2.85768,2.14637 8.04026,0 12.32679,-3.31051 12.32679,-12.17489 0,-6.43911 -4.28653,-11.99299 -9.65074,-11.99299 -4.46815,0 -5.6306,1.16414 -5.53373,4.75354 v 17.26797"
         id="path50627"
         style="fill:#ffffff;fill-opacity:1;fill-rule:nonzero;stroke:none;stroke-width:12.3893" /><path
         d="m 387.60873,238.73563 c 0,-2.41315 -0.62966,-2.95884 -2.85768,-2.95884 -1.07769,0 -2.0585,0.1819 -2.77292,0.1819 -1.16245,0 -1.33197,-0.27891 -1.33197,-1.16414 0,-1.87958 13.0412,-3.67429 20.1854,-3.67429 16.61331,0 26.97846,11.09564 26.97846,29.07906 0,12.62356 -6.96257,28.72739 -23.93914,28.72739 -3.85061,0 -7.32584,-0.3638 -10.71631,-0.3638 -7.24107,0 -9.7476,0.3638 -11.62447,0.3638 -0.53279,0 -0.88394,-0.53356 -0.88394,-1.16414 0,-0.98223 0.43592,-1.16413 3.12407,-1.34602 2.85769,-0.0849 3.8385,-1.61281 3.8385,-6.43911 z m 8.75468,40.52635 c 0,5.10521 2.40965,7.15457 7.05944,7.15457 9.20271,0 14.74855,-11.09564 14.74855,-25.0531 0,-16.4555 -6.4419,-27.73303 -16.27426,-27.73303 -3.39047,0 -5.53373,1.24902 -5.53373,5.35986 v 40.2717"
         id="path50629"
         style="fill:#ffffff;fill-opacity:1;fill-rule:nonzero;stroke:none;stroke-width:12.3893" /><path
         d="m 437.27912,238.00805 c 0,-2.23126 -0.62966,-2.8497 -3.30571,-3.31051 -1.70734,-0.25465 -2.50653,-0.16977 -2.50653,-1.3339 0,-0.98223 0.71442,-1.16413 2.59129,-1.16413 0.81129,0 2.85768,0.35166 14.20365,0.35166 9.38434,0 13.5861,-0.35166 16.17739,-0.35166 1.59836,0 2.04639,0.35166 2.04639,1.69769 v 11.36242 c 0,1.16413 -0.35116,1.61281 -0.98082,1.61281 -1.42884,0 -0.89605,-0.44868 -2.94244,-5.0082 -2.40966,-5.37198 -4.91618,-7.16669 -11.79399,-7.16669 -4.28653,0 -4.73455,0.3638 -4.73455,2.42528 v 18.16531 c 0,1.24902 0.16952,1.60069 2.40965,1.60069 7.4106,0 7.77387,-0.0849 9.38434,-3.39539 1.42884,-2.94671 1.33197,-4.11084 2.49442,-4.11084 0.81129,0 1.07768,0.44867 1.07768,1.60068 0,1.87959 -0.36326,4.92331 -0.36326,7.70025 0,3.39539 0.36326,5.72365 0.36326,7.51835 0,1.61281 -0.18163,2.49804 -1.24721,2.49804 -1.34408,0 -1.34408,-1.78258 -2.32489,-4.91119 -1.25932,-4.12296 -1.61047,-4.38974 -7.85863,-4.38974 -3.58421,0 -3.93536,0.0849 -3.93536,1.6128 v 17.08607 c 0,6.43911 1.06557,8.3187 7.1442,8.3187 5.897,0 8.75468,-2.49804 11.07957,-8.76738 1.78,-4.74141 1.69524,-5.09307 2.59129,-5.09307 0.79918,0 0.98082,0.26678 0.98082,2.04935 v 12.72057 c 0,1.23689 -0.36327,1.60069 -2.14326,1.60069 -2.40966,0 -6.69618,-0.3638 -15.81413,-0.3638 -10.09875,0 -12.67793,0.3638 -16.97656,0.3638 -1.61048,0 -1.87687,-0.44868 -1.87687,-1.07925 0,-0.98224 0.26639,-1.24902 1.5136,-1.43091 3.85061,-0.61845 4.74666,-1.43092 4.74666,-4.11085 v -44.29765"
         id="path50631"
         style="fill:#ffffff;fill-opacity:1;fill-rule:nonzero;stroke:none;stroke-width:12.3893" /><path
         d="m 484.7457,268.69991 c -1.34408,0 -1.34408,0.54568 -2.59129,5.73577 -1.7921,7.50623 -2.24013,8.67036 -2.24013,9.30094 0,1.16413 0.71442,2.06148 2.68816,2.67993 1.69523,0.54568 4.20176,0.18189 4.20176,1.34602 0,0.54569 -0.2785,1.16414 -1.61047,1.16414 -0.81129,0 -4.29863,-0.3638 -6.4419,-0.3638 -4.28652,0 -5.80012,0.3638 -6.69617,0.3638 -0.62966,0 -0.89606,-0.26678 -0.89606,-0.89736 0,-1.34602 1.16245,-0.80034 3.05143,-1.6128 2.04639,-0.88523 2.94244,-5.09308 10.17141,-28.98205 7.87073,-25.95045 7.24107,-26.31424 8.85155,-26.31424 1.87686,0 1.15033,1.07925 12.14514,36.87632 4.46816,14.49102 5.00095,17.80152 6.79305,18.41997 2.0585,0.72758 3.12408,0.44867 3.12408,1.52792 0,0.61844 -0.2664,0.98224 -1.86476,0.98224 -1.44095,0 -4.28652,-0.3638 -7.60434,-0.3638 -4.81931,0 -8.04026,0.3638 -9.02107,0.3638 -0.98082,0 -1.16245,-0.44868 -1.16245,-1.07925 0,-0.80034 0.89605,-0.70333 3.93537,-1.43091 1.16244,-0.25466 1.5136,-1.33391 1.5136,-2.04936 0,-0.81247 -0.43592,-1.9766 -2.22802,-8.41571 -1.79211,-6.52399 -1.79211,-7.25157 -2.95456,-7.25157 z m 10.44991,-2.49804 c 0.62966,0 0.79919,0 0.79919,-0.26678 0,-0.63057 -0.53279,-2.24338 -3.92326,-14.05447 -1.34408,-4.6444 -1.34408,-5.00819 -1.69524,-5.00819 -0.44802,0 -0.44802,0.53356 -3.39047,11.09563 -1.87686,6.9848 -2.24013,7.70025 -2.24013,7.96703 0,0.1819 0.16952,0.26678 0.98082,0.26678 h 9.46909"
         id="path50633"
         style="fill:#ffffff;fill-opacity:1;fill-rule:nonzero;stroke:none;stroke-width:12.3893" /><path
         d="m 549.50368,273.35644 v -31.6741 c 0,-6.00256 -1.24721,-6.70589 -3.5721,-6.9848 -2.50653,-0.25465 -2.77292,-0.53356 -2.77292,-1.3339 0,-0.63057 0.36326,-1.16413 1.88897,-1.16413 0.96871,0 2.39755,0.35166 5.6185,0.35166 3.66897,0 4.55292,-0.35166 5.89699,-0.35166 0.89606,0 1.78,0.44868 1.78,1.16413 0,0.88523 -0.52068,1.16413 -2.84557,1.3339 -2.0585,0.1819 -3.48734,1.44304 -3.48734,4.48676 v 33.1899 c 0,12.34465 -5.99387,17.61963 -15.54773,17.61963 -9.29958,0 -17.69099,-2.41315 -17.69099,-13.145 v -38.56188 c 0,-2.24338 -0.36326,-3.40751 -1.61047,-3.58941 -3.12408,-0.44867 -3.39047,-0.80034 -3.39047,-1.51579 0,-0.53356 0.44802,-0.98224 1.24721,-0.98224 1.69523,0 3.48734,0.35166 8.30665,0.35166 5.6306,0 8.66991,-0.35166 9.29957,-0.35166 1.06558,0 1.51361,0.44868 1.51361,0.98224 0,0.89735 -0.53279,0.98223 -3.30571,1.51579 -2.24013,0.3638 -3.30571,1.26115 -3.30571,4.12297 v 35.96684 c 0,8.05191 4.02013,12.17488 11.17644,12.17488 5.88489,0 10.80107,-4.30486 10.80107,-13.60579"
         id="path50635"
         style="fill:#ffffff;fill-opacity:1;fill-rule:nonzero;stroke:none;stroke-width:12.3893" /><path
         d="m 562.99291,238.82051 c -1.5136,-2.86182 -1.69524,-3.75917 -3.47523,-4.12297 -1.61048,-0.35166 -2.42177,-0.35166 -2.42177,-1.3339 0,-0.71545 0.44803,-1.16413 1.34408,-1.16413 1.61048,0 3.75374,0.35166 7.77387,0.35166 5.98175,0 7.76175,-0.35166 9.11794,-0.35166 0.70231,0 1.24721,0.35166 1.24721,0.89735 0,0.89735 -0.36327,1.34603 -3.12408,1.60068 -0.99292,0.097 -1.87687,0.63058 -1.87687,1.62494 0,1.24902 0.71442,2.41315 7.677,16.37061 6.26026,-12.70845 7.59223,-14.32125 7.59223,-15.84918 0,-1.41878 -1.33197,-2.14637 -3.75374,-2.14637 -0.79918,0 -1.77999,-0.25465 -1.77999,-1.16413 0,-1.152 0.98081,-1.3339 1.87686,-1.3339 0.89606,0 2.94245,0.35166 7.14421,0.35166 2.85768,0 4.38339,-0.35166 5.71536,-0.35166 1.34408,0 1.79211,0.35166 1.79211,1.16413 0,0.71546 -0.18163,1.24902 -1.34408,1.3339 -3.8385,0.27891 -5.53373,1.79471 -7.04734,4.75354 l -8.66991,16.55251 7.22897,14.7578 c 6.87781,14.04235 7.1442,14.67292 9.2027,15.65516 1.25932,0.63057 1.97374,0.81246 1.97374,1.43091 0,0.63057 -0.18163,1.07925 -1.42884,1.07925 -1.62259,0 -4.56503,-0.3638 -6.79305,-0.3638 -6.79305,0 -8.31876,0.3638 -9.11795,0.3638 -1.06557,0 -1.42884,-0.3638 -1.42884,-0.98224 0,-1.07925 1.34408,-1.07925 2.67605,-1.52792 1.42884,-0.44868 2.3249,-1.06713 2.3249,-2.04936 0,-0.89735 -1.16245,-2.95884 -6.51455,-14.32125 -2.0585,-4.47464 -2.50653,-5.09308 -2.68816,-5.09308 -0.44802,0 -0.79918,1.16413 -4.38339,7.78513 -3.65687,6.79077 -4.45605,9.03415 -4.45605,10.46507 0,1.60068 0.98082,2.67993 3.5721,3.21349 1.69524,0.36379 2.40966,0.54568 2.40966,1.34602 0,0.89736 -0.53279,1.16414 -1.16245,1.16414 -1.34408,0 -2.85768,-0.3638 -7.22896,-0.3638 -4.64979,0 -6.26026,0.3638 -7.24108,0.3638 -1.52571,0 -1.7921,-0.26678 -1.7921,-1.16414 0,-1.16413 0.62965,-1.16413 2.32489,-1.51579 2.94244,-0.71546 3.12408,-0.99437 6.16339,-6.35423 l 10.28039,-18.16531 -11.70923,-22.90673"
         id="path50637"
         style="fill:#ffffff;fill-opacity:1;fill-rule:nonzero;stroke:none;stroke-width:12.3893" /><path
         d="m 229.55228,141.39719 c 0,-3.11648 -1.65891,-4.25636 -3.32993,-4.57164 -1.54993,-0.31529 -3.31782,-0.61845 -3.31782,-1.86747 0,-1.152 0.93238,-1.45516 2.70027,-1.45516 2.17959,0 5.40054,0.4123 11.9393,0.4123 4.2502,0 10.47413,-0.4123 17.10977,-0.4123 11.21276,0 19.50731,5.40836 19.50731,16.30998 0,16.3221 -18.46596,14.86694 -18.46596,16.00682 0,0.52143 0.83551,0.61844 1.97374,0.61844 5.29156,0 7.88285,0.94586 9.85658,5.9298 l 7.2653,18.28658 c 3.00298,7.48197 6.84148,4.15935 6.84148,7.16669 0,1.152 -0.93238,1.5643 -1.86476,1.5643 h -14.0099 c -4.45605,0 -4.77088,-0.4123 -6.42979,-4.88693 l -7.36216,-20.05703 c -1.35619,-3.73492 -2.49442,-6.02681 -5.50952,-6.02681 -0.72653,0 -0.93238,0.42442 -0.93238,0.83672 v 19.42646 c 0,3.22562 0.10898,5.72365 2.6034,6.75439 1.96163,0.83672 3.72952,0.52144 3.72952,2.49804 0,1.13988 -1.04136,1.45516 -2.79714,1.45516 -1.76789,0 -4.98884,-0.4123 -11.51549,-0.4123 -6.53876,0 -9.75971,0.4123 -11.9393,0.4123 -1.34408,0 -2.28857,-0.31528 -2.28857,-1.45516 0,-1.86747 1.24721,-2.18275 2.90612,-2.49804 1.67102,-0.31528 3.32993,-0.82459 3.32993,-3.94107 z m 15.97153,22.55506 c 0,0.30316 0.52068,0.52144 0.93238,0.52144 7.2653,0 11.73345,-5.82066 11.73345,-14.04235 0,-7.2637 -3.8385,-13.60579 -9.44488,-13.60579 -2.07061,0 -3.22095,0.83672 -3.22095,4.77779 v 22.34891"
         id="path50649"
         style="fill:#ffffff;fill-opacity:1;fill-rule:nonzero;stroke:none;stroke-width:12.3893" /><path
         d="m 174.16653,191.44275 c 0,3.58941 -11.04325,8.43996 -20.51235,8.43996 -17.25507,0 -29.2428,-15.59452 -29.2428,-32.87461 0,-22.11851 13.46501,-36.43976 31.24076,-36.43976 4.31074,0 8.63359,0.83672 12.20569,1.89171 2.10693,0.73971 3.68108,1.37028 3.88693,3.68642 0.21796,3.15286 0.31483,7.2637 0.31483,12.74482 0,2.10999 -0.94449,2.94671 -2.09483,2.94671 -6.10284,0 -4.9525,-17.91066 -15.36609,-17.91066 -5.57006,0 -12.52052,8.42784 -12.52052,30.55848 0,20.43294 5.15836,32.01363 12.73848,32.01363 2.40965,0 3.77795,-2.72843 3.77795,-7.2637 v -15.27923 c 0,-5.68727 -6.41768,-2.52229 -6.41768,-5.26285 0,-1.46729 0.84762,-1.89172 2.7366,-1.89172 3.58421,0 8.20978,0.42443 11.99984,0.42443 3.14829,0 7.45904,-0.42443 10.30461,-0.42443 1.88897,0 2.31278,0.52144 2.31278,1.57643 0,2.52229 -5.3642,0.31529 -5.3642,6.42698 v 16.63739"
         id="path50651"
         style="fill:#ffffff;fill-opacity:1;fill-rule:nonzero;stroke:none;stroke-width:12.3893" /></g></g><path
     style="fill:#131734;fill-opacity:1;fill-rule:nonzero;stroke:#ffffff;stroke-width:1.76917;stroke-linecap:butt;stroke-linejoin:miter;stroke-miterlimit:4;stroke-dasharray:none;stroke-opacity:1"
     id="path554"
     d="m 647.32577,64.212401 5.87425,361.829769 c 0,0 14.01058,279.77849 -323.21433,373.04985 0,0 -303.601903,-58.91134 -329.10043573,-373.04985 L 7.6122243,65.671249 c 0,0 312.2948557,-144.793584 639.7135457,-1.458848 z" /><path
     style="fill:none;stroke:#ffffff;stroke-width:31.9056;stroke-linecap:butt;stroke-linejoin:miter;stroke-miterlimit:4;stroke-dasharray:none;stroke-opacity:1"
     id="path556"
     d="m 615.13579,91.278172 2.66473,331.253278 c 0,0 17.77674,253.76831 -288.07538,338.3696 0,0 -270.298665,-53.43177 -293.416703,-338.3696 L 39.731138,92.606562 c 0,0 278.434982,-131.320006 575.404652,-1.32839 z" /><g
     style="stroke-width:1.02242"
     transform="matrix(0.97806849,0,0,0.97807846,-22.261692,-17.806841)"
     id="g624"><g
       style="stroke-width:1.02242"
       id="g566"><path
         style="fill:#ffffff;fill-opacity:1;fill-rule:nonzero;stroke:none;stroke-width:12.3893"
         id="path558"
         d="m 325.62367,505.94037 c 0,2.18274 1.29565,3.17711 3.31782,3.17711 0.94449,0 1.48938,0.14551 1.48938,0.75183 0,0.5942 -0.29061,0.83672 -1.2351,0.83672 -2.38543,0 -4.8072,-0.20614 -7.19264,-0.20614 -2.57918,0 -5.09781,0.20614 -7.67699,0.20614 -0.49646,0 -1.04136,-0.24252 -1.04136,-0.83672 0,-0.60632 0.5449,-0.75183 1.48939,-0.75183 2.51863,0 3.7174,-0.54569 3.7174,-2.32827 V 485.5438 c 0,-1.23689 -0.25428,-1.58856 -1.04135,-1.58856 -1.39252,0 -2.78503,1.38241 -3.66898,1.38241 -0.44802,0 -0.65387,-0.19402 -0.65387,-0.78821 0,-0.48506 0.60544,-0.94586 5.44897,-3.22562 5.20679,-2.42528 5.55795,-2.67993 6.26026,-2.67993 0.48435,0 0.78707,0.20615 0.78707,0.65482 v 26.64166" /><path
         style="fill:#ffffff;fill-opacity:1;fill-rule:nonzero;stroke:none;stroke-width:12.3893"
         id="path560"
         d="m 349.72023,492.15268 c 4.21387,1.83108 7.88284,4.4625 7.88284,9.5192 0,6.25721 -5.94543,9.64047 -11.60025,9.64047 -5.00094,0 -11.10379,-2.69205 -11.10379,-8.5976 0,-4.57164 3.32992,-5.55388 6.59931,-7.14244 -2.97877,-1.78257 -5.44897,-4.36549 -5.44897,-8.1853 0,-5.91767 5.30366,-8.74312 10.59522,-8.74312 5.75169,0 9.42066,3.03159 9.42066,7.15456 0,3.61366 -3.41469,5.29923 -6.34502,6.35423 z m -6.79305,4.31699 c -1.38041,1.9766 -1.68313,3.56515 -1.68313,6.00255 0,4.95969 2.08272,7.23945 5.15836,7.23945 3.07564,0 4.85564,-1.94022 4.85564,-4.65653 0,-4.71716 -4.74666,-6.8029 -8.33087,-8.58547 z m 5.41264,-5.21435 c 1.68313,-1.49154 2.4702,-2.78906 2.4702,-5.35986 0,-2.4859 -0.98081,-5.66301 -4.75877,-5.66301 -2.6155,0 -3.66897,1.84321 -3.66897,3.7713 0,3.97745 3.23306,5.66302 5.95754,7.25157" /><path
         style="fill:#ffffff;fill-opacity:1;fill-rule:nonzero;stroke:none;stroke-width:12.3893"
         id="path562"
         d="m 376.49283,492.15268 c 4.21387,1.83108 7.88285,4.4625 7.88285,9.5192 0,6.25721 -5.94544,9.64047 -11.58815,9.64047 -5.01305,0 -11.10379,-2.69205 -11.10379,-8.5976 0,-4.57164 3.31782,-5.55388 6.5872,-7.14244 -2.96666,-1.78257 -5.44897,-4.36549 -5.44897,-8.1853 0,-5.91767 5.30367,-8.74312 10.60733,-8.74312 5.75169,0 9.40856,3.03159 9.40856,7.15456 0,3.61366 -3.41469,5.29923 -6.34503,6.35423 z m -6.78094,4.31699 c -1.39251,1.9766 -1.68312,3.56515 -1.68312,6.00255 0,4.95969 2.08271,7.23945 5.14625,7.23945 3.07564,0 4.85563,-1.94022 4.85563,-4.65653 0,-4.71716 -4.75876,-6.8029 -8.31876,-8.58547 z m 5.40054,-5.21435 c 1.68312,-1.49154 2.48231,-2.78906 2.48231,-5.35986 0,-2.4859 -0.99293,-5.66301 -4.75877,-5.66301 -2.62762,0 -3.66897,1.84321 -3.66897,3.7713 0,3.97745 3.22094,5.66302 5.94543,7.25157" /><path
         style="fill:#ffffff;fill-opacity:1;fill-rule:nonzero;stroke:none;stroke-width:12.3893"
         id="path564"
         d="m 401.9819,505.94037 c 0,2.18274 1.29565,3.17711 3.32993,3.17711 0.93238,0 1.47727,0.14551 1.47727,0.75183 0,0.5942 -0.29061,0.83672 -1.23509,0.83672 -2.38544,0 -4.80721,-0.20614 -7.19265,-0.20614 -2.56707,0 -5.09781,0.20614 -7.67699,0.20614 -0.49646,0 -1.04136,-0.24252 -1.04136,-0.83672 0,-0.60632 0.5449,-0.75183 1.48939,-0.75183 2.53074,0 3.71741,-0.54569 3.71741,-2.32827 V 485.5438 c 0,-1.23689 -0.24218,-1.58856 -1.04136,-1.58856 -1.38041,0 -2.77292,1.38241 -3.66898,1.38241 -0.44802,0 -0.64176,-0.19402 -0.64176,-0.78821 0,-0.48506 0.59333,-0.94586 5.44897,-3.22562 5.20679,-2.42528 5.54584,-2.67993 6.24815,-2.67993 0.49646,0 0.78707,0.20615 0.78707,0.65482 v 26.64166" /></g><g
       style="stroke-width:1.02242"
       id="g572"><path
         style="fill:#ffffff;fill-opacity:1;fill-rule:nonzero;stroke:none;stroke-width:12.3893"
         id="path568"
         d="m 269.63248,391.97667 c 0,1.49154 -0.10898,2.34039 1.63469,2.34039 1.04136,0 3.22095,0 4.15333,-0.20615 1.39251,-0.24253 1.98584,-1.3339 2.38543,-2.63143 0.19374,-0.64269 0.5449,-1.62493 1.44095,-1.62493 0.78708,0 0.99293,0.58207 0.99293,1.2854 -0.10898,1.3824 -0.10898,2.88607 -0.20585,4.26848 0,1.38241 0.0969,2.87395 0.20585,4.26849 0,0.64269 -0.20585,1.3824 -1.05347,1.3824 -2.37333,0 -0.64177,-4.75354 -5.897,-4.75354 l -2.11904,0.097 c -1.6468,0.097 -1.53782,0.78822 -1.53782,2.13425 v 6.34209 c 0,2.93459 -0.20585,4.12297 2.91822,4.62015 0.64177,0.097 1.58626,0.25466 1.58626,1.15201 0,0.73971 -0.5449,0.93373 -1.18666,0.93373 -2.57918,0 -5.06149,-0.19402 -7.62856,-0.19402 -2.38544,0 -4.75877,0.19402 -7.14421,0.19402 -0.6902,0 -1.18666,-0.19402 -1.18666,-0.93373 0,-0.80034 0.73864,-1.055 1.34408,-1.15201 3.25727,-0.54568 3.11196,-1.39453 3.11196,-4.62015 V 387.211 c 0,-2.97096 0.20585,-4.31699 -2.96666,-4.81417 -0.64176,-0.0849 -1.58625,-0.0849 -1.58625,-0.93373 0,-0.80034 0.49646,-0.99437 1.18666,-0.99437 4.56503,0 9.21482,0.19403 13.77984,0.19403 3.17251,0 6.44189,-0.19403 9.61441,-0.19403 1.28353,0 1.63469,0.0485 1.63469,1.44304 v 4.75354 c 0,0.65483 -0.24218,1.34603 -0.99293,1.34603 -0.94448,0 -1.48938,-1.18838 -1.93741,-1.89171 -0.73864,-1.23689 -1.13823,-1.9766 -2.4702,-2.6193 -1.44095,-0.70333 -3.22094,-0.6427 -4.8072,-0.6427 -0.59333,0 -2.17959,-0.10914 -2.78503,0.29103 -0.48435,0.35167 -0.48435,1.18839 -0.48435,1.73408 v 7.09393" /><path
         style="fill:#ffffff;fill-opacity:1;fill-rule:nonzero;stroke:none;stroke-width:12.3893"
         id="path570"
         d="m 467.5875,407.07401 c -0.0969,1.63706 -0.0484,2.27976 -1.58626,3.17711 -2.78502,1.68556 -6.29658,2.27976 -9.51753,2.27976 -4.35918,0 -9.4691,-0.99437 -13.0412,-3.6743 -3.76584,-2.82544 -6.29659,-7.5426 -6.29659,-12.30827 0,-4.91118 2.48231,-9.38582 6.39346,-12.30827 3.87482,-2.82545 9.17849,-4.17148 13.93725,-4.17148 2.3249,0 5.14625,0.40017 7.42271,1.04287 1.34408,0.40017 1.34408,0.59419 1.59837,1.98873 l 0.39959,2.53441 c 0.0969,0.49718 0.19374,0.93373 0.19374,1.43091 0,0.54569 -0.39959,0.84885 -0.94449,0.84885 -2.27646,0 -2.43387,-5.90555 -9.11794,-5.90555 -3.28149,0 -6.29659,1.83109 -8.18557,4.46251 -1.9253,2.72844 -2.72448,6.35422 -2.72448,9.62834 0,3.22562 0.75075,6.8029 2.48231,9.53134 1.88897,2.93458 4.85563,4.95969 8.42774,4.95969 1.93741,0 3.71741,-0.69121 5.20679,-1.87959 1.47728,-1.24902 2.37333,-2.88608 3.26938,-4.57165 0.24218,-0.54568 0.59334,-1.04286 1.2351,-1.04286 1.0898,0 1.04136,1.13987 0.99293,1.89171 l -0.14531,2.08574" /></g><path
       d="m 103.76583,493.66847 h 157.45102 l 98.54159,107.1608 98.26309,-107.1608 h 157.45101 l -255.7141,243.7402 -255.99261,-243.7402"
       id="path574"
       style="fill:#ffffff;fill-opacity:1;fill-rule:nonzero;stroke:none;stroke-width:12.3893" /><g
       style="stroke-width:1.02242"
       id="g582"><path
         style="fill:#ffffff;fill-opacity:1;fill-rule:nonzero;stroke:none;stroke-width:12.3893"
         id="path576"
         d="m 362.5798,318.17553 c 0,0 25.51328,37.15522 8.63359,68.12599 -16.86759,30.95864 -61.86398,29.57624 -61.86398,29.57624 0,0 54.41705,18.33508 76.09184,-21.68197 20.42758,-37.68878 -22.86145,-76.02026 -22.86145,-76.02026" /><path
         style="fill:#ffffff;fill-opacity:1;fill-rule:nonzero;stroke:none;stroke-width:12.3893"
         id="path578"
         d="m 360.17014,319.16989 c 0,0 -25.51329,37.15523 -8.63359,68.11387 16.86759,30.97077 61.86397,29.58836 61.86397,29.58836 0,0 -54.41704,18.32296 -76.09184,-21.68196 -20.42758,-37.68879 22.86146,-76.02027 22.86146,-76.02027" /><path
         style="fill:#ffffff;fill-opacity:1;fill-rule:nonzero;stroke:none;stroke-width:12.3893"
         id="path580"
         d="m 416.65779,411.73054 c 0,0 -20.12486,-40.33234 -55.34942,-40.52636 -35.22456,-0.19402 -55.79745,39.90791 -55.79745,39.90791 0,0 10.31671,-56.55743 55.77323,-56.20576 42.8168,0.32741 55.37364,56.82421 55.37364,56.82421" /></g><g
       style="stroke-width:1.02242"
       id="g622"><path
         style="fill:#ffffff;fill-opacity:1;fill-rule:nonzero;stroke:none;stroke-width:12.3893"
         id="path584"
         d="m 207.35681,191.0062 c 0,3.09223 1.6468,3.62579 3.30571,3.92895 1.64679,0.30316 3.40257,0.61845 3.40257,2.47378 0,1.13988 -1.02925,1.44304 -2.78503,1.44304 -2.16747,0 -5.3642,-0.4123 -11.85453,-0.4123 -6.50244,0 -9.68706,0.4123 -11.85454,0.4123 -1.75578,0 -2.78503,-0.30316 -2.78503,-1.44304 0,-1.85533 1.75578,-2.17062 3.81428,-2.47378 2.26435,-0.30316 2.8819,-1.86746 2.8819,-6.60888 v -46.25 c 0,-2.36465 0,-3.91682 -1.85265,-4.94756 -1.75578,-0.83672 -4.22598,-0.83672 -4.22598,-2.17063 0,-1.44303 1.2351,-1.55217 3.09986,-1.55217 1.2351,0 4.41972,0.4123 10.92216,0.4123 6.49033,0 9.68706,-0.4123 11.85453,-0.4123 1.75578,0 2.78503,0.4123 2.78503,1.44304 0,1.23689 -2.37333,1.86746 -4.02012,2.47378 -2.26435,0.93373 -2.68816,2.27976 -2.68816,5.16584 v 48.51763" /><path
         style="fill:#ffffff;fill-opacity:1;fill-rule:nonzero;stroke:none;stroke-width:12.3893"
         id="path586"
         d="m 308.80452,200.10099 c -18.34487,0 -28.75845,-18.38359 -28.75845,-33.96599 0,-17.656 10.00188,-33.96598 28.75845,-33.96598 18.34486,0 28.75845,18.37146 28.75845,33.96598 0,17.64388 -10.00189,33.96599 -28.75845,33.96599 z m -1.13823,-64.6336 c -6.79305,0 -10.30461,12.9146 -10.30461,23.64644 0,19.92364 4.74666,37.67666 13.19862,37.67666 6.1755,0 9.68705,-10.1134 9.68705,-25.6958 0,-16.52825 -4.33495,-35.6273 -12.58106,-35.6273" /><path
         style="fill:#ffffff;fill-opacity:1;fill-rule:nonzero;stroke:none;stroke-width:12.3893"
         id="path588"
         d="m 386.30098,145.18062 c 0,-4.13509 -0.60544,-7.85789 -3.80217,-8.27019 -1.6468,-0.19402 -3.81428,-0.71545 -3.81428,-2.06148 0,-0.92161 0.61755,-1.44304 1.74367,-1.44304 1.96163,0 3.60843,0.4123 7.32584,0.4123 2.26435,0 4.73455,-0.4123 7.31373,-0.4123 1.2351,0 1.96162,0.52143 1.96162,1.55217 0,1.2369 -1.75577,1.64919 -3.40257,1.95235 -2.4702,0.52144 -3.40258,1.96447 -3.40258,5.48112 v 56.36341 c 0,1.03074 -0.8234,1.34603 -2.99088,1.34603 -1.2351,0 -2.0585,-0.31529 -2.8819,-1.55218 l -32.36688,-51.3067 h -0.31483 v 40.25957 c 0,6.49974 1.96163,7.53048 4.02013,7.84577 2.0706,0.31528 4.1291,0.10913 4.1291,1.96447 0,0.81247 -0.8355,1.54005 -2.0585,1.54005 -2.894,0 -5.06148,-0.4123 -7.4227,-0.4123 -2.48231,0 -5.15836,0.4123 -6.91414,0.4123 -1.54993,0 -2.26435,-0.30316 -2.26435,-1.54005 0,-3.61366 6.59931,0 6.59931,-6.51186 v -49.34224 c 0,-7.02117 -6.39346,-3.29837 -6.39346,-6.19658 0,-1.13988 1.02925,-1.85533 2.78503,-1.85533 2.36122,0 4.84353,0.4123 7.31373,0.4123 2.4702,0 4.95251,-0.4123 7.42271,-0.4123 2.05849,0 3.3057,0.31528 4.22597,1.7462 l 22.98255,37.27648 h 0.20585 v -27.24797" /><path
         style="fill:#ffffff;fill-opacity:1;fill-rule:nonzero;stroke:none;stroke-width:12.3893"
         id="path590"
         d="m 409.31985,142.5977 c 0,-5.99043 -6.9989,-1.55217 -6.9989,-4.6444 0,-2.26763 6.90203,-5.78428 24.21764,-5.78428 21.74745,0 34.32851,11.76258 34.32851,33.44455 0,20.44507 -11.5397,33.2384 -28.66158,33.2384 -7.21686,0 -11.9514,-0.4123 -16.28636,-0.4123 -5.25523,0 -8.45196,0.4123 -10.60733,0.4123 -1.75578,0 -2.78503,-0.30316 -2.78503,-1.44304 0,-1.85533 1.74367,-2.17062 3.39047,-2.47378 1.65891,-0.30316 3.40258,-0.83672 3.40258,-3.92895 z m 15.87466,46.86845 c 0,2.88608 2.48231,5.469 5.36421,5.469 7.01101,0 12.98066,-6.19658 12.98066,-29.73388 0,-19.60835 -5.14625,-29.11543 -13.70719,-29.11543 -3.08775,0 -4.63768,1.55217 -4.63768,4.65653 v 48.72378" /><path
         style="fill:#ffffff;fill-opacity:1;fill-rule:nonzero;stroke:none;stroke-width:12.3893"
         id="path592"
         d="m 489.20175,191.0062 c 0,3.09223 1.6468,3.62579 3.2936,3.92895 1.6468,0.30316 3.40258,0.61845 3.40258,2.47378 0,1.13988 -1.02925,1.44304 -2.78503,1.44304 -2.16748,0 -5.3521,-0.4123 -11.85454,-0.4123 -6.49033,0 -9.68706,0.4123 -11.85454,0.4123 -1.74367,0 -2.77292,-0.30316 -2.77292,-1.44304 0,-1.85533 1.74367,-2.17062 3.81428,-2.47378 2.26435,-0.30316 2.8819,-1.86746 2.8819,-6.60888 v -46.25 c 0,-2.36465 0,-3.91682 -1.85265,-4.94756 -1.75578,-0.83672 -4.23809,-0.83672 -4.23809,-2.17063 0,-1.44303 1.24721,-1.55217 3.09986,-1.55217 1.2351,0 4.43183,0.4123 10.92216,0.4123 6.50244,0 9.68706,-0.4123 11.85454,-0.4123 1.75578,0 2.78503,0.4123 2.78503,1.44304 0,1.23689 -2.37333,1.86746 -4.00802,2.47378 -2.27646,0.93373 -2.68816,2.27976 -2.68816,5.16584 v 48.51763" /><path
         style="fill:#ffffff;fill-opacity:1;fill-rule:nonzero;stroke:none;stroke-width:12.3893"
         id="path594"
         d="m 544.33321,145.18062 c 0,-4.13509 -0.62965,-7.85789 -3.81427,-8.27019 -1.65891,-0.19402 -3.82639,-0.71545 -3.82639,-2.06148 0,-0.92161 0.62966,-1.44304 1.76789,-1.44304 1.94952,0 3.59632,0.4123 7.31372,0.4123 2.26435,0 4.73455,-0.4123 7.31373,-0.4123 1.2351,0 1.96163,0.52143 1.96163,1.55217 0,1.2369 -1.75578,1.64919 -3.40258,1.95235 -2.4702,0.52144 -3.40258,1.96447 -3.40258,5.48112 v 56.36341 c 0,1.03074 -0.8234,1.34603 -2.99088,1.34603 -1.2351,0 -2.0585,-0.31529 -2.8819,-1.55218 l -32.36688,-51.3067 h -0.31483 v 40.25957 c 0,6.49974 1.96163,7.53048 4.02013,7.84577 2.0585,0.31528 4.12911,0.10913 4.12911,1.96447 0,0.81247 -0.8234,1.54005 -2.07061,1.54005 -2.8819,0 -5.04938,-0.4123 -7.4106,-0.4123 -2.4823,0 -5.15835,0.4123 -6.91413,0.4123 -1.53782,0 -2.26435,-0.30316 -2.26435,-1.54005 0,-3.61366 6.5993,0 6.5993,-6.51186 v -49.34224 c 0,-7.02117 -6.39345,-3.29837 -6.39345,-6.19658 0,-1.13988 1.02925,-1.85533 2.78503,-1.85533 2.36122,0 4.84352,0.4123 7.31372,0.4123 2.48231,0 4.95251,-0.4123 7.42271,-0.4123 2.0585,0 3.30571,0.31528 4.22598,1.7462 l 22.98255,37.27648 h 0.21795 v -27.24797" /><path
         style="fill:#ffffff;fill-opacity:1;fill-rule:nonzero;stroke:none;stroke-width:12.3893"
         id="path596"
         d="m 581.02294,132.16902 c 4.02013,0 9.57808,1.03074 12.78692,2.37677 1.44095,0.60632 2.56707,0.9216 2.56707,2.77694 0,3.41964 0,6.82715 -0.0969,10.22254 0,3.20136 -0.10898,4.54739 -2.4702,4.54739 -4.33496,0 -4.85564,-16.62527 -14.22787,-16.62527 -4.85563,0 -7.21685,3.3105 -7.21685,7.63962 0,13.8362 26.69995,15.89768 26.69995,35.51816 0,12.90247 -11.14012,21.47582 -23.92703,21.47582 -2.8819,0 -17.10977,-0.10914 -17.10977,-5.57814 0,-5.89342 0.20585,-8.77949 0.31483,-10.95012 0.30272,-5.35985 0.8234,-7.11818 3.40258,-7.11818 5.25523,0 2.57918,20.33594 14.11889,20.33594 6.28448,0 10.00188,-4.53527 10.00188,-10.1134 0,-14.45465 -26.69995,-18.4806 -26.69995,-35.93046 0,-12.07787 11.64869,-18.57761 21.85642,-18.57761" /><path
         style="fill:#ffffff;fill-opacity:1;fill-rule:nonzero;stroke:none;stroke-width:12.3893"
         id="path598"
         d="m 129.13382,238.73563 c 0,-2.41315 -0.61755,-2.95884 -2.85769,-2.95884 -1.06557,0 -2.04639,0.1819 -2.76081,0.1819 -1.16244,0 -1.34408,-0.27891 -1.34408,-1.16414 0,-1.87958 13.04121,-3.67429 20.19752,-3.67429 16.6133,0 26.97845,11.09564 26.97845,29.07906 0,12.62356 -6.97468,28.72739 -23.93914,28.72739 -3.8506,0 -7.32583,-0.3638 -10.72841,-0.3638 -7.24108,0 -9.7476,0.3638 -11.61236,0.3638 -0.5449,0 -0.89606,-0.53356 -0.89606,-1.16414 0,-0.98223 0.44803,-1.16413 3.12408,-1.34602 2.85768,-0.0849 3.8385,-1.61281 3.8385,-6.43911 z m 8.75467,40.52635 c 0,5.10521 2.42177,7.15457 7.07156,7.15457 9.2027,0 14.73643,-11.09564 14.73643,-25.0531 0,-16.4555 -6.42978,-27.73303 -16.26214,-27.73303 -3.40258,0 -5.54585,1.24902 -5.54585,5.35986 v 40.2717" /><path
         style="fill:#ffffff;fill-opacity:1;fill-rule:nonzero;stroke:none;stroke-width:12.3893"
         id="path600"
         d="m 178.8042,238.00805 c 0,-2.23126 -0.61755,-2.8497 -3.3057,-3.31051 -1.69524,-0.25465 -2.50653,-0.16977 -2.50653,-1.3339 0,-0.98223 0.72653,-1.16413 2.6034,-1.16413 0.79918,0 2.85768,0.35166 14.20364,0.35166 9.38434,0 13.5861,-0.35166 16.17739,-0.35166 1.59837,0 2.04639,0.35166 2.04639,1.69769 v 11.36242 c 0,1.16413 -0.35115,1.61281 -0.98081,1.61281 -1.42884,0 -0.89606,-0.44868 -2.95456,-5.0082 -2.40965,-5.37198 -4.90407,-7.16669 -11.79399,-7.16669 -4.28652,0 -4.73455,0.3638 -4.73455,2.42528 v 18.16531 c 0,1.24902 0.18164,1.60069 2.42177,1.60069 7.4106,0 7.76175,-0.0849 9.38433,-3.39539 1.41674,-2.94671 1.33197,-4.11084 2.49442,-4.11084 0.79918,0 1.06558,0.44867 1.06558,1.60068 0,1.87959 -0.35116,4.92331 -0.35116,7.70025 0,3.39539 0.35116,5.72365 0.35116,7.51835 0,1.61281 -0.16953,2.49804 -1.24721,2.49804 -1.33197,0 -1.33197,-1.78258 -2.31279,-4.91119 -1.25931,-4.12296 -1.62258,-4.38974 -7.87073,-4.38974 -3.5721,0 -3.93537,0.0849 -3.93537,1.6128 v 17.08607 c 0,6.43911 1.07769,8.3187 7.15632,8.3187 5.88488,0 8.75467,-2.49804 11.06746,-8.76738 1.79211,-4.74141 1.70734,-5.09307 2.6034,-5.09307 0.79918,0 0.9687,0.26678 0.9687,2.04935 v 12.72057 c 0,1.23689 -0.35115,1.60069 -2.14326,1.60069 -2.40965,0 -6.69618,-0.3638 -15.80201,-0.3638 -10.09876,0 -12.69005,0.3638 -16.98868,0.3638 -1.59836,0 -1.86476,-0.44868 -1.86476,-1.07925 0,-0.98224 0.2664,-1.24902 1.5136,-1.43091 3.85061,-0.61845 4.73455,-1.43092 4.73455,-4.11085 v -44.29765" /><path
         style="fill:#ffffff;fill-opacity:1;fill-rule:nonzero;stroke:none;stroke-width:12.3893"
         id="path602"
         d="m 245.16055,236.58926 c 0,-1.16413 -0.53279,-1.89172 -2.0585,-1.89172 h -2.76081 c -0.62966,0 -1.07769,-0.25465 -1.07769,-0.98223 0,-0.88523 0.89606,-1.3339 2.14326,-1.5158 7.32584,-0.89735 11.97563,-1.07925 17.50936,-1.07925 11.97563,0 18.76867,4.12297 18.76867,12.97523 0,7.25157 -4.46815,10.56207 -11.16433,12.79333 v 0.18189 c 8.30665,0.98224 14.5548,6.8029 14.5548,15.21861 0,8.40358 -6.34502,16.63739 -15.54772,16.63739 -3.92326,0 -7.32584,-0.3638 -13.3076,-0.3638 -5.27944,0 -8.75468,0.3638 -10.99481,0.3638 -1.5136,0 -1.96163,-0.3638 -1.96163,-0.98224 0,-0.80034 0.44803,-0.80034 2.3249,-1.43091 2.95455,-0.98224 3.5721,-1.26115 3.5721,-3.6743 z m 8.75468,16.00682 c 0,3.04372 0.89605,3.40751 3.48734,3.40751 6.16339,0 11.34596,-3.04372 11.34596,-11.99299 0,-6.53612 -3.75373,-10.38018 -10.00188,-10.38018 -4.117,0 -4.83142,1.34603 -4.83142,3.6743 z m 0,27.19946 c 0,4.30487 1.97374,6.62101 7.15631,6.62101 4.73455,0 10.35304,-3.57729 10.35304,-14.49103 0,-7.43347 -3.83849,-13.41177 -12.67793,-13.41177 -4.117,0 -4.83142,0.52143 -4.83142,2.49803 v 18.78376" /><path
         style="fill:#ffffff;fill-opacity:1;fill-rule:nonzero;stroke:none;stroke-width:12.3893"
         id="path604"
         d="m 307.70261,289.99383 c -13.75562,0 -22.34077,-15.20648 -22.34077,-29.43072 0,-14.22424 8.58515,-29.44285 22.34077,-29.44285 13.75563,0 22.34078,15.21861 22.34078,29.44285 0,14.22424 -8.58515,29.43072 -22.34078,29.43072 z m 0,-56.36341 c -8.85154,0 -12.69004,15.92194 -12.69004,26.93269 0,11.01075 3.8385,26.93268 12.69004,26.93268 8.85155,0 12.69005,-15.92193 12.69005,-26.93268 0,-11.01075 -3.8385,-26.93269 -12.69005,-26.93269" /><path
         style="fill:#ffffff;fill-opacity:1;fill-rule:nonzero;stroke:none;stroke-width:12.3893"
         id="path606"
         d="m 349.15111,281.32347 c 0,2.59504 0.71442,4.37762 3.47523,4.92331 3.40258,0.61844 3.76585,1.07924 3.76585,1.69769 0,0.61844 -0.2664,0.98224 -1.16245,0.98224 -1.97374,0 -5.26734,-0.3638 -9.56597,-0.3638 -5.00094,0 -7.4106,0.3638 -9.65073,0.3638 -0.89605,0 -1.33197,-0.3638 -1.33197,-1.16414 0,-0.61844 0.35116,-1.16413 1.86476,-1.34602 2.86979,-0.25466 3.8506,-1.96448 3.8506,-3.75918 v -43.83686 c 0,-2.95883 -0.62965,-3.94107 -3.22094,-4.12297 -2.0585,-0.16977 -2.49442,-0.53356 -2.49442,-1.16413 0,-0.88522 0.61755,-1.3339 1.59836,-1.3339 2.50653,0 5.09782,0.35166 8.93632,0.35166 4.74665,0 7.95549,-0.35166 13.13807,-0.35166 9.73549,0 15.63249,6.26934 15.63249,14.67292 0,7.96703 -6.51455,12.34465 -13.75563,13.32689 v 0.18189 c 2.67605,0.44868 3.75374,1.6977 5.08571,4.38975 7.32584,14.7578 8.22189,19.94789 10.81318,21.64559 1.7921,1.16413 3.22094,0.36379 3.22094,1.69769 0,0.44867 -0.26639,0.81247 -1.07768,0.81247 -2.04639,0 -4.10489,-0.3638 -6.16339,-0.3638 -2.22802,0 -2.94244,0.3638 -4.73455,0.3638 -0.61755,0 -1.07769,-0.44868 -1.61047,-1.6977 l -10.98271,-23.98597 c -0.53278,-1.16413 -1.16244,-1.87959 -2.85768,-1.87959 -1.96163,0 -2.77292,0.4608 -2.77292,2.14637 z m 0,-24.60442 c 0,1.7947 0.2664,2.14637 2.85768,2.14637 8.04026,0 12.32679,-3.31051 12.32679,-12.17489 0,-6.43911 -4.28653,-11.99299 -9.65074,-11.99299 -4.46815,0 -5.6306,1.16414 -5.53373,4.75354 v 17.26797" /><path
         style="fill:#ffffff;fill-opacity:1;fill-rule:nonzero;stroke:none;stroke-width:12.3893"
         id="path608"
         d="m 387.60873,238.73563 c 0,-2.41315 -0.62966,-2.95884 -2.85768,-2.95884 -1.07769,0 -2.0585,0.1819 -2.77292,0.1819 -1.16245,0 -1.33197,-0.27891 -1.33197,-1.16414 0,-1.87958 13.0412,-3.67429 20.1854,-3.67429 16.61331,0 26.97846,11.09564 26.97846,29.07906 0,12.62356 -6.96257,28.72739 -23.93914,28.72739 -3.85061,0 -7.32584,-0.3638 -10.71631,-0.3638 -7.24107,0 -9.7476,0.3638 -11.62447,0.3638 -0.53279,0 -0.88394,-0.53356 -0.88394,-1.16414 0,-0.98223 0.43592,-1.16413 3.12407,-1.34602 2.85769,-0.0849 3.8385,-1.61281 3.8385,-6.43911 z m 8.75468,40.52635 c 0,5.10521 2.40965,7.15457 7.05944,7.15457 9.20271,0 14.74855,-11.09564 14.74855,-25.0531 0,-16.4555 -6.4419,-27.73303 -16.27426,-27.73303 -3.39047,0 -5.53373,1.24902 -5.53373,5.35986 v 40.2717" /><path
         style="fill:#ffffff;fill-opacity:1;fill-rule:nonzero;stroke:none;stroke-width:12.3893"
         id="path610"
         d="m 437.27912,238.00805 c 0,-2.23126 -0.62966,-2.8497 -3.30571,-3.31051 -1.70734,-0.25465 -2.50653,-0.16977 -2.50653,-1.3339 0,-0.98223 0.71442,-1.16413 2.59129,-1.16413 0.81129,0 2.85768,0.35166 14.20365,0.35166 9.38434,0 13.5861,-0.35166 16.17739,-0.35166 1.59836,0 2.04639,0.35166 2.04639,1.69769 v 11.36242 c 0,1.16413 -0.35116,1.61281 -0.98082,1.61281 -1.42884,0 -0.89605,-0.44868 -2.94244,-5.0082 -2.40966,-5.37198 -4.91618,-7.16669 -11.79399,-7.16669 -4.28653,0 -4.73455,0.3638 -4.73455,2.42528 v 18.16531 c 0,1.24902 0.16952,1.60069 2.40965,1.60069 7.4106,0 7.77387,-0.0849 9.38434,-3.39539 1.42884,-2.94671 1.33197,-4.11084 2.49442,-4.11084 0.81129,0 1.07768,0.44867 1.07768,1.60068 0,1.87959 -0.36326,4.92331 -0.36326,7.70025 0,3.39539 0.36326,5.72365 0.36326,7.51835 0,1.61281 -0.18163,2.49804 -1.24721,2.49804 -1.34408,0 -1.34408,-1.78258 -2.32489,-4.91119 -1.25932,-4.12296 -1.61047,-4.38974 -7.85863,-4.38974 -3.58421,0 -3.93536,0.0849 -3.93536,1.6128 v 17.08607 c 0,6.43911 1.06557,8.3187 7.1442,8.3187 5.897,0 8.75468,-2.49804 11.07957,-8.76738 1.78,-4.74141 1.69524,-5.09307 2.59129,-5.09307 0.79918,0 0.98082,0.26678 0.98082,2.04935 v 12.72057 c 0,1.23689 -0.36327,1.60069 -2.14326,1.60069 -2.40966,0 -6.69618,-0.3638 -15.81413,-0.3638 -10.09875,0 -12.67793,0.3638 -16.97656,0.3638 -1.61048,0 -1.87687,-0.44868 -1.87687,-1.07925 0,-0.98224 0.26639,-1.24902 1.5136,-1.43091 3.85061,-0.61845 4.74666,-1.43092 4.74666,-4.11085 v -44.29765" /><path
         style="fill:#ffffff;fill-opacity:1;fill-rule:nonzero;stroke:none;stroke-width:12.3893"
         id="path612"
         d="m 484.7457,268.69991 c -1.34408,0 -1.34408,0.54568 -2.59129,5.73577 -1.7921,7.50623 -2.24013,8.67036 -2.24013,9.30094 0,1.16413 0.71442,2.06148 2.68816,2.67993 1.69523,0.54568 4.20176,0.18189 4.20176,1.34602 0,0.54569 -0.2785,1.16414 -1.61047,1.16414 -0.81129,0 -4.29863,-0.3638 -6.4419,-0.3638 -4.28652,0 -5.80012,0.3638 -6.69617,0.3638 -0.62966,0 -0.89606,-0.26678 -0.89606,-0.89736 0,-1.34602 1.16245,-0.80034 3.05143,-1.6128 2.04639,-0.88523 2.94244,-5.09308 10.17141,-28.98205 7.87073,-25.95045 7.24107,-26.31424 8.85155,-26.31424 1.87686,0 1.15033,1.07925 12.14514,36.87632 4.46816,14.49102 5.00095,17.80152 6.79305,18.41997 2.0585,0.72758 3.12408,0.44867 3.12408,1.52792 0,0.61844 -0.2664,0.98224 -1.86476,0.98224 -1.44095,0 -4.28652,-0.3638 -7.60434,-0.3638 -4.81931,0 -8.04026,0.3638 -9.02107,0.3638 -0.98082,0 -1.16245,-0.44868 -1.16245,-1.07925 0,-0.80034 0.89605,-0.70333 3.93537,-1.43091 1.16244,-0.25466 1.5136,-1.33391 1.5136,-2.04936 0,-0.81247 -0.43592,-1.9766 -2.22802,-8.41571 -1.79211,-6.52399 -1.79211,-7.25157 -2.95456,-7.25157 z m 10.44991,-2.49804 c 0.62966,0 0.79919,0 0.79919,-0.26678 0,-0.63057 -0.53279,-2.24338 -3.92326,-14.05447 -1.34408,-4.6444 -1.34408,-5.00819 -1.69524,-5.00819 -0.44802,0 -0.44802,0.53356 -3.39047,11.09563 -1.87686,6.9848 -2.24013,7.70025 -2.24013,7.96703 0,0.1819 0.16952,0.26678 0.98082,0.26678 h 9.46909" /><path
         style="fill:#ffffff;fill-opacity:1;fill-rule:nonzero;stroke:none;stroke-width:12.3893"
         id="path614"
         d="m 549.50368,273.35644 v -31.6741 c 0,-6.00256 -1.24721,-6.70589 -3.5721,-6.9848 -2.50653,-0.25465 -2.77292,-0.53356 -2.77292,-1.3339 0,-0.63057 0.36326,-1.16413 1.88897,-1.16413 0.96871,0 2.39755,0.35166 5.6185,0.35166 3.66897,0 4.55292,-0.35166 5.89699,-0.35166 0.89606,0 1.78,0.44868 1.78,1.16413 0,0.88523 -0.52068,1.16413 -2.84557,1.3339 -2.0585,0.1819 -3.48734,1.44304 -3.48734,4.48676 v 33.1899 c 0,12.34465 -5.99387,17.61963 -15.54773,17.61963 -9.29958,0 -17.69099,-2.41315 -17.69099,-13.145 v -38.56188 c 0,-2.24338 -0.36326,-3.40751 -1.61047,-3.58941 -3.12408,-0.44867 -3.39047,-0.80034 -3.39047,-1.51579 0,-0.53356 0.44802,-0.98224 1.24721,-0.98224 1.69523,0 3.48734,0.35166 8.30665,0.35166 5.6306,0 8.66991,-0.35166 9.29957,-0.35166 1.06558,0 1.51361,0.44868 1.51361,0.98224 0,0.89735 -0.53279,0.98223 -3.30571,1.51579 -2.24013,0.3638 -3.30571,1.26115 -3.30571,4.12297 v 35.96684 c 0,8.05191 4.02013,12.17488 11.17644,12.17488 5.88489,0 10.80107,-4.30486 10.80107,-13.60579" /><path
         style="fill:#ffffff;fill-opacity:1;fill-rule:nonzero;stroke:none;stroke-width:12.3893"
         id="path616"
         d="m 562.99291,238.82051 c -1.5136,-2.86182 -1.69524,-3.75917 -3.47523,-4.12297 -1.61048,-0.35166 -2.42177,-0.35166 -2.42177,-1.3339 0,-0.71545 0.44803,-1.16413 1.34408,-1.16413 1.61048,0 3.75374,0.35166 7.77387,0.35166 5.98175,0 7.76175,-0.35166 9.11794,-0.35166 0.70231,0 1.24721,0.35166 1.24721,0.89735 0,0.89735 -0.36327,1.34603 -3.12408,1.60068 -0.99292,0.097 -1.87687,0.63058 -1.87687,1.62494 0,1.24902 0.71442,2.41315 7.677,16.37061 6.26026,-12.70845 7.59223,-14.32125 7.59223,-15.84918 0,-1.41878 -1.33197,-2.14637 -3.75374,-2.14637 -0.79918,0 -1.77999,-0.25465 -1.77999,-1.16413 0,-1.152 0.98081,-1.3339 1.87686,-1.3339 0.89606,0 2.94245,0.35166 7.14421,0.35166 2.85768,0 4.38339,-0.35166 5.71536,-0.35166 1.34408,0 1.79211,0.35166 1.79211,1.16413 0,0.71546 -0.18163,1.24902 -1.34408,1.3339 -3.8385,0.27891 -5.53373,1.79471 -7.04734,4.75354 l -8.66991,16.55251 7.22897,14.7578 c 6.87781,14.04235 7.1442,14.67292 9.2027,15.65516 1.25932,0.63057 1.97374,0.81246 1.97374,1.43091 0,0.63057 -0.18163,1.07925 -1.42884,1.07925 -1.62259,0 -4.56503,-0.3638 -6.79305,-0.3638 -6.79305,0 -8.31876,0.3638 -9.11795,0.3638 -1.06557,0 -1.42884,-0.3638 -1.42884,-0.98224 0,-1.07925 1.34408,-1.07925 2.67605,-1.52792 1.42884,-0.44868 2.3249,-1.06713 2.3249,-2.04936 0,-0.89735 -1.16245,-2.95884 -6.51455,-14.32125 -2.0585,-4.47464 -2.50653,-5.09308 -2.68816,-5.09308 -0.44802,0 -0.79918,1.16413 -4.38339,7.78513 -3.65687,6.79077 -4.45605,9.03415 -4.45605,10.46507 0,1.60068 0.98082,2.67993 3.5721,3.21349 1.69524,0.36379 2.40966,0.54568 2.40966,1.34602 0,0.89736 -0.53279,1.16414 -1.16245,1.16414 -1.34408,0 -2.85768,-0.3638 -7.22896,-0.3638 -4.64979,0 -6.26026,0.3638 -7.24108,0.3638 -1.52571,0 -1.7921,-0.26678 -1.7921,-1.16414 0,-1.16413 0.62965,-1.16413 2.32489,-1.51579 2.94244,-0.71546 3.12408,-0.99437 6.16339,-6.35423 l 10.28039,-18.16531 -11.70923,-22.90673" /><path
         style="fill:#ffffff;fill-opacity:1;fill-rule:nonzero;stroke:none;stroke-width:12.3893"
         id="path618"
         d="m 229.55228,141.39719 c 0,-3.11648 -1.65891,-4.25636 -3.32993,-4.57164 -1.54993,-0.31529 -3.31782,-0.61845 -3.31782,-1.86747 0,-1.152 0.93238,-1.45516 2.70027,-1.45516 2.17959,0 5.40054,0.4123 11.9393,0.4123 4.2502,0 10.47413,-0.4123 17.10977,-0.4123 11.21276,0 19.50731,5.40836 19.50731,16.30998 0,16.3221 -18.46596,14.86694 -18.46596,16.00682 0,0.52143 0.83551,0.61844 1.97374,0.61844 5.29156,0 7.88285,0.94586 9.85658,5.9298 l 7.2653,18.28658 c 3.00298,7.48197 6.84148,4.15935 6.84148,7.16669 0,1.152 -0.93238,1.5643 -1.86476,1.5643 h -14.0099 c -4.45605,0 -4.77088,-0.4123 -6.42979,-4.88693 l -7.36216,-20.05703 c -1.35619,-3.73492 -2.49442,-6.02681 -5.50952,-6.02681 -0.72653,0 -0.93238,0.42442 -0.93238,0.83672 v 19.42646 c 0,3.22562 0.10898,5.72365 2.6034,6.75439 1.96163,0.83672 3.72952,0.52144 3.72952,2.49804 0,1.13988 -1.04136,1.45516 -2.79714,1.45516 -1.76789,0 -4.98884,-0.4123 -11.51549,-0.4123 -6.53876,0 -9.75971,0.4123 -11.9393,0.4123 -1.34408,0 -2.28857,-0.31528 -2.28857,-1.45516 0,-1.86747 1.24721,-2.18275 2.90612,-2.49804 1.67102,-0.31528 3.32993,-0.82459 3.32993,-3.94107 z m 15.97153,22.55506 c 0,0.30316 0.52068,0.52144 0.93238,0.52144 7.2653,0 11.73345,-5.82066 11.73345,-14.04235 0,-7.2637 -3.8385,-13.60579 -9.44488,-13.60579 -2.07061,0 -3.22095,0.83672 -3.22095,4.77779 v 22.34891" /><path
         style="fill:#ffffff;fill-opacity:1;fill-rule:nonzero;stroke:none;stroke-width:12.3893"
         id="path620"
         d="m 174.16653,191.44275 c 0,3.58941 -11.04325,8.43996 -20.51235,8.43996 -17.25507,0 -29.2428,-15.59452 -29.2428,-32.87461 0,-22.11851 13.46501,-36.43976 31.24076,-36.43976 4.31074,0 8.63359,0.83672 12.20569,1.89171 2.10693,0.73971 3.68108,1.37028 3.88693,3.68642 0.21796,3.15286 0.31483,7.2637 0.31483,12.74482 0,2.10999 -0.94449,2.94671 -2.09483,2.94671 -6.10284,0 -4.9525,-17.91066 -15.36609,-17.91066 -5.57006,0 -12.52052,8.42784 -12.52052,30.55848 0,20.43294 5.15836,32.01363 12.73848,32.01363 2.40965,0 3.77795,-2.72843 3.77795,-7.2637 v -15.27923 c 0,-5.68727 -6.41768,-2.52229 -6.41768,-5.26285 0,-1.46729 0.84762,-1.89172 2.7366,-1.89172 3.58421,0 8.20978,0.42443 11.99984,0.42443 3.14829,0 7.45904,-0.42443 10.30461,-0.42443 1.88897,0 2.31278,0.52144 2.31278,1.57643 0,2.52229 -5.3642,0.31529 -5.3642,6.42698 v 16.63739" /></g></g></svg>
