<?xml version="1.0" encoding="UTF-8" standalone="no"?>
<!-- Generator: Adobe Illustrator 13.0.2, SVG Export Plug-In . SVG Version: 6.00 Build 14948)  -->

<svg
   xmlns:dc="http://purl.org/dc/elements/1.1/"
   xmlns:cc="http://creativecommons.org/ns#"
   xmlns:rdf="http://www.w3.org/1999/02/22-rdf-syntax-ns#"
   xmlns:svg="http://www.w3.org/2000/svg"
   xmlns="http://www.w3.org/2000/svg"
   xmlns:sodipodi="http://sodipodi.sourceforge.net/DTD/sodipodi-0.dtd"
   xmlns:inkscape="http://www.inkscape.org/namespaces/inkscape"
   version="1.0"
   id="Ebene_1"
   x="0px"
   y="0px"
   width="505.14001"
   height="679.42999"
   viewBox="0 0 505.14 679.43002"
   enable-background="new 0 0 423.648 566.928"
   xml:space="preserve"
   inkscape:version="0.48.2 r9819"
   sodipodi:docname="Union Sportive Boulogne Côte d'Opale.svg"><metadata
   id="metadata95"><rdf:RDF><cc:Work
       rdf:about=""><dc:format>image/svg+xml</dc:format><dc:type
         rdf:resource="http://purl.org/dc/dcmitype/StillImage" /></cc:Work></rdf:RDF></metadata><defs
   id="defs93" /><sodipodi:namedview
   pagecolor="#ffffff"
   bordercolor="#666666"
   borderopacity="1"
   objecttolerance="10"
   gridtolerance="10"
   guidetolerance="10"
   inkscape:pageopacity="0"
   inkscape:pageshadow="2"
   inkscape:window-width="1366"
   inkscape:window-height="706"
   id="namedview91"
   showgrid="false"
   inkscape:zoom="9.2300265"
   inkscape:cx="211.82401"
   inkscape:cy="196.49304"
   inkscape:window-x="-8"
   inkscape:window-y="-8"
   inkscape:window-maximized="1"
   inkscape:current-layer="Ebene_1" />











































<path
   inkscape:connector-curvature="0"
   d="M 0.99998721,1.0027122 V 596.12578 C 16.082893,624.15019 62.262656,636.99859 90.752589,642.95727 c 14.058761,2.97934 28.117521,5.67936 41.152131,7.72766 27.46578,4.1897 57.63159,1.95519 84.16634,7.63456 14.05876,3.07244 26.34853,10.14837 36.49691,20.11054 l 0,0 V 1.0027122 H 0.99998721 z"
   id="path7"
   style="fill:#e2001a;fill-opacity:1" /><path
   style="fill:#000000"
   inkscape:connector-curvature="0"
   d="M 504.13594,1.0027122 V 596.12578 c -15.0829,28.02441 -61.26266,40.87281 -89.7526,46.83149 -14.05876,2.97934 -28.11751,5.67936 -41.15212,7.72766 -27.46579,4.1897 -57.6316,1.95519 -84.16635,7.63456 -14.05875,3.07244 -26.34853,10.14837 -36.4969,20.11054 l 0,0 V 1.0027122 h 251.56797 z"
   id="path9" /><path
   sodipodi:nodetypes="csssssssssssscsssscsscsssssssscsssssssscssssssssssccc"
   style="fill:#ffffff;fill-opacity:1"
   d="m 376.73875,250.15492 c 0.64297,-6.65575 0.44088,-6.85921 -4.82444,-4.85732 -3.02252,1.14915 -8.13444,3.42877 -11.35981,5.06582 -3.22534,1.63702 -10.37318,3.63218 -15.88407,4.43369 -8.4759,1.23274 -10.34693,0.84604 -12.1429,-2.50978 -2.76263,-5.16203 -0.65131,-7.86096 6.82847,-8.72887 3.3238,-0.38571 11.01967,-3.01893 17.10199,-5.85165 6.0823,-2.83271 14.18517,-5.74719 18.00641,-6.47661 3.8664,-0.73804 6.94768,-2.64286 6.94768,-4.29495 0,-4.66501 -4.686,-3.59108 -23.84438,5.46476 -24.19807,11.438 -29.10684,11.75733 -35.4909,2.30878 -6.04545,-8.94737 -5.25364,-13.90445 4.62034,-28.92499 12.15877,-18.4962 14.695,-24.48335 11.8325,-27.93241 -3.01172,-3.62894 -10.68957,-3.88396 -22.04076,-0.73216 -5.91277,1.64178 -8.93157,1.63838 -10.58184,-0.0129 -1.65352,-1.6535 -1.27205,-2.309 1.34368,-2.309 2.00897,0 7.63664,-2.88595 12.5059,-6.41324 20.32651,-14.72445 38.86483,-1.88287 30.69792,21.2646 -4.79204,13.58209 -4.13208,14.237 5.54064,5.49827 8.79559,-7.94628 27.88507,-18.15172 34.02666,-18.19098 1.79598,-0.0103 5.35187,1.44052 7.90198,3.22668 4.39049,3.07524 4.48357,3.75599 1.75375,12.8265 -2.79176,9.27626 -2.73747,9.57743 1.71789,9.53196 2.5304,-0.0259 8.79422,-1.9498 13.91959,-4.27551 10.37679,-4.70857 24.68365,-5.76196 23.33571,-1.71811 -0.46025,1.3807 -5.95216,4.24915 -12.20426,6.3743 -6.25213,2.12517 -12.49686,4.80125 -13.87722,5.94683 -1.38034,1.1456 -6.53444,2.72647 -11.45354,3.51308 -11.24402,1.798 -13.36613,-2.04958 -7.86223,-14.25499 2.81745,-6.248 3.20417,-9.13888 1.45636,-10.88669 -3.75757,-3.75755 -23.90801,7.62505 -37.04223,20.92448 -13.37424,13.54246 -19.0334,14.90859 -18.96359,4.57786 0.0259,-3.82122 2.03302,-11.27663 4.46041,-16.56756 5.19171,-11.31619 6.00528,-21.78238 2.06245,-26.53319 -2.84816,-3.43184 -11.93842,-4.48228 -18.15258,-2.09769 -6.04211,2.31858 -3.56903,4.8773 3.59103,3.71537 5.27465,-0.85596 7.93915,-0.0632 10.94212,3.25489 5.01598,5.5426 3.67559,11.35063 -5.79783,25.12256 -3.95136,5.74426 -8.75653,13.48452 -10.67816,17.20057 -3.27641,6.33585 -3.25157,7.05569 0.39897,11.56392 l 3.89289,4.80751 21.6399,-10.11558 c 23.25771,-10.87185 33.06752,-12.15123 34.17055,-4.45649 0.57059,3.98039 1.7311,4.1992 16.03313,3.02285 8.47988,-0.69748 16.2911,-0.50472 17.35825,0.42835 3.97059,3.4717 -3.34647,7.71709 -15.48782,8.98613 -15.50418,1.62049 -19.58754,3.14492 -19.58754,7.31253 0,2.7066 2.22546,3.07302 12.82649,2.11175 11.46502,-1.03962 12.82649,-0.74416 12.82649,2.78355 0,2.17064 -1.18838,4.72488 -2.64084,5.67608 -6.64524,4.35195 -20.30254,9.02493 -25.14988,8.60533 -4.66755,-0.40401 -5.25941,-1.34235 -4.67333,-7.40932 z"
   id="path3036"
   inkscape:connector-curvature="0" /><path
   style="fill:#ffffff"
   inkscape:connector-curvature="0"
   d="M 15.617372,46.903161 V 22.602924 c 0,-2.048296 0.465521,-3.63107 1.396565,-4.655218 0.931044,-1.024148 2.1414,-1.582775 3.63107,-1.582775 1.582774,0 2.793131,0.558627 3.724174,1.582775 0.931044,1.024148 1.396566,2.606922 1.396566,4.655218 v 24.858863 c 0,2.793131 0.372417,5.12074 1.024148,7.075932 0.558626,1.862087 1.675878,3.351757 3.351757,4.375905 1.582774,1.024148 3.817278,1.582774 6.703513,1.582774 4.003488,0 6.796619,-1.024148 8.472497,-3.165548 1.675879,-2.141401 2.513818,-5.400053 2.513818,-9.682854 V 22.602924 c 0,-2.141401 0.465522,-3.63107 1.396565,-4.655218 0.931044,-1.024148 2.141401,-1.582775 3.63107,-1.582775 1.582774,0 2.793131,0.558627 3.724175,1.582775 1.024148,1.024148 1.489669,2.513817 1.489669,4.655218 v 24.300237 c 0,3.910383 -0.372417,7.26214 -1.210356,9.869062 -0.744835,2.606922 -2.141401,4.934531 -4.282801,6.982827 -1.862087,1.675879 -4.003487,2.886235 -6.424201,3.724175 -2.420713,0.744835 -5.306948,1.117252 -8.565601,1.117252 -3.910383,0 -7.26214,-0.372417 -10.05527,-1.210357 -2.793131,-0.837939 -5.027636,-2.1414 -6.796619,-3.910383 -1.768982,-1.768983 -3.072443,-4.003487 -3.910383,-6.796618 -0.837939,-2.700026 -1.210356,-5.958679 -1.210356,-9.775958 z"
   id="path11" /><path
   style="fill:#ffffff"
   inkscape:connector-curvature="0"
   d="m 71.200674,68.596477 c -1.396565,0 -2.700026,-0.465522 -3.724174,-1.303461 -1.024148,-0.931044 -1.48967,-2.234505 -1.48967,-3.910383 0,-1.396566 0.465522,-2.606922 1.48967,-3.63107 0.931043,-1.024148 2.1414,-1.48967 3.63107,-1.48967 1.396565,0 2.700026,0.465522 3.724174,1.48967 1.024148,1.024148 1.48967,2.234504 1.48967,3.63107 0,1.582774 -0.465522,2.886235 -1.48967,3.817279 -1.024148,0.931043 -2.234505,1.396565 -3.63107,1.396565 z"
   id="path13" /><path
   style="fill:#ffffff"
   inkscape:connector-curvature="0"
   d="m 126.03914,52.582527 c 0,3.072444 -0.74483,5.77247 -2.32761,8.286288 -1.58277,2.420714 -3.91038,4.282801 -6.88972,5.679366 -3.07244,1.396565 -6.61041,2.048296 -10.80011,2.048296 -5.02763,0 -9.124223,-0.931044 -12.382875,-2.793131 -2.234505,-1.396565 -4.096592,-3.165548 -5.586262,-5.400053 -1.396565,-2.327609 -2.1414,-4.469009 -2.1414,-6.610409 0,-1.303461 0.465522,-2.327609 1.303461,-3.258653 0.837939,-0.837939 1.955191,-1.303461 3.351757,-1.303461 1.024148,0 1.955191,0.372418 2.700026,1.024148 0.744835,0.744835 1.396566,1.768983 1.862087,3.072444 0.651731,1.675879 1.396566,2.97934 2.141401,4.096592 0.744834,1.024148 1.768982,1.955191 3.165545,2.606922 1.30346,0.744835 3.07245,1.117252 5.30695,1.117252 3.07245,0 5.49316,-0.744835 7.35525,-2.1414 1.95519,-1.396565 2.88623,-3.165548 2.88623,-5.306948 0,-1.675879 -0.46552,-3.072444 -1.48967,-4.096592 -1.02415,-1.024148 -2.42071,-1.862087 -4.00349,-2.420714 -1.58277,-0.465521 -3.81728,-1.117252 -6.5173,-1.675878 -3.63107,-0.931044 -6.610411,-1.862087 -9.124229,-2.97934 -2.420713,-1.210356 -4.375905,-2.700026 -5.77247,-4.655218 -1.48967,-2.048295 -2.1414,-4.469009 -2.1414,-7.355244 0,-2.793131 0.744835,-5.213844 2.234504,-7.448349 1.48967,-2.1414 3.724175,-3.817278 6.61041,-4.934531 2.886235,-1.210356 6.237995,-1.768983 10.148375,-1.768983 3.07244,0 5.77247,0.372418 8.00697,1.210357 2.23451,0.744835 4.0966,1.768983 5.58627,3.072444 1.48967,1.210357 2.60692,2.606922 3.35175,4.003487 0.65173,1.396566 1.02415,2.700027 1.02415,4.096592 0,1.210357 -0.46552,2.327609 -1.30346,3.258653 -0.83794,0.931043 -1.95519,1.48967 -3.25865,1.48967 -1.11725,0 -2.0483,-0.279314 -2.60692,-0.931044 -0.65173,-0.558626 -1.30347,-1.48967 -2.0483,-2.793131 -0.93104,-1.955191 -1.95519,-3.444861 -3.25865,-4.562113 -1.30346,-1.024148 -3.35176,-1.582775 -6.23799,-1.582775 -2.60693,0 -4.74833,0.651731 -6.331101,1.768983 -1.675879,1.210357 -2.513818,2.513818 -2.513818,4.189696 0,1.024148 0.279313,1.862088 0.837939,2.606923 0.558626,0.744834 1.303461,1.396565 2.327609,1.862087 0.931041,0.558626 1.955191,1.024148 2.886231,1.303461 1.02415,0.279313 2.60693,0.744835 4.93454,1.303461 2.79313,0.65173 5.40005,1.396565 7.72766,2.234504 2.32761,0.744835 4.2828,1.768983 5.86557,2.886236 1.67588,1.117252 2.88624,2.606922 3.81728,4.375904 0.83794,1.768983 1.30346,3.910384 1.30346,6.424201 z"
   id="path15" /><path
   style="fill:#ffffff"
   inkscape:connector-curvature="0"
   d="m 137.67719,68.596477 c -1.48967,0 -2.70003,-0.465522 -3.72418,-1.303461 -1.02415,-0.931044 -1.48967,-2.234505 -1.48967,-3.910383 0,-1.396566 0.46552,-2.606922 1.39657,-3.63107 1.02415,-1.024148 2.2345,-1.48967 3.72417,-1.48967 1.39657,0 2.70003,0.465522 3.72418,1.48967 1.02414,1.024148 1.48967,2.234504 1.48967,3.63107 0,1.582774 -0.46553,2.886235 -1.48967,3.817279 -1.02415,0.931043 -2.23451,1.396565 -3.63107,1.396565 z"
   id="path17" /><path
   style="fill:#ffffff"
   inkscape:connector-curvature="0"
   d="m 193.35359,67.758538 h -15.45532 c -2.1414,0 -3.81728,-0.465522 -4.74832,-1.48967 -0.93105,-1.024148 -1.39657,-2.606922 -1.39657,-4.748322 V 23.533967 c 0,-2.234504 0.46552,-3.817279 1.48967,-4.841427 0.93105,-0.931043 2.51382,-1.489669 4.65522,-1.489669 h 16.38637 c 2.42071,0 4.56211,0.186208 6.33109,0.465522 1.76899,0.279313 3.35176,0.931043 4.74833,1.768982 1.21035,0.651731 2.2345,1.582774 3.16554,2.700027 0.93105,1.117252 1.58278,2.327609 2.0483,3.63107 0.46552,1.303461 0.74483,2.700026 0.74483,4.189696 0,5.027635 -2.51381,8.75181 -7.54145,11.079419 6.61041,2.1414 9.96217,6.237992 9.96217,12.289775 0,2.886235 -0.74484,5.400053 -2.23451,7.634558 -1.39656,2.327609 -3.35175,4.003487 -5.86557,5.027635 -1.48967,0.65173 -3.25865,1.117252 -5.30695,1.396565 -1.95519,0.279313 -4.2828,0.372418 -6.98283,0.372418 l 0,0 z m -0.74483,-22.438151 h -10.6139 V 60.12398 h 10.98632 c 6.88972,0 10.33458,-2.513817 10.33458,-7.541453 0,-2.513817 -0.83794,-4.375905 -2.70003,-5.493157 -1.76898,-1.210357 -4.46901,-1.768983 -8.00697,-1.768983 l 0,0 z m -10.6139,-20.389854 v 13.03461 h 9.31044 c 2.60692,0 4.56211,-0.186209 5.95868,-0.744835 1.39656,-0.465522 2.42071,-1.396565 3.16554,-2.700026 0.55863,-0.931044 0.83794,-2.048296 0.83794,-3.258653 0,-2.513818 -0.83794,-4.282801 -2.70002,-5.12074 -1.76899,-0.744835 -4.56212,-1.210356 -8.28629,-1.210356 h -8.28629 z"
   id="path19" /><path
   style="fill:#ffffff"
   inkscape:connector-curvature="0"
   d="m 257.03698,49.510083 c 0,2.793131 -0.46553,5.400053 -1.30347,7.727662 -0.93104,2.420714 -2.1414,4.375905 -3.72417,6.144888 -1.67588,1.675878 -3.63107,2.979339 -5.86558,3.910383 -2.3276,0.837939 -4.93453,1.303461 -7.82076,1.303461 -2.79313,0 -5.40005,-0.465522 -7.63456,-1.303461 -2.32761,-0.931044 -4.28409,-2.327609 -5.95868,-4.003487 -1.67588,-1.675879 -2.88623,-3.724175 -3.72417,-6.051784 -0.93105,-2.327609 -1.30346,-4.934531 -1.30346,-7.727662 0,-2.886235 0.37241,-5.493157 1.30346,-7.820766 0.83794,-2.420713 2.1414,-4.375905 3.72417,-6.051783 1.67588,-1.675879 3.63107,-2.97934 5.95868,-3.910383 2.32761,-0.931044 4.84143,-1.396566 7.63456,-1.396566 2.88623,0 5.49316,0.465522 7.82076,1.396566 2.23451,0.931043 4.28281,2.234504 5.86558,3.910383 1.58277,1.768983 2.88623,3.724174 3.72417,6.144888 0.83794,2.327609 1.30347,4.934531 1.30347,7.727661 l 0,0 z m -9.40355,0 c 0,-3.817278 -0.83793,-6.796618 -2.51381,-8.938018 -1.67588,-2.1414 -3.91039,-3.258653 -6.79662,-3.258653 -1.86209,0 -3.44486,0.465522 -4.84143,1.48967 -1.39656,0.931044 -2.51382,2.327609 -3.25865,4.189696 -0.74484,1.862087 -1.11725,4.003488 -1.11725,6.517305 0,2.420714 0.37241,4.562114 1.11725,6.424201 0.74483,1.862087 1.86209,3.258653 3.16555,4.189696 1.39656,1.024148 3.07244,1.48967 4.93453,1.48967 2.88623,0 5.12074,-1.024148 6.79662,-3.258653 1.67588,-2.048295 2.51381,-5.027635 2.51381,-8.844914 z"
   id="path21" /><path
   style="fill:#ffffff"
   inkscape:connector-curvature="0"
   d="m 288.87867,63.289529 v -1.21165 c -1.11726,1.489669 -2.32761,2.606922 -3.53797,3.63107 -1.30346,0.931043 -2.60692,1.675878 -4.09659,2.1414 -1.48967,0.465522 -3.16555,0.744835 -5.02764,0.744835 -2.2345,0 -4.2828,-0.558626 -6.14488,-1.48967 -1.76899,-0.931043 -3.16555,-2.234504 -4.1897,-3.817279 -1.11725,-2.048296 -1.67588,-4.934531 -1.67588,-8.658705 V 36.008658 c 0,-1.955191 0.37242,-3.351757 1.21036,-4.2828 0.83794,-0.931044 1.95519,-1.396566 3.44486,-1.396566 1.39656,0 2.51382,0.465522 3.44486,1.48967 0.83794,0.931044 1.30346,2.327609 1.30346,4.189696 v 15.082906 c 0,2.141401 0.18621,4.003488 0.55863,5.493158 0.37241,1.396565 1.02415,2.606922 1.95519,3.444861 0.93104,0.837939 2.2345,1.21165 3.91038,1.21165 1.48967,0 2.97934,-0.465522 4.46901,-1.396566 1.39657,-0.931043 2.42071,-2.1414 2.97934,-3.63107 0.55863,-1.396565 0.83794,-4.2828 0.83794,-8.75181 V 36.009951 c 0,-1.862087 0.46552,-3.258652 1.30346,-4.189696 0.83794,-1.024148 2.0483,-1.48967 3.44486,-1.48967 1.39657,0 2.51382,0.465522 3.35176,1.396566 0.83794,0.931043 1.30346,2.327609 1.30346,4.2828 v 27.279578 c 0,1.768982 -0.46552,3.072443 -1.30346,4.003487 -0.74484,0.837939 -1.86209,1.303461 -3.07244,1.303461 -1.30347,0 -2.42072,-0.465522 -3.25866,-1.396565 -0.83794,-0.931044 -1.21035,-2.234505 -1.21035,-3.910383 z"
   id="path23" /><path
   style="fill:#ffffff"
   inkscape:connector-curvature="0"
   d="M 307.03402,62.917111 V 22.137402 c 0,-1.955192 0.46552,-3.351757 1.30346,-4.282801 0.83794,-1.024148 1.95519,-1.48967 3.35175,-1.48967 1.48967,0 2.60693,0.465522 3.44487,1.48967 0.93104,0.931044 1.30346,2.327609 1.30346,4.282801 v 40.779709 c 0,1.862087 -0.37242,3.351757 -1.30346,4.282801 -0.83794,0.931043 -2.0483,1.396565 -3.44487,1.396565 -1.39656,0 -2.51381,-0.465522 -3.35175,-1.48967 -0.83794,-0.931043 -1.30346,-2.327609 -1.30346,-4.189696 z"
   id="path25" /><path
   style="fill:#ffffff"
   inkscape:connector-curvature="0"
   d="m 361.40696,49.510083 c 0,2.793131 -0.46552,5.400053 -1.30346,7.727662 -0.93104,2.420714 -2.1414,4.375905 -3.81728,6.144888 -1.67588,1.675878 -3.63107,2.979339 -5.86557,3.910383 -2.32761,0.837939 -4.93453,1.303461 -7.82077,1.303461 -2.79313,0 -5.40005,-0.465522 -7.63456,-1.303461 -2.32761,-0.931044 -4.2828,-2.327609 -5.95868,-4.003487 -1.67587,-1.675879 -2.88623,-3.724175 -3.72417,-6.051784 -0.93104,-2.327609 -1.30346,-4.934531 -1.30346,-7.727662 0,-2.886235 0.37242,-5.493157 1.30346,-7.820766 0.83794,-2.420713 2.1414,-4.375905 3.72417,-6.051783 1.67588,-1.675879 3.63107,-2.97934 5.95868,-3.910383 2.32761,-0.931044 4.84143,-1.396566 7.63456,-1.396566 2.88624,0 5.49316,0.465522 7.82077,1.396566 2.2345,0.931043 4.2828,2.234504 5.95868,3.910383 1.58277,1.768983 2.88623,3.724174 3.72417,6.144888 0.83794,2.327609 1.30346,4.934531 1.30346,7.727661 l 0,0 z m -9.40354,0 c 0,-3.817278 -0.93104,-6.796618 -2.60692,-8.938018 -1.67588,-2.1414 -3.91038,-3.258653 -6.79662,-3.258653 -1.76898,0 -3.44486,0.465522 -4.84143,1.48967 -1.39656,0.931044 -2.42071,2.327609 -3.25865,4.189696 -0.74483,1.862087 -1.11725,4.003488 -1.11725,6.517305 0,2.420714 0.37242,4.562114 1.11725,6.424201 0.74484,1.862087 1.86209,3.258653 3.25865,4.189696 1.39657,1.024148 2.97934,1.48967 4.84143,1.48967 2.88624,0 5.12074,-1.024148 6.79662,-3.258653 1.67588,-2.048295 2.60692,-5.027635 2.60692,-8.844914 z"
   id="path27" /><path
   style="fill:#ffffff"
   inkscape:connector-curvature="0"
   d="M 403.39703,37.220308 V 64.59299 c 0,3.165548 -0.27932,5.77247 -1.02415,8.100079 -0.65173,2.235798 -1.67588,4.096592 -3.16555,5.586261 -1.48967,1.396566 -3.35176,2.513818 -5.77247,3.258653 -2.42071,0.65173 -5.30695,1.024148 -8.84491,1.024148 -3.25866,0 -6.14489,-0.465522 -8.75181,-1.303461 -2.51382,-0.931044 -4.46901,-2.1414 -5.86558,-3.537966 -1.39656,-1.48967 -2.04829,-2.886235 -2.04829,-4.469009 0,-1.117252 0.37241,-2.048296 1.11725,-2.793131 0.83794,-0.744835 1.76898,-1.117252 2.88623,-1.117252 1.39657,0 2.60693,0.65173 3.63107,1.862087 0.46553,0.651731 1.02415,1.210357 1.58278,1.862087 0.46552,0.651731 1.11725,1.210357 1.76898,1.675879 0.65173,0.372417 1.39657,0.744835 2.32761,0.931043 0.93104,0.279313 1.95519,0.372418 3.16555,0.372418 2.42071,0 4.3759,-0.372418 5.67936,-1.024148 1.39657,-0.651731 2.32761,-1.675879 2.79314,-2.886235 0.55862,-1.210357 0.93104,-2.513818 1.02414,-3.910383 0.0931,-1.396566 0.0931,-3.63107 0.18621,-6.703514 -1.48967,2.048296 -3.16555,3.63107 -5.02763,4.655218 -1.86209,1.024148 -4.1897,1.582774 -6.79662,1.582774 -3.16555,0 -5.86558,-0.837939 -8.19319,-2.420714 -2.42071,-1.582774 -4.18969,-3.817278 -5.49315,-6.703513 -1.21036,-2.886236 -1.86209,-6.237993 -1.86209,-10.055271 0,-2.793131 0.37242,-5.400053 1.11725,-7.634558 0.83794,-2.327609 1.86209,-4.189696 3.35176,-5.77247 1.39656,-1.582774 3.07244,-2.793131 4.93453,-3.537966 1.86209,-0.837939 3.91038,-1.210356 6.05178,-1.210356 2.70003,0 5.02764,0.558626 6.98283,1.582774 1.95519,1.024148 3.72418,2.606922 5.40005,4.748322 v -1.210357 c 0,-1.675878 0.46553,-2.886235 1.21036,-3.817278 0.83794,-0.931044 1.86209,-1.396566 3.16555,-1.396566 1.76898,0 2.97934,0.651731 3.63107,1.862088 0.55862,1.117252 0.83794,2.886235 0.83794,5.027635 l 0,0 z M 376.11745,49.23077 c 0,3.817279 0.83794,6.61041 2.51382,8.565601 1.67588,1.955192 3.81728,2.97934 6.5173,2.97934 1.48967,0 2.97934,-0.465522 4.37591,-1.303461 1.39656,-0.837939 2.51382,-2.048296 3.44486,-3.724175 0.83794,-1.675878 1.30346,-3.724174 1.30346,-6.144887 0,-3.910383 -0.83794,-6.889723 -2.51382,-9.031123 -1.76898,-2.1414 -4.00348,-3.165548 -6.70351,-3.165548 -2.70003,0 -4.84143,1.024148 -6.4242,3.072444 -1.67588,2.048295 -2.51382,4.934531 -2.51382,8.751809 z"
   id="path29" /><path
   style="fill:#ffffff"
   inkscape:connector-curvature="0"
   d="m 421.45927,35.544429 v 1.210357 c 1.67588,-2.234504 3.44486,-3.817279 5.40006,-4.841427 2.04829,-1.024147 4.2828,-1.582774 6.79661,-1.582774 2.51382,0 4.74833,0.558627 6.70352,1.675879 1.95519,1.024148 3.35176,2.606922 4.3759,4.562113 0.55863,1.117253 1.02415,2.420714 1.21036,3.724175 0.0931,1.303461 0.18621,3.072444 0.18621,5.12074 v 17.503619 c 0,1.862087 -0.37242,3.258653 -1.21036,4.282801 -0.93104,0.931043 -2.04829,1.396565 -3.44486,1.396565 -1.39656,0 -2.51382,-0.465522 -3.35176,-1.48967 -0.93104,-0.931043 -1.30346,-2.327609 -1.30346,-4.189696 V 47.182474 c 0,-3.072443 -0.46552,-5.400052 -1.30346,-7.075931 -0.83794,-1.675878 -2.60692,-2.420713 -5.12074,-2.420713 -1.67588,0 -3.25865,0.465522 -4.65522,1.489669 -1.30346,0.931044 -2.32761,2.327609 -2.97934,4.096592 -0.46552,1.396566 -0.74483,4.003488 -0.74483,7.820766 v 11.824254 c 0,1.862087 -0.37242,3.351757 -1.30346,4.282801 -0.83794,0.931043 -2.0483,1.396565 -3.44486,1.396565 -1.30346,0 -2.42072,-0.465522 -3.35176,-1.48967 -0.83794,-0.931043 -1.30346,-2.327609 -1.30346,-4.189696 V 35.730638 c 0,-1.768983 0.46552,-3.165548 1.21036,-4.003487 0.74483,-0.931044 1.86208,-1.396566 3.16554,-1.396566 0.83794,0 1.58278,0.279313 2.32761,0.651731 0.65173,0.372417 1.11726,0.931043 1.58278,1.768983 0.37241,0.744835 0.55862,1.675878 0.55862,2.79313 z"
   id="path31" /><path
   style="fill:#ffffff"
   inkscape:connector-curvature="0"
   d="m 481.7909,51.837692 h -18.34156 c 0,2.141401 0.37242,4.003488 1.21036,5.586262 0.83794,1.675878 1.95519,2.886235 3.35175,3.724174 1.39657,0.837939 2.97934,1.210357 4.65522,1.210357 1.11725,0 2.1414,-0.0931 3.07244,-0.372418 0.93105,-0.279313 1.86209,-0.65173 2.70003,-1.210356 0.83794,-0.558626 1.67588,-1.210357 2.42071,-1.862087 0.74484,-0.651731 1.67588,-1.48967 2.88624,-2.606922 0.46552,-0.372418 1.11725,-0.651731 2.0483,-0.651731 0.93104,0 1.76898,0.279313 2.3276,0.837939 0.55863,0.558626 0.93105,1.303461 0.93105,2.234505 0,0.837939 -0.37242,1.862087 -1.02415,2.979339 -0.65173,1.117253 -1.67588,2.234505 -3.07244,3.258653 -1.30346,1.024148 -2.97934,1.955192 -5.02764,2.606922 -2.04829,0.744835 -4.3759,1.024148 -6.98283,1.024148 -6.05178,0 -10.8001,-1.675878 -14.15186,-5.12074 -3.35176,-3.444861 -5.02763,-8.100079 -5.02763,-14.058758 0,-2.793131 0.46552,-5.306948 1.30346,-7.727662 0.74483,-2.420713 1.95519,-4.375905 3.53796,-6.144888 1.58278,-1.675878 3.53797,-2.979339 5.86558,-3.910383 2.32761,-0.837939 4.93453,-1.303461 7.72766,-1.303461 3.72417,0 6.88972,0.744835 9.49664,2.327609 2.60693,1.48967 4.56212,3.537966 5.86558,5.958679 1.30346,2.513818 2.04829,5.027636 2.04829,7.541453 0,2.327609 -0.74483,3.910384 -2.04829,4.562114 -1.39657,0.744835 -3.25865,1.117252 -5.77247,1.117252 l 0,0 z m -18.34156,-5.400053 h 17.0381 c -0.27932,-3.165548 -1.11726,-5.586261 -2.60692,-7.169035 -1.48967,-1.582774 -3.53797,-2.420714 -5.95868,-2.420714 -2.32761,0 -4.2828,0.83794 -5.77247,2.420714 -1.48967,1.675878 -2.42072,4.003487 -2.70003,7.169035 z"
   id="path33" /><path
   style="fill:#ffffff"
   inkscape:connector-curvature="0"
   d="m 78.835231,569.40483 c 0,1.76898 -0.372417,3.72417 -1.117252,5.86557 -0.837939,2.0483 -2.048296,4.09659 -3.724174,6.14489 -1.675879,1.95519 -3.817279,3.63107 -6.424201,4.84142 -2.606922,1.30347 -5.679366,1.9552 -9.217332,1.9552 -2.606922,0 -5.027635,-0.27932 -7.169035,-0.83794 -2.1414,-0.55863 -4.189696,-1.48967 -5.865575,-2.70003 -1.768983,-1.11725 -3.444861,-2.70003 -4.934531,-4.65522 -1.303461,-1.76898 -2.420713,-3.81728 -3.351757,-5.95868 -0.931043,-2.2345 -1.675878,-4.56211 -2.1414,-7.07593 -0.465522,-2.42071 -0.651731,-5.12074 -0.651731,-7.91387 0,-4.46901 0.558627,-8.5656 1.768983,-12.19667 1.117253,-3.53797 2.793131,-6.61041 5.027636,-9.21733 2.1414,-2.51382 4.748322,-4.46901 7.634557,-5.77247 2.97934,-1.39657 6.144888,-2.0483 9.40354,-2.0483 4.096592,0 7.727662,0.93105 10.89321,2.70003 3.165549,1.86209 5.586262,4.09659 7.26214,6.79662 1.675879,2.70002 2.513818,5.21384 2.513818,7.63455 0,1.30347 -0.372417,2.42072 -1.210357,3.44487 -0.837939,1.02414 -1.862087,1.48967 -2.979339,1.48967 -1.303461,0 -2.327609,-0.37242 -2.886235,-1.02415 -0.651731,-0.74484 -1.396566,-1.86209 -2.234505,-3.63107 -1.303461,-2.79313 -2.886235,-4.84143 -4.655218,-6.23799 -1.768983,-1.39657 -4.003487,-2.0483 -6.610409,-2.0483 -4.189696,0 -7.448349,1.76898 -9.962167,5.30695 -2.420713,3.53796 -3.724174,8.6587 -3.724174,15.17601 0,4.46901 0.558626,8.10008 1.675878,10.98631 1.117253,2.88624 2.606922,5.12074 4.655218,6.51731 1.955192,1.39656 4.375905,2.1414 6.982827,2.1414 2.97934,0 5.400053,-0.83794 7.448349,-2.42071 2.048296,-1.58278 3.537966,-4.00349 4.562114,-7.16904 0.465521,-1.48967 0.931043,-2.70003 1.582774,-3.63107 0.65173,-0.93104 1.675878,-1.39657 3.072444,-1.39657 1.210356,0 2.234504,0.46553 3.165548,1.39657 0.837939,0.93104 1.210356,2.1414 1.210356,3.53797 z"
   id="path35" /><path
   style="fill:#ffffff"
   inkscape:connector-curvature="0"
   d="m 105.36997,538.30797 -3.35175,-4.56211 -3.444864,4.56211 c -0.931044,1.30346 -1.582774,2.0483 -1.955192,2.32761 -0.372417,0.27931 -1.024148,0.37242 -1.955191,0.37242 h -2.700027 c -0.931043,0 -1.396565,-0.0931 -1.396565,-0.46553 0,-0.27931 0.372417,-0.93104 1.024148,-1.95519 l 3.817278,-5.12074 c 0.279314,-0.46552 0.651731,-0.93104 1.117253,-1.48967 0.372417,-0.65173 0.744835,-1.02415 1.024148,-1.30346 0.372417,-0.18621 0.744835,-0.37242 1.396565,-0.55862 0.558626,-0.0931 1.210357,-0.18621 2.048297,-0.18621 h 1.86209 c 1.58277,0 2.60692,0.18621 3.16554,0.65173 0.55863,0.37241 1.30347,1.30346 2.42072,2.88623 l 3.91038,5.21385 c 0.74484,0.93104 1.02415,1.48967 1.02415,1.67588 0,0.46552 -0.46552,0.65173 -1.48967,0.65173 h -2.60692 c -0.74484,0 -1.21036,-0.0931 -1.67588,-0.27932 -0.37242,-0.18621 -0.74484,-0.55862 -1.11725,-1.02415 -0.37242,-0.46552 -0.74484,-0.93104 -1.11726,-1.39656 z"
   id="path37" /><path
   style="fill:#ffffff"
   inkscape:connector-curvature="0"
   d="m 112.91143,566.7979 c 0,-4.2828 -0.83794,-7.63455 -2.51382,-9.96216 -1.67588,-2.42072 -3.91038,-3.63107 -6.70351,-3.63107 -1.86209,0 -3.44487,0.55862 -4.841431,1.67588 -1.396566,1.02414 -2.513818,2.60692 -3.258653,4.65521 -0.744835,2.1414 -1.117252,4.56212 -1.117252,7.26214 0,2.79313 0.372417,5.12074 1.117252,7.26214 0.744835,2.0483 1.768983,3.63107 3.165548,4.65522 1.396566,1.11725 3.072446,1.67588 4.934536,1.67588 2.79313,0 5.02763,-1.21036 6.70351,-3.63107 1.67588,-2.42071 2.51382,-5.67937 2.51382,-9.96217 l 0,0 z m 9.40354,0 c 0,3.16555 -0.46552,6.05179 -1.30346,8.65871 -0.93105,2.70002 -2.1414,4.93453 -3.81728,6.88972 -1.58278,1.86209 -3.53797,3.35176 -5.86558,4.2828 -2.2345,1.02415 -4.84142,1.58278 -7.63455,1.58278 -2.88624,0 -5.400057,-0.55863 -7.634562,-1.58278 -2.327609,-1.02415 -4.189696,-2.51382 -5.865575,-4.3759 -1.675878,-1.95519 -2.886235,-4.1897 -3.817278,-6.79662 -0.83794,-2.60692 -1.210357,-5.49316 -1.210357,-8.65871 0,-3.16555 0.372417,-6.05178 1.303461,-8.75181 0.837939,-2.60692 2.048296,-4.84142 3.724174,-6.70351 1.582774,-1.86209 3.537966,-3.35176 5.865575,-4.37591 2.234505,-1.02414 4.841422,-1.48967 7.634562,-1.48967 2.79313,0 5.30694,0.46553 7.63455,1.48967 2.32761,1.02415 4.2828,2.51382 5.95868,4.46901 1.58278,1.86209 2.88624,4.0966 3.72418,6.70352 0.83794,2.60692 1.30346,5.49315 1.30346,8.6587 z"
   id="path39" /><path
   style="fill:#ffffff"
   inkscape:connector-curvature="0"
   d="m 130.13573,546.40805 h 1.02415 v -6.3311 c 0,-1.67588 0,-2.97934 0.0931,-4.00349 0.0931,-0.93104 0.27931,-1.76898 0.65173,-2.42071 0.37241,-0.74483 0.93104,-1.30346 1.58277,-1.76898 0.74484,-0.46552 1.48967,-0.65173 2.32761,-0.65173 1.21036,0 2.2345,0.46552 3.16555,1.48967 0.65173,0.65173 1.11725,1.48967 1.21035,2.42071 0.18621,0.93104 0.27932,2.32761 0.27932,4.09659 v 7.16904 h 3.44486 c 1.30346,0 2.32761,0.37242 2.97934,1.02415 0.74483,0.74483 1.11725,1.67587 1.11725,2.70002 0,1.39657 -0.55863,2.42072 -1.48967,2.97934 -1.02415,0.55863 -2.42071,0.83794 -4.2828,0.83794 h -1.76898 v 19.36571 c 0,1.58277 0.0931,2.88623 0.18621,3.81728 0.0931,0.83794 0.37241,1.58277 0.83794,2.1414 0.37241,0.55862 1.11725,0.83794 2.1414,0.83794 0.55862,0 1.30346,-0.18621 2.2345,-0.37242 0.93104,-0.18621 1.67588,-0.37242 2.1414,-0.37242 0.74484,0 1.48967,0.37242 2.0483,1.02415 0.65173,0.74483 0.93104,1.58277 0.93104,2.60692 0,1.67588 -0.83794,2.97934 -2.51382,3.81728 -1.58277,0.93104 -3.91038,1.39657 -7.07593,1.39657 -2.88623,0 -5.12074,-0.55863 -6.61041,-1.67588 -1.48967,-1.11726 -2.42071,-2.60692 -2.97934,-4.56212 -0.46552,-1.95519 -0.65173,-4.56211 -0.65173,-7.82076 V 553.9495 h -1.21036 c -1.39656,0 -2.42071,-0.27931 -3.07244,-1.02415 -0.74483,-0.74483 -1.11725,-1.67587 -1.11725,-2.79313 0,-1.02415 0.37242,-1.95519 1.11725,-2.70002 0.74484,-0.65173 1.86209,-1.02415 3.25865,-1.02415 z"
   id="path41" /><path
   style="fill:#ffffff"
   inkscape:connector-curvature="0"
   d="m 180.41209,569.40483 h -18.24846 c 0,2.42071 0.46552,4.469 1.30346,6.33109 0.83794,1.76898 1.9552,3.16555 3.35176,4.09659 1.30346,0.93105 2.88624,1.39657 4.56211,1.39657 1.11726,0 2.0483,-0.18621 2.97934,-0.46552 0.93105,-0.27932 1.86209,-0.74484 2.70003,-1.39657 0.93104,-0.55862 1.67588,-1.30346 2.42071,-1.95519 0.74484,-0.74483 1.67588,-1.76898 2.79313,-2.97934 0.55863,-0.46552 1.21036,-0.65173 2.0483,-0.65173 1.02415,0 1.76898,0.27931 2.32761,0.83794 0.65173,0.65173 0.93104,1.48967 0.93104,2.51382 0,0.93104 -0.37241,2.04829 -1.02414,3.35175 -0.65174,1.21036 -1.58278,2.51382 -2.97934,3.63107 -1.30347,1.21036 -2.97934,2.1414 -5.02764,2.88624 -1.95519,0.83794 -4.2828,1.21036 -6.88972,1.21036 -6.05179,0 -10.707,-1.9552 -14.05876,-5.77247 -3.25865,-3.91039 -4.93453,-9.12423 -4.93453,-15.73464 0,-3.07245 0.37242,-5.95868 1.21036,-8.5656 0.83793,-2.70003 2.04829,-4.93453 3.53796,-6.88972 1.58277,-1.86209 3.53797,-3.35176 5.86558,-4.37591 2.3276,-0.93104 4.84142,-1.48967 7.63455,-1.48967 3.63107,0 6.79662,0.83794 9.40354,2.60692 2.60693,1.76899 4.56212,4.00349 5.86558,6.70352 1.30346,2.79313 1.95519,5.58626 1.95519,8.37939 0,2.70003 -0.65173,4.3759 -2.0483,5.12074 -1.30346,0.83794 -3.25865,1.21036 -5.67936,1.21036 l 0,0 z m -18.24846,-5.95868 h 16.945 c -0.18621,-3.63107 -1.11726,-6.3311 -2.60693,-8.10008 -1.48967,-1.76899 -3.44486,-2.60693 -5.86557,-2.60693 -2.32761,0 -4.2828,0.83794 -5.77247,2.70003 -1.48967,1.76898 -2.32761,4.46901 -2.70003,8.00698 z"
   id="path43" /><path
   style="fill:#ffffff"
   inkscape:connector-curvature="0"
   d="m 240.65061,582.16012 v -1.02415 c -1.30346,1.58278 -2.51382,2.97934 -3.81728,3.91039 -1.21036,1.02415 -2.60692,1.86208 -4.00349,2.32761 -1.48967,0.55862 -3.07244,0.83794 -4.84143,0.83794 -2.2345,0 -4.3759,-0.55863 -6.33109,-1.58278 -1.86209,-1.11725 -3.63107,-2.60692 -5.02764,-4.56211 -1.39656,-2.0483 -2.51381,-4.37591 -3.25865,-6.98283 -0.65173,-2.70003 -1.02415,-5.58626 -1.02415,-8.6587 0,-6.61041 1.39657,-11.73115 4.37591,-15.36222 2.88623,-3.72418 6.70351,-5.49316 11.45183,-5.49316 2.70003,0 5.02764,0.46552 6.98283,1.58277 1.86209,1.02415 3.72417,2.60693 5.49316,4.74833 v -15.54843 c 0,-2.1414 0.37242,-3.72418 1.11725,-4.84143 0.83794,-1.11725 1.95519,-1.67588 3.35176,-1.67588 1.48967,0 2.60692,0.55863 3.35175,1.48967 0.74484,1.02415 1.21036,2.51382 1.21036,4.56212 v 46.27286 c 0,2.0483 -0.46552,3.53797 -1.30346,4.56212 -0.83794,0.93104 -1.95519,1.48967 -3.25865,1.48967 -1.30346,0 -2.32761,-0.55863 -3.16555,-1.58278 -0.93104,-1.02415 -1.30346,-2.51382 -1.30346,-4.46901 l 0,0 z M 221.84353,566.7048 c 0,2.88623 0.46552,5.30695 1.21035,7.35524 0.83794,1.95519 1.9552,3.44486 3.35176,4.46901 1.39657,1.02415 2.88624,1.58278 4.56211,1.58278 1.67588,0 3.16555,-0.55863 4.56212,-1.48967 1.39656,-0.93105 2.51382,-2.42072 3.35175,-4.46901 0.83794,-1.95519 1.21036,-4.37591 1.21036,-7.44835 0,-2.70003 -0.37242,-5.12074 -1.21036,-7.16904 -0.83793,-2.04829 -1.95519,-3.53796 -3.35175,-4.65521 -1.39657,-1.02415 -2.97934,-1.58278 -4.65522,-1.58278 -1.76898,0 -3.25865,0.55863 -4.65522,1.67588 -1.39656,1.02415 -2.42071,2.60692 -3.16555,4.65522 -0.74483,2.04829 -1.21035,4.46901 -1.21035,7.07593 z"
   id="path45" /><path
   style="fill:#ffffff"
   inkscape:connector-curvature="0"
   d="m 298.56152,529.83547 c 5.21384,0 9.68285,1.21036 13.50013,3.53797 3.72418,2.42071 6.61041,5.77247 8.5656,10.14837 1.86209,4.37591 2.88624,9.49665 2.88624,15.45533 0,4.3759 -0.55863,8.28628 -1.58278,11.82425 -1.11725,3.63107 -2.70002,6.70351 -4.84142,9.31044 -2.0483,2.60692 -4.65522,4.56211 -7.72767,5.95868 -3.07244,1.39656 -6.6104,2.1414 -10.61389,2.1414 -4.00349,0 -7.54146,-0.74484 -10.6139,-2.1414 -3.16555,-1.39657 -5.77247,-3.44487 -7.82077,-6.05179 -2.1414,-2.60692 -3.72417,-5.67936 -4.74832,-9.31043 -1.11725,-3.63107 -1.67588,-7.63456 -1.67588,-11.82426 0,-4.3759 0.55863,-8.37939 1.67588,-11.91736 1.11725,-3.63107 2.79313,-6.70351 4.84143,-9.31043 2.1414,-2.51382 4.74832,-4.46901 7.72766,-5.77247 3.07244,-1.39657 6.51731,-2.0483 10.42769,-2.0483 l 0,0 z m 14.52428,29.04856 c 0,-4.18969 -0.55863,-7.72766 -1.76898,-10.8001 -1.21036,-2.97934 -2.88624,-5.30695 -5.12074,-6.79662 -2.23451,-1.58278 -4.74833,-2.32761 -7.63456,-2.32761 -2.0483,0 -4.00349,0.37242 -5.67937,1.21036 -1.76898,0.93104 -3.25865,2.1414 -4.56211,3.81728 -1.21036,1.58277 -2.2345,3.72417 -2.88624,6.23799 -0.74483,2.60692 -1.11725,5.49315 -1.11725,8.6587 0,3.16555 0.37242,6.05179 1.11725,8.65871 0.65174,2.60692 1.67588,4.74832 3.07245,6.4242 1.30346,1.76898 2.79313,3.07244 4.56211,3.91038 1.67588,0.83794 3.53797,1.21036 5.58626,1.21036 2.60693,0 5.02764,-0.74484 7.26214,-2.1414 2.1414,-1.48967 3.91039,-3.72418 5.21385,-6.79662 1.30346,-3.07244 1.95519,-6.79662 1.95519,-11.26563 z"
   id="path47" /><path
   style="fill:#ffffff"
   inkscape:connector-curvature="0"
   d="m 340.27227,551.34258 v 1.30346 c 1.76898,-2.42071 3.63107,-4.2828 5.49316,-5.40005 1.95519,-1.11725 4.09659,-1.67588 6.5173,-1.67588 2.88624,0 5.58627,0.83794 8.00698,2.51382 2.42071,1.58277 4.3759,4.09659 5.77247,7.26214 1.39657,3.25865 2.1414,6.98282 2.1414,11.35873 0,3.25865 -0.46552,6.23799 -1.21036,8.93802 -0.83794,2.70002 -1.95519,5.02763 -3.35175,6.79662 -1.48967,1.86208 -3.16555,3.25865 -5.12074,4.2828 -1.9552,0.93104 -4.00349,1.48967 -6.238,1.48967 -2.70002,0 -4.93453,-0.65173 -6.79661,-1.86209 -1.76899,-1.21036 -3.53797,-2.97934 -5.21385,-5.30695 v 15.82774 c 0,4.56211 -1.48967,6.88972 -4.56211,6.88972 -1.76898,0 -2.88624,-0.55862 -3.44486,-1.76898 -0.65173,-1.21036 -0.93105,-2.88623 -0.93105,-5.21384 v -45.34183 c 0,-2.04829 0.46553,-3.53796 1.21036,-4.46901 0.74484,-1.02414 1.86209,-1.48967 3.16555,-1.48967 1.39656,0 2.42071,0.46553 3.25865,1.48967 0.83794,1.02415 1.30346,2.51382 1.30346,4.37591 l 0,0 z m 18.43467,15.26911 c 0,-2.70002 -0.37242,-5.12074 -1.11726,-7.07593 -0.74483,-2.04829 -1.76898,-3.53796 -3.16555,-4.65521 -1.30346,-1.02415 -2.79313,-1.58278 -4.469,-1.58278 -2.60693,0 -4.74833,1.21036 -6.61041,3.44486 -1.76899,2.32761 -2.60693,5.67937 -2.60693,10.05527 0,4.1897 0.83794,7.44835 2.60693,9.77596 1.76898,2.32761 4.00348,3.53797 6.61041,3.53797 1.58277,0 3.07244,-0.55863 4.3759,-1.58278 1.30346,-1.02415 2.42071,-2.51382 3.16555,-4.56211 0.83794,-2.0483 1.21036,-4.46901 1.21036,-7.35525 z"
   id="path49" /><path
   style="fill:#ffffff"
   inkscape:connector-curvature="0"
   d="m 399.57975,582.25323 c -2.32761,1.95519 -4.56211,3.44486 -6.61041,4.46901 -2.1414,0.93104 -4.56211,1.48967 -7.16904,1.48967 -2.42071,0 -4.56211,-0.55863 -6.4242,-1.58278 -1.76898,-1.11725 -3.16555,-2.51382 -4.18969,-4.3759 -1.02415,-1.86209 -1.48967,-3.81728 -1.48967,-5.95868 0,-2.79313 0.83794,-5.30695 2.42071,-7.35525 1.67588,-1.95519 3.91038,-3.35175 6.79662,-4.00348 0.55862,-0.18621 2.04829,-0.55863 4.46901,-1.02415 2.32761,-0.55863 4.3759,-1.11725 6.05178,-1.48967 1.67588,-0.46552 3.53797,-1.02415 5.49316,-1.67588 -0.0931,-2.79313 -0.65173,-4.84143 -1.48967,-6.05178 -0.93104,-1.30346 -2.70003,-1.9552 -5.49316,-1.9552 -2.42071,0 -4.18969,0.37242 -5.40005,1.11726 -1.21036,0.74483 -2.23451,1.86208 -3.16555,3.35175 -0.83794,1.48967 -1.39656,2.42072 -1.76898,2.88624 -0.37242,0.46552 -1.11725,0.74483 -2.32761,0.74483 -1.02415,0 -1.95519,-0.37241 -2.70003,-1.11725 -0.83794,-0.74483 -1.21035,-1.76898 -1.21035,-2.97934 0,-1.76898 0.55862,-3.63107 1.76898,-5.30695 1.21036,-1.76898 2.97934,-3.25865 5.49316,-4.3759 2.51381,-1.11725 5.58626,-1.67588 9.31043,-1.67588 4.09659,0 7.35525,0.55863 9.77596,1.67588 2.32761,1.02415 4.00349,2.79313 4.93453,5.12074 1.02415,2.42071 1.48967,5.49316 1.48967,9.40354 0,2.51382 0,4.56211 0,6.23799 0,1.76898 0,3.72418 0,5.77247 0,1.95519 0.27931,4.00349 0.83794,6.14489 0.55863,2.1414 0.83794,3.53796 0.83794,4.1897 0,1.02414 -0.37242,2.04829 -1.30346,2.88623 -0.93105,0.93104 -1.95519,1.39657 -3.07245,1.39657 -1.02414,0 -1.95519,-0.55863 -2.88623,-1.58278 -0.93105,-0.93104 -1.95519,-2.42071 -2.97934,-4.3759 l 0,0 z m -0.65173,-15.17601 c -1.39657,0.55862 -3.35176,1.11725 -6.05178,1.76898 -2.60693,0.65173 -4.46901,1.11725 -5.40006,1.39656 -1.02415,0.27932 -2.04829,0.83794 -2.97934,1.76899 -0.83794,0.83794 -1.30346,2.04829 -1.30346,3.53796 0,1.58278 0.46552,2.97934 1.58278,4.09659 1.11725,1.11726 2.51381,1.67588 4.2828,1.67588 1.86208,0 3.53796,-0.46552 5.12074,-1.39656 1.58277,-0.93105 2.70002,-2.0483 3.44486,-3.53797 0.83794,-1.58277 1.30346,-4.18969 1.30346,-7.82076 v -1.48967 z"
   id="path51" /><path
   style="fill:#ffffff"
   inkscape:connector-curvature="0"
   d="m 417.7351,581.7877 v -45.52803 c 0,-2.1414 0.37242,-3.72417 1.21036,-4.84142 0.83793,-1.02415 1.95519,-1.58278 3.44486,-1.58278 1.39656,0 2.51381,0.55863 3.44486,1.58278 0.83794,1.11725 1.30346,2.70002 1.30346,4.84142 v 45.52803 c 0,2.14141 -0.46552,3.72418 -1.30346,4.84143 -0.93105,1.02415 -2.0483,1.58278 -3.44486,1.58278 -1.39657,0 -2.51382,-0.55863 -3.35176,-1.67588 -0.83794,-1.11726 -1.30346,-2.70003 -1.30346,-4.74833 z"
   id="path53" /><path
   style="fill:#ffffff"
   inkscape:connector-curvature="0"
   d="m 463.17003,569.40483 h -18.43467 c 0,2.42071 0.46552,4.469 1.30346,6.33109 0.83794,1.76898 1.9552,3.16555 3.35176,4.09659 1.39657,0.93105 2.88624,1.39657 4.56211,1.39657 1.11726,0 2.1414,-0.18621 3.07245,-0.46552 0.93104,-0.27932 1.86209,-0.74484 2.70002,-1.39657 0.93105,-0.55862 1.76899,-1.30346 2.42072,-1.95519 0.74483,-0.74483 1.76898,-1.76898 2.88623,-2.97934 0.46553,-0.46552 1.21036,-0.65173 2.0483,-0.65173 1.02415,0 1.76898,0.27931 2.42071,0.83794 0.55863,0.65173 0.83794,1.48967 0.83794,2.51382 0,0.93104 -0.27931,2.04829 -0.93104,3.35175 -0.74484,1.21036 -1.67588,2.51382 -3.07245,3.63107 -1.30346,1.21036 -2.97934,2.1414 -5.02763,2.88624 -2.0483,0.83794 -4.37591,1.21036 -7.07593,1.21036 -6.05179,0 -10.707,-1.9552 -14.05876,-5.77247 -3.35176,-3.91039 -5.02764,-9.12423 -5.02764,-15.73464 0,-3.07245 0.37242,-5.95868 1.21036,-8.5656 0.83794,-2.70003 2.0483,-4.93453 3.63107,-6.88972 1.58277,-1.86209 3.53797,-3.35176 5.86558,-4.37591 2.3276,-0.93104 4.84142,-1.48967 7.72766,-1.48967 3.63107,0 6.79662,0.83794 9.49664,2.60692 2.60692,1.76899 4.56212,4.00349 5.86558,6.70352 1.30346,2.79313 1.95519,5.58626 1.95519,8.37939 0,2.70003 -0.65173,4.3759 -2.0483,5.12074 -1.30346,0.83794 -3.25865,1.21036 -5.67936,1.21036 l 0,0 z m -18.43467,-5.95868 h 17.0381 c -0.18621,-3.63107 -1.02415,-6.3311 -2.60692,-8.10008 -1.48967,-1.76899 -3.44486,-2.60693 -5.86558,-2.60693 -2.42071,0 -4.2828,0.83794 -5.86557,2.70003 -1.48967,1.76898 -2.42071,4.46901 -2.70003,8.00698 z"
   id="path55" /><path
   style="fill:#ffffff"
   inkscape:connector-curvature="0"
   d="m 265.04395,550.78395 h -6.3311 c -0.93104,-3.81728 -2.42071,-7.82076 -2.32761,-11.82425 0.0931,-2.97934 0.18621,-5.67937 0.27932,-8.4725 h 10.42769 c 0.0931,2.79313 0.1862,5.49316 0.27931,8.4725 0.0931,4.00349 -1.39657,8.00697 -2.32761,11.82425 z"
   id="path57" /><path
   style="fill:#ffffff"
   inkscape:connector-curvature="0"
   d="m 189.1639,299.49529 c 0.37241,5.67936 3.53796,13.68634 10.8001,12.28977 8.84492,-1.67588 8.65871,-15.92084 3.07245,-20.85537 -5.58626,-4.84143 -13.87255,-5.77247 -21.60021,-3.16555 -15.17602,5.12074 -19.0864,17.0381 -19.83123,30.81754 -0.55863,9.58975 1.02414,20.01744 8.84491,22.90367 -1.11725,-8.10008 0.18621,-20.29675 2.60692,-28.30372 1.67588,-5.40005 7.63456,-16.85189 16.10706,-13.68634 z"
   id="path75" /><path
   style="fill:#ffffff"
   inkscape:connector-curvature="0"
   d="m 108.81484,321.84033 c 0.46552,6.51731 -1.39657,15.82775 -10.986319,13.77945 -9.031123,-1.95519 -8.658706,-17.31741 -2.886235,-22.81057 8.751814,-8.37939 24.858864,-6.23799 32.214104,2.97934 5.12074,6.4242 4.0966,18.52777 0.27932,28.76925 -1.67588,4.3759 -3.25866,9.49664 -8.10008,10.98631 0.83794,-5.12074 6.61041,-27.27958 0,-33.98309 -2.79313,-2.79313 -7.82077,-2.51382 -10.52079,0.27931 z"
   id="path77" /><path
   style="fill:#ffffff"
   inkscape:connector-curvature="0"
   d="m 117.75285,358.70966 c 1.86209,0 3.53797,1.48967 3.53797,3.25865 0,1.86209 -1.67588,3.25866 -3.53797,3.25866 -1.76898,0 -3.25865,-1.39657 -3.25865,-3.25866 0,-1.76898 1.48967,-3.25865 3.25865,-3.25865 z"
   id="path79" /><path
   style="fill:#ffffff"
   inkscape:connector-curvature="0"
   d="m 183.01901,313.92646 c 1.86209,0 3.44486,1.58278 3.44486,3.44486 0,1.86209 -1.58277,3.44487 -3.44486,3.44487 -1.86209,0 -3.44486,-1.58278 -3.44486,-3.44487 0,-1.86208 1.58277,-3.44486 3.44486,-3.44486 z"
   id="path81" /><path
   style="fill:#ffffff"
   inkscape:connector-curvature="0"
   d="m 306.28918,369.50977 c 1.86209,0 3.44486,1.58277 3.44486,3.44486 0,1.86208 -1.58277,3.44486 -3.44486,3.44486 -1.86209,0 -3.44486,-1.58278 -3.44486,-3.44486 0,-1.86209 1.58277,-3.44486 3.44486,-3.44486 z"
   id="path83" /><path
   style="fill:#ffffff"
   inkscape:connector-curvature="0"
   d="m 210.95032,396.04451 c 16.38636,-10.42769 36.77622,-21.3209 58.28333,-28.95546 24.85886,-8.75181 51.3005,-13.03461 74.01796,-4.3759 -9.21733,21.78642 -26.53474,44.59699 -44.8763,67.40755 10.52079,-3.72417 24.95197,-12.19667 41.43144,-37.52105 6.14489,-9.58975 11.63805,-22.53126 16.47947,-40.40729 -37.98658,-5.49316 -79.0456,-4.00349 -113.12179,15.36221 -11.82426,6.70352 -26.06923,16.29327 -32.21411,28.48994 z"
   id="path85" /><path
   style="fill:#ffffff"
   inkscape:connector-curvature="0"
   d="m 143.82207,316.16097 c 2.70003,45.15561 6.42421,135.37374 74.48349,118.52185 14.43118,-8.5656 29.42098,-14.71049 43.29353,-20.01744 11.82425,-4.46901 23.36919,-7.26214 29.23477,-4.3759 -2.51382,4.93453 -6.14489,5.30694 -10.6139,7.82076 -9.86906,5.30695 -19.55191,13.22082 -24.85886,23.27609 -4.0966,8.10008 -5.02764,18.24846 2.70002,22.71746 6.14489,3.44487 15.08291,2.79314 23.83472,1.02415 18.24845,-3.81728 37.33485,-11.91736 56.32814,-20.38985 14.80359,-6.51731 29.60718,-13.12772 43.57284,-18.90019 -6.61041,16.38637 -56.79366,31.00375 -73.64555,37.98658 -8.37939,3.44486 -17.0381,6.23799 -25.32439,8.10008 -10.61389,2.51382 -22.71746,4.74832 -31.09685,-0.18621 -17.96914,-10.42769 -7.35525,-31.37617 2.51381,-42.45559 -23.46229,13.12772 -45.80734,19.55192 -63.86959,18.80709 -20.57606,-0.93105 -32.30721,-10.14838 -39.01072,-23.64851 -15.36222,-30.72444 -14.15187,-75.60074 -7.54146,-108.28037 z"
   id="path87" /><path
   style="fill:#ffffff"
   inkscape:connector-curvature="0"
   d="m 148.94281,237.58089 18.15535,-13.22082 -6.88972,-21.3209 h -22.53125 l -6.88973,21.3209 18.15535,13.22082 0,0 z m 0,-76.62489 c 7.44835,0 14.52428,1.39657 21.13469,3.91038 l -6.79661,5.67937 6.88972,19.64502 20.85537,0.55863 3.25866,-8.28629 c 8.19318,10.14837 13.12771,22.99678 13.12771,36.96243 0,1.11725 0,2.1414 -0.0931,3.25865 l -7.54146,-4.74832 -16.47947,12.66219 5.95868,19.92433 8.84492,0.55863 c -7.82077,12.10357 -20.01744,21.13469 -34.1693,24.85886 l 2.1414,-8.5656 -17.13121,-11.82425 -17.1312,11.82425 2.1414,8.5656 c -14.15186,-3.72417 -26.34853,-12.75529 -34.169298,-24.85886 l 8.844918,-0.55863 5.95868,-19.92433 -16.572581,-12.66219 -7.448348,4.74832 c -0.09311,-1.11725 -0.09311,-2.1414 -0.09311,-3.25865 0,-13.96565 4.934531,-26.81406 13.127714,-36.96243 l 3.25865,8.28629 20.85538,-0.55863 6.88972,-19.64502 -6.79662,-5.67937 c 6.51731,-2.51381 13.68635,-3.91038 21.13469,-3.91038 z"
   id="path89" />
</svg>