<?xml version="1.0" encoding="utf-8"?>
<!-- Generator: Adobe Illustrator 15.1.0, SVG Export Plug-In . SVG Version: 6.00 Build 0)  -->
<!DOCTYPE svg PUBLIC "-//W3C//DTD SVG 1.1//EN" "http://www.w3.org/Graphics/SVG/1.1/DTD/svg11.dtd">
<svg version="1.1" id="CarpiFC" xmlns="http://www.w3.org/2000/svg" xmlns:xlink="http://www.w3.org/1999/xlink" x="0px" y="0px"
	 width="535px" height="600px" viewBox="0 0 535 600" enable-background="new 0 0 535 600" xml:space="preserve">
<g>
	<path fill-rule="evenodd" clip-rule="evenodd" fill="#ED1C24" d="M267.5,587.753c0,0-63.81-51.814-115.938-64.396
		C99.435,510.771,18.547,465.835,18.547,393.938c0-71.902,30.56-97.066,28.761-167.167c-1.797-70.103-23.135-127.3-34.036-148.352
		l61.238-67.035H267.5h192.99l61.238,67.035c-10.901,21.052-32.238,78.249-34.038,148.352
		c-1.795,70.101,28.763,95.265,28.763,167.167c0,71.897-80.887,116.833-133.014,129.419
		C331.313,535.938,267.5,587.753,267.5,587.753z"/>
	<path fill-rule="evenodd" clip-rule="evenodd" fill="#FFFFFF" d="M363.958,481.575c-57.3,2.509-106.894,10.184-223.609-183.617
		C98.986,229.279,65.524,186.129,39.543,159.011c6.05,29.883,9.918,64.8,6.734,95.337c19.615,26.71,48.921,66.782,60.346,83.285
		c17.855,25.792,95.204,164.655,198.377,164.655C328.848,502.288,354.085,491.518,363.958,481.575z"/>
	<path fill-rule="evenodd" clip-rule="evenodd" fill="#FFFFFF" d="M277.23,522.124c-37.675,4.415-80.841-15.372-122.996-53.563
		c-29.89-27.073-75.239-91.787-123.848-148.37c-6.254,20.814-11.84,43.01-11.84,73.746c0,10.021,85.727,79.172,99.979,90.498
		C154.73,513.198,212.5,550.047,277.23,522.124z"/>
	<path fill-rule="evenodd" clip-rule="evenodd" fill="#FFFFFF" d="M503.704,125.657c-52.442-12.223-138.682-20.201-236.204-20.201
		c-97.521,0-183.762,7.978-236.206,20.199c-6.317-20.744-13.194-36.594-18.023-45.596l61.238-64.71H267.5h192.99l61.238,64.71
		C516.901,89.061,510.023,104.913,503.704,125.657z"/>
	<path fill-rule="evenodd" clip-rule="evenodd" fill="#FFFFFF" d="M67.537,127.038c52.271,58.519,82.989,121.737,164.065,238.37
		c42.136,60.618,109.539,107.014,150.768,105.141c41.228-1.877,131.011-40.688,95.533-221.188
		c-0.144-0.553,20.876-105.871,23.536-115.676c-52.642-12.356-137.812-20.385-233.939-20.385
		C189.931,113.299,119.503,118.527,67.537,127.038z"/>
	<path fill-rule="evenodd" clip-rule="evenodd" fill="#ED1C24" d="M2.503,76.993c22.696-24.846,45.397-49.688,68.09-74.535
		c131.265,0,262.526,0,393.793,0c22.703,24.843,45.412,49.684,68.108,74.535c-22.541,43.534-34.621,99.657-35.91,149.986
		c-0.874,34.068,6.319,57.378,13.626,81.067c27.127,87.939,23.646,151.866-67.565,201.02c-56.664,30.537-90.2,21.61-175.146,90.126
		C164.308,515.956,109.27,536.82,48.203,477.406c-52.75-51.328-42.299-108.14-23.412-169.36
		C47.885,233.182,39.091,147.616,2.503,76.993L2.503,76.993z M456.573,20.31H78.424l-54.49,59.651
		c19.52,41.8,31.035,98.57,32.267,146.599c2.507,97.845-90.02,194.341,44.58,266.815c52.668,28.354,83.785,20.672,166.719,83.102
		c98.372-74.05,152.898-59.313,206.883-111.837c74.031-72.027,2.027-144.864,4.417-238.08
		c1.232-48.029,12.75-104.799,32.268-146.599L456.573,20.31z"/>
	<path fill-rule="evenodd" clip-rule="evenodd" fill="#000002" d="M79.448,81.929l10.509,3.038
		c-0.083,4.204-0.646,7.794-1.695,10.747c-1.039,2.964-2.513,5.293-4.439,6.991c-1.919,1.699-4.512,2.782-7.784,3.243
		c-3.974,0.559-7.332,0.155-10.094-1.193c-2.756-1.363-5.346-4.071-7.776-8.117c-2.432-4.045-4.125-9.438-5.069-16.15
		c-1.256-8.955-0.62-16.066,1.913-21.335c2.546-5.259,6.752-8.306,12.629-9.132c4.596-0.646,8.409,0.22,11.43,2.611
		c3.013,2.395,5.571,6.356,7.65,11.903l-9.48,4.664c-0.579-1.589-1.113-2.736-1.601-3.44c-0.816-1.185-1.728-2.058-2.734-2.613
		c-1.014-0.565-2.081-0.763-3.211-0.604c-2.564,0.361-4.313,2.163-5.244,5.394c-0.71,2.403-0.73,6.032-0.051,10.863
		c0.844,6.005,2.032,10.016,3.578,12.078c1.544,2.046,3.425,2.913,5.648,2.599c2.158-0.302,3.664-1.428,4.515-3.386
		C78.996,88.141,79.428,85.417,79.448,81.929L79.448,81.929z M119.184,91.287l-12.805,1.573l-0.74,9.175l-11.536,1.416l7.099-56
		l12.372-1.518l20.376,52.625l-11.835,1.454L119.184,91.287L119.184,91.287z M115.348,79.824l-6.391-19.03l-1.611,20.011
		L115.348,79.824L115.348,79.824z M137.987,98.6l-3.817-54.584l18.928-1.324c3.508-0.245,6.228,0.012,8.139,0.783
		c1.919,0.761,3.533,2.32,4.841,4.656c1.306,2.345,2.079,5.269,2.321,8.749c0.212,3.023-0.041,5.673-0.761,7.931
		c-0.708,2.273-1.783,4.135-3.219,5.614c-0.906,0.93-2.191,1.748-3.837,2.438c1.399,0.58,2.43,1.171,3.093,1.802
		c0.442,0.416,1.118,1.34,2.016,2.746c0.889,1.405,1.499,2.499,1.82,3.282l6.623,15.38l-12.837,0.898l-7.229-16.219
		c-0.922-2.107-1.705-3.458-2.348-4.063c-0.881-0.781-1.842-1.136-2.878-1.063l-1.001,0.069l1.546,22.109L137.987,98.6L137.987,98.6
		z M147.12,65.402l4.802-0.337c0.512-0.034,1.506-0.359,2.958-0.958c0.739-0.27,1.316-0.883,1.722-1.844
		c0.415-0.96,0.579-2.032,0.496-3.227c-0.122-1.766-0.596-3.099-1.414-3.986c-0.82-0.899-2.264-1.273-4.343-1.126l-4.998,0.349
		L147.12,65.402L147.12,65.402z M174.956,41.744l18.916-0.992c4.119-0.216,7.28,1.073,9.489,3.878
		c2.199,2.805,3.444,6.896,3.725,12.278c0.29,5.52-0.606,9.904-2.678,13.125c-2.073,3.233-5.41,4.963-10,5.204l-6.238,0.326
		l1.061,20.226l-11.411,0.598L174.956,41.744L174.956,41.744z M187.591,64.499l2.801-0.147c2.209-0.116,3.731-0.769,4.563-1.948
		c0.83-1.179,1.202-2.651,1.108-4.42c-0.09-1.716-0.551-3.148-1.394-4.302c-0.834-1.155-2.321-1.677-4.463-1.565l-3.255,0.172
		L187.591,64.499L187.591,64.499z M213.598,39.457l11.419-0.4l1.907,54.684l-11.419,0.399L213.598,39.457L213.598,39.457z
		 M251.338,39.512l28.148-0.491l0.204,11.766l-16.723,0.293l0.165,9.551l14.306-0.251l0.196,11.081l-14.309,0.249l0.39,22.311
		l-11.425,0.202L251.338,39.512L251.338,39.512z M311.884,72.134l9.824,4.816c-0.812,4.127-1.986,7.564-3.537,10.287
		c-1.534,2.738-3.391,4.777-5.585,6.116c-2.184,1.338-4.925,1.956-8.225,1.84c-4.015-0.141-7.25-1.121-9.734-2.928
		c-2.478-1.82-4.558-4.938-6.251-9.343c-1.689-4.406-2.423-10.014-2.187-16.784c0.313-9.039,2.179-15.932,5.59-20.681
		c3.418-4.736,8.09-7.007,14.022-6.801c4.638,0.161,8.24,1.677,10.803,4.557c2.55,2.88,4.382,7.227,5.467,13.051l-10.146,2.946
		c-0.293-1.667-0.62-2.889-0.979-3.666c-0.6-1.308-1.342-2.328-2.235-3.048c-0.902-0.732-1.922-1.111-3.06-1.152
		c-2.591-0.09-4.623,1.381-6.104,4.4c-1.114,2.244-1.763,5.815-1.934,10.689c-0.212,6.061,0.261,10.218,1.424,12.515
		c1.167,2.282,2.867,3.464,5.111,3.543c2.179,0.076,3.855-0.771,5.034-2.552C310.362,78.172,311.26,75.565,311.884,72.134
		L311.884,72.134z M369.152,41.319l-3.881,55.5l-10.316-0.722l2.537-36.314c-1.8,1.764-3.521,3.164-5.169,4.21
		c-1.648,1.046-3.685,2.028-6.111,2.917l0.86-12.35c3.595-1.434,6.438-3.253,8.519-5.457c2.089-2.215,3.798-5.008,5.125-8.374
		L369.152,41.319L369.152,41.319z M377.973,84.598l10.317-0.989c0.082,2.105,0.404,3.629,0.963,4.533
		c0.567,0.92,1.306,1.42,2.22,1.499c1.64,0.143,3.022-0.962,4.157-3.333c0.828-1.754,1.664-5.528,2.509-11.336
		c-1.387,1.757-2.753,3.007-4.116,3.756c-1.358,0.763-2.884,1.064-4.577,0.916c-3.289-0.288-5.912-2.269-7.874-5.93
		c-1.963-3.676-2.705-8.164-2.244-13.468c0.318-3.617,1.179-6.864,2.595-9.747c1.411-2.868,3.198-4.987,5.349-6.332
		c2.15-1.347,4.757-1.887,7.813-1.62c3.676,0.322,6.536,1.518,8.593,3.578c2.06,2.072,3.577,5.196,4.545,9.386
		c0.967,4.19,1.166,9.626,0.578,16.326c-0.86,9.834-2.884,16.906-6.078,21.241c-3.187,4.327-7.25,6.273-12.195,5.84
		c-2.925-0.256-5.181-0.952-6.784-2.103c-1.596-1.15-2.868-2.746-3.818-4.759C378.973,90.03,378.319,87.543,377.973,84.598
		L377.973,84.598z M398.901,61.918c0.258-2.954-0.045-5.308-0.896-7.072c-0.853-1.76-2.004-2.705-3.437-2.832
		c-1.358-0.118-2.545,0.545-3.573,1.977c-1.031,1.432-1.677,3.664-1.938,6.697c-0.268,3.043-0.012,5.42,0.78,7.111
		c0.783,1.693,1.872,2.607,3.259,2.728c1.433,0.126,2.698-0.556,3.795-2.032C397.972,67.016,398.648,64.825,398.901,61.918
		L398.901,61.918z M413.614,72.511c1.269-10.315,3.405-17.38,6.412-21.194c3.012-3.813,7.079-5.406,12.195-4.777
		c2.46,0.301,4.43,1.005,5.895,2.097c1.474,1.091,2.615,2.425,3.436,3.988c0.828,1.565,1.424,3.179,1.8,4.843
		c0.383,1.663,0.615,3.578,0.701,5.745c0.188,4.128,0.008,8.394-0.534,12.792c-1.208,9.849-3.215,16.917-6.021,21.205
		c-2.803,4.288-6.948,6.101-12.439,5.426c-3.072-0.375-5.471-1.416-7.188-3.103c-1.722-1.685-3.011-4.013-3.88-6.98
		c-0.633-2.107-0.988-4.922-1.058-8.445C412.875,80.569,413.1,76.709,413.614,72.511L413.614,72.511z M423.675,73.772
		c-0.85,6.903-1.021,11.68-0.502,14.312c0.514,2.627,1.55,4.039,3.117,4.233c1.031,0.126,1.99-0.296,2.88-1.277
		c0.89-0.981,1.652-2.621,2.293-4.89c0.645-2.282,1.269-5.877,1.868-10.781c0.886-7.205,1.069-12.099,0.551-14.689
		c-0.521-2.581-1.603-3.97-3.247-4.174c-1.686-0.206-3.052,0.91-4.112,3.345C425.465,62.289,424.515,66.932,423.675,73.772
		L423.675,73.772z M446.945,91.757l10.359-0.267c-0.062,2.105,0.155,3.647,0.647,4.589c0.499,0.957,1.204,1.508,2.11,1.65
		c1.624,0.257,3.08-0.75,4.378-3.036c0.946-1.692,2.047-5.399,3.291-11.133c-1.501,1.656-2.953,2.807-4.369,3.459
		c-1.407,0.667-2.95,0.861-4.626,0.596c-3.264-0.518-5.74-2.676-7.445-6.466c-1.698-3.802-2.127-8.333-1.294-13.592
		c0.566-3.584,1.652-6.766,3.265-9.541c1.61-2.762,3.541-4.753,5.78-5.944c2.24-1.193,4.876-1.548,7.907-1.069
		c3.643,0.577,6.408,1.968,8.322,4.167c1.906,2.209,3.203,5.434,3.876,9.679c0.674,4.247,0.489,9.683-0.563,16.327
		c-1.542,9.749-4.057,16.664-7.544,20.766c-3.48,4.092-7.671,5.749-12.574,4.974c-2.896-0.461-5.101-1.312-6.617-2.573
		c-1.514-1.256-2.673-2.935-3.48-5.012C447.562,97.245,447.084,94.722,446.945,91.757L446.945,91.757z M469.404,70.596
		c0.466-2.932,0.327-5.302-0.399-7.12c-0.73-1.818-1.811-2.839-3.23-3.064c-1.351-0.214-2.579,0.365-3.705,1.722
		c-1.126,1.357-1.926,3.538-2.403,6.544c-0.478,3.019-0.384,5.406,0.286,7.15c0.66,1.742,1.686,2.729,3.06,2.948
		c1.424,0.227,2.733-0.365,3.925-1.763C468.124,75.614,468.947,73.476,469.404,70.596z"/>
	<path fill-rule="evenodd" clip-rule="evenodd" fill="#000002" d="M1.583,76.155c9.078-9.938,18.157-19.877,27.237-29.815
		C42.438,31.434,56.057,16.526,69.673,1.619l0.374-0.41h0.547h393.793h0.542l0.376,0.41c7.099,7.772,14.206,15.544,21.309,23.316
		c18.697,20.458,37.53,41.065,46.803,51.22L534,76.795l-0.396,0.769c-10.897,21.035-19.334,45.024-25.283,69.872
		c-6.318,26.388-9.832,53.745-10.492,79.573c-0.433,16.914,1.138,31.175,3.725,44.151c2.595,13.014,6.205,24.719,9.849,36.518
		c13.626,44.181,19.559,82.363,10.607,115.744c-8.972,33.454-32.834,61.984-78.776,86.74
		c-19.645,10.586-36.502,16.445-53.674,22.406c-32.357,11.244-65.832,22.871-121.281,67.594l-0.778,0.628l-0.781-0.628
		c-54.065-43.608-94.894-58.566-130.298-71.535c-32.184-11.791-59.916-21.954-89.084-50.332
		c-26.631-25.911-37.31-53.221-38.945-81.792c-1.632-28.461,5.729-58.097,15.211-88.825c11.443-37.104,15.023-76.853,11.238-116.097
		c-3.819-39.601-15.141-78.685-33.442-114.018L1,76.795L1.583,76.155L1.583,76.155z M30.662,48.019
		c-8.884,9.724-17.77,19.45-26.653,29.176c18.212,35.407,29.487,74.521,33.309,114.154c3.817,39.562,0.207,79.642-11.337,117.06
		c-9.406,30.492-16.713,59.875-15.104,87.96c1.604,27.971,12.074,54.727,38.195,80.144c28.783,28.004,56.287,38.081,88.206,49.773
		c35.412,12.97,76.223,27.926,130.223,71.312c55.311-44.471,88.834-56.122,121.239-67.378c17.069-5.929,33.829-11.75,53.315-22.252
		c45.269-24.393,68.757-52.404,77.544-85.19c8.813-32.854,2.921-70.608-10.579-114.368c-3.668-11.889-7.307-23.684-9.914-36.761
		c-2.614-13.118-4.202-27.549-3.765-44.698c0.664-25.994,4.202-53.529,10.562-80.088c5.925-24.746,14.3-48.647,25.091-69.667
		c-21.557-23.602-33.821-37.02-46.216-50.583L463.844,3.704H71.142C57.65,18.479,44.158,33.248,30.662,48.019L30.662,48.019z
		 M456.027,21.559H78.973L25.411,80.191c9.4,20.313,16.925,44.056,22.32,68.571c5.741,26.072,9.08,53.063,9.712,77.769
		c0.763,29.72-7.16,59.21-14.882,87.956c-17.68,65.812-34.295,127.657,58.812,177.786c18.567,9.998,34.452,15.503,50.889,21.193
		c30.06,10.416,61.954,21.468,115.238,61.459c50.753-38.061,89.825-52.548,123.185-64.918
		c30.979-11.485,57.008-21.134,82.828-46.261c47.261-45.979,34.291-92.477,19.775-144.535c-8.058-28.876-16.584-59.45-15.732-92.681
		c0.633-24.705,3.974-51.695,9.714-77.769c5.394-24.516,12.921-48.258,22.316-68.571L456.027,21.559L456.027,21.559z M78.424,19.062
		h-0.547l-0.375,0.41L23.013,79.12l-0.558,0.613l0.351,0.754c9.471,20.281,17.056,44.136,22.488,68.812
		c5.711,25.95,9.035,52.774,9.661,77.292c0.753,29.344-7.125,58.669-14.804,87.253C22.209,380.633,5.347,443.4,100.192,494.468
		c18.712,10.077,34.708,15.617,51.26,21.354c30.018,10.395,61.872,21.432,115.301,61.65l0.747,0.562l0.746-0.562
		c50.814-38.249,89.923-52.749,123.301-65.122c31.242-11.586,57.5-21.316,83.704-46.815c48.316-47.012,35.16-94.178,20.436-146.983
		c-8.009-28.709-16.486-59.104-15.642-91.96c0.628-24.518,3.949-51.342,9.661-77.292c5.435-24.676,13.019-48.531,22.488-68.812
		l0.35-0.754l-0.554-0.613L457.5,19.472l-0.375-0.41h-0.552H78.424z"/>
	<g>
		<path fill-rule="evenodd" clip-rule="evenodd" fill="#150608" d="M364.693,321.188c-1.481-18.893-7.508-26.724-12.917-32.274
			c-3.563-3.658,18.024,15.603,8.56,2.095c2.999,2.666,6.608,10.436,5.732-1.611l1.709,0.799c0,0-0.277,6.381,4.031,11.248
			c-0.522-3.541,0.424-8.718,1.957-13.812c0.968,4.167-2.146,7.821,2.159,12.502c0.46-4.6,2.06-7.882,7.951-9.485
			c-8.694,8.743-5.724,23.153-5.907,29.888c-0.188,6.739,1.138,77.696,0.763,87.051c-0.375,9.358,5.406,9.22,11.42,11.419
			c6.013,2.203,10.484,7.674,11.794,10.856c1.31,3.187-5.055-4.488-14.977-5.802c-9.922-1.31,3.562,9.176,7.49,10.861
			c3.929,1.68-1.872,3.365-5.618,1.68c-3.745-1.68,0.375,3.187,0.375,3.187s-5.617-0.75-6.552-2.247
			c-0.934-1.497-3.933,2.436-3.182,5.43c0.747,2.995-5.406-3.439-0.563-10.109c-0.013-3.582-8.475-2.415-8.475-2.415
			c-4.835,1.048-8.298,4.997,5.463,12.369c-9.159-0.734-17.846-5.475-16.992-5.634c0.563-0.106-4.316,3.211-6.083-4.271
			l-4.802,4.443l-0.375-6.178l-6.74,2.995l3.186-6.552c0,0-3.745-0.188-4.866,1.31c-1.126,1.497-1.126-5.99,4.492-6.554
			c5.613-0.558,17.285-4.03,19.844-18.158C368.263,378.283,364.693,321.188,364.693,321.188z"/>
		<path fill-rule="evenodd" clip-rule="evenodd" fill="#000002" d="M363.465,321.285c-0.73-9.282-2.563-15.821-4.871-20.711
			c-2.293-4.853-5.071-8.105-7.698-10.804c-0.89-0.912-0.979-1.618-0.38-2.206l0.004-0.004c0.82-0.8,1.941,0.09,3.582,1.377
			c2.705,2.134,7.617,6,7.81,5.867c0.167-0.118-0.906-0.699-2.583-3.092l1.827-1.625c0.76,0.677,1.53,1.623,2.27,2.527
			c0.885,1.087,1.708,2.099,1.77,2.095c0.013-0.002-0.073-1.301-0.358-5.222l-0.151-2.091l1.901,0.89l1.709,0.798l0.743,0.345
			l-0.032,0.812c0,0.015-0.144,3.395,1.518,6.987c0.049-0.606,0.121-1.23,0.211-1.866c0.363-2.558,1.025-5.336,1.849-8.078
			l2.383,0.077c0.392,1.689,0.208,3.205,0.028,4.725c-0.191,1.564-0.379,3.133,0.273,4.795c0.351-1.226,0.861-2.342,1.611-3.347
			c1.358-1.818,3.444-3.195,6.675-4.074l1.195,2.059c-6.609,6.65-6.07,17.039-5.695,24.239c0.098,1.816,0.184,3.44,0.143,4.819
			c-0.078,2.855,0.118,17.376,0.339,33.821c0.298,22.182,0.645,47.856,0.429,53.241c-0.273,6.85,3.275,7.927,7.584,9.236
			c1.008,0.302,2.048,0.616,3.027,0.979c2.807,1.024,5.287,2.713,7.303,4.568c2.574,2.371,4.414,5.052,5.205,6.977
			c0.519,1.258,0.323,1.991-0.578,2.359c-0.816,0.339-1.697-0.241-3.085-1.154c-2.419-1.592-6.936-4.57-12.61-5.317
			c-1.073-0.143-1.763-0.146-2.135-0.041c0.155,0.425,0.56,0.988,1.123,1.624c2.387,2.688,7.111,6.051,9.143,6.92
			c1.167,0.498,1.783,1.118,1.983,1.763c0.22,0.718,0.012,1.346-0.531,1.86c-0.33,0.311-0.795,0.563-1.346,0.746
			c-1.633,0.531-4.492,0.567-6.712-0.428v-0.004c-1.22-0.547,1.824,1.269,1.824,1.272l-1.114,2.011
			c-0.017-0.004-5.287-0.697-7.066-2.386c-0.139,0.13-0.285,0.306-0.432,0.513c-0.657,0.936-1.163,2.355-0.87,3.538
			c0.172,0.685,0.103,1.224-0.13,1.607c-0.607,0.995-1.57,0.983-2.554,0.049c-0.396-0.379-0.849-0.999-1.229-1.787
			c-0.11-0.22-0.212-0.457-0.31-0.705l-0.645,2.207c-6.435-0.515-12.651-2.954-15.671-4.505c-0.596-0.306-1.072-0.578-1.415-0.799
			c-0.185,0.069-0.393,0.135-0.617,0.188c-1.668,0.396-4.316,0.172-5.874-3.786l-3.366,3.112l-1.909,1.768l-0.155-2.595
			l-0.269-4.406l-5.117,2.276l-1.611-1.661l2.289-4.712c-0.771,0.103-1.554,0.311-1.877,0.742c-0.375,0.498-0.832,0.715-1.325,0.69
			c-0.869-0.041-1.408-0.764-1.474-1.881c-0.028-0.552,0.041-1.285,0.254-2.061c0.592-2.195,2.292-4.9,5.932-5.264
			c3.186-0.317,8.413-1.615,12.606-5.458c2.815-2.574,5.173-6.312,6.147-11.692C366.989,378.418,363.526,322.305,363.465,321.285
			L363.465,321.285L363.465,321.285z M360.82,299.521c2.429,5.138,4.35,11.96,5.101,21.573v0.02
			c0.013,0.168,3.582,57.231-1.142,83.321c-1.082,5.989-3.738,10.176-6.907,13.076c-4.692,4.292-10.498,5.74-14.022,6.092
			c-2.257,0.228-3.354,1.925-3.767,3.349c1.832-0.673,4.067-0.563,4.076-0.563l1.864,0.09l-0.812,1.676l-1.714,3.525l3.655-1.628
			l1.624-0.722l0.11,1.774l0.217,3.587l2.893-2.681l1.55-1.437l0.485,2.056c0.894,3.794,2.55,4.125,3.518,3.9
			c0.146-0.037,0.273-0.077,0.375-0.122c0.187-0.228,0.44-0.375,0.759-0.437l0,0c0.746-0.143,1.216,0.131,1.42,0.726
			c0.281,0.185,0.673,0.404,1.154,0.653c1.844,0.946,4.957,2.248,8.571,3.175c-1.705-1.241-2.885-2.371-3.643-3.391
			c-0.935-1.253-1.293-2.398-1.228-3.432c0.068-1.113,0.606-2.027,1.442-2.75c0.968-0.832,2.335-1.396,3.783-1.709l0.098-0.016
			c0.029-0.004,9.853-1.363,9.869,3.635l-0.232,0.722c-1.701,2.342-1.849,4.635-1.465,6.364c0.257-0.84,0.645-1.611,1.077-2.23
			c0.335-0.474,0.714-0.882,1.101-1.172c0.515-0.392,1.07-0.6,1.612-0.563c0.6,0.045,1.105,0.33,1.465,0.905
			c0.277,0.449,1.444,0.829,2.647,1.117c-1.506-2.316-2.533-5.009,2.986-2.524h0.004c1.42,0.637,3.179,0.71,4.398,0.469
			c-2.35-1.097-7.282-4.626-9.787-7.454c-0.787-0.885-1.367-1.742-1.628-2.504v0.004c-0.408-1.204-0.168-2.184,0.95-2.823
			c0.755-0.429,1.995-0.576,3.848-0.331c5.1,0.678,9.257,2.926,12.015,4.655c-0.779-1.064-1.771-2.191-2.934-3.264
			c-1.803-1.657-4.006-3.162-6.482-4.067c-1.02-0.376-1.971-0.665-2.893-0.942c-5.308-1.607-9.682-2.938-9.33-11.685
			c0.216-5.353-0.131-30.979-0.429-53.115c-0.221-16.478-0.416-31.031-0.339-33.919c0.037-1.253-0.049-2.844-0.139-4.627
			c-0.2-3.762-0.436-8.348,0.253-12.918l-1.832-1.994c-1.012-1.097-1.664-2.137-2.072-3.137c-0.086,1.269-0.069,2.429,0.082,3.438
			l-2.143,0.993c-2.08-2.354-3.169-5.033-3.732-7.268c-0.327,1.495-0.955,2.115-1.787,2.174c-0.587,0.045-1.159-0.226-1.723-0.682
			c-0.084,0.131-0.194,0.243-0.325,0.335c-0.857,0.6-2.778-0.286-4.888-1.634C359.263,296.49,360.066,297.921,360.82,299.521
			L360.82,299.521z M377.148,300.255l-0.225,2.228c0.486-2.93,1.367-5.841,2.897-8.515c-0.376,0.323-0.698,0.669-0.971,1.039
			C377.813,296.39,377.361,298.163,377.148,300.255L377.148,300.255z M376.401,441.688c-0.832-2.285-1.081-5.671,1.232-9.135
			c-0.616-1.648-6.233-0.987-6.948-0.894c-1.077,0.237-2.052,0.62-2.672,1.155c-0.351,0.302-0.575,0.648-0.596,1.035
			c-0.032,0.474,0.188,1.074,0.742,1.82C369.355,437.273,371.895,439.264,376.401,441.688z"/>
		<path fill-rule="evenodd" clip-rule="evenodd" fill="#000002" d="M355.26,231.292c-0.917-4.096-1.745-6.815-1.962-9.1
			c-0.555-5.897,0.103-10.707,2.211-13.047c0,0-0.538-0.045-1.485-0.188l-8.733-1.566l-3.538-2.411l-5.937-0.706l1.481-4.031
			l-7.775,0.245l0.073-5.589l-5.912,0.483l1.057-4.147l-5.132-0.854l1.154-5.151l-5.5-0.276l0.16-3.755l-4.852-0.28l2.016-5.506
			l-3.757-0.149l0.06-3.449c-2.329-0.279-5.711-3.566-5.385-5.52c-6.98-1.856-8.869-9.718-8.869-9.718
			c5.858,2.274,10.664,2.385,14.937,1.95c21.59-2.191,25.882,1.94,36.236,16.438c1.726,2.417,5.916,3.321,8.674,3.588
			c0.277-0.082,3.113-10.436,8.804-16.794c5.614-6.269,12.737-2.36,13.603,3.092c2.77,2.666,4.753,5.475,2.855,10.157
			c-0.958-2.619-4.329-5.175-5.851-3.51c-3.573,3.906,3.587,12.818,11.701,4.679c17.596-17.639,14.932-24.693,36.6-22.294
			c4.292,0.473,9.11,0.353,14.993-2.136c0,0-1.897,8.604-8.902,10.636c0.326,2.136-3.067,5.734-5.405,6.04l0.061,3.776l-3.769,0.163
			l2.022,6.026l-4.871,0.306l0.16,4.109l-5.517,0.301l1.159,5.636l-5.152,0.935l1.056,4.541l-5.932-0.53l0.077,6.116l-7.809-0.265
			l2.231,5.22l-5.956,0.773l-3.55,2.64l-10.566,0.067c2.007,3.643,4.365,7.195,4.974,14.157c5.617,0.834,16.727,2.111,26.645,4.716
			c8.991-1.048,13.814,2.909,13.137,6.399c0,0,10.648-3.508,11.113,6.436c3.513,0.585,11.464,0.353,10.648,11.585
			c5.97-0.704,11.766,20.256,0.701,19.185c1.575,6.42-17.313,7.018-22.463,2.575c-3.21-0.429-8.453,0.153-13.937,0.51
			c-2.872,3.366-8.67,6.129-13.071,9.112c-5.806,3.933-12.313,10.457-14.978,16.101c-0.746-5.616-1.276-5.518-3.182-6.177
			c-1.905-0.661-4.492,2.619-4.492,2.619c0.188-3.558,2.432-9.734,2.057-15.726c-0.18-2.854-0.358-5.582-0.738-8
			c-1.195,0.473-2.501,0.997-3.904,1.42c0.934,7.492,1.068,15.96-2.098,20.248c-0.889-5.551-2.729-9.325-4.618-12.654
			c-0.009,5.322-0.347,9.981-0.652,11.593c0.982,0.896,1.669,1.34,1.669,1.34c-0.617-0.299-1.208-0.605-1.771-0.919
			c-0.086,0.267-0.167,0.245-0.232-0.131c-4.758-2.692-7.625-5.81-8.245-8.494c-0.535-2.305-2.46-3.541-4.668-4.022
			c3.089,6.287,7.72,13.847,14.558,21.415c-4.052-4.792-8.988-6.455-15.07-15.579c-4.86-7.282-7.937-10.536-15.998-10.721
			c0.086,2.725-12.953,3.214-11.248-1.934c-1.387,1.254-4.034,2.333-6.172-0.194c0.285,3.958-5.37,5.461-6.871,5.414
			c-2.647-0.086-3.937-6.516-8.494-1.412c-18.135-16.03,5.391-32.593,11.358-28.965c1.285-3.392,2.396-9.879,6.667-11.113
			l4.679,6.434c0,0-2.337-10.53,10.53-8.188c-3.276-4.447,11.587-9.712,13.455-3.511
			C348.386,232.106,352.682,230.731,355.26,231.292L355.26,231.292z M364.122,225.097c2.085,1.159,7.065,1.539,6.482-2.545
			c-0.579-4.084-3.239-7.872-3.239-7.872L364.122,225.097L364.122,225.097z M406.307,273.863l-0.498,0.029
			c-1.908,0.104-3.826,0.171-5.675,0.146c-0.615,1.96-1.746,4.753-1.746,4.753C400.75,276.681,403.937,275.638,406.307,273.863
			L406.307,273.863z M398.877,274.008c-3.063-0.114-5.898-0.524-8.143-1.462c-0.294,2.963-1.779,7.005-2.828,8.869
			C386.328,284.216,395.401,278.172,398.877,274.008L398.877,274.008z M388.327,273.176c-2.316,1.267-5.973,1.724-8.657-1.677
			c-0.701-0.885-1.612-1.128-2.713-1.012c0.474,5.259,0.852,12.686-0.282,16.542C375.149,292.21,384.785,280.53,388.327,273.176
			L388.327,273.176z M365.778,273.863c-0.723,0.09-1.461,0.135-2.215,0.117c-0.507-0.013-0.988-0.045-1.44-0.094
			c0.061,0.985,0.105,1.981,0.138,2.974c1.526,0.58,3.366,1.744,3.366,1.744L365.778,273.863L365.778,273.863z M356.953,272.342
			c-1.366-0.671-2.615-1.459-4.006-2.181c0.809,2.271,1.514,5.088,1.824,8.443c0.619,6.681,4.157,11.111,6.486,13.351
			C360.964,287.849,359.071,279.114,356.953,272.342L356.953,272.342z M346.534,268.123c-0.89-0.11-1.865-0.176-2.938-0.176
			c0.697,2.34,1.88,5.796,3.773,9.941c0.999-0.388,2.179-0.608,3.093-0.359C352.271,278.021,349.589,272.133,346.534,268.123z"/>
		<path fill-rule="evenodd" clip-rule="evenodd" fill="#FFFFFF" d="M357.77,206.916c-1.094-1.483-2.962-3.739-4.361-4.021
			l4.658-9.519l-5.278-2.386c0.534,0.104,3.766-1.354,4.867-4.556c1.102-3.2-2.999-7.686,2.729-7.682
			c1.652,0.002-0.306-2.097-1.95-3.623c1.366-3.439,3.595-8.282,6.683-11.731c1.276-1.426,2.595-2.144,3.823-2.34
			c0.722-0.114,1.428-0.049,2.072,0.157c0.661,0.212,1.269,0.572,1.791,1.039c0.864,0.775,1.473,1.83,1.652,2.982l0.726,1.389
			c0.801,0.769,1.514,1.536,2.024,2.325c-0.054-0.022-0.11-0.045-0.163-0.067c-1.118-0.438-2.276-0.526-3.358-0.13h-0.013
			c-0.582,0.216-1.121,0.571-1.591,1.083c-1.88,2.054-2.007,4.847-0.877,7.254c0.474,1.007,1.171,1.948,2.049,2.725
			c0.187,0.166,0.383,0.324,0.587,0.473c1.795,5.059,4.598,9.818-2.763,12.131l7.03,7.607l-11.766,10.485
			c-0.388,3.882-3.044,9.6-4.725,13.953l-5.337,0.465c-0.261-1.138-0.453-2.113-0.53-2.959v-0.01
			c-0.266-2.801-0.237-5.318,0.114-7.381c0.286-1.699,0.771-3.004,1.477-3.786l3.211-3.568L357.77,206.916L357.77,206.916z
			 M369.409,164.402c-0.894,0-1.62,0.725-1.62,1.62c0,0.896,0.727,1.62,1.62,1.62s1.619-0.724,1.619-1.62
			C371.028,165.127,370.303,164.402,369.409,164.402L369.409,164.402z M376.255,182.535c17.421,6.375,21.692-23.657,43.111-24.236
			c2.774-0.083,9.318-0.518,12.354-1.036c-0.828-0.126-2.139-0.43-3.563-0.775c-2.219,0.161-4.278,0.061-6.233-0.155
			c-14.63-1.619-17.168,1.455-23.911,9.628c-2.681,3.251-5.965,7.231-10.673,11.952c-3.149,3.159-6.299,4.214-9.008,4.026
			C377.658,182.164,376.973,182.368,376.255,182.535L376.255,182.535z M354.085,181.676c-1.354-0.304-2.586-0.771-3.725-1.358
			c-0.763-0.2-1.525-0.447-2.251-0.749c-1.718-0.708-3.272-1.729-4.309-3.178c-4.953-6.938-8.433-11.383-13.007-13.704
			c-3.636-1.844-8.196-2.493-15.029-2.168c-2.212,0.483-5.374,1.34-6.822,1.561c2.62,0.451,8.278,0.828,10.673,0.899
			C338.121,163.48,339.031,187.204,354.085,181.676L354.085,181.676z M413.259,168.113c1.338-0.377,3.248-0.653,4.957,1.821
			l-0.024,0.006l-2.032,0.088C414.69,169.777,413.699,168.849,413.259,168.113L413.259,168.113z M406.409,176.848
			c1.383,0.072,3.284,0.42,4.112,3.309C407.841,179.928,406.662,178.035,406.409,176.848L406.409,176.848z M409.999,172.228
			c1.374-0.169,3.309-0.151,4.622,2.554C411.941,175.014,410.452,173.352,409.999,172.228L409.999,172.228z M399.976,187.59
			c1.261,0.373,2.908,1.095,3.189,3.722l-0.856-0.077l-0.302-0.028C400.419,190.193,399.951,188.587,399.976,187.59L399.976,187.59z
			 M393.941,191.302c-0.041,1.691,0.909,4.61,4.32,5.904l0.318,0.01C398.355,192.978,395.842,191.862,393.941,191.302
			L393.941,191.302z M388.168,196.156c-0.028,1.213,0.673,3.329,3.228,4.182C391.265,197.334,389.498,196.549,388.168,196.156
			L388.168,196.156z M383.443,200.388c-0.559,0.647-1.126,2.113-0.114,3.719C384.603,202.414,383.99,201.198,383.443,200.388
			L383.443,200.388z M338.537,188.793c-1.786-0.047-4.903,0.987-6.156,4.749C336.808,193.349,337.962,190.751,338.537,188.793
			L338.537,188.793z M332.438,184.761c-0.507,1.719-1.457,3.931-4.672,4.575l0.021-0.092l-1.326-0.222
			C327.812,185.66,330.732,184.718,332.438,184.761L332.438,184.761z M327.354,180.557c-0.354,1.201-1.057,2.786-3.692,2.964
			l0.139-0.604l-0.057-0.002C324.642,181.06,326.339,180.53,327.354,180.557L327.354,180.557z M325.707,175.671
			c-1.286,1.585-3.354,3.54-7.507,2.013C320.803,174.698,324.079,174.941,325.707,175.671L325.707,175.671z M319.224,171.014
			c-0.742,0.916-1.751,1.957-3.272,2.375l0.11-0.3l-3.382-0.134l-0.874-0.035C314.397,170.045,317.616,170.292,319.224,171.014
			L319.224,171.014z M382.844,188.749c0.938,0.275,2.183,0.831,2.272,2.946C383.316,191.095,382.823,189.604,382.844,188.749
			L382.844,188.749z M389.326,183.192c1.33,0.394,3.093,1.177,3.228,4.182C390,186.521,389.294,184.406,389.326,183.192
			L389.326,183.192z M402.354,168.67c1.367-0.241,3.293-0.322,4.748,2.309C404.434,171.353,402.863,169.77,402.354,168.67
			L402.354,168.67z M398.638,173.251c1.366-0.24,3.295-0.322,4.748,2.309C400.722,175.934,399.15,174.353,398.638,173.251
			L398.638,173.251z M395.96,175.926c1.33,0.394,3.093,1.177,3.224,4.182C396.63,179.255,395.928,177.14,395.96,175.926
			L395.96,175.926z M392.411,179.383c1.33,0.392,3.097,1.177,3.224,4.182C393.08,182.713,392.378,180.595,392.411,179.383
			L392.411,179.383z M323.291,166.889c-1.502,0.781-3.721,1.585-6.385-0.951C319.881,164.525,322.292,165.796,323.291,166.889
			L323.291,166.889z M352.584,190.972c-1.118-0.026-3.067,0.62-3.855,2.974C351.499,193.828,352.226,192.2,352.584,190.972
			L352.584,190.972z M349.3,187.27c-0.522,1.759-1.559,4.092-5.527,4.264C344.897,188.157,347.696,187.229,349.3,187.27
			L349.3,187.27z M344.947,184.259c-0.363,1.228-1.085,2.854-3.855,2.974C341.875,184.879,343.829,184.23,344.947,184.259
			L344.947,184.259z M340.549,181.018c-0.363,1.228-1.085,2.855-3.855,2.976C337.477,181.637,339.431,180.991,340.549,181.018
			L340.549,181.018z M337.076,177.313c-0.362,1.228-1.085,2.855-3.854,2.976C334.005,177.933,335.959,177.286,337.076,177.313
			L337.076,177.313z M334.694,173.82c-0.363,1.227-1.085,2.854-3.855,2.975C331.622,174.44,333.576,173.792,334.694,173.82
			L334.694,173.82z M332.426,170.071c-0.579,1.958-1.733,4.555-6.156,4.747C327.521,171.061,330.639,170.024,332.426,170.071
			L332.426,170.071z M327.824,167.913c-0.482,1.625-1.437,3.784-5.112,3.943C323.752,168.735,326.343,167.875,327.824,167.913
			L327.824,167.913z M371.959,219.813c0,0,4.063-0.202,6.691-0.07c-0.764-4.039-2.253-6.689-3.665-9.204
			c-0.179-0.324-0.357-0.645-0.619-1.115l-1.628-2.962c-1.926,1.396-6.026,4.512-5.226,5.226
			C368.557,212.613,371.727,218.77,371.959,219.813L371.959,219.813z M373.677,205.794h0.028l-0.013-0.01L373.677,205.794z"/>
		<path fill-rule="evenodd" clip-rule="evenodd" fill="#000002" d="M368.45,204.959c2.468-2.703,1.244-1.597,3.553-3.437
			c-1.313,2.609-0.521,1.193-2.464,4.202c-0.208,0.302-0.623,0.375-0.926,0.164C368.312,205.678,368.238,205.262,368.45,204.959
			L368.45,204.959z M363.176,181.69c0.966-1.628,5.16-9.645,6.2-5.966l0.009,0.004l-0.009,0.002
			c0.082,0.286,0.143,0.637,0.184,1.067c0.188,2.072,0.78,2.542,2.375,3.313c-2.326,0.119-2.933-1.962-3.133-3.863
			c-2.677,2.415-2.677,2.774-4.541,6.218c-0.217,0.3,0.852,0.371,0.551,0.155C364.51,182.404,362.959,181.989,363.176,181.69
			L363.176,181.69z M369.026,183.684c0.248-0.273,0.228-0.696-0.045-0.942c-0.273-0.247-0.694-0.227-0.943,0.045
			c-0.55,0.749-3.112,4.759-3.398,7.221c-1.754-1.977-3.855-4.879-5.482-6.658c0.171,0.297,5.861,10.105,6.891,8.582
			C366.524,191.225,363.991,190.087,369.026,183.684L369.026,183.684z M358.854,203.11c0.955-3.474,0.95-4.131,3.541-6.679
			c-1.518,3.05-1.659,3.687-2.243,6.979c-0.082,0.359-0.441,0.582-0.8,0.5C358.993,203.826,358.77,203.468,358.854,203.11
			L358.854,203.11z M366.822,201.292c0,0.367,0.298,0.665,0.67,0.665c0.366,0,0.664-0.298,0.664-0.665
			c-0.359-4.743-0.094-5.336,2.921-8.872C367.141,194.917,366.794,196.69,366.822,201.292L366.822,201.292z M362.461,208.952
			c-0.118,0.349,0.069,0.726,0.421,0.843c0.351,0.116,0.726-0.072,0.844-0.42c1.155-3.301,1.845-4.322,4.112-6.81
			C364.946,203.85,363.722,206.122,362.461,208.952L362.461,208.952z M370.759,199.207c0.339-4.583,0.058-2.478,0.739-6.334
			c0.575,3.868,0.347,1.761,0.595,6.334c0,0.37-0.301,0.667-0.668,0.667S370.759,199.577,370.759,199.207z"/>
		<path fill-rule="evenodd" clip-rule="evenodd" fill="#30A448" d="M297.576,264.837c-0.229-2.083,3.938-12.501,15.051-12.501
			c0.461-4.397,3.933-9.722,3.933-9.722l6.947,7.038c0,0-0.579-16.993,10.417-9.816c1.505-3.588,3.704-7.87,10.419-2.083
			c6.711,5.787,17.131,0.23,19.905-1.622c2.778-1.85,8.567-6.713,18.058-1.736c-8.103,0-12.383,7.292-11.921,12.154
			c-2.485-4.935-1.816-4.651-3.819-7.64c-2.265,1.587-10.068,11.111-24.307,6.599c0.807,2.083,0.807,6.827-2.318,8.449
			c-3.414-2.444-4.858-6.946-4.858-6.946s2.084,6.02-3.937,6.02c-0.927,1.736-1.041,7.523-8.335,4.861
			c-5.428,2.73-4.28,15.973-17.132,6.018C308.894,267.756,308.229,275.14,297.576,264.837z"/>
		<path fill-rule="evenodd" clip-rule="evenodd" fill="#4A8B40" d="M388.556,239.199c2.207,0,3.994,1.53,3.994,3.415
			c0,1.887-1.787,3.415-3.994,3.415c-2.203,0-3.994-1.528-3.994-3.415C384.562,240.729,386.353,239.199,388.556,239.199z"/>
		<ellipse fill-rule="evenodd" clip-rule="evenodd" fill="#3B6E35" cx="388.095" cy="230.749" rx="3.068" ry="1.621"/>
		<ellipse fill-rule="evenodd" clip-rule="evenodd" fill="#5E7D51" cx="399.032" cy="232.312" rx="3.819" ry="2.141"/>
		<ellipse fill-rule="evenodd" clip-rule="evenodd" fill="#588347" cx="411.3" cy="233.354" rx="3.473" ry="1.794"/>
		<ellipse fill-rule="evenodd" clip-rule="evenodd" fill="#325629" cx="417.032" cy="238.503" rx="5.268" ry="1.852"/>
		<ellipse fill-rule="evenodd" clip-rule="evenodd" fill="#4A6040" cx="409.392" cy="249.269" rx="2.835" ry="1.968"/>
		<ellipse fill-rule="evenodd" clip-rule="evenodd" fill="#4A8B40" cx="416.625" cy="247.359" rx="2.432" ry="1.91"/>
		<ellipse fill-rule="evenodd" clip-rule="evenodd" fill="#132313" cx="424.96" cy="242.845" rx="2.198" ry="1.794"/>
		<ellipse fill-rule="evenodd" clip-rule="evenodd" fill="#353638" cx="405.503" cy="242.718" rx="2.37" ry="1.506"/>
		<path fill-rule="evenodd" clip-rule="evenodd" fill="#141017" d="M387.621,251.006c1.853,0,3.354,0.829,3.354,1.851
			c0,1.024-1.501,1.854-3.354,1.854c-1.855,0-3.357-0.83-3.357-1.854C384.264,251.834,385.766,251.006,387.621,251.006z"/>
		<ellipse fill-rule="evenodd" clip-rule="evenodd" fill="#6B8060" cx="377.504" cy="248.286" rx="2.778" ry="1.794"/>
		<ellipse fill-rule="evenodd" clip-rule="evenodd" fill="#75986F" cx="369.629" cy="251.063" rx="2.664" ry="1.447"/>
		<ellipse fill-rule="evenodd" clip-rule="evenodd" fill="#7C9D79" cx="355.509" cy="251.931" rx="2.893" ry="1.737"/>
		<ellipse fill-rule="evenodd" clip-rule="evenodd" fill="#162614" cx="341.735" cy="258.992" rx="2.313" ry="1.62"/>
		<ellipse fill-rule="evenodd" clip-rule="evenodd" fill="#122012" cx="349.202" cy="254.825" rx="2.256" ry="1.273"/>
		<ellipse fill-rule="evenodd" clip-rule="evenodd" fill="#162212" cx="400.885" cy="248.633" rx="1.62" ry="1.447"/>
		<path fill-rule="evenodd" clip-rule="evenodd" fill="#151F11" d="M394.748,247.532c0.833,0,1.506,0.544,1.506,1.216
			c0,0.671-0.673,1.215-1.506,1.215c-0.827,0-1.505-0.544-1.505-1.215C393.243,248.077,393.921,247.532,394.748,247.532z"/>
		<path fill-rule="evenodd" clip-rule="evenodd" fill="#697C61" d="M435.379,257.72c1.469,0,2.66,0.932,2.66,2.083
			c0,1.15-1.191,2.083-2.66,2.083c-1.473,0-2.664-0.933-2.664-2.083C432.715,258.651,433.906,257.72,435.379,257.72z"/>
		<ellipse fill-rule="evenodd" clip-rule="evenodd" fill="#C2C1BD" cx="437.056" cy="266.238" rx="2.374" ry="2.546"/>
		<ellipse fill-rule="evenodd" clip-rule="evenodd" fill="#253F1C" cx="438.271" cy="254.305" rx="2.2" ry="2.026"/>
		<path fill-rule="evenodd" clip-rule="evenodd" fill="#11170C" d="M431.613,246.029c1.122,0,2.028,0.673,2.028,1.503
			c0,0.833-0.906,1.505-2.028,1.505c-1.117,0-2.023-0.673-2.023-1.505C429.59,246.702,430.496,246.029,431.613,246.029z"/>
		<ellipse fill-rule="evenodd" clip-rule="evenodd" fill="#365B2B" cx="381.38" cy="236.826" rx="1.563" ry="1.331"/>
		<path fill-rule="evenodd" clip-rule="evenodd" fill="#475949" d="M358.287,227.509c0.449,0,0.813,1.45,0.813,3.239
			c0,1.791-0.363,3.242-0.813,3.242c-0.443,0-0.808-1.451-0.808-3.242C357.479,228.959,357.844,227.509,358.287,227.509z"/>
		<ellipse fill-rule="evenodd" clip-rule="evenodd" fill="#394F3B" cx="415.005" cy="254.536" rx="1.04" ry="2.141"/>
	</g>
</g>
</svg>
