<?xml version="1.0" encoding="UTF-8"?>
<svg id="Calque_2" data-name="Calque 2" xmlns="http://www.w3.org/2000/svg" viewBox="0 0 396 700">
  <defs>
    <style>
      .cls-1 {
        fill: #d50032;
      }

      .cls-2 {
        fill-rule: evenodd;
      }

      .cls-2, .cls-3 {
        fill: #fff;
      }

      .cls-4 {
        fill: #6bace4;
      }

      .cls-5 {
        fill: #c09a50;
      }
    </style>
  </defs>
  <g id="Capa_1" data-name="Capa 1">
    <g>
      <g id="g4538">
        <g id="g4382">
          <path id="path26" class="cls-1" d="M209.45,345.55c-4.44.75-8.27,3.37-12.7,4.15-2.3-.08-4.58-.34-6.87-.47-3.86-.09-7.64.81-11.24,2.15,2.32,11.7-.63,24.44-8.3,33.79-6.11,7.67-15.07,12.55-24.34,15.51,16.72,96.33,33.56,192.63,50.33,288.95.59,3.47,1.15,6.94,1.97,10.37,10.04-56.46,19.68-112.99,29.56-169.48,7.55-43.52,15.17-87.03,22.67-130.56-10.15-3.06-19.9-8.58-26-17.34-7.62-10.63-9.48-24.95-5.02-37.25-3.35-.11-6.73-.38-10.05.18h0Z"/>
          <path id="path5" class="cls-1" d="M198.77,145h15.77c.03-28.45,1.1-63.57,6.59-65.89,6.64-2.81,13.51,1.08,8.63,10.78-5.37,10.68-2.41,18.24,8.19,19.3,8.63.86,20.4-.91,26.34-21.45,7.11-24.59-9.2-30.62-35.76-55.75C205.04,9.78,198.77,0,198.77,0c0,0-6.27,9.78-29.76,32-26.56,25.12-42.87,31.15-35.76,55.74,5.94,20.55,17.71,22.32,26.34,21.45,10.6-1.06,13.56-8.62,8.19-19.3-4.88-9.7,2-13.6,8.63-10.79,5.49,2.32,6.56,37.44,6.59,65.89h15.77Z"/>
          <path id="path7" class="cls-1" d="M21.42,232.74c2.33,2.12,5.4,3.4,8.77,3.39,5.56,0,10.31-3.51,12.26-8.47,2.73,0,11.28.06,16.09.37,5.77.36,10.09.36,3.24,5.47l-3.31,2.5c-4.54,2.81-8.15,7.01-10.29,12.03-.3.68-.58,1.39-.84,2.13-.35,1.03-.61,2.08-.78,3.16-.33,1.67-.5,3.4-.5,5.17,0,14.05,10.79,25.52,24.36,26.25,1.71.16,3.46.1,5.22-.22.62-.11,1.22-.24,1.82-.39,2.65-.66,5.09-1.68,8-3.36l.72-.47c12.92-8.23,18.95-24.57,18.95-24.57,0,0-3.12,1.67-16.67,4.39-10.07,2.02-16.35-2.72-14.78-12.4,2.35-14.56,21.63-18.24,21.63-18.24h33.8s0-27.63,0-27.63h-33.8s-19.29-3.68-21.64-18.24c-1.56-9.68,4.71-14.42,14.78-12.4,13.55,2.72,16.67,4.39,16.67,4.39,0,0-6.04-16.34-18.95-24.57l-.72-.47c-2.9-1.67-5.35-2.7-7.99-3.36-.6-.15-1.2-.28-1.82-.39-1.76-.31-3.51-.37-5.22-.22-13.57.73-24.36,12.2-24.36,26.25,0,1.77.17,3.5.5,5.17.17,1.08.43,2.13.79,3.16.26.75.54,1.45.84,2.14,2.13,5.01,5.75,9.22,10.29,12.03l3.3,2.5c6.85,5.1,2.52,5.1-3.25,5.47-4.81.31-13.36.35-16.09.36-1.95-4.96-6.7-8.47-12.26-8.47-3.36,0-6.43,1.28-8.76,3.4-3.72,3.06-6.03,7.56-8.86,10.58-3.3,3.53-7.43,6.42-12.56,6.48,5.13.06,9.26,2.96,12.56,6.48,2.83,3.02,5.13,7.52,8.86,10.58h0Z"/>
          <path id="path9" class="cls-1" d="M374.58,232.74c-2.33,2.11-5.4,3.4-8.76,3.39-5.56,0-10.31-3.5-12.26-8.47-2.73.01-11.28.06-16.09.37-5.77.36-10.1.36-3.25,5.47l3.31,2.5c4.54,2.81,8.15,7.01,10.29,12.03.3.68.58,1.39.84,2.13.35,1.03.61,2.08.79,3.16.33,1.67.5,3.4.5,5.17,0,14.05-10.79,25.52-24.36,26.25-1.71.16-3.46.1-5.22-.22-.62-.11-1.22-.24-1.82-.39-2.65-.66-5.09-1.69-8-3.36l-.71-.47c-12.92-8.23-18.96-24.57-18.96-24.57,0,0,3.12,1.67,16.67,4.39,10.07,2.02,16.34-2.72,14.78-12.4-2.35-14.56-21.64-18.24-21.64-18.24h-33.8s0-27.63,0-27.63h33.8s19.28-3.68,21.64-18.23c1.56-9.68-4.71-14.42-14.78-12.4-13.56,2.73-16.67,4.39-16.67,4.39,0,0,6.04-16.34,18.96-24.57l.71-.47c2.9-1.67,5.35-2.7,7.99-3.36.6-.15,1.2-.27,1.82-.39,1.77-.31,3.51-.37,5.22-.22,13.57.73,24.36,12.2,24.36,26.25,0,1.77-.17,3.5-.5,5.17-.17,1.08-.43,2.13-.78,3.16-.26.75-.54,1.46-.84,2.13-2.13,5.02-5.75,9.22-10.29,12.03l-3.3,2.5c-6.85,5.11-2.52,5.11,3.25,5.47,4.8.3,13.36.35,16.09.36,1.95-4.96,6.7-8.47,12.26-8.47,3.36,0,6.43,1.28,8.76,3.4,3.72,3.06,6.03,7.56,8.86,10.58,3.3,3.53,7.43,6.42,12.56,6.48-5.13.06-9.26,2.96-12.56,6.48-2.83,3.02-5.13,7.52-8.86,10.58h0Z"/>
        </g>
        <g id="g4404">
          <g id="path13">
            <path class="cls-3" d="M195.79,379.6c-16.06-8.64-34.3-19.72-47.83-36.35-32.39-39.82-50.89-102.41-47.13-159.47l.31-4.67h193.99s.35,4.62.35,4.62c4.23,55.53-14.74,119.64-47.2,159.52-13.56,16.66-30.96,27.32-47.75,36.35l-2.37,1.27-2.37-1.28Z"/>
          </g>
          <path id="path13-2" data-name="path13" class="cls-4" d="M290.49,184.11H105.82c-3.47,52.64,12.76,115.09,46.02,155.99,12.52,15.4,29.16,25.87,46.32,35.1,17.38-9.35,33.55-19.51,46.24-35.1,32.64-40.1,50.05-104.03,46.09-155.99h0Z"/>
        </g>
        <g id="g4477">
          <g id="g4471">
            <path id="path19" class="cls-5" d="M248.98,169.21c2.29-1.4,5.49-4.1,7.35-6.62.15-1.92-.37-4.19-1.66-6.67-3.87-7.44-13.17-13.9-20.87-14.53-8.64-6.94-22.81-10.86-33.13-8.9-.85.16-1.64.36-2.39.59-.75-.23-1.54-.43-2.39-.58-10.32-1.96-24.49,1.96-33.13,8.89-7.69.63-17,7.08-20.87,14.53-1.29,2.48-1.81,4.75-1.66,6.67,1.87,2.52,5.06,5.23,7.36,6.62,24.2-10.69,26.44-13.17,50.68-13.17,20.22,0,23.78,2.39,50.69,13.17h0Z"/>
            <path id="path21" class="cls-5" d="M157.11,125.92c-31.87-7.88-28.9,40.83-9.33,48.11l1.33,3.51c12.74-1.67,34.46-2.59,49.18-2.59,20.39,0,31.74,1.77,47.91,4.84l2.73-5.8c19.46-7.45,22.35-55.93-9.46-48.07-2.64-13.38-15.27-23.07-41.18-11.25-25.91-11.82-38.54-2.13-41.18,11.25ZM138.32,146c.73-8.9,10.1-21.84,18.26-14.96,0,7.97,2.55,9.92,3.59,15,1.5,7.29,2.29,16.35-10.42,15.74-.81-.04-12.74.08-11.43-15.77ZM194.37,117.81c-2.67,7.1-3.74,17.15-2.42,24.63.32,1.8.4,3.73-1.38,4.62-30.22,15.13-38.92-48.75,3.81-29.25h0ZM206.01,147.06c-1.78-.89-1.7-2.82-1.38-4.62,1.32-7.48.24-17.52-2.42-24.62,42.73-19.51,34.03,44.38,3.81,29.24ZM236.41,146.03c1.04-5.07,3.59-7.03,3.59-14.99,8.16-6.88,17.53,6.06,18.26,14.96,1.31,15.85-10.62,15.73-11.43,15.77-12.71.62-11.91-8.44-10.42-15.73ZM198.24,114.81l.06-.11-.06.11Z"/>
            <path id="path23" class="cls-5" d="M249.98,175.92c-27.37-19.31-75.55-19.32-102.91,0l7.16,12.11c-.44.43-.43,1.12.2,1.69.17.26.43.44.78.44h.18c.35,0,.69-.18,1.12-.44,2.51-1.24,4.94-2.3,7.36-3.27,3.46-1.42,6.76-2.56,9.87-3.36,3.55-.98,6.85-1.68,9.96-2.12,3.64-.53,7.02-.8,9.87-.8,1.91-.09,3.55-.09,4.94,0,1.47-.09,3.12-.09,5.03,0,2.86,0,6.06.27,9.79.8,3.03.44,6.41,1.15,9.96,2.12,3.12.79,6.41,1.95,9.87,3.27,2.43.98,4.85,2.12,7.37,3.36.34.27.78.44,1.12.44h.26c.26,0,.52-.18.69-.44.26-.27.43-.53.43-.8v-.26c0-.23-.07-.45-.23-.63l7.16-12.11h0Z"/>
            <path id="path25" class="cls-5" d="M194.29,96.71l1.3,4.51-3.81-1.33v7.88s3.81-1.33,3.81-1.33l-1.3,6.19h7.71s-1.3-6.19-1.3-6.19l3.81,1.33v-7.88s-3.81,1.33-3.81,1.33l1.3-4.6h-7.71s0,0,0,.09h0Z"/>
          </g>
          <g id="g4262">
            <path id="path27" class="cls-3" d="M212.84,150.79c.26.35.52.62.88.8.1.07.22.13.34.18-.25.47-.56.94-.87,1.33-1.65,2.13-4.33,3.54-8.14,2.92-4.06-.58-5.48-4.28-5.86-5.57,1.27-.27,2.31-1.16,2.79-2.33.08.56.29,1.41.9,2.14.26.44.61.98.96,1.51.17.26.35.61.52.88.17.35.26.7.43.97.18.36.44.62.61.8.09.18.26.27.43.26.09.09.26.09.61.09.09,0,.26-.09.35-.18.35-.18.69-.71.69-1.24,0-.62.17-1.77.35-2.48.18-.35.52-.62.87-.97.43-.44.87-1.06.95-2.12v-.53c-.09-1.24-.52-1.86-.95-2.3-.17-.18-.43-.44-.52-.62-.17-.35.35-2.22.35-2.92,0-.62-.43-1.24-.87-1.42-.26,0-.61.09-.87.26-.44.18-.78.44-1.04.8-.26.53-.52.97-.95,1.24-.09.18-.26.26-.43.35-.26.18-.35.26-.52.44-.43.36-.69.62-.95.89-.09.09-.17.18-.26.35-.25.29-.43.66-.54,1.04-.42-1.3-1.47-2.29-2.78-2.61l.46-.11c1.47-.35,2.17-1.06,2.86-1.77.69-.71.69-1.24,1.73-1.6q1.04-.35,1.39-.71c.35-.35.26-1.15,0-1.42-.35-.35-1.04-.71-2.08-.53q-.69.18-1.39.53c-.69.35-.87.18-1.3-.18-.26-.36-.69-1.24-1.38-1.59-.69-.35-1.21-.35-1.21-.35,0,0-.52,0-1.21.35-.61.36-1.04,1.24-1.39,1.59-.35.35-.52.53-1.21.18q-.69-.35-1.38-.53c-1.04-.18-1.74.18-2.08.53-.26.27-.35,1.06,0,1.42q.35.35,1.39.71c1.04.35,1.04.89,1.73,1.59.69.71,1.39,1.42,2.77,1.77l.48.12c-1.29.33-2.34,1.36-2.73,2.68-.11-.41-.27-.8-.52-1.11-.52-.62-.69-.88-1.73-1.68-.61-.44-1.04-.89-1.39-1.59-.17-.44-1.21-1.06-1.9-1.06-.35,0-.87.71-.87,1.42,0,.71.52,2.57.34,2.92-.35.71-1.56,1.06-1.56,3.19,0,2.12,1.56,2.65,1.9,3.36.17.26.35,1.77.35,2.48,0,.71.69,1.42,1.04,1.42.35,0,.69,0,1.04-.35.35-.36.69-1.07,1.04-1.77.34-.71,1.04-1.86,1.56-2.48.53-.65.73-1.49.82-2.05.48,1.16,1.49,2.04,2.71,2.32-.37,1.29-1.78,4.99-5.78,5.58-3.99.62-6.67-.8-8.23-2.92-.3-.39-.61-.84-.85-1.3,1.26-.59,2.15-1.89,2.15-3.38,0-2.04-1.65-3.72-3.64-3.72-2.08,0-3.64,1.68-3.64,3.72,0,1.87,1.32,3.45,3.15,3.68-.44,4.85-6.69,8.98-12.08,6.31-1.05-.53-2.14-1.37-3.1-2.55.4-.38.7-.87.84-1.41.23.11.52.21.87.33.78.35,1.13.35,1.91.97.78.53,1.04.62,2.25,1.42.26.18.78.71,1.3.8,1.04.09,1.82-1.06,1.3-1.94-.26-.62-.18-.89-.69-1.42-.52-.53-.09-1.33,0-1.77.52-2.03-.26-2.92-.69-3.54-.78-1.33-2.08-1.24-2.08-1.95,0-1.95-.52-2.3-.87-2.48-.35-.18-1.65-.09-1.82,2.04-.09,1.06-.17,1.95-.61,2.83-.27.62-.95,1.39-1.32,2.28-.53-.74-1.37-1.22-2.5-1.22l.53-.36c1.04-.79,1.39-1.41,1.73-2.3.34-.89.52-1.15.78-2.21.09-.18.61-.79.78-1.24.17-.44,0-1.06-.26-1.24-.44-.18-1.04-.27-1.82.26-.61.35-.43.35-.87.97-.52.53-.86.09-1.3-.09-.35-.18-.87-.26-1.47-.26-.69-.09-.87.09-.87.09,0,0-.96.18-1.47.71-.43.53-.43.89-.61,1.33-.17.44-.26,1.15-1.04,1.15q-.69-.09-1.39,0c-.95.26-1.56.62-1.73,1.06-.17.26.26.97.61,1.24q.43.18,1.47.09c1.04-.09,1.21.35,1.99.71.87.35,1.73.97,3.03.7l.41-.06c-.72.54-1.19,1.4-1.36,2.45-.78-.26-1.12-.62-1.99-1.15-.78-.53-1.21-1.33-2.25-1.68-.17-.09-.95-.26-1.38-.26-1.04,0-1.47.97-.95,1.86.35.53.35.35.95.8.52.53.18,1.24.09,1.68-.26,2.04.34,2.66.78,3.27.87,1.24,2.08,1.59,1.99,2.3-.26,1.77.61,2.74,1.04,2.92.26.09,1.64-.09,1.64-2.21,0-.97,0-2.3.35-3.18.35-.89.87-.89.88-2.25.51.46,1.17.75,1.97.75,0,6.23-5.08,8.97-9.87,8.14-1.24-.23-2.48-.64-3.56-1.29.33-.46.53-1.03.53-1.64,0-1.5-1.21-2.74-2.69-2.74-1.47,0-2.68,1.24-2.68,2.74,0,1.51,1.21,2.75,2.69,2.74.24,0,.47-.03.7-.1.62,5.4-3.7,9.19-8.73,6.07.28-.35.46-.79.49-1.27.79.29,3.15,1.14,3.73,1.14.69,0,.87-.53.87-.89,0-.35-.34-.71-.69-1.06-.35-.35-.17-1.59-.52-2.39-.35-.71-.52-.7-1.21-1.06-.69-.36-.7-.18-1.04-.53-.26-.18-.52-.71-.52-1.06s-.35-.53-.35-.53c0,0-.52-.18-.87.18-.34.35-.35.88-.35,1.24,0,.57-.09,2.12-.14,2.93-.32-.18-.68-.28-1.07-.28h-.24c-.1-.68-.28-2.06-.28-2.83,0-1.06.17-.89-.17-1.24-.35-.35-.87-.17-1.21.18-.35.35-1.21,1.95-1.9,1.95-1.04,0-.87-.18-1.56.18-.69.35-2.08,1.86-2.08,2.57,0,.71,0,.36.34.71.35.35,2.08-.18,3.47.18.57.14,1.08.26,1.47.53,0,0,.69.44,1.47,1.06.87.71,1.13,1.06,1.13,1.06.1-.02.2-.05.29-.08,1.15,1.46,3.05,2.57,5.34,2.73h.78c.95-.09,1.99-.26,3.03-.71,2.95-1.24,2.43-6.2,2.43-6.99.78.71,1.9,1.15,3.12,1.42,2.08.44,4.59.26,7.02-.62,3.81-1.5,4.5-6.81,4.51-8.23.17.53,1.47,1.68,3.29,2.56,2,.97,4.59,1.68,6.93.97,3.9-1.06,5.11-3.72,6.84-6.19.26.35.61.79,1.13,1.15,1.65,1.42,4.42,3.01,7.36,2.74,3.98-.35,6.76-4.42,7.45-5.48.69,1.06,3.55,5.13,7.54,5.49,2.86.26,5.63-1.33,7.28-2.65.52-.44.86-.88,1.12-1.24,1.73,2.48,2.95,5.13,6.76,6.19,2.34.71,5.02,0,7.02-.98,1.82-.88,3.12-2.03,3.29-2.56,0,1.42.69,6.73,4.5,8.23,2.43.89,4.94,1.06,7.02.62,1.21-.26,2.34-.71,3.03-1.42,0,.8-.52,5.75,2.51,6.99,1.04.44,2.08.62,3.03.71h.78c2.28-.17,4.18-1.28,5.34-2.74.09.03.19.06.29.08,0,0,.26-.35,1.13-1.06.78-.62,1.47-1.06,1.47-1.25.4-.09.91-.2,1.48-.34,1.38-.36,3.12.18,3.46-.18.35-.35.35,0,.35-.71s-1.38-2.21-2.08-2.56c-.69-.35-.52-.18-1.56-.18-.69,0-1.56-1.59-1.91-1.95-.35-.36-.87-.53-1.21-.18-.35.35-.17.18-.17,1.24,0,.77-.18,2.15-.28,2.84h-.24c-.39-.01-.76.09-1.07.27-.05-.81-.14-2.36-.14-2.94,0-.35,0-.88-.35-1.24-.34-.35-.87-.18-.87-.18,0,0-.35.18-.34.53,0,.35-.26.89-.52,1.06-.35.36-.35.18-1.04.53-.69.35-.87.35-1.21,1.06-.35.8-.17,2.04-.52,2.39-.35.35-.69.71-.69,1.06,0,.35.17.88.87.88.58,0,2.94-.85,3.73-1.14.02.48.2.92.49,1.27-5.03,3.13-9.42-.67-8.74-6.06.23.06.47.09.71.09,1.47,0,2.69-1.24,2.69-2.74,0-1.51-1.21-2.74-2.69-2.74-1.56,0-2.77,1.24-2.77,2.74,0,.61.2,1.18.54,1.63-1.07.65-2.25,1.07-3.49,1.29-4.78.75-9.95-1.92-9.79-8.14.68,0,1.32-.26,1.82-.62.09,1.24.61,1.24.95,2.12.35.88.35,2.21.35,3.19,0,2.12,1.39,2.3,1.65,2.21.43-.18,1.3-1.15,1.04-2.92-.09-.71,1.13-1.06,1.99-2.3.43-.62,1.04-1.24.78-3.28-.08-.44-.43-1.15.09-1.68.61-.44.6-.26.95-.8.43-.89.09-1.86-.95-1.86-.43,0-1.21.18-1.47.27-.95.35-1.38,1.15-2.16,1.68-.87.53-1.21.89-2.16,1.06,0-.96-.47-1.83-1.19-2.36l.41.06c1.3.26,2.16-.35,2.94-.71.87-.35,1.04-.8,2.08-.71q1.04.09,1.39-.09c.43-.27.87-.97.69-1.24-.17-.44-.87-.8-1.82-1.06q-.61-.09-1.3,0c-.78,0-.87-.71-1.04-1.15-.18-.44-.18-.8-.61-1.33-.52-.53-1.47-.71-1.47-.71,0,0-.17-.18-.87-.09-.61,0-1.13.09-1.56.27-.35.18-.78.62-1.21.09-.52-.62-.35-.62-.87-.97-.87-.53-1.39-.44-1.82-.27-.26.18-.43.8-.26,1.24.17.44.69,1.06.78,1.24.26,1.06.43,1.33.78,2.21.35.89.69,1.5,1.74,2.3l.34.35c-.94,0-1.78.48-2.31,1.21-.21-.5-.53-.98-.81-1.39-.26-.35-.43-.62-.61-.88-.26-.62-.43-1.33-.43-2.21-.09-.18-.09-.44-.09-.62-.09-1.24-.61-1.77-1.04-1.95-.34-.18-.69-.18-.78-.09-.09.09-.17.09-.26.18-.35.27-.61.71-.61,2.3,0,.26-.17.44-.43.53-.35.18-.69.36-1.12.71-.17.18-.35.35-.61.71-.09.18-.26.44-.44.8-.26.62-.52,1.42-.26,2.74.09.26.26.53.26.88,0,.18.09.27,0,.44,0,.18-.09.35-.26.44-.43.53-.35.8-.69,1.42-.35.8.17,1.68.95,1.86.09.09.17.09.43.09.18-.09.43-.18.61-.26.35-.18.52-.44.69-.53.17-.09.26-.18.43-.27.43-.35.78-.44,1.04-.62.26-.18.43-.35.78-.53.09-.09.17-.18.26-.18.43-.26.78-.44,1.12-.53l.52-.27c.17-.09.35-.09.52-.17l.35-.15c.14.53.43,1.01.82,1.39-.97,1.18-2.03,2.03-3.08,2.56-5.38,2.67-11.7-1.45-12.1-6.3.16-.03.3-.09.49-.16.26,0,.61-.18.87-.35.35-.18.69-.44.95-.71.52-.62.78-1.33.87-2.21v-.27s0-.26,0-.26c-.09-.88-.35-1.59-.87-2.21-.26-.27-.61-.53-.96-.8-.26-.18-.6-.26-.87-.35-.35-.09-.6-.09-.95-.09s-.61,0-.86.09c-.35.09-.69.26-.95.35-.35.27-.61.53-.87.8-.6.71-.95,1.51-.95,2.48,0,.88.35,1.77.95,2.39h0Z"/>
            <path id="path31" class="cls-3" d="M156.01,141.67c0,2.48,1.99,4.6,4.51,4.6,2.51,0,4.5-2.12,4.5-4.6,0-2.57-1.99-4.69-4.51-4.69-2.51,0-4.5,2.13-4.5,4.69h0Z"/>
            <path id="path33" class="cls-3" d="M162.42,120.69c2.43,0,4.33-2.03,4.33-4.51,0-2.39-1.91-4.43-4.33-4.42-2.43,0-4.42,2.03-4.42,4.42,0,2.48,1.99,4.51,4.42,4.51Z"/>
            <path id="path35" class="cls-3" d="M168.49,114.85c1.91,0,3.38-1.5,3.38-3.45,0-1.86-1.47-3.45-3.38-3.45s-3.38,1.59-3.38,3.45c0,1.95,1.56,3.45,3.38,3.45Z"/>
            <path id="path37" class="cls-3" d="M174.73,112.72c1.82,0,3.29-1.41,3.29-3.27,0-1.77-1.47-3.27-3.29-3.27s-3.21,1.5-3.2,3.27c0,1.86,1.47,3.27,3.2,3.27Z"/>
            <path id="path39" class="cls-3" d="M180.88,112.02c1.47,0,2.68-1.24,2.68-2.74s-1.21-2.74-2.69-2.74c-1.47,0-2.68,1.24-2.68,2.74,0,1.5,1.21,2.74,2.69,2.74Z"/>
            <path id="path41" class="cls-3" d="M186.25,112.55c1.47,0,2.69-1.24,2.68-2.74,0-1.5-1.21-2.74-2.69-2.74-1.47,0-2.68,1.24-2.68,2.74,0,1.5,1.21,2.75,2.69,2.74Z"/>
            <path id="path43" class="cls-3" d="M190.75,113.35c1.13,0,1.99-.97,1.99-2.12,0-1.15-.87-2.04-1.99-2.04-1.13,0-1.99.89-1.99,2.03,0,1.15.87,2.13,1.99,2.13Z"/>
            <path id="path45" class="cls-3" d="M194.22,114.59c.95,0,1.73-.8,1.73-1.77,0-.88-.78-1.68-1.73-1.68-.87,0-1.65.8-1.65,1.68,0,.97.78,1.77,1.64,1.77Z"/>
            <path id="path47" class="cls-3" d="M198.38,117.33c1.56,0,2.68-1.15,2.68-2.74,0-1.51-1.12-2.74-2.68-2.74-1.47,0-2.69,1.24-2.69,2.74,0,1.59,1.21,2.74,2.69,2.74Z"/>
            <path id="path49" class="cls-3" d="M198.37,123.7c1.73,0,3.21-1.42,3.21-3.19,0-1.77-1.47-3.18-3.2-3.18-1.73,0-3.12,1.41-3.12,3.18,0,1.77,1.38,3.19,3.12,3.19Z"/>
            <path id="path51" class="cls-3" d="M194.57,127.51c0,2.21,1.73,3.89,3.81,3.9,2.17,0,3.9-1.68,3.9-3.89,0-2.12-1.73-3.89-3.9-3.89-2.08,0-3.81,1.77-3.81,3.89h0Z"/>
            <path id="path53" class="cls-3" d="M198.38,141.23c2.69,0,4.94-2.21,4.94-4.95,0-2.75-2.25-4.96-4.94-4.96-2.69,0-4.85,2.21-4.85,4.95,0,2.74,2.17,4.95,4.85,4.96Z"/>
            <path id="path55" class="cls-3" d="M137.56,167.59c2.25,0,3.98-1.86,3.98-4.16,0-2.21-1.73-4.07-3.99-4.07-2.25,0-4.07,1.86-4.07,4.07,0,2.3,1.82,4.16,4.07,4.16Z"/>
            <path id="path57" class="cls-3" d="M129.33,155.82c0,2.57,2.08,4.6,4.59,4.6,2.42,0,4.5-2.04,4.5-4.6,0-2.57-2.08-4.6-4.5-4.6-2.51,0-4.59,2.04-4.59,4.6h0Z"/>
            <path id="path59" class="cls-3" d="M127.95,147.51c0,2.3,1.91,4.25,4.25,4.25,2.25,0,4.16-1.94,4.16-4.25,0-2.39-1.91-4.25-4.16-4.25-2.34,0-4.24,1.86-4.25,4.25h0Z"/>
            <path id="path61" class="cls-3" d="M133.4,143.43c2.08,0,3.81-1.77,3.81-3.98,0-2.12-1.73-3.89-3.81-3.89-2.17,0-3.81,1.77-3.81,3.89,0,2.21,1.65,3.98,3.81,3.98Z"/>
            <path id="path63" class="cls-3" d="M136.35,136.62c1.91,0,3.46-1.59,3.46-3.54s-1.56-3.54-3.46-3.54c-1.91,0-3.47,1.59-3.47,3.54,0,1.95,1.56,3.54,3.47,3.54Z"/>
            <path id="path65" class="cls-3" d="M140.85,131.4c1.65,0,3.03-1.42,3.03-3.1,0-1.68-1.39-3.1-3.03-3.1-1.65,0-3.03,1.42-3.03,3.1,0,1.68,1.38,3.1,3.03,3.1Z"/>
            <path id="path67" class="cls-3" d="M146.05,128.39c1.47,0,2.68-1.24,2.68-2.74s-1.21-2.74-2.68-2.74c-1.47,0-2.69,1.24-2.69,2.74,0,1.5,1.21,2.74,2.69,2.74Z"/>
            <path id="path69" class="cls-3" d="M151.08,126.98c1.3,0,2.42-1.06,2.43-2.39,0-1.33-1.13-2.39-2.43-2.39-1.3,0-2.34,1.06-2.34,2.39,0,1.33,1.04,2.39,2.34,2.39Z"/>
            <path id="path71" class="cls-3" d="M236.24,146.27c2.51,0,4.5-2.12,4.51-4.6,0-2.57-1.99-4.69-4.51-4.69-2.51,0-4.5,2.13-4.5,4.69,0,2.48,1.99,4.6,4.51,4.6Z"/>
            <path id="path73" class="cls-3" d="M234.33,120.69c2.43,0,4.33-2.03,4.33-4.51,0-2.39-1.91-4.43-4.33-4.43s-4.42,2.04-4.42,4.43c0,2.48,1.99,4.51,4.42,4.51Z"/>
            <path id="path75" class="cls-3" d="M228.26,114.85c1.82,0,3.38-1.5,3.38-3.45,0-1.86-1.56-3.45-3.38-3.45-1.91,0-3.38,1.6-3.38,3.45s1.47,3.45,3.38,3.45Z"/>
            <path id="path77" class="cls-3" d="M221.94,112.73c1.82,0,3.29-1.42,3.29-3.28,0-1.77-1.47-3.27-3.29-3.27-1.73,0-3.2,1.5-3.21,3.27,0,1.86,1.47,3.27,3.21,3.27Z"/>
            <path id="path79" class="cls-3" d="M215.88,112.02c1.47,0,2.68-1.24,2.68-2.74,0-1.5-1.21-2.74-2.69-2.74s-2.68,1.24-2.68,2.74c0,1.51,1.21,2.75,2.69,2.74Z"/>
            <path id="path81" class="cls-3" d="M210.51,112.55c1.47,0,2.69-1.24,2.68-2.74,0-1.5-1.21-2.74-2.68-2.74-1.47,0-2.6,1.24-2.6,2.74,0,1.5,1.13,2.74,2.6,2.74Z"/>
            <path id="path83" class="cls-3" d="M206.09,113.35c1.12,0,1.99-.97,1.99-2.12,0-1.15-.87-2.04-1.99-2.04-1.13,0-2.08.89-2.08,2.04,0,1.15.95,2.12,2.08,2.12Z"/>
            <path id="path85" class="cls-3" d="M202.62,114.59c.87,0,1.65-.8,1.65-1.77,0-.88-.78-1.68-1.65-1.68-.95,0-1.73.8-1.73,1.68,0,.97.78,1.77,1.73,1.77Z"/>
            <path id="path87" class="cls-3" d="M262.83,160.43c2.51,0,4.51-2.03,4.51-4.6,0-2.57-1.99-4.6-4.5-4.6-2.51,0-4.51,2.04-4.51,4.6,0,2.57,2,4.6,4.5,4.6Z"/>
            <path id="path89" class="cls-3" d="M264.56,151.58c2.25,0,4.07-1.86,4.07-4.07,0-2.3-1.82-4.16-4.07-4.16-2.16,0-3.99,1.86-3.99,4.16,0,2.21,1.82,4.07,3.99,4.07Z"/>
            <path id="path91" class="cls-3" d="M259.63,139.45c0,2.12,1.73,3.81,3.73,3.81s3.72-1.68,3.72-3.8-1.65-3.72-3.73-3.72c-1.99,0-3.72,1.68-3.73,3.71h0Z"/>
            <path id="path93" class="cls-3" d="M257.03,133.08c0,1.95,1.56,3.45,3.38,3.45,1.82,0,3.38-1.5,3.38-3.45s-1.56-3.45-3.38-3.45c-1.82,0-3.38,1.6-3.38,3.45h0Z"/>
            <path id="path95" class="cls-3" d="M255.9,131.4c1.64,0,3.03-1.42,3.03-3.1,0-1.68-1.39-3.1-3.03-3.1-1.65,0-3.03,1.42-3.03,3.1s1.39,3.1,3.03,3.1Z"/>
            <path id="path97" class="cls-3" d="M248.01,125.65c0,1.5,1.13,2.74,2.69,2.74,1.47,0,2.69-1.24,2.68-2.74,0-1.5-1.21-2.74-2.68-2.74-1.56,0-2.68,1.24-2.69,2.74h0Z"/>
            <path id="path99" class="cls-3" d="M245.59,126.98c1.3,0,2.43-1.06,2.43-2.39,0-1.33-1.13-2.39-2.43-2.39-1.3,0-2.34,1.06-2.34,2.39,0,1.33,1.04,2.39,2.34,2.39Z"/>
            <path id="path101" class="cls-3" d="M157.92,128.13c2.51,0,4.5-2.04,4.5-4.6,0-2.57-1.99-4.6-4.5-4.6-2.51,0-4.59,2.04-4.59,4.6s2.08,4.6,4.59,4.6Z"/>
            <path id="path103" class="cls-3" d="M157.92,128.13c2.51,0,4.5-2.04,4.5-4.6,0-2.57-1.99-4.6-4.5-4.6-2.51,0-4.59,2.04-4.59,4.6s2.08,4.6,4.59,4.6Z"/>
            <path id="path105" class="cls-3" d="M156.88,138.22c2.86,0,5.2-2.39,5.2-5.31,0-2.92-2.34-5.31-5.2-5.31-2.94,0-5.28,2.39-5.28,5.31,0,2.92,2.34,5.31,5.28,5.31Z"/>
            <path id="path107" class="cls-3" d="M238.83,127.95c2.43,0,4.42-1.95,4.42-4.42,0-2.48-1.99-4.52-4.42-4.51-2.43,0-4.33,2.04-4.33,4.51,0,2.48,1.91,4.42,4.33,4.42Z"/>
            <path id="path109" class="cls-3" d="M239.87,138.39c2.86,0,5.2-2.39,5.2-5.31,0-2.92-2.34-5.31-5.2-5.31-2.86,0-5.2,2.39-5.2,5.31s2.34,5.31,5.2,5.31Z"/>
            <path id="path111" class="cls-3" d="M208.54,169.73l-10.4-6.64-10.4,6.64,10.4,6.55c3.39-2.29,6.93-4.38,10.4-6.55Z"/>
            <path id="path113" class="cls-3" d="M198.15,164.86l-7.54,4.78,7.54,4.87,7.63-4.86c-2.65-1.39-5.07-3.23-7.62-4.78h0Z"/>
            <polygon id="polygon115" class="cls-3" points="233.21 173.06 230.63 181.45 214.26 175.75 216.83 167.35 233.21 173.06"/>
            <polygon id="polygon117" class="cls-3" points="231.59 174.13 229.9 179.6 215.87 174.68 217.56 169.2 231.59 174.13"/>
            <polygon id="polygon119" class="cls-3" points="248.73 178.07 239.97 178.61 243.81 185.75 248.47 183.6 248.73 178.07"/>
            <path id="path121" class="cls-3" d="M249.33,178.53c.8-.02.79-1.5.38-1.46-9.74.61-10.72.84-10.79.81l4.74,9.26c.3.31,1.27-.48.86-1.19l-4.4-7.22,9.21-.19h0Z"/>
            <polygon id="polygon123" class="cls-3" points="163.09 173.06 165.66 181.45 182.03 175.75 179.46 167.35 163.09 173.06"/>
            <polygon id="polygon125" class="cls-3" points="164.7 174.13 166.39 179.6 180.42 174.68 178.73 169.2 164.7 174.13"/>
            <polygon id="polygon127" class="cls-3" points="148.34 178.07 157.1 178.61 153.26 185.75 148.6 183.6 148.34 178.07"/>
            <path id="path129" class="cls-3" d="M147.36,177.07c9.74.62,10.72.84,10.79.81l-4.74,9.25c-.3.31-1.27-.48-.87-1.19l4.4-7.22-9.21-.19c-.8-.02-.79-1.5-.37-1.46Z"/>
            <path id="path131" class="cls-3" d="M259.34,167.6c2.25,0,4.07-1.86,4.07-4.16,0-2.21-1.82-4.07-4.07-4.07-2.25,0-4.07,1.86-4.07,4.07,0,2.3,1.82,4.16,4.07,4.16Z"/>
          </g>
        </g>
      </g>
      <path class="cls-2" d="M268.36,216.49l.24-6.25.24-6.25H125.17v5.85c0,3.22.55,10.55,1.22,16.28,4.3,36.75,18.48,70.88,41.58,100.11,5.51,6.97,20.27,22.05,25.21,25.76l3.07,2.3,4.4-4.34c2.42-2.39,4.31-4.57,4.19-4.84-.12-.27-2.93-2.81-6.26-5.65-35.07-29.91-54.17-67.54-60.07-118.33l-.49-4.23,65.17-.21,65.17-.21h0ZM268.76,243.51v-12.91h-113.08l.54,3.43c5.59,35.43,17.2,60.24,37.86,80.95,7,7.02,20.9,18.88,22.13,18.88.32,0,2.37-1.82,4.56-4.04l3.98-4.04-1.95-1.37c-1.07-.75-5.13-4.03-9.01-7.29-17.67-14.82-30.04-32.37-36.85-52.25-2.32-6.77-4.97-17.55-4.97-20.21,0-.99,6.9-1.16,48.4-1.16h48.4Z"/>
    </g>
  </g>
</svg>