<?xml version="1.0" encoding="UTF-8" standalone="no"?>
<svg
   xmlns:dc="http://purl.org/dc/elements/1.1/"
   xmlns:cc="http://creativecommons.org/ns#"
   xmlns:rdf="http://www.w3.org/1999/02/22-rdf-syntax-ns#"
   xmlns:svg="http://www.w3.org/2000/svg"
   xmlns="http://www.w3.org/2000/svg"
   xmlns:sodipodi="http://sodipodi.sourceforge.net/DTD/sodipodi-0.dtd"
   xmlns:inkscape="http://www.inkscape.org/namespaces/inkscape"
   id="Livello_1"
   viewBox="0 0 283.5 283.5"
   version="1.1"
   sodipodi:docname="Cesena FC (logo).svg"
   inkscape:version="1.0rc1 (09960d6f05, 2020-04-09)">
  <metadata
     id="metadata23">
    <rdf:RDF>
      <cc:Work
         rdf:about="">
        <dc:format>image/svg+xml</dc:format>
        <dc:type
           rdf:resource="http://purl.org/dc/dcmitype/StillImage" />
        <dc:title />
      </cc:Work>
    </rdf:RDF>
  </metadata>
  <defs
     id="defs21" />
  <sodipodi:namedview
     inkscape:document-rotation="0"
     pagecolor="#ffffff"
     bordercolor="#666666"
     borderopacity="1"
     objecttolerance="10"
     gridtolerance="10"
     guidetolerance="10"
     inkscape:pageopacity="0"
     inkscape:pageshadow="2"
     inkscape:window-width="1366"
     inkscape:window-height="705"
     id="namedview19"
     showgrid="false"
     inkscape:zoom="1.0229277"
     inkscape:cx="2.9327586"
     inkscape:cy="166.03324"
     inkscape:window-x="-8"
     inkscape:window-y="-8"
     inkscape:window-maximized="1"
     inkscape:current-layer="g16" />
  <style
     id="style2">.st0{fill:#fff}</style>
  <path
     d="M141.6 281.2c23.8-10 102.9-63.5 102.9-166.5 0-43.2-14.2-73.4-14.2-73.4H208l-5.8-9-5.6-26.9-55-2.8-55 2.8L81 32.3l-5.8 9H52.8s-14.2 30.2-14.2 73.4c.1 103.1 79.2 156.5 103 166.5z"
     id="path4" />
  <path
     class="st0"
     d="M197.6 30.2c-1.2-5.9-3.6-17.3-4.3-20.8-5.6-.3-51.2-2.6-51.6-2.7-.4 0-45.9 2.4-51.6 2.7-.7 3.5-3.1 14.9-4.3 20.8h111.8zM141.6 271.7c11.6-5.7 33.9-20.3 53.8-44.3C222.3 194.9 236 157 236 114.7c0-33.8-9-59.3-12.8-69.2h-6.5s13.4 28.7 13.4 68.8c0 95-72.2 142.9-88.4 149.8-16.2-6.9-88.4-54.8-88.4-149.8 0-40.1 13.4-68.8 13.4-68.8H60c-3.8 10-12.8 35.4-12.8 69.2 0 42.2 13.6 80.1 40.6 112.6 20 24.1 42.2 38.7 53.8 44.4z"
     id="path6" />
  <path
     class="st0"
     d="M93 210.6c1.9 2.5 3.8 5.1 5.9 7.6 4.4 5.3 8.8 10 13.2 14.3V33.6H93v177zm97.3-177h-19.1v198.9c4.4-4.3 8.9-9 13.2-14.3 2-2.5 4-5 5.9-7.6v-177zm-57.5 216.1c3.2 2.2 6.1 4.2 8.8 5.7 2.7-1.6 5.6-3.5 8.8-5.7V33.6h-17.6v216.1zM210.9 53.1h-.7v122.2c7.6-18.8 11.5-39.1 11.5-60.6-.1-32.7-7.4-50.2-10.8-61.6zM61.7 114.7c0 21.4 3.8 41.7 11.5 60.6V53.1h-.7C69 64.5 61.7 82 61.7 114.7z"
     id="path8" />
  <path
     class="st0"
     d="M143.7 48.6c-.7 1.2-1.1 3.4 1.3 6.8 1.5 2.2 2 4.7 1.2 6.2s-2.7 1.8-4.2 1.7c-.2 0-4.6-.2-5.4-4-.3-1.2-1.2-2.2-2.4-2.4-1.3-.3-2.7.3-3.5 1.4-.9 1.2-.9 2.7 0 4.3 1.4 2.6 1 3.1.1 4.2-.4.5-1.6 1.3-2.6 1.2-.7-.1-1.3-.7-1.7-1.9-.5-1.2-1.5-2-2.7-2.1-1.2-.1-2.2.6-2.8 1.7-.6 1.3-.4 3 .7 4.3 1.7 2.2 1.4 2.8 1.3 3.1-.4 1-1 6.1-.7 10.3.1.7-.3 1.2-.4 1.4-.7.4-1.4 1.5-3.1 4.5l-1.3 2.2c-.9 1.4-1.6 1.4-3.7 1.4h-.9c-2.1 0-3.6 1.5-4.1 3-.5 1.5-.2 3 .9 3.9 1.1.9 3.9 3.5 5.4 5.3.7.9 1.8 1.3 2.9 1.2.6-.1 1.9-.5 2.7-2.4.9-1.9 4-5.8 7.2-7.7 3-1.7 7.2-2.2 9.8.4.6.7 1.4 1 2.2 1 1.2-.1 2.1-1 2.5-1.7l.2-.3c.3-.2 1.4-.4 1.8-.4 1.2.4 2.1 0 2.8-.6-.1.1-.2.4-.2.5-.1.2-.1.4-.1.6 0 .9.4 1.7.8 2.2l.3.6c-.1 0-.6.1-1.4-.1-.4-.1-1.7-.4-2.7.4-1 .7-1.1 1.9-1.2 3.1l-.1.6c-.1 1.2-.7 2.7-1.7 3.2-.2.1-.8.4-2-.2-1.2-.6-2.6-1.2-3.8-.6-1.4.8-1.4 2.5-1.5 4.1-.1 1.4-.9 2.7-1.9 3.2-.6.3-1.4.1-1.9-.4-.5-.4-1.9-1.7-3.5-1.2-1.7.4-2.2 2.2-2.7 3.8l-.1.4c-.1.2-.3.8-1.3 1.2-1.7.6-4.5.3-6.2-.8-1.4-.9-2.7-1-3.7-.4-1.7 1-1.7 3.5-1.7 5.1v.3c-.1 2.2-.4 5.3-5.8 5.6-1.1.1-3.1.1-3.8 1.7-.7 1.7.5 3.6 1.9 5.3 1.2 1.5 1.7 2.9 1.4 4.1-.2.9-.9 1.7-1.7 2.1l-.1.1c-1.4.6-2.7 1.3-2.9 2.7-.2 1.4.6 2.6 2 4.1.5.6.7 1.2.7 1.7-.1 1.3-1.5 2.7-1.9 3l-.2.1c-.7.4-2.2 1.2-2.2 3 0 1.7 1.4 3.3 4.7 5.3.9.5 1 .8 1 .8.1.4-1.2 1.9-1.9 2.7-.9 1.2-2.2 2.8-1.4 4.5.7 1.7 3 1.9 5.1 2 3.8.1 5.1.1 5.8 5 .4 2.2 1.4 3 2.3 3.1 1.2.3 2.5-.4 3.6-1.9.1-.2.8-.5 1.5-.3 1.2.3 1.9 1.4 2.2 3.2.1.9.6 3.8 2.7 4.3 1.3.4 2.7-.4 4-2 .4-.5.8-.7.9-.7 0 0 .5.2 1.1 1.9.7 2 1.8 3.2 3.2 3.3 2 .2 3.5-1.7 4-2.4 0 .1.1 0 .2 0s.9.1 1.9 1.3c2.6 3 5.3 4 6.9 4.5.9.4 1.7 1.7 1.7 2.2v.1l-.2.2c-.4.4-.9 1-.9 1.8v.4c.2 1.2 1.2 1.8 3.6 3.1.6.4 1.2 1.1 1.2 1.7v.1c0 .1-.1.4-.5.7-.9.6-1.9 1.4-1.9 2.7v.1c.1 1.4 1.4 2.2 2.3 2.7.4.2.6.4.6.5 0 0-.1.1-.3.1-1.2.7-1.4 1.7-1.4 2.2 0 1.4 1.3 2.4 2.1 2.8.1.1.3.3.3.4 0 .2-.4.7-1.5 1.4-1.4.7-1.8 1.7-1.9 2.4v.3c0 .8.4 1.7 1.2 2.3.2.1.2.3.2.3s-.1.4-1.2 1.4l-.1.1-.1.7s-1.3 1.5-4.5 2.5c-1.8.5-2.5 1.2-3.2 1.9l-.5.5c-.9.8-1.3 1.2-2.9-.2-2.2-1.9-3.8-.9-4.6-.3l-.4.2c-.5.3-.9.5-2.2-.9l-.4-.4c-1.7-1.7-2.9-2.9-5.3-3.8-.5-.2-.8-.4-.9-.6v-.1c0-.1.1-.4.1-.4.4-.6.5-1 .5-1.4 0-.9-.6-1.7-1.1-2.1l-.4-.4c-.1-.1-.2-.4-.2-.8v-.1c0-.4.1-.6.2-.6l.3-.3.2-.5-.1.1s.2-.4 1.1-1.2c.4-.2 1-.6 2.5-1.7.6-.4 1.3-.2 1.7.1 1.3.9 2.2.8 3 .6.1.1.1.3.1.3.1.4.3 1 .3 1.4v.2c-.1 0-.1 0-.3-.1-2.6-.9-3.9-.3-4.5.4-.7.7-.9 1.9-.4 3 .6 1.4 1.8 3.7 3.9 4 1.4.2 2.9-.5 4.3-2.2 0 0 .3-.4.4-.5.6.1 1-.1 1.4-.4.9-.8 1.2-2.7 1.1-3.9l.7-1.3c.5-1.6.7-5.6-1.9-7.9-1.4-1.3-1.7-1.9-2-2.5l-.3-.6c-.9-1.5-2.2-1.2-3.1-1.1l-.8.1c-.8.1-1.1 0-2-.5l-.6-.3c-2.2-1-6 .1-7.4 3-.8 1.7-1.9 2.8-3.2 4.1l-.7.8c-1.7 1.7-3.1 3.8-1.4 7 .6 1.2.3 1.7-.5 2.5l-.4.5c-1.7 2.1.1 4.1.9 4.9.9.9 1.7 2.5 1.8 3.8.1 2.3 5.3 10.4 10.6 10.8 2.9.2 3.1.4 3.5.8l.7.7c2.2 1.8 4.5 1.7 6.8-.3.1-.1.3-.1.4-.1.3 0 .6.2.9.6 1.3 1.7 4.3 2.2 7.4-.1.6-.4 1.2-.6 1.4-.4 2.2 1.1 3.8-1.1 4.9-2.6 1.2-1.6 1.6-1.7 2.4-1.7 2.4-.2 2.8-1.4 3.3-3.4.1-.6.1-.6 1.7-.6h.3c.4 0 1.6 0 2.4-1 .4-.5.5-1.1.5-1.7 0-.8-.2-1.7-.5-2.7v-.1c.2 0 .4.1.4.1l.9.1c1.4.1 2.5-.4 3-1.4.2-.4.3-.8.3-1.2 0-.9-.5-2-1.4-3.2-.4-.4-.4-.6-.4-.6.1-.1.5-.3 1.3-.4 1.2-.2 2.5-1.1 2.8-2.6.1-.2.1-.4.1-.6 0-.8-.4-1.9-1.7-3-.5-.4-.5-.6-.5-.8 0-.7.8-1.6 1.5-2.1.9-.6 1.6-1.8 1.7-3.2v-.5c0-1.7-.7-3.3-1.9-4.6-.4-.4-.5-.8-.5-1.1v-.1c.1-.6.6-1.3 1.2-1.7.9-.6 1.4-1.5 1.4-2.5v-.3c-.1-1.5-1.4-2.7-4-3.8-.3-.1-.8-.4-.8-1.2 0-.3.1-.6.1-1.1.1-.4.2-.9.2-1.4 0-.5-.1-1-.4-1.4-.7-.9-1.9-1-3.1-1.1h-.4c-.6 0-1.2-.4-1.4-.9-.1-.1-.1-.3-.1-.5 0-.3.1-.6.4-.9.2-.3.8-1.1.8-1.9 0-.2-.1-.5-.1-.8-.5-1.2-1.9-1.4-3-1.4l-1.1-.1c-1.4-.4-1.9-.8-1.9-1.7 0-.2 0-.5.1-.8.1-.5.2-1.1.2-1.6 0-.6-.1-1.1-.4-1.6-.6-.8-1.5-.9-2.2-.9l-.8-.1c-.3-.1-1.2-.8-1.6-1.9-.1-.4-.1-.7-.1-1.1 0-.9.4-1.7 1-2.6.4-.5.6-1.1.6-1.7 0-.6-.2-1.2-.6-1.7-.4-.4-1.6-1.4-3.7 0-.6.4-3.6.1-4.5-1-.1-.1-.4-.5.6-1.6s1.4-2.2 1.2-3.2c-.2-1.2-1.2-2.2-3-3-.6-.3-.8-.6-.7-.7 0-.1.6-.9 2.8-1.4 2.2-.4 2.5-1.7 2.6-2.3.1-1.4-.9-2.7-2.9-3.5-.5-.2-.6-.6-.5-.8.1-.1.5-.2 1.2.1 1.7.6 3.1.5 3.9-.4.5-.5.7-1.2.7-1.9 0-.9-.3-1.7-.6-2.5v-.4c0-.4.1-1.2.9-1.8 1.9-1.4 2.2-1.1 2.7-.4 1.1 1.4 3.3 1.9 4.8 1 .6-.4 2.6-1.9.7-5.7-.6-1.2-.6-2.4.1-3.1.8-.8 2.5-1.2 4.7-.1 1.4.6 3.2.4 4-.7.5-.6 1.4-2.3-.7-4.9-.6-.9-.4-1.9.1-2.8.8-1.2 2.6-2.5 5.1-1.9 1.9.4 4.3.1 5.3-1.4.9-1.5.5-3.5-1.4-6-.9-1.2-.7-1.9-.6-2.1.5-2.1 4.2-3.8 5.4-4.4l.4-.2c.9-.4 2.5-1.2 2.5-2.8 0-1.4-1.2-2.6-4-4-1.1-.6-2.8-2.3-2.8-4.2-.1-1.5.9-2.8 3-4 1.7-1 1.9-3.1 1.2-4.5-.7-1.2-2.4-2-4.4-.9l-.5.3c-2.2 1.2-2.6 1.5-4.3.5-.8-.4-1.4-1.6-1.3-2.7 0-.6.2-2.1 1.8-3 1.3-.6 2.2-2 2.3-3.5.1-1.4-.6-2.7-1.7-3.4-.8-.5-2.5-1.1-5.1.3-2.3 1.2-4.2 1.7-5.1 1.2-.8-.4-1-1.6-1.1-2.5-.1-.7.6-1.5 1.9-2.3 1.9-1.2 2.1-3.2 1.2-4.5-.9-1.4-3-2.2-5.2-.9l-.3.2c-3.5 2.2-5.8 2.2-7.2 0 0-.1-1.3-2.4-.5-6.7.5-2.7.2-4.7-.9-6.1-.9-1.2-2.1-1.8-3.8-1.9-1.9-1-3.4-.4-4.2 1z"
     id="path10" />
  <path
     d="M112.8 94.3c2.4 0 4.3.4 5.8-2 1.3-2.2 3.2-5.8 3.9-6.2.6-.4 1.2-1.5 1.1-2.7-.3-4.1.3-9 .6-9.6.3-.6.9-1.7-1.5-4.6-2.3-2.9 1.2-5.2 2.3-2.5 1.9 4.6 5.7 2.4 6.8 1.1 1.1-1.3 2-2.4.1-5.8-1.9-3.5 2.7-4.8 3.2-2.2 1.1 5 6.8 5.1 6.8 5.1 6.7.2 7.4-5.7 4.3-10.3-3.2-4.5-.9-6.6 1.3-6.4 2.1.2 4.3 1.5 3.4 6.4-.9 5 .7 7.7.7 7.7 3 4.7 8.4.9 9.5.3 2.7-1.6 4.8 1.5 2.4 3.1-1 .6-2.7 1.9-2.5 3.7.4 4.2 3 5.4 8.3 2.5 4.7-2.5 5.9 2.7 3.1 4.1-3.6 1.8-3.2 6.7-.6 8.2 2.6 1.5 3.7.7 6.3-.8 2.6-1.5 3.5 1.9 1.9 2.9-6.6 4-2.7 9.4 0 10.8 4.9 2.5 3.1 3.5 1.5 4.3-1.6.8-9.4 4.1-5.6 9 3.8 4.8 0 5.7-2.4 5.1-5.3-1.2-9 4.1-6.6 7 2.3 2.9.1 4.3-1.6 3.5-4.8-2.2-8.8.8-6.6 5.1s-1.8 4.9-3.1 3.2c-1.2-1.7-2.6-1.4-4.7.1s-1.5 3.7-1.5 3.7c1.5 3.8-.6 3.5-2.2 3-3.5-1.2-4.1 2.4-1.8 3.5 2.3 1 2.9 2.6.6 3.1-5.1 1-4.5 3.8-2.4 4.8 2.2 1 3 2.3 1.4 4-4 4.3 3.9 6.1 5.8 4.8 1.9-1.2 2.5.4 1.8 1.2-3 4 0 7.4 1.5 7.9 1.5.4 2.9-.6 2.2 2.4-.6 3 1.4 3.8 2.9 4.3 1.5.4 4.5-.1 2.7 2.1-1.7 2.2.1 4.5 2.2 4.7 2 .1 3 0 2.4 2.2s.1 3.5 1.5 4c4 1.7 3.5 3.3 2.3 4.1-1.2.8-2.9 3-.8 5.1 2.1 2.1 1.9 5.1.4 6.1s-3.3 3.5-1 5.3c2.3 1.7.7 3.5-.6 3.7-1.2.2-3.8.9-1.7 3.4 2.1 2.5.9 3.5-.6 3.5-1.6-.1-3.5-.9-2.9 1.7.7 2.6.7 3.7-1 3.7s-3-.1-3.5 1.7c-.4 1.8-.7 2.2-2.1 2.3-1.4.1-2.1.4-3.5 2.3-1.4 1.8-2.2 2.6-3.1 2.2s-2-.1-3 .6c-2.2 1.7-4.5 1.5-5.3.4-.9-1.2-2.4-1.5-3.5-.6-2 1.8-3.5 1.4-4.9.2-1.4-1.2-.6-1.5-5.1-1.8-4.3-.4-9.2-7.8-9.2-9.5-.1-1.7-1.2-3.5-2.2-4.7-1-1.2-1.6-2.1-.8-3.1s2.3-2.2 1-4.5c-1.2-2.4-.4-3.7 1.2-5.3 1.6-1.7 3.1-3.1 4.1-5.3 1-2.2 4-3 5.5-2.3 1.5.6 2 1.2 3.5.9 1.5-.2 1.9-.6 2.4.2.4.8.4 1.6 2.6 3.5s1.8 5.3 1.5 6.4c-.4 1-.9.9-.8 1.9.1 1-.4 2.9-.9 2.7-.6-.1-.8-.1-1.7 1-3.2 4.1-5.3-.2-5.7-1.4-.4-1.2.2-2.5 3.2-1.5s2.3-2.5 1.8-3.5c-.4-1-.8-1.2-1.5-1.2-.7.1-1.2.4-2.2-.4-1-.7-2.4-.8-3.5 0-2 1.6-2.4 1.7-2.4 1.7-1.4 1.2-1.5 1.8-1.5 1.8-.9.7-1 2.7-.2 3.6.9.9 1.4 1.2.9 2.2-.6.9-.7 2.6 1.4 3.5s3.1 1.9 5.1 3.8c1.9 1.9 3 1.7 4 1.2s1.7-1.6 3.3-.1c2.6 2.3 3.8 1 4.8.2.9-.9 1-1.6 3.1-2.2 3.9-1.2 5.3-3 5.3-3 2.2-1.9 1.8-3 .9-3.8-.9-.8-1.1-1.9.4-2.7 3.6-1.9 2-3.9 1.3-4.3-.8-.4-2.2-1.6-.7-2.5 1.5-.9 1.1-2.3-.4-3.2-1.4-.8-2.6-1.6-.3-3.1 2.3-1.5.7-4-.8-4.9-3.8-2-3.2-2.1-2.1-3.3 1-1.2-.6-3.8-2.3-4.5-1.6-.6-4-1.4-6.4-4.2-2.4-2.7-4-1.7-4.4-1.1s-3.1 3.8-4.7-.7-3.8-2.5-4.5-1.6c-.8.9-3.4 3.7-4.3-1.7-.9-5.4-5.3-5.1-6.4-3.5s-2.8 2.3-3.3-.6c-1-5.8-3.2-6.1-7.2-6.2-4-.1-4.9-1.3-2.5-4.1 2.4-2.9 3.3-4 .6-5.7-6.9-4.1-3-5.4-2.2-6s4.4-3.9 1.5-6.9c-2.8-3-1.7-3.5.6-4.6 2.3-1.2 4.1-4.3.9-8.4-3.2-4.1-1.4-4.5.9-4.7 7.1-.4 7-5.1 7.2-7.4 0-2.1.1-5.4 3.2-3.5 3 1.7 8.5 2.1 9.6-1.2.7-2.2 1.3-4.8 4-2.4 2.7 2.3 6.1-.3 6.3-3.9.1-2.8.4-3.8 3.2-2.3 3.8 2 5.6-1.9 5.8-4.1.1-1.8-.1-3.3 2.1-2.8s4.1-.4 2.7-2.8c-1-1.7-.4-2.2.3-2.5.8-.4 1.6-1.4 1.2-2.9-.4-1.4-2.2-1-2.8.1-1.1 1.9-1.8 2.2-2.7 1.9s-2.7.1-3.3.8c-.6.7-1.5 2.3-2.8.9-3.1-3.2-8-2.7-11.6-.7-3.5 2-6.9 6.1-7.8 8.3-.9 2.2-2.6 1.7-3.2.9-1.6-1.9-4.5-4.5-5.6-5.5-1.6-1.7-.2-4.9 2.2-4.9zm39.3-25.6s-4.1 4.2-6.1 7.7c0 0-1.6 2.4 1.2 3.7 2.8 1.3 3.1 2 5.3-.1 2.2-2.2 3.5-3.4 4.7-5.3 1.2-1.9.4-2-.4-3.1-.7-1.1-.7-5.8-4.7-2.9zm11.6 14.7c-4 2.7-3.8 2.7-6.9 5.6-1.7 1.6-.1 4.7 3.2 3.3 1.6-.6 2.9-1.2 4.4-1.5 1.2-.3 2-.4 3.2-1.2 1.5-1.1.6-1.8-.4-2.7-1.3-1.2-1.1-1.2-1.4-2.9-.2-1-1.3-1.1-2.1-.6zm-.5-5.2c-.4-.1-1.2.1-2.1-.7-1.2-1.2-2.1-.6-3.3.2-1.2.8-4.5 3.8-5.1 6.3-.7 3.2 1.4 4.2 3.5 2.8 2.3-1.4 6.5-5.3 6.5-5.3 2.1-1.7 1-3 .5-3.3zm-4.5 19.2c1.9 1 5.3 1 7.7 2.3 2 1.1 3 1.2 3.4.5.4-.7.9-.8 1.8-1.2.9-.4 1.2-1.4.5-2-.6-.7-.6-.4-.9-1.8-.3-1.6.3-2.5-3-2.3-3.2.1-9.6 1.7-9.6 1.7-.7.1-2.5 1.4.1 2.8zm-2.3 1.8c-1.3 0-1.7.9-1.8 2.1-.1 2.8.9 1.9 3.2 3.1 2.4 1.2 3 2.2 5.1 4.2 2.2 2 6.5-1.9 4.6-4.5-1.9-2.8-5.3-3.5-8.3-4-.5-.2-1.6-.9-2.8-.9zm-7.2 6.4c1.2 3.3 5.1 6.5 5.6 6.8.6.4 1.2.7 1.7 1.7 1.7 3.5 3 .8 3.1.2.2-.7-.1-1.2.5-1.9.7-.9 1.1-1.7.1-2.4-.4-.3-1-.4-1.8-1.3-2.1-2.4-7.1-5.4-7.1-5.4-.5-.2-3.3-.9-2.1 2.3zm-5.2 7.1c.9 1.1 3.4 4.3 4.8 7.1s3.7 1.4 4.3.8c.6-.6.7-1.6.3-2.2-.5-.7-.9-.8-1.4-2.1-1.2-3.5-1.4-4.3-2.2-5.3-.5-.6-.4-.4-1.2-1.9-1.1-1.9-3.3-.6-3.3-.6-2.8 1.2-2.3 3.1-1.3 4.2zm-6.7.1c-.9.9-1.2 1.9-2.8 2.5s-2.3 2.2-.9 3c1.4.9 3.8 2.9 6.6 6.1 2.8 3.2 3.9.8 4.9.3s1.9-2 .5-3.2c-4.4-3.6-6.4-8.1-6.4-8.1-.1-1.1-.9-1.5-1.9-.6zm-17.8 11s4.8 5.8 9.2 8.2c1.4.8 1.2.4 2.3 1.6 1.2 1.2 5.4 3.5 7 1.9 1.7-1.6 1.8-3 0-4.9-1.7-1.7-2.3-3-3.5-5.1-1.2-2.1-4.3-4-5.2-5.7-.6-1.2-1.7-3.6-3.8-.5-1.9 3-7.6-.5-6 4.5zm-6.3 1c-.9 1.4-.9 1.7-2 2.9-4.2 4.8 6.9 9.6 8.8 10.3 1.9.6 4.9 2.5 4.9 2.5 6.9 3.5 7.2-1.9 4.6-3.1-2.5-1.2-7.1-4.2-9-7.1-1.9-3-5.4-8.5-7.3-5.5zm-5.5 10.8c.3 1.3.5 1.6 0 3.4-1.1 3.9.3 4.1 2.1 4.5 1.8.4 2.5.8 5.6 1.7 10.5 2.9 10.5 2.8 10.9.7.1-1.1-.8-1.4-1.8-1.5-7.9-.6-14.4-9-14.4-9-.6-1.5-2.6-1.1-2.4.2zm-1.8 11.3c.6 1.3.5 3-.6 4.5-1.1 1.6-1.7 3.4 1.6 3s9.9.6 13.1.6c3.3.1 3-.8 3.3-1.8.3-.9-.4-1.9-1.2-2.1-1.3-.4-3-.2-4.3-.9-1.3-.6-4.8-2.9-6.2-3.1s-3.2-1.5-3.2-1.5c-1.4-.8-3 0-2.5 1.3zm16.1 10.3c-1.7.6-2.5.7-7.1.2-2.7-.3-5.5-.4-6.6 1-.8 1.1-2.1 4 .1 5.9 4.5 4.3 15.4-4.7 15.4-4.7 1.3-1.3-.2-3-1.8-2.4zm-7.1 14.1c1.7 1.4 5.7.1 7-1.2 1.3-1.4 5.7-4.8 7.2-5.3 1.5-.4 1.5-2.1.7-2.6-.7-.5-2.1-.1-2.8.4-.7.5-2 .6-4.1 1.1-2.1.4-6.9 3.2-7.2 3.4-1.8.8-2.5 2.9-.8 4.2zm22.5-7.6c-5.2 3.5-9.8 4.3-12.2 7.1-2 2.4.1 7.5 3.4 4.6 9.8-8.7 9.6-8.1 11-9.3 2-1.8 0-3.9-2.2-2.4zm-4.7 11.6c-.5 1.1.1 2.2.3 2.5.1.1 1.4 1.7 2.8-.1 1.7-2.2 7.3-6.1 10-9 1.7-1.8.3-2.9 0-3.1-.3-.2-1.5-.4-3 .9-1.3 1.2-9.6 7.9-10.1 8.8zm5.7-106.1c-.6-.4-1.4-.1-1.5-.1-.1.1-1.2.6-.2 1.6 1.2 1.2 2.9 4.8 4.3 6.6.9 1.2 1.7.5 1.9.3.1-.1.4-.9-.2-1.8-.7-.9-3.9-6.3-4.3-6.6zm-4 2.1c-.6-.4-1.4-.1-1.5-.1-.1.1-1.2.6-.2 1.6 1.2 1.2 2.9 4.8 4.3 6.6.9 1.2 1.7.5 1.9.3.1-.1.4-.9-.2-1.8-.6-.9-3.8-6.3-4.3-6.6zm1.3 11.8c0-.6-.6-1.2-.8-1.2-.1-.1-1.2-.6-1.5.7-.4 1.5-2.5 4.8-3.3 6.9-.5 1.3.6 1.5.8 1.6.2.1.9-.2 1.4-1.2.4-.9 3.4-6.3 3.4-6.8zm6.7-.4c.1-.6-.4-1.2-.5-1.2-.1-.1-1-.7-1.4.4-.6 1.3-3 4-4 5.8-.6 1.2.3 1.5.4 1.6.2.1.9 0 1.4-.9.6-.6 4-5.1 4.1-5.7zm3.3 89.3s-3.3 3.1-5.3 4.9c-1.9 1.7-.3 3.5.1 3.9.4.4 2 .9 3.4-1s3.2-3.5 4.7-5.1c1.4-1.7 1.2-3.4.4-3.9-.8-.5-1.8-.6-3.3 1.2zm4.6 4.7s-3.5 3.6-4.3 4.3c-1.4 1.2-.6 2.8-.4 3 .5.5 1.4.9 3.2-.6 1.7-1.6 3-2.7 4.1-3.5 1.4-1.1 1.4-2.7.8-3.7-.7-1-2.5-.5-3.4.5zm4.1 6.8s-4.6.5-3.3 3.5c.9 2 2.8 1.8 4.5.6 1.2-.8 1.3-1.1 2.7-1.4 1.3-.4 1.5-1.8 1-2.4-.9-.9-.6-.8-1.1-1.4-.2-.4-.9-.5-1.7.1-1 .7-1 .7-2.1 1zm2.9 8.3s-3.5-.3-3 2.4c.1.4.6 1.7 2.2 1 2.2-.9 3.6-1.5 5.5-1.6 1.9-.1 2.5-2.1 1.4-3.2-.4-.4-1.7-.6-3.4.4-1.1.8-1.4.9-2.7 1zm-.4 9.9s6-.7 7.5-.5c1.4.2 2-.4 2.2-1.8.2-1.4-1.1-3.2-2.4-2.7-1.4.4-4.8 1.2-6.4 1.1-1.6-.1-2.7.9-2.8 1.7-.1.9.4 2.3 1.9 2.2zm.3 4.3c.1 1.2 1.1 1.9 2.4 2 1.8.1 2.5.5 3.8.8 1.2.3 3.4-2.2.9-4.3-1.8-1.5-4.6-.9-4.6-.9-1.1.1-2.7.7-2.5 2.4zm-.9 7.3c-.1 1 .3 1.6 1.2 1.8.9.2 1.2-.3 2.9.1 2.3.5 2.7-.3 2.8-1.4.1-1.1-.8-2.4-1.9-2.1-1.2.3-2.4.1-2.4.1s-2.4-.7-2.6 1.5zm-.5 7.5c1.4.4 2.3 1.2 2.8 1.3.8.1 1.6-1 1.1-2.2-.4-.9-2-1.6-2.9-1.7-2.1 0-2.2 2.2-1 2.6zm-2.8 3.4c1.2.6 1.9 1.4 2.4 1.6.7.3 1.6-.6 1.3-1.8-.2-.9-1.6-1.7-2.4-1.9-1.9-.5-2.4 1.6-1.3 2.1zm-4 2.7c.9.9 1.3 1.8 1.7 2.1.6.4 1.6-.1 1.7-1.3.1-.8-.9-1.9-1.6-2.4-1.7-.8-2.6.9-1.8 1.6zm-4.8 2.8c.8 1 1 2 1.3 2.3.5.5 1.6.1 1.8-.9.2-.8-.6-2.1-1.2-2.6-1.4-1.2-2.6.3-1.9 1.2zm-7.8 0c-.4 3 1.4 2.8 2.5 2.7 1.1-.1 1.9-1.3 1.2-2.2-.4-.5-3.2-3.9-3.7-.5zm-3.5-.5c-.6-1.6-2-2.3-2.7-1.6-.7.7-1.4 2.1-.7 2.8 1.4.7 2.8 1.4 3.5-1-.1-.1-.1-.2-.1-.2zm-5.5-2.6c-.6-1.6-2-2.3-2.7-1.6-.7.7-1.4 2.1-.7 2.8 1.4.7 2.8 1.4 3.5-1-.1 0-.1-.1-.1-.2zm-3.8-4.1c-.5-1.3-1.7-1.9-2.2-1.3-.6.6-1.2 1.7-.6 2.3 1.2.6 2.3 1.2 2.8-.8v-.2zM121 217c-.5-1.3-1.7-1.9-2.2-1.3-.6.6-1.2 1.7-.6 2.3 1.2.6 2.3 1.2 2.8-.8v-.2zm5.5-13.8c.3-1.6-1.2-2.3-1.9-1.6-.7.7-2.2 2.2-1.5 3.8 1.5.7 3.8 0 3.5-1.9-.1-.1-.1-.2-.1-.3zm-5 5.5c.3-1.3-1-1.9-1.7-1.3-.6.6-1.9 1.9-1.2 3.2 1.2.6 3.2 0 2.9-1.7v-.2zm11.6-5.3c-.6-1.7-2.1-2.4-2.8-1.7-.7.7-1.4 2.2-.7 2.9 1.4.7 2.9 1.4 3.6-1-.1-.1-.1-.1-.1-.2zm2.9 3.1c-.4-1-1.3-1.4-1.7-1-.4.4-.9 1.4-.4 1.8.9.4 1.8.9 2.2-.6-.1-.1-.1-.1-.1-.2zm-7.8-124.4c.1-2.7 1.2-3.6 2.2-3 .9.5.7 2.6.7 2.6l1.7-.3c.4-.7 1.1-3.6-.6-5-1.7-1.4-4.4-.6-5.4 1.4-.9 2-.2 4.5-.2 4.5l1.6-.2z"
     id="path12" />
  <g
     id="g16">
    <text
       xml:space="preserve"
       style="font-style:normal;font-variant:normal;font-weight:bold;font-stretch:normal;font-size:18.7644px;line-height:1.25;font-family:Arial;-inkscape-font-specification:'Arial Bold';fill:#000000;fill-opacity:1;stroke:none;stroke-width:1.00523"
       x="99.18116"
       y="24.934658"
       id="text27"
       transform="scale(0.93881403,1.0651737)"><tspan
         sodipodi:role="line"
         id="tspan25"
         x="99.18116"
         y="24.934658"
         style="font-style:normal;font-variant:normal;font-weight:bold;font-stretch:normal;font-family:Arial;-inkscape-font-specification:'Arial Bold';stroke-width:1.00523">CESENA FC</tspan></text>
  </g>
</svg>
