<?xml version="1.0" encoding="UTF-8" standalone="no"?>
<svg
   xmlns:dc="http://purl.org/dc/elements/1.1/"
   xmlns:cc="http://creativecommons.org/ns#"
   xmlns:rdf="http://www.w3.org/1999/02/22-rdf-syntax-ns#"
   xmlns:svg="http://www.w3.org/2000/svg"
   xmlns="http://www.w3.org/2000/svg"
   viewBox="0 0 699.99997 680"
   height="680"
   width="700"
   xml:space="preserve"
   version="1.1"
   id="svg2"><metadata
     id="metadata8"><rdf:RDF><cc:Work
         rdf:about=""><dc:format>image/svg+xml</dc:format><dc:type
           rdf:resource="http://purl.org/dc/dcmitype/StillImage" /><dc:title></dc:title></cc:Work></rdf:RDF></metadata><defs
     id="defs6" /><g
     transform="matrix(1.25,0,0,-1.25,0,680.00003)"
     id="g10"><g
       transform="matrix(6.8053567,0,0,6.8085959,-2389.1806,-1979.4726)"
       id="g5989"><g
         id="g5737"><path
           id="path190"
           style="fill:#ffe800;fill-opacity:1;fill-rule:nonzero;stroke:none"
           d="m 392.2172,290.7314 c 24.642,10.006 32.983,24.847 32.983,24.847 10.175,15.799 7.957,55.009 7.957,55.009 0,0 -18.314,-7.473 -40.94,0.043 -22.628,-7.516 -40.939,-0.043 -40.939,-0.043 0,0 -2.219,-39.21 7.956,-55.009 0,0 8.341,-14.841 32.983,-24.847" /><path
           id="path192"
           style="fill:#0066b3;fill-opacity:1;fill-rule:nonzero;stroke:none"
           d="m 363.00459,365.771 c -3.953,0.496 -7.115,1.257 -9.072,1.808 -0.255,0.072 -0.489,0.139 -0.713,0.204 -0.044,-1.536 -0.087,-3.655 -0.087,-6.189 0,-12.346 1.027,-34.357 7.83,-44.919 l 0.06,-0.1 c 0.02,-0.037 2.085,-3.623 7.036,-8.347 4.471,-4.265 12.273,-10.336 24.159,-15.286 11.885,4.95 19.688,11.021 24.158,15.286 4.951,4.724 7.017,8.31 7.037,8.347 l 0.061,0.1 c 6.801,10.562 7.829,32.573 7.829,44.919 0,2.533 -0.042,4.653 -0.089,6.189 -2.159,-0.642 -5.517,-1.478 -9.785,-2.012 -6.842,-0.858 -17.417,-1.062 -29.211,2.72 -11.793,-3.782 -22.369,-3.578 -29.213,-2.72" /><path
           id="path194"
           style="fill:#ffe800;fill-opacity:1;fill-rule:nonzero;stroke:none"
           d="m 365.37209,360.9245 c -1.327,0.184 -2.628,0.42 -3.908,0.688 l 0,-0.137 c 0,-3.463 0.076,-7.691 0.324,-12.191 0.776,-13.961 2.918,-24.607 6.031,-29.978 l 0.192,-0.355 -0.025,0.05 c 0.017,-0.033 1.748,-3.284 5.869,-7.577 3.503,-3.65 9.453,-8.766 18.363,-13.161 8.91,4.395 14.86,9.511 18.362,13.161 4.12,4.293 5.852,7.544 5.869,7.577 l -0.024,-0.05 0.192,0.355 c 3.112,5.371 5.254,16.016 6.031,29.976 0.247,4.502 0.323,8.73 0.323,12.193 l 0,0.134 c -7.159,-1.505 -18.22,-2.376 -30.763,1.769 -8.648,-2.847 -17.878,-3.703 -26.836,-2.454" /></g><g
         id="g5954"><g
           id="g5742"><path
             d="m 387.1629,309.4641 c 0,0.243 0,0.402 -0.143,0.402 -0.078,0 -0.465,-0.112 -0.478,-0.112 -0.059,0 -0.071,0.053 -0.071,0.083 0,0.059 0.035,0.084 0.256,0.149 0.262,0.077 0.579,0.172 0.776,0.267 0.145,0.07 0.156,0.1 0.21,0.1 0.078,0 0.078,-0.055 0.078,-0.155 l 0,-2.922 c 0,-0.421 0.077,-0.532 0.333,-0.532 0.185,0 0.264,0 0.264,-0.084 0,-0.089 -0.097,-0.089 -0.175,-0.089 -0.118,0 -0.393,0.024 -0.871,0.024 -0.257,0 -0.585,-0.024 -0.639,-0.024 -0.058,0 -0.136,0 -0.136,0.083 0,0.09 0.155,0.09 0.225,0.09 0.348,0 0.371,0.117 0.371,0.497 l 0,2.223 z"
             style="fill:#0066b3;fill-opacity:1;fill-rule:nonzero;stroke:none"
             id="path196" /><path
             d="m 389.7784,306.3637 c -0.209,-0.1 -0.675,-0.302 -0.771,-0.302 -0.066,0 -0.077,0.04 -0.077,0.065 0,0.041 0.023,0.065 0.089,0.09 0.699,0.253 2.049,1.155 2.049,2.6 0,0.801 -0.42,1.376 -0.884,1.376 -0.496,0 -0.675,-0.575 -0.675,-0.984 0,-0.657 0.406,-1.048 0.776,-1.048 0.131,0 0.22,0.04 0.316,0.081 0.013,0.007 0.043,0.019 0.066,0.019 0.03,0 0.054,-0.03 0.054,-0.06 0,-0.082 -0.31,-0.272 -0.692,-0.272 -0.717,0 -1.128,0.581 -1.128,1.133 0,0.68 0.572,1.273 1.361,1.273 0.996,0 1.432,-0.895 1.432,-1.558 0,-1.328 -1.182,-2.063 -1.916,-2.413"
             style="fill:#0066b3;fill-opacity:1;fill-rule:nonzero;stroke:none"
             id="path198" /><path
             d="m 394.6796,306.7313 c 0,-0.06 -0.011,-0.136 -0.148,-0.136 l -2.258,0 c -0.054,0 -0.126,0.011 -0.126,0.076 0,0.084 0.083,0.173 0.557,0.689 0.985,1.09 1.271,1.44 1.271,1.962 0,0.694 -0.561,0.758 -0.735,0.758 -0.37,0 -0.668,-0.214 -0.836,-0.451 -0.107,-0.154 -0.136,-0.183 -0.185,-0.183 -0.043,0 -0.065,0.041 -0.065,0.071 0,0.094 0.37,0.817 1.314,0.817 0.608,0 1.217,-0.307 1.217,-0.906 0,-0.545 -0.466,-0.955 -0.573,-1.044 l -0.919,-0.771 c -0.191,-0.159 -0.407,-0.367 -0.407,-0.407 0,-0.055 0.042,-0.06 0.168,-0.06 l 1.175,0 c 0.286,0 0.336,0.089 0.383,0.266 0.024,0.071 0.042,0.107 0.096,0.107 0.071,0 0.071,-0.089 0.071,-0.13 l 0,-0.658 z"
             style="fill:#0066b3;fill-opacity:1;fill-rule:nonzero;stroke:none"
             id="path200" /><path
             d="m 396.1063,306.3637 c -0.209,-0.1 -0.673,-0.302 -0.77,-0.302 -0.064,0 -0.078,0.04 -0.078,0.065 0,0.041 0.025,0.065 0.091,0.09 0.698,0.253 2.048,1.155 2.048,2.6 0,0.801 -0.418,1.376 -0.885,1.376 -0.495,0 -0.675,-0.575 -0.675,-0.984 0,-0.657 0.406,-1.048 0.777,-1.048 0.132,0 0.222,0.04 0.318,0.081 0.011,0.007 0.04,0.019 0.064,0.019 0.03,0 0.054,-0.03 0.054,-0.06 0,-0.082 -0.312,-0.272 -0.693,-0.272 -0.717,0 -1.128,0.581 -1.128,1.133 0,0.68 0.572,1.273 1.361,1.273 0.998,0 1.432,-0.895 1.432,-1.558 0,-1.328 -1.182,-2.063 -1.916,-2.413"
             style="fill:#0066b3;fill-opacity:1;fill-rule:nonzero;stroke:none"
             id="path202" /></g><g
           id="g5938"><path
             style="color:#000000;font-style:normal;font-variant:normal;font-weight:normal;font-stretch:normal;font-size:medium;line-height:normal;font-family:sans-serif;text-indent:0;text-align:start;text-decoration:none;text-decoration-line:none;text-decoration-style:solid;text-decoration-color:#000000;letter-spacing:normal;word-spacing:normal;text-transform:none;direction:ltr;block-progression:tb;writing-mode:lr-tb;baseline-shift:baseline;text-anchor:start;white-space:normal;clip-rule:nonzero;display:inline;overflow:visible;visibility:visible;opacity:1;isolation:auto;mix-blend-mode:normal;color-interpolation:sRGB;color-interpolation-filters:linearRGB;solid-color:#000000;solid-opacity:1;fill:#0066b3;fill-opacity:1;fill-rule:nonzero;stroke:none;stroke-width:0.294;stroke-linecap:butt;stroke-linejoin:miter;stroke-miterlimit:4;stroke-dasharray:none;stroke-dashoffset:0;stroke-opacity:1;color-rendering:auto;image-rendering:auto;shape-rendering:auto;text-rendering:auto;enable-background:accumulate"
             d="m 398.46094,316.19531 c -0.2059,0.11242 -0.37832,0.32491 -0.54297,0.57422 -0.16465,0.24931 -0.31566,0.5377 -0.44336,0.80274 C 397.21816,318.10802 394.85156,323 394.85156,323 l -0.0117,0.0234 -0.002,0.0176 c -0.0145,-0.002 -0.0472,-0.0102 -0.10547,-0.0469 l -0.0234,-0.0137 -0.0254,-0.006 c 0,0 -2.23005,-0.41163 -4.17578,0.0176 l -0.10547,-5.06641 c 0,0 0.0117,-0.10516 -0.0273,-0.22656 -0.039,-0.1214 -0.13358,-0.27177 -0.31836,-0.37891 -1.22504,-0.71278 -2.76317,-0.6182 -2.7793,-0.61719 l -0.01,0 c -0.52969,-10e-4 -2.59141,-0.16611 -3.45313,1.26368 -0.002,0.003 -0.24976,0.39696 -0.47851,1.20312 -0.22953,0.80887 -0.44365,2.03969 -0.38867,3.73828 0,0 0.0398,1.68675 -0.16407,3.53711 -0.10191,0.92518 -0.26489,1.89107 -0.52148,2.69922 -0.22196,0.69908 -0.54975,1.17876 -0.91211,1.51563 -0.0306,-0.24578 -0.0512,-0.62355 -0.29688,-1.19336 -0.1584,-0.36744 -0.37992,-0.72368 -0.70507,-0.95118 -0.32367,-0.22645 -0.75569,-0.30692 -1.25977,-0.13476 0,0 -0.34337,0.10223 -0.68164,0.39062 -0.33827,0.2884 -0.68164,0.77667 -0.68164,1.51368 l 0,0.004 0,0.002 c 0,0 0.0134,0.38469 -0.0234,0.83984 -0.0369,0.45515 -0.13918,0.98183 -0.30469,1.21289 l 0.0312,-0.0312 c 0,0 -0.24425,0.18923 -0.4082,0.5625 -0.16394,0.37327 -0.25317,0.94104 0.004,1.69141 l 0.0117,0.0351 0.0273,0.0254 c 0,0 0.0535,0.043 0.0859,0.17969 0.0324,0.13673 0.0338,0.36055 -0.14453,0.70313 -0.0134,0.0175 -0.17882,0.23143 -0.33399,0.54882 -0.16132,0.32997 -0.31041,0.75658 -0.19726,1.15821 l 0,0.004 0.002,0.002 c 0,0 0.0411,0.14432 0.14062,0.26953 0.0498,0.0626 0.12038,0.13041 0.22657,0.15039 0.0923,0.0174 0.18953,-0.0336 0.27343,-0.10156 -0.005,0.0261 6e-5,0.0174 -0.0117,0.0547 l -0.002,0.01 -0.002,0.008 c 0,0 -0.10892,0.57845 0.0215,1.19336 0.0652,0.30746 0.19085,0.62975 0.42969,0.89063 0.23885,0.26088 0.5905,0.45322 1.07227,0.5039 l 0.1914,0.0215 -0.0312,-0.19141 c 0,0 -0.0419,-0.27528 -0.002,-0.54492 0.02,-0.13482 0.0603,-0.26316 0.125,-0.35156 0.0647,-0.0884 0.14345,-0.14345 0.28906,-0.1543 l 0.004,0 0.002,0 c 0,0 0.0394,-0.0164 0.11524,0.0547 0.0759,0.071 0.18554,0.25547 0.18554,0.7207 0,0 -9.8e-4,0.0299 0.004,0.0645 0.005,0.0346 0.0119,0.0792 0.0449,0.13281 0.0165,0.0268 0.0418,0.0568 0.082,0.0781 0.0403,0.0213 0.0933,0.0282 0.13672,0.0195 0.0771,-0.0154 0.12752,-0.0656 0.18359,-0.125 0.0219,-0.0108 0.3507,-0.16869 0.66407,-0.5918 0.30813,-0.41603 0.56688,-1.09952 0.50781,-2.06836 0.15744,-0.037 3.52305,-0.85797 7.03125,-2.73242 0.0107,0.0468 0.0104,0.0508 0.0254,0.11133 0.0364,0.14687 0.0795,0.30714 0.12695,0.42383 0.0299,0.12051 0.0508,0.17599 0.0508,0.1875 2e-5,0.0115 -0.006,0.0421 -0.084,0.1582 l -0.006,0.008 -0.002,0.006 c 0,0 -0.0943,0.17649 -0.12891,0.41016 -0.0346,0.23367 -0.009,0.54871 0.23633,0.79297 l 0.01,0.0117 0.0137,0.008 c 0,0 0.077,0.0508 0.16015,0.11719 0.0754,0.0602 0.13913,0.13749 0.15235,0.15234 -0.005,0.0532 -0.20214,2.08352 -0.40821,4.20703 -0.20875,2.15115 -0.42034,4.33135 -0.43554,4.50782 l 0,0.006 0,0.006 c 0,0.15763 -0.0332,0.54505 -0.0605,0.91993 -0.0137,0.18744 -0.026,0.37258 -0.0312,0.5332 -0.005,0.16062 -0.007,0.29075 0.0117,0.39258 l 0.002,0.006 0,0.006 c 0,0 0.0137,0.0474 0.041,0.0996 0.0273,0.0522 0.0691,0.12346 0.16211,0.16406 0.093,0.0406 0.22121,0.0149 0.31836,-0.0606 0.0971,-0.0754 0.18933,-0.19399 0.29687,-0.38672 l 0.0137,-0.0234 0.004,-0.0274 c 0,0 0.38359,-2.6414 0.46289,-3.11914 l 0.002,-0.008 0,-0.01 c 0.006,-0.13314 0.0652,-0.64315 0.14844,-1.30273 0.0832,-0.65958 0.19117,-1.48104 0.29883,-2.2832 0.21344,-1.59031 0.42017,-3.07718 0.42383,-3.10352 0.007,-0.0115 0.0461,-0.0809 0.0684,-0.0957 0.012,-0.008 -0.005,-0.007 0.006,-0.002 0.0111,0.005 0.0593,0.0417 0.11914,0.14844 l 0.004,0.006 0.006,0.008 c 0,0 0.0645,0.0914 0.13672,0.20899 0.0722,0.11755 0.15012,0.26776 0.16797,0.33984 0.0403,0.17012 0.16064,0.28435 0.27148,0.36914 0.11017,0.0843 0.21879,0.14977 0.28125,0.21094 0.20215,0.22599 0.38048,0.53884 0.42774,0.79492 0.003,0.17206 0.0332,0.3372 0.0449,0.47656 0.0124,0.14735 0.003,0.25671 -0.0508,0.33594 -0.0153,0.0186 -0.58899,0.7215 -0.23242,1.57813 l 0,0.002 c 0,0 0.35739,0.83987 0.54297,1.37305 l 0.002,0.006 0.002,0.004 c 0,0 0.32961,0.76981 1.19141,1.00781 l 0.002,0 c 0.76319,0.2018 1.57692,-0.019 2.00781,-0.53515 l 0.008,-0.01 0.006,-0.01 c 0,0 0.62799,-1.03561 0.48437,-2.21094 l 0,-0.008 -0.002,-0.008 c 0,0 -0.0608,-0.25936 -0.0801,-0.48437 -0.007,-0.087 9e-5,-0.1459 0.006,-0.19336 0.26501,0.23823 0.70765,0.52601 1.12305,0.63672 l 0.0137,0.004 0.0137,0 c 0.41961,0.0265 0.59444,0.002 0.83008,0.002 0.274,0 0.37176,-0.002 0.58398,0.0234 l -0.0176,-0.002 c 0.1311,0.0325 0.25139,0.024 0.35157,-0.0117 0.0934,-0.0333 0.16553,-0.0845 0.24023,-0.13476 l 0.004,-0.002 c 0.004,-0.003 0.009,-0.005 0.0137,-0.008 0.0509,-0.0261 0.0713,-0.0361 0.10742,-0.0566 -1.6e-4,0.0129 0.003,0.0399 0.002,0.0488 -0.003,0.0318 -0.002,0.0254 -0.002,0.0254 l -0.008,0.0254 0,0.0234 c 0,0 -9.2e-4,0.0907 0.0234,0.19922 0.0243,0.1085 0.0704,0.24753 0.19336,0.34961 0.11841,0.0999 0.26302,0.13844 0.39648,0.12109 0.12936,-0.0168 0.25669,-0.0645 0.43359,-0.11523 0.32172,-0.0312 0.67757,-0.11742 0.90821,-0.0352 l 0.002,0 0.002,0 c 0.1783,0.0591 0.40772,0.11066 0.63868,0.0566 0.23095,-0.054 0.45112,-0.23366 0.55859,-0.55664 l 0.008,-0.0215 0,-0.0254 c 0,0 0.002,-0.11902 0.043,-0.21679 0.0202,-0.0489 0.0486,-0.0873 0.0781,-0.10742 0.0296,-0.0201 0.0634,-0.0324 0.14257,-0.0176 l 0.041,0.006 0.0371,-0.0137 c 0,0 0.17501,-0.0627 0.34961,-0.16601 0.0873,-0.0517 0.17507,-0.11366 0.24804,-0.19141 0.0684,-0.0729 0.12141,-0.17517 0.11719,-0.29297 0.006,-0.0288 0.0264,-0.11286 -0.0234,-0.23242 -0.0574,-0.1377 -0.19936,-0.28743 -0.46875,-0.39258 l -0.004,-0.002 c -0.44162,-0.18308 -0.80635,-0.45463 -0.94141,-0.65234 l -0.004,-0.006 -0.004,-0.004 c -0.0904,-0.10962 -0.28175,-0.2741 -0.57031,-0.43164 -0.27147,-0.14821 -0.63865,-0.26966 -1.05469,-0.30859 -0.003,-0.002 -0.19487,-0.14094 -0.24414,-0.23828 l 0.0117,0.0312 c 0,0 -0.0166,-0.0607 -0.0566,-0.12891 -0.0401,-0.0683 -0.10788,-0.15701 -0.21485,-0.25195 -0.21393,-0.18989 -0.58663,-0.402 -1.23437,-0.54102 l -0.002,0 -0.002,-0.002 c 0,0 -0.67612,-0.13357 -1.15625,-0.58594 l -0.006,-0.006 -0.008,-0.006 c 0,0 -0.15236,-0.11079 -0.33008,-0.22851 -0.0889,-0.0589 -0.18387,-0.11909 -0.27148,-0.16993 -0.0876,-0.0508 -0.16191,-0.0932 -0.24024,-0.11523 l -0.002,0 -0.002,0 c -0.14982,-0.0371 -0.33908,-0.21066 -0.4375,-0.49414 -0.0524,-0.31971 -0.13282,-1.00865 -0.13282,-1.83203 l 0,-1.44531 c 0.11119,0.008 0.31459,0.0231 0.65625,0.0449 0.424,0.027 0.87189,0.0547 1.02735,0.0547 0.10845,0 0.44795,0.0409 0.88086,0.002 0.43291,-0.0389 0.97472,-0.15922 1.54297,-0.48438 1.05331,-0.60421 1.73385,-1.25107 2.26562,-2.11133 0.27151,-0.42531 0.78633,-1.43672 1.27539,-2.41796 0.48906,-0.98125 0.95099,-1.93096 1.08203,-2.17774 l 0.002,-0.004 0.002,-0.002 c 0.25209,-0.52877 0.96081,-2.20969 1.25391,-2.79297 0.1677,-0.33284 0.38437,-0.82759 0.52148,-1.33398 0.13711,-0.50639 0.20731,-1.02614 0.0293,-1.42578 l -0.0156,-0.0312 -0.0273,-0.0234 c 0,0 -1.37089,-1.09568 -2.98047,-2.06641 -0.80479,-0.48536 -1.66924,-0.9411 -2.46094,-1.21289 -0.7917,-0.27178 -1.5201,-0.37255 -2.05273,-0.082 z"
             id="path5770" /><path
             style="color:#000000;font-style:normal;font-variant:normal;font-weight:normal;font-stretch:normal;font-size:medium;line-height:normal;font-family:sans-serif;text-indent:0;text-align:start;text-decoration:none;text-decoration-line:none;text-decoration-style:solid;text-decoration-color:#000000;letter-spacing:normal;word-spacing:normal;text-transform:none;direction:ltr;block-progression:tb;writing-mode:lr-tb;baseline-shift:baseline;text-anchor:start;white-space:normal;clip-rule:nonzero;display:inline;overflow:visible;visibility:visible;opacity:1;isolation:auto;mix-blend-mode:normal;color-interpolation:sRGB;color-interpolation-filters:linearRGB;solid-color:#000000;solid-opacity:1;fill:#0066b3;fill-opacity:1;fill-rule:nonzero;stroke:none;stroke-width:0.294;stroke-linecap:butt;stroke-linejoin:miter;stroke-miterlimit:4;stroke-dasharray:none;stroke-dashoffset:0;stroke-opacity:1;color-rendering:auto;image-rendering:auto;shape-rendering:auto;text-rendering:auto;enable-background:accumulate"
             d="m 395.28906,340.70312 c 0.008,0.008 0.029,0.0137 0.0371,0.0215 9.5e-4,6.3e-4 -0.009,0 -0.006,0.002 l -0.0312,-0.0234 z"
             id="path206" /><path
             style="color:#000000;font-style:normal;font-variant:normal;font-weight:normal;font-stretch:normal;font-size:medium;line-height:normal;font-family:sans-serif;text-indent:0;text-align:start;text-decoration:none;text-decoration-line:none;text-decoration-style:solid;text-decoration-color:#000000;letter-spacing:normal;word-spacing:normal;text-transform:none;direction:ltr;block-progression:tb;writing-mode:lr-tb;baseline-shift:baseline;text-anchor:start;white-space:normal;clip-rule:nonzero;display:inline;overflow:visible;visibility:visible;opacity:1;isolation:auto;mix-blend-mode:normal;color-interpolation:sRGB;color-interpolation-filters:linearRGB;solid-color:#000000;solid-opacity:1;fill:#ffe800;fill-opacity:1;fill-rule:nonzero;stroke:none;stroke-width:0.294;stroke-linecap:butt;stroke-linejoin:miter;stroke-miterlimit:4;stroke-dasharray:none;stroke-dashoffset:0;stroke-opacity:1;color-rendering:auto;image-rendering:auto;shape-rendering:auto;text-rendering:auto;enable-background:accumulate"
             d="m 398.60156,316.45312 c 0.40237,-0.21947 1.05805,-0.15877 1.81641,0.10157 0.75836,0.26034 1.60984,0.70641 2.4043,1.18554 1.5654,0.9441 2.86684,1.9842 2.90625,2.01563 0.11554,0.28023 0.082,0.73438 -0.0449,1.20312 -0.12938,0.47786 -0.33774,0.96115 -0.49804,1.2793 -0.3089,0.61472 -1.0179,2.2956 -1.25782,2.79883 -0.14415,0.27188 -0.59701,1.20264 -1.08398,2.17969 -0.48819,0.9795 -1.01227,2.00293 -1.25977,2.39062 l 0,0.002 c -0.50801,0.82259 -1.14031,1.42446 -2.16406,2.01171 -0.52575,0.30085 -1.02103,0.41121 -1.42187,0.44727 -0.40084,0.0361 -0.68893,-0.004 -0.85547,-0.004 -0.11655,0 -0.58481,-0.0258 -1.00781,-0.0527 -0.42301,-0.027 -0.8125,-0.0547 -0.8125,-0.0547 l -0.15821,-0.0117 0,1.75977 c 0,0.84956 0.083,1.5604 0.13867,1.89648 l 0.002,0.0117 0.004,0.0117 c 0.12253,0.36311 0.36579,0.62091 0.65039,0.69141 0.0205,0.007 0.0891,0.0393 0.16602,0.084 0.0795,0.0461 0.17192,0.10327 0.25781,0.16016 0.16319,0.10808 0.29085,0.20095 0.30469,0.21093 0.55787,0.52563 1.30273,0.66016 1.30273,0.66016 l -0.004,0 c 0.61026,0.13098 0.93495,0.32499 1.10351,0.47461 0.0843,0.0748 0.12955,0.13751 0.1543,0.17969 0.0247,0.0422 0.0254,0.0508 0.0254,0.0508 l 0.004,0.0176 0.008,0.0137 c 0.11433,0.22587 0.35156,0.35742 0.35156,0.35742 l 0.0332,0.0195 0.0371,0.002 c 0.39866,0.0249 0.73986,0.15201 0.99805,0.29296 0.25819,0.14096 0.43678,0.30596 0.48242,0.36133 l -0.008,-0.0117 c 0.19643,0.28755 0.59404,0.56088 1.07617,0.75977 l 0.002,0 0.002,0 c 0.21993,0.0848 0.28272,0.17703 0.30664,0.23437 0.0239,0.0573 0.0156,0.0762 0.0156,0.0762 l -0.008,0.0273 0.002,0.0293 c 8.2e-4,0.007 -0.005,0.0336 -0.0469,0.0781 -0.0418,0.0445 -0.11039,0.0953 -0.18359,0.13867 -0.14641,0.0867 -0.30078,0.14453 -0.30078,0.14453 l 0.0781,-0.006 c -0.13978,-0.0262 -0.26965,7.5e-4 -0.36328,0.0645 -0.0936,0.0637 -0.14908,0.15296 -0.18359,0.23633 -0.069,0.16673 -0.0664,0.33007 -0.0664,0.33007 l 0.008,-0.0449 c -0.0825,0.24802 -0.20236,0.32735 -0.34765,0.36133 -0.1453,0.034 -0.32782,10e-4 -0.47852,-0.0488 l 0.004,0.002 c -0.3664,-0.13069 -0.76781,-0.006 -1.04688,0.0195 l -0.0137,0.002 -0.0137,0.004 c -0.19598,0.0554 -0.32626,0.10118 -0.4043,0.11132 -0.078,0.0102 -0.0963,0.007 -0.16992,-0.0547 l -0.002,0 c -0.0421,-0.0349 -0.0769,-0.11421 -0.0937,-0.18946 -0.0167,-0.0742 -0.0176,-0.13115 -0.0176,-0.13281 0,-2e-5 0,-0.002 0,-0.002 0.004,-0.0183 0.007,-0.0223 0.01,-0.0508 0.004,-0.0507 0.002,-0.12747 -0.01,-0.21875 -4.3e-4,-0.003 -0.002,-0.004 -0.002,-0.008 -3e-4,-0.0246 -10e-4,-0.0493 -0.0117,-0.0801 -0.0116,-0.0338 -0.0399,-0.0778 -0.084,-0.10157 -0.0882,-0.0475 -0.1491,-0.0136 -0.18945,0.004 -0.0807,0.0351 -0.1532,0.0846 -0.25391,0.13477 l -0.008,0.004 -0.008,0.006 c -0.0825,0.0552 -0.14279,0.0953 -0.19336,0.11328 -0.0506,0.018 -0.0947,0.0235 -0.18164,0.002 l -0.008,-0.004 -0.01,0 c -0.22378,-0.0267 -0.34514,-0.0273 -0.61914,-0.0273 -0.2508,0 -0.40977,0.0228 -0.79297,0 -0.36799,-0.1015 -0.88615,-0.42522 -1.07031,-0.60938 l -0.0137,-0.0137 -0.0176,-0.01 c -0.0633,-0.0365 -0.15008,-0.0584 -0.23047,-0.0234 -0.0804,0.0349 -0.1164,0.10451 -0.13477,0.16211 -0.0367,0.11518 -0.0305,0.23699 -0.0195,0.36523 0.0214,0.24984 0.0808,0.49828 0.084,0.51172 0.12576,1.0369 -0.42569,1.98425 -0.43946,2.00781 -0.33884,0.39941 -1.04431,0.60987 -1.69922,0.4375 -0.7242,-0.2 -1,-0.83984 -1,-0.83984 -0.1931,-0.55221 -0.54406,-1.37884 -0.54492,-1.38086 l 0,-0.002 c -0.29271,-0.70697 0.19531,-1.2871 0.19531,-1.2871 l 0.004,-0.006 0.006,-0.008 c 0.11143,-0.16477 0.11399,-0.35398 0.0996,-0.52539 -0.0144,-0.17141 -0.0469,-0.33652 -0.0469,-0.47851 l 0,-0.0137 -0.002,-0.0117 c -0.0626,-0.33918 -0.26687,-0.6796 -0.5,-0.93946 l -0.002,-0.004 -0.004,-0.002 c -0.10207,-0.10207 -0.22209,-0.17152 -0.31445,-0.24218 -0.0924,-0.0707 -0.14818,-0.13295 -0.16406,-0.20313 l 0,-0.002 c -0.0362,-0.14593 -0.12289,-0.29639 -0.20118,-0.42383 -0.0738,-0.12008 -0.13501,-0.20231 -0.14257,-0.21289 -0.0767,-0.13676 -0.15244,-0.22595 -0.25391,-0.27149 -0.10147,-0.0455 -0.21922,-0.021 -0.28906,0.0254 -0.13968,0.0928 -0.1836,0.23632 -0.1836,0.23632 l -0.008,0.0176 -0.002,0.0176 c 0,0 -0.2123,1.52764 -0.42774,3.13281 -0.10771,0.80259 -0.21739,1.62417 -0.30078,2.28516 -0.0834,0.66098 -0.1407,1.14927 -0.14843,1.32812 -0.0846,0.51313 -0.44863,3.01262 -0.45704,3.07032 -0.091,0.15876 -0.16721,0.25272 -0.20898,0.28515 -0.0438,0.034 -0.0269,0.0183 -0.0195,0.0215 0.007,0.003 -0.0101,-0.01 -0.0215,-0.0312 -0.0102,-0.0194 -0.0128,-0.0321 -0.0137,-0.0352 -0.008,-0.0503 -0.0127,-0.17258 -0.008,-0.32226 0.005,-0.15332 0.0177,-0.33568 0.0312,-0.52149 0.0267,-0.36624 0.0596,-0.73014 0.0606,-0.92773 0.0128,-0.14853 0.2268,-2.3528 0.43554,-4.50391 0.20875,-2.15111 0.41407,-4.26172 0.41407,-4.26172 l 0.002,-0.0371 -0.0137,-0.0332 c -0.0558,-0.13686 -0.16076,-0.20926 -0.25586,-0.28516 -0.0846,-0.0675 -0.14586,-0.10829 -0.16211,-0.11914 -0.16066,-0.16303 -0.17683,-0.3606 -0.15039,-0.53906 0.0266,-0.17983 0.0976,-0.31641 0.0976,-0.31641 l -0.008,0.0137 c 0.0868,-0.12889 0.13499,-0.21997 0.13477,-0.32421 -2.3e-4,-0.10424 -0.0364,-0.15837 -0.0605,-0.25586 l -0.002,-0.0117 -0.006,-0.0117 c -0.0313,-0.0726 -0.082,-0.25046 -0.11914,-0.40039 -0.0371,-0.14993 -0.0625,-0.27539 -0.0625,-0.27539 l -0.041,-0.19336 -0.17383,0.0937 c -3.61422,1.96967 -7.23437,2.81055 -7.23437,2.81055 l -0.125,0.0293 0.0117,0.12696 c 0.0924,0.98492 -0.17629,1.60785 -0.46094,1.99218 -0.28465,0.38434 -0.57617,0.52149 -0.57617,0.52149 l -0.0274,0.0137 c -0.0149,-0.4489 -0.11404,-0.73464 -0.25976,-0.87109 -0.15432,-0.14451 -0.3413,-0.13308 -0.3457,-0.13282 -0.22191,0.0174 -0.39562,0.12628 -0.50196,0.27149 -0.10683,0.14588 -0.15541,0.31862 -0.17969,0.48242 -0.0299,0.20199 -0.009,0.27304 0.002,0.39258 -0.3022,-0.0681 -0.5676,-0.16639 -0.72461,-0.33789 -0.19203,-0.20975 -0.30158,-0.47941 -0.35938,-0.75196 -0.11559,-0.54508 -0.0195,-1.07812 -0.0195,-1.07812 l -0.004,0.0176 c 0.0441,-0.13976 0.0638,-0.23169 0.041,-0.33008 -0.0114,-0.0492 -0.0447,-0.10576 -0.0957,-0.13672 -0.051,-0.031 -0.10407,-0.0328 -0.14258,-0.0273 -0.077,0.011 -0.12326,0.0433 -0.16211,0.0684 -0.0389,0.025 -0.0684,0.0488 -0.0684,0.0488 l -0.004,0.004 -0.006,0.006 c -0.0463,0.0463 -0.0493,0.0354 -0.0508,0.0352 -10e-4,-2.8e-4 -0.025,-0.0106 -0.0508,-0.043 -0.0499,-0.0628 -0.0875,-0.16535 -0.0898,-0.17188 l 0,-0.002 c -0.077,-0.27621 0.0331,-0.64929 0.17969,-0.94922 0.14692,-0.30053 0.3164,-0.51953 0.3164,-0.51953 l 0.008,-0.0117 0.006,-0.01 c 0.20372,-0.39142 0.21952,-0.69893 0.16993,-0.9082 -0.0496,-0.20927 -0.17383,-0.32812 -0.17383,-0.32812 l 0.0391,0.0605 c -0.23592,-0.68863 -0.14852,-1.16508 -0.0117,-1.47656 0.13681,-0.31148 0.31641,-0.44726 0.31641,-0.44726 l 0.0176,-0.0137 0.0137,-0.0176 c 0.24349,-0.33994 0.31903,-0.88527 0.35742,-1.35937 0.0382,-0.47198 0.0255,-0.86754 0.0254,-0.87109 0,-0.648 0.28545,-1.04121 0.57617,-1.28907 0.29073,-0.24785 0.57617,-0.33398 0.57618,-0.33398 l 0.004,-0.002 0.002,0 c 0.43593,-0.15071 0.74335,-0.0839 1,0.0957 0.25666,0.17957 0.45767,0.48786 0.60352,0.82617 0.29169,0.67662 0.36133,1.44922 0.36133,1.44922 l 0.0215,0.24805 0.20899,-0.14063 c 0.54052,-0.36575 0.9019,-1.06824 1.16797,-1.90625 0.26606,-0.838 0.43194,-1.81696 0.53515,-2.7539 0.20642,-1.87389 0.16406,-3.57813 0.16406,-3.57813 l 0,-0.002 c -0.054,-1.66941 0.15573,-2.86881 0.37696,-3.64844 0.22122,-0.77963 0.44726,-1.12891 0.44726,-1.12891 l 0.002,0 0,-0.002 c 0.74966,-1.24386 2.63682,-1.12305 3.21093,-1.12305 l 0.004,0 0.004,0 c 0,0 1.49651,-0.0773 2.62304,0.57813 0.12222,0.0709 0.1648,0.15024 0.18555,0.21484 0.0208,0.0646 0.0156,0.10156 0.0156,0.10156 l 0,0.01 0.11132,5.43359 0.17969,-0.0449 c 1.88939,-0.47673 4.22656,-0.0254 4.22656,-0.0254 l -0.0508,-0.0215 c 0.0883,0.0556 0.16598,0.0871 0.24414,0.0937 0.0782,0.007 0.1573,-0.0189 0.20703,-0.0605 0.0995,-0.0833 0.10352,-0.19531 0.10352,-0.19531 l -0.0156,0.0488 c 0,0 2.36545,-4.88744 2.625,-5.42969 l -0.002,0 c 0.1243,-0.25797 0.27294,-0.53614 0.42578,-0.76758 0.15285,-0.23144 0.3174,-0.41294 0.4375,-0.47852 z"
             id="path5768" /><path
             style="color:#000000;font-style:normal;font-variant:normal;font-weight:normal;font-stretch:normal;font-size:medium;line-height:normal;font-family:sans-serif;text-indent:0;text-align:start;text-decoration:none;text-decoration-line:none;text-decoration-style:solid;text-decoration-color:#000000;letter-spacing:normal;word-spacing:normal;text-transform:none;direction:ltr;block-progression:tb;writing-mode:lr-tb;baseline-shift:baseline;text-anchor:start;white-space:normal;clip-rule:nonzero;display:inline;overflow:visible;visibility:visible;opacity:1;isolation:auto;mix-blend-mode:normal;color-interpolation:sRGB;color-interpolation-filters:linearRGB;solid-color:#000000;solid-opacity:1;fill:#0066b3;fill-opacity:1;fill-rule:nonzero;stroke:none;stroke-width:0.294;stroke-linecap:round;stroke-linejoin:round;stroke-miterlimit:4;stroke-dasharray:none;stroke-dashoffset:0;stroke-opacity:1;color-rendering:auto;image-rendering:auto;shape-rendering:auto;text-rendering:auto;enable-background:accumulate"
             d="m 378.12969,338.54787 a 0.1470147,0.1470147 0 0 1 -0.125,-0.10781 c 0,0 -0.12924,-0.71409 -0.0359,-1.37968 -0.0858,0.003 -0.15587,0.0189 -0.30626,-0.025 -0.11253,-0.0328 -0.23374,-0.0929 -0.30625,-0.2172 -0.0724,-0.12428 -0.0718,-0.29113 0.005,-0.46874 a 0.1470147,0.1470147 0 0 1 0.0469,-0.0578 c 0,0 0.70388,-0.53982 0.47188,-1.30781 -0.13156,-0.43497 -0.22368,-0.78906 -0.24688,-1.11094 -0.0232,-0.32189 0.0263,-0.6122 0.16875,-0.89375 0.27211,-0.54108 0.67777,-0.99814 0.67969,-2.42812 -0.008,-0.0353 -0.0654,-0.28704 0.0156,-0.59532 0.0868,-0.33044 0.3589,-0.70888 0.96719,-0.84844 a 0.1470147,0.1470147 0 0 1 0.005,0 c 0,0 0.0885,-0.015 0.2,0.005 0.11145,0.0197 0.25819,0.0726 0.40156,0.19844 0.28481,0.24997 0.54413,0.76595 0.59062,1.80938 l 0.0344,0.19687 c 0.0362,0.20195 0.17078,0.55546 0.29531,0.84688 0.0639,0.14967 0.079,0.17481 0.12344,0.27031 l 0.18594,-0.32188 a 0.1470147,0.1470147 0 0 1 0.0594,-0.0578 c 1.06675,-0.54866 1.69371,-1.94597 2.03438,-3.22188 0.33919,-1.27046 0.40103,-2.3951 0.40156,-2.40468 -0.12628,-0.76892 -0.0126,-2.41018 0.12656,-3.90469 0.14053,-1.50916 0.31094,-2.84063 0.31094,-2.84063 a 0.1470147,0.1470147 0 0 1 0.23125,-0.10156 l 0.98125,0.67656 a 0.1470147,0.1470147 0 0 1 0.061,0.15469 l -1.00938,4.33751 0,0.005 c -0.007,0.0346 -0.007,0.0482 -0.011,0.075 0.0766,-0.0781 0.15831,-0.16792 0.17031,-0.18282 0.008,-0.0228 0.18149,-0.51578 0.375,-1.10156 0.19794,-0.59915 0.41064,-1.28054 0.46094,-1.53906 a 0.1470147,0.1470147 0 0 1 0.0125,-0.0344 c 0.091,-0.19252 0.22805,-0.73098 0.32969,-1.2 0.0838,-0.38698 0.12344,-0.61814 0.14375,-0.72813 -0.004,-0.002 -0.006,4.4e-4 -0.009,-0.002 -0.13135,-0.0673 -0.29428,-0.22096 -0.55313,-0.57031 -8e-4,-8e-4 -5.6e-4,-0.004 -0.002,-0.005 -0.14689,-0.1689 -0.23485,-0.33212 -0.25625,-0.49532 -0.0215,-0.16445 0.0268,-0.32009 0.11094,-0.44844 0.16812,-0.25668 0.46341,-0.4384 0.75,-0.62812 a 0.1470147,0.1470147 0 0 1 0.005,-0.005 c 0.3685,-0.22351 0.89924,-0.24562 1.39531,-0.22812 0.49606,0.0175 0.96662,0.0882 1.15312,0.1 a 0.1470147,0.1470147 0 0 1 0.0234,0.002 c 0.53968,0.12677 0.75625,0.62812 0.75625,0.62812 a 0.1470147,0.1470147 0 0 1 0.0125,0.0578 l -0.0266,8.76718 a 0.1470147,0.1470147 0 0 1 -0.24375,0.1125 l -1.03751,-0.89531 a 0.1470147,0.1470147 0 0 1 -0.039,-0.0547 c -0.13984,-0.33225 -0.2128,-0.55577 -0.31249,-0.68125 -0.0997,-0.12549 -0.22948,-0.19472 -0.58125,-0.23281 a 0.1470147,0.1470147 0 0 1 -0.039,-0.009 c -0.16317,-0.0653 -0.41999,-0.0717 -0.71094,-0.0515 -0.29095,0.02 -0.61425,0.061 -0.92813,0.061 -0.12957,0 -0.20155,0.0279 -0.24375,0.0562 -0.0422,0.0283 -0.0624,0.0606 -0.075,0.1 -0.0222,0.0691 -0.007,0.13236 -0.003,0.15156 1.55955,1.01074 2.14856,2.63006 2.15156,2.63906 l 0.002,0.006 c 0.15614,0.39694 0.53027,1.03291 0.86251,1.56095 0.33336,0.52982 0.62656,0.95468 0.62656,0.95468 a 0.1470147,0.1470147 0 0 1 0.0234,0.10781 c -0.0343,0.20419 -0.0119,0.66513 0.025,1.05469 0.0369,0.38957 0.0844,0.71875 0.0844,0.71875 a 0.1470147,0.1470147 0 0 1 -0.0531,0.13438 c -3.85532,3.13203 -8.58063,3.3625 -8.82215,3.3733 0.42324,1.02299 -0.0234,2.08751 -0.0234,2.08751 a 0.1470147,0.1470147 0 0 1 -0.24531,0.0297 c -0.22493,-0.26793 -0.42523,-0.38551 -0.59375,-0.425 -0.16854,-0.0395 -0.31592,-0.006 -0.44844,0.061 -0.26504,0.13332 -0.44219,0.40468 -0.44219,0.40468 a 0.1470147,0.1470147 0 0 1 -0.14062,0.0672 z"
             id="path5774" /><path
             style="color:#000000;font-style:normal;font-variant:normal;font-weight:normal;font-stretch:normal;font-size:medium;line-height:normal;font-family:sans-serif;text-indent:0;text-align:start;text-decoration:none;text-decoration-line:none;text-decoration-style:solid;text-decoration-color:#000000;letter-spacing:normal;word-spacing:normal;text-transform:none;direction:ltr;block-progression:tb;writing-mode:lr-tb;baseline-shift:baseline;text-anchor:start;white-space:normal;clip-rule:nonzero;display:inline;overflow:visible;visibility:visible;opacity:1;isolation:auto;mix-blend-mode:normal;color-interpolation:sRGB;color-interpolation-filters:linearRGB;solid-color:#000000;solid-opacity:1;fill:#0066b3;fill-opacity:1;fill-rule:nonzero;stroke:none;stroke-width:0.294;stroke-linecap:round;stroke-linejoin:round;stroke-miterlimit:4;stroke-dasharray:none;stroke-dashoffset:0;stroke-opacity:1;color-rendering:auto;image-rendering:auto;shape-rendering:auto;text-rendering:auto;enable-background:accumulate"
             d="m 387.11328,325.88672 c 0,0 -0.52509,-0.21541 -1.07812,0.0605 a 0.1470147,0.1470147 0 0 0 -0.0234,0.24804 c 0,0 0.39066,0.29437 0.82226,0.68946 0.4316,0.39508 0.90177,0.90319 1.04493,1.25781 l -0.006,-0.0176 c 0.11463,0.42556 0.33059,0.89526 0.56445,1.30078 0.23386,0.40552 0.47599,0.74203 0.68359,0.91797 a 0.1470147,0.1470147 0 0 0 0.0957,0.0352 l 0.84765,0 a 0.1470147,0.1470147 0 0 0 0.10352,-0.25196 c 0,0 -0.25603,-0.25511 -0.53906,-0.58007 -0.28304,-0.32497 -0.59135,-0.73104 -0.6836,-0.97071 a 0.1470147,0.1470147 0 0 0 -0.008,-0.0137 c 0,0 -0.30183,-0.59453 -0.67383,-1.2207 -0.186,-0.31309 -0.38918,-0.63378 -0.58398,-0.89649 -0.19481,-0.2627 -0.36344,-0.46764 -0.5625,-0.55664 a 0.1470147,0.1470147 0 0 0 -0.004,-0.002 z"
             id="path5782" /><path
             style="color:#000000;font-style:normal;font-variant:normal;font-weight:normal;font-stretch:normal;font-size:medium;line-height:normal;font-family:sans-serif;text-indent:0;text-align:start;text-decoration:none;text-decoration-line:none;text-decoration-style:solid;text-decoration-color:#000000;letter-spacing:normal;word-spacing:normal;text-transform:none;direction:ltr;block-progression:tb;writing-mode:lr-tb;baseline-shift:baseline;text-anchor:start;white-space:normal;clip-rule:nonzero;display:inline;overflow:visible;visibility:visible;opacity:1;isolation:auto;mix-blend-mode:normal;color-interpolation:sRGB;color-interpolation-filters:linearRGB;solid-color:#000000;solid-opacity:1;fill:#0066b3;fill-opacity:1;fill-rule:nonzero;stroke:none;stroke-width:0.294;stroke-linecap:round;stroke-linejoin:round;stroke-miterlimit:4;stroke-dasharray:none;stroke-dashoffset:0;stroke-opacity:1;color-rendering:auto;image-rendering:auto;shape-rendering:auto;text-rendering:auto;enable-background:accumulate"
             d="m 391.10156,330.87109 c -0.3685,0 -0.84674,-0.004 -1.22851,0.10352 -0.19089,0.054 -0.36444,0.13563 -0.47852,0.28516 -0.11334,0.14854 -0.14169,0.3596 -0.0723,0.58593 1.8e-4,6.2e-4 -1.9e-4,10e-4 0,0.002 2.3e-4,7.4e-4 -2.4e-4,0.001 0,0.002 0.11946,0.40741 0.19416,0.85009 0.27734,1.22461 0.0417,0.18783 0.0865,0.35858 0.14258,0.5039 0.0561,0.14533 0.12154,0.27088 0.23633,0.35352 a 0.1470147,0.1470147 0 0 0 0.006,0.004 c 0,0 1.21134,0.8125 2.375,0.8125 a 0.1470147,0.1470147 0 0 0 0.13867,-0.10157 c 0,0 0.43173,-1.30127 -0.19727,-2.60742 a 0.1470147,0.1470147 0 0 0 -0.0215,-0.0312 c -0.21215,-0.24773 -0.28456,-0.49802 -0.41407,-0.72461 -0.0648,-0.11329 -0.14925,-0.22261 -0.27539,-0.29882 -0.12613,-0.0762 -0.28575,-0.11329 -0.48828,-0.11329 z"
             id="path5778" /><path
             style="color:#000000;font-style:normal;font-variant:normal;font-weight:normal;font-stretch:normal;font-size:medium;line-height:normal;font-family:sans-serif;text-indent:0;text-align:start;text-decoration:none;text-decoration-line:none;text-decoration-style:solid;text-decoration-color:#000000;letter-spacing:normal;word-spacing:normal;text-transform:none;direction:ltr;block-progression:tb;writing-mode:lr-tb;baseline-shift:baseline;text-anchor:start;white-space:normal;clip-rule:nonzero;display:inline;overflow:visible;visibility:visible;opacity:1;isolation:auto;mix-blend-mode:normal;color-interpolation:sRGB;color-interpolation-filters:linearRGB;solid-color:#000000;solid-opacity:1;fill:#0066b3;fill-opacity:1;fill-rule:nonzero;stroke:none;stroke-width:0.294;stroke-linecap:round;stroke-linejoin:round;stroke-miterlimit:4;stroke-dasharray:none;stroke-dashoffset:0;stroke-opacity:1;color-rendering:auto;image-rendering:auto;shape-rendering:auto;text-rendering:auto;enable-background:accumulate"
             d="m 393.83906,340.02131 c -0.0957,0.002 -0.15956,-0.013 -0.16406,-0.0141 -0.99143,-0.0671 -1.44531,-0.85625 -1.44531,-0.85625 a 0.1470147,0.1470147 0 0 1 0.11718,-0.21875 l 0.77031,-0.0516 c -0.15584,-0.14899 -0.22919,-0.30822 -0.67656,-0.39062 a 0.1470147,0.1470147 0 0 1 -0.003,-0.002 c -0.43389,-0.0926 -0.7766,-0.40301 -1.04688,-0.73437 -0.26959,-0.33054 -0.47061,-0.69226 -0.60312,-0.90313 -0.25904,-0.40053 -0.66875,-0.39375 -0.66875,-0.39375 a 0.1470147,0.1470147 0 0 1 -0.1125,-0.0531 c 0,0 -0.0876,-0.10159 -0.13125,-0.25 -0.0437,-0.14842 -0.0338,-0.37215 0.14062,-0.54531 a 0.1470147,0.1470147 0 0 1 0.0328,-0.025 c 0.097,-0.0523 0.20387,-0.0756 0.30625,-0.0625 0.10238,0.0131 0.19467,0.0577 0.28907,0.11406 0.18885,0.1127 0.39748,0.28612 0.70624,0.5 a 0.1470147,0.1470147 0 0 1 0.011,0.009 c 0.58646,0.49859 0.82996,1.14535 0.84844,1.19531 0,0 0.002,0.002 0.002,0.002 0.32372,0.4887 0.59142,0.57784 0.77344,0.57813 0.0697,2e-4 0.0647,-0.0176 0.11094,-0.0344 -0.0402,-0.0404 -0.10574,-0.0838 -0.13594,-0.12813 -0.0727,-0.10657 -0.13536,-0.22554 -0.30937,-0.46406 l 0.0125,0.0141 c -0.22055,-0.23289 -0.30818,-0.43077 -0.41719,-0.63125 -0.109,-0.20048 -0.24388,-0.41833 -0.58906,-0.74844 a 0.1470147,0.1470147 0 0 1 -0.005,-0.003 c -0.62994,-0.65008 -1.17514,-0.71681 -1.70625,-0.85625 -0.14837,-0.0371 -0.24781,-0.0768 -0.32031,-0.15156 -0.0729,-0.0752 -0.0824,-0.20716 -0.0469,-0.28125 0.0355,-0.0742 0.0856,-0.11562 0.125,-0.14531 0.0394,-0.0297 0.0734,-0.0485 0.0734,-0.0485 a 0.1470147,0.1470147 0 0 1 0.039,-0.0141 c 0.57686,-0.12027 1.1551,0.12141 2.08906,0.58437 l 0,-0.002 c 0.99004,0.47741 1.425,1.16719 1.425,1.16719 a 0.1470147,0.1470147 0 0 1 0.008,0.0141 c 0.25843,0.52744 0.45878,0.62888 0.7125,0.86875 -0.009,-0.12488 -0.006,-0.2323 -0.0813,-0.45938 -0.23269,-0.61166 -0.88125,-1.50781 -0.88125,-1.50781 a 0.1470147,0.1470147 0 0 1 -0.025,-0.11406 c 0.0216,-0.10666 0.0272,-0.33362 0.0172,-0.59375 -0.01,-0.26015 -0.0336,-0.56043 -0.061,-0.84375 -0.0546,-0.56668 -0.12188,-1.06719 -0.12188,-1.06719 a 0.1470147,0.1470147 0 0 1 0.025,-0.10469 c 0.061,-0.0854 0.22775,-0.40429 0.42344,-0.81719 0.19571,-0.41288 0.43131,-0.93175 0.67032,-1.46406 0.47804,-1.06462 0.96728,-2.18111 1.19062,-2.6375 a 0.1470147,0.1470147 0 0 0 0,-0.002 c 0.21659,-0.4307 0.60702,-1.25105 0.95782,-2.03593 0.34924,-0.78139 0.6596,-1.54577 0.72031,-1.80469 0.0588,-0.42892 -0.10973,-0.56877 -0.16563,-0.62657 -0.13445,0.0601 -0.31106,0.1866 -0.45937,0.37188 -0.17661,0.2206 -0.30313,0.43437 -0.30313,0.43437 a 0.1470147,0.1470147 0 0 1 -0.27343,-0.0875 c 0.0106,-0.10499 0.0547,-0.22647 0.12031,-0.40156 0.0656,-0.1751 0.15418,-0.39233 0.2625,-0.64062 0.2166,-0.49659 0.50745,-1.11607 0.81562,-1.74844 0.61634,-1.26475 1.29986,-2.57375 1.64219,-3.08438 a 0.1470147,0.1470147 0 0 0 0.002,-0.002 c 0.33469,-0.48396 0.56725,-0.70343 0.82969,-0.75781 l 0.002,0 c 0.25661,-0.0519 0.46245,0.0666 0.71562,0.15624 l 0.002,0 c 0.3725,0.0847 0.72973,0.42104 1.02344,0.72969 0.28735,0.30199 0.48844,0.57304 0.49844,0.58594 0.35826,0.37196 0.46486,0.82636 0.43906,1.24063 -0.0258,0.41426 -0.17599,0.79274 -0.33906,1.05625 -0.17013,0.27675 -0.50205,0.59228 -0.86407,0.91406 -0.362,0.32178 -0.75109,0.64106 -1.02031,0.88125 a 0.1470147,0.1470147 0 0 1 -0.003,0.002 c -0.51444,0.45696 -2.20617,1.97858 -2.22657,1.99688 -0.17017,0.19308 -0.21878,0.30767 -0.22969,0.34687 0.11866,0.004 0.44252,-0.10653 0.55313,-0.18593 a 0.1470147,0.1470147 0 0 1 0.008,-0.003 c 0.0467,-0.0295 0.26255,-0.20218 0.53438,-0.42812 0.27182,-0.22596 0.61503,-0.51551 0.96719,-0.81095 0.70179,-0.58874 1.43111,-1.19433 1.77187,-1.41562 0.58195,-0.42051 1.24279,-1.13716 1.43751,-1.45156 a 0.1470147,0.1470147 0 0 1 0.002,-0.003 c 0.0246,-0.038 0.0686,-0.22158 0.0797,-0.44687 0.0111,-0.22531 0.004,-0.49928 -0.011,-0.76094 -0.0304,-0.52334 -0.0922,-1.00157 -0.0922,-1.00157 a 0.1470147,0.1470147 0 0 1 0.23907,-0.13437 c 0,0 0.92999,0.73504 1.72656,1.47188 l 0.002,0.003 c 0.23207,0.20885 0.35576,0.44788 0.38906,0.68905 0.0334,0.24199 -0.0184,0.47938 -0.1,0.70313 -0.16326,0.4475 -0.45134,0.86325 -0.54844,1.15 a 0.1470147,0.1470147 0 0 1 -0.003,0.002 c -0.13089,0.36275 -0.56327,1.29611 -1.11406,2.4375 -0.55056,1.14088 -1.21415,2.47892 -1.78906,3.60625 l 0,0.002 c -0.55275,1.11206 -1.08851,1.73147 -1.62188,2.10782 -0.53368,0.37656 -1.0561,0.50383 -1.55781,0.65156 a 0.1470147,0.1470147 0 0 1 -0.006,0.003 c -1.03302,0.25641 -2.40392,0.003 -3.24374,-0.10469 -0.36386,-0.0252 -0.4837,0.0227 -0.5,0.0297 a 0.1470147,0.1470147 0 0 1 0,0.006 c -0.0167,0.12347 -0.0215,0.4393 -0.0125,0.81875 0.009,0.37944 0.0294,0.8306 0.0516,1.26407 0.0439,0.86122 0.0962,1.63811 0.0969,1.64843 0.60582,1.96331 0.27344,3.98125 0.27344,3.98125 a 0.1470147,0.1470147 0 0 0 -0.002,0 c -0.11436,0.66935 -0.40543,0.99593 -0.68281,1.12969 -0.13613,0.0657 -0.26367,0.0851 -0.35937,0.0875 z"
             id="path5790" /><path
             style="color:#000000;font-style:normal;font-variant:normal;font-weight:normal;font-stretch:normal;font-size:medium;line-height:normal;font-family:sans-serif;text-indent:0;text-align:start;text-decoration:none;text-decoration-line:none;text-decoration-style:solid;text-decoration-color:#000000;letter-spacing:normal;word-spacing:normal;text-transform:none;direction:ltr;block-progression:tb;writing-mode:lr-tb;baseline-shift:baseline;text-anchor:start;white-space:normal;clip-rule:nonzero;display:inline;overflow:visible;visibility:visible;opacity:1;isolation:auto;mix-blend-mode:normal;color-interpolation:sRGB;color-interpolation-filters:linearRGB;solid-color:#000000;solid-opacity:1;fill:#0066b3;fill-opacity:1;fill-rule:nonzero;stroke:none;stroke-width:0.294;stroke-linecap:round;stroke-linejoin:round;stroke-miterlimit:4;stroke-dasharray:none;stroke-dashoffset:0;stroke-opacity:1;color-rendering:auto;image-rendering:auto;shape-rendering:auto;text-rendering:auto;enable-background:accumulate"
             d="m 392.16407,323.75586 c -0.41872,-0.019 -0.84535,-0.0215 -1.22265,0.0137 -0.37731,0.0352 -0.7057,0.10376 -0.94141,0.25781 a 0.1470147,0.1470147 0 0 0 -0.0664,0.11524 c 0,0 -0.0544,0.94979 -0.10937,1.9375 -0.0275,0.49385 -0.0555,0.99592 -0.0762,1.39453 -0.0206,0.3986 -0.0352,0.6828 -0.0352,0.77539 0,0.10791 0.0449,0.1664 0.0996,0.25195 0.0547,0.0855 0.13059,0.18391 0.22266,0.29297 0.18414,0.21812 0.4359,0.47956 0.72461,0.7461 0.5774,0.53307 1.2887,1.08272 1.88671,1.31445 a 0.1470147,0.1470147 0 0 0 0.17774,-0.0586 c 0,0 0.28168,-0.45779 0.59766,-1.00977 0.31597,-0.55198 0.66499,-1.19104 0.81054,-1.5957 a 0.1470147,0.1470147 0 0 0 -0.043,-0.16407 c 0,0 -0.10829,-0.0909 -0.18945,-0.21484 -0.0406,-0.062 -0.0736,-0.12978 -0.084,-0.18945 -0.0104,-0.0597 -0.004,-0.10784 0.0312,-0.16407 a 0.1470147,0.1470147 0 0 0 0.0176,-0.043 c 0.0472,-0.18829 0.2679,-0.79224 0.48047,-1.39063 0.10629,-0.2992 0.21081,-0.60027 0.29297,-0.85937 0.0822,-0.25911 0.14364,-0.46985 0.16016,-0.61914 a 0.1470147,0.1470147 0 0 0 0,-0.0313 c 0,0 -0.0187,-0.16048 -0.13086,-0.31445 -0.11217,-0.15397 -0.33072,-0.30469 -0.67188,-0.30469 -0.26779,0 -1.09418,-0.10265 -1.93164,-0.14062 z"
             id="path5786" /><path
             style="color:#000000;font-style:normal;font-variant:normal;font-weight:normal;font-stretch:normal;font-size:medium;line-height:normal;font-family:sans-serif;text-indent:0;text-align:start;text-decoration:none;text-decoration-line:none;text-decoration-style:solid;text-decoration-color:#000000;letter-spacing:normal;word-spacing:normal;text-transform:none;direction:ltr;block-progression:tb;writing-mode:lr-tb;baseline-shift:baseline;text-anchor:start;white-space:normal;clip-rule:nonzero;display:inline;overflow:visible;visibility:visible;opacity:1;isolation:auto;mix-blend-mode:normal;color-interpolation:sRGB;color-interpolation-filters:linearRGB;solid-color:#000000;solid-opacity:1;fill:#0066b3;fill-opacity:1;fill-rule:nonzero;stroke:none;stroke-width:0.294;stroke-linecap:round;stroke-linejoin:round;stroke-miterlimit:4;stroke-dasharray:none;stroke-dashoffset:0;stroke-opacity:1;color-rendering:auto;image-rendering:auto;shape-rendering:auto;text-rendering:auto;enable-background:accumulate"
             d="m 392.39375,342.27913 a 0.1470147,0.1470147 0 0 1 -0.11875,-0.0766 c -0.26017,-0.486 -0.2987,-0.89922 -0.19687,-1.22656 0.10184,-0.32733 0.33691,-0.55662 0.57656,-0.70469 a 0.1470147,0.1470147 0 0 1 0.0203,-0.011 c 0.10378,-0.0414 0.20958,-0.0829 0.31562,-0.10469 0.10604,-0.0218 0.22419,-0.024 0.33125,0.039 0.10706,0.0631 0.17448,0.17907 0.20938,0.32656 0.0352,0.14751 0.0451,0.33499 0.0313,0.58751 -0.0296,0.53606 -0.32413,0.85157 -0.60156,1.00468 -0.27744,0.15312 -0.54688,0.16563 -0.54688,0.16563 a 0.1470147,0.1470147 0 0 1 -0.0203,0 z"
             id="path5794" /><path
             style="color:#000000;font-style:normal;font-variant:normal;font-weight:normal;font-stretch:normal;font-size:medium;line-height:normal;font-family:sans-serif;text-indent:0;text-align:start;text-decoration:none;text-decoration-line:none;text-decoration-style:solid;text-decoration-color:#000000;letter-spacing:normal;word-spacing:normal;text-transform:none;direction:ltr;block-progression:tb;writing-mode:lr-tb;baseline-shift:baseline;text-anchor:start;white-space:normal;clip-rule:nonzero;display:inline;overflow:visible;visibility:visible;opacity:1;isolation:auto;mix-blend-mode:normal;color-interpolation:sRGB;color-interpolation-filters:linearRGB;solid-color:#000000;solid-opacity:1;fill:#0066b3;fill-opacity:1;fill-rule:nonzero;stroke:none;stroke-width:0.294;stroke-linecap:round;stroke-linejoin:round;stroke-miterlimit:4;stroke-dasharray:none;stroke-dashoffset:0;stroke-opacity:1;color-rendering:auto;image-rendering:auto;shape-rendering:auto;text-rendering:auto;enable-background:accumulate"
             d="m 393.17656,343.351 c -0.10456,-0.006 -0.1969,-0.0248 -0.28594,-0.0703 -0.089,-0.0455 -0.16242,-0.12902 -0.20312,-0.22813 -0.0408,-0.0991 -0.057,-0.21337 -0.0641,-0.35781 a 0.1470147,0.1470147 0 0 1 0.0891,-0.14219 c 0,0 1.12852,-0.46232 1.33282,-1.62656 a 0.1470147,0.1470147 0 0 1 0.14375,-0.12187 0.1470147,0.1470147 0 0 1 0.0703,0.0187 c 0,0 0.17888,0.0999 0.3,0.32031 0.12109,0.22039 0.19008,0.56836 0.0438,1.04688 -0.11171,0.40171 -0.23914,0.68488 -0.41407,0.87812 -0.17571,0.19411 -0.40736,0.28282 -0.65624,0.28282 -0.13529,0 -0.25169,0.006 -0.35626,0 z"
             id="path5798" /><path
             style="fill:#0066b3;fill-opacity:1;fill-rule:nonzero;stroke:none"
             d="m 395.4951,339.8637 c 0,0 1.507,1.247 2.827,0.747 0.838,-0.317 1.003,-0.436 1.128,-0.124 0.126,0.311 0.063,0.624 0.377,0.561 0.313,-0.062 0.815,-0.062 1.129,0 0,0 0.251,-0.561 0.503,-0.624 0,0 -0.439,-0.436 -0.503,-0.623 -0.062,-0.187 -1.066,-0.686 -1.38,-0.747 -0.314,-0.063 -0.251,-0.25 -0.629,-0.623 -0.375,-0.375 -1.317,-0.561 -1.631,-0.686 -0.314,-0.124 -0.816,-0.375 -1.067,-0.561 -0.251,-0.187 -0.691,-0.312 -0.691,-0.312 0,0 0.126,1.746 -0.063,2.992"
             id="path242" /><path
             style="color:#000000;font-style:normal;font-variant:normal;font-weight:normal;font-stretch:normal;font-size:medium;line-height:normal;font-family:sans-serif;text-indent:0;text-align:start;text-decoration:none;text-decoration-line:none;text-decoration-style:solid;text-decoration-color:#000000;letter-spacing:normal;word-spacing:normal;text-transform:none;direction:ltr;block-progression:tb;writing-mode:lr-tb;baseline-shift:baseline;text-anchor:start;white-space:normal;clip-rule:nonzero;display:inline;overflow:visible;visibility:visible;opacity:1;isolation:auto;mix-blend-mode:normal;color-interpolation:sRGB;color-interpolation-filters:linearRGB;solid-color:#000000;solid-opacity:1;fill:#0066b3;fill-opacity:1;fill-rule:nonzero;stroke:none;stroke-width:0.061;stroke-linecap:round;stroke-linejoin:round;stroke-miterlimit:4;stroke-dasharray:none;stroke-dashoffset:0;stroke-opacity:1;color-rendering:auto;image-rendering:auto;shape-rendering:auto;text-rendering:auto;enable-background:accumulate"
             d="m 385.58984,315.47852 -1.4375,0.008 a 0.03050305,0.03050305 0 0 0 -0.002,0 0.03050305,0.03050305 0 0 0 -0.006,0.002 0.03050305,0.03050305 0 0 0 -0.006,0.002 0.03050305,0.03050305 0 0 0 -0.002,0.002 0.03050305,0.03050305 0 0 0 -0.006,0.004 0.03050305,0.03050305 0 0 0 -0.002,0.002 0.03050305,0.03050305 0 0 0 -0.002,0.002 0.03050305,0.03050305 0 0 0 0,0.002 0.03050305,0.03050305 0 0 0 -0.004,0.006 0.03050305,0.03050305 0 0 0 0,0.006 0.03050305,0.03050305 0 0 0 0,0.006 0.03050305,0.03050305 0 0 0 0.002,0.008 l 0.69922,1.66211 a 0.03050305,0.03050305 0 0 0 0.002,0.002 0.03050305,0.03050305 0 0 0 0.002,0.006 0.03050305,0.03050305 0 0 0 0.006,0.004 0.03050305,0.03050305 0 0 0 0.002,0.002 0.03050305,0.03050305 0 0 0 0.002,0.002 0.03050305,0.03050305 0 0 0 0.006,0.002 0.03050305,0.03050305 0 0 0 0.006,0 0.03050305,0.03050305 0 0 0 0.006,0 0.03050305,0.03050305 0 0 0 0.004,0 l 1.12109,-0.22656 a 0.03050305,0.03050305 0 0 0 0.002,0 0.03050305,0.03050305 0 0 0 0.006,-0.002 0.03050305,0.03050305 0 0 0 0.006,-0.004 0.03050305,0.03050305 0 0 0 0.002,-0.002 0.03050305,0.03050305 0 0 0 0.002,-0.002 0.03050305,0.03050305 0 0 0 0.002,-0.002 0.03050305,0.03050305 0 0 0 0.002,-0.006 0.03050305,0.03050305 0 0 0 0.002,-0.006 0.03050305,0.03050305 0 0 0 0.002,-0.006 0.03050305,0.03050305 0 0 0 -0.002,-0.006 0.03050305,0.03050305 0 0 0 0,-0.002 L 385.61914,315.5 a 0.03050305,0.03050305 0 0 0 -0.002,-0.002 0.03050305,0.03050305 0 0 0 -0.002,-0.006 0.03050305,0.03050305 0 0 0 -0.002,-0.002 0.03050305,0.03050305 0 0 0 -0.002,-0.002 0.03050305,0.03050305 0 0 0 -0.004,-0.004 0.03050305,0.03050305 0 0 0 -0.006,-0.004 0.03050305,0.03050305 0 0 0 -0.002,-0.002 0.03050305,0.03050305 0 0 0 -0.01,0 z"
             id="path5802" /><path
             style="color:#000000;font-style:normal;font-variant:normal;font-weight:normal;font-stretch:normal;font-size:medium;line-height:normal;font-family:sans-serif;text-indent:0;text-align:start;text-decoration:none;text-decoration-line:none;text-decoration-style:solid;text-decoration-color:#000000;letter-spacing:normal;word-spacing:normal;text-transform:none;direction:ltr;block-progression:tb;writing-mode:lr-tb;baseline-shift:baseline;text-anchor:start;white-space:normal;clip-rule:nonzero;display:inline;overflow:visible;visibility:visible;opacity:1;isolation:auto;mix-blend-mode:normal;color-interpolation:sRGB;color-interpolation-filters:linearRGB;solid-color:#000000;solid-opacity:1;fill:#0066b3;fill-opacity:1;fill-rule:nonzero;stroke:none;stroke-width:0.061;stroke-linecap:round;stroke-linejoin:round;stroke-miterlimit:4;stroke-dasharray:none;stroke-dashoffset:0;stroke-opacity:1;color-rendering:auto;image-rendering:auto;shape-rendering:auto;text-rendering:auto;enable-background:accumulate"
             d="m 388.57422,315.47656 -1.27734,0.004 a 0.03050305,0.03050305 0 0 0 -0.006,0.002 0.03050305,0.03050305 0 0 0 -0.006,0.002 0.03050305,0.03050305 0 0 0 -0.006,0.002 0.03050305,0.03050305 0 0 0 -0.002,0.002 0.03050305,0.03050305 0 0 0 -0.002,0.002 0.03050305,0.03050305 0 0 0 -0.002,0.002 0.03050305,0.03050305 0 0 0 -0.004,0.006 0.03050305,0.03050305 0 0 0 -0.002,0.002 0.03050305,0.03050305 0 0 0 -0.002,0.006 0.03050305,0.03050305 0 0 0 0,0.006 0.03050305,0.03050305 0 0 0 0,0.004 l 0.20704,1.34376 a 0.03050305,0.03050305 0 0 0 0.002,0.01 0.03050305,0.03050305 0 0 0 0.002,0.002 0.03050305,0.03050305 0 0 0 0.004,0.006 0.03050305,0.03050305 0 0 0 0.002,0.002 0.03050305,0.03050305 0 0 0 0.002,0.002 0.03050305,0.03050305 0 0 0 0.006,0.002 0.03050305,0.03050305 0 0 0 0.002,0.002 0.03050305,0.03050305 0 0 0 0.006,0.002 l 1.04883,0.15234 a 0.03050305,0.03050305 0 0 0 0.002,0 0.03050305,0.03050305 0 0 0 0.006,0 0.03050305,0.03050305 0 0 0 0.006,-0.002 0.03050305,0.03050305 0 0 0 0.006,-0.002 0.03050305,0.03050305 0 0 0 0.002,-0.002 0.03050305,0.03050305 0 0 0 0.006,-0.004 0.03050305,0.03050305 0 0 0 0.002,-0.006 0.03050305,0.03050305 0 0 0 0.002,-0.002 0.03050305,0.03050305 0 0 0 0.002,-0.006 0.03050305,0.03050305 0 0 0 0,-0.006 l 0.0254,-1.50196 a 0.03050305,0.03050305 0 0 0 0,-0.002 0.03050305,0.03050305 0 0 0 -0.002,-0.006 0.03050305,0.03050305 0 0 0 -0.002,-0.006 0.03050305,0.03050305 0 0 0 -0.004,-0.006 0.03050305,0.03050305 0 0 0 -0.002,-0.002 0.03050305,0.03050305 0 0 0 -0.002,-0.002 0.03050305,0.03050305 0 0 0 -0.002,-0.002 0.03050305,0.03050305 0 0 0 -0.006,-0.004 0.03050305,0.03050305 0 0 0 -0.002,0 0.03050305,0.03050305 0 0 0 -0.01,-0.002 z"
             id="path5806" /><path
             style="color:#000000;font-style:normal;font-variant:normal;font-weight:normal;font-stretch:normal;font-size:medium;line-height:normal;font-family:sans-serif;text-indent:0;text-align:start;text-decoration:none;text-decoration-line:none;text-decoration-style:solid;text-decoration-color:#000000;letter-spacing:normal;word-spacing:normal;text-transform:none;direction:ltr;block-progression:tb;writing-mode:lr-tb;baseline-shift:baseline;text-anchor:start;white-space:normal;clip-rule:nonzero;display:inline;overflow:visible;visibility:visible;opacity:1;isolation:auto;mix-blend-mode:normal;color-interpolation:sRGB;color-interpolation-filters:linearRGB;solid-color:#000000;solid-opacity:1;fill:#0066b3;fill-opacity:1;fill-rule:nonzero;stroke:none;stroke-width:0.061;stroke-linecap:round;stroke-linejoin:round;stroke-miterlimit:4;stroke-dasharray:none;stroke-dashoffset:0;stroke-opacity:1;color-rendering:auto;image-rendering:auto;shape-rendering:auto;text-rendering:auto;enable-background:accumulate"
             d="m 401.58398,315.62109 a 0.03050305,0.03050305 0 0 0 -0.002,0.002 0.03050305,0.03050305 0 0 0 -0.006,0 0.03050305,0.03050305 0 0 0 -0.006,0.002 0.03050305,0.03050305 0 0 0 -0.006,0.004 0.03050305,0.03050305 0 0 0 -0.002,0.002 0.03050305,0.03050305 0 0 0 -0.002,0.002 0.03050305,0.03050305 0 0 0 -0.004,0.006 0.03050305,0.03050305 0 0 0 0,0.002 0.03050305,0.03050305 0 0 0 -0.002,0.006 0.03050305,0.03050305 0 0 0 0,0.01 0.03050305,0.03050305 0 0 0 0.002,0.006 0.03050305,0.03050305 0 0 0 0.002,0.006 0.03050305,0.03050305 0 0 0 0.002,0.002 0.03050305,0.03050305 0 0 0 0,0.002 l 0.41797,0.52734 0.0762,0.99219 a 0.03050305,0.03050305 0 0 0 0,0.002 0.03050305,0.03050305 0 0 0 0.002,0.006 0.03050305,0.03050305 0 0 0 0.002,0.006 0.03050305,0.03050305 0 0 0 0.002,0.002 0.03050305,0.03050305 0 0 0 0.002,0.002 0.03050305,0.03050305 0 0 0 0.006,0.006 l 0.91406,0.53711 a 0.03050305,0.03050305 0 0 0 0.006,0.002 0.03050305,0.03050305 0 0 0 0.006,0.002 0.03050305,0.03050305 0 0 0 0.006,0 0.03050305,0.03050305 0 0 0 0.006,0 0.03050305,0.03050305 0 0 0 0.006,-0.004 0.03050305,0.03050305 0 0 0 0.006,-0.002 0.03050305,0.03050305 0 0 0 0.002,-0.002 0.03050305,0.03050305 0 0 0 0.002,-0.002 0.03050305,0.03050305 0 0 0 0.004,-0.006 0.03050305,0.03050305 0 0 0 0.002,-0.002 0.03050305,0.03050305 0 0 0 0.002,-0.006 0.03050305,0.03050305 0 0 0 0,-0.006 l 0.0957,-2.07226 a 0.03050305,0.03050305 0 0 0 0,-0.006 0.03050305,0.03050305 0 0 0 -0.002,-0.006 0.03050305,0.03050305 0 0 0 -0.002,-0.006 0.03050305,0.03050305 0 0 0 -0.002,-0.002 0.03050305,0.03050305 0 0 0 -0.004,-0.006 0.03050305,0.03050305 0 0 0 -0.006,-0.002 0.03050305,0.03050305 0 0 0 -0.002,-0.002 0.03050305,0.03050305 0 0 0 -0.006,-0.002 0.03050305,0.03050305 0 0 0 -0.006,-0.002 0.03050305,0.03050305 0 0 0 -0.002,0 l -1.50977,0 z"
             id="path5810" /></g><g
           id="g5723"><path
             d="m 369.6718,350.998 0.237,-0.176 c -0.753,-1.357 -1.85,-2.085 -3.146,-2.085 -2.117,0 -3.52,1.852 -3.52,4.567 0,1.268 0.385,2.524 1.072,3.471 0.437,0.628 0.873,1.109 1.574,1.839 l 0.238,-0.291 c -0.45,-0.54 -0.727,-0.906 -0.952,-1.271 -0.529,-0.844 -0.82,-2.026 -0.82,-3.223 0,-2.554 1.217,-4.144 3.147,-4.144 0.199,0 0.304,0.014 0.516,0.044 l 0,7.207 c -0.397,0.043 -0.595,0.132 -0.886,0.408 l -0.396,-0.408 0,-4.933 -1.138,-1.24 -0.225,0.235 0.357,0.409 0,4.391 -0.794,-0.875 -0.225,0.233 3.149,3.458 c 0.239,-0.496 0.462,-0.745 0.715,-0.745 0.118,0 0.264,0.074 0.436,0.22 l 0.382,0.35 0.2,-0.263 -0.807,-0.832 c -0.331,-0.35 -0.319,-0.335 -0.477,-0.408 l 0,-7.135 c 0.463,0.161 1.019,0.671 1.363,1.197"
             style="fill:#0066b3;fill-opacity:1;fill-rule:nonzero;stroke:none"
             id="path270" /><path
             d="m 369.8572,349.2037 -0.199,0.261 0.714,0.687 0,6.464 c 0,0.422 0,0.364 -0.106,1.093 l 0.266,0.088 c 0.091,-0.394 0.118,-0.525 0.171,-0.962 0.185,0.568 0.396,0.918 0.821,1.356 l 0.21,-0.16 c -0.396,-0.541 -0.449,-0.729 -0.449,-1.532 l 0,-3.56 1.666,1.575 0.701,-0.773 0.423,0.393 0.212,-0.246 -0.701,-0.657 0,-3.414 c 0.186,-0.044 0.237,-0.074 0.423,-0.162 l -0.933,-0.918 c -0.348,0.203 -0.401,0.929 -0.401,0.929 l 0,3.506 -0.331,0.336 -1.059,-1.023 0,-2.333 0.304,-0.321 0.279,0.262 0.21,-0.262 -1.07,-1.007 -0.742,0.788 -0.409,-0.408 z"
             style="fill:#0066b3;fill-opacity:1;fill-rule:nonzero;stroke:none"
             id="path272" /><path
             d="m 375.7159,355.2434 -0.742,0.759 -0.277,-0.263 -0.199,0.248 1.059,1.021 0.728,-0.744 0.264,0.248 0.198,-0.262 -1.031,-1.007 z m 1.35,-5.297 -1.191,-1.138 c -0.398,0.336 -0.581,0.832 -0.581,1.562 l 0,2.758 -0.331,0.35 -0.411,-0.395 -0.212,0.249 1.191,1.152 0.74,-0.758 0.397,0.379 0.199,-0.263 -0.662,-0.627 0,-2.393 c 0,-0.525 0.08,-0.758 0.304,-0.948 l 0.344,0.336 0.213,-0.264 z"
             style="fill:#0066b3;fill-opacity:1;fill-rule:nonzero;stroke:none"
             id="path274" /><path
             d="m 377.9379,349.5388 1.031,-0.731 1.944,1.43 -0.172,0.279 -1.164,-0.862 -0.608,0.394 0,0.832 2.342,1.693 -1.39,1.911 c -0.766,-0.715 -1.309,-0.934 -2.248,-0.934 l -0.199,0 0,-0.335 c 0.134,-0.016 0.238,-0.029 0.291,-0.029 0.107,0 0.159,0 0.293,0.013 l 0,-3.063 -0.636,-0.657 0.198,-0.262 0.318,0.321 z m 1.031,3.851 c 0.159,0.059 0.211,0.088 0.37,0.147 l 0.94,-1.299 -1.31,-0.977 0,2.129 z"
             style="fill:#0066b3;fill-opacity:1;fill-rule:nonzero;stroke:none"
             id="path276" /><path
             d="m 381.7332,349.2618 -0.211,0.261 0.661,0.644 0,3.033 c -0.488,0.264 -0.74,0.643 -0.74,1.198 0,0.699 0.41,1.284 1.018,1.503 l 0.092,-0.322 c -0.382,-0.19 -0.555,-0.393 -0.555,-0.685 0,-0.365 0.291,-0.657 0.7,-0.73 0.12,-0.015 0.212,-0.03 0.398,-0.03 l 0,-3.967 0.556,-0.481 c 0.343,0.188 0.384,0.203 0.872,0.349 l 0,2.962 -0.409,0.452 -0.305,-0.291 -0.198,0.248 1.071,1.065 0.779,-0.847 0.45,0.439 0.212,-0.25 -0.673,-0.655 0,-3.036 c 0.052,0.015 0.105,0.015 0.145,0.015 0.041,0 0.105,0 0.186,-0.015 l 0,-0.335 -0.331,0 c -1.019,0 -1.76,-0.292 -2.341,-0.979 l -1.02,0.833 -0.357,-0.379 z"
             style="fill:#0066b3;fill-opacity:1;fill-rule:nonzero;stroke:none"
             id="path278" /><path
             d="m 386.9843,349.5969 0.966,-0.789 c 0.938,0.789 1.403,0.95 2.526,0.95 l 0.119,0 0,0.335 -0.318,0 0,3.152 0.648,0.628 -0.211,0.248 -0.411,-0.395 -0.925,0.759 c -0.754,-0.73 -1.348,-0.948 -2.381,-0.948 l -0.29,0 0,-0.337 0.33,0 0,-3.091 -0.634,-0.614 0.211,-0.263 0.37,0.365 z m 0.966,3.662 c 0.396,0.102 0.515,0.147 0.86,0.321 l 0.556,-0.438 0,-3.137 c -0.344,-0.086 -0.438,-0.116 -0.729,-0.276 l -0.687,0.554 0,2.976 z"
             style="fill:#0066b3;fill-opacity:1;fill-rule:nonzero;stroke:none"
             id="path280" /><path
             d="m 396.4158,357.6075 0.621,-0.7 0,-1.65 c -0.344,-0.175 -0.635,-0.248 -0.954,-0.248 -0.396,0 -0.647,0.073 -0.924,0.248 l 0,1.343 1.257,1.007 z m -0.305,-2.918 c 0.277,0 0.542,0.058 0.926,0.204 l 0,-2.48 c -0.436,0.145 -0.688,0.203 -0.979,0.203 -0.317,0 -0.556,-0.058 -0.899,-0.203 l 0,2.48 c 0.357,-0.146 0.608,-0.204 0.952,-0.204 m 0,-2.408 c 0.291,0 0.555,-0.058 0.926,-0.248 l 0,-1.867 c -0.595,-0.132 -0.86,-0.233 -1.282,-0.497 -0.266,0.19 -0.345,0.234 -0.596,0.365 l 0,1.999 c 0.343,0.19 0.596,0.248 0.952,0.248 m -4.524,-4.654 c 0,0.876 0.78,1.591 1.786,1.591 0.57,0 1.177,-0.234 1.587,-0.614 0.714,0.817 1.772,1.27 2.884,1.27 0.237,0 0.382,-0.015 0.634,-0.073 l 0.106,0.365 c -0.251,0.058 -0.331,0.072 -0.581,0.087 l 0,6.551 0.846,0.686 -0.172,0.277 -0.463,-0.336 -1.072,1.183 -1.983,-1.577 0,1.401 -0.305,0 0,-1.634 -0.595,-0.495 c 0,0.569 -0.039,0.918 -0.146,1.195 -0.211,0.643 -0.754,1.11 -1.243,1.11 -0.807,0 -1.441,-0.993 -1.6,-2.495 l 0.277,-0.074 c 0.079,0.729 0.504,1.256 1.006,1.256 0.185,0 0.357,-0.088 0.489,-0.249 0.172,-0.19 0.226,-0.394 0.226,-0.861 l 0,-1.823 c -0.305,0 -0.451,-0.014 -0.622,-0.088 -0.345,-0.132 -0.583,-0.569 -0.583,-1.08 0,-0.307 0.041,-0.526 0.159,-0.919 l 0.291,0.132 c -0.052,0.145 -0.066,0.233 -0.066,0.364 0,0.38 0.225,0.672 0.501,0.672 0.134,0 0.214,-0.044 0.32,-0.146 l 0,-2.977 c -1.245,-0.322 -2.065,-1.313 -2.065,-2.524 0,-1.196 0.768,-2.101 1.893,-2.174 l 0,0.321 c -0.82,0.029 -1.509,0.802 -1.509,1.678 m 3.267,8.725 0,-6.186 c -0.25,0.102 -0.331,0.116 -0.595,0.176 l 0,5.543 0.595,0.467 z"
             style="fill:#0066b3;fill-opacity:1;fill-rule:nonzero;stroke:none"
             id="path282" /><path
             d="m 399.63,349.5388 1.031,-0.731 1.944,1.43 -0.172,0.279 -1.164,-0.862 -0.608,0.394 0,0.832 2.342,1.693 -1.39,1.911 c -0.766,-0.715 -1.309,-0.934 -2.248,-0.934 l -0.199,0 0,-0.335 c 0.133,-0.016 0.238,-0.029 0.293,-0.029 0.105,0 0.157,0 0.291,0.013 l 0,-3.063 -0.636,-0.657 0.198,-0.262 0.318,0.321 z m 1.031,3.851 c 0.159,0.059 0.212,0.088 0.371,0.147 l 0.938,-1.299 -1.309,-0.977 0,2.129 z"
             style="fill:#0066b3;fill-opacity:1;fill-rule:nonzero;stroke:none"
             id="path284" /><path
             d="m 403.2007,349.2317 -0.211,0.264 0.66,0.656 0,2.247 c 0,0.525 -0.052,0.73 -0.278,1.021 l -0.356,-0.35 -0.212,0.262 1.232,1.153 c 0.382,-0.526 0.475,-0.744 0.527,-1.137 l 0.781,1.137 0.105,-0.174 0.119,-0.162 c 0.318,-0.466 0.436,-0.583 0.543,-0.583 0.053,0 0.132,0.043 0.213,0.16 l 0.13,0.205 0.252,-0.205 -0.476,-0.656 c -0.132,-0.205 -0.344,-0.321 -0.53,-0.321 -0.263,0 -0.502,0.145 -0.793,0.525 l -0.344,-0.496 0,-2.626 0.609,-0.466 0.569,0.436 0.171,-0.277 -1.336,-1.037 -1.019,0.804 -0.356,-0.38 z"
             style="fill:#0066b3;fill-opacity:1;fill-rule:nonzero;stroke:none"
             id="path286" /><path
             d="m 407.3915,349.5969 0.966,-0.789 c 0.94,0.789 1.402,0.95 2.527,0.95 l 0.12,0 0,0.335 -0.319,0 0,3.152 0.65,0.628 -0.213,0.248 -0.411,-0.395 -0.925,0.759 c -0.754,-0.73 -1.35,-0.948 -2.381,-0.948 l -0.29,0 0,-0.337 0.331,0 0,-3.091 -0.636,-0.614 0.212,-0.263 0.369,0.365 z m 0.966,3.662 c 0.397,0.102 0.517,0.147 0.861,0.321 l 0.555,-0.438 0,-3.137 c -0.344,-0.086 -0.436,-0.116 -0.727,-0.276 l -0.689,0.554 0,2.976 z"
             style="fill:#0066b3;fill-opacity:1;fill-rule:nonzero;stroke:none"
             id="path288" /><path
             d="m 411.9419,349.2037 -0.198,0.261 0.688,0.644 0,2.363 c 0,0.467 -0.093,0.832 -0.239,0.992 l -0.382,-0.365 -0.2,0.262 1.218,1.124 c 0.41,-0.408 0.502,-0.7 0.515,-1.62 l 1.694,1.62 0.714,-0.73 0.41,0.379 0.198,-0.261 -0.688,-0.628 0,-2.408 c 0,-0.51 0.066,-0.787 0.239,-0.992 l 0.357,0.35 0.211,-0.262 -1.178,-1.125 c -0.382,0.396 -0.54,0.833 -0.54,1.593 l 0,2.771 -0.32,0.306 -1.097,-1.064 0,-2.335 0.279,-0.306 0.342,0.306 0.2,-0.248 -1.058,-1.023 -0.728,0.789 -0.437,-0.393 z"
             style="fill:#0066b3;fill-opacity:1;fill-rule:nonzero;stroke:none"
             id="path290" /><path
             d="m 420.7914,350.1803 -0.371,-0.335 c -0.185,0.277 -0.25,0.555 -0.25,1.022 l 0,2.319 0.686,0.613 -0.198,0.263 -0.436,-0.38 -0.727,0.803 c -0.423,-0.715 -0.98,-1.124 -1.734,-1.313 l -0.078,0.087 c 0.304,0.044 0.516,0.291 0.516,0.583 0,0.322 -0.253,0.599 -0.556,0.599 -0.319,0 -0.556,-0.263 -0.556,-0.628 0,-0.248 0.093,-0.452 0.397,-0.817 l 0.635,-0.773 -0.543,-0.539 c -0.635,-0.657 -0.847,-1.037 -0.847,-1.548 0,-0.685 0.358,-1.123 1.152,-1.328 l 1.375,1.328 c 0.054,-0.583 0.16,-0.905 0.489,-1.328 l 1.231,1.095 -0.185,0.277 z m -3.32,0.539 c 0,0.234 0.185,0.57 0.502,0.891 l 0.344,0.365 0.345,-0.423 0.224,0.218 -0.899,1.11 c 0.462,0.145 0.609,0.218 0.992,0.509 l 0.277,-0.275 0,-2.525 -0.874,-0.831 c -0.462,0.043 -0.911,0.51 -0.911,0.961"
             style="fill:#0066b3;fill-opacity:1;fill-rule:nonzero;stroke:none"
             id="path292" /></g></g></g></g></svg>