<svg xmlns="http://www.w3.org/2000/svg" xmlns:xlink="http://www.w3.org/1999/xlink" width="169.19" height="212.01" viewBox="0 0 169.19 212.01"><defs><clipPath id="a" transform="translate(-427.41 -406.79)"><path d="M587.29,477.21a253.23,253.23,0,0,1-7.8,38.1c-5.7,20-13.7,37.6-23.6,52.5-11.9,17.8-26.7,31.6-44,41.1a191.8,191.8,0,0,1-41.1-39.3,175.33,175.33,0,0,1-27.3-49.6,156.64,156.64,0,0,1-8.7-42.8h152.5" style="fill:none"/></clipPath></defs><title>Clermont Foot logo - Brandlogos.net</title><path d="M592.79,441.11c-35.9-32.9-81.4-30.7-81.4-30.7-39.9.4-79.8,30.7-79.8,30.7a313.53,313.53,0,0,0-.3,36.2H591c1.9-15.7,1.8-36.2,1.8-36.2" transform="translate(-427.41 -406.79)" style="fill:#1f3561"/><path d="M431.29,477.21c5.6,89.2,80.5,135.9,80.5,135.9,57.9-30.3,74.4-98.5,79.2-135.9H431.29" transform="translate(-427.41 -406.79)" style="fill:#c41343"/><path d="M434.49,456.21c0-4.4.2-8.8.5-13.2a195.8,195.8,0,0,1,23.2-14c13.3-6.7,33.3-14.8,53.2-15.1h.2a109.72,109.72,0,0,1,26.6,3c13.7,3.1,33.6,10.1,51.2,25.7-.1,3.4-.4,22.6-1.9,34.6h7.2c1.9-15.1,1.9-35.5,1.9-36.2v-1.6l-1.1-1c-19.4-17.5-41.2-25.1-56.1-28.5a122.46,122.46,0,0,0-28.2-3.1h0c-21.2.3-42.3,8.8-56.3,15.9a196.28,196.28,0,0,0-25.5,15.5l-1.3,1v1.6a317.86,317.86,0,0,0-.3,36.5h7.1c-.3-3.6-.4-17.5-.4-21.1" transform="translate(-427.41 -406.79)" style="fill:#c41343"/><path d="M587.29,477.21a253.23,253.23,0,0,1-7.8,38.1c-5.7,20-13.7,37.6-23.6,52.5-11.9,17.8-26.7,31.6-44,41.1a191.8,191.8,0,0,1-41.1-39.3,175.33,175.33,0,0,1-27.3-49.6,156.64,156.64,0,0,1-8.7-42.8h-7.1a168.11,168.11,0,0,0,9.2,45.4,183.42,183.42,0,0,0,28.5,51.6c21.3,27.3,43.5,41.3,44.5,41.9l1.7,1.1,1.8-.9c19.2-10.1,35.6-25.1,48.5-44.6,10.3-15.5,18.6-33.9,24.5-54.6a263.61,263.61,0,0,0,8.1-39.9h-7.2" transform="translate(-427.41 -406.79)" style="fill:#1f3561"/><path d="M449.59,446.91a6.66,6.66,0,0,0-1.2.6c-2.4,1.6-2.3,4.7-.7,6.9,1.5,2,4.4,3.5,6.7,1.9a7.64,7.64,0,0,0,.9-.9c.7,1,1,1.5,1.7,2.6a5.73,5.73,0,0,1-1.1,1.1c-3.7,2.6-8.6,1-11.3-2.3a7.91,7.91,0,0,1,1.5-11.5,3.7,3.7,0,0,1,1.8-.8c.7.9,1,1.4,1.7,2.4" transform="translate(-427.41 -406.79)" style="fill:#fff"/><path d="M452.59,441.31c2.3,3.8,4.6,7.7,6.9,11.5,1.2-.7,1.8-1.1,3-1.8.6,1.1.9,1.6,1.5,2.7-2.3,1.3-3.4,2-5.7,3.4l-9-13.8c1.4-.8,2-1.2,3.3-2" transform="translate(-427.41 -406.79)" style="fill:#fff"/><path d="M464.19,435.11c.5,1.1.8,1.7,1.3,2.8-1.3.6-2,.9-3.3,1.6.6,1.3,1,1.9,1.6,3.2,1.1-.6,1.7-.8,2.8-1.4.5,1.1.8,1.7,1.3,2.8-1.1.5-1.7.8-2.7,1.3.7,1.3,1,2,1.7,3.3l3-1.5c.5,1.1.8,1.7,1.3,2.8-2.4,1.1-3.5,1.7-5.8,2.9-2.6-4.8-5.2-9.7-7.8-14.5,2.6-1.4,3.9-2,6.6-3.3" transform="translate(-427.41 -406.79)" style="fill:#fff"/><path d="M472.89,449.31c-2.2-5-4.4-10.1-6.6-15.1,1.4-.6,2.1-.9,3.4-1.4,2.8-1.2,6.6-1.3,7.7,2.2a4.74,4.74,0,0,1-1,4.8c1.8,2,3.5,4.1,5.2,6.2-1.3.4-1.9.6-3.2,1.1-1.8-2.1-3.6-4.1-5.4-6.1h0c1.1,2.8,1.7,4.2,2.8,7.1C474.69,448.61,474.09,448.81,472.89,449.31Zm-.5-9.9a4.17,4.17,0,0,1,.6-.2c1.5-.6,1.7-1.7,1.3-3-.4-1.1-1.3-1.8-3-1.1-.2.1-.3.1-.5.2.6,1.6.9,2.4,1.6,4.1" transform="translate(-427.41 -406.79)" style="fill:#fff"/><path d="M484.09,428.11c1.4,3,2.7,6,4,9h0c-.3-3.3-.6-6.5-.8-9.8l4.8-1c1.6,5.3,3.1,10.6,4.6,15.9-1.3.2-1.9.3-3.2.6-1-3.8-2.1-7.7-3.1-11.5h0c.1,1.6.2,2.5.3,4.1.1,2.6.2,5.3.3,7.9-.9.2-1.4.3-2.4.6-1.1-2.4-2.3-4.8-3.5-7.2-.6-1.4-.9-2-1.5-3.4,0-.1-.1-.2-.1-.3h0c.9,3.9,1.8,7.7,2.7,11.6l-3.3,1c-1.2-5.4-2.3-10.8-3.4-16.2,1.8-.6,2.8-.8,4.6-1.3" transform="translate(-427.41 -406.79)" style="fill:#fff"/><path d="M508.49,432.81c.1,3.5-1,8.5-5.2,8.9s-6.3-4.3-6.8-7.7c-.6-3.8.6-8.8,5.2-9.2S508.39,428.91,508.49,432.81Zm-5.4,5.9c2.1-.2,2-4.4,1.9-5.7-.1-1.5-.6-5.5-2.9-5.3s-2,4.3-1.9,5.7.7,5.5,2.9,5.3" transform="translate(-427.41 -406.79)" style="fill:#fff"/><path d="M513.59,424.41c1.5,3.3,2.9,6.7,4.1,10.1h0a10.55,10.55,0,0,1-.2-2.5c.1-3,.2-4.4.3-7.4,1.5.1,2.2.1,3.6.2l-1.2,16.5c-1.2-.1-1.8-.1-3-.2-1.2-3.4-2.4-6.7-3.8-10h0c.1.7.1,1,.2,1.7v8.3h-3.1c-.1-5.5-.3-11-.4-16.5a20.55,20.55,0,0,1,3.5-.2" transform="translate(-427.41 -406.79)" style="fill:#fff"/><path d="M532.49,426l-.5,3a27,27,0,0,0-2.8-.4c-.6,4.4-1.3,8.9-1.9,13.3-1.2-.2-1.9-.3-3.1-.4.5-4.5,1-8.9,1.5-13.4-1.1-.1-1.7-.2-2.8-.3.1-1.2.2-1.8.3-3.1,3.1.5,6.2.9,9.3,1.3" transform="translate(-427.41 -406.79)" style="fill:#fff"/><path d="M547.29,429.51c-.4,1.2-.5,1.8-.9,2.9l-3.5-1c-.4,1.4-.6,2-.9,3.4,1.2.3,1.8.5,3.1.9-.4,1.2-.5,1.8-.9,2.9-1.2-.4-1.8-.5-3-.8-.7,2.6-1.1,4-1.8,6.6-1.2-.3-1.8-.5-3.1-.8,1.3-5.4,2.5-10.7,3.8-16.1,2.9.7,4.3,1.1,7.2,2" transform="translate(-427.41 -406.79)" style="fill:#fff"/><path d="M557.79,442.21c-1.5,3.2-4.8,7.1-8.7,5.6s-3.8-6.6-2.7-10c1.2-3.7,4.5-7.6,8.8-5.9S559.39,438.61,557.79,442.21Zm-7.7,2.8c2,.8,3.7-3,4.2-4.2.6-1.4,1.9-5.2-.3-6s-3.8,2.9-4.3,4.3c-.4,1.1-1.6,5.1.4,5.9" transform="translate(-427.41 -406.79)" style="fill:#fff"/><path d="M569.79,448.51c-1.9,3.1-5.7,6.4-9.4,4.4s-3-7-1.5-10.3c1.6-3.6,5.4-7,9.5-4.8S571.89,445.21,569.79,448.51Zm-8,1.8c1.9,1,4.1-2.5,4.8-3.6.7-1.3,2.5-4.9.4-6s-4.1,2.4-4.8,3.7c-.6,1.1-2.3,4.9-.4,5.9" transform="translate(-427.41 -406.79)" style="fill:#fff"/><path d="M583.09,447.61c-.7,1-1.1,1.5-1.8,2.5a20.71,20.71,0,0,0-2.4-1.7c-2.6,3.7-5.2,7.3-7.7,11-1.1-.8-1.6-1.1-2.7-1.8,2.5-3.7,4.9-7.5,7.4-11.2-1-.6-1.5-1-2.4-1.6.6-1,1-1.6,1.6-2.6a80.2,80.2,0,0,1,8,5.4" transform="translate(-427.41 -406.79)" style="fill:#fff"/><g style="clip-path:url(#a)"><path d="M540.59,598.81l-6.5-11.2,6.5-11.2h1.5a33.27,33.27,0,0,0-4.8-8.4l-.7,1.3h-13l-6.5-11.2.7-1.3a38.84,38.84,0,0,0-4.8-.4,25.22,25.22,0,0,0-4.8.4l.7,1.3-6.5,11.2h-13l-.7-1.3a29.11,29.11,0,0,0-4.8,8.4h1.5l6.5,11.2-6.5,11.2h-1.5a33.27,33.27,0,0,0,4.8,8.4l.7-1.3h13l6.5,11.2-.7,1.3a38.84,38.84,0,0,0,4.8.4,25.22,25.22,0,0,0,4.8-.4l-.7-1.3,6.5-11.2h13l.7,1.3a29.11,29.11,0,0,0,4.8-8.4Z" transform="translate(-427.41 -406.79)" style="fill:#fff"/></g><g style="clip-path:url(#a)"><path d="M534.09,587.61l6.5,11.2h1.5a32.28,32.28,0,0,0,2.1-11.2,29.75,29.75,0,0,0-2.1-11.2h-1.5l-6.5,11.2" transform="translate(-427.41 -406.79)" style="fill:#1f3561"/></g><g style="clip-path:url(#a)"><path d="M523.49,569.31h13l.7-1.3a31.07,31.07,0,0,0-19.4-11.2l-.7,1.3,6.4,11.2" transform="translate(-427.41 -406.79)" style="fill:#1f3561"/></g><g style="clip-path:url(#a)"><path d="M502.39,569.31l6.5-11.2-.7-1.3a30.81,30.81,0,0,0-19.4,11.2l.7,1.3h12.9" transform="translate(-427.41 -406.79)" style="fill:#1f3561"/></g><g style="clip-path:url(#a)"><path d="M491.79,587.61l-6.4-11.2h-1.5a32.28,32.28,0,0,0-2.1,11.2,29.75,29.75,0,0,0,2.1,11.2h1.5l6.4-11.2" transform="translate(-427.41 -406.79)" style="fill:#1f3561"/></g><path d="M542.79,545.91v-5.6c.2-.3,1,.1.9-.8a.1.1,0,0,1,.1-.1c1.9-.2,2.7-1.2,3.8-2.1a.1.1,0,0,0-.1-.1l-5.1-2.1c-1-.3-5.1,1.1-6,1.4-3.4,1-6.5,1.9-9.8,3.2-1.2.5-2.4.9-3.6,1.4l-.9.6a2.29,2.29,0,0,1-1.7-.3c-2.7.8-5.5,1.3-8.5,1.9l-5.4.3c-3.1.7-4.6,3.6-7.6,4.6a15.5,15.5,0,0,1-8.3.3c-1.4-.3-3.4-1.6-5.1-.7-2.1,1.1-.8,5.3-2.2,7-1.1,1.3-3,1.6-4.8,2.2-3.6,1.2-9.9,2.5-14.6,1.6v-.3c.3-.4.7-.9,1-1.3-.4-.3-.8-.7-1.2-1,1.1-.5,2.3-1,3.4-1.5,3.6,3.4,6.5-.5,8.3-3,.4-.5,2-3.2,1.7-3.7-1.1-1.3-2.1-2.6-3.2-3.9l3-1.5,1.8.3a8.84,8.84,0,0,0,5.5-.8c3.2-1.9,3.3-5.6,4.6-9.5.5-1.4,1.3-2.7,1.8-4-4.7,1.7-7.4,5.6-11.4,8.1-3.4,2-7,2.8-12.2,2.8l-.9.9c-1-.1-5.6-.2-6.1-.7,1-.5,2.1-1,3.1-1.4l2.8-.3c2.7-.8,5.5-1.4,7.6-3,1-.7,1.2-2.2,2-3.2a14.19,14.19,0,0,1,4.8-4.3c5.6-3,13.3-3.4,20.3-4.9.3-.7.6-1.4.9-2v-.1c-3.3,0-6.7.1-10,.1a.1.1,0,0,1-.1-.1c-.1-5.3,1.3-11.4,3.8-14.3.8-1,1.7-1.9,2.5-2.8-.2-.5-.9-1-.7-1.4,1-.4,2-.9,3-1.3l6.3.9v-.1c-1.4-2.5-2.8-5.1-4.2-7.6-.2-.6-.3-1.2-.5-1.8-1.1-1.3-2.1-2.6-3.2-3.9.1-.1.3-.2.4-.3-.2-.2-.4-.1-.3-.3a4.05,4.05,0,0,1,.9-.5,6.35,6.35,0,0,1-.9-2.1c.9-.3,3-1.8,3.9-1.6a1.4,1.4,0,0,1,.3,2.7,7.84,7.84,0,0,0,1,1.5c1,1.6,2,3.3,3,4.9.5.8,1.4,1.5,1.7,2.5h.1l2.1-6.6c1.1-.5,2.2-1.1,3.3-1.6a.1.1,0,0,0,.1.1c-.5,2-.9,4.5-1.3,6.1l.1.1c.5-.2,1.1-.5,1.6-.7-.1-.2-.1-.4-.2-.5,1.1-.6,2.1-1.1,3.2-1.7,1.5.4,4.2,4.7,3.3,6.9-.4,1.1-1.4,1.5-2.2,2.2.1.4.3.8.4,1.2l2.7-1.2c1.1,0,3.6.6,4.5-.1-1.1-.7-2.2-1.5-3.4-2.2a.1.1,0,0,1,.1-.1,17.3,17.3,0,0,0,3.1-1.4h8.5c-.7-1.2-1.3-2.5-2-3.7.9-.3,2.8-1.6,3.5-1.3.9,1.2,1.7,2.3,2.6,3.5.8-.4,2.8-1.7,3.5-1.4l7.2,18.3c-.1,0-.1,0-.2.1a13.36,13.36,0,0,0-1.8.7c-.9.4-1.7,1.3-2.8,1.4-1.8-.7-4.2-2.7-5.8-2.9-.2.2-.5.3-.7.5a12.87,12.87,0,0,0,.9,4.5c.7,2.9,1.2,5.1,2.1,7.8.5,1.5.9,3,1.4,4.5a6,6,0,0,0-1.9,2.3l.1.1c3.3.8,5.8-2.5,8.7-1.1a3.29,3.29,0,0,1,1.6,2.3c.1.4-.1.7.1.9,7,4.6,14,9.2,21,13.9v.2c-1.2.5-2.4,1.1-3.6,1.6-4-1.8-7.9-3.7-11.9-5.5-1.8-.9-3.7-1.7-5.5-2.6-1.1,1.4-5.6,6.2-8.1,6.5" transform="translate(-427.41 -406.79)" style="fill:#fff"/><path d="M510.89,487.41c0,2.1-1.1,3.9-1.2,6.2.9-.1,1.2-.7,2.3-.7.6.8,1.3,1.6,1.9,2.5h.1c.3-1.2-.1-3.2.3-4.7h.3c1.2,1.7,5.2,5,2.8,7.8a3.41,3.41,0,0,1-1.7,1.4,29,29,0,0,0,2.4,6.6c1-.9,2.4-.7,2.6-2.5-.5-.4-2.5-3.6-2.5-4.3,2.1,0,6.1.5,7.5-.5l-3-3v-.5c3.3,0,6.7,0,10,.1-.3-.9-.5-4.8-.2-5.2.1,0,.1.1.2.1a50.22,50.22,0,0,0,4.4,6.2.77.77,0,0,0,.2-.3c.9-.6,1.1-2.8,1.1-3.8a1.27,1.27,0,0,1,.6.1,15.85,15.85,0,0,0,2,5,16.82,16.82,0,0,1,.7,2.4c.9,2.3,1.7,4.6,2.8,7,.5,1.2,1.6,2.7,1.6,4.3-1.1.2-3.3,2.5-4.9,2.1a10.05,10.05,0,0,1-4-2c-.4-.3-1.2-1.1-1.9-.9-.2.1-.3.2-.5.3a57.3,57.3,0,0,0,2.9,12.2,18.37,18.37,0,0,1,1.4,4.6c-.6.7-1.3,1.4-1.9,2.1.5,1,4.1-.2,4.5-.4,1.8-.9,4.2-1.4,5.4.6a7.12,7.12,0,0,1,.5,2.2c.9,0,4.8,3.2,5.9,3.9,5.3,3,9.8,6.6,15,9.8v.5h-.1c-1.1.5-4.7.5-6.2.5-1.8-3-6.2-5.9-9.5-7.4-1.6-.5-3.1-1.1-4.7-1.6.1,3.5-3.8,6-5.9,7.6-.7.5-1.8,1.6-2.9,1.6v-6.7c2.6-.1,4.9-1.3,5.3-3.6-4.7-1.9-8.7.3-12.9,1.2a29.48,29.48,0,0,0-6.3,2.2c-1.3.4-2.6.9-3.9,1.3a9.52,9.52,0,0,1-2.5,1.2c-.7,0-1.4-.1-2-.1-2.4.5-5.3,1.4-7.7,1.8-2.1.2-4.2.3-6.2.5-3,1.2-4.8,3.7-8,4.8-1.3.4-5.4.9-6.9.3s-3.8-1.8-5.6-1c-2.1,1-.7,5.5-2.2,7-2.5,2.5-14.5,4.8-19.6,3.7a.37.37,0,0,0-.1-.3l3.1-4h.2c.6.3,1.3.7,1.9,1a3.34,3.34,0,0,0,1.7.1.6.6,0,0,1,.4.1c3.3-1.4,4.5-4.3,5.8-7.2a7,7,0,0,0,.7-4,11.76,11.76,0,0,0-.7-2h.2a6.61,6.61,0,0,1,2.4.3,8.49,8.49,0,0,0,4-.5c5.3-2.4,3.7-9.3,6.9-13.5-2.2.4-4,2.5-5.5,3.7-1.7,1.5-4.1,2.8-5.8,4.5-.3-.1-3.9,1.6-4.7,1.8-3.2,1-8.7,1.1-11.5-.4v-.3c3.2,0,9.9-2.1,11.2-3.9.9-1.3,1.3-2.8,2.3-4a20.13,20.13,0,0,1,5.3-3.7,17.23,17.23,0,0,0,2.1-.7c1.8-.7,4-1,6-1.8s4.5-.5,6-1,3.5,0,4.9-.9a2.83,2.83,0,0,1,.7-1.6h-10c-.1-6.1,1.4-11.5,3.9-14.8a19.27,19.27,0,0,1,2.4-2.5s.4-.2.2-.3a6.15,6.15,0,0,0,1.9-1.2l.2-1.2c2.3,0,4,.6,6.2.8v-.2c-.6-.4-.8-1.5-1.2-2.1a22.14,22.14,0,0,1-3.6-8.2c-.2-.8-.3-4.3.2-4.8,1.9-.4,2.6,1.9,3.3,3.1a65.77,65.77,0,0,0,3.8,5.4c.7.9.8,1.8,1.5,2.6a11.53,11.53,0,0,1,2-9c.5-.6,1.2-1,1.6-1.6.1-.2.2-.2.3-.2" transform="translate(-427.41 -406.79)" style="fill:#1f3561"/><path d="M507,578.21a2.77,2.77,0,0,0-1-1.6,2.7,2.7,0,0,0-1.5-.3c-2.9,0-4.1,2.9-4.2,5.3h.1c1.1-1.7,2.9-2.2,4.9-2.2a6.83,6.83,0,0,1,6.8,6.9c0,5-3.8,7.7-8.4,7.7-6.2,0-8.4-5.3-8.4-10.6,0-5.9,2.8-10.9,9.2-10.9,3.3,0,5.9,1.4,6.9,4.4C511.59,577.31,507,578.21,507,578.21Zm-3.2,11.6a3.3,3.3,0,0,0,3.5-3.2,3.33,3.33,0,0,0-3.6-3.5,3.38,3.38,0,0,0-3.3,3.5A3.27,3.27,0,0,0,503.79,589.81Z" transform="translate(-427.41 -406.79)" style="fill:#1f3561"/><path d="M520.89,580.91a6.55,6.55,0,0,0,1.4,0c1.5,0,3.4-.4,3.4-2.2,0-1.4-1.4-2.1-3-2.1-2.1,0-3.3,1.1-3.2,3,0,0-4.6-1.5-4.5-2.1.9-3.3,3.9-5,7.7-5,3.6,0,7.8,1.5,7.8,5.8,0,1.8-1,3.8-2.9,4.1v.1a4.5,4.5,0,0,1,3.6,4.8c0,4.7-4.3,6.7-8.5,6.7-4.4,0-8.1-2-8.5-6.4,0-.5,4.7-1.4,4.7-1.4-.1,2.5,1.2,3.7,3.8,3.7,1.7,0,3.4-.8,3.4-2.6,0-2.3-1.7-2.9-3.7-2.9a6.6,6.6,0,0,0-1.4.1v-3.6Z" transform="translate(-427.41 -406.79)" style="fill:#1f3561"/><polygon points="75.39 50.01 75.19 50.01 72.19 77.31 74.09 76.61 75.39 50.01" style="fill:#fff"/><path d="M515.29,534.81s2.8,4.3,3.9,4.9c0,0-1.8,1.7-4.1-.5S515.29,534.81,515.29,534.81Z" transform="translate(-427.41 -406.79)" style="fill:#fff"/><path d="M523.29,518.91l-4.8,10.3h-.8a7.65,7.65,0,0,1-.8-2.1,2.33,2.33,0,0,1,.3-2.2l1.1-1.8s.5-1.2-.1-1.6c0,0-3.7-3-4.1-3.9,0,0-.8-1.4-.2-2.2,0,0,.2-1,2-.3,0,0,6.5,2.6,7,2.9C522.79,518,523.39,518.51,523.29,518.91Z" transform="translate(-427.41 -406.79)" style="fill:#fff"/></svg>