<?xml version="1.0" encoding="UTF-8" standalone="no"?>
<!-- Created with Inkscape (http://www.inkscape.org/) -->
<svg
   xmlns:svg="http://www.w3.org/2000/svg"
   xmlns="http://www.w3.org/2000/svg"
   version="1.0"
   width="255.06914"
   height="287.97232"
   id="svg2371">
  <defs
     id="defs2374" />
  <g
     transform="translate(-24.21186,-8.125)"
     id="g4435">
    <path
       d="M 24.21186,91.539258 L 279.28099,91.539258 C 279.28099,199.43673 243.15115,267.23591 151.06674,296.09732 C 42.496207,262.3945 24.21186,170.49163 24.21186,91.539258 z "
       style="opacity:1;fill:#ff0000;fill-rule:evenodd;stroke:none;stroke-width:1px;stroke-linecap:butt;stroke-linejoin:miter;stroke-opacity:1"
       id="path2385" />
    <path
       d="M 28.716392,95.762257 L 275.62106,95.762257 C 276.1717,134.71126 270.00831,170.00406 257.46282,200.1452 C 238.1846,246.46206 200.28617,274.89614 156.81402,290.0202 C 153.16516,291.35453 150.06271,291.34431 146.16661,289.87237 C 102.78815,277.66965 65.535333,244.22632 46.354969,199.99812 C 32.192499,167.34075 29.508523,131.83439 28.716392,95.762257 z "
       style="opacity:1;fill:#ffffff;fill-rule:evenodd;stroke:none;stroke-width:1px;stroke-linecap:butt;stroke-linejoin:miter;stroke-opacity:1"
       id="path2472" />
    <path
       d="M 46.59375,108.28125 C 41.930084,115.91193 39.754588,124.17261 47.375,134.78125 C 47.91223,139.93198 48.689532,145.00495 49.625,150.03125 L 47.78125,149.90625 C 48.519472,145.1128 46.28809,142.00162 43.34375,139.3125 C 38.045663,132.88429 38.516947,126.2604 35.25,120.03125 C 34.355602,130.66532 28.963761,151.35182 47.59375,151.6875 L 49.46875,152.03125 L 49.625,153.03125 L 50.125,152.78125 C 51.966037,161.92009 54.469831,170.83186 57.59375,179.40625 L 56.90625,179.5 C 56.639362,174.65739 53.842162,172.08611 50.40625,170.0625 C 43.191795,165.00678 42.278294,157.56191 38.5,151.71875 C 38.693264,162.30849 38.795511,184.79744 57.09375,181.28125 L 58.28125,181.25 C 61.436537,189.62161 65.194889,197.65944 69.53125,205.3125 L 67.4375,205.96875 C 65.979715,201.34307 63.007097,199.55879 60.96875,198.25 C 52.727022,195.13832 50.407361,186.77412 46.59375,181.75 C 47.313126,192.45973 52.59614,215.40674 70.25,207.46875 L 70.71875,207.34375 C 74.553038,213.89167 78.823601,220.14218 83.5,226.03125 L 81.625,227.28125 C 78.782226,223.35177 75.786984,221.88239 73.9375,221.78125 C 65.13498,221.42886 61.297727,213.22052 56.09375,209.65625 C 59.414105,221.22843 71.095652,240.15189 85.09375,228.0625 C 89.211777,233.07516 93.623952,237.80923 98.34375,242.25 L 97.09375,243.5 C 93.570223,240.16729 89.64856,238.69316 87.8125,238.9375 C 79.097844,240.2272 76.187767,235.74914 70.3125,232.21875 C 75.131931,242.84415 89.127302,257.25607 100.5,244.21875 C 106.00791,249.20206 111.89252,253.7807 118.15625,257.90625 L 117.09375,259.15625 C 113.57022,255.82356 109.86268,255.14455 107.03125,255.6875 C 98.316591,256.9772 92.62527,253.90539 86.75,250.375 C 91.738097,261.37228 109.56066,271.65406 118.4375,260.3125 L 119.65625,258.90625 C 125.20903,262.4648 131.04567,265.65069 137.15625,268.46875 C 134.21951,267.54299 131.59685,267.84954 129.625,268.71875 C 122.61451,271.32897 115.39137,269.71961 108.875,267.59375 C 116.1979,277.19563 138.15643,282.73274 141.78125,270.6875 L 141.875,270.53125 C 144.05883,271.44671 146.28174,272.33895 148.53125,273.15625 C 152.04383,274.43245 157.02087,277.65935 159.65625,281.09375 C 160.40979,281.97721 162.40453,280.37389 161.25,278.5 L 151.8125,272.34375 C 148.71726,271.22005 145.71561,270.0263 142.8125,268.78125 L 145.34375,264.03125 C 147.28545,252.46819 133.49197,243.00138 124.34375,240.84375 C 129.05436,245.0046 135.12259,253.84398 135.25,256.65625 C 134.79188,261.58695 138.35701,264.68605 141.59375,266.5625 L 141,268 C 133.75471,264.78928 127.13308,261.21954 121.03125,257.34375 L 123.375,254.625 C 127.85542,243.78986 116.52699,231.46288 108.09375,227.3125 C 111.85313,232.42209 115.69275,242.41805 115.1875,245.1875 C 114.06215,249.37536 116.82785,253.69672 119.5625,256.25 L 119.5,256.34375 C 112.98797,252.09083 107.09697,247.50082 101.78125,242.65625 L 105.75,238.96875 C 110.23042,228.43222 100.81286,217.33557 93.375,212.6875 C 96.537158,217.7971 98.067752,225.66805 97.5625,228.4375 C 96.437153,232.62536 97.609101,237.72797 100.34375,240.28125 L 99.8125,240.8125 C 94.97765,236.22926 90.643451,231.42611 86.71875,226.5 L 89.25,223.90625 C 96.511856,212.83431 88.480256,201.41919 81.375,195.75 C 83.53246,201.35826 84.434134,209.7721 83.875,212.6875 C 82.501216,215.53545 82.156305,219.28453 83.34375,222.125 C 79.656712,217.1139 76.359085,211.97496 73.4375,206.8125 L 74.8125,205.09375 C 85.542426,196.1543 77.285278,181.71199 69.65625,174.25 C 72.484054,180.78567 71.569178,185.43714 70.46875,192.96875 C 70.146945,195.68061 69.541582,198.54317 70.375,201.09375 C 66.848998,194.24895 63.872593,187.39776 61.375,180.6875 L 62.125,180.125 C 74.98959,171.51516 67.699792,156.9938 62.15625,147.875 C 63.277504,154.90736 62.281022,159.0398 60.40625,167.15625 C 58.970412,170.87632 58.357544,174.66404 61.15625,178.625 L 60.71875,178.875 C 57.248994,169.28587 54.693169,160.03949 52.625,151.65625 L 52.75,151.59375 C 70.695622,146.57939 60.261126,127.94153 56.71875,117.875 C 55.12498,124.72593 57.2594,131.00765 53.75,138.5625 C 52.303543,140.78859 51.198403,143.10505 51.1875,145.71875 C 50.231873,141.60915 49.353964,137.69859 48.5625,134.1875 C 55.385276,124.83647 51.159041,116.53021 46.59375,108.28125 z M 71.5,203.21875 C 71.812006,203.62057 72.156984,204.00304 72.59375,204.375 L 72.1875,204.5 C 71.954265,204.07186 71.728535,203.64722 71.5,203.21875 z "
       style="opacity:1;fill:#ffff00;fill-rule:evenodd;stroke:none;stroke-width:1px;stroke-linecap:butt;stroke-linejoin:miter;stroke-opacity:1"
       id="path2474" />
    <path
       d="M 62.219033,8.2193165 C 62.219032,51.12693 62.647949,60.405476 63.1875,107.03125 C 63.1875,180.63415 103.58258,230.16253 152.16905,253.03942 C 217.76626,220.83574 241.40597,164.29146 241.40597,107.5 C 241.94553,60.874222 241.56108,51.032613 241.56108,8.125 L 62.219033,8.2193165 z "
       style="opacity:1;fill:#ff0000;fill-rule:evenodd;stroke:none;stroke-width:1px;stroke-linecap:butt;stroke-linejoin:miter;stroke-opacity:1"
       id="path2380" />
    <rect
       width="171.60185"
       height="37.192699"
       x="66.09259"
       y="12.177674"
       style="opacity:1;fill:#ffffff;fill-opacity:1;fill-rule:evenodd;stroke:none;stroke-width:8;stroke-linejoin:miter;stroke-miterlimit:4;stroke-dasharray:none;stroke-dashoffset:0;stroke-opacity:1"
       id="rect2387" />
    <path
       d="M 66.325234,52.852587 L 83.814451,53.051661 L 198.48095,215.69542 L 184.96735,228.92749 L 66.242774,61.696733 L 66.325234,52.852587 z "
       style="opacity:1;fill:#ffffff;fill-rule:evenodd;stroke:none;stroke-width:1px;stroke-linecap:butt;stroke-linejoin:miter;stroke-opacity:1"
       id="path2389" />
    <path
       d="M 129.5053,52.9692 L 221.42591,185.57136 L 209.88304,200.77416 L 106.2788,52.687668 L 129.5053,52.9692 z "
       style="opacity:1;fill:#ffffff;fill-rule:evenodd;stroke:none;stroke-width:1px;stroke-linecap:butt;stroke-linejoin:miter;stroke-opacity:1"
       id="path2391" />
    <path
       d="M 91.076008,18.059078 L 103.88577,18.059078 L 103.88577,23.971276 L 98.11434,23.971276 L 98.11434,27.771975 L 103.04117,27.771975 L 103.04117,34.106473 L 98.11434,34.106473 L 98.11434,37.625639 L 103.88577,37.625639 L 103.88577,43.678604 L 90.935242,43.678604 L 91.076008,18.059078 z "
       style="opacity:1;fill:#ff0000;fill-rule:evenodd;stroke:none;stroke-width:1px;stroke-linecap:butt;stroke-linejoin:miter;stroke-opacity:1"
       id="path2401" />
    <path
       d="M 108.10877,18.199845 L 114.79518,18.199845 L 119.58125,31.572675 L 119.3701,18.340612 L 125.98613,18.199845 L 125.98613,43.819371 L 119.65163,43.819371 L 114.44327,30.446541 L 114.51365,43.819371 L 107.968,43.819371 L 108.10877,18.199845 z "
       style="opacity:1;fill:#ff0000;fill-rule:evenodd;stroke:none;stroke-width:1px;stroke-linecap:butt;stroke-linejoin:miter;stroke-opacity:1"
       id="path2403" />
    <path
       d="M 129.83217,18.444866 L 142.64193,18.444866 L 142.64193,24.357064 L 136.8705,24.357064 L 136.8705,28.157763 L 141.79733,28.157763 L 141.79733,34.492261 L 136.8705,34.492261 L 136.8705,38.011427 L 142.64193,38.011427 L 142.64193,44.064392 L 129.6914,44.064392 L 129.83217,18.444866 z "
       style="opacity:1;fill:#ff0000;fill-rule:evenodd;stroke:none;stroke-width:1px;stroke-linecap:butt;stroke-linejoin:miter;stroke-opacity:1"
       id="path2405" />
    <path
       d="M 200.10532,18.345329 L 212.91508,18.345329 L 212.91508,24.257527 L 207.14365,24.257527 L 207.14365,28.058226 L 212.07048,28.058226 L 212.07048,34.392724 L 207.14365,34.392724 L 207.14365,37.91189 L 212.91508,37.91189 L 212.91508,43.964855 L 199.96455,43.964855 L 200.10532,18.345329 z "
       style="opacity:1;fill:#ff0000;fill-rule:evenodd;stroke:none;stroke-width:1px;stroke-linecap:butt;stroke-linejoin:miter;stroke-opacity:1"
       id="path2407" />
    <path
       d="M 147.72801,18.21875 L 147.72801,43.5 L 153.47106,43.5 L 153.47106,34.15625 L 158.0625,43.5 L 164.84375,43.5 L 159.84375,33.25 C 166.04786,30.254077 165.83548,20.583301 158.25,18.21875 L 147.72801,18.21875 z M 153.47106,23.46875 C 154.31606,23.522929 155.9375,23.5625 155.9375,23.5625 C 158.74562,23.554457 159.98171,30.012835 155.6875,30.15625 L 153.47106,30.15625 L 153.47106,23.46875 z "
       style="opacity:1;fill:#ff0000;fill-rule:evenodd;stroke:none;stroke-width:1px;stroke-linecap:butt;stroke-linejoin:miter;stroke-opacity:1"
       id="path2411" />
    <path
       d="M 177.07639,28.965277 L 177.07639,33.842592 L 178.96759,33.842592 C 179.40196,38.363136 175.39836,39.030365 173.79167,36.131944 C 172.83096,34.388722 173.2175,27.181763 173.79167,25.680555 C 174.66433,23.654338 178.0004,23.804355 179.36574,25.879629 L 185.4375,23.291666 C 185.53005,19.696078 173.72574,12.423274 168.01852,23.49074 C 166.20851,27.704475 166.12107,32.963348 167.37153,37.575231 C 168.09844,40.359411 170.03223,42.886044 173.69213,43.696759 C 176.246,44.19916 177.68141,44.196315 180.26157,43.597222 C 183.90714,42.614303 185.88181,37.252846 185.83565,35.435185 L 185.83565,28.86574 L 177.07639,28.965277 z "
       style="opacity:1;fill:#ff0000;fill-rule:evenodd;stroke:none;stroke-width:1px;stroke-linecap:butt;stroke-linejoin:miter;stroke-opacity:1"
       id="path2420" />
    <path
       d="M 189.33111,18.340611 C 190.31648,18.340611 195.52485,18.340611 195.52485,18.340611 L 195.52485,43.678604 L 189.19035,43.678604 L 189.33111,18.340611 z "
       style="opacity:1;fill:#ff0000;fill-rule:evenodd;stroke:none;stroke-width:1px;stroke-linecap:butt;stroke-linejoin:miter;stroke-opacity:1"
       id="path2422" />
    <path
       d="M 173.04882,81.706549 C 173.04882,81.706549 171.26577,81.823187 171.26577,81.823187 C 170.51903,81.823197 169.90563,82.116794 169.42559,82.70398 C 168.94554,83.291183 168.70551,84.053253 168.70551,84.99019 C 168.70551,85.946394 168.94935,86.714881 169.43702,87.295653 C 169.92468,87.876436 170.56729,88.166824 171.36483,88.16682 C 171.36483,88.16682 173.14025,88.216075 173.14025,88.216075 L 173.20228,92.154603 C 173.20228,92.154603 171.06766,92.1713 171.06766,92.1713 C 169.35065,92.171299 167.95623,91.507094 166.88438,90.178685 C 165.81253,88.850281 165.2766,87.120782 165.2766,84.99019 C 165.2766,83.924904 165.41629,82.952664 165.69569,82.073466 C 165.97508,81.19429 166.39163,80.427406 166.94534,79.772817 C 167.46348,79.143922 168.05656,78.664218 168.72457,78.333707 C 169.39257,78.003224 170.09993,77.837974 170.84668,77.83796 C 170.84668,77.83796 173.09262,77.889751 173.09262,77.889751 L 173.04882,81.706549 z "
       style="font-size:16.89539146px;font-style:normal;font-variant:normal;font-weight:normal;font-stretch:normal;text-align:start;line-height:100%;writing-mode:lr-tb;text-anchor:start;opacity:1;fill:#ffffff;fill-opacity:1;stroke:none;stroke-width:1px;stroke-linecap:butt;stroke-linejoin:miter;stroke-opacity:1;font-family:Kabel Ult BT"
       id="text2432" />
    <path
       d="M 180.01975,88.13374 C 180.67293,88.133743 181.19065,87.851756 181.57289,87.287775 C 181.95512,86.723804 182.14623,85.961154 182.14624,84.999824 C 182.14623,84.044917 181.95512,83.285471 181.57289,82.721487 C 181.19065,82.15752 180.67293,81.875531 180.01975,81.875521 C 179.37623,81.875531 178.86457,82.155917 178.48476,82.71668 C 178.10494,83.27746 177.91503,84.038508 177.91503,84.999824 C 177.91503,85.967562 178.10494,86.731815 178.48476,87.292582 C 178.86457,87.853358 179.37623,88.133743 180.01975,88.13374 L 180.01975,88.13374 z M 180.01975,77.83796 C 180.7697,77.837975 181.47127,78.004603 182.12447,78.337849 C 182.77765,78.67112 183.35584,79.154986 183.85904,79.789448 C 184.38159,80.436751 184.77712,81.202604 185.04567,82.087012 C 185.31419,82.97144 185.44845,83.942376 185.44847,84.999824 C 185.44845,86.063695 185.3154,87.033028 185.0493,87.907829 C 184.78317,88.782636 184.38642,89.553298 183.85904,90.219813 C 183.351,90.854288 182.76918,91.338154 182.11358,91.671413 C 181.45797,92.004671 180.76002,92.1713 180.01975,92.1713 C 179.28431,92.1713 178.5912,92.004671 177.94044,91.671413 C 177.28967,91.338154 176.71026,90.854288 176.20223,90.219813 C 175.67484,89.553298 175.27809,88.782636 175.01198,87.907829 C 174.74586,87.033028 174.61281,86.063695 174.61281,84.999824 C 174.61281,83.942376 174.74586,82.976246 175.01198,82.101433 C 175.27809,81.226638 175.67484,80.455977 176.20223,79.789448 C 176.71026,79.148579 177.28967,78.663111 177.94044,78.333042 C 178.5912,78.003001 179.28431,77.837975 180.01975,77.83796 L 180.01975,77.83796 z "
       style="font-size:16.37939072px;font-style:normal;font-variant:normal;font-weight:normal;font-stretch:normal;text-align:start;line-height:100%;writing-mode:lr-tb;text-anchor:start;opacity:1;fill:#ffffff;fill-opacity:1;stroke:none;stroke-width:1px;stroke-linecap:butt;stroke-linejoin:miter;stroke-opacity:1;font-family:Kabel Ult BT"
       id="text2436" />
    <path
       d="M 188.07748,92.1713 L 188.07748,81.220415 L 185.98761,81.181051 L 186.00672,77.83796 L 194.31732,77.877322 L 194.31732,81.220415 L 192.04348,81.259777 L 192.04348,92.160683 L 188.07748,92.1713 z "
       style="font-size:18.04970551px;font-style:normal;font-variant:normal;font-weight:normal;font-stretch:normal;text-align:start;line-height:100%;writing-mode:lr-tb;text-anchor:start;opacity:1;fill:#ffffff;fill-opacity:1;stroke:none;stroke-width:1px;stroke-linecap:butt;stroke-linejoin:miter;stroke-opacity:1;font-family:Kabel Ult BT"
       id="text2440" />
    <path
       d="M 207.53562,81.008563 L 207.53562,83.374091 L 208.08237,83.374091 C 208.37291,83.3741 208.60799,83.264768 208.78761,83.046097 C 208.96722,82.827443 209.05702,82.542522 209.05702,82.191326 C 209.05702,81.8269 208.97117,81.538663 208.7995,81.326617 C 208.6278,81.114593 208.38876,81.008573 208.08237,81.008563 L 207.53562,81.008563 z M 207.51976,86.017915 L 207.51976,88.681618 L 208.15368,88.681618 C 208.48649,88.681623 208.74534,88.567321 208.93024,88.338717 C 209.11513,88.11012 209.20758,87.783782 209.20758,87.359706 C 209.20758,86.942265 209.11381,86.614273 208.92628,86.375727 C 208.73874,86.137191 208.4812,86.017922 208.15368,86.017915 L 207.51976,86.017915 z M 204.02527,91.961552 L 204.02527,77.83796 L 209.25512,77.83796 C 210.25882,77.837975 211.05651,78.167625 211.64817,78.82691 C 212.23983,79.486222 212.53566,80.37578 212.53567,81.495583 C 212.53566,82.171459 212.41415,82.759526 212.17117,83.25979 C 211.92815,83.760072 211.55044,84.205677 211.03803,84.596611 C 211.62968,84.927925 212.07211,85.375188 212.3653,85.938402 C 212.65848,86.501629 212.80507,87.180806 212.80508,87.975937 C 212.80507,89.168642 212.47622,90.131087 211.81855,90.863272 C 211.16084,91.59546 210.28524,91.961552 209.19173,91.961552 L 204.02527,91.961552 z "
       style="font-size:17.11483192px;font-style:normal;font-variant:normal;font-weight:normal;font-stretch:normal;text-align:start;line-height:100%;writing-mode:lr-tb;text-anchor:start;opacity:1;fill:#ffffff;fill-opacity:1;stroke:none;stroke-width:1px;stroke-linecap:butt;stroke-linejoin:miter;stroke-opacity:1;font-family:Kabel Ult BT"
       id="text2448" />
    <path
       d="M 214.16047,77.83796 L 218.1001,77.885902 L 218.1001,87.725673 C 218.10009,88.179491 218.16766,88.511747 218.3028,88.722441 C 218.43794,88.933144 218.64652,89.038494 218.92855,89.03849 C 219.21645,89.038494 219.60246,88.933144 219.73466,88.722441 C 219.86686,88.511747 219.96815,88.179491 219.96815,87.725673 L 220.00334,77.915621 L 223.64368,77.885902 L 223.64368,87.065899 C 223.64367,88.770944 223.24854,90.048103 222.45829,90.897382 C 221.66802,91.74666 220.47969,92.1713 218.8933,92.1713 C 217.30689,92.1713 216.11563,91.74666 215.31949,90.897382 C 214.52335,90.048103 214.12528,88.770944 214.12528,87.065899 L 214.16047,77.83796 z "
       style="font-size:18.04970551px;font-style:normal;font-variant:normal;font-weight:normal;font-stretch:normal;text-align:start;line-height:100%;writing-mode:lr-tb;text-anchor:start;opacity:1;fill:#ffffff;fill-opacity:1;stroke:none;stroke-width:1px;stroke-linecap:butt;stroke-linejoin:miter;stroke-opacity:1;font-family:Kabel Ult BT"
       id="text2452" />
    <path
       d="M 225.07933,91.79025 L 225.07933,87.852734 C 225.21893,87.878793 225.42335,87.924389 225.69258,87.989522 C 226.76951,88.243558 227.50493,88.370575 227.8988,88.370571 C 228.21789,88.370575 228.47591,88.290783 228.67285,88.131194 C 228.86979,87.971612 228.96826,87.76806 228.96826,87.520536 C 228.96826,87.259994 228.71398,86.999447 228.20544,86.738896 C 227.9711,86.621654 227.78662,86.52395 227.65201,86.445781 C 226.63989,85.846528 225.93439,85.234243 225.53553,84.608924 C 225.13666,83.983619 224.93724,83.208494 224.93724,82.283543 C 224.93724,80.967792 225.32737,79.897922 226.10766,79.07393 C 226.88793,78.249963 227.91376,77.837974 229.18515,77.83796 C 229.67873,77.837974 230.1474,77.87217 230.59114,77.94055 C 231.03487,78.008958 231.4487,78.108292 231.83261,78.238551 L 231.83261,82.127215 C 231.34898,81.938328 230.91771,81.799912 230.53879,81.711968 C 230.15986,81.624043 229.81086,81.580076 229.49177,81.580065 C 229.13778,81.580076 228.86729,81.640328 228.68033,81.76082 C 228.49336,81.881334 228.39988,82.055574 228.39988,82.283543 C 228.39988,82.576667 228.67908,82.866525 229.2375,83.153119 C 229.58151,83.328997 229.85574,83.485325 230.06015,83.622103 C 230.97255,84.227882 231.59578,84.822253 231.92983,85.405221 C 232.26388,85.988202 232.4309,86.72913 232.43091,87.628012 C 232.4309,89.093591 232.04076,90.2172 231.26049,90.998839 C 230.4802,91.78048 229.35466,92.1713 227.88384,92.1713 C 227.23569,92.1713 226.68974,92.14036 226.24601,92.078481 C 225.80227,92.016601 225.41337,91.920523 225.07933,91.79025 L 225.07933,91.79025 z "
       style="font-size:16.62699127px;font-style:normal;font-variant:normal;font-weight:normal;font-stretch:normal;text-align:start;line-height:100%;writing-mode:lr-tb;text-anchor:start;opacity:1;fill:#ffffff;fill-opacity:1;stroke:none;stroke-width:1px;stroke-linecap:butt;stroke-linejoin:miter;stroke-opacity:1;font-family:Kabel Ult BT"
       id="text2456" />
    <path
       d="M 196.08924,92.1713 L 196.08924,81.220415 L 193.99937,81.181051 L 194.01848,77.83796 L 202.32908,77.877322 L 202.32908,81.220415 L 200.05524,81.259777 L 200.05524,92.160683 L 196.08924,92.1713 z "
       style="font-size:18.04970551px;font-style:normal;font-variant:normal;font-weight:normal;font-stretch:normal;text-align:start;line-height:100%;writing-mode:lr-tb;text-anchor:start;opacity:1;fill:#ffffff;fill-opacity:1;stroke:none;stroke-width:1px;stroke-linecap:butt;stroke-linejoin:miter;stroke-opacity:1;font-family:Kabel Ult BT"
       id="path2463" />
    <path
       d="M 257.76725,108.1634 C 262.43092,115.79408 264.60641,124.05476 256.986,134.66341 C 256.44877,139.81414 255.67147,144.88711 254.736,149.91341 L 256.57975,149.78841 C 255.84153,144.99496 258.07291,141.88378 261.01725,139.19466 C 266.31534,132.76645 265.84405,126.14255 269.111,119.9134 C 270.0054,130.54748 275.39724,151.23398 256.76725,151.56966 L 254.89225,151.91341 L 254.736,152.91341 L 254.236,152.66341 C 252.39496,161.80225 249.89117,170.71402 246.76725,179.28841 L 247.45475,179.38216 C 247.72164,174.53955 250.51884,171.96827 253.95475,169.94466 C 261.1692,164.88894 262.08271,157.44407 265.861,151.60091 C 265.66774,162.19065 265.56549,184.6796 247.26725,181.16341 L 246.07975,181.13216 C 242.92446,189.50377 239.16611,197.5416 234.82975,205.19466 L 236.9235,205.85091 C 238.38128,201.22523 241.3539,199.44095 243.39225,198.13216 C 251.63398,195.02048 253.95364,186.65628 257.76725,181.63216 C 257.04787,192.34189 251.76486,215.2889 234.111,207.35091 L 233.64225,207.22591 C 229.80796,213.77383 225.5374,220.02434 220.861,225.91341 L 222.736,227.16341 C 225.57877,223.23393 228.57402,221.76455 230.4235,221.66341 C 239.22602,221.31102 243.06327,213.10268 248.26725,209.53841 C 244.94689,221.11059 233.26535,240.03405 219.26725,227.94466 C 215.14922,232.95732 210.73705,237.69139 206.01725,242.13216 L 207.26725,243.38216 C 210.79078,240.04945 214.71244,238.57532 216.5485,238.81966 C 225.26316,240.10936 228.17323,235.6313 234.0485,232.10091 C 229.22907,242.72631 215.2337,257.13823 203.861,244.10091 C 198.35309,249.08422 192.46848,253.66286 186.20475,257.78841 L 187.26725,259.03841 C 190.79078,255.70572 194.49832,255.02671 197.32975,255.56966 C 206.04441,256.85936 211.73573,253.78755 217.611,250.25716 C 212.6229,261.25444 194.80034,271.53622 185.9235,260.19466 L 184.70475,258.78841 C 179.15197,262.34696 173.31533,265.53285 167.20475,268.35091 C 170.14149,267.42515 172.76415,267.7317 174.736,268.60091 C 181.74649,271.21113 188.96963,269.60177 195.486,267.47591 C 188.1631,277.07779 166.20457,282.6149 162.57975,270.56966 L 162.486,270.41341 C 160.30217,271.32887 158.07926,272.22111 155.82975,273.03841 C 152.31717,274.31461 147.34013,277.54151 144.70475,280.97591 C 143.95121,281.85937 141.95647,280.25605 143.111,278.38216 L 152.5485,272.22591 C 155.64374,271.10221 158.64539,269.90846 161.5485,268.66341 L 159.01725,263.91341 C 157.07555,252.35035 170.86903,242.88354 180.01725,240.72591 C 175.30664,244.88676 169.23841,253.72614 169.111,256.53841 C 169.56912,261.46911 166.00399,264.56821 162.76725,266.44466 L 163.361,267.88216 C 170.60629,264.67144 177.22792,261.1017 183.32975,257.22591 L 180.986,254.50716 C 176.50558,243.67202 187.83401,231.34504 196.26725,227.19466 C 192.50787,232.30425 188.66825,242.30021 189.1735,245.06966 C 190.29885,249.25752 187.53315,253.57888 184.7985,256.13216 L 184.861,256.22591 C 191.37303,251.97299 197.26403,247.38298 202.57975,242.53841 L 198.611,238.85091 C 194.13058,228.31438 203.54814,217.21773 210.986,212.56966 C 207.82384,217.67926 206.29325,225.55021 206.7985,228.31966 C 207.92385,232.50752 206.7519,237.61013 204.01725,240.16341 L 204.5485,240.69466 C 209.38335,236.11142 213.71755,231.30827 217.64225,226.38216 L 215.111,223.78841 C 207.84914,212.71647 215.88074,201.30135 222.986,195.63216 C 220.82854,201.24042 219.92687,209.65426 220.486,212.56966 C 221.85978,215.41761 222.20469,219.16669 221.01725,222.00716 C 224.70429,216.99606 228.00191,211.85712 230.9235,206.69466 L 229.5485,204.97591 C 218.81857,196.03646 227.07572,181.59415 234.70475,174.13216 C 231.87695,180.66783 232.79182,185.3193 233.89225,192.85091 C 234.21405,195.56277 234.81942,198.42533 233.986,200.97591 C 237.512,194.13111 240.48841,187.27992 242.986,180.56966 L 242.236,180.00716 C 229.37141,171.39732 236.66121,156.87596 242.20475,147.75716 C 241.0835,154.78952 242.07998,158.92196 243.95475,167.03841 C 245.39059,170.75848 246.00346,174.5462 243.20475,178.50716 L 243.64225,178.75716 C 247.11201,169.16803 249.66783,159.92165 251.736,151.53841 L 251.611,151.47591 C 233.66538,146.46155 244.09987,127.82369 247.64225,117.75715 C 249.23602,124.60808 247.1016,130.88981 250.611,138.44466 C 252.05746,140.67075 253.1626,142.98721 253.1735,145.60091 C 254.12913,141.49131 255.00704,137.58075 255.7985,134.06966 C 248.97572,124.71862 253.20196,116.41236 257.76725,108.1634 z M 232.861,203.10091 C 232.54899,203.50273 232.20402,203.8852 231.76725,204.25716 L 232.1735,204.38216 C 232.40673,203.95402 232.63246,203.52938 232.861,203.10091 z "
       style="opacity:1;fill:#ffff00;fill-rule:evenodd;stroke:none;stroke-width:1px;stroke-linecap:butt;stroke-linejoin:miter;stroke-opacity:1"
       id="path2494" />
  </g>
</svg>
