<?xml version="1.0" encoding="UTF-8" standalone="no"?>
<svg
   xmlns:dc="http://purl.org/dc/elements/1.1/"
   xmlns:cc="http://creativecommons.org/ns#"
   xmlns:rdf="http://www.w3.org/1999/02/22-rdf-syntax-ns#"
   xmlns:svg="http://www.w3.org/2000/svg"
   xmlns="http://www.w3.org/2000/svg"
   xmlns:sodipodi="http://sodipodi.sourceforge.net/DTD/sodipodi-0.dtd"
   xmlns:inkscape="http://www.inkscape.org/namespaces/inkscape"
   inkscape:version="1.0 (4035a4f, 2020-05-01)"
   sodipodi:docname="Logo Unione Sportiva Cremonese.svg"
   viewBox="0 0 700 662.4666"
   height="662.46661"
   width="700"
   xml:space="preserve"
   id="svg10"
   version="1.1"><metadata
     id="metadata16"><rdf:RDF><cc:Work
         rdf:about=""><dc:format>image/svg+xml</dc:format><dc:type
           rdf:resource="http://purl.org/dc/dcmitype/StillImage" /></cc:Work></rdf:RDF></metadata><defs
     id="defs14" /><sodipodi:namedview
     inkscape:current-layer="g18"
     inkscape:window-maximized="0"
     inkscape:window-y="0"
     inkscape:window-x="0"
     inkscape:cy="268.77869"
     inkscape:cx="217.91395"
     inkscape:zoom="0.50956775"
     showgrid="false"
     id="namedview12"
     inkscape:window-height="900"
     inkscape:window-width="1440"
     inkscape:pageshadow="2"
     inkscape:pageopacity="0"
     guidetolerance="10"
     gridtolerance="10"
     objecttolerance="10"
     borderopacity="1"
     bordercolor="#666666"
     pagecolor="#ffffff" /><g
     transform="matrix(1.3333333,0,0,-1.3333333,-137.72533,806.48931)"
     inkscape:label="Logo Unione Sportiva Cremonese"
     inkscape:groupmode="layer"
     id="g18"><g
       id="g270"><path
         d="m 160.77189,359.6371 c 0,113.96301 92.3855,206.34581 206.34851,206.34581 113.95896,0 206.34581,-92.3828 206.34581,-206.34581 0,-113.9603 -92.38685,-206.3458 -206.34581,-206.3458 -113.96301,0 -206.34851,92.3855 -206.34851,206.3458"
         style="fill:#ed1c24;fill-opacity:1;fill-rule:nonzero;stroke:none;stroke-width:1.3507"
         id="path28" /><path
         d="m 367.1204,534.37642 c -96.35252,0 -174.74202,-78.3868 -174.74202,-174.73932 0,-96.35252 78.3895,-174.73931 174.74202,-174.73931 96.34982,0 174.73797,78.38679 174.73797,174.73931 0,96.35252 -78.38815,174.73932 -174.73797,174.73932"
         style="fill:#808285;fill-opacity:1;fill-rule:nonzero;stroke:none;stroke-width:1.3507"
         id="path30"
         sodipodi:nodetypes="csssc" /><path
         d="m 223.98487,359.6371 c 0,-78.92302 64.21115,-143.13282 143.13553,-143.13282 78.92303,0 143.13148,64.2098 143.13148,143.13282 0,78.92438 -64.20845,143.13283 -143.13148,143.13283 -78.92438,0 -143.13553,-64.20845 -143.13553,-143.13283"
         style="fill:#cf9c51;fill-opacity:1;fill-rule:nonzero;stroke:none;stroke-width:1.3507"
         id="path32" /></g><g
       id="g162" /><g
       id="g237"><path
         d="M 367.1204,604.867 V 336.72915 c 30.55159,23.52793 56.71744,40.03489 56.71744,124.31886 0,34.06478 18.96389,44.34769 30.72448,44.34769 v 47.87978 c -27.56383,0 -50.84998,22.25691 -50.84998,51.59152"
         style="fill:#0a4a9b;fill-opacity:1;fill-rule:nonzero;stroke:none;stroke-width:1.3507"
         id="path34" /><path
         id="path186"
         style="fill:#ed1c24;fill-opacity:1;fill-rule:nonzero;stroke:none;stroke-width:1.3507"
         d="m 330.52643,604.867 c 0,-17.01078 -7.83935,-31.63026 -19.79444,-40.92041 -8.66206,-6.73191 -19.47509,-10.67139 -31.05469,-10.67139 v -47.87989 c 10.10327,0 25.51597,-7.60677 29.65723,-31.35351 0.6794,-3.89138 1.06641,-8.19951 1.06641,-12.99316 0,-11.51747 0.50411,-21.72847 1.42529,-30.90381 1.96933,-19.62034 5.91309,-34.34572 11.29834,-46.00635 10.53145,-22.7999 26.54131,-33.96881 43.99512,-47.40967 V 604.867 Z"
         sodipodi:nodetypes="cccccsccccc" /><g
         id="g198"><path
           id="path193"
           d="m 310.40026,461.04801 c 0,-11.51746 0.50516,-21.72743 1.42634,-30.90277 h 55.2938 v 43.89655 h -57.78585 c 0.6794,-3.89138 1.06571,-8.20012 1.06571,-12.99378"
           style="fill:#ffffff;fill-opacity:1;fill-rule:nonzero;stroke:none;stroke-width:1.3507" /><path
           id="path191"
           d="m 367.1204,336.72915 v 47.40974 h -43.99651 c 10.53145,-22.7999 26.5427,-33.96888 43.99651,-47.40974"
           style="fill:#ffffff;fill-opacity:1;fill-rule:nonzero;stroke:none;stroke-width:1.3507" /><path
           id="path38"
           d="m 310.73253,563.94605 c -8.66207,-6.73191 -19.47581,-10.67057 -31.0554,-10.67057 v -33.22733 h 87.44327 v 43.8979 z"
           style="fill:#ffffff;fill-opacity:1;fill-rule:nonzero;stroke:none;stroke-width:1.3507" /></g><g
         id="g141"><path
           id="path40"
           style="fill:#cf9c51;fill-opacity:1;fill-rule:nonzero;stroke:none;stroke-width:1.3507"
           d="m 388.71952,573.67788 c -11.79301,0 -15.80325,-11.19599 -15.80325,-21.32088 0,-14.98607 7.72738,-32.3102 7.72738,-32.3102 v -3.162 h -2.0193 v -2.08819 h -2.37589 v -7.97321 h 2.37589 c -2.71627,-6.6117 -2.03686,-70.07727 -2.03686,-70.07727 0,0 -4.58159,-4.75853 -4.58159,-12.38731 0,-10.00332 8.31494,-17.81579 19.17595,-17.81579 13.57323,0 20.19169,7.30191 20.19169,19.1773 0,8.65802 -1.69784,12.04829 -8.1461,15.27242 0,0 -0.33768,60.74659 -3.56316,65.83065 h 2.03551 v 7.64093 l -2.2057,0.8469 v 3.5645 c 0,0 6.95613,10.35181 6.95613,29.69255 0,17.81984 -7.97321,25.1096 -17.7307,25.1096" /><g
           id="g127"><path
             style="fill:#ffffff;fill-opacity:1;fill-rule:nonzero;stroke:none;stroke-width:1.3507"
             d="m 377.9463,543.98939 c 0,1.18727 2.03686,0 2.03686,0 0,0 2.54203,-3.732 7.29381,-3.732 7.46669,0 10.52063,2.71357 13.91496,6.10654 0.47679,-10.15055 -2.05443,-20.35512 -5.43119,-29.01314 h -2.37454 c 0,0 0.16884,7.46534 4.07238,18.15482 -0.12157,1.37097 -2.12061,1.27372 -3.39297,0 -3.0553,-5.76886 -3.39432,-18.32636 -3.39432,-18.32636 h -6.27943 c 0,9.67375 -6.44556,20.87244 -6.44556,26.81014"
             id="path107" /><path
             style="fill:#ffffff;fill-opacity:1;fill-rule:nonzero;stroke:none;stroke-width:1.3507"
             d="m 380.65986,512.43017 v -3.90218 c 4.92197,0 6.61711,-1.35881 11.54042,-1.35881 2.88106,0 5.42714,1.18727 5.42714,1.18727 v 4.24256 c 0,0 -2.37319,1.18862 -5.42714,1.18862 -3.05664,0 -4.41275,-1.35746 -7.29785,-1.35746 z"
             id="path42" /><path
             style="fill:#ed1c24;fill-opacity:1;fill-rule:nonzero;stroke:none;stroke-width:1.3507"
             d="m 399.32525,480.1902 v -17.98463 l -18.49385,27.31935 c 0,0 -0.42547,11.45263 0.67806,12.55615 3.64825,-1.44255 17.81579,-21.89087 17.81579,-21.89087"
             id="path99" /><path
             style="fill:#ed1c24;fill-opacity:1;fill-rule:nonzero;stroke:none;stroke-width:1.3507"
             d="m 381.50946,442.69329 c -0.76315,-0.7645 0,-10.01143 0,-10.01143 l 5.76751,-4.24256 h 5.93769 v 4.24256 c 0,0 -5.93769,8.48378 -11.7052,10.01143"
             id="path44" /><path
             style="fill:#808285;fill-opacity:1;fill-rule:nonzero;stroke:none;stroke-width:1.3507"
             d="m 399.32525,453.04239 v -15.10088 c 0,0 -14.16889,15.01713 -18.49385,20.87109 0,1.52764 -1.10352,16.54208 0,17.6456 6.49284,-7.12902 18.49385,-23.41581 18.49385,-23.41581"
             id="path103" /><path
             style="fill:#808285;fill-opacity:1;fill-rule:nonzero;stroke:none;stroke-width:1.3507"
             d="m 390.50245,504.11523 6.78594,-8.31223 v 7.97321 z"
             id="path46" /><path
             style="fill:#ffffff;fill-opacity:1;fill-rule:nonzero;stroke:none;stroke-width:1.3507"
             d="m 380.49102,423.85771 c 0,-2.54473 2.37454,-5.59867 2.37454,-5.59867 0,0 0,-2.88511 -1.3561,-2.88511 -3.0553,0 -5.261,4.07238 -5.261,9.33202 0,2.20841 1.18862,6.44962 2.54473,6.44962 1.35611,0 1.69783,-2.03822 1.69783,-7.29786"
             id="path115" /><path
             style="fill:#ffffff;fill-opacity:1;fill-rule:nonzero;stroke:none;stroke-width:1.3507"
             d="m 386.26124,426.2336 c -1.01979,0 -2.20706,-2.20435 -2.20706,-3.73335 0,-3.90218 3.05395,-10.51929 4.58159,-10.51929 1.5263,0 2.96885,1.52765 2.96885,2.9702 -3.94541,5.38661 -2.46098,11.28244 -5.34338,11.28244"
             id="path113" /><path
             style="fill:#ffffff;fill-opacity:1;fill-rule:nonzero;stroke:none;stroke-width:1.3507"
             d="m 393.21466,426.2336 c -1.69378,-4.07237 1.35881,-12.38596 4.58294,-12.38596 1.69649,0 3.56316,1.69378 3.56316,3.56181 -6.10788,4.4114 -1.52764,8.82415 -8.1461,8.82415"
             id="path111" /><path
             style="fill:#ffffff;fill-opacity:1;fill-rule:nonzero;stroke:none;stroke-width:1.3507"
             d="m 399.66428,429.28889 c 0,-2.54607 2.88645,-9.33337 5.59867,-9.33337 1.52765,0 2.71492,2.71627 2.71492,6.27808 0,1.5263 -3.73065,5.00571 -5.00437,5.00571 -1.27371,0 -3.30922,-1.10082 -3.30922,-1.95042"
             id="path48" /></g></g></g><g
       id="g260"><g
         id="g245"><path
           id="path50"
           style="fill:#000000;fill-opacity:1;fill-rule:nonzero;stroke:none;stroke-width:1.3507"
           d="m 103.294,453.6394 v -41.46393 c 0,-114.57894 81.97967,-167.43471 162.68968,-167.43471 V 453.6394 H 223.88627 V 289.05198 c -44.9447,19.03548 -78.17879,53.17454 -78.17879,164.58742 z" /><path
           id="path52"
           style="fill:#ffffff;fill-opacity:1;fill-rule:nonzero;stroke:none;stroke-width:1.3507"
           d="M 230.20757,447.3181 V 279.50925 l -8.78634,3.72119 C 179.58315,300.94898 140.84089,333.2781 139.45237,447.3181 H 109.6153 v -35.14263 c 0,-108.2833 74.34143,-158.35392 150.04708,-160.9851 V 447.3181 Z" /></g><g
         id="g241"><path
           id="path54"
           style="fill:#000000;fill-opacity:1;fill-rule:nonzero;stroke:none;stroke-width:1.3507"
           d="m 463.59178,453.6394 v -36.52576 c 0,-125.17926 86.1439,-172.37288 164.70223,-172.37288 v 35.41683 c -73.51075,0 -120.2816,51.82248 -120.2816,131.23447 h 77.73035 v -50.47449 h 42.55125 v 92.72183 z" /><path
           id="path56"
           style="fill:#ffffff;fill-opacity:1;fill-rule:nonzero;stroke:none;stroke-width:1.3507"
           d="m 469.91308,447.3181 v -30.20446 c 0,-119.04436 80.48984,-163.47984 152.06099,-165.93407 v 22.93902 c -73.25547,2.92157 -120.28431,56.05424 -120.28431,137.27347 v 6.32265 h 90.37295 v -50.47584 h 29.91136 v 80.07923 z" /></g><g
         id="g249"><path
           id="path58"
           style="fill:#000000;fill-opacity:1;fill-rule:nonzero;stroke:none;stroke-width:1.3507"
           d="m 436.317,323.12485 c 0,0 -28.52553,1.21429 -42.18116,1.21429 -9.91417,0 -26.50758,0.34983 -40.75346,-4.33306 -20.20249,-6.64277 -37.23893,-26.31443 -37.23893,-49.07651 0,-53.1016 91.0402,-67.66895 91.0402,-100.75041 0,-15.77488 -14.86991,-26.40088 -34.29169,-26.40088 h -56.74851 v -35.76126 h 69.49376 c 22.15291,0 65.85361,22.10969 65.85361,64.28815 0,30.34898 -20.20114,46.17249 -40.93986,60.05773 -24.47207,16.3881 -50.10169,27.52601 -50.10169,40.99524 0,12.14148 7.89081,16.38675 50.37723,16.38675 6.37128,0 25.4905,-0.30391 25.4905,-0.30391 z" /><path
           id="path60"
           style="fill:#ffffff;fill-opacity:1;fill-rule:nonzero;stroke:none;stroke-width:1.3507"
           d="m 355.35846,314.00084 c -16.34623,-5.37445 -32.89236,-21.89492 -32.89236,-43.07127 0,-26.1591 25.6877,-42.09741 50.53257,-57.51165 20.83056,-12.9222 40.50628,-25.12851 40.50628,-43.23876 0,-18.95985 -17.08236,-32.72218 -40.61299,-32.72218 H 322.4661 v -23.11866 h 63.17111 c 20.20519,0 59.53096,20.46183 59.53096,57.96685 0,27.03435 -18.03731,41.34912 -38.1331,54.80484 -5.98632,4.00889 -12.02667,7.68821 -17.86982,11.24597 -19.57441,11.92267 -35.03728,21.33708 -35.03728,35.00216 0,19.55145 16.71362,22.70805 56.69853,22.70805 0,0 11.96319,-0.14183 19.1692,-0.22827 v 21.21417 c -9.09969,0.35253 -26.28201,0.96575 -35.85986,0.96575 l -1.95041,0.001 c -9.73318,0.0216 -24.44236,0.054 -36.82697,-4.01835" /></g></g></g></svg>
