<?xml version="1.0" encoding="UTF-8" standalone="no"?>
<svg
   xmlns:dc="http://purl.org/dc/elements/1.1/"
   xmlns:cc="http://creativecommons.org/ns#"
   xmlns:rdf="http://www.w3.org/1999/02/22-rdf-syntax-ns#"
   xmlns:svg="http://www.w3.org/2000/svg"
   xmlns="http://www.w3.org/2000/svg"
   xmlns:sodipodi="http://sodipodi.sourceforge.net/DTD/sodipodi-0.dtd"
   xmlns:inkscape="http://www.inkscape.org/namespaces/inkscape"
   id="Layer_1"
   viewBox="0 0 700 467.5"
   version="1.1"
   inkscape:version="0.91 r13725"
   sodipodi:docname="Logo Derby County 2012.svg"
   width="700"
   height="467.5">
  <metadata
     id="metadata13">
    <rdf:RDF>
      <cc:Work
         rdf:about="">
        <dc:format>image/svg+xml</dc:format>
        <dc:type
           rdf:resource="http://purl.org/dc/dcmitype/StillImage" />
        <dc:title></dc:title>
      </cc:Work>
    </rdf:RDF>
  </metadata>
  <defs
     id="defs11" />
  <sodipodi:namedview
     pagecolor="#ffffff"
     bordercolor="#666666"
     borderopacity="1"
     objecttolerance="10"
     gridtolerance="10"
     guidetolerance="10"
     inkscape:pageopacity="0"
     inkscape:pageshadow="2"
     inkscape:window-width="1440"
     inkscape:window-height="788"
     id="namedview9"
     showgrid="false"
     inkscape:zoom="0.53919368"
     inkscape:cx="30.12078"
     inkscape:cy="33.5"
     inkscape:window-x="0"
     inkscape:window-y="1"
     inkscape:window-maximized="1"
     inkscape:current-layer="Layer_1" />
  <style
     id="style3">.st0{fill:#fff}</style>
  <g
     id="g4141"
     transform="matrix(6.9444444,0,0,6.9444444,0,0.13889)">
    <path
       style="fill:#1a1a1a"
       id="path5"
       d="m 2.1,29 c 0,0 4,-0.2 4,-3.9 C 6.1,20.2 0,20 0,13.4 0,8.5 5.4,7.2 5.4,7.2 c 0.1,0 0.1,0 0.1,0.1 0,0 0,0.1 -0.1,0.1 0,0 -3.7,1.1 -3.7,5.6 0,4.9 5.7,6.1 5.9,11 0.1,5 -3.5,5.5 -4.3,5.5 C 2.5,29.5 2.1,29.3 2.1,29.3 2,29.2 2,29.1 2,29.1 2,29 2.1,29 2.1,29 Z M 87,62.1 c 1.1,-1.1 1.6,-1.9 1.9,-2.3 l 0,-0.2 c -0.6,-1.6 -1.3,-3.2 -2.1,-4.4 -1.5,-1.1 -3,-2.1 -4.6,-2.9 l -0.1,0 c -0.1,0 -0.1,0 -0.1,0.1 l 0,0.1 c 0.1,0.1 0.2,0.3 0.3,0.5 0.4,0.5 0.9,1.3 1.5,2.3 1,1.7 2.1,4.2 2.9,6.8 0.1,0 0.2,0.1 0.3,0 -0.1,0.1 0,0 0,0 z"
       class="st0"
       inkscape:connector-curvature="0" />
    <path
       style="fill:#1a1a1a"
       id="path7"
       d="m 99.3,40.4 c 0,0 -0.1,-0.1 -0.1,-0.2 -0.1,-0.1 -0.2,-0.3 -0.4,-0.5 -0.4,-0.4 -0.9,-1.1 -1.4,-1.8 -1.1,-1.5 -2.5,-3.5 -3.6,-5.4 -1.7,-2.9 -3.4,-6.7 -4.2,-8.3 1.7,-1.7 2.5,-3 2.6,-3.2 l 0,-0.1 c 0,-0.1 0,-0.1 -0.1,-0.1 l -0.5,-0.6 c -2,-2.7 -3.4,-5.2 -4.1,-6.4 l -0.3,-0.6 c 0,-0.1 -0.1,-0.1 -0.2,-0.1 l -0.7,0 C 83,13.1 73.7,12.9 62.4,11.7 49.8,10.3 39.6,7.7 37.6,7.1 37.4,6.8 37.2,6.4 36.9,6.1 35.7,6 34.6,5.7 33.9,5.3 c 3.4,3.6 5.3,9 5.3,14.3 0,2.1 -0.3,4.2 -1,6.4 -0.9,3.2 -2.7,5.8 -5,7.8 -1.2,1 -2.6,1.9 -4.1,2.4 -1.6,-3.3 -3.2,-6 -4.3,-7.8 0.7,-0.1 1.5,-0.2 2.5,-0.5 1.9,-0.5 4.2,-1.5 6.1,-3.5 1.3,-1.3 2.4,-3.1 3.1,-5.3 0.4,-1.3 0.6,-2.5 0.6,-3.8 C 37.1,11.7 35.5,8.5 33.2,6 30.9,3.5 27.9,1.7 24.6,0.7 23.1,0.2 21.4,0 19.7,0 16.6,0 13.3,0.7 10.6,2.4 7.9,4 5.6,6.7 5,10.2 c -0.2,1.2 -0.3,2.2 -0.3,3.2 0,1.4 0.2,2.7 0.7,3.8 0.5,1.1 1.2,2 2.2,2.6 0.6,0.3 1.2,0.5 1.9,0.6 l 0,0.2 c 0,0.2 0.1,0.6 0.2,1 0.1,0.6 0.2,1.4 0.2,2.1 0,0.6 -0.1,1.3 -0.1,1.8 0,0.3 -0.1,0.6 -0.1,0.7 l -0.8,0 C 8,26.2 7,26.6 7,26.6 c 0,0 2.8,1.7 6,4.8 2.8,2.7 3.8,4.8 4.1,5.2 0,0.1 0.1,0.1 0.1,0.1 0.3,0 1.3,-0.1 2.6,0 1.2,0.1 2.2,0.4 2.5,0.5 0,0 0.1,0 0.1,-0.1 0,-0.3 0.1,-1.3 -0.2,-2.1 -0.6,-1.6 -1.8,-1.9 -2.1,-1.9 0,0 -0.1,0 -0.1,0.1 l -0.1,1.1 c 0,0 0,0.1 0.1,0.1 0.2,0 0.6,0 1.1,0.3 0.8,0.4 0.7,1.2 0.7,1.2 0,0 -0.8,-0.3 -2,-0.5 -1.2,-0.2 -2.2,-0.1 -2.2,-0.1 0,0 -0.9,-1.9 -2.8,-4.5 -1.6,-2.2 -3.2,-3.9 -3.6,-4.3 0,-0.1 0.1,-0.4 0.2,-0.9 l 0,-0.2 c 0.7,-0.4 1.2,-1.1 1.2,-1.8 0,-0.7 -0.5,-1.3 -1.2,-1.8 0,-0.2 -0.1,-0.4 -0.1,-0.6 -0.1,-0.5 -0.2,-0.9 -0.2,-1.1 0.4,-0.1 0.8,-0.3 1.2,-0.6 0.7,-0.5 1.2,-1.2 1.6,-1.8 0.7,-1.3 1.3,-2.7 2.1,-4.5 0.6,-1.5 1.4,-2.6 2.3,-3.2 0.9,-0.6 2.2,-1 3.4,-1 1,0 2,0.2 3,0.7 1.4,0.6 2,1.4 2.5,2.2 0.5,0.8 0.6,1.8 0.6,2.7 0,0.6 -0.1,1.1 -0.2,1.5 -0.1,0.2 -0.1,0.4 -0.2,0.6 -0.9,-2.1 -2.9,-3.6 -5.5,-3.6 -3.7,0 -6.5,2.5 -6.5,6.6 0,3.7 2.9,6.1 3.5,6.6 l 0.2,0 c 0.1,0 0.3,-0.1 0.4,-0.1 C 20,26 20.6,25.8 21,25.5 l 0.1,-0.1 0,-0.1 c -0.6,-0.5 -3,-3 -3,-5.6 0,-3.3 2.4,-4.3 4,-4.3 1.5,0 3.9,1.1 3.9,4.2 0,3 -2.9,6 -6,7.1 -3.1,1.1 -6.4,0.6 -6.4,0.6 -0.1,0 -0.1,0 -0.1,0.1 0,0 0,0.1 0.1,0.1 0,0 2.7,1.4 7.3,0.2 0.3,-0.1 0.5,-0.2 0.8,-0.2 0,0.7 -0.1,2.2 0.3,4.2 0.4,2.3 1.3,4.2 1.5,4.4 l 0.2,0 0.8,-1.2 0,-0.2 c -0.2,-0.5 -0.7,-2.3 -0.8,-4.4 0.2,0.3 0.4,0.7 0.7,1.1 0.8,1.4 1.8,3.2 2.9,5.2 -0.3,0 -0.6,0.1 -0.9,0.1 0.4,0.7 0.7,1.4 1.1,2.2 0.3,0 0.6,-0.1 0.9,-0.1 0.5,1 1,2.1 1.5,3.3 3,7.1 4.5,12.8 4.7,13.4 l 0,0.1 0.3,1.2 c 0,0.1 0.1,0.2 0.2,0.2 l 0.1,0 1.1,-0.4 c 0.9,-0.3 1.8,-0.5 2.8,-0.5 1.2,0 2.4,0.3 3.6,0.8 1.4,0.7 2.5,1.7 3.2,3.1 0.7,1.4 1.1,3.1 1.1,5 0,0.5 0,1.1 -0.1,1.6 0,0.1 0.1,0.1 0.1,0.1 l 0.1,0 c 1.5,-0.8 2.1,-1.3 2.4,-1.6 0,0 0.1,-0.1 0.1,-0.2 l 0,-0.1 c 0,-2.2 -0.4,-4.4 -1.4,-6.2 -0.9,-1.8 -2.4,-3.4 -4.4,-4.3 -1.5,-0.7 -3.1,-1.1 -4.7,-1.1 -0.8,0 -1.5,0.1 -2.3,0.2 -0.6,-2.2 -2.1,-6.9 -4.5,-12.6 -0.4,-1 -0.9,-2 -1.3,-3 1.7,-0.7 3.2,-1.6 4.5,-2.8 2.7,-2.3 4.7,-5.5 5.6,-9.1 0.6,-2.3 0.9,-4.7 0.9,-7 0,-3.1 -0.7,-6.2 -1.9,-9 3.7,0.9 12.2,2.9 22.9,4 10.7,1.1 19.5,1.4 23.4,1.4 0.7,1.3 1.8,3.1 3.3,5.3 -0.4,0.5 -1,1.2 -2,2.1 l -0.5,0.5 c 0,0 -0.1,0.1 -0.1,0.2 l 0,0.1 0.3,0.7 c 0,0 2.4,5.4 4.7,9.3 1.7,3 4.1,6 5.2,7.5 -0.4,0.5 -0.8,1.2 -1.3,2 -1,1.8 -2,4.3 -2,7.3 0,2.4 0.3,4.7 0.6,6.7 -1.2,-1.4 -2.7,-2.7 -4.4,-4.1 -7.7,-5.9 -16.8,-8.6 -26.1,-8.6 -3.5,0 -6.5,0.5 -8.9,1.2 -2.4,0.8 -4.3,1.8 -5.5,2.9 -0.8,0.8 -1.4,1.6 -1.7,2.6 -0.1,0.5 -0.2,1 -0.2,1.5 0,1.4 0.4,2.7 0.9,4 0.5,1.3 1.1,2.6 1.5,4.1 0.9,3.1 1.3,5.8 1.5,6.6 0,0.1 0.1,0.1 0.1,0.1 l 0.1,0 c 1.1,-0.7 1.8,-1.2 2.1,-1.5 0,0 0.1,-0.1 0.1,-0.2 -0.2,-1.3 -0.7,-3.4 -1.3,-5.6 -0.5,-1.7 -1.1,-3.1 -1.6,-4.3 -0.5,-1.2 -0.8,-2.2 -0.8,-3 0,-0.3 0,-0.6 0.1,-0.9 0.1,-0.3 0.4,-0.8 0.9,-1.3 0.6,-0.5 1.5,-1.1 2.6,-1.6 2.3,-1 5.7,-1.8 10.1,-1.8 8.8,0 17.4,2.5 24.5,8 4.6,3.5 7,7.4 8.2,9.7 0.6,1.1 0.8,1.7 1,2 l 0.1,0.1 0.1,0 c 1.1,-1.1 1.5,-1.7 1.7,-2.1 l 0,-0.2 c -0.1,-0.3 -0.2,-0.4 -0.3,-0.8 -0.3,-0.7 -0.6,-1.5 -0.9,-2.4 -0.9,-2.8 -1.8,-6.7 -1.8,-10.9 0,-2.3 0.8,-4.3 1.6,-5.8 0.8,-1.5 1.7,-2.5 1.7,-2.5 l 0.8,-0.8 -1.5,-1 z M 12.1,23.8 c -0.1,1.2 -1.4,1.3 -1.6,1.3 0,-0.2 0,-0.4 0.1,-0.6 0.3,0 0.9,-0.1 0.9,-0.8 0,-0.7 -0.7,-1 -1,-1.1 0,-0.2 -0.1,-0.4 -0.1,-0.6 0.2,0 1.8,0.4 1.7,1.8 z m 15.7,-4.1 c 0.1,-0.2 0.2,-0.3 0.3,-0.4 0.4,-0.5 0.9,-1.4 1.3,-2.5 0.2,-0.6 0.3,-1.4 0.3,-2.2 0,-1.1 -0.2,-2.5 -0.9,-3.7 C 28.1,9.8 27.1,8.6 25.4,7.8 24.1,7.2 22.8,6.9 21.5,6.9 c -1.6,0 -3.3,0.5 -4.6,1.4 -1.3,0.9 -2.3,2.4 -3,4.2 -0.7,1.8 -1.3,3.1 -1.9,4.2 -0.3,0.5 -0.6,0.9 -1,1.2 -0.3,0.3 -0.8,0.4 -1.3,0.4 C 9.3,18.3 8.9,18.2 8.6,18 8.1,17.7 7.6,17.2 7.3,16.4 7,15.6 6.8,14.7 6.8,13.4 c 0,-0.8 0.1,-1.8 0.3,-2.8 0.5,-2.9 2.3,-5 4.7,-6.4 2.3,-1.4 5.2,-2.1 8,-2.1 1.5,0 3,0.2 4.3,0.6 2.9,0.8 5.6,2.5 7.6,4.7 2,2.2 3.3,4.9 3.3,7.9 0,1 -0.1,2.1 -0.5,3.1 -0.6,1.9 -1.5,3.4 -2.6,4.5 -1.6,1.6 -3.5,2.5 -5.1,3 -1.3,0.4 -2.5,0.5 -3,0.5 2.4,-1.7 4,-4.1 4,-6.7 z"
       class="st0"
       inkscape:connector-curvature="0" />
  </g>
</svg>
