<?xml version="1.0" encoding="UTF-8" standalone="no"?>
<!-- Generator: Adobe Illustrator 15.0.0, SVG Export Plug-In . SVG Version: 6.00 Build 0)  -->

<svg
   version="1.1"
   x="0px"
   y="0px"
   width="497.2308"
   height="700"
   viewBox="0 0 497.23079 699.99999"
   enable-background="new 0 0 273.488 385.014"
   xml:space="preserve"
   id="svg998"
   sodipodi:docname="Logo MSV Duisbourg.svg"
   inkscape:version="1.1.1 (c3084ef, 2021-09-22)"
   xmlns:inkscape="http://www.inkscape.org/namespaces/inkscape"
   xmlns:sodipodi="http://sodipodi.sourceforge.net/DTD/sodipodi-0.dtd"
   xmlns="http://www.w3.org/2000/svg"
   xmlns:svg="http://www.w3.org/2000/svg"><defs
   id="defs1002" /><sodipodi:namedview
   id="namedview1000"
   pagecolor="#ffffff"
   bordercolor="#666666"
   borderopacity="1.0"
   inkscape:pageshadow="2"
   inkscape:pageopacity="0.0"
   inkscape:pagecheckerboard="0"
   showgrid="false"
   inkscape:zoom="1.4441033"
   inkscape:cx="136.76307"
   inkscape:cy="192.507"
   inkscape:window-width="1440"
   inkscape:window-height="900"
   inkscape:window-x="0"
   inkscape:window-y="0"
   inkscape:window-maximized="0"
   inkscape:current-layer="svg998" />



<g
   id="g1865"
   transform="matrix(1.8181015,0,0,1.8181015,3.1232397e-5,0)"><g
     id="g1597"><circle
       fill="#ffffff"
       cx="182.306"
       cy="293.83401"
       r="91.182999"
       id="circle833" /><circle
       fill="#0064b0"
       cx="182.17599"
       cy="294.01001"
       r="88.444"
       id="circle841"
       style="fill:#3c4e99;fill-opacity:1" /><path
       fill="#ffffff"
       d="m 241.378,265.071 c 11.022,20.492 8.695,50.107 -6.026,68.363 -17.393,22.899 -46.063,31.424 -73.099,23.589 -23.764,-6.198 -43.91,-30.995 -46.064,-55.188 -3.012,-27.722 11.106,-53.638 35.732,-66.122 19.976,-10.934 49.248,-8.611 67.589,4.305 9.213,6.112 16.96,15.496 21.868,25.053 z"
       id="path847" /></g><g
     id="g1592"><path
       fill="#0064b0"
       d="m 202.29,245.011 c -2.67,3.187 -6.457,5.682 -9.644,8.437 -3.529,-2.841 -6.802,-8.608 -11.798,-8.005 -1.636,0.945 -1.978,2.755 -1.461,4.304 8.867,15.755 34.01,29.444 20.493,49.852 -5.514,7.317 -13.95,10.675 -22.992,9.04 -6.112,-1.291 -12.483,-5.94 -15.066,-11.796 -2.755,-5.253 -2.755,-13.174 -0.172,-18.599 l 12.398,6.028 c -0.086,2.326 -0.261,5.165 1.377,7.06 1.463,1.637 3.187,2.669 5.166,2.841 2.325,0.173 4.131,-0.772 5.596,-2.496 1.638,-1.81 1.722,-4.821 1.034,-7.232 -6.284,-9.815 -14.638,-18.855 -21.095,-28.669 -2.322,-5.168 -2.065,-12.056 1.465,-16.532 4.132,-5.51 10.245,-7.403 16.96,-6.457 7.061,1.29 12.573,6.8 17.739,12.224 z"
       id="path849"
       style="fill:#3c4e99;fill-opacity:1" /><path
       fill="#0064b0"
       d="m 222.178,248.713 c 16.792,15.065 24.022,35.988 19.632,58.459 -2.67,11.106 -7.922,21.354 -16.534,29.792 -4.044,-1.293 -7.745,-3.188 -11.618,-4.737 14.377,-13.602 20.919,-33.577 14.463,-52.691 -1.982,-5.422 -4.822,-10.505 -8.61,-15.067 h -1.033 l -15.5,7.579 -0.323,0.168 -7.94,-10.242 c 9.124,-4.48 17.991,-9.472 27.463,-13.261 z"
       id="path851"
       style="fill:#3c4e99;fill-opacity:1" /><path
       fill="#0064b0"
       d="m 163.458,259.474 c 5.684,7.319 11.278,14.64 16.962,21.869 -11.796,-5.425 -24.022,-11.02 -35.989,-16.875 -2.584,2.154 -4.22,5.511 -5.941,8.437 -8.008,14.897 -6.114,36.681 3.874,50.023 l 8.523,9.473 -11.622,4.992 c -15.499,-14.894 -21.525,-36.591 -16.703,-57.429 3.186,-11.622 8.956,-22.384 19.026,-30.991 z"
       id="path853"
       style="fill:#3c4e99;fill-opacity:1" /><path
       fill="#0064b0"
       d="m 218.046,270.668 c 8.092,11.02 10.074,29.1 3.873,41.669 -6.974,16.532 -24.106,30.136 -39.431,38.056 -21.269,-10.417 -44.858,-30.908 -43.999,-56.993 0.432,-8.353 2.497,-15.93 6.974,-22.561 l 11.622,5.338 c -1.51,2.134 -2.84,4.391 -3.527,6.89 -6.803,17.993 4.562,34.007 17.992,45.803 3.272,2.67 6.806,4.821 10.508,6.457 16.789,-7.922 31.533,-25.271 30.221,-44.685 -0.356,-5.254 -2.411,-10.158 -6.201,-14.205 3.702,-2.152 7.922,-4.048 11.968,-5.769 z"
       id="path855"
       style="fill:#3c4e99;fill-opacity:1" /></g><g
     id="g1828"><g
       id="g1801"><polygon
         fill-rule="evenodd"
         clip-rule="evenodd"
         fill="#ffffff"
         points="130.9,361.479 126.569,357.58 130.671,349.664 123.234,354.578 118.919,350.693 128.407,340.155 131.095,342.575 123.859,350.612 133.18,344.452 135.614,346.644 130.457,356.551 137.692,348.515 140.388,350.942 "
         id="polygon905" /><polygon
         fill-rule="evenodd"
         clip-rule="evenodd"
         fill="#ffffff"
         points="108.885,336.744 111.365,335.008 115.627,341.094 117.473,339.802 113.52,334.155 115.889,332.497 119.842,338.143 122.132,336.539 117.747,330.276 120.377,328.435 127.309,338.333 115.693,346.466 "
         id="polygon907" /><rect
         x="341.19272"
         y="35.739899"
         transform="rotate(63.991002)"
         fill-rule="evenodd"
         clip-rule="evenodd"
         fill="#ffffff"
         width="4.4378757"
         height="14.179603"
         id="rect909"
         style="stroke-width:0.999972" /><path
         fill-rule="evenodd"
         clip-rule="evenodd"
         fill="#ffffff"
         d="m 102.419,323.608 -1.814,-6.324 c -0.357,-1.247 -0.479,-2.301 -0.363,-3.16 0.113,-0.867 0.412,-1.641 0.894,-2.322 0.483,-0.68 1.107,-1.252 1.873,-1.716 0.766,-0.464 1.614,-0.829 2.543,-1.096 1.457,-0.418 2.637,-0.572 3.54,-0.465 0.895,0.102 1.7,0.373 2.417,0.812 0.71,0.441 1.253,0.977 1.628,1.607 0.516,0.863 0.882,1.673 1.1,2.432 l 1.814,6.324 z m 1.866,-5.142 7.448,-2.136 -0.299,-1.042 c -0.255,-0.891 -0.532,-1.495 -0.833,-1.816 -0.306,-0.318 -0.731,-0.516 -1.276,-0.59 -0.55,-0.072 -1.371,0.048 -2.462,0.36 -1.444,0.414 -2.364,0.936 -2.761,1.564 -0.396,0.63 -0.436,1.495 -0.12,2.598 z"
         id="path911" /><polygon
         fill-rule="evenodd"
         clip-rule="evenodd"
         fill="#ffffff"
         points="96.992,294.627 100.008,294.363 100.656,301.764 102.9,301.568 102.3,294.702 105.181,294.45 105.782,301.315 108.566,301.072 107.9,293.456 111.099,293.177 112.153,305.214 98.027,306.45 "
         id="polygon913" /><path
         fill-rule="evenodd"
         clip-rule="evenodd"
         fill="#ffffff"
         d="m 111.143,291.38 -14.042,-1.974 1.027,-7.309 c 0.19,-1.355 0.451,-2.375 0.781,-3.059 0.331,-0.685 0.84,-1.202 1.527,-1.554 0.681,-0.351 1.468,-0.464 2.362,-0.339 0.779,0.109 1.429,0.372 1.95,0.788 0.515,0.414 0.907,0.939 1.175,1.576 0.171,0.406 0.284,0.945 0.339,1.617 0.246,-0.498 0.472,-0.854 0.678,-1.069 0.138,-0.145 0.417,-0.343 0.835,-0.593 0.42,-0.257 0.74,-0.423 0.959,-0.498 l 4.369,-1.547 -0.696,4.956 -4.621,1.739 c -0.597,0.219 -0.995,0.434 -1.194,0.643 -0.261,0.285 -0.42,0.629 -0.477,1.028 l -0.054,0.388 5.699,0.801 z m -7.734,-5.578 0.26,-1.85 c 0.028,-0.2 0.019,-0.597 -0.028,-1.188 -0.017,-0.298 -0.13,-0.555 -0.341,-0.769 -0.21,-0.22 -0.468,-0.352 -0.775,-0.395 -0.453,-0.064 -0.822,0.031 -1.105,0.288 -0.283,0.257 -0.481,0.784 -0.594,1.585 l -0.271,1.927 z"
         id="path915" /><rect
         x="226.41589"
         y="-189.63191"
         transform="rotate(107.00163)"
         fill-rule="evenodd"
         clip-rule="evenodd"
         fill="#ffffff"
         width="4.4380169"
         height="14.180053"
         id="rect917"
         style="stroke-width:1" /><path
         fill-rule="evenodd"
         clip-rule="evenodd"
         fill="#ffffff"
         d="m 114.959,257.999 2.745,-2.979 c 0.854,0.706 1.482,1.469 1.886,2.289 0.403,0.821 0.587,1.687 0.552,2.598 -0.032,0.904 -0.33,1.935 -0.893,3.088 -0.683,1.4 -1.441,2.448 -2.275,3.144 -0.837,0.687 -1.92,1.104 -3.249,1.254 -1.328,0.15 -2.784,-0.161 -4.366,-0.933 -2.109,-1.029 -3.454,-2.384 -4.033,-4.066 -0.582,-1.69 -0.367,-3.572 0.645,-5.646 0.791,-1.622 1.737,-2.737 2.837,-3.347 1.104,-0.615 2.438,-0.82 4.002,-0.615 l -0.94,3.892 c -0.449,-0.066 -0.795,-0.075 -1.041,-0.028 -0.41,0.075 -0.774,0.235 -1.094,0.478 -0.319,0.243 -0.576,0.564 -0.771,0.963 -0.44,0.902 -0.417,1.768 0.067,2.599 0.356,0.624 1.105,1.214 2.247,1.771 1.415,0.689 2.491,0.946 3.229,0.77 0.733,-0.178 1.291,-0.66 1.674,-1.445 0.372,-0.762 0.44,-1.438 0.206,-2.031 -0.232,-0.604 -0.708,-1.187 -1.428,-1.756 z"
         id="path919" /><polygon
         fill-rule="evenodd"
         clip-rule="evenodd"
         fill="#ffffff"
         points="114.627,243.37 118.428,246.56 121.539,242.853 117.737,239.664 120.596,236.256 131.459,245.37 128.6,248.778 124.206,245.092 121.096,248.798 125.49,252.484 122.644,255.878 111.78,246.763 "
         id="polygon921" /><polygon
         fill-rule="evenodd"
         clip-rule="evenodd"
         fill="#ffffff"
         points="133.603,225.282 135.508,227.635 129.734,232.311 131.152,234.062 136.509,229.726 138.329,231.973 132.973,236.31 134.732,238.481 140.673,233.671 142.693,236.167 133.304,243.771 124.379,232.751 "
         id="polygon923" /><path
         fill-rule="evenodd"
         clip-rule="evenodd"
         fill="#ffffff"
         d="m 144.256,235.37 -6.216,-12.744 6.634,-3.236 c 1.23,-0.6 2.221,-0.953 2.973,-1.062 0.752,-0.107 1.466,0.024 2.142,0.398 0.672,0.368 1.206,0.958 1.602,1.769 0.346,0.707 0.491,1.394 0.438,2.058 -0.057,0.658 -0.272,1.277 -0.649,1.855 -0.241,0.369 -0.625,0.765 -1.152,1.186 0.551,-0.075 0.974,-0.087 1.267,-0.036 0.196,0.033 0.517,0.153 0.959,0.361 0.448,0.204 0.764,0.377 0.948,0.517 l 3.727,2.756 -4.499,2.194 -4.026,-2.857 c -0.516,-0.373 -0.915,-0.584 -1.199,-0.631 -0.384,-0.058 -0.756,0.003 -1.119,0.18 l -0.352,0.171 2.523,5.173 z m 0.301,-9.531 1.678,-0.817 c 0.183,-0.089 0.505,-0.318 0.97,-0.688 0.238,-0.181 0.388,-0.418 0.446,-0.713 0.065,-0.297 0.03,-0.585 -0.105,-0.863 -0.2,-0.411 -0.486,-0.662 -0.857,-0.754 -0.371,-0.093 -0.92,0.039 -1.646,0.394 l -1.749,0.853 z"
         id="path925" /><path
         fill-rule="evenodd"
         clip-rule="evenodd"
         fill="#ffffff"
         d="m 165.308,221.96 4.15,-0.772 c 0.172,0.66 0.42,1.15 0.741,1.468 0.522,0.514 1.204,0.72 2.046,0.616 0.627,-0.077 1.091,-0.28 1.393,-0.609 0.306,-0.336 0.436,-0.696 0.389,-1.081 -0.045,-0.364 -0.247,-0.671 -0.605,-0.92 -0.358,-0.247 -1.143,-0.427 -2.352,-0.539 -1.98,-0.192 -3.424,-0.593 -4.334,-1.203 -0.914,-0.608 -1.439,-1.463 -1.574,-2.563 -0.09,-0.724 0.036,-1.431 0.379,-2.122 0.348,-0.699 0.923,-1.282 1.725,-1.752 0.809,-0.476 1.953,-0.805 3.436,-0.987 1.817,-0.223 3.242,-0.057 4.275,0.499 1.039,0.548 1.739,1.54 2.1,2.977 l -4.113,0.75 c -0.188,-0.621 -0.478,-1.053 -0.869,-1.298 -0.384,-0.245 -0.887,-0.329 -1.508,-0.253 -0.512,0.062 -0.883,0.219 -1.114,0.469 -0.233,0.242 -0.331,0.518 -0.293,0.825 0.027,0.224 0.159,0.412 0.395,0.565 0.229,0.16 0.742,0.272 1.538,0.337 1.972,0.174 3.397,0.421 4.277,0.741 0.886,0.314 1.554,0.758 2.005,1.333 0.458,0.574 0.734,1.245 0.829,2.013 0.111,0.903 -0.039,1.766 -0.45,2.59 -0.411,0.823 -1.046,1.488 -1.901,1.997 -0.858,0.501 -1.977,0.836 -3.354,1.005 -2.42,0.298 -4.151,0.043 -5.196,-0.765 -1.048,-0.808 -1.719,-1.915 -2.015,-3.321 z"
         id="path927" /><polygon
         fill-rule="evenodd"
         clip-rule="evenodd"
         fill="#ffffff"
         points="184.532,225.329 180.118,210.808 184.741,211.131 187.247,221.535 191.128,211.577 195.614,211.892 189.321,225.664 "
         id="polygon929" /><path
         fill-rule="evenodd"
         clip-rule="evenodd"
         fill="#ffffff"
         d="m 204.055,221.396 c 0.966,-2.517 2.098,-4.103 3.396,-4.757 1.304,-0.653 2.894,-0.62 4.769,0.1 0.9,0.346 1.596,0.741 2.089,1.186 0.495,0.438 0.856,0.905 1.085,1.401 0.231,0.488 0.375,0.969 0.432,1.439 0.065,0.467 0.062,0.984 -0.008,1.551 -0.13,1.083 -0.4,2.16 -0.812,3.231 -0.922,2.402 -2.007,4.003 -3.256,4.801 -1.249,0.799 -2.878,0.812 -4.886,0.041 -1.126,-0.433 -1.967,-0.959 -2.524,-1.58 -0.557,-0.621 -0.927,-1.36 -1.106,-2.217 -0.136,-0.611 -0.133,-1.374 0.008,-2.287 0.149,-0.916 0.419,-1.887 0.813,-2.909 z m 3.683,1.423 c -0.646,1.687 -0.94,2.896 -0.88,3.631 0.067,0.73 0.388,1.205 0.96,1.425 0.378,0.146 0.753,0.141 1.126,-0.013 0.381,-0.158 0.744,-0.495 1.09,-1.012 0.351,-0.515 0.757,-1.371 1.216,-2.568 0.676,-1.758 0.976,-2.997 0.903,-3.715 -0.065,-0.723 -0.398,-1.199 -1.002,-1.432 -0.613,-0.235 -1.178,-0.096 -1.688,0.419 -0.51,0.509 -1.085,1.598 -1.725,3.265 z"
         id="path931" /><path
         fill-rule="evenodd"
         clip-rule="evenodd"
         fill="#ffffff"
         d="m 223.269,238.861 -10.239,-6.152 c 0.718,-0.93 1.637,-1.657 2.757,-2.18 1.13,-0.525 2.873,-0.896 5.23,-1.111 1.441,-0.135 2.417,-0.309 2.926,-0.521 0.508,-0.214 0.865,-0.492 1.071,-0.835 0.222,-0.37 0.271,-0.769 0.148,-1.197 -0.114,-0.43 -0.381,-0.77 -0.8,-1.021 -0.436,-0.263 -0.875,-0.342 -1.316,-0.238 -0.438,0.105 -0.908,0.473 -1.415,1.102 l -3.255,-2.328 c 0.705,-0.869 1.396,-1.463 2.072,-1.778 0.68,-0.321 1.428,-0.428 2.246,-0.32 0.826,0.105 1.814,0.503 2.966,1.194 1.2,0.723 2.053,1.418 2.555,2.088 0.507,0.674 0.781,1.407 0.823,2.199 0.05,0.79 -0.134,1.532 -0.553,2.229 -0.444,0.741 -1.091,1.316 -1.938,1.726 -0.841,0.412 -2.082,0.675 -3.723,0.786 -0.97,0.058 -1.629,0.109 -1.977,0.156 -0.342,0.051 -0.761,0.133 -1.256,0.25 l 5.33,3.202 z"
         id="path933" /><path
         fill-rule="evenodd"
         clip-rule="evenodd"
         fill="#ffffff"
         d="m 240.037,234.792 4.403,4.89 c 0.867,0.964 1.438,1.857 1.711,2.682 0.278,0.829 0.349,1.654 0.214,2.478 -0.136,0.823 -0.445,1.611 -0.931,2.363 -0.484,0.753 -1.087,1.453 -1.805,2.101 -1.127,1.014 -2.119,1.67 -2.978,1.97 -0.849,0.299 -1.692,0.409 -2.527,0.328 -0.832,-0.084 -1.555,-0.327 -2.169,-0.73 -0.842,-0.55 -1.526,-1.117 -2.053,-1.703 l -4.403,-4.889 z m 0.577,5.439 -5.758,5.184 0.727,0.808 c 0.619,0.688 1.134,1.109 1.545,1.267 0.414,0.152 0.883,0.143 1.404,-0.029 0.527,-0.176 1.213,-0.645 2.056,-1.403 1.117,-1.005 1.716,-1.877 1.796,-2.616 0.08,-0.739 -0.263,-1.535 -1.03,-2.388 z"
         id="path935" /><path
         fill-rule="evenodd"
         clip-rule="evenodd"
         fill="#ffffff"
         d="m 256.009,256.696 2.075,3.901 -7.464,3.968 c -0.74,0.395 -1.504,0.648 -2.289,0.764 -0.777,0.118 -1.547,0.059 -2.309,-0.179 -0.752,-0.235 -1.374,-0.573 -1.863,-1.014 -0.684,-0.611 -1.308,-1.449 -1.874,-2.514 -0.327,-0.616 -0.643,-1.312 -0.946,-2.088 -0.299,-0.771 -0.455,-1.467 -0.464,-2.089 -0.004,-0.626 0.118,-1.267 0.368,-1.924 0.253,-0.65 0.587,-1.183 1.003,-1.596 0.669,-0.666 1.31,-1.162 1.925,-1.488 l 7.464,-3.969 2.075,3.901 -7.644,4.063 c -0.683,0.363 -1.118,0.838 -1.303,1.424 -0.177,0.589 -0.084,1.222 0.277,1.901 0.358,0.673 0.826,1.1 1.403,1.279 0.586,0.184 1.227,0.09 1.922,-0.279 z"
         id="path937" /><rect
         x="-339.70236"
         y="145.22131"
         transform="rotate(-109.00749)"
         fill-rule="evenodd"
         clip-rule="evenodd"
         fill="#ffffff"
         width="4.4381127"
         height="14.18036"
         id="rect939"
         style="stroke-width:1.00003" /><path
         fill-rule="evenodd"
         clip-rule="evenodd"
         fill="#ffffff"
         d="m 253.45,274.877 0.989,4.104 c -0.651,0.208 -1.127,0.479 -1.428,0.817 -0.486,0.55 -0.655,1.241 -0.508,2.076 0.109,0.621 0.337,1.074 0.682,1.358 0.352,0.288 0.719,0.398 1.1,0.332 0.361,-0.063 0.657,-0.282 0.887,-0.653 0.229,-0.371 0.368,-1.163 0.416,-2.376 0.088,-1.987 0.412,-3.451 0.974,-4.39 0.56,-0.947 1.386,-1.516 2.479,-1.709 0.717,-0.126 1.43,-0.036 2.14,0.269 0.716,0.312 1.328,0.854 1.839,1.632 0.518,0.781 0.906,1.907 1.165,3.378 0.318,1.803 0.228,3.235 -0.273,4.297 -0.493,1.066 -1.447,1.817 -2.863,2.252 l -0.963,-4.069 c 0.609,-0.22 1.025,-0.531 1.249,-0.935 0.226,-0.396 0.283,-0.904 0.174,-1.521 -0.089,-0.506 -0.265,-0.869 -0.525,-1.088 -0.255,-0.22 -0.535,-0.303 -0.84,-0.249 -0.223,0.039 -0.403,0.181 -0.544,0.424 -0.147,0.237 -0.233,0.755 -0.256,1.554 -0.07,1.979 -0.243,3.414 -0.517,4.31 -0.268,0.901 -0.676,1.592 -1.227,2.073 -0.549,0.486 -1.205,0.797 -1.967,0.932 -0.895,0.158 -1.765,0.054 -2.608,-0.313 -0.843,-0.367 -1.543,-0.967 -2.095,-1.795 -0.545,-0.83 -0.938,-1.929 -1.18,-3.297 -0.424,-2.4 -0.26,-4.143 0.492,-5.229 0.75,-1.085 1.82,-1.814 3.208,-2.184 z"
         id="path941" /><path
         fill-rule="evenodd"
         clip-rule="evenodd"
         fill="#ffffff"
         d="m 265.451,290.277 -0.145,8.288 c -0.024,1.382 -0.381,2.436 -1.071,3.16 -0.689,0.73 -1.534,1.088 -2.534,1.07 -0.838,-0.016 -1.552,-0.291 -2.143,-0.83 -0.393,-0.359 -0.7,-0.879 -0.921,-1.561 -0.263,1.025 -0.697,1.773 -1.306,2.245 -0.603,0.479 -1.354,0.71 -2.257,0.694 -0.734,-0.014 -1.393,-0.197 -1.974,-0.553 -0.58,-0.355 -1.036,-0.837 -1.368,-1.441 -0.206,-0.375 -0.351,-0.939 -0.435,-1.69 -0.111,-0.999 -0.165,-1.661 -0.159,-1.987 l 0.134,-7.644 z m -5.639,4.37 -0.033,1.925 c -0.013,0.691 0.096,1.172 0.322,1.443 0.233,0.277 0.573,0.421 1.019,0.428 0.412,0.008 0.736,-0.124 0.975,-0.393 0.236,-0.264 0.36,-0.731 0.372,-1.401 l 0.034,-1.956 z m -5.57,-0.097 -0.04,2.258 c -0.013,0.762 0.11,1.302 0.369,1.619 0.266,0.317 0.623,0.48 1.075,0.488 0.419,0.008 0.757,-0.143 1.013,-0.451 0.264,-0.302 0.402,-0.841 0.416,-1.616 l 0.039,-2.248 z"
         id="path943" /><path
         fill-rule="evenodd"
         clip-rule="evenodd"
         fill="#ffffff"
         d="m 262.329,317.097 -1.069,4.287 -8.202,-2.045 c -0.813,-0.203 -1.551,-0.525 -2.212,-0.965 -0.656,-0.433 -1.188,-0.992 -1.596,-1.678 -0.402,-0.678 -0.638,-1.345 -0.707,-2 -0.099,-0.911 -0.001,-1.952 0.29,-3.121 0.168,-0.678 0.4,-1.405 0.693,-2.186 0.293,-0.772 0.645,-1.395 1.054,-1.863 0.415,-0.467 0.936,-0.861 1.561,-1.182 0.623,-0.315 1.228,-0.487 1.813,-0.516 0.941,-0.047 1.751,0.014 2.426,0.182 l 8.203,2.046 -1.069,4.288 -8.399,-2.096 c -0.751,-0.187 -1.392,-0.125 -1.921,0.187 -0.524,0.319 -0.88,0.852 -1.065,1.599 -0.185,0.739 -0.123,1.37 0.187,1.89 0.313,0.528 0.852,0.888 1.615,1.078 z"
         id="path945" /><path
         fill-rule="evenodd"
         clip-rule="evenodd"
         fill="#ffffff"
         d="m 246.797,319.894 12.634,6.438 -3.351,6.576 c -0.621,1.22 -1.199,2.099 -1.734,2.639 -0.536,0.539 -1.186,0.862 -1.949,0.971 -0.759,0.11 -1.54,-0.039 -2.345,-0.448 -0.701,-0.358 -1.23,-0.817 -1.588,-1.38 -0.352,-0.561 -0.551,-1.185 -0.598,-1.874 -0.029,-0.438 0.039,-0.985 0.206,-1.639 -0.396,0.391 -0.725,0.654 -0.989,0.79 -0.178,0.093 -0.506,0.188 -0.982,0.289 -0.482,0.105 -0.838,0.158 -1.068,0.158 l -4.636,0.041 2.272,-4.46 4.936,-0.141 c 0.636,-0.013 1.082,-0.085 1.338,-0.218 0.34,-0.186 0.602,-0.458 0.785,-0.817 l 0.178,-0.349 -5.128,-2.613 z m 5.495,7.793 -0.848,1.663 c -0.092,0.181 -0.211,0.558 -0.36,1.134 -0.081,0.287 -0.057,0.566 0.073,0.838 0.127,0.276 0.327,0.484 0.604,0.625 0.408,0.208 0.787,0.237 1.14,0.087 0.351,-0.15 0.71,-0.586 1.077,-1.306 l 0.883,-1.733 z"
         id="path947" /><path
         fill-rule="evenodd"
         clip-rule="evenodd"
         fill="#ffffff"
         d="m 239.413,341.705 2.26,1.896 -4.398,5.243 -4.631,-3.886 c 0.165,-1.571 0.448,-2.849 0.852,-3.829 0.402,-0.973 1.049,-1.987 1.937,-3.046 1.094,-1.303 2.205,-2.182 3.336,-2.637 1.127,-0.45 2.315,-0.537 3.566,-0.263 1.246,0.281 2.433,0.893 3.559,1.838 1.187,0.995 2.008,2.106 2.468,3.334 0.465,1.232 0.524,2.516 0.179,3.852 -0.273,1.037 -0.938,2.186 -1.993,3.443 -1.019,1.214 -1.888,2.029 -2.607,2.445 -0.725,0.422 -1.481,0.638 -2.271,0.646 -0.79,0.018 -1.62,-0.168 -2.488,-0.557 l 2.168,-3.757 c 0.523,0.209 1.029,0.242 1.52,0.101 0.484,-0.138 0.938,-0.456 1.355,-0.955 0.625,-0.744 0.866,-1.554 0.726,-2.429 -0.14,-0.867 -0.764,-1.765 -1.87,-2.692 -1.176,-0.986 -2.202,-1.47 -3.078,-1.447 -0.882,0.026 -1.657,0.439 -2.327,1.237 -0.318,0.38 -0.567,0.787 -0.748,1.224 -0.181,0.436 -0.326,0.984 -0.437,1.649 l 1.021,0.858 z"
         id="path949" /></g><path
       fill="#ffffff"
       d="m 188.293,371.464 c 0,3.191 -2.589,5.778 -5.78,5.778 -3.192,0 -5.781,-2.587 -5.781,-5.778 0,-3.194 2.589,-5.783 5.781,-5.783 3.191,0 5.78,2.589 5.78,5.783 z"
       id="path955" /></g></g><g
   id="g1586"
   transform="matrix(1.8181015,0,0,1.8181015,3.1232397e-5,0)"><path
     fill-rule="evenodd"
     clip-rule="evenodd"
     fill="#ffffff"
     d="m 176.775,5.843 c -2.433,-4.481 -6.331,-3.409 -6.331,-3.409 0,0 -6.573,3.896 -9.981,6.817 -3.409,2.922 -9.009,4.626 -11.2,17.53 -2.191,12.904 -4.87,15.826 -4.87,15.826 0,0 -0.729,-0.487 -2.435,-2.435 -1.704,-1.948 -2.191,-3.652 -2.191,-3.652 0,0 -0.487,-1.948 -2.191,-14.608 C 135.871,9.252 128.323,0 128.323,0 c 0,0 -2.435,0.73 -8.035,9.496 -5.6,8.765 -7.548,29.46 -7.548,29.46 0,0 -4.87,-8.035 -8.765,-15.095 C 100.08,16.801 90.098,9.496 84.984,7.061 79.871,4.626 73.053,3.409 73.053,3.409 c 0,0 -2.699,1.99 -5.377,14.164 -2.678,12.174 2.699,22.601 6.838,29.418 4.139,6.817 15.096,15.582 17.531,17.043 2.435,1.46 -0.487,6.086 -1.705,8.278 -1.218,2.192 -3.165,9.739 -3.165,9.739 0,0 0,0 -1.948,0.73 -1.947,0.73 -1.46,2.435 -1.46,3.896 0,1.461 0.738,2.915 0.738,2.915 l -3.217,7.796 6.375,-1.216 c 0,0 0.487,2.678 1.217,4.87 0.73,2.192 0.244,3.652 -0.243,8.521 -0.487,4.87 -1.948,12.417 -2.191,17.53 -0.244,5.113 5.356,20.938 5.113,22.156 -0.243,1.218 -3.165,5.6 -5.113,8.521 -1.948,2.922 -1.948,11.93 -1.948,11.93 0,0 -5.687,-2.523 -8.522,-3.652 -1.631,-0.649 -18.991,-5.843 -32.626,-1.461 -13.635,4.382 -24.104,17.53 -32.626,31.165 -8.521,13.634 -10.47,32.138 -10.713,42.363 -0.243,10.179 3.614,21.075 3.65,21.178 -0.03,-0.092 -0.453,-1.713 1.706,-15.091 2.046,-12.679 7.491,-25.796 16.8,-40.659 8.674,-13.85 22.887,-21.913 22.887,-21.913 0,0 0,0 -3.652,4.626 -3.652,4.626 -10.106,16.435 -12.904,25.564 -2.505,8.175 -4.008,22.92 -2.521,32.818 1.346,8.961 6.66,18.798 6.66,18.798 0,0 -0.467,-7.815 0.02,-17.312 0.487,-9.495 5.275,-23.611 8.501,-31.14 3.625,-8.458 12.053,-23.169 15.133,-27.02 3.959,-4.95 9.458,-8.527 9.458,-8.527 0,0 -9.009,11.443 -13.878,21.425 -4.869,9.982 -11.443,25.565 -12.417,45.286 -0.974,19.721 7.304,35.79 7.304,35.79 0,0 -0.487,-2.922 -0.73,-7.548 -0.243,-4.626 0.054,-12.852 0.983,-21.091 0.99,-8.786 6.321,-31.255 14.356,-46.107 8.035,-14.851 16.556,-18.503 16.556,-18.503 0,0 -5.243,5.301 -9.382,10.658 -4.139,5.357 -6.578,13.308 -7.795,17.447 -1.217,4.139 -1.57,15.964 -1.57,15.964 0,0 0.436,3.294 -0.781,7.919 -1.124,4.271 0.036,7.295 0.221,7.734 0.18,-0.206 0.026,0.062 0.026,0.062 0,0 -0.011,-0.025 -0.026,-0.062 -0.221,0.254 -0.945,1.225 -3.092,4.311 -3.896,5.6 -3.896,18.504 -3.896,18.504 0,0 2.191,-3.408 5.843,-9.738 3.652,-6.331 13.148,-11.687 16.313,-12.904 3.166,-1.217 18.018,-11.93 18.018,-11.93 0,0 -0.513,0.948 -1.704,2.19 -1.878,1.958 -4.65,8.172 -6.955,11.609 -2.852,4.253 -10.937,13.337 -14.602,16.458 -4.288,3.652 -8.163,11.646 -12.287,18.923 -4.139,7.304 -12.904,29.46 -12.904,29.46 0,0 10.86,-13.956 18.018,-18.504 12.473,-7.926 16.773,-9.298 24.873,-17.258 7.05,-6.929 10.74,-23.257 10.889,-32.049 0.107,-6.329 3.019,-14.833 3.019,-14.833 -0.565,3.317 -0.565,3.27 -0.993,5.629 -0.872,4.807 0.993,12.582 0.993,12.582 0,0 3.756,-9.003 12.472,-18.763 3.091,-3.753 10.193,-10.059 14.128,-12.804 14.238,-9.934 19.315,-11.037 25.717,-13.355 5.251,-1.901 11.368,-3.09 11.368,-3.09 0,0 2.717,-4.908 4.664,-12.943 1.947,-8.034 2.922,-15.338 3.408,-25.321 0.487,-9.982 -2.678,-27.269 -2.434,-28.486 0.242,-1.218 1.217,-9.252 0,-15.339 -1.218,-6.087 -2.679,-10.226 -3.166,-11.93 -0.487,-1.704 -1.46,-5.843 -1.218,-9.496 0.244,-3.652 -0.974,-12.904 -0.974,-14.121 0,-1.217 0,-5.843 -0.73,-9.008 -0.729,-3.165 -2.191,-7.547 -2.191,-7.547 0,0 1.218,-1.948 1.948,-3.409 0.73,-1.461 0.487,-4.87 0.487,-4.87 0,0 4.382,-2.435 5.844,-3.652 1.461,-1.218 8.765,-4.139 11.93,-17.53 3.165,-13.389 -2.629,-29.673 -4.627,-33.354 z M 73.119,207.764 c 8.676,-11.176 19.552,-16.458 19.552,-16.458 0,0 -4.579,7.795 -7.177,11.013 -2.598,3.218 -7.796,9.033 -11.384,12.251 -3.588,3.218 -11.013,14.602 -11.013,14.602 0,0 2.721,-12.004 10.022,-21.408 z m 21.903,1.855 c -2.104,3.96 -3.836,8.167 -7.054,11.88 -3.218,3.713 -8.786,8.414 -12.993,11.508 -4.207,3.094 -12.497,10.023 -12.497,10.023 0,0 3.341,-6.188 6.063,-9.776 4.789,-6.312 14.385,-12.952 17.324,-15.591 6.063,-5.444 8.91,-9.652 8.91,-9.652 l 1.98,-2.104 c -10e-4,0 0.37,-0.248 -1.733,3.712 z"
     id="path827" /><path
     fill="#0064b0"
     d="m 130.235,6.351 c 4.227,9.862 6.764,20.293 7.286,31.653 l 7.196,6.244 c 2.17,-1.214 2.689,-3.902 3.557,-5.984 3.209,-9.365 2.688,-21.072 13.094,-26.709 l 10.407,-7.284 c 2.517,0 3.123,3.382 4.423,5.202 3.903,11.361 7.372,27.665 -0.866,38.157 -3.728,5.463 -9.451,8.238 -14.137,11.795 0.782,3.208 -0.258,6.07 -2.254,8.325 -0.346,3.121 1.735,5.202 2.254,7.976 -0.087,3.211 1.996,6.333 0.607,9.367 2.082,8.499 -0.865,18.298 3.384,26.016 1.126,8.064 4.074,16.737 1.387,25.147 3.033,16.13 5.117,35.036 0.692,51.166 -0.953,3.556 -1.385,7.545 -2.948,10.667 h -0.607 c 2.95,-15.436 5.032,-32.347 1.477,-47.869 -0.347,-0.262 -0.521,-0.867 -1.04,-0.608 -1.91,4.51 -3.818,9.106 -5.639,13.702 0.52,-16.13 7.373,-30.699 5.377,-46.829 l -1.213,3.295 c 0,-3.729 -0.436,-7.804 -2.95,-10.753 -1.387,3.382 -1.562,7.718 -1.475,12.055 0.261,11.967 -0.692,23.328 -3.903,33.905 1.649,-13.875 -2.86,-25.667 -2.946,-39.108 -0.087,-0.953 -0.782,-1.909 -1.649,-2.342 h -3.294 c -9.366,6.678 -19.773,15.09 -18.124,27.924 0.866,8.151 9.886,12.834 9.191,21.68 0.085,6.418 -1.82,12.488 -3.816,18.297 -2.517,5.639 -5.811,13.617 -13.095,14.572 -7.024,1.474 -16.13,2.254 -21.854,-3.121 -1.822,-2.171 -3.295,-4.513 -3.557,-7.287 -4.421,-7.632 -10.493,-16.132 -6.85,-25.582 1.561,-4.683 5.464,-8.415 6.85,-13.183 2.603,-4.336 5.463,-8.759 3.99,-14.569 1.822,-0.086 1.822,-2.082 0.867,-3.122 L 99.624,128.8 c -6.245,3.555 -5.205,11.531 -7.285,16.651 l -2.951,-11.709 c 2.69,-3.382 4.599,-7.283 7.287,-10.406 0.867,-0.086 1.561,1.041 2.341,0.607 -1.127,-2.688 -1.909,-6.416 -4.164,-8.497 -2.601,3.988 -4.248,9.104 -5.895,12.92 -1.908,-9.713 3.641,-16.911 1.734,-26.882 1.3,0.172 3.295,0 4.161,-1.476 0,-0.869 0.695,-1.475 1.043,-2.256 1.125,6.767 4.334,12.663 6.241,19.165 0.523,4.857 0.435,9.974 1.651,14.571 0.866,-0.347 1.993,-1.302 2.079,-2.342 -1.041,-12.142 -4.941,-23.154 -8.759,-34.081 -0.52,-0.694 -0.692,-1.562 -1.473,-2.081 -1.647,1.647 -0.608,7.023 -4.77,5.637 C 89.13,97.406 89.91,95.15 88.609,93.764 l -4.856,1.475 c 0.434,-1.56 1.647,-2.861 2.341,-4.337 -0.435,-1.735 -0.954,-3.989 -0.435,-5.637 l 2.255,-2.081 c 1.822,-6.07 6.418,-10.927 7.111,-17.517 L 94.418,63.413 C 78.202,53.266 67.015,36.876 69.618,17.625 70.485,13.463 71.7,9.213 74.82,6.178 c 7.371,0.694 14.049,3.903 19.339,8.759 l 0.442,0.444 c 8.499,8.151 12.999,18.286 18.723,27.826 2.34,-14.569 4.25,-29.398 14.396,-40.759 1.648,0.608 1.926,2.523 2.515,3.903 z"
     id="path959"
     style="fill:#3c4e99;fill-opacity:1" /><path
     fill="#ffffff"
     d="m 131.624,45.29 -4.337,-7.892 c -3.294,-2.515 -7.022,-4.249 -9.8,-7.458 0.694,-4.423 1.908,-8.499 3.382,-12.487 7.806,6.937 12.227,16.735 10.755,27.837 z"
     id="path961" /><path
     fill="#ffffff"
     d="m 137.26,40.693 c 5.375,7.63 13.44,10.32 19.166,16.477 l 2.081,7.458 -0.434,0.694 c -2.86,-5.985 -8.065,-13.009 -14.57,-15.437 -1.04,0.521 -0.78,2.081 -0.172,2.688 0.26,1.648 2.688,2.341 2.426,4.164 2.431,1.733 4.251,4.421 5.205,7.11 3.296,4.075 7.284,7.805 8.585,12.661 l -0.434,0.434 c -3.642,-6.157 -9.971,-11.62 -12.66,-18.298 -2.775,-4.249 -6.939,-6.33 -11.014,-8.758 -2.6,-1.908 -0.436,-5.29 -1.042,-7.719 0.607,-0.781 1.562,-1.908 2.863,-1.474 z"
     id="path963" /><path
     fill="#ffffff"
     d="m 111.851,49.018 c -4.162,4.422 -7.89,9.279 -12.489,13.182 1.474,-5.29 6.072,-11.187 11.274,-14.222 h 1.646 z"
     id="path965" /><path
     fill="#ffffff"
     d="m 113.325,54.221 c -0.694,4.857 -6.331,7.458 -9.973,10.232 l -6.07,4.77 c 1.82,-4.162 5.809,-7.196 9.019,-10.58 2.34,-1.474 4.335,-3.815 7.024,-4.422 z"
     id="path967" /><path
     fill="#ffffff"
     d="m 150.962,71.912 c 3.122,2.947 5.204,6.678 9.019,8.326 l 1.821,2.515 c -7.108,5.896 2.344,13.875 -1.647,21.419 l -1.214,4.162 c -3.815,-3.467 -7.717,-8.151 -13.356,-6.849 -7.891,4.16 -14.309,12.486 -19.511,19.598 l -5.204,8.064 c -0.347,-5.377 3.988,-9.799 5.982,-14.744 4.512,-7.63 11.623,-15.348 18.733,-20.638 2.431,-0.085 4.685,0.087 6.419,1.475 1.994,1.821 2.081,4.336 3.122,6.503 6.764,-4.423 1.041,-13.094 3.382,-19.598 -0.261,-0.261 -0.434,-0.521 -0.867,-0.434 -1.128,3.468 -5.029,5.984 -7.719,8.152 0.348,-4.423 7.892,-8.326 2.776,-13.095 -6.851,-6.331 -14.399,-12.403 -22.114,-17.518 8.411,0.435 14.222,6.938 20.378,12.662 z"
     id="path969" /><path
     fill="#ffffff"
     d="m 107.34,123.597 c -1.907,-10.581 -0.433,-22.46 -2.949,-32.694 0,-8.41 5.031,-14.654 9.368,-21.246 -4.683,16.909 -6.505,35.816 -6.419,53.94 z"
     id="path971" /><path
     fill="#ffffff"
     d="m 143.765,85.093 c -0.954,7.805 -10.406,11.621 -14.222,18.298 l -4.944,5.983 c 3.294,-9.02 4.596,-19.86 11.013,-28.097 0.607,-3.729 -0.608,-7.285 -1.647,-10.579 5.376,2.774 9.973,7.977 9.8,14.395 z"
     id="path973" /><path
     fill="#ffffff"
     d="m 116.015,113.796 c 0.085,4.165 0.175,8.847 -1.649,12.489 -1.82,-19.079 2.341,-38.07 7.719,-55.414 1.732,14.829 -1.563,29.658 -6.07,42.925 z"
     id="path975" /><path
     fill="#ffffff"
     d="m 94.592,88.995 c -2.341,-0.086 -4.334,-1.994 -5.635,-3.73 4.075,-4.075 7.284,-9.104 12.141,-12.052 -3.47,4.768 -8.066,9.712 -6.506,15.782 z"
     id="path977" /><path
     fill="#0064b0"
     d="m 149.575,138.946 c 0.172,2.342 -0.26,4.337 -1.475,6.068 l 1.215,0.784 c 1.56,8.498 -4.424,14.394 -8.5,20.812 0.346,-5.03 4.855,-9.278 6.418,-14.308 -0.086,-0.696 0.173,-1.562 -0.174,-2.082 h -0.606 c -3.036,3.034 -4.511,6.678 -6.504,10.147 1.04,-3.817 2.861,-9.194 2.947,-14.31 -3.468,-4.858 -5.551,-10.233 -8.931,-15.003 -0.087,-3.122 2.427,-5.983 5.202,-7.285 3.209,5.031 8.326,9.54 10.408,15.177 z"
     id="path979"
     style="fill:#3c4e99;fill-opacity:1" /><path
     fill="#0064b0"
     d="m 153.478,165.569 c -1.475,13.702 -2.314,30.117 -9.512,41.476 -1.766,1.545 -4.933,2.593 -8.057,4.525 -20.141,10.758 -28.01,22.814 -34.988,33.663 -0.221,-0.883 -0.25,-1.284 -0.441,-2.648 -0.332,-18.874 20.215,-29.926 31.145,-45.971 3.816,-5.375 7.543,-10.666 9.8,-16.649 -2.257,0.433 -4.25,2.603 -6.42,3.989 v -1.909 c 7.2,-5.377 10.409,-14.221 18.04,-18.124 z"
     id="path981"
     style="fill:#3c4e99;fill-opacity:1" /><path
     fill="#0064b0"
     d="m 93.552,187.684 c -11.186,7.807 -24.369,17.604 -28.879,30.957 -1.473,3.817 -2.514,7.807 -3.814,11.707 -0.606,-20.03 11.36,-38.589 29.138,-48.735 z"
     id="path983"
     style="fill:#3c4e99;fill-opacity:1" /><path
     fill="#0064b0"
     d="m 99.796,197.048 c -1.475,2.775 -4.509,5.031 -5.377,8.065 -8.671,13.096 -23.935,19.514 -31.219,33.127 l -3.99,6.677 c 2.949,-21.333 26.365,-34.427 35.816,-53.507 1.127,2.083 2.949,3.818 4.77,5.638 z"
     id="path985"
     style="fill:#3c4e99;fill-opacity:1" /><path
     fill="#0064b0"
     d="m 123.729,197.483 c -11.447,15.002 -23.673,31.824 -39.543,42.838 -10.667,7.372 -25.062,11.186 -30.961,24.716 2.69,-25.148 34.17,-30.698 42.843,-52.985 2.947,-4.336 5.549,-8.847 8.931,-12.921 6.245,1.388 13.096,0.261 18.73,-1.648 z"
     id="path987"
     style="fill:#3c4e99;fill-opacity:1" /><path
     fill="#0064b0"
     d="m 93.981,259.11 c 0,0 -1.802,7.802 -4.349,12.817 -7.827,15.417 -27.127,17.565 -38.14,31.439 l -4.339,5.811 c 5.291,-12.401 11.19,-25.061 19.167,-36.597 7.632,-9.104 17.779,-17.603 22.029,-28.357 3.335,-5.277 5.983,-7.804 9.626,-11.013 -3.296,7.111 -2.163,16.745 -3.994,25.9 z"
     id="path989"
     style="fill:#3c4e99;fill-opacity:1" /><path
     fill="#0064b0"
     d="m 84.901,172.329 c 1.746,2.134 2.132,4.652 3.293,6.978 -28.493,13.568 -38.7,44.563 -42.837,73.074 -1.193,8.221 -1.316,12.552 -0.579,20.933 -10.276,-36.051 3.682,-71.521 26.554,-98.66 -8.916,2.328 -17.252,12.214 -21.904,20.548 -11.047,18.608 -20.74,38.379 -18.608,61.832 -9.303,-26.943 -0.192,-59.312 20.159,-80.052 -13.179,3.682 -25.781,18.027 -33.146,29.849 -8.334,14.15 -14.148,30.818 -14.925,46.909 -5.233,-32.759 6.399,-65.903 34.893,-84.514 14.147,-7.558 34.115,-4.65 47.1,3.103 z"
     id="path991"
     style="fill:#3c4e99;fill-opacity:1" /></g>
</svg>
