<?xml version="1.0" encoding="UTF-8"?>
<svg id="Calque_2" data-name="Calque 2" xmlns="http://www.w3.org/2000/svg" viewBox="0 0 2792.46 4308.77">
  <defs>
    <style>
      .cls-1 {
        fill: #367bbd;
      }

      .cls-2 {
        fill: #00296b;
      }

      .cls-3 {
        fill: #dfad00;
      }

      .cls-4 {
        fill: #a00b3e;
      }

      .cls-5 {
        fill: #fff;
      }

      .cls-6 {
        fill: #870146;
      }
    </style>
  </defs>
  <g id="Calque_2-2" data-name="Calque 2">
    <g>
      <path id="path5321" class="cls-2" d="M1989.96,593.74c0,327.92-265.83,593.73-593.75,593.73s-593.77-265.82-593.77-593.73S1068.26,0,1396.21,0s593.75,265.83,593.75,593.74Z"/>
      <g>
        <path id="path5327" class="cls-3" d="M956.32,360.72c83.82-157.32,249.58-264.65,439.95-264.65s358.31,108.75,441.6,267.77l-1.4,4c-19.27,37.29-59.48,82.79-99.34,107.73-55.85,34.97-100.22,29.93-149.67,11.62l-10.73-4.04c-36.82-14-87.25-33.17-179.87-35.3-93.83,2.13-144.26,21.3-181.07,35.29l-10.74,4.05c-49.45,18.31-93.83,23.35-149.67-11.61-41.06-25.71-82.52-73.24-101.05-111.13l1.97-3.73h.02Z"/>
        <path id="path5329" class="cls-3" d="M1202.84,1048.11c34.61-61.63,70.44-152.84,70.44-266.26s-34.36-189.17-69.69-233.24l-3.26-3.86c19.69,0,98.14-42.6,169.39-42.6v589.26h-3.47c-58.51-3.51-114.32-17.14-165.71-39.18l2.3-4.12h0Z"/>
        <path id="path5331" class="cls-3" d="M907.86,664.76c24.01,24.9,76.79,70.65,152.8,86.94,61.19,13.11,117.48,16.19,156.11,16.27l3.24-.29c-3.3-120.66-48.21-181.45-80.11-209.57l-4.27-3.52c-32.76-.28-68.8-9.23-108.43-34.03-32.97-20.64-71.39-57.15-98.97-96.87l-2.2,5.92c-18.09,51.54-27.93,106.93-27.93,164.57,0,22.06,1.44,43.79,4.24,65.09l5.49,5.48h.03Z"/>
        <path id="path5333" class="cls-3" d="M926.51,749.92c31.67,21.81,72.91,42.93,123.04,53.67,64.79,13.89,123.74,17.37,165.08,17.54l3.92.17c-7.18,85.47-36.54,155.29-64.08,203.72l-2.08,3.41c-108.15-60.96-191.37-161.17-230.21-281.15l4.32,2.65h0Z"/>
        <g>
          <path id="path5329-2" class="cls-3" d="M1589.6,1048.12l2.3,4.12c-51.39,22.04-107.2,35.67-165.71,39.16h-3.47V502.15c71.25,0,149.7,42.6,169.39,42.6l-3.26,3.86c-35.33,44.06-69.69,116.84-69.69,233.24s35.83,204.63,70.44,266.26h0Z"/>
          <path id="path5331-2" class="cls-3" d="M1884.57,664.76l5.49-5.48c2.8-21.31,4.24-43.04,4.24-65.09,0-57.64-9.84-113.03-27.93-164.57l-2.2-5.92c-27.58,39.72-66,76.23-98.97,96.87-39.62,24.8-75.67,33.75-108.43,34.03l-4.27,3.52c-31.9,28.12-76.81,88.9-80.11,209.57l3.24.29c38.63-.08,94.93-3.16,156.11-16.27,76.02-16.3,128.79-62.04,152.8-86.94h.03Z"/>
          <path id="path5333-2" class="cls-3" d="M1870.25,747.27c-38.84,119.98-122.06,220.18-230.21,281.15l-2.08-3.41c-27.54-48.43-56.9-118.25-64.08-203.72l3.92-.17c41.35-.17,100.29-3.65,165.08-17.54,50.14-10.74,91.37-31.86,123.04-53.67l4.32-2.65h0Z"/>
        </g>
      </g>
      <g>
        <path class="cls-2" d="M1021.05,3568.49L0,1546.36l460.07-561.63,73.78,59.01c63.29,50.64,172.35,120.1,332.47,163.44,231.27,62.61,405.41,70.63,531.28,70.63s299.96-8.03,531.24-70.63c160.08-43.33,269.17-112.8,332.48-163.45l74.02-59.2,457.12,561.92-1393.44,2762.32-377.98-740.28h0Z"/>
        <g>
          <polygon class="cls-1" points="2677.94 1558.72 1397.21 4097.59 1104.86 3525.03 2319.71 1118.37 2677.94 1558.72"/>
          <path id="path5323" class="cls-5" d="M2319.71,1118.37c-72.75,58.19-193.05,133.92-367.21,181.06-242.14,65.54-424.46,73.95-556.2,73.95s-314.12-8.41-556.26-73.95c-174.16-47.14-294.46-122.87-367.2-181.06-87.83,107.22-303.85,370.92-360.8,440.44,37.52,74.31,619.93,1227.75,992.82,1966.22l1214.85-2406.66h0Z"/>
          <path id="path5341" class="cls-4" d="M1270.73,2419.89l205.49-205.49-203.21-202.68,203.21-203.22-205.49-205.48-202.77,202.77-203.11-202.77-205.5,205.48,202.5,203.4-202.5,202.51,205.5,205.49,202.89-202.89,202.99,202.89h0Z"/>
          <g>
            <path id="path5343" class="cls-5" d="M1671.24,3285.52c-18.25,36.14-39.82,57.87-74.7,69.07l-11.7-36.42c26.41-8.7,41.54-25.21,53.98-49.85,15.86-31.41,11.56-56.45-11.75-68.22-10.46-5.28-20.77-6.68-29.75-3.17-8.81,3.19-14.23,8.06-23.43,21.23l-18.36,26.31c-12.6,18.22-27.19,30.35-42.26,35.87-17.11,6.2-35.2,4.25-54.79-5.63-41.86-21.14-55.22-66.02-30-115.98,16.04-31.74,35.38-49.94,65.02-60.81l11.2,34.89c-21.69,7.69-34.77,22.69-45,42.96-14.32,28.36-5.94,52.07,15.32,62.81,8.78,4.43,17.91,5.66,26.88,2.14,8.48-3.35,17.47-11.09,24.77-21.39l17.87-25.3c14.62-20.59,26.33-30.34,40.57-35.88,18.12-7.36,38.58-5.08,59.18,5.31,44.23,22.33,52.33,71.76,26.93,122.06h.02Z"/>
            <path id="path5345" class="cls-5" d="M1796.46,2976.25c7.52,22.87,3.87,48.56-8.74,73.55l-42.62,84.4-240.39-121.37,42.62-84.41c12.61-24.98,31.12-43.18,53.99-50.7,39.12-12.88,73.38,6.55,108.16,24.1,34.77,17.56,74.12,35.3,86.99,74.43h-.01ZM1615.02,2915.99c-16.25,4.51-28.15,15.45-36.83,32.68l-22.34,44.23,174.9,88.3,22.34-44.23c8.69-17.21,10.46-33.28,4.42-49.04-7.54-19.47-33.35-32.94-66.45-49.65-33.08-16.71-55.87-27.79-76.03-22.29h-.01Z"/>
            <path id="path5347" class="cls-5" d="M1862,2902.68l-238.46-120.4,87.29-172.9,46.43,23.44-58.9,116.62,43.97,22.2,52.92-104.8,44.67,22.55-52.92,104.81,56.99,28.76,64.09-126.96,46.43,23.44-92.52,183.24h0Z"/>
            <path id="path5349" class="cls-5" d="M1999.4,2630.55l-28.23,55.92-238.46-120.39,28.25-55.93,238.45,120.39h-.01Z"/>
            <path id="path5351" class="cls-5" d="M2023.83,2582.18l-238.47-120.4,51.5-101.97c15.57-30.84,31.76-51.09,48.59-60.79,16.82-9.68,35.29-9.45,55.4.71,17.15,8.66,28.12,20.22,32.88,34.68,4.78,14.44,3.15,30.84-4.87,49.22,13.38-21.33,27.15-34.71,41.28-40.17,14.14-5.45,30.38-3.54,48.75,5.73,12.87,6.5,22.7,15.34,29.54,26.53,6.85,11.19,9.92,23.45,9.26,36.8-.66,9.49-2.61,19.31-5.88,29.48-3.28,10.17-10.02,25.37-20.25,45.64l-47.73,94.54h0ZM1857.44,2425.69l50.64,25.57,16.16-32c9.1-18.04,13.41-31.21,12.93-39.54-.49-8.31-5.42-14.83-14.76-19.56-9.47-4.78-17.65-4.94-24.59-.51-6.92,4.44-15,15.79-24.23,34.03l-16.16,32.01h0ZM1950.59,2474.59l58.73,29.65,17.91-35.46c10.27-20.34,14.99-35.09,14.16-44.26-.82-9.14-6.68-16.48-17.57-21.97-11-5.55-20.39-5.96-28.17-1.22-7.77,4.76-16.83,17.34-27.15,37.78l-17.91,35.47h0Z"/>
            <path id="path5353" class="cls-5" d="M2159.51,2313.43l-30.81,61.01-194.67-207.11,30.53-60.48,282.22,33.71-30.87,61.14-43.7-6.97-43.85,86.85,31.15,31.85h0ZM2091.22,2245.87l30.04-59.5-109.47-17.83,79.43,77.33Z"/>
            <path id="path5355" class="cls-5" d="M2258.23,2117.92l-238.45-120.4,50.88-100.76c16.82-33.32,35.43-55.02,55.82-65.08,20.4-10.06,43.18-8.74,68.36,3.98,16.93,8.54,29.05,19.81,36.34,33.75,7.32,13.95,9.72,30.36,7.23,49.21l123-5.04-32.17,63.72-107.79,3.69-19.21,38.03,84.41,42.62-28.41,56.26h0v.02ZM2092.15,1963.45l66.11,33.38,20.7-41.01c8.19-16.2,11.49-29.07,9.9-38.59s-8.2-17.21-19.82-23.08c-12.28-6.2-22.55-7.33-30.78-3.4-8.25,3.93-16.72,14.5-25.41,31.7l-20.7,41.01h0Z"/>
          </g>
          <polygon class="cls-6" points="1476.39 1808.92 1269.77 1602.3 1067.12 1804.95 864.47 1602.3 657.85 1808.92 860.5 2011.57 657.85 2214.22 864.47 2420.84 1067.12 2218.19 1269.77 2420.84 1476.39 2214.22 1273.74 2011.57 1476.39 1808.92"/>
        </g>
      </g>
    </g>
  </g>
</svg>