<?xml version="1.0" encoding="UTF-8"?>
<svg id="Calque_2" data-name="Calque 2" xmlns="http://www.w3.org/2000/svg" viewBox="0 0 3681.21 3680.36">
  <defs>
    <style>
      .cls-1, .cls-2 {
        fill: #fff;
      }

      .cls-1, .cls-3 {
        fill-rule: evenodd;
      }

      .cls-4, .cls-3 {
        fill: #e1000f;
      }
    </style>
  </defs>
  <g id="Calque_1-2" data-name="Calque 1">
    <g>
      <path class="cls-2" d="M3620.29,1840.18c0,981.43-798.68,1780.11-1780.11,1780.11S60.91,2821.61,60.91,1840.18,858.75,60.07,1840.18,60.07s1780.11,798.68,1780.11,1780.11Z"/>
      <path class="cls-4" d="M1840.18,0C825.76,0,0,825.76,0,1840.18s825.76,1840.18,1840.18,1840.18,1841.03-824.91,1841.03-1840.18S2855.45,0,1840.18,0ZM1840.18,3620.3c-981.43,0-1779.27-798.68-1779.27-1780.11S858.75,60.07,1840.18,60.07s1780.11,798.68,1780.11,1780.11-798.68,1780.11-1780.11,1780.11Z"/>
      <path class="cls-4" d="M1840.53,3539.18c-936.82,0-1698.98-762.16-1698.98-1699.02S903.71,141.14,1840.53,141.14s1699.02,762.16,1699.02,1699.02-762.16,1699.02-1699.02,1699.02ZM1840.53,427.27c-779.05,0-1412.85,633.84-1412.85,1412.9s633.8,1412.9,1412.85,1412.9,1412.9-633.84,1412.9-1412.9S2619.58,427.27,1840.53,427.27Z"/>
      <path class="cls-3" d="M2539.46,1915.68c142.68,62.36,295.99,96.79,451.63,101.44,164.9,5.75,230.04-96.87,175.73-114.56-21.66-7.11-492.32-140.19-492.32-140.19,0,0-58.21-22.76-14.64-27.41,108.62.16,216.9-12.22,322.69-36.89,101.95-41.71,119.89-133.76,96.11-132.49-204.83,10.66-396.97,6.85-409.15,5.49l-3.55-.51s-22.59-7.61-2.37-25.47c22.34-19.63,169.89-142.73,201.11-174.12,81.22-81.81,25.97-201.19,12.44-188.33-96.75,90.51-204.71,168.22-321.25,231.23-10.41,1.95-7.53-22.42.68-40.02,28.86-38.98,52.28-81.7,69.63-126.99,39.6-148.23,29.53-241.63-54.15-277.17-15.14-6.51-20.81,1.95-40.44,47.97-19.63,45.94-27.33,126.4-102.2,157.62-38.24,15.99-109.06,81.39-110.16,107.45-1.02,26.14,14.64,67.01-5.58,80.88-15.99,11.08-43.15-8.38-67.01,11.42-23.77,19.71-92.98,89.6-117.09,107.62-24.11,18.02-72.08,47.04-102.03,30.46-65.91-64.89-33.93-255.76-33.93-255.76,15.46,2.89,31.28,3.32,46.87,1.27,43.04-8.12,71.34-49.6,63.22-92.64-.42-2.22-.93-4.43-1.54-6.61-14.15,15.78-34.39,24.74-55.59,24.62-26.9,2.54-33.84-8.46-39.76-32.32-7.95-25.08-7.26-52.09,1.95-76.74,11.51-39.93,52.03-59.39,75.05-77.92,23.1-18.53,11-88.33,11-88.33-6.23,13.32-14.77,25.43-25.21,35.79-22.17,20.81-52.46,14.89-117.01,10.83-38.12,1.47-75.06-13.4-101.53-40.86-10.07-12.44-94.76-3.22-119.13-2.12-56.49,6.68-112.25,18.49-166.59,35.28-36.94,12.67-72.53,28.97-106.27,48.65-14.21,11.84-9.31,22.34-9.31,22.34l13.03,35.11c29.22-20.01,61.23-35.57,95.01-46.19,47.29-12.61,52.88,8.97,58.89,29.27,4.83,14.55,8.48,29.46,10.91,44.59-49.44,10.68-100.17,14.1-150.6,10.15-73.18-3.98-77.41-36.21-76.4-55.08.42-6.77-21.32.34-29.61,18.87-14.72,32.74-19.04,87.91,131.31,85.79,45.65-2.23,90.59-12.19,132.92-29.44,11.76,39.6-1.69,46.03-18.53,48.9-36.37,8.81-74.54,6.6-109.65-6.35,0,0-10.15,32.57-2.71,38.16,45.07,24.24,96.08,35.24,147.13,31.73,15.74-1.35,28.17-11.51,36.63-4.31,10.93,17.15,18.13,36.41,21.15,56.52,1.35,12.18-2.28,20.73-38.75,19.79-36.47-.93-50.43.42-48.9,7.45,14.65,16.09,30.51,31.03,47.46,44.67,6.77,7.11,44.33-32.07,44.33-32.07-1.18,7.02-.78,14.22,1.18,21.07,3.05,15.74,13.54,140.02-63.71,175.9-29.95,16.58-77.84-12.44-102.03-30.46-24.11-18.02-93.24-87.91-117.09-107.62-23.77-19.8-51.02-.34-67.01-11.42-20.22-13.88-4.57-54.74-5.58-80.88-1.1-26.06-71.92-91.46-110.16-107.45-74.88-31.22-82.49-111.68-102.2-157.62-19.63-46.03-25.3-54.49-40.44-47.97-83.68,35.53-93.74,128.94-54.15,277.17,17.38,45.28,40.8,87.99,69.63,126.99,8.21,17.6,11.08,41.96.68,40.02-116.52-63.03-224.49-140.74-321.25-231.23-13.54-12.86-68.78,106.52,12.44,188.33,31.22,31.39,178.77,154.49,201.11,174.12,20.22,17.85-2.37,25.47-2.37,25.47l-3.55.51c-12.18,1.36-204.32,5.16-409.07-5.49-23.86-1.27-5.92,90.78,96.03,132.49,105.79,24.67,214.06,37.04,322.69,36.89,43.66,4.65-14.64,27.41-14.64,27.41,0,0-470.58,133.09-492.32,140.19-54.32,17.68,10.83,120.31,175.73,114.56,155.64-4.64,308.95-39.07,451.63-101.44,59.73-22.76,24.2,19.21,11.42,28.09-88.5,62.27-349,239.27-472.19,318.46-17.6,11.34-20.14,23.94-.17,45.18,96.45,102.54,279.12-14.89,351.37-55.08,84.18-46.96,284.87-198.4,300.44-181.9,6.09,6.43-5.5,63.03-129.11,195.52,13.04,12.64,26.86,24.45,41.37,35.37,0,0-59.22,71.66-99.75,115.91-16.33,17.94-54.49,55.84-64.81,53.89-10.41-2.03-63.71-59.65-81.9-60.66-11.34-.59-35.96,17.09-54.32,6.68-24.86-5.4-50.84-1.77-73.27,10.24-28.17,13.11-22.93,79.36-15.23,50,7.78-29.36,63.96-28.43,92.05,4.15,14.83,15.45,33.05,27.23,53.22,34.43,17.34,3.89,25.89,9.31,18.78,14.38-32.21,10.91-63.05,25.53-91.88,43.57-8.21,13.88-3.81,18.95-7.02,25.89-42.9,15.14-52.96,28.34-39.68,71.24,3.3,11.13,7.96,21.82,13.88,31.81,6.26-11.59,3.13-49.41,43.49-58.29,4.23-.93,11.42,5.08,18.95,5.08,32.64-9.61,62.76-26.27,88.24-48.82,10.74-13.62,8.21,7.87,1.18,20.9-33.93,62.61-21.32,100.94-18.36,102.03,7.78,2.88,12.01-2.88,17.18,9.14,12.12,37.3,38.03,68.56,72.42,87.4-13.42-29.79-19.81-62.27-18.7-94.93,6.35-3.21,11.34,1.27,18.95-3.21,9.93-15.02,15.6-32.44,16.41-50.43-1.1-26.14-15.31-34.18-14.98-49.83,1.24-11.63,5.12-22.83,11.34-32.74,9.3,18.22,20.5,35.41,33.42,51.27,31.39,33.17,25.72,40.78,58.55,27.5,6.6-2.71,50.43,69.21,50.43,69.21,8.64-20.79,11.62-43.51,8.63-65.82-3.13-12.27-15.14-17.77-23.52-28.43-8.46-10.66,14.89-24.2,3.55-41.2-63.37-60.58-69.29-39.85-85.54-79.36-11-26.65,10.41-44.76,32.57-71.41,55.5-66.92,57.36-66.33,90.19-105.42,13.71,9.05,21.49,17.68,40.44,31.56,61.76-90.87,114.73-172.77,172.68-194.17,57.87-21.32,84.01,12.52,82.49,47.63-2.79,62.02-126.99,195.27-126.99,195.27-44.15,42.28-84.66,88.21-121.07,137.32h0c-10.13,17.7-16.9,37.12-19.97,57.28-2.42,27.72-.6,55.66,5.41,82.83v.08c4.74,25.89,10.32,46.11,10.32,46.11,0,0,18.61-66.5,22.76-74.54,11.76-22.67,14.3,0,31.98,44.59,15.46,35.09,33.82,68.83,54.91,100.85l-.51-114.05c1.78-29.53,3.81-69.29,17.09-39.76,17.01,32.07,35.79,63.17,56.26,93.15,0,0,.59-23.27,2.37-51.27h-.34l.34-.08c5.7-47.56,16.53-94.37,32.32-139.6l-.51-.08.51-.08c9.05-16.75,49.33-87.06,98.23-94.42,48.82-7.45,53.05,79.61,49.66,98.4-5.65,31.49-14.64,62.3-26.82,91.89-4.65,9.31-43.06,81.64-47.97,95.44-34.69,79.78-11.35,172.91,56.86,226.91,3.74-45.01,13.68-89.28,29.53-131.57,9.81-14.38,23.52-23.77,33.59-9.56,25.21,47.61,55.02,92.64,89.01,134.44v.08h.17v-.08c33.99-41.8,63.8-86.83,89.01-134.44,10.07-14.21,23.77-4.82,33.59,9.56,15.85,42.29,25.79,86.56,29.53,131.57,68.21-54,91.54-147.13,56.86-226.91-4.91-13.79-43.32-86.13-47.89-95.44-12.21-29.58-21.23-60.39-26.9-91.89-3.38-18.78.85-105.84,49.66-98.4,48.9,7.36,89.17,77.67,98.23,94.42l.59.08-.59.08c15.78,45.24,26.64,92.04,32.4,139.6l.34.08h-.34c1.69,28,2.28,51.27,2.28,51.27,20.51-29.96,39.29-61.06,56.26-93.15,13.28-29.53,15.31,10.24,17.17,39.76l-.59,114.05c21.12-32,39.49-65.74,54.91-100.85,17.68-44.59,20.22-67.26,31.98-44.59,4.15,8.04,22.76,74.54,22.76,74.54,0,0,5.58-20.22,10.32-46.11v-.08c6.01-27.17,7.84-55.1,5.41-82.83-3.06-20.16-9.83-39.58-19.97-57.28h0c-36.39-49.12-76.89-95.06-121.07-137.32,0,0-124.2-133.25-126.91-195.27-1.61-35.11,24.54-68.95,82.41-47.63,57.96,21.41,110.92,103.3,172.77,194.17,18.87-13.88,26.65-22.51,40.36-31.56,32.83,39.09,34.69,38.5,90.19,105.42,22.17,26.65,43.57,44.76,32.66,71.41-16.33,39.51-22.25,18.78-85.62,79.36-11.34,17.01,12.01,30.54,3.55,41.2-8.38,10.66-20.39,16.16-23.52,28.43-2.99,22.32,0,45.03,8.63,65.82,0,0,43.83-71.92,50.43-69.21,32.83,13.28,27.16,5.67,58.55-27.5,12.92-15.86,24.12-33.05,33.42-51.27,6.22,9.91,10.09,21.11,11.34,32.74.42,15.65-13.88,23.69-14.98,49.83.82,17.98,6.49,35.41,16.41,50.43,7.61,4.48,12.69,0,18.95,3.21,1.12,32.66-5.28,65.13-18.7,94.93,34.4-18.84,60.3-50.1,72.42-87.4,5.16-12.01,9.39-6.26,17.17-9.14,2.96-1.1,15.57-39.43-18.36-102.03-7.02-13.03-9.56-34.52,1.27-20.9,25.44,22.56,55.54,39.23,88.16,48.82,7.61,0,14.72-6.01,18.95-5.08,40.36,8.88,37.23,46.7,43.57,58.29,5.86-10.02,10.52-20.7,13.88-31.81,13.2-42.9,3.13-56.09-39.76-71.24-3.21-6.94,1.27-12.01-6.94-25.89-28.86-18.04-59.72-32.67-91.97-43.57-7.02-5.08,1.52-10.49,18.78-14.38,20.18-7.18,38.4-18.97,53.22-34.43,28.17-32.57,84.35-33.5,92.05-4.15,7.7,29.36,12.94-36.89-15.23-50-22.43-12.01-48.41-15.64-73.27-10.24-18.36,10.41-42.9-7.28-54.32-6.68-18.19,1.02-71.49,58.63-81.81,60.66-10.41,1.95-48.48-35.96-64.89-53.89-40.53-44.25-99.75-115.91-99.75-115.91,14.53-10.92,28.38-22.74,41.46-35.37-123.69-132.49-135.28-189.09-129.19-195.52,15.57-16.5,216.25,134.95,300.52,181.9,72.17,40.19,254.83,157.62,351.28,55.08,19.97-21.24,17.51-33.84-.17-45.18-123.19-79.19-383.69-256.19-472.19-318.46-12.69-8.88-48.23-50.85,11.42-28.09h0Z"/>
      <path class="cls-4" d="M2067.69,642.03c-1.78.08-134.35,56.86-146.28,65.82-23.01-19.8-90.19-79.53-97.8-86.3v-.68l-.34.34-.34-.34v.68c-7.61,6.77-74.71,66.5-97.72,86.3-11.93-8.97-144.59-65.74-146.37-65.82,0,0,37.31,55.76,60.41,94,14.66,28.53,21.05,60.59,18.44,92.56h331.15c-2.61-31.97,3.78-64.03,18.44-92.56,23.1-38.24,60.41-94,60.41-94h0Z"/>
      <path class="cls-2" d="M1714.8,996.02c31.52-15.35,67.54-18.72,101.36-9.48l-85.54,68.95c-6.64-19.44-11.93-39.31-15.82-59.48h0Z"/>
      <path class="cls-2" d="M2089.21,1774.49c75.81-13.37,174.46-37.65,278.69-220.31-98.82-18.7-115.49-68.45-115.49-68.45l.08-.17c47.49-4.95,94.69,11.66,128.6,45.26,4.15-126.91,78.43-147.3,78.43-147.3l.17.08s31.47,70.31-64.13,154.32c47.66,4.72,90.66,30.63,117.09,70.56l-.08.17s-49.92,17.94-126.23-45.69c-113.63,207.12-237.15,251.88-297.14,251.88,1.23-13.43,1.23-26.94,0-40.36h0Z"/>
      <path class="cls-1" d="M1670.05,1646.96c2.17,74.42,10.09,148.56,23.69,221.75,16.56,100.16,51.49,196.4,103.05,283.85,12.37,20.65,26.43,40.23,42.05,58.55v.76l.34-.42.34.42.08-.84c15.56-18.31,29.59-37.86,41.96-58.46,51.55-87.46,86.49-183.69,103.05-283.85,13.6-73.2,21.52-147.34,23.69-221.75-1.18,1.18-337.07,1.18-338.25,0h0Z"/>
      <path class="cls-2" d="M1589.15,1774.49c-75.81-13.37-174.46-37.65-278.69-220.31,98.82-18.7,115.49-68.45,115.49-68.45l-.08-.17c-47.49-4.95-94.69,11.66-128.6,45.26-4.15-126.91-78.43-147.3-78.43-147.3l-.17.08s-31.47,70.31,64.13,154.32c-47.66,4.72-90.66,30.63-117.09,70.56l.08.17s49.92,17.94,126.23-45.69c113.63,207.12,237.15,251.88,297.14,251.88-1.23-13.43-1.23-26.94,0-40.36h0Z"/>
      <polygon class="cls-4" points="1932.45 2009.45 1932.45 1965.12 1823.47 1965.12 1823.47 1880.94 1920.69 1880.94 1920.69 1836.69 1823.47 1836.69 1823.47 1765.62 1920.01 1765.62 1920.01 1721.37 1757.9 1721.37 1757.9 2009.45 1932.45 2009.45"/>
    </g>
  </g>
</svg>