<?xml version="1.0" encoding="UTF-8"?>
<svg id="Calque_2" data-name="Calque 2" xmlns="http://www.w3.org/2000/svg" xmlns:xlink="http://www.w3.org/1999/xlink" viewBox="0 0 217.65 301.08">
  <defs>
    <style>
      .cls-1 {
        fill: url(#Dégradé_sans_nom_8);
      }

      .cls-2 {
        fill: #b5b5b5;
      }

      .cls-3 {
        fill: #aaa;
      }

      .cls-4 {
        fill: #fff;
      }

      .cls-5 {
        stroke: #000;
        stroke-miterlimit: 3.82;
        stroke-width: .3px;
      }
    </style>
    <radialGradient id="Dégradé_sans_nom_8" data-name="Dégradé sans nom 8" cx="124.04" cy="2337.7" fx="114.82" fy="2322.31" r="201.26" gradientTransform="translate(-50.1 -2127.34) scale(.95)" gradientUnits="userSpaceOnUse">
      <stop offset="0" stop-color="#4a8ac8"/>
      <stop offset=".55" stop-color="#12457a"/>
      <stop offset="1" stop-color="#07121f"/>
    </radialGradient>
  </defs>
  <g id="Calque_6" data-name="Calque 6">
    <g>
      <path id="path206" class="cls-1" d="M26.01,209.08C-.11,153.31-1.65,92.93.85,67.83c2.49-25.1,7.48-45.55,7.48-45.55,0,0,4.79-2.85,10.89-5.24C29.86,12.88,69.34,0,108.83,0h0c39.48,0,78.97,12.88,89.61,17.04,6.1,2.38,10.89,5.24,10.89,5.24,0,0,4.99,20.45,7.48,45.55,2.49,25.1.96,85.48-25.16,141.26-34.36,73.37-82.82,91.99-82.82,91.99,0,0-48.46-18.62-82.82-91.99Z"/>
      <path d="M108.51,293.42l-.19-.08c-4.4-2.16-13.42-7.19-24.42-16.54-14.26-12.12-34.85-34.19-51.89-70.54C9.14,157.46,6.67,107.15,6.67,87.79c0-6.83.29-13.35.83-18.84,1.86-18.73,5.22-35.11,6.58-41.29l.07-.3.35-.37c2.55-1.32,5-2.44,7.32-3.35.43-.17,43.21-16.53,87-16.53s86.57,16.36,87,16.53c2.3.9,4.71,1.99,7.15,3.25l.28.14.27.45c1.38,6.25,4.76,22.71,6.63,41.47.54,5.47.83,11.99.83,18.84,0,19.37-2.47,69.67-25.34,118.46-17.03,36.34-37.62,58.42-51.88,70.54-10.99,9.34-20.02,14.37-24.42,16.54l-.34.16-.49-.08ZM17.67,30c-1.3,6.58-4.32,21.84-6.06,39.35-.53,5.35-.81,11.72-.81,18.44,0,19.09,2.43,68.68,24.95,116.71,16.72,35.67,36.87,57.29,50.82,69.15,9.44,8.02,17.31,12.75,22.26,15.31,4.99-2.59,12.88-7.35,22.26-15.31,13.96-11.86,34.11-33.49,50.82-69.15,22.52-48.04,24.95-97.62,24.95-116.71,0-6.74-.28-13.11-.82-18.44-1.71-17.16-4.63-32.13-6.23-39.58-.55-.23-1.11-.47-1.67-.71-1.26-.54-2.56-1.1-3.81-1.58-1.73-.66-42.8-16.25-85.5-16.25S23.75,27.32,23.33,27.48c-1.83.71-3.73,1.56-5.66,2.52Z"/>
      <path class="cls-3" d="M108.54,293.27l-.15-.07c-4.4-2.16-13.41-7.19-24.39-16.52-14.25-12.11-34.82-34.17-51.85-70.49C9.29,157.43,6.82,107.14,6.82,87.79c0-6.83.29-13.34.83-18.83,1.86-18.73,5.22-35.1,6.58-41.27l.07-.3.31-.29c1.8-.93,4.39-2.19,7.27-3.32.43-.17,43.32-16.52,86.94-16.52s86.52,16.35,86.94,16.52c2.3.9,4.7,1.99,7.14,3.24l.28.14.21.38c1.39,6.31,4.74,22.66,6.61,41.41.55,5.47.83,11.98.83,18.83,0,19.36-2.47,69.64-25.33,118.4-17.02,36.32-37.59,58.38-51.85,70.49-10.99,9.34-20,14.36-24.39,16.52l-.29.14-.44-.07ZM108.83,11.08c-42.74,0-85.14,16.09-85.55,16.26-1.85.72-3.77,1.58-5.74,2.55-1.43,7.2-4.37,22.22-6.08,39.44-.53,5.35-.81,11.73-.81,18.45,0,19.1,2.43,68.71,24.96,116.78,16.73,35.69,36.89,57.33,50.86,69.2,9.47,8.05,17.36,12.79,22.36,15.37,5.14-2.67,12.97-7.39,22.36-15.37,13.97-11.87,34.13-33.51,50.86-69.2,22.53-48.06,24.96-97.68,24.96-116.78,0-6.73-.28-13.11-.82-18.45-1.71-17.22-4.65-32.25-6.25-39.67-1.79-.75-3.72-1.61-5.56-2.33-1.72-.66-42.8-16.26-85.56-16.26Z"/>
      <g id="path230">
        <path class="cls-4" d="M108.83,8.26c43.87,0,86.16,16.29,86.58,16.45,2.82,1.1,5.34,2.32,7.04,3.2,1.4,6.38,4.71,22.55,6.56,41.15.54,5.44.83,11.92.83,18.73,0,19.29-2.46,69.4-25.23,117.98-16.95,36.15-37.41,58.1-51.59,70.15-10.84,9.21-19.7,14.18-24.19,16.38-4.48-2.21-13.34-7.17-24.19-16.38-14.18-12.05-34.64-34-51.59-70.15C10.28,157.19,7.82,107.08,7.82,87.79c0-6.81.29-13.29.83-18.73,1.85-18.6,5.15-34.77,6.56-41.15,1.7-.88,4.22-2.1,7.04-3.2.42-.17,42.71-16.45,86.58-16.45h0ZM22.91,26.41c-1.87.73-3.83,1.6-5.82,2.59l-.29.14-.07.31c-1.61,7.46-4.56,22.54-6.27,39.78-.54,5.38-.82,11.8-.82,18.55,0,19.17,2.44,68.96,25.06,117.2,16.81,35.85,37.08,57.6,51.12,69.54,9.64,8.19,17.66,12.99,22.7,15.58l.3.16.3-.16c5.03-2.59,13.06-7.39,22.7-15.58,14.04-11.93,34.31-33.68,51.12-69.54,22.62-48.24,25.06-98.03,25.06-117.2,0-6.75-.28-13.16-.82-18.55-1.71-17.24-4.67-32.33-6.27-39.78l-.07-.31-.29-.14c-1.99-.99-3.94-1.86-5.81-2.59-.42-.16-42.48-16.33-85.92-16.33h0c-43.39,0-85.49,16.16-85.91,16.33Z"/>
        <path class="cls-4" d="M108.83,292.67l-.15-.07c-4.36-2.15-13.32-7.14-24.25-16.43-14.2-12.07-34.7-34.05-51.68-70.27C9.95,157.27,7.49,107.1,7.49,87.79c0-6.81.29-13.3.83-18.76,1.86-18.69,5.21-35.03,6.57-41.19l.03-.15.14-.07c1.65-.85,4.21-2.1,7.07-3.21.43-.16,42.99-16.47,86.7-16.47s86.28,16.31,86.7,16.47c2.28.89,4.66,1.97,7.07,3.21l.14.07.03.15c1.35,6.15,4.7,22.48,6.56,41.19.54,5.44.83,11.93.83,18.76,0,19.31-2.46,69.48-25.26,118.12-16.97,36.21-37.47,58.19-51.67,70.27-10.93,9.29-19.89,14.28-24.25,16.43l-.15.07ZM15.5,28.13c-1.37,6.26-4.68,22.45-6.52,40.96-.54,5.44-.83,11.91-.83,18.7,0,19.27,2.46,69.32,25.2,117.83,16.93,36.1,37.35,58.02,51.5,70.04,10.76,9.14,19.58,14.09,23.97,16.27,4.39-2.17,13.22-7.13,23.97-16.27,14.15-12.03,34.58-33.94,51.5-70.04,22.74-48.52,25.2-98.57,25.2-117.83,0-6.81-.29-13.27-.83-18.7-1.84-18.52-5.14-34.7-6.52-40.96-2.34-1.2-4.65-2.25-6.87-3.12-.42-.16-42.65-16.43-86.46-16.43S22.79,24.85,22.37,25.02c-2.75,1.08-5.23,2.28-6.87,3.12ZM108.83,290.63l-.45-.23c-5.05-2.59-13.09-7.4-22.76-15.62-14.07-11.96-34.37-33.74-51.21-69.65C11.76,156.82,9.32,106.98,9.32,87.79c0-6.75.28-13.18.82-18.58,1.72-17.27,4.67-32.36,6.28-39.82l.1-.47.43-.21c2-.99,3.96-1.87,5.84-2.6h0c.42-.16,42.24-16.35,86.04-16.35s84.3,15.68,86.04,16.35c1.88.73,3.84,1.61,5.84,2.6l.43.22.1.47c1.61,7.46,4.56,22.55,6.28,39.82.54,5.4.82,11.82.82,18.58,0,19.19-2.45,69.04-25.09,117.34-16.83,35.91-37.14,57.7-51.21,69.65-9.66,8.21-17.71,13.03-22.76,15.62l-.46.23ZM17.1,29.37l-.03.16c-1.61,7.45-4.55,22.51-6.27,39.74-.53,5.38-.82,11.79-.82,18.52,0,19.14,2.44,68.87,25.02,117.06,16.78,35.8,37.01,57.51,51.03,69.42,9.62,8.18,17.62,12.96,22.64,15.53l.15.08.15-.08c5.02-2.58,13.02-7.36,22.63-15.53,14.02-11.91,34.25-33.62,51.03-69.42,22.59-48.18,25.03-97.91,25.03-117.06,0-6.74-.28-13.14-.82-18.52-1.72-17.24-4.66-32.3-6.27-39.74l-.03-.16-.14-.07c-1.98-.98-3.93-1.85-5.79-2.58-1.73-.66-42.88-16.3-85.8-16.3S23.45,26.56,23.03,26.72h0c-1.86.73-3.81,1.59-5.79,2.58l-.14.07Z"/>
      </g>
      <g>
        <path d="M82.95,247.37h-2.84v2.17l2.22.8v14.71h3.1v-14.84c0-1.15-.18-1.9-.49-2.3-.27-.35-.97-.53-1.99-.53Z"/>
        <path d="M97.88,247.11c-1.95,0-3.41.44-4.34,1.24-.89.8-1.37,2.22-1.37,4.16,0,3.94,1.82,5.89,5.49,5.94h.09l2.92-1.68v2.92c0,.84-.22,1.51-.66,2.04-.44.53-1.11.84-2.08.84-.58,0-1.02-.18-1.37-.49-.35-.31-.58-.62-.66-.89,0-.09-.04-.18-.04-.27l-.04-.49h-2.88l.04.35c.09,1.28.49,2.3,1.24,3.1.84.89,2.17,1.33,3.9,1.33s3.15-.49,4.12-1.42c.93-.93,1.42-2.3,1.42-4.16v-7.18c0-1.99-.49-3.37-1.37-4.16-.93-.8-2.39-1.2-4.39-1.2ZM97.97,255.7h-.09c-.97,0-1.64-.31-2.04-.84-.4-.53-.58-1.28-.58-2.26,0-1.73.93-2.66,2.7-2.66,1.06,0,1.77.35,2.22.97.4.58.58,1.55.58,2.92l.04.22-2.84,1.64Z"/>
        <path d="M115.38,258.85l.8-.93,1.73-2.04c.4-.53.8-1.24,1.15-2.13.35-.84.58-1.68.58-2.48,0-1.28-.44-2.26-1.37-2.97-.93-.71-2.26-1.06-3.99-1.06-2.3,0-3.85.53-4.56,1.64-.4.53-.62,1.11-.75,1.68-.09.44-.18.97-.18,1.64l-.04.35h2.97l.04-.31c.04-.66.22-1.2.44-1.59.27-.35.75-.8,1.86-.8.84,0,1.46.22,1.82.66.35.44.49.89.49,1.33,0,.4-.13.93-.44,1.51l-.49.84-1.02,1.46c-.44.62-1.11,1.37-1.86,2.13l-3.46,3.85c-.4.53-.58,1.06-.58,1.6,0,.66.22,1.11.66,1.37.49.31,1.11.44,1.82.44h8.46v-2.61h-7.18l.53-.62s2.53-2.92,2.57-2.97Z"/>
        <path d="M130.58,247.24c-1.99,0-3.46.4-4.39,1.2-.4.35-.75.93-.97,1.64-.4,1.2-.62,3.1-.62,5.67v.97c0,1.24.04,2.3.13,3.1.09.84.27,1.64.49,2.35.27.75.58,1.33,1.02,1.68.44.44,1.02.75,1.73.97.71.27,1.59.35,2.61.35s1.9-.09,2.61-.35c.71-.22,1.28-.53,1.68-.93.44-.4.8-.97,1.02-1.68.27-.75.44-1.51.53-2.35.09-.84.09-1.86.09-3.1v-1.06c0-3.1-.4-5.36-1.24-6.6-.84-1.24-2.44-1.86-4.7-1.86ZM133.5,257.52c-.04,1.9-.18,3.15-.53,3.81-.35.71-1.15,1.06-2.39,1.06s-2.04-.35-2.39-1.06c-.35-.71-.53-1.99-.53-3.81v-2.88c0-1.68.18-2.79.58-3.5.35-.75,1.15-1.11,2.35-1.11s1.95.4,2.35,1.11c.35.71.53,1.91.58,3.59v2.79Z"/>
        <path d="M88.58,192.48v-9.92l-.04-.44-.27-.04c-1.64-.31-3.19-.66-4.65-1.02-.8-.22-1.59-.44-2.39-.66l-.4-.13v9.04c0,1.2-.27,1.99-.8,2.53-.62.58-1.46.66-2.08.66h-1.2v7.66h78.5l-2.79-7.66h-63.88Z"/>
        <path d="M100.05,84.43h1.55c2.3,0,2.61,1.46,2.61,2.7v25.25h.31c2.35-.04,4.7-.04,7.09.04h.35v-28h33.49l.04-.22c.22-.8,1.55-5.71,1.9-7l.09-.4h-47.45v7.62Z"/>
        <polygon points="111.97 203.65 104.62 203.65 104.22 203.69 104.22 235.28 111.97 235.28 111.97 203.65"/>
        <path d="M111.93,126.56h-.27c-2.48-.09-4.87-.13-7.13-.09l-.27.09-.04,17.72h-4.3v7.66h1.46c2.13,0,2.79.62,2.84,2.61v34.42l7.75.04v-37.08h25.7l1.86-7.66h-27.56v-17.41l-.04-.31Z"/>
        <polygon points="115.51 103.39 153.53 103.39 155.3 95.73 115.51 95.73 115.51 103.39"/>
        <path d="M76.75,103.39h.97c1.9,0,3.1,1.64,3.1,3.19v58.44l.04.22.22.09c1.86.8,3.9,1.46,6.11,2.04.31.09.62.13.93.22l.44.04v-64.24h11.61l.49.04v-7.71h-23.92v7.66Z"/>
        <path d="M155.74,166.48l-.13-.27-.27.09c-3.23.75-11.92,2.75-23.17,4.52-5.54.84-10.99,1.46-16.3,1.77l-.35.09v6.65l.04.44h.31c7.09-.44,13.38-1.28,17.41-1.9,12.63-1.95,22.06-4.21,24.68-4.83l.35-.09-.13-.35c-.44-1.06-2.13-5.27-2.44-6.11Z"/>
        <path d="M100.32,179.9h.35v-7.13h-.31c-5.27-.31-9.97-.97-14.04-2.04-9.88-2.53-21.66-8.55-21.66-22.77,0-8.51,4.16-15.02,12.4-19.36l.18-.09v-7.4l-.04-.49-.44.22c-12.67,5.36-19.36,14.75-19.36,27.11,0,14.66,9.66,25.21,27.11,29.68,4.61,1.2,9.92,1.95,15.82,2.26Z"/>
        <path d="M133.28,118.01c-8.77-1.37-25.74-3.32-40.8-1.28l-.35.04v6.82l.04.35.4-.04c14.27-2.08,30.92-.18,39.61,1.2,11.25,1.73,19.94,3.72,23.17,4.47l.27.09.13-.27c.31-.84,1.99-5.05,2.44-6.07l.13-.35-.35-.09c-2.61-.66-12.05-2.92-24.68-4.87Z"/>
        <path d="M99.88,55.46h.53c3.54-.13,6.11-1.2,7.71-3.19,1.59-1.99,2.39-5.18,2.39-9.53v-1.95c0-3.99-.84-7.04-2.44-9.04-1.59-1.95-4.03-2.97-7.22-2.97h-.44c-3.46.13-6.03,1.24-7.62,3.37-1.59,2.04-2.39,5.14-2.39,9.17v1.86c0,4.39.8,7.62,2.35,9.53,1.51,1.82,3.9,2.75,7.13,2.75ZM105.06,42.65c0,1.77-.13,3.28-.49,4.43-.13.66-.4,1.24-.71,1.68-.31.4-.75.75-1.33,1.06-.58.31-1.28.49-2.13.49-.8.04-1.51-.09-2.08-.35-.62-.31-1.02-.62-1.33-1.02-.75-.97-1.15-3.01-1.15-5.98v-1.33c0-2.35.27-4.16.75-5.4.58-1.51,1.86-2.26,3.85-2.3h.22c1.86,0,3.01.66,3.59,2.04.53,1.33.8,3.15.8,5.36v1.33Z"/>
        <path d="M121.54,55.28c2.44.09,4.92.18,7.27.31h.35v-5.09h-.31c-2.35-.13-4.78-.27-7.27-.35-1.06,0-1.82-.22-2.17-.53-.35-.35-.53-.97-.53-1.86v-18.74l-.35-.04c-1.59-.04-3.19-.04-4.78-.09h-.31v18.78c0,2.61.62,4.52,1.95,5.72,1.28,1.15,3.28,1.82,6.16,1.9Z"/>
        <path d="M25.05,64.27c.62.4,1.46.62,2.53.62.93,0,2.08-.18,3.41-.49,2.88-.71,5.76-1.33,8.51-1.9l.27-.09v-5.09l-.4.09c-2.75.58-5.49,1.2-8.2,1.82-1.28.31-1.82.18-2.08.04-.31-.22-.49-.8-.49-1.64v-3.32c2.39-.58,4.83-1.15,7.22-1.68l.22-.04.4-5.23-.44.13c-2.48.53-4.96,1.11-7.4,1.73v-5.32c3.68-.89,7.31-1.73,10.9-2.48l.27-.09v-5.09l-.4.09c-5.27,1.11-10.59,2.35-15.86,3.72l-.22.09v19.05c0,2.66.58,4.3,1.77,5.09Z"/>
        <path d="M75.82,56.83l.31-.04v-8.15c1.46-.18,2.92-.31,4.39-.44,2.61-.22,4.7-1.15,6.16-2.79,1.46-1.59,2.17-3.9,2.17-6.82s-.71-5.14-2.17-6.56c-1.51-1.46-3.59-2.08-6.25-1.86-3.1.31-6.29.62-9.44.97l-.31.04v26.18l.35-.04c1.59-.18,3.19-.35,4.78-.49ZM76.13,43.45v-7.75c1.37-.13,2.75-.27,4.12-.4.97-.09,1.73.13,2.22.58.66.58.97,1.59.97,3.06s-.27,2.44-.84,3.06c-.53.62-1.33.97-2.39,1.11-1.37.09-2.75.22-4.08.35Z"/>
        <path d="M48.09,60.77l.27-.04v-14.13c1.28,2.53,2.53,5.05,3.81,7.58.71,1.37,1.64,1.99,2.7,1.82,1.06-.18,1.95-1.02,2.61-2.53,1.24-2.97,2.48-5.89,3.72-8.82v13.96l.4-.04c1.59-.22,3.15-.44,4.74-.66h.31v-26.23l-.4.04c-1.55.22-3.1.44-4.7.66h-.18l-.04.18c-2.22,5.01-4.39,10.06-6.56,15.15-2.17-4.34-4.34-8.64-6.51-12.94l-.13-.22-.22.04c-1.55.31-3.1.62-4.65.93l-.27.04v26.18l.4-.04c1.55-.31,3.15-.62,4.7-.93Z"/>
        <path d="M136.87,56.12l.35.04v-26.23h-.31c-1.59-.13-3.19-.27-4.78-.35h-.35v26.18h.31c1.6.13,3.19.22,4.78.35Z"/>
        <path d="M153.53,57.85l.4.04v-10.37c2.66.35,5.41.75,8.2,1.15l.35.04.35-5.05-.27-.04c-2.84-.44-5.71-.84-8.64-1.2v-3.28c0-.89.13-1.51.49-1.77.31-.31.93-.4,1.82-.27,2.84.4,5.71.8,8.55,1.28l.4.04v-5.09l-.27-.04c-3.59-.58-7.22-1.11-10.81-1.59-1.99-.27-3.46,0-4.34.75-.84.75-1.28,2.17-1.28,4.16v20.6l.31.04c1.59.18,3.15.35,4.74.58Z"/>
        <path d="M163.58,56.52c0,1.28.18,2.17.62,2.66.4.53,1.2.84,2.44,1.06.44.09.84.13,1.15.13.62,0,1.06-.13,1.33-.4.44-.4.66-1.2.66-2.53s-.22-2.17-.62-2.66c-.4-.49-1.2-.84-2.44-1.06-1.24-.18-2.04-.09-2.53.27-.44.4-.62,1.2-.62,2.53Z"/>
        <path d="M180.82,62.68c.84.18,1.68.27,2.44.27,1.77,0,3.23-.49,4.34-1.51,1.59-1.46,2.44-3.9,2.44-7.22v-.27l-.27-.04c-1.46-.35-2.92-.71-4.39-1.02l-.35-.09-.04.4c-.18,1.82-.53,3.1-1.11,3.85-.49.66-1.46.84-2.92.53-1.46-.31-2.53-.97-3.23-2.08-.71-1.06-1.06-2.97-1.06-5.67v-2.22c0-.97.04-1.73.09-2.3.09-1.68.4-2.84.89-3.41.66-.8,1.73-1.02,3.19-.75,1.24.27,2.22.84,2.79,1.59.58.84,1.02,1.95,1.24,3.37l.04.22.22.04c1.46.31,2.92.66,4.39,1.02l.4.09v-.4c0-2.92-.84-5.36-2.48-7.27-1.68-1.95-3.85-3.19-6.47-3.77-1.82-.35-3.37-.35-4.65.04-3.32.93-5.01,4.56-5.01,10.77v2.17c0,7.71,3.19,12.32,9.52,13.65Z"/>
        <path d="M193.97,66c.62.13,1.11.22,1.46.22.49,0,.8-.13,1.06-.31.44-.35.62-1.15.62-2.48s-.18-2.17-.58-2.7c-.4-.53-1.2-.93-2.39-1.24-1.24-.31-2.04-.27-2.53.09-.44.35-.66,1.11-.66,2.48,0,1.28.22,2.17.62,2.66.4.58,1.2.97,2.39,1.28Z"/>
      </g>
      <g id="path220">
        <path class="cls-4" d="M82.93,245.63c1.24,0,1.64.26,1.77.42.14.17.38.68.38,2.08v14.5h-2.43v-14.6s-1.62-.6-2.2-.81v-1.6h2.48Z"/>
        <path class="cls-2" d="M85.41,262.96h-3.1v-14.7l-2.2-.81v-2.16h2.81c1.05,0,1.73.18,2.03.54.3.37.46,1.14.46,2.29v14.83ZM82.98,262.29h1.76v-14.16c0-1.43-.25-1.81-.31-1.87-.02-.03-.28-.3-1.51-.3h-2.14v1.03l2.2.81v14.5Z"/>
      </g>
      <g id="path222">
        <path class="cls-4" d="M97.9,245.36c1.88,0,3.27.37,4.13,1.11.84.71,1.26,2.03,1.26,3.9v7.2c0,1.75-.45,3.08-1.33,3.93-.88.86-2.18,1.3-3.85,1.3s-2.91-.41-3.69-1.23c-.69-.72-1.06-1.69-1.15-2.86h2.23c.02.16.02.32.06.48.1.37.35.74.75,1.08.41.36.96.54,1.62.54,1.05,0,1.83-.31,2.34-.93.49-.59.74-1.35.74-2.25v-3.52s-3.07,1.75-3.38,1.92c-3.5-.04-5.14-1.81-5.14-5.58,0-1.88.43-3.2,1.27-3.94h0c.86-.76,2.25-1.14,4.13-1.14h0ZM94.94,250.52c0,1.03.21,1.85.63,2.45.45.64,1.22.97,2.29.98h.2s3.07-1.8,3.07-1.8v-.4c-.02-1.44-.23-2.46-.66-3.1-.49-.73-1.31-1.09-2.46-1.09-1.97,0-3.05,1.06-3.05,2.98h0Z"/>
        <path class="cls-2" d="M98.12,263.13c-1.76,0-3.08-.45-3.93-1.34-.73-.76-1.15-1.8-1.24-3.07l-.03-.36h2.88l.06.47c0,.09.01.17.04.26.08.31.3.61.65.92.35.3.82.46,1.4.46.94,0,1.64-.27,2.09-.8.44-.53.66-1.22.66-2.04v-2.95l-2.96,1.68h-.09c-3.68-.04-5.46-1.98-5.46-5.91,0-1.98.47-3.39,1.38-4.19.92-.81,2.38-1.22,4.35-1.22s3.42.4,4.35,1.19c.92.78,1.38,2.18,1.38,4.15v7.2c0,1.85-.48,3.25-1.43,4.17-.95.92-2.32,1.39-4.09,1.39ZM93.65,259.03c.13.95.47,1.72,1.02,2.3.72.75,1.88,1.13,3.45,1.13s2.8-.4,3.62-1.2c.81-.79,1.22-2.04,1.22-3.69v-7.2c0-1.77-.39-3-1.15-3.65-.8-.68-2.12-1.03-3.92-1.03s-3.11.35-3.91,1.06c-.77.67-1.15,1.91-1.15,3.69,0,3.56,1.46,5.18,4.72,5.24l3.79-2.16v4.09c0,.98-.27,1.81-.81,2.47-.58.69-1.45,1.05-2.6,1.05-.74,0-1.36-.21-1.83-.62-.45-.39-.73-.81-.85-1.25-.02-.08-.03-.15-.04-.23h-1.56ZM98.14,254.28h-.29c-1.18-.02-2.04-.39-2.56-1.12-.46-.66-.69-1.54-.69-2.64,0-2.1,1.24-3.31,3.39-3.31,1.27,0,2.19.42,2.74,1.24.47.71.7,1.78.72,3.29v.59s-3.31,1.95-3.31,1.95ZM97.99,247.87c-1.78,0-2.72.91-2.72,2.64,0,.96.19,1.72.57,2.26.39.55,1.06.83,2.02.84h.1s2.82-1.66,2.82-1.66v-.21c-.01-1.37-.21-2.33-.61-2.92-.42-.63-1.16-.95-2.19-.95Z"/>
      </g>
      <g>
        <g id="path224">
          <path class="cls-4" d="M109.27,248.55c.12-.55.36-1.08.7-1.57h0c.66-.98,2.1-1.48,4.28-1.48,1.65,0,2.92.33,3.79.99.83.63,1.24,1.51,1.24,2.7,0,.75-.18,1.55-.53,2.37-.36.84-.74,1.52-1.13,2.02l-1.48,1.78s-1.01,1.19-1.01,1.19c0-.01-2.56,2.97-2.56,2.97l-1,1.16h7.54v1.95h-8.11c-.65,0-1.2-.13-1.64-.39-.23-.13-.53-.39-.53-1.08,0-.47.18-.95.53-1.41.05-.06.74-.83.74-.83l2.7-3.01c.76-.76,1.4-1.49,1.87-2.14l1.03-1.45.52-.86v-.03c.34-.65.5-1.2.5-1.69,0-.52-.19-1.02-.57-1.51-.41-.52-1.11-.79-2.09-.79-1.24,0-1.83.51-2.11.93-.3.45-.47,1.05-.52,1.77h-2.31c.02-.6.07-1.15.17-1.6h0Z"/>
          <path class="cls-2" d="M119.44,262.96h-8.44c-.71,0-1.32-.15-1.81-.43-.47-.27-.7-.72-.7-1.37,0-.55.2-1.09.6-1.61l3.46-3.87c.76-.75,1.39-1.48,1.85-2.11l1.03-1.45.51-.84c.3-.6.45-1.11.45-1.54s-.17-.88-.5-1.31c-.35-.44-.96-.66-1.83-.66-1.09,0-1.6.43-1.83.78-.26.39-.42.94-.47,1.61l-.02.31h-2.96v-.35c.04-.7.09-1.23.19-1.66h0c.13-.58.38-1.16.75-1.69.72-1.08,2.26-1.62,4.56-1.62,1.72,0,3.06.35,3.99,1.05.92.7,1.37,1.67,1.37,2.97,0,.8-.19,1.64-.56,2.5-.37.87-.77,1.57-1.18,2.09l-1.69,2.04h0c-.29.34-.8.94-.8.94-.05.06-2.56,2.97-2.56,2.97l-.53.61h7.15v2.62ZM114.04,247.11c1.08,0,1.87.31,2.35.91.43.55.65,1.12.65,1.72,0,.54-.17,1.14-.52,1.84l-.55.9-1.04,1.47c-.48.66-1.14,1.42-1.91,2.18l-3.42,3.83c-.29.39-.45.8-.45,1.19,0,.58.25.72.37.79.39.23.89.34,1.48.34h7.77v-1.28h-7.93l1.47-1.71c1.59-1.85,2.27-2.63,2.6-2.93l-.05-.04c.54-.64.84-.99,1.03-1.17l-.02-.02,1.48-1.78c.37-.47.73-1.13,1.08-1.94.33-.77.5-1.53.5-2.23,0-1.08-.36-1.88-1.11-2.44-.81-.61-2.01-.92-3.59-.92-2.07,0-3.42.44-4.01,1.32-.33.48-.55.97-.66,1.47h0c-.07.31-.12.71-.14,1.19h1.66c.08-.65.27-1.19.55-1.62.33-.49,1.01-1.08,2.39-1.08Z"/>
        </g>
        <g id="path226">
          <path class="cls-4" d="M130.57,245.49c2.17,0,3.66.57,4.42,1.7.79,1.17,1.21,3.4,1.21,6.44v1.04c0,1.22-.04,2.26-.12,3.08-.08.8-.24,1.56-.48,2.26-.22.66-.54,1.18-.93,1.55-.4.38-.93.67-1.59.89-.68.22-1.52.33-2.51.33s-1.83-.11-2.51-.34c-.66-.22-1.2-.52-1.6-.89-.39-.36-.7-.88-.93-1.55-.24-.71-.4-1.48-.48-2.28-.08-.82-.12-1.87-.12-3.11v-.96c0-2.53.2-4.41.58-5.58.22-.64.53-1.15.91-1.49.86-.72,2.25-1.09,4.14-1.09h0ZM127.93,248.89c-.4.75-.6,1.94-.61,3.65v2.91c.02,1.9.21,3.19.58,3.93h0c.43.84,1.34,1.27,2.7,1.27s2.26-.42,2.67-1.24c.36-.72.54-2.01.56-3.96v-2.81c-.02-1.77-.22-2.99-.61-3.75-.45-.85-1.34-1.28-2.64-1.28s-2.19.43-2.64,1.26Z"/>
          <path class="cls-2" d="M130.57,263.11c-1.02,0-1.89-.12-2.61-.36-.71-.24-1.29-.56-1.72-.96-.43-.39-.77-.96-1.01-1.68-.25-.74-.42-1.53-.5-2.35-.08-.82-.13-1.88-.13-3.14v-.96c0-2.56.2-4.48.6-5.68.24-.71.58-1.25,1.01-1.64.93-.78,2.4-1.17,4.36-1.17,2.28,0,3.87.62,4.7,1.85.83,1.23,1.27,3.52,1.27,6.62v1.04c0,1.24-.04,2.28-.13,3.12-.08.82-.25,1.61-.5,2.34-.24.71-.58,1.28-1.02,1.69-.43.41-1.01.73-1.72.96-.71.23-1.59.35-2.61.35ZM130.57,245.83c-1.8,0-3.12.34-3.93,1.01-.33.3-.61.75-.81,1.35-.37,1.13-.56,2.97-.56,5.47v.96c0,1.24.04,2.27.12,3.07.07.77.23,1.51.47,2.2.21.61.49,1.09.84,1.41.36.34.86.61,1.48.82.65.21,1.46.32,2.4.32s1.77-.1,2.41-.31c.61-.2,1.1-.47,1.46-.81.35-.33.64-.81.84-1.42.23-.68.39-1.42.46-2.19.08-.81.12-1.84.12-3.05v-1.04c0-2.97-.4-5.13-1.16-6.25-.7-1.03-2.1-1.55-4.15-1.55ZM130.59,260.98c-1.5,0-2.51-.49-2.99-1.45-.4-.79-.6-2.13-.62-4.08v-2.91c.02-1.77.23-3.01.65-3.81h0c.51-.96,1.5-1.44,2.93-1.44s2.43.49,2.94,1.46c.42.8.63,2.08.65,3.9v2.81c-.02,2.03-.21,3.33-.59,4.11-.47.94-1.47,1.42-2.97,1.42ZM128.22,249.04c-.37.7-.56,1.84-.57,3.5v2.91c.02,1.82.2,3.09.55,3.78.37.72,1.17,1.09,2.4,1.09s2.02-.35,2.38-1.05c.34-.67.51-1.91.52-3.81v-2.81c-.02-1.71-.2-2.89-.57-3.59-.38-.73-1.17-1.1-2.35-1.1s-1.96.37-2.35,1.09h0Z"/>
        </g>
      </g>
      <g id="g628">
        <g id="path244">
          <path class="cls-4" d="M88.24,190.74h63.98c.26.7,2.06,5.65,2.55,6.98h-77.68v-6.98h.76c.69,0,1.7-.07,2.41-.77.6-.59.88-1.47.88-2.78v-8.58c.78.23,1.57.45,2.37.66,1.5.38,3.07.73,4.71,1.02v.17s0,10.15,0,10.15v.13h.01Z"/>
          <path class="cls-2" d="M155.24,198.06h-78.48v-7.65h1.09s.05,0,.07,0c.63,0,1.5-.08,2.1-.67.53-.52.78-1.33.78-2.54v-9.03l.43.13c.77.23,1.56.45,2.36.65,1.47.38,3.04.72,4.69,1.02l.26.05.02.43v9.96h63.89l2.79,7.65ZM77.42,197.39h76.87l-2.31-6.32h-64.04l-.04-.43v-10.08c-1.56-.29-3.07-.62-4.47-.98-.66-.17-1.31-.35-1.96-.53v8.14c0,1.41-.31,2.36-.98,3.02-.77.76-1.82.86-2.56.86h-.51v6.32Z"/>
        </g>
        <g id="path246">
          <path class="cls-4" d="M104.54,109.84v-24.78c0-.75,0-3.05-2.95-3.05h-1.21v-6.98h46.71c-.34,1.26-1.68,6.2-1.89,6.98h-33.57v28c-2.43-.08-4.8-.1-7.09-.07v-.1h0Z"/>
          <path class="cls-2" d="M111.95,110.36h-.34c-2.39-.09-4.76-.11-7.07-.08h-.34s0-.44,0-.44v-24.78c0-1.27-.3-2.72-2.62-2.72h-1.54v-7.65h47.48l-.11.42c-.34,1.26-1.68,6.2-1.89,6.98l-.07.25h-33.49v28.01ZM106.64,109.6c1.53,0,3.09.03,4.65.07v-27.99h33.65c.31-1.14,1.29-4.77,1.71-6.31h-45.94v6.31h.88c2.18,0,3.29,1.14,3.29,3.38v24.54c.58,0,1.17-.01,1.77-.01Z"/>
        </g>
        <g id="path248">
          <path class="cls-4" d="M111.52,201.88h-6.86l-.12.02v30.96h7.09v-30.97h-.11Z"/>
          <path class="cls-2" d="M111.96,233.19h-7.75v-31.58l.41-.06h6.91s.12,0,.12,0l.31.02v31.62ZM104.87,232.52h6.42v-30.31h-6.42v30.31Z"/>
        </g>
        <g id="path250">
          <path class="cls-4" d="M111.63,186.47v-36.96h.08c3.38,0,24.77,0,25.71,0,.2-.8,1.4-5.74,1.7-6.98h-27.49v-17.73c-2.45-.09-4.82-.12-7.08-.08v.04s0,17.76,0,17.76h-.07c-2.02,0-3.81,0-4.2,0v6.98h1.13c2.29,0,3.12.77,3.15,2.96v34.11h.08s7.01,0,7.01,0v-.11s0,0,0,0Z"/>
          <path class="cls-2" d="M111.98,186.92h-7.77v-34.44c-.03-1.99-.72-2.63-2.82-2.63h-1.46v-7.65h4.27l.03-17.73.3-.08c2.27-.03,4.66,0,7.1.08h.3s.02.31.02.31v17.42s27.59,0,27.59,0l-1.86,7.65h-25.72l.02,37.07ZM104.87,186.25h6.42s0-37.08,0-37.08h.34s25.52.01,25.52.01l1.54-6.32-27.4-.03v-17.72c-2.2-.08-4.36-.1-6.42-.07v17.78s-.41.04-.41.04h-3.87v6.32h.79c2.47,0,3.44.92,3.48,3.29v33.78Z"/>
        </g>
        <g id="path252">
          <path class="cls-4" d="M115.85,100.97v-6.99h.07c6.89,0,37.52,0,38.96,0-.28,1.23-1.42,6.17-1.61,6.98h-37.43Z"/>
          <path class="cls-2" d="M153.54,101.3h-38.03v-7.68l.36.03h39.43s-1.76,7.65-1.76,7.65ZM116.18,100.64h36.83l1.45-6.32h-38.29v6.32Z"/>
        </g>
        <g id="path254">
          <path class="cls-4" d="M88.23,101.1v64.08c-.31-.07-.63-.15-.94-.23-2.21-.57-4.24-1.24-6.07-2.01l-.08-.03v-58.42c0-1.69-1.3-3.51-3.39-3.52h-.66v-6.98h23.23v6.99h-.09s-12,0-12,0v.13s0,0,0,0Z"/>
          <path class="cls-2" d="M88.56,165.53l-.41-.02c-.32-.08-.64-.15-.95-.23-2.21-.57-4.27-1.25-6.12-2.03l-.2-.09-.08-.25v-58.42c0-1.53-1.17-3.18-3.06-3.18h-.99v-7.65h23.9v7.68l-.45-.03h-11.64v64.23ZM81.47,162.68c1.78.74,3.77,1.4,5.9,1.94.17.05.35.09.52.13v-64.12s12.09,0,12.09,0v-6.32h-22.57v6.32h.32c2.3.01,3.73,2.01,3.73,3.85v58.2Z"/>
        </g>
        <g id="path256">
          <path class="cls-4" d="M115.85,177.26v-6.39h.08c6.33-.42,12.06-1.16,16.29-1.81,11.31-1.75,20.05-3.76,23.2-4.52.33.83,2.02,5.03,2.44,6.08-2.58.64-11.97,2.89-24.62,4.84-4.49.69-10.61,1.48-17.38,1.89v-.09s0,0,0,0Z"/>
          <path class="cls-2" d="M115.55,177.7l-.03-.44v-6.67l.36-.06c5.31-.34,10.78-.95,16.3-1.8,11.26-1.74,19.95-3.74,23.17-4.51l.28-.07.11.27c.33.83,2.02,5.03,2.44,6.08l.14.35-.37.09c-2.59.64-12.02,2.9-24.65,4.85-4.04.63-10.35,1.46-17.41,1.89l-.33.02ZM116.18,171.16v5.83c6.9-.43,13.04-1.25,17.01-1.86,12.06-1.86,21.19-4,24.22-4.74-.52-1.3-1.75-4.35-2.19-5.46-3.43.82-11.96,2.76-22.95,4.46-5.46.84-10.87,1.44-16.09,1.78Z"/>
        </g>
        <g id="path258">
          <path class="cls-4" d="M100.32,171.11v6.36c-5.41-.28-10.8-.96-15.75-2.23-17.3-4.43-26.83-14.87-26.83-29.39h0c0-12.2,6.72-21.52,19.13-26.81l.05-.02v7.19l-.07.03c-6.83,3.59-12.53,9.59-12.53,19.61,0,14.47,11.91,20.56,21.91,23.12,4.4,1.13,9.22,1.75,14.1,2.02v.12s0,0,0,0Z"/>
          <path class="cls-2" d="M100.68,177.82l-.37-.02c-5.9-.31-11.22-1.06-15.82-2.23-17.46-4.47-27.08-15.03-27.08-29.71,0-12.34,6.69-21.72,19.33-27.12l.46-.2.05.49v7.4l-.2.09c-8.25,4.34-12.4,10.84-12.4,19.33,0,14.26,11.78,20.26,21.66,22.79,4.06,1.04,8.78,1.72,14.03,2.01l.33.02-.02.44.02,6.71ZM76.59,119.53c-12.12,5.32-18.51,14.41-18.51,26.32,0,14.36,9.44,24.68,26.58,29.07,4.46,1.14,9.62,1.88,15.34,2.2v-5.82c-5.17-.3-9.82-.98-13.84-2.01-10.11-2.59-22.16-8.76-22.16-23.44,0-8.72,4.24-15.4,12.6-19.84v-6.48Z"/>
        </g>
        <g id="path260">
          <path class="cls-4" d="M92.45,114.96v6.54h.06c14.11-2.09,30.48-.27,39.71,1.16,11.31,1.75,20.05,3.76,23.2,4.52.33-.83,2.02-5.03,2.44-6.08-2.58-.64-11.97-2.89-24.62-4.84-9.41-1.45-25.94-3.29-40.71-1.31l-.08.02Z"/>
          <path class="cls-2" d="M155.61,127.57l-.28-.07c-3.21-.78-11.9-2.77-23.17-4.51-8.67-1.34-25.35-3.27-39.61-1.17l-.38.06-.06-.38v-6.82l.35-.06c15.06-2.02,32.04-.05,40.82,1.31,12.61,1.94,22.06,4.2,24.65,4.85l.37.09-.14.35c-.42,1.05-2.11,5.25-2.44,6.08l-.11.27ZM106.61,120.23c10.09,0,19.73,1.19,25.66,2.11,10.98,1.69,19.52,3.63,22.95,4.46.44-1.11,1.67-4.17,2.19-5.46-3.03-.75-12.18-2.89-24.22-4.74-8.71-1.35-25.51-3.3-40.41-1.34v5.87c4.49-.64,9.21-.89,13.83-.89Z"/>
        </g>
      </g>
      <g id="path278">
        <path class="cls-4" d="M39.43,60.07c-2.85.6-5.69,1.24-8.53,1.92-2.7.64-4.59.63-5.68-.08-1.09-.71-1.63-2.32-1.63-4.83v-18.79c5.26-1.37,10.54-2.62,15.84-3.74v4.45c-3.73.79-7.45,1.64-11.16,2.55v5.99c2.6-.64,5.2-1.25,7.8-1.83-.11,1.51-.23,3.01-.34,4.52-2.49.56-4.98,1.14-7.47,1.75v3.55c0,1,.21,1.64.64,1.92.43.28,1.2.28,2.33.01,2.72-.65,5.45-1.26,8.19-1.84v4.45h0ZM61.55,40.9c-1.46,3.44-2.91,6.88-4.37,10.34-.64,1.39-1.43,2.16-2.37,2.32-.94.16-1.73-.39-2.37-1.65-1.48-2.94-2.95-5.87-4.42-8.79,0,5.08,0,10.16,0,15.24-1.58.29-3.15.59-4.72.91v-25.53c1.55-.31,3.1-.61,4.65-.9,2.28,4.49,4.56,9.01,6.84,13.54,2.27-5.29,4.55-10.55,6.82-15.79,1.56-.22,3.12-.44,4.68-.64v25.53c-1.58.21-3.17.42-4.75.65v-15.24h0ZM86.42,30.16c1.41,1.37,2.11,3.49,2.11,6.33s-.7,5.05-2.11,6.61c-1.41,1.57-3.39,2.45-5.95,2.67-1.57.14-3.13.28-4.69.44v8.18c-1.59.16-3.17.33-4.76.52v-25.53c3.15-.36,6.3-.68,9.45-.96,2.56-.22,4.54.37,5.95,1.74h0ZM83.76,36.83c0-2.82-1.18-4.15-3.53-3.94-1.49.13-2.97.27-4.46.42v8.43c1.48-.15,2.97-.29,4.46-.42,1.14-.1,2.02-.49,2.62-1.19.61-.69.91-1.79.91-3.3h0ZM110.17,38.71v1.94c0,4.28-.77,7.39-2.32,9.33-1.55,1.95-4.03,2.94-7.44,3.04-3.41.1-5.88-.75-7.4-2.61-1.52-1.86-2.28-4.96-2.28-9.31v-1.86c0-3.97.77-6.97,2.32-8.98,1.55-2.01,4-3.1,7.35-3.2,3.36-.1,5.82.86,7.41,2.81,1.58,1.95,2.37,4.91,2.37,8.85h0ZM105.39,40.57c0-.44,0-.88,0-1.33,0-2.29-.27-4.12-.82-5.47-.64-1.57-2.02-2.33-4.12-2.27-2.13.06-3.52.91-4.16,2.51-.53,1.31-.79,3.15-.79,5.52v1.33c0,3.08.41,5.15,1.24,6.19.32.44.8.81,1.43,1.11.63.3,1.39.44,2.27.41.88-.03,1.63-.2,2.25-.52.62-.32,1.1-.72,1.44-1.18.34-.46.61-1.06.79-1.81.32-1.18.48-2.67.48-4.49h0ZM128.83,53.16c-2.43-.13-4.85-.24-7.28-.32-2.75-.09-4.74-.68-5.96-1.81-1.23-1.13-1.84-2.95-1.84-5.46v-18.43c1.59.02,3.19.04,4.78.08v18.43c0,1,.22,1.7.65,2.1.43.39,1.23.61,2.37.64,2.43.08,4.86.19,7.28.32v4.45h0ZM136.9,53.7c-1.59-.13-3.18-.24-4.77-.34v-25.53c1.59.1,3.18.22,4.77.34v25.53h0ZM164.84,35.97c-2.85-.46-5.71-.89-8.57-1.28-1-.14-1.7-.02-2.1.33-.4.36-.6,1.03-.6,2.04v3.55c2.97.38,5.95.8,8.91,1.26-.11,1.46-.23,2.93-.34,4.39-2.85-.44-5.71-.84-8.57-1.21v10.36c-1.58-.2-3.17-.4-4.75-.58v-20.33c0-1.89.39-3.18,1.18-3.88.79-.7,2.14-.93,4.05-.68,3.6.47,7.2.99,10.79,1.57,0,1.48,0,2.96,0,4.45h0ZM168.92,52.92c.35.43.53,1.25.53,2.44s-.18,1.95-.53,2.27c-.35.32-1.1.38-2.23.19-1.14-.19-1.89-.5-2.25-.94-.36-.44-.55-1.26-.55-2.45,0-1.2.18-1.95.55-2.26.36-.31,1.11-.38,2.25-.19s1.88.51,2.23.94h0ZM185.32,51.13c1.45.33,2.91.66,4.36,1.01,0,3.25-.77,5.57-2.3,6.96-1.53,1.39-3.7,1.77-6.5,1.18-6.17-1.29-9.27-5.65-9.27-13.34v-2.15c0-6.05,1.59-9.56,4.76-10.46,1.24-.38,2.75-.38,4.51-.01,2.57.54,4.67,1.76,6.28,3.63,1.61,1.87,2.42,4.22,2.42,7.04-1.46-.35-2.93-.69-4.39-1.02-.25-1.47-.69-2.63-1.32-3.48-.63-.86-1.62-1.43-2.98-1.72-1.58-.33-2.76-.05-3.53.85-.54.63-.86,1.84-.95,3.61-.05.56-.07,1.34-.07,2.32v2.22c0,2.75.36,4.7,1.09,5.85.75,1.15,1.91,1.89,3.48,2.22,1.57.33,2.65.11,3.25-.68.6-.79.99-2.13,1.17-4.03h0ZM196.28,58.85c.35.46.52,1.29.52,2.48s-.17,1.94-.52,2.23c-.35.29-1.08.29-2.21,0-1.12-.28-1.87-.66-2.23-1.13-.36-.47-.54-1.3-.54-2.5s.18-1.93.54-2.22c.36-.28,1.1-.29,2.23,0,1.12.28,1.86.66,2.21,1.12h0Z"/>
        <path class="cls-2" d="M195.46,64.12c-.4,0-.88-.07-1.47-.22-1.21-.31-2-.72-2.41-1.25-.41-.53-.61-1.41-.61-2.7s.21-2.12.67-2.48c.45-.35,1.28-.37,2.51-.06,1.21.31,1.99.71,2.39,1.24h0c.4.53.59,1.4.59,2.68s-.21,2.12-.64,2.49c-.24.2-.57.3-1.03.3ZM192.68,57.85c-.39,0-.56.08-.63.14-.15.12-.41.53-.41,1.96,0,1.12.16,1.89.47,2.3.31.41,1,.75,2.04,1.01,1.32.34,1.76.18,1.91.06.15-.13.4-.55.4-1.98s-.25-2.01-.46-2.28h0c-.3-.4-.98-.74-2.02-1-.59-.15-1.01-.2-1.31-.2ZM27.56,62.79c-1.07,0-1.91-.2-2.52-.61-1.2-.78-1.78-2.45-1.78-5.11v-19.05l.25-.06c5.25-1.37,10.59-2.63,15.85-3.74l.4-.08v5.13l-.26.05c-3.58.76-7.25,1.59-10.89,2.49v5.31c2.41-.59,4.9-1.17,7.4-1.73l.44-.1-.39,5.21-.24.05c-2.41.54-4.83,1.11-7.2,1.69v3.29c0,.87.17,1.44.49,1.64.23.15.78.27,2.07-.03,2.71-.64,5.47-1.26,8.19-1.84l.4-.09v5.13l-.26.05c-2.76.58-5.63,1.23-8.52,1.91-1.33.32-2.47.48-3.42.48ZM23.92,38.54v18.53c0,2.38.5,3.91,1.48,4.55.99.65,2.82.66,5.42.04,2.8-.67,5.58-1.29,8.27-1.86v-3.77c-2.59.55-5.21,1.14-7.78,1.75-1.23.29-2.08.27-2.59-.06-.53-.35-.79-1.07-.79-2.2v-3.81l.25-.06c2.38-.59,4.81-1.16,7.23-1.7l.29-3.83c-2.49.55-4.96,1.14-7.36,1.73l-.41.1v-6.67l.25-.06c3.65-.9,7.32-1.74,10.9-2.5v-3.77c-5.04,1.07-10.15,2.28-15.17,3.59ZM183.24,60.87c-.75,0-1.56-.09-2.42-.27-6.33-1.33-9.53-5.92-9.53-13.66v-2.15c0-6.21,1.68-9.83,5-10.79,1.29-.39,2.87-.4,4.67-.02,2.62.55,4.8,1.81,6.46,3.73,1.66,1.92,2.5,4.36,2.5,7.26v.42l-.41-.1c-1.46-.35-2.92-.69-4.39-1.01l-.22-.05-.04-.22c-.24-1.41-.66-2.54-1.26-3.34-.58-.79-1.52-1.33-2.78-1.59-1.45-.3-2.51-.06-3.2.74-.49.57-.79,1.72-.87,3.41-.04.56-.06,1.31-.06,2.3v2.22c0,2.67.35,4.58,1.03,5.67.7,1.08,1.77,1.76,3.26,2.07,1.45.3,2.4.13,2.92-.55.56-.74.93-2.03,1.1-3.86l.04-.37.37.08c1.45.33,2.91.66,4.36,1.01l.26.06v.26c0,3.33-.81,5.75-2.41,7.2-1.12,1.02-2.59,1.53-4.37,1.53ZM178.46,34.37c-.73,0-1.4.09-1.99.27-3,.86-4.52,4.27-4.52,10.15v2.15c0,7.48,2.94,11.74,9.01,13.01,2.71.58,4.75.21,6.21-1.1,1.41-1.28,2.15-3.45,2.19-6.45-1.24-.29-2.49-.58-3.73-.87-.2,1.77-.59,3.03-1.19,3.82-.67.89-1.87,1.16-3.59.8-1.66-.35-2.9-1.15-3.69-2.37-.77-1.22-1.14-3.19-1.14-6.03v-2.22c0-1.01.02-1.77.07-2.34.1-1.86.43-3.11,1.03-3.8.85-1,2.15-1.32,3.85-.96,1.43.3,2.5.92,3.18,1.85.63.85,1.08,1.99,1.34,3.41,1.26.28,2.51.57,3.77.87-.08-2.55-.86-4.7-2.33-6.4-1.57-1.81-3.62-2.99-6.1-3.52-.84-.18-1.63-.27-2.35-.27ZM42.97,59.68v-26.21l.27-.05c1.55-.31,3.1-.61,4.66-.9l.24-.05.11.22c2.17,4.28,4.35,8.58,6.52,12.91,2.18-5.07,4.36-10.11,6.54-15.14l.07-.17.18-.03c1.56-.22,3.13-.44,4.69-.64l.38-.05v26.2l-.29.04c-1.58.21-3.16.42-4.74.65l-.38.05v-13.99c-1.24,2.94-2.49,5.88-3.73,8.83-.69,1.5-1.57,2.34-2.62,2.52-1.08.18-2.01-.44-2.72-1.82-1.27-2.52-2.53-5.04-3.79-7.54v14.12l-.27.05c-1.57.29-3.15.59-4.72.91l-.4.08ZM43.64,34.01v24.86c1.35-.27,2.7-.53,4.06-.78v-14.97l.63-.15c1.47,2.92,2.95,5.85,4.42,8.79.57,1.11,1.22,1.6,2.02,1.47.82-.13,1.54-.85,2.12-2.13,1.45-3.45,2.91-6.89,4.37-10.33l.64.13v14.86c1.36-.19,2.72-.38,4.08-.56v-24.86c-1.37.18-2.75.37-4.12.56-2.25,5.18-4.5,10.39-6.75,15.62l-.28.65-.32-.64c-2.25-4.46-4.49-8.9-6.73-13.32-1.38.26-2.76.52-4.14.8ZM167.81,58.27c-.34,0-.72-.04-1.17-.11-1.23-.21-2.03-.55-2.45-1.06-.42-.51-.62-1.38-.62-2.67s.22-2.13.66-2.51c.45-.39,1.27-.48,2.52-.26,1.23.2,2.02.55,2.43,1.06.4.5.6,1.36.6,2.65s-.2,2.12-.64,2.52c-.28.26-.72.39-1.33.39ZM165.57,52.21c-.56,0-.81.12-.92.21-.16.14-.43.58-.43,2.01s.26,1.98.47,2.24c.21.26.74.61,2.05.83,1.34.22,1.8.03,1.95-.11.16-.14.42-.59.42-2.03s-.25-1.98-.45-2.23c-.21-.25-.73-.6-2.03-.82-.44-.07-.79-.1-1.06-.1ZM153.91,55.8l-.38-.05c-1.58-.2-3.16-.39-4.75-.57l-.3-.03v-20.63c0-1.98.43-3.37,1.29-4.13.87-.77,2.32-1.03,4.32-.76,3.61.47,7.24,1,10.8,1.57l.28.05v5.12l-.39-.06c-2.83-.46-5.71-.89-8.56-1.28-.88-.11-1.52-.03-1.83.25-.32.29-.49.89-.49,1.79v3.26c2.93.38,5.83.79,8.63,1.23l.3.05-.39,5.06-.35-.05c-2.77-.43-5.52-.82-8.19-1.16v10.36ZM149.16,54.55c1.36.16,2.73.32,4.09.5v-10.36l.37.05c2.68.34,5.45.73,8.23,1.16l.29-3.73c-2.79-.43-5.68-.84-8.6-1.22l-.29-.04v-3.84c0-1.11.23-1.86.71-2.29.48-.43,1.25-.57,2.37-.41,2.72.37,5.47.78,8.19,1.22v-3.77c-3.46-.56-6.99-1.07-10.5-1.53-1.8-.23-3.07-.03-3.79.6-.71.63-1.07,1.85-1.07,3.63v20.04ZM70.68,55.29v-26.2l.29-.03c3.16-.36,6.34-.69,9.46-.96,2.65-.23,4.73.39,6.21,1.83,1.47,1.43,2.21,3.64,2.21,6.57s-.74,5.21-2.2,6.84c-1.45,1.62-3.52,2.55-6.17,2.78-1.46.13-2.93.27-4.39.42v8.17l-.3.03c-1.59.16-3.17.33-4.75.52l-.37.04ZM71.35,29.68v24.87c1.36-.16,2.73-.31,4.09-.45v-8.17l.3-.03c1.57-.16,3.13-.31,4.7-.45,2.51-.22,4.38-1.06,5.73-2.56,1.34-1.5,2.02-3.65,2.02-6.39s-.67-4.79-2.01-6.1h0c-1.34-1.3-3.25-1.87-5.69-1.64-3.02.26-6.09.57-9.15.92ZM137.23,54.06l-.36-.03c-1.59-.13-3.18-.24-4.77-.34l-.31-.02v-26.2l.35.02c1.59.1,3.18.22,4.77.34l.31.02v26.2ZM132.46,53.05c1.37.09,2.74.19,4.1.29v-24.87c-1.37-.1-2.74-.2-4.1-.29v24.87ZM129.17,53.51l-.35-.02c-2.38-.13-4.83-.24-7.27-.32-2.87-.1-4.9-.72-6.18-1.9-1.29-1.19-1.95-3.11-1.95-5.7v-18.77h.34c1.59.02,3.19.05,4.78.09h.32v18.77c0,.9.18,1.53.54,1.85.37.34,1.1.52,2.16.56,2.49.08,4.94.19,7.29.32l.32.02v5.11ZM114.08,27.47v18.1c0,2.4.58,4.15,1.73,5.21,1.14,1.06,3.08,1.64,5.75,1.73,2.33.08,4.67.18,6.94.3v-3.78c-2.25-.12-4.59-.22-6.96-.3-1.24-.04-2.09-.28-2.58-.73-.51-.47-.76-1.23-.76-2.34v-18.11c-1.37-.03-2.74-.06-4.11-.07ZM99.9,53.35c-3.26,0-5.66-.92-7.15-2.74-1.57-1.91-2.36-5.12-2.36-9.52v-1.86c0-4.03.8-7.12,2.39-9.19,1.62-2.11,4.18-3.23,7.61-3.33.16,0,.31,0,.47,0,3.2,0,5.62.99,7.2,2.94,1.62,2,2.45,5.05,2.45,9.06v1.94c0,4.33-.81,7.54-2.39,9.54-1.59,2-4.17,3.06-7.69,3.16-.18,0-.35,0-.52,0ZM100.85,27.38c-.15,0-.3,0-.45,0-3.22.09-5.6,1.12-7.1,3.07s-2.25,4.9-2.25,8.78v1.86c0,4.25.74,7.31,2.21,9.1,1.45,1.77,3.8,2.6,7.14,2.49,3.36-.1,5.71-1.05,7.19-2.91,1.49-1.88,2.25-4.95,2.25-9.13v-1.94c0-3.85-.77-6.76-2.3-8.64-1.45-1.79-3.7-2.69-6.69-2.69ZM100.22,48.9c-.84,0-1.59-.15-2.21-.45-.68-.32-1.2-.74-1.55-1.22-.87-1.1-1.3-3.19-1.3-6.38v-1.33c0-2.4.27-4.3.82-5.64.69-1.74,2.19-2.66,4.46-2.72,2.27-.07,3.74.77,4.44,2.48.56,1.39.85,3.27.85,5.6v1.33c0,1.84-.17,3.38-.49,4.58-.19.78-.48,1.43-.85,1.92-.37.5-.9.92-1.56,1.27-.66.35-1.46.53-2.39.56-.07,0-.14,0-.22,0ZM100.68,31.82c-.07,0-.15,0-.22,0-2,.06-3.26.81-3.86,2.3-.51,1.26-.77,3.08-.77,5.4v1.33c0,2.99.39,5.01,1.16,5.98.29.4.73.74,1.31,1.02.58.28,1.31.42,2.12.38.83-.02,1.54-.19,2.11-.48s1.02-.66,1.33-1.08c.32-.42.56-.99.74-1.69.31-1.15.47-2.63.47-4.41v-1.33c0-2.24-.27-4.04-.8-5.35-.57-1.39-1.74-2.07-3.58-2.07ZM75.44,42.11v-9.1l.3-.03c1.48-.15,2.97-.29,4.46-.42,1.14-.11,2.08.15,2.73.75.77.71,1.16,1.89,1.16,3.52s-.33,2.76-.99,3.52c-.66.75-1.62,1.19-2.84,1.3-1.48.13-2.97.27-4.45.42l-.37.04ZM76.11,33.61v7.76c1.36-.14,2.73-.26,4.09-.39,1.07-.1,1.85-.45,2.4-1.08s.83-1.67.83-3.08-.32-2.46-.94-3.03c-.51-.47-1.25-.66-2.23-.58-1.38.12-2.77.25-4.15.39Z"/>
      </g>
      <path class="cls-5" d="M196.9,73.62c-21.31-6.02-53.78-13.25-87.5-13.25h-1.15c-33.67,0-66.14,7.22-87.45,13.25l-.27.04v2.26l.44-.13c21.44-6.02,53.96-13.25,87.28-13.25h1.15c33.49,0,65.97,7.22,87.32,13.29l.44.13v-2.3l-.27-.04Z"/>
      <g id="path276">
        <g>
          <path class="cls-4" d="M196.45,74.2v.89c-21.35-6.07-53.69-13.25-87.05-13.25h-1.15c-33.14,0-65.57,7.18-87.01,13.2v-.84c21.27-6.03,53.52-13.11,87.01-13.11h1.15c33.49,0,65.79,7.09,87.05,13.11Z"/>
          <path class="cls-4" d="M196.9,73.62c-21.31-6.03-53.78-13.25-87.5-13.25h-1.15c-33.67,0-66.14,7.22-87.45,13.25l-.27.04v2.26l.44-.13c21.44-6.03,53.96-13.25,87.28-13.25h1.15c33.49,0,65.97,7.22,87.32,13.29l.44.13v-2.3l-.27-.04ZM196.45,75.09c-21.35-6.07-53.69-13.25-87.05-13.25h-1.15c-33.14,0-65.57,7.18-87.01,13.2v-.84c21.27-6.03,53.52-13.11,87.01-13.11h1.15c33.49,0,65.79,7.09,87.05,13.11v.89Z"/>
        </g>
      </g>
    </g>
  </g>
</svg>