<svg clip-rule="evenodd" fill-rule="evenodd" stroke-linejoin="round" stroke-miterlimit="1.414" viewBox="0 0 100 100" xmlns="http://www.w3.org/2000/svg"><path d="m84.403 15.989.011.08c0 .003.672 5.158.672 12.823 0 9.786-1.094 23.663-6.084 36.136-4.988 12.473-13.883 23.549-29.471 27.692l-.017.005-.017-.002c-.012-.002-8.988-1.095-17.964-9.691-8.976-8.595-17.94-24.691-17.939-54.663 0-3.863.149-7.957.466-12.295l.006-.085z" fill="#dfa014"/><path d="m16.309 17.915h65.861l.017.141c.121 1.024.605 5.521.605 11.823 0 9.195-1.03 22.233-5.713 33.936-4.681 11.7-13.001 22.06-27.593 25.946l-.077-.011c-.976-.145-9.358-1.6-17.495-9.832-8.135-8.232-16.036-23.244-16.037-50.532 0-3.605.138-7.424.432-11.471z" fill="#fff"/><path d="m25.871 39.548.016-.033.035-.012c.007-.002 9.828-3.468 23.624-3.469 6.822 0 14.614.848 22.672 3.382.012.004.097.03.203.084a.998.998 0 0 1 .347.271.53.53 0 0 1 .112.32.64.64 0 0 1 -.094.318l-.006.01-.009.009a1.314 1.314 0 0 1 -.242.185c-.136.084-.322.17-.537.184l-.892 1.864c.035.034.082.084.13.148.09.123.185.299.185.512a.739.739 0 0 1 -.123.405 1.417 1.417 0 0 1 -.425.409l-.01.007-.012.004c-.006.002-8.379 2.871-21.298 2.871-6.194 0-13.433-.66-21.296-2.611l-.006-.002-.006-.002c-.002-.001-.154-.062-.345-.168-.191-.107-.421-.258-.583-.45a.7.7 0 0 1 -.187-.446c-.001-.172.085-.347.268-.512l-.647-1.861a2.067 2.067 0 0 1 -.275-.053c-.185-.051-.412-.141-.574-.32a.696.696 0 0 1 -.18-.479c0-.163.047-.35.155-.565zm-.484-6.238.048.04a.469.469 0 0 0 .287.103c.098-.001.205-.035.325-.178.116-.141.236-.394.327-.816a2.894 2.894 0 0 1 -.086-.703c.001-.297.046-.653.204-1.004a2.1 2.1 0 0 1 .868-.949l.086-.079c.057-.054.135-.128.217-.212.164-.166.346-.374.409-.505a.21.21 0 0 0 .024-.074v-.19l.148.117c.002.002.52.409.883.767.121.12.224.234.289.333l.014.022c.251-.197.96-.649 2.156-.648.149 0 .305.007.468.022l.981-.098-.439 1.76v.001c0 .003-.047.177-.139.397s-.227.485-.417.673a.688.688 0 0 1 -.442.216l.007.012a.635.635 0 0 0 .214.239c.065.04.14.066.236.066h.044l.805 1.006-.139.035-.091.024a7.437 7.437 0 0 0 -.23.068 4.37 4.37 0 0 0 -.6.23.908.908 0 0 0 -.27.182c-.027.031-.033.052-.033.063l.014.06-.037.036c-.009.01-.544.541-1.546.541-.414 0-.906-.091-1.468-.345l-.038-.007a3.57 3.57 0 0 0 -.564-.045c-.179 0-.372.016-.537.062-.166.047-.301.122-.379.232a.475.475 0 0 0 -.084.287c0 .02 0 .041.002.062l.005.048c.005.03.016.074.037.128.043.108.129.256.308.408.358.303 1.099.625 2.615.625l.369-.003c.31 0 1.607-.037 3.058-.598 1.453-.561 3.056-1.641 4.004-3.732l.052-.116a5.555 5.555 0 0 0 .518.427c.278.206.685.481 1.199.756 1.028.55 2.485 1.1 4.199 1.1.504 0 1.03-.048 1.575-.157l.006-.001h.007l.018-.002.056-.005a4.747 4.747 0 0 0 .927-.198c.567-.181 1.257-.518 1.76-1.139.335-.414.59-.952.675-1.663l-.003-.063a1.34 1.34 0 0 0 -.021-.17c-.023-.133-.073-.289-.155-.378a.27.27 0 0 0 -.21-.095c-.145-.002-.39.102-.74.429a5.466 5.466 0 0 1 -.627.658c-.376.331-.87.672-1.38.675a.99.99 0 0 1 -.57-.177l-1.2.369.087-1.483c.043-.004 0 0 0 0-.084.008-.21.016-.36.016-.274 0-.627-.028-.949-.149-.31-.115-.598-.325-.729-.679l-.758-.379.073-.089c.003-.004.255-.313.678-.625.424-.311 1.022-.626 1.718-.627a2.4 2.4 0 0 1 .168.006s.03.003 0 0l.086-1.385.94.188c-.016.005 0 0 0 0a2.216 2.216 0 0 1 1.694.216c.397.229.799.621 1.128 1.268 0 0 .094.036.146.052.104.032.24.064.357.064.089 0 .163-.019.207-.055.044-.035.077-.089.079-.209 0-.149-.064-.392-.238-.744-.166-.089-1.027-.569-1.493-1.361a1.985 1.985 0 0 1 -.287-1.005c0-.123.013-.25.04-.381l.091-.728.038-.023c.015-.009.161-.09.501-.09.259 0 .63.046 1.145.205.005.041.031.01 0 0a1.467 1.467 0 0 1 -.012-.192c-.001-.323.1-.835.58-1.367l.011-.012s.058-.031.128-.072c.071-.041.168-.098.272-.164.208-.129.447-.297.551-.417a.265.265 0 0 0 .051-.076l.041-.123.102.08.126.096c.077.059.184.139.302.224.234.171.514.364.674.444l.006.003.006.004c.005.003.161.112.318.313.157.2.318.495.318.866 0 .093-.01.19-.033.291a6.58 6.58 0 0 1 .294-.099c.269-.083.601-.167.88-.168.1 0 .193.011.277.04s.16.081.207.16l.021.036-.013.04-.002.006-.006.026a.536.536 0 0 0 .083.403l.008.012.004.013c.001.005.085.28.085.639 0 .232-.035.501-.157.753a1.297 1.297 0 0 1 -.653.626 9.877 9.877 0 0 0 -.415.397c-.236.24-.52.552-.705.832-.124.186-.199.36-.197.467a.156.156 0 0 0 .042.115l.023.023.007.048a.229.229 0 0 0 .015.048c.015.038.04.079.079.104a.2.2 0 0 0 .108.029c.133.002.401-.104.835-.504.062-.099.484-.761 1.103-1.117.223-.128.474-.215.743-.216.157 0 .32.031.484.099l.013.002.07.007c.06.005.144.01.237.01.186.001.413-.022.56-.097l.103-.051.028.111c0 .003.154.614.155 1.066 0 .086-.005.166-.02.238l-.004.019c.104-.017.231-.029.373-.029a2.187 2.187 0 0 1 1.793.898l.538.43-.137.062-.065.032c-.042.02-.1.05-.167.086a3.01 3.01 0 0 0 -.435.28.814.814 0 0 0 -.196.206.184.184 0 0 0 -.028.086v.054l-.046.026c-.003.001-.181.103-.436.205-.256.102-.588.206-.907.206-.126 0-.251-.016-.368-.058.018.073.039.161.06.257.055.257.111.569.111.808a.94.94 0 0 1 -.018.198.285.285 0 0 1 -.085.156.18.18 0 0 1 -.122.045h-.022l-.019-.01-.024-.011-.069-.033a4.498 4.498 0 0 0 -.234-.097c-.185-.071-.416-.14-.575-.139a.327.327 0 0 0 -.123.02.1.1 0 0 0 -.055.047l-.017.035-.037.012c-.007.002-.135.041-.343.041a1.946 1.946 0 0 1 -1.018-.302c-.395-.241-.824-.661-1.219-1.376l-.045-.007a2.041 2.041 0 0 0 -.222-.013c-.132 0-.286.015-.422.064a.573.573 0 0 0 -.324.258.7.7 0 0 0 -.08.351c0 .157.035.356.12.602l.054.102c.039.068.097.167.179.285.162.236.415.553.77.869.712.632 1.835 1.265 3.501 1.265 1.537 0 3.54-.539 6.106-2.133l.082-.051.047.084.026.046a7.745 7.745 0 0 0 .409.609c.292.394.73.921 1.313 1.448 1.168 1.053 2.912 2.102 5.239 2.102 1.031 0 2.176-.205 3.44-.71l.009-.017a1.164 1.164 0 0 0 .132-.475.488.488 0 0 0 -.21-.42c-.164-.121-.463-.216-.97-.215l-.169.003c-.127.048-.993.371-1.842.372-.306 0-.61-.042-.879-.159-.26-.113-.486-.3-.631-.581l-.048-.026a7.668 7.668 0 0 0 -.183-.095 5.358 5.358 0 0 0 -.494-.223.827.827 0 0 0 -.238-.061h-.164l.086-.14a6.39 6.39 0 0 1 .244-.36c.146-.199.339-.439.536-.605.121-.099.242-.178.374-.193a.071.071 0 0 0 .01-.037c0-.02-.007-.054-.046-.108a.918.918 0 0 0 -.224-.2 1.476 1.476 0 0 1 -.497-.364c-.249-.271-.495-.723-.497-1.426l-.195-.782.108-.008c.001 0 .28-.022.592-.043.309-.022.645-.043.785-.043a3.49 3.49 0 0 1 1.249.11c.32.092.648.251.901.524.139-.179.465-.583.776-.866.137-.124.27-.226.397-.278l.074-.029.04.068.034.058.091.144c.076.116.177.262.275.378.065.076.13.14.177.169a.13.13 0 0 0 .041.02l.057-.086.079.068c.005.004.261.227.519.628.257.4.516.981.516 1.697 0 .187-.017.384-.058.588a1.748 1.748 0 0 0 .04.317c.038.182.118.394.262.525a.553.553 0 0 0 .391.145c.087 0 .189-.015.305-.051l.014-.004.04-.004a.209.209 0 0 0 .072-.03c.049-.034.105-.092.108-.265 0-.21-.103-.584-.458-1.196l-.002-.004-.002-.003c-.003-.008-.123-.265-.124-.628a1.5 1.5 0 0 1 .218-.786c.164-.272.439-.539.877-.761l.46-.553.063.026c.002 0 .198.081.445.214.246.133.543.317.75.532.1.106.181.22.219.347.128-.114.34-.286.617-.458.471-.293 1.134-.589 1.898-.589.682-.001 1.442.239 2.199.915l.123.11-.158.047-.056.018c-.037.013-.093.032-.165.059a8.747 8.747 0 0 0 -.619.261c-.526.243-1.26.635-2.087 1.228-1.655 1.185-3.684 3.171-5.181 6.377l-.035.077-.189-.068-.327-.111a41.567 41.567 0 0 0 -1.272-.395 64.177 64.177 0 0 0 -4.802-1.202c-4.122-.875-9.976-1.749-16.897-1.749-6.846 0-14.736.855-23.029 3.412l-.087.026-.05-.151a10.24 10.24 0 0 0 -.368-.88 13.525 13.525 0 0 0 -1.337-2.23c-1.26-1.708-3.306-3.648-6.463-4.586l-.154-.046.118-.11c.004-.003.278-.259.723-.515s1.061-.515 1.748-.516c.713-.001 1.499.285 2.217 1.125l.016.018.03.023.01.003.003-.002.002-.001a.15.15 0 0 0 .034-.047c.031-.058.065-.176.087-.374l.005-.047.041-.023.025-.015.072-.045c.061-.039.148-.097.248-.171.201-.147.453-.358.661-.608l.073-.087.085.108.041.051c.036.043.087.103.148.17.121.133.282.293.429.394a.49.49 0 0 0 .24.105h.033l.025.021c.004.003.208.171.415.448.206.277.416.664.417 1.109.001.311-.107.647-.385.973l-.005.01a1.237 1.237 0 0 0 -.222.659c0 .073.017.125.047.157s.081.06.191.061h.035zm32.26-4.184.007.01z" fill="#dfa014"/><path d="m27.453 40.68c8.46-2.524 16.132-3.367 22.605-3.367 6.499 0 11.788.849 15.453 1.698 1.832.424 3.258.848 4.225 1.166.483.159.853.291 1.1.384.124.046.218.083.28.107l.004.002-.784 1.647-2.374-.648 2.125-.393-1.393-1.095-3.131.369.449.524c.056.012 0 0 0 0-.385-.081-1.083-.224-1.758-.361l-1.271-.256c.332-.1.545-.272.674-.456.186-.261.204-.532.204-.634l-.001-.043-.003-.029-.019-.022c-.387-.46-.832-.608-1.218-.607a2.001 2.001 0 0 0 -1.023.312 1.525 1.525 0 0 0 -.186-.012c-.313-.002-.526.121-.643.294-.117.171-.145.377-.145.552 0 .102.01.195.021.265 0 0 .006.04 0 0-2.849-.499-6.302-.665-9.653-.665-6.149 0-11.952.562-13.015.67a.746.746 0 0 0 .068-.3.629.629 0 0 0 -.196-.447c-.171-.173-.41-.277-.608-.345a2.656 2.656 0 0 0 -.332-.088 1.23 1.23 0 0 0 -.794-.26 2.21 2.21 0 0 0 -.831.177h-.002l-.002.001c-.253.127-.431.251-.55.376-.118.125-.179.258-.178.388a.49.49 0 0 0 .075.254c.082.134.214.244.364.34.168.107.362.196.538.266-.16.017-.343.043-.539.073-.864.136-1.983.374-2.462.479l.384-.538-3.123-.276-1.281 1.183 1.997.384-2.349.569-.702-1.638z" fill="#fff"/><path d="m29.401 57.456-.082-.041.017-.033.035-.013c.006-.002 8.385-2.959 20.156-2.96 5.82 0 12.469.724 19.344 2.886.011.003.084.026.175.072a.86.86 0 0 1 .301.236.46.46 0 0 1 .098.28.56.56 0 0 1 -.081.278l-.015.02c-.004.003-.081.081-.209.16a1.038 1.038 0 0 1 -.457.158l-.753 1.574c.029.029.067.07.105.121.078.106.16.259.161.445a.65.65 0 0 1 -.107.352c-.076.12-.194.238-.367.354l-.01.006-.011.004c-.007.003-7.151 2.45-18.173 2.451a75.46 75.46 0 0 1 -18.17-2.228l-.006-.002-.006-.002c-.002-.001-.132-.053-.296-.144a1.851 1.851 0 0 1 -.501-.387.614.614 0 0 1 -.163-.389c0-.15.074-.301.227-.441l-.546-1.572a1.594 1.594 0 0 1 -.228-.044c-.16-.044-.356-.121-.496-.276a.614.614 0 0 1 -.158-.418c0-.142.042-.304.134-.488zm10.792-19.158.009-.002 3.893-.346.016.004a.974.974 0 0 1 .157.06.749.749 0 0 1 .268.201.4.4 0 0 1 .09.249.522.522 0 0 1 -.095.283 1.387 1.387 0 0 1 -.301.313l-.021.017-3.842.349-.027-.018c-.004-.004-.297-.195-.459-.438a.51.51 0 0 1 -.096-.273.326.326 0 0 1 .104-.238.73.73 0 0 1 .304-.161zm13.97-.32.03-.031 4.196.35.022.017c.003.003.091.073.181.181.089.108.187.252.189.424a.394.394 0 0 1 -.139.298c-.095.086-.236.153-.438.204l-.015.004-4.069-.347-.014-.006a.518.518 0 0 1 -.149-.101.46.46 0 0 1 -.15-.341c0-.18.097-.394.356-.652l.065.065zm-6.826.272.059-.031a4.737 4.737 0 0 1 2.015-.457c.52 0 1.099.094 1.677.369l.006.003.005.004c.004.003.042.028.082.073s.087.114.088.208c.001.095-.056.192-.168.269-.112.079-.282.151-.546.217l-.003.001-.003.001c-.003 0-.737.13-1.499.13-.286 0-.576-.018-.835-.07-.26-.052-.49-.135-.655-.279a.626.626 0 0 1 -.211-.365l-.001-.008z" fill="#dfa014"/><path d="m33.83 60.612c1.283-.454 6.755-2.201 14.958-2.201 4.641 0 10.156.559 16.281 2.227-1.293.383-6.709 1.825-14.888 1.825-4.642 0-10.175-.464-16.351-1.851zm1.21-1.978.321-.449-2.694-.238-1.116 1.031 1.669.321-1.932.469-.589-1.374a70.322 70.322 0 0 1 6.816-1.668c.116-.037.286-.08.476-.09a65.992 65.992 0 0 1 11.973-1.108c5.542 0 10.054.724 13.178 1.447 1.563.362 2.779.724 3.603.995.413.136.727.249.939.327l.228.088-.658 1.381-1.957-.533 1.784-.331-1.216-.955-2.702.318.374.436c-.335-.071-.907-.187-1.46-.3l-1.034-.208c.257-.088.427-.229.532-.378a.968.968 0 0 0 .177-.549l-.001-.037-.003-.03-.019-.022c-.332-.395-.717-.523-1.049-.522-.43.001-.773.2-.876.266.012.001-.019.012 0 0a1.219 1.219 0 0 0 -.155-.01c-.271-.002-.458.105-.56.256a.853.853 0 0 0 -.127.479c0 .079.007.151.015.209-2.427-.423-5.366-.564-8.217-.564-5.204 0-10.117.471-11.081.569a.556.556 0 0 0 -.121-.631c-.149-.149-.355-.239-.524-.297a2.198 2.198 0 0 0 -.282-.075 1.06 1.06 0 0 0 -.683-.223 1.93 1.93 0 0 0 -.078.002l-.476.09c-.098.031-.158.059-.161.06h-.001l-.002.001c-.217.109-.37.215-.473.324a.497.497 0 0 0 -.156.34c0 .081.026.157.066.224a.982.982 0 0 0 .315.294c.129.082.274.151.411.208a9.82 9.82 0 0 0 -.407.057c-.717.112-1.641.308-2.067.4zm-3.952-15.341c1.404-.502 7.858-2.599 17.592-2.599 5.455 0 11.94.658 19.144 2.625-1.418.424-7.804 2.156-17.511 2.156-5.457 0-11.963-.547-19.225-2.182z" fill="#fcfcfc"/><path d="m32.221 72.626.017-.034.035-.012c.006-.002 7.124-2.514 17.123-2.514 4.944 0 10.592.614 16.432 2.451.01.003.073.022.151.062a.75.75 0 0 1 .26.204c.049.065.086.15.086.247a.49.49 0 0 1 -.071.243l-.006.01-.009.009c-.003.004-.07.07-.18.138a.903.903 0 0 1 -.386.136l-.632 1.321a.817.817 0 0 1 .083.097.65.65 0 0 1 .14.386.565.565 0 0 1 -.093.306 1.04 1.04 0 0 1 -.316.305l-.009.006-.012.004c-.006.003-6.075 2.082-15.438 2.082-4.489 0-9.735-.478-15.434-1.893l-.006-.001-.006-.003c-.002-.001-.113-.045-.253-.123a1.577 1.577 0 0 1 -.429-.331.538.538 0 0 1 -.142-.34c0-.129.063-.259.191-.378l-.459-1.318a1.499 1.499 0 0 1 -.186-.037.886.886 0 0 1 -.428-.239.533.533 0 0 1 -.138-.364c0-.123.036-.262.115-.42zm4.547-5.033.616.77-.139.034-.1.027c-.061.018-.146.043-.237.074-.181.06-.392.149-.484.228a.149.149 0 0 0 -.044.051l-.003.007.013.05-.037.037c-.009.01-.403.399-1.138.4-.303 0-.662-.067-1.071-.252a1.492 1.492 0 0 0 -.811.008.467.467 0 0 0 -.261.158.32.32 0 0 0 -.056.193l.002.043.001.011.002.022c.004.02.011.05.025.088.03.074.09.178.216.285.253.214.783.447 1.878.447l.212-.003h.056a6.448 6.448 0 0 0 2.207-.431c1.047-.405 2.202-1.182 2.886-2.69l.052-.116.112.103.059.049c.051.043.128.105.228.179.201.149.494.347.865.546.743.398 1.794.794 3.03.794.364 0 .743-.035 1.136-.113l.007-.001.059-.005a3.565 3.565 0 0 0 .666-.143c.408-.13.903-.372 1.264-.817.239-.296.422-.68.483-1.19v-.007l-.002-.036a1.253 1.253 0 0 0 -.015-.12.541.541 0 0 0 -.107-.261.163.163 0 0 0 -.133-.06c-.093-.003-.266.068-.517.302-.03.038-.206.257-.456.478-.275.241-.635.493-1.017.496a.744.744 0 0 1 -.411-.122l-.006-.004-.893.275.064-1.082c-.06.005-.14.009-.234.009-.2 0-.458-.021-.696-.11-.226-.083-.44-.238-.54-.497l-.568-.284.072-.089c.004-.004.187-.23.497-.457.309-.227.746-.459 1.258-.459.033 0 .066 0 .099.002l.063-1.007.703.141a1.637 1.637 0 0 1 1.241.16c.291.168.583.454.823.921l.004.002c.022.008.054.02.091.031a.85.85 0 0 0 .251.045.217.217 0 0 0 .135-.034c.024-.02.045-.049.046-.131.001-.101-.043-.271-.165-.521-.138-.074-.749-.421-1.085-.992l-.009-.016c-.034-.06-.202-.574-.202-.724a1.539 1.539 0 0 1 .029-.281l.068-.538.038-.023c.015-.01.125-.069.375-.069.185 0 .444.032.8.139a1.103 1.103 0 0 1 -.004-.104c-.001-.239.075-.617.427-1.007l.01-.012.014-.008.083-.046c.051-.03.121-.071.196-.118.149-.094.322-.216.393-.298a.165.165 0 0 0 .032-.046v-.001l.041-.123.103.08.09.069c.056.043.134.101.219.163.169.123.372.263.485.319l.006.003.005.003c.005.004.12.084.236.233.116.148.236.367.236.643 0 .055-.005.112-.015.172.05-.018.108-.038.172-.058.195-.06.438-.122.644-.122a.65.65 0 0 1 .21.03.304.304 0 0 1 .163.127l.021.036-.013.04s-.011.059-.011.088c0 .056.012.13.062.205l.008.012.004.013c.001.005.063.207.063.47 0 .111-.011.233-.043.356 0 0-.766.862-.852.949a4.298 4.298 0 0 0 -.507.599c-.089.132-.141.257-.139.324.001.034.008.049.023.065l.023.023.003.032.002.009.01.031c.01.025.026.05.047.063.015.01.033.017.065.017.084.003.275-.069.585-.356.052-.081.357-.556.807-.815.164-.094.35-.159.55-.159.116 0 .237.022.358.072l.006.001.05.005c.042.004.102.007.169.007.133.001.295-.017.394-.068l.103-.051.028.111c0 .004.113.447.113.779a.971.971 0 0 1 -.011.156c.07-.01.15-.016.239-.016a1.61 1.61 0 0 1 1.317.658l.419.335-.136.062-.047.023c-.03.015-.072.036-.12.062a2.146 2.146 0 0 0 -.311.2.582.582 0 0 0 -.136.143.104.104 0 0 0 -.017.049v.053l-.046.027c-.003.001-.133.075-.319.15-.187.074-.43.151-.667.151a.844.844 0 0 1 -.23-.029c-.01-.041-.036-.011 0 0l.032.142c.04.187.081.414.081.591a.64.64 0 0 1 -.014.149.23.23 0 0 1 -.069.127.158.158 0 0 1 -.105.038h-.022l-.036-.018-.05-.022a2.609 2.609 0 0 0 -.168-.071 1.307 1.307 0 0 0 -.407-.099.24.24 0 0 0 -.08.012l-.026.023-.018.035-.037.012c-.007.002-.102.031-.256.031a1.44 1.44 0 0 1 -.75-.223c-.289-.176-.601-.481-.886-.995l-.02-.003a1.298 1.298 0 0 0 -.158-.009.9.9 0 0 0 -.297.045.389.389 0 0 0 -.222.175.484.484 0 0 0 -.054.242c0 .11.024.251.085.426l.007.015.031.056c.027.049.069.12.128.205.117.17.298.398.554.625.512.455 1.319.91 2.52.91 1.107 0 2.553-.389 4.41-1.542l.082-.051.047.085s.005.011.018.032l.059.096c.052.082.131.201.236.343.211.285.527.665.948 1.046.843.76 2.1 1.516 3.778 1.516.741 0 1.565-.147 2.474-.509l.002-.004a.755.755 0 0 0 .039-.083.67.67 0 0 0 .054-.25.327.327 0 0 0 -.142-.284c-.112-.082-.323-.151-.687-.151l-.117.003c-.106.04-.727.268-1.34.269-.224 0-.448-.031-.647-.117a.937.937 0 0 1 -.466-.426l-.028-.015a9.965 9.965 0 0 0 -.132-.068 3.533 3.533 0 0 0 -.355-.16.585.585 0 0 0 -.163-.043h-.165l.086-.141c.001-.001.072-.116.178-.262.107-.145.247-.32.393-.443a.588.588 0 0 1 .267-.143l.002-.004c-.001-.008-.003-.027-.029-.063a.646.646 0 0 0 -.153-.137 1.09 1.09 0 0 1 -.367-.269c-.184-.2-.365-.534-.367-1.047l-.148-.593.109-.008s.202-.016.429-.031c.223-.016.466-.031.569-.032.023-.002.106-.01.226-.01.175 0 .427.016.687.091.226.065.459.177.644.365.109-.139.332-.411.547-.607.1-.091.197-.166.295-.206l.074-.029.04.068s.014.026.04.067c.025.04.061.096.102.156.08.119.187.254.255.303a.145.145 0 0 0 .019.012l.046-.069.079.068c.004.004.192.168.381.461.188.293.378.719.378 1.243 0 .137-.013.28-.042.429v.008l.003.049c.003.042.011.1.024.164.028.129.085.279.183.367a.37.37 0 0 0 .266.099.75.75 0 0 0 .214-.036l.041-.006.043-.018c.029-.022.065-.052.067-.171.001-.144-.072-.413-.328-.854l-.002-.004-.002-.003c-.003-.008-.092-.197-.092-.466 0-.172.038-.378.161-.582.121-.201.323-.397.641-.559l.342-.411.062.026c.002.001.145.06.325.157s.396.23.55.39a.71.71 0 0 1 .152.225c.095-.082.239-.196.422-.31.344-.214.828-.43 1.388-.43.5-.001 1.058.175 1.61.669l.123.11-.157.047-.01.003-.03.01a4.663 4.663 0 0 0 -.566.231c-.38.175-.91.459-1.508.887-1.195.856-2.662 2.291-3.744 4.61l-.036.077-.079-.029-.079-.028a29.21 29.21 0 0 0 -1.157-.367 47.192 47.192 0 0 0 -3.477-.87 59.484 59.484 0 0 0 -12.236-1.266c-4.958 0-10.671.619-16.677 2.47l-.087.027-.028-.087-.015-.046a7.98 7.98 0 0 0 -.266-.635 9.714 9.714 0 0 0 -.966-1.611c-.91-1.234-2.388-2.635-4.669-3.313l-.154-.046.118-.11c.003-.003.204-.189.528-.377.325-.187.775-.376 1.279-.377.523-.001 1.102.211 1.625.824l.011.012.007.005a.158.158 0 0 0 .01-.016.797.797 0 0 0 .06-.263l.005-.046.041-.024.017-.01.052-.032c.044-.028.107-.07.179-.123.144-.106.325-.258.474-.436l.073-.088.07.09.01.013.03.037.106.122c.088.096.203.211.307.282.068.048.132.073.159.071h.033l.026.021c.003.003.153.126.304.329s.307.488.308.819c0 .23-.08.48-.284.719l-.021.041c-.016.03-.037.073-.058.121a.877.877 0 0 0 -.081.308c0 .05.012.081.027.097.016.017.045.035.12.035h.035l.04.035c.01.007.026.018.046.029a.312.312 0 0 0 .147.04c.064-.001.133-.02.216-.12.08-.096.166-.274.23-.574a2.096 2.096 0 0 1 -.061-.51c0-.217.033-.479.15-.737a1.54 1.54 0 0 1 .636-.698l.061-.055c.041-.039.097-.093.156-.153.118-.119.25-.27.292-.359a.117.117 0 0 0 .014-.043v-.189l.149.116c.001.002.378.297.642.558.085.085.159.165.208.238.202-.152.715-.458 1.556-.458.107 0 .221.005.34.016l.743-.074-.327 1.31v.001c-.001.003-.035.13-.102.291a1.528 1.528 0 0 1 -.308.495.534.534 0 0 1 -.296.16.413.413 0 0 0 .131.139.29.29 0 0 0 .158.044h.044zm4.776-11.251v-.001l.009-.002 3.325-.296.016.005a.816.816 0 0 1 .136.051.65.65 0 0 1 .234.176.361.361 0 0 1 .079.221.453.453 0 0 1 -.083.248 1.185 1.185 0 0 1 -.259.271l-.022.017-3.286.299-.027-.018c-.004-.004-.255-.168-.395-.378a.446.446 0 0 1 -.084-.24.292.292 0 0 1 .093-.213.626.626 0 0 1 .264-.14zm6.095.029-.011-.065.059-.031a4.058 4.058 0 0 1 1.725-.392c.445 0 .941.081 1.436.317l.006.003.006.003c.004.003.037.025.072.065s.078.101.079.186c0 .086-.052.174-.149.241-.098.069-.245.131-.471.188h-.003l-.003.001c-.003 0-.629.111-1.281.111-.244 0-.493-.015-.715-.059-.223-.045-.421-.117-.565-.242a.552.552 0 0 1 -.186-.326zm-12.988-4.872.703.88-.139.035-.077.02c-.049.014-.117.033-.196.058a3.632 3.632 0 0 0 -.51.196.756.756 0 0 0 -.225.151c-.022.025-.025.041-.025.045l.013.055-.037.037c-.009.009-.469.465-1.328.465-.355 0-.776-.078-1.257-.295l-.03-.005a3.012 3.012 0 0 0 -.48-.038c-.151 0-.315.013-.454.052a.562.562 0 0 0 -.316.193.388.388 0 0 0 -.069.237c0 .016 0 .033.002.051l.004.04a.514.514 0 0 0 .031.107.86.86 0 0 0 .259.342c.301.256.93.53 2.221.53l.25-.003h.006l.059.001a7.67 7.67 0 0 0 2.605-.509c1.236-.478 2.6-1.397 3.407-3.177l.053-.116.116.106.068.059c.061.05.152.123.27.211.237.175.583.41 1.021.644.876.469 2.116.936 3.575.936.429 0 .877-.04 1.341-.133l.029-.003.047-.004a4.263 4.263 0 0 0 .788-.168c.482-.154 1.068-.441 1.495-.968.284-.35.501-.807.573-1.411v-.009l-.002-.043a1.54 1.54 0 0 0 -.018-.143.666.666 0 0 0 -.129-.316.218.218 0 0 0 -.169-.076c-.118-.002-.325.083-.622.361a4.568 4.568 0 0 1 -.535.562c-.322.283-.746.576-1.187.579a.854.854 0 0 1 -.481-.144l-.007-.005-1.036.319.074-1.27c.043-.004-.173.013-.292.013-.235 0-.537-.024-.815-.128-.265-.099-.513-.279-.628-.582l-.656-.328.072-.09c.004-.003.219-.268.582-.535.362-.266.874-.537 1.472-.538.043 0 .087.002.131.005l.074-1.184.814.163c.064-.019 1.105-.013 1.452.187.341.195.684.531.965 1.082l.011.004c.027.011.064.024.108.038.088.028.203.054.3.054.075 0 .135-.016.169-.044.034-.027.06-.068.062-.167 0-.124-.053-.328-.199-.626-.152-.081-.879-.49-1.276-1.164a1.708 1.708 0 0 1 -.246-.863c0-.106.01-.216.034-.328l.078-.627.039-.023c.014-.009.142-.079.434-.079.219 0 .53.039.96.17.004.041-.008-.09-.008-.145-.001-.278.087-.718.499-1.175l.01-.012.014-.007.098-.055c.06-.035.143-.084.232-.14.176-.11.379-.253.466-.353a.209.209 0 0 0 .041-.06l-.001-.001.041-.123.103.08.107.082c.066.05.157.118.257.191.2.145.439.31.574.377l.006.003.005.004c.005.004.139.097.275.27.135.172.274.427.274.747 0 .073-.007.149-.023.227-.041.015.142-.049.228-.076.229-.071.514-.143.754-.144.086.001.168.01.242.035a.343.343 0 0 1 .183.142l.022.036-.014.041-.001.004-.005.021a.448.448 0 0 0 .069.334l.007.011.004.014c.002.005.073.241.073.549 0 .199-.948 1.423-1.048 1.525a5.043 5.043 0 0 0 -.6.707c-.105.157-.168.305-.166.391.001.043.011.066.032.088l.023.023.003.032.001.002.002.01.012.04c.012.03.033.063.062.082.02.012.045.022.085.022.107.003.334-.085.702-.425.056-.089.416-.651.945-.956.192-.11 1.929-.107 1.929-.107 0 .004.132.525.133.913 0 .073-.005.141-.017.203.086-.013.187-.022.301-.022a1.881 1.881 0 0 1 1.539.77l.475.38-.137.062-.055.026a4.625 4.625 0 0 0 -.142.074 2.605 2.605 0 0 0 -.369.237.692.692 0 0 0 -.164.173.132.132 0 0 0 -.022.066v.053l-.047.027c-.002.001-.154.088-.373.176-.219.087-.503.176-.779.176-.1 0-.2-.012-.294-.042-.01-.041-.036-.011 0 0l.045.195c.047.22.095.487.095.693a.765.765 0 0 1 -.016.171.26.26 0 0 1 -.077.141.175.175 0 0 1 -.113.042h-.021l-.02-.01-.02-.01a3.483 3.483 0 0 0 -.257-.11c-.157-.061-.354-.119-.486-.118a.257.257 0 0 0 -.1.016.077.077 0 0 0 -.04.034l-.017.035-.037.012c-.007.002-.118.036-.297.036-.215 0-.529-.05-.875-.26-.338-.206-.705-.565-1.041-1.173l-.032-.005a1.763 1.763 0 0 0 -.188-.011 1.08 1.08 0 0 0 -.355.054.483.483 0 0 0 -.27.214.587.587 0 0 0 -.066.292c0 .133.029.301.102.509l.009.019.036.067a3.5 3.5 0 0 0 .152.242c.138.201.352.47.655.739.605.537 1.559 1.075 2.977 1.075 1.308.001 3.014-.459 5.202-1.817l.082-.052.047.085a1.72 1.72 0 0 0 .091.151c.062.098.155.238.279.406.248.336.621.785 1.118 1.233.995.897 2.479 1.79 4.46 1.79.876 0 1.85-.175 2.925-.603l.005-.01a.956.956 0 0 0 .112-.399.405.405 0 0 0 -.174-.347c-.136-.101-.389-.182-.819-.181-.046 0-.093 0-.142.002-.116.044-.851.317-1.574.318a1.89 1.89 0 0 1 -.755-.137 1.088 1.088 0 0 1 -.544-.498l-.037-.02a5.78 5.78 0 0 0 -.575-.27.682.682 0 0 0 -.199-.052h-.164l.086-.14c.001-.002.084-.137.209-.308.125-.17.289-.375.46-.519.1-.083.202-.15.316-.166l.006-.02c0-.013-.004-.039-.036-.083a.779.779 0 0 0 -.187-.167 1.262 1.262 0 0 1 -.427-.313c-.215-.233-.426-.623-.428-1.224l-.17-.681.109-.008s.238-.019.505-.037.558-.037.675-.037a2.967 2.967 0 0 1 1.064.095c.27.078.548.212.764.439.124-.158.395-.491.654-.727.118-.107.232-.194.343-.24l.074-.029.04.068a3.016 3.016 0 0 0 .168.263c.095.141.221.301.304.361.014.01.025.017.034.021l.003.002.052-.078.079.068c.005.004.225.195.446.539.22.343.442.841.442 1.455 0 .16-.015.328-.049.502v.013l.004.058c.004.05.012.119.029.196.033.154.101.332.22.441a.457.457 0 0 0 .324.12.893.893 0 0 0 .257-.043l.013-.004h.016l.018-.003a.196.196 0 0 0 .056-.024c.038-.027.084-.07.086-.214.001-.175-.086-.493-.389-1.014l-.002-.003-.001-.004a1.366 1.366 0 0 1 .08-1.219c.141-.234.377-.463.751-.653l.398-.477.062.025c.002.001.17.07.381.184s.465.271.643.457a.787.787 0 0 1 .184.281c.111-.097.286-.238.512-.379.404-.251.971-.504 1.627-.504.585-.001 1.237.205 1.885.784l.122.11-.157.047-.047.015a6.41 6.41 0 0 0 -.668.273c-.448.207-1.073.541-1.778 1.046-1.41 1.01-3.139 2.702-4.415 5.435l-.036.077-.079-.029-.093-.033a33.27 33.27 0 0 0 -1.363-.432 54.84 54.84 0 0 0 -4.096-1.025 70.017 70.017 0 0 0 -14.411-1.492c-5.839 0-12.568.73-19.641 2.91l-.087.027-.028-.087-.019-.055a8.923 8.923 0 0 0 -.313-.749 11.565 11.565 0 0 0 -1.139-1.9c-1.074-1.456-2.817-3.108-5.506-3.908l-.154-.045.117-.11c.004-.003.239-.222.62-.442.38-.219.908-.441 1.497-.441.612-.001 1.287.245 1.902.964l.036.031c-.001 0 .013-.014.023-.034a.974.974 0 0 0 .073-.315l.005-.046.062-.036.061-.038c.052-.033.126-.082.211-.145.17-.125.385-.305.561-.517l.073-.087.083.105.035.044c.031.036.074.088.126.144.103.114.239.249.363.334.082.058.158.089.197.087h.033l.026.021c.004.003.178.148.355.385s.358.57.359.954c.001.268-.092.558-.331.838l-.026.049a1.758 1.758 0 0 0 -.068.145 1.018 1.018 0 0 0 -.097.368c0 .061.014.102.036.126.022.023.062.046.153.047h.035l.044.037a.587.587 0 0 0 .056.035.38.38 0 0 0 .181.05c.08-.001.167-.027.267-.147.097-.118.199-.33.276-.687a2.44 2.44 0 0 1 -.073-.6c0-.255.039-.561.175-.862.135-.299.367-.591.744-.815l.073-.067c.048-.045.114-.108.184-.18.14-.14.295-.319.346-.427a.148.148 0 0 0 .019-.058v-.189l.149.117c.002.001.444.349.754.655.104.103.192.2.249.286l.004.006c-.019.014.007.012 0 0 .226-.173.83-.546 1.835-.546.127 0 .26.006.4.019l.009.001.845-.087-.378 1.521-.001.001c0 .002-.04.152-.119.34-.079.189-.195.416-.359.578a.601.601 0 0 1 -.364.187.528.528 0 0 0 .173.19.35.35 0 0 0 .194.055h.045zm6.894 4.843h-.001l.027.088zm11.941-.301 3.589.299.022.018c.003.002.079.062.156.155.077.094.163.219.165.371a.35.35 0 0 1 -.123.264.864.864 0 0 1 -.379.177l-.015.004-3.476-.296-.014-.005c-.006-.003-.066-.029-.131-.09a.407.407 0 0 1 -.132-.3c0-.159.086-.344.308-.567l.065.065-.065-.065z" fill="#dfa014"/><path d="m35.79 75.365s11.145-4.421 27.084 0c0 0-11.02 3.673-27.084 0zm-2.491-1.951c18.493-5.541 31.816 0 31.816 0l-.622 1.307-2.055-.56 1.681-.312-.871-.684-2.117.249.373.435a320.66 320.66 0 0 0 -2.739-.56c.996-.062.934-.809.934-.809-.685-.81-1.557-.187-1.557-.187-.872-.124-.623.809-.623.809-6.226-1.12-16.623 0-16.623 0 .435-.684-.685-.871-.685-.871-.436-.374-1.121-.062-1.121-.062-1.243.621.232 1.089.515 1.17a.18.18 0 0 1 .045.012l-.045-.012c-.417-.064-2.694.448-2.694.448l.311-.436-2.117-.186-.809.747 1.618.311-2.054.498z" fill="#fff"/><path d="m55.812 71.706.022.017c.003.003.067.054.134.134a.534.534 0 0 1 .143.324.307.307 0 0 1 -.109.234.749.749 0 0 1 -.328.154l-.015.004-2.956-.252-.014-.006c-.006-.003-.059-.025-.115-.078a.361.361 0 0 1 -.117-.265c0-.141.076-.301.266-.491l.03-.03zm-8.034.042-.011-.066.059-.031c.007-.003.636-.333 1.472-.334.379 0 .802.069 1.225.27l.006.003.006.004c.004.003.033.022.064.057s.069.09.07.167c.001.079-.047.158-.132.217-.085.06-.211.112-.405.161h-.003l-.003.001c-.003 0-.535.094-1.089.095-.209 0-.42-.014-.611-.051-.19-.039-.361-.1-.486-.209a.478.478 0 0 1 -.162-.284l.091-.015zm2.706-.078v.001zm-5.035-.217.016.004c.003.001.053.015.117.045a.569.569 0 0 1 .204.153c.04.051.071.118.07.196 0 .07-.024.145-.072.219a1.06 1.06 0 0 1 -.224.233l-.021.017-2.8.254-.027-.018c-.004-.004-.218-.142-.34-.324a.4.4 0 0 1 -.073-.212.264.264 0 0 1 .083-.191.544.544 0 0 1 .23-.122l.009-.003z" fill="#dfa014"/><path d="m73.805 93.188-2.239 1.562-3.062-4.386-1.734 1.211-1.062-1.522c.359-.262.645-.527.859-.797.214-.271.354-.518.42-.743.066-.226.092-.466.075-.723a2.696 2.696 0 0 0 -.238-.986l1.697-1.185zm-49.105-1.435 1.71-2.014 2.014 1.71-1.71 2.014zm.47-8.904 1.47-1.412 1.799 1.874-1.47 1.412.876.912-1.089 1.045-.897-.934-1.883 1.808c-.164.157-.244.312-.241.466.003.155.101.333.296.536l.353.367-1.343 1.29c-.359-.295-.718-.63-1.079-1.005-.517-.539-.829-.968-.937-1.289-.107-.321-.109-.618-.004-.89s.409-.649.911-1.132l2.119-2.034-.65-.676 1.089-1.046zm49.42 3.443c-.434.138-.796.185-1.084.14a2.052 2.052 0 0 1 -1.118-.555 2.282 2.282 0 0 1 -.667-1.177c-.113-.476-.066-1.006.14-1.588.206-.583.577-1.161 1.111-1.736.4-.429.836-.783 1.307-1.062a3.192 3.192 0 0 1 1.086-.412c.36-.06.687-.053.983.022.394.102.755.306 1.083.611.306.285.501.613.584.986a1.89 1.89 0 0 1 -.105 1.138c.522-.25.997-.345 1.427-.284.429.061.826.262 1.193.602.375.35.626.731.752 1.143.126.411.158.828.095 1.25a3.816 3.816 0 0 1 -.475 1.307c-.254.45-.563.871-.927 1.262a5.928 5.928 0 0 1 -1.269 1.05 3.85 3.85 0 0 1 -1.297.516 2.85 2.85 0 0 1 -1.181-.018c-.366-.087-.734-.303-1.103-.647-.284-.264-.478-.53-.582-.798a2.083 2.083 0 0 1 -.128-.887c.016-.227.075-.514.175-.863zm3.977.293c.294-.316.443-.622.446-.92s-.122-.564-.374-.799c-.259-.24-.551-.352-.877-.334s-.625.173-.899.467c-.279.299-.416.61-.412.932.004.321.135.603.394.844.243.226.519.327.83.304.31-.023.607-.188.892-.494zm-62.522-7.938 1.499 2.027a.796.796 0 0 0 -.328.563c-.025.227.048.455.217.684.157.213.321.34.493.382a.52.52 0 0 0 .456-.082.459.459 0 0 0 .183-.281c.025-.114-.002-.263-.079-.445l-.598-1.412c-.302-.72-.412-1.298-.328-1.735.083-.437.31-.793.681-1.067a1.844 1.844 0 0 1 1.111-.379c.401-.002.816.129 1.245.393.43.264.865.694 1.306 1.291.66.893.98 1.659.959 2.297-.02.639-.256 1.142-.707 1.512l-1.424-1.926a.677.677 0 0 0 .225-.472c.012-.186-.052-.373-.192-.562-.144-.195-.3-.317-.466-.366a.386.386 0 0 0 -.347.06.365.365 0 0 0 -.145.264c-.012.113.045.316.172.608l.52 1.179c.341.78.469 1.402.383 1.868a1.752 1.752 0 0 1 -.711 1.127 1.964 1.964 0 0 1 -.985.392 2.15 2.15 0 0 1 -1.033-.155 3.356 3.356 0 0 1 -.986-.64 6.86 6.86 0 0 1 -.895-1 6.31 6.31 0 0 1 -.769-1.316c-.174-.418-.254-.813-.238-1.184.015-.371.101-.701.258-.989.107-.193.281-.406.523-.636zm59.717 5.371c.256-.275.384-.55.385-.826a.94.94 0 0 0 -.321-.714.913.913 0 0 0 -.716-.256c-.272.021-.532.163-.779.428-.246.265-.37.541-.371.826 0 .285.107.528.322.727.205.191.44.275.706.252.267-.023.524-.169.774-.437zm5.929-10.882-1.158 2.254a.995.995 0 0 0 -.657.054c-.194.09-.363.258-.509.502a1.294 1.294 0 0 0 -.201.611c-.006.192.038.388.132.59.094.201.23.387.409.558.179.172.424.35.736.535a3.377 3.377 0 0 1 .483-2.106 3.776 3.776 0 0 1 1.139-1.222 2.57 2.57 0 0 1 1.485-.461c.53.003 1.056.16 1.579.47a3.58 3.58 0 0 1 1.053.938c.279.374.451.784.514 1.231.064.446.032.896-.094 1.35a5.482 5.482 0 0 1 -.57 1.321c-.383.645-.798 1.136-1.244 1.473a3.36 3.36 0 0 1 -1.517.642 4.153 4.153 0 0 1 -1.723-.094 7.1 7.1 0 0 1 -1.804-.782c-.908-.539-1.581-1.148-2.019-1.827a3.801 3.801 0 0 1 -.621-2.216c.015-.607.229-1.258.64-1.952.397-.667.835-1.167 1.317-1.501.481-.333.987-.516 1.517-.547.344-.022.715.038 1.113.179zm2.563 5.742c.176-.297.223-.595.14-.895s-.287-.547-.613-.74c-.327-.194-.642-.255-.946-.182s-.547.264-.73.571c-.191.323-.247.64-.167.954.079.313.277.563.592.75.323.192.641.247.956.165.314-.082.57-.289.768-.623zm-74.533-7.481 8.082-4.238 3.447 6.573-1.905.998-2.103-4.01-1.137.596 1.785 3.403-1.833.961-1.784-3.404-1.27.666 2.187 4.173-1.938 1.016zm75.167 1.761-4.645-2.501 1.846-5.591 2.022.668-1.261 3.815 1.271.712c-.146-.602-.111-1.233.107-1.892.312-.942.82-1.6 1.524-1.974.705-.373 1.475-.422 2.311-.146.904.299 1.548.876 1.931 1.732.383.855.38 1.871-.008 3.046-.196.594-.424 1.084-.683 1.471-.26.386-.553.694-.88.922-.328.228-.66.388-.998.481a4.193 4.193 0 0 1 -1.176.129l.594-2.665c.27.007.509-.066.716-.22.208-.154.364-.389.468-.704.127-.385.116-.72-.033-1.006-.148-.285-.413-.49-.794-.616-.365-.121-.687-.113-.968.021-.28.134-.483.392-.609.773-.153.463-.1.846.158 1.149zm-59.474-69.181h2.802v5.783c0 .384.042.674.127.87s.238.356.459.479c.22.123.473.184.756.184.414 0 .736-.122.964-.365.229-.244.343-.633.343-1.168v-5.783h2.803v5.479c0 .69-.049 1.235-.148 1.637a2.963 2.963 0 0 1 -.488 1.064 3.36 3.36 0 0 1 -.83.795 3.68 3.68 0 0 1 -1.156.505 5.803 5.803 0 0 1 -1.446.171c-.607 0-1.133-.058-1.579-.174a3.66 3.66 0 0 1 -1.156-.511 3.33 3.33 0 0 1 -.816-.793c-.219-.304-.391-.71-.517-1.219-.079-.324-.118-.822-.118-1.494v-5.46zm54.309 3.599h-2.747c-.049-.468-.206-.832-.473-1.092s-.605-.39-1.016-.39c-.513 0-.931.211-1.255.632-.323.421-.485 1.103-.485 2.048 0 .648.069 1.142.208 1.481.138.339.33.592.577.757.246.165.552.248.918.248.448 0 .804-.13 1.068-.39.265-.259.422-.645.47-1.156h2.796c-.061.58-.171 1.067-.33 1.462-.158.395-.424.79-.796 1.185a3.865 3.865 0 0 1 -1.331.918c-.515.217-1.11.325-1.785.325a5.341 5.341 0 0 1 -1.871-.318 3.99 3.99 0 0 1 -1.441-.899 4.298 4.298 0 0 1 -.912-1.333c-.309-.7-.464-1.477-.464-2.332 0-.725.112-1.402.336-2.028.224-.627.531-1.153.922-1.578.39-.426.823-.746 1.3-.96.606-.271 1.277-.406 2.014-.406.639 0 1.239.101 1.8.303.562.202 1.024.497 1.386.885.362.389.639.836.83 1.343.139.361.232.792.281 1.295zm-41.507 3.335h3.867v2.452h-6.67v-9.386h2.803zm7.954 0h3.867v2.452h-6.67v-9.386h2.803zm-27.918 2.452h-2.815v-9.386h2.815v3.176h2.637v-3.176h2.82v9.386h-2.82v-3.635h-2.637zm64.714-.016h-2.564v-2.705h2.564zm-12.648 0h-2.564v-2.705h2.564zm-3.254-7.04h-4.023v1.501h3.217v2.241h-3.217v3.298h-2.862v-9.346h6.885z"/></svg>