<?xml version="1.0" encoding="UTF-8" standalone="no"?>
<!-- Created with Inkscape (http://www.inkscape.org/) -->

<svg
   width="162.83919mm"
   height="211.66667mm"
   viewBox="0 0 162.83919 211.66668"
   version="1.1"
   id="svg5"
   xml:space="preserve"
   inkscape:version="1.2 (dc2aeda, 2022-05-15)"
   sodipodi:docname="Logo Istres FC - 2022.svg"
   xmlns:inkscape="http://www.inkscape.org/namespaces/inkscape"
   xmlns:sodipodi="http://sodipodi.sourceforge.net/DTD/sodipodi-0.dtd"
   xmlns="http://www.w3.org/2000/svg"
   xmlns:svg="http://www.w3.org/2000/svg"><sodipodi:namedview
     id="namedview7"
     pagecolor="#ffffff"
     bordercolor="#000000"
     borderopacity="0.25"
     inkscape:showpageshadow="2"
     inkscape:pageopacity="0.0"
     inkscape:pagecheckerboard="0"
     inkscape:deskcolor="#d1d1d1"
     inkscape:document-units="mm"
     showgrid="false"
     inkscape:zoom="0.46047752"
     inkscape:cx="223.68084"
     inkscape:cy="706.8749"
     inkscape:window-width="1920"
     inkscape:window-height="881"
     inkscape:window-x="0"
     inkscape:window-y="25"
     inkscape:window-maximized="0"
     inkscape:current-layer="layer1" /><defs
     id="defs2" /><g
     inkscape:label="Calque 1"
     inkscape:groupmode="layer"
     id="layer1"
     transform="translate(287.74655,199.43431)"><g
       id="g5795"
       transform="matrix(0.70663343,0,0,0.70663343,-84.415219,-58.507359)"
       style="stroke:none"><path
         id="path1500"
         style="fill:#000000;stroke:none;stroke-width:0.0499999;stroke-linecap:round;stroke-linejoin:round;stroke-dasharray:none;stroke-opacity:1"
         d="m -262.88872,-199.43431 c -5.32037,0 -13.95122,2.39153 -17.16795,15.82901 -6.03516,25.21119 -8.0873,47.24218 -7.62796,68.6263 0.92266,42.953835 8.82296,80.954464 21.08399,112.7450536 15.97071,41.4091594 43.16274,74.3049844 75.30755,94.0697104 6.13232,3.770552 11.80385,8.349546 18.76836,8.271326 6.96451,0.0782 12.63604,-4.500774 18.76836,-8.271326 32.14481,-19.764726 59.336837,-52.660551 75.307551,-94.0697104 12.261028,-31.7905896 20.161325,-69.7912186 21.083984,-112.7450536 0.45934,-21.38412 -1.592794,-43.41511 -7.627958,-68.6263 -3.216727,-13.43748 -11.84758,-15.82901 -17.167944,-15.82901 z"
         sodipodi:nodetypes="scssscssssss" /><path
         id="path1672"
         style="fill:#ffffff;stroke:none;stroke-width:0.0499999;stroke-linecap:round;stroke-linejoin:round;stroke-dasharray:none;stroke-opacity:1"
         d="m -262.35956,-190.43848 c -6.13294,0 -7.94692,2.57897 -11.07219,16.89561 -4.45573,20.41141 -5.82094,38.60519 -5.25704,58.56387 1.16364,41.185755 5.57347,68.495918 17.62373,101.971551 14.9106,41.421709 39.09997,73.695259 69.77197,94.170996 5.98724,3.996914 15.3589,10.27487 18.76836,10.247437 3.40946,0.02743 12.78112,-6.250523 18.76836,-10.247437 30.672,-20.475737 54.861366,-52.749287 69.771971,-94.170996 12.050258,-33.475633 16.460092,-60.785796 17.623731,-101.971551 0.563899,-19.95868 -0.801318,-38.15246 -5.257044,-58.56387 -3.125266,-14.31664 -4.939248,-16.89561 -11.072192,-16.89561 z"
         sodipodi:nodetypes="ssssscssssss" /></g><g
       id="g3938"
       transform="matrix(0.70663343,0,0,0.70663343,-84.415219,-58.507359)"
       style="stroke:none"><g
         id="g4331"
         style="fill:#5c3b92;fill-opacity:1;stroke:none"><path
           id="path1519"
           style="fill:#5c3b92;fill-opacity:1;stroke:none;stroke-width:0.0499999;stroke-linecap:round;stroke-linejoin:round;stroke-dasharray:none;stroke-opacity:1"
           d="m -236.22575,-181.12122 c -7.28893,0 -9.56893,5.35072 -9.56893,9.74307 v 9.65729 c 0,4.57784 2.87295,6.38511 5.91644,7.82123 2.95639,1.39502 11.8892,5.3085 11.8892,5.3085 l -0.0563,6.3435 -5.0276,0.91623 0.0863,-7.30395 -12.95115,2.07636 -0.009,8.53436 c -0.0659,5.92196 4.50619,9.07568 9.85262,7.86774 l 12.9248,-2.92024 c 4.99744,-1.12909 8.29869,-5.10268 8.20208,-10.33477 -0.0812,-4.3973 0.0168,-5.98138 0.0253,-8.97206 0.008,-2.98975 -1.46586,-4.94929 -4.9258,-6.54327 -4.63002,-2.13304 -12.92427,-5.8859 -12.92427,-5.8859 l 0.0646,-5.78419 4.95371,-0.23513 -0.0605,6.39548 12.96561,-0.73019 0.0791,-7.16804 c 0.0396,-5.22114 -3.67286,-8.78602 -9.26455,-8.78602 z"
           sodipodi:nodetypes="ssssccccccccscsccccccss" /><path
           id="rect3125"
           style="fill:#5c3b92;fill-opacity:1;stroke:none;stroke-width:0.0499999;stroke-linecap:round;stroke-linejoin:round;stroke-dasharray:none;stroke-opacity:1"
           d="m -262.59158,-181.05611 v 58.07242 c 4.447,-1.46911 8.79372,-2.80608 13.07207,-4.02146 v -54.05096 z" /><path
           id="rect3141"
           style="fill:#5c3b92;fill-opacity:1;stroke:none;stroke-width:0.0499999;stroke-linecap:round;stroke-linejoin:round"
           d="m -212.78222,-181.05611 v 9.7038 c 3.31156,-0.14008 6.50833,-0.2424 9.64437,-0.31678 l -0.15968,35.8867 c 4.36606,-0.41985 8.80395,-0.73972 13.34492,-0.96738 l 0.12454,-35.07796 c 3.189,-0.003 6.38789,0.0143 9.65368,0.0465 v -9.27489 z" /><path
           id="path3214"
           style="fill:#5c3b92;fill-opacity:1;stroke:none;stroke-width:0.0499999;stroke-linecap:round;stroke-linejoin:round;stroke-dasharray:none;stroke-opacity:1"
           d="m -177.9244,-181.05611 v 43.91825 c 4.23188,-0.0663 8.59136,-0.0593 13.07155,0.004 v -12.7155 h 1.73633 l 4.41575,12.84779 c 4.24208,0.15168 8.70735,0.43118 13.29273,0.84595 l -4.92373,-14.3397 c 3.07032,-0.7297 4.11065,-3.54595 4.05815,-7.57783 l -0.21549,-16.55506 c -0.0654,-5.02422 -3.7466,-6.42803 -6.67969,-6.42803 h -11.67113 l -0.0129,0.015 v -0.015 z m 13.07155,9.08988 5.48752,0.0248 -0.0315,13.02969 -5.456,-0.0253 z" /><path
           id="path3294"
           style="fill:#5c3b92;fill-opacity:1;stroke:none;stroke-width:0.0499999;stroke-linecap:round;stroke-linejoin:round;stroke-dasharray:none;stroke-opacity:1"
           d="m -142.93429,-181.05611 0.33383,45.1683 c 8.77882,0.89167 17.89168,2.28169 26.60148,4.2106 l -0.11937,-10.22832 c -3.81394,-0.7601 -8.81128,-1.51428 -13.35681,-1.94045 l -0.0641,-8.78396 c 3.23679,0.24736 6.62555,0.61594 9.61802,1.04438 l -0.06,-10.30428 c -2.99854,-0.28111 -6.39039,-0.484 -9.62938,-0.57361 l -0.0646,-8.83357 c 4.34746,0.0871 8.80965,0.26735 13.21935,0.48266 l -0.11937,-10.24175 z" /><path
           id="path3488"
           style="fill:#5c3b92;fill-opacity:1;stroke:none;stroke-width:0.0499999;stroke-linecap:round;stroke-linejoin:round;stroke-dasharray:none;stroke-opacity:1"
           d="m -103.75477,-181.16411 c -4.04665,-0.0125 -9.8553,1.60482 -9.76788,9.91205 l 0.0718,6.82284 c 0.0438,4.16039 1.3752,6.70256 3.84266,8.54728 l 14.144877,10.57881 0.04082,7.0966 -5.020877,-1.08055 v -7.61608 l -12.86382,-1.83244 0.10801,7.93646 c 0.0619,4.56351 3.11048,9.88445 8.51111,11.3838 l 13.322694,3.699 c 4.30992,1.19656 8.619112,-0.82884 8.619112,-9.08575 v -10.88099 c 0,-2.9373 -0.342131,-6.15603 -5.171261,-9.5529 l -12.517045,-8.80453 -0.009,-5.97596 4.831225,0.16743 0.04237,7.12153 c 4.340969,0.36098 8.673118,0.76609 12.984221,1.2764 l -0.05323,-8.29303 c 0.02193,-5.41698 -2.383481,-11.3619 -9.480558,-11.3838 z"
           sodipodi:nodetypes="csscccccccccssccccccccc" /></g><g
         id="g7413"
         style="fill:#5c3b92;fill-opacity:1;stroke:none"><path
           id="path6794"
           style="fill:#5c3b92;fill-opacity:1;stroke:none;stroke-width:0.0499999;stroke-linecap:round;stroke-linejoin:round;stroke-dasharray:none;stroke-opacity:1"
           d="m -139.93693,-125.2232 3.6e-4,16.92384 c 2e-5,0.9267 0.11583,4.19714 3.78133,4.80895 1.99804,0.3335 4.03633,0.47252 6.04477,0.80711 3.30537,0.55064 3.76793,-2.20253 3.76793,-3.8923 v -5.9219 c -1.8724,-0.29613 -3.75373,-0.57173 -5.63738,-0.83096 v 5.08754 c -0.7069,-0.0973 -1.41341,-0.19166 -2.11976,-0.2837 v -14.61823 c 0.70619,0.092 1.41301,0.18696 2.11976,0.28422 v 4.2385 c 1.88365,0.25923 3.76498,0.53483 5.63738,0.83096 v -5.23392 c 0,-1.50905 -1.02144,-4.64507 -4.06003,-5.05146 -1.56961,-0.20992 -3.15925,-0.47119 -4.95358,-0.66287 -3.02197,-0.32283 -4.58082,1.76125 -4.58078,3.51422 z"
           sodipodi:nodetypes="sssssccccccccssss" /><path
           id="path4346"
           style="fill:#5c3b92;fill-opacity:1;stroke:none;stroke-width:0.0499999;stroke-linecap:round;stroke-linejoin:round;stroke-dasharray:none;stroke-opacity:1"
           d="m -96.283905,-120.79054 v 25.400001 c 3.491799,0.90347 7.084029,1.809947 10.346138,2.950208 1.198493,0.41893 3.355532,-0.71963 3.355868,-2.92902 l 0.001,-6.573239 c 1.78e-4,-1.16685 -0.238634,-2.25244 -1.312065,-2.94504 0.70589,-0.47799 1.182539,-1.04179 1.14515,-2.19057 l -0.213941,-6.57221 c -0.04135,-1.27043 -0.675834,-3.38847 -3.092834,-4.18837 -3.233907,-1.07026 -6.638219,-2.02258 -10.22935,-2.95176 z m 5.637382,7.02335 c 0.685226,0.19643 1.377814,0.39037 2.047937,0.59582 v 4.7625 c -0.670124,-0.20545 -1.36271,-0.39939 -2.047937,-0.59582 z m 0,10.04073 c 0.690257,0.19777 1.372999,0.39874 2.047937,0.60564 v 4.56665 c -0.670123,-0.205457 -1.362711,-0.399397 -2.047937,-0.595829 z" /><path
           id="rect4414"
           style="fill:#5c3b92;fill-opacity:1;stroke:none;stroke-width:0.0499999;stroke-linecap:round;stroke-linejoin:round;stroke-dasharray:none;stroke-opacity:1"
           d="m -251.25171,-120.20349 c -3.69659,1.08861 -7.45552,2.26915 -11.30267,3.54603 v 25.405687 c 1.90178,-0.631163 3.77564,-1.229741 5.63739,-1.81436 v -9.323977 c 1.3748,-0.43081 2.74,-0.84946 4.09587,-1.25626 v -5.29166 c -1.35587,0.40679 -2.72107,0.82545 -4.09587,1.25625 v -5.28908 c 1.90982,-0.59982 3.80231,-1.17655 5.67562,-1.72806 v -5.49114 c -0.004,-0.005 -0.007,-0.009 -0.0103,-0.0134 z" /><path
           id="path4580"
           style="fill:#5c3b92;fill-opacity:1;stroke:none;stroke-width:0.0499999;stroke-linecap:round;stroke-linejoin:round;stroke-dasharray:none;stroke-opacity:1"
           d="m -177.00301,-131.01627 c -3.44219,0.0404 -6.80227,0.12586 -10.09499,0.25941 l -2.70733,25.5354 c 1.95598,-0.0963 3.93019,-0.18007 5.93452,-0.24185 l 0.36225,-4.35374 c 0.97316,-0.0289 1.95249,-0.0544 2.93833,-0.0755 l 0.3607,4.34134 c 1.93753,-0.0395 3.90811,-0.0624 5.89938,-0.0724 z m -4.85965,5.57899 0.87798,10.56266 c -0.70606,0.0159 -1.40835,0.0338 -2.10788,0.0537 l 0.88212,-10.60762 c 0.1159,-0.003 0.2317,-0.006 0.34778,-0.009 z" /><path
           id="rect4592"
           style="fill:#5c3b92;fill-opacity:1;stroke:none;stroke-width:0.0499999;stroke-linecap:round;stroke-linejoin:round;stroke-dasharray:none;stroke-opacity:1"
           d="m -205.13566,-129.47063 c -4.8908,0.51134 -9.6918,1.15517 -14.46527,1.94097 v 5.50871 c 1.4563,-0.23976 2.91498,-0.46722 4.37803,-0.68265 v 19.91145 c 1.8703,-0.27298 3.74924,-0.52893 5.63738,-0.76016 v -19.91558 c 1.47604,-0.18264 2.95876,-0.35259 4.44986,-0.5085 z" /><path
           style="fill:#5c3b92;fill-opacity:1;stroke:none;stroke-width:0.0499999;stroke-linecap:round;stroke-linejoin:round;stroke-dasharray:none;stroke-opacity:1"
           d="m -124.79741,-127.26146 v 25.4 c 4.01793,0.65954 7.96387,1.40274 11.74192,2.22932 v -5.29167 c -1.99414,-0.43629 -4.03279,-0.85191 -6.10505,-1.24333 v -20.1104 c -1.85538,-0.3487 -3.74093,-0.6727 -5.63687,-0.98392 z"
           id="path5531" /><path
           style="fill:#5c3b92;fill-opacity:1;stroke:none;stroke-width:0.0499999;stroke-linecap:round;stroke-linejoin:round;stroke-dasharray:none;stroke-opacity:1"
           d="m -160.27845,-130.87054 v 25.4 c 3.64734,0.12923 7.61331,0.3709 11.74244,0.709 v -5.29167 c -2.08725,-0.1709 -4.12631,-0.31519 -6.10506,-0.43305 v -20.10885 c -1.93884,-0.1154 -3.83311,-0.21151 -5.63738,-0.27543 z"
           id="path5529" /><path
           style="fill:#5c3b92;fill-opacity:1;stroke:none;stroke-width:0.0499999;stroke-linecap:round;stroke-linejoin:round;stroke-dasharray:none;stroke-opacity:1"
           d="m -170.88142,-131.04211 c -0.81283,-0.003 -1.59343,0.011 -2.39675,0.0129 v 25.4 c 3.20773,-0.008 6.46237,0.007 9.83092,0.0718 0.61916,0.0118 1.2702,0.0335 1.911,0.0522 v -5.29166 c -0.6408,-0.0187 -1.29184,-0.0409 -1.911,-0.0527 -1.4129,-0.027 -2.81019,-0.0475 -4.19354,-0.062 v -20.09387 c -1.07745,-0.0112 -2.18012,-0.0332 -3.24063,-0.0367 z"
           id="rect4594" /><path
           id="rect4608"
           style="fill:#5c3b92;fill-opacity:1;stroke:none;stroke-width:0.0499999;stroke-linecap:round;stroke-linejoin:round;stroke-dasharray:none;stroke-opacity:1"
           d="m -111.65403,-124.7257 v 20.9272 c 0,2.68276 1.25904,4.824821 4.38203,5.526686 0.78759,0.177004 1.553,0.403432 2.31111,0.61113 0.74071,0.202929 1.47845,0.382437 2.19974,0.591876 3.339638,0.969716 4.716629,-0.926623 4.716629,-3.707892 v -20.46911 c -1.835118,-0.47141 -3.713989,-0.9592 -5.636869,-1.47484 v 20.10781 c -0.42929,-0.11512 -1.98782,-0.51959 -2.33525,-0.61185 v -20.11143 c -1.8222,-0.48379 -3.6984,-0.9497 -5.63739,-1.38958 z"
           sodipodi:nodetypes="cssssscccccc" /><path
           id="rect4773"
           style="fill:#5c3b92;fill-opacity:1;stroke:none;stroke-width:0.0499999;stroke-linecap:round;stroke-linejoin:round;stroke-dasharray:none;stroke-opacity:1"
           d="m -241.19857,-123.07205 c 0,0 -2.87803,0.74483 -4.31705,1.11724 -3.74542,0.9693 -4.61316,4.53888 -4.61316,6.92622 v 14.61668 c 0,3.992617 2.03398,4.838998 5.73112,3.901573 l 3.70727,-0.939994 c 3.64232,-0.923059 4.58549,-4.104069 4.52206,-5.370699 l -0.0634,-15.8833 c 0.0563,-2.73207 -1.48648,-5.26843 -4.96684,-4.36772 z m -0.67076,5.76554 v 14.61668 c -0.86877,0.22486 -1.74834,0.4692 -2.62207,0.70435 v -14.61668 c 0.87373,-0.23515 1.7533,-0.47949 2.62207,-0.70435 z"
           sodipodi:nodetypes="ssssscccsccccc" /><path
           id="path5626"
           style="fill:#5c3b92;fill-opacity:1;stroke:none;stroke-width:0.0499999;stroke-linecap:round;stroke-linejoin:round;stroke-dasharray:none;stroke-opacity:1"
           d="m -224.51122,-126.39123 c -0.41805,0.007 -0.86769,0.0606 -1.34979,0.16433 l -4.01216,0.86351 c -4.04228,0.86987 -4.81745,4.55534 -4.82451,7.09053 l -0.1018,14.67765 c 0.30959,3.21889 2.43585,4.250962 6.17068,3.47731 l 3.55482,-0.73639 c 3.67936,-0.76216 4.73794,-3.34959 4.77387,-5.9154 l 0.0258,-13.81363 c 0.0568,-3.59184 -1.31058,-5.85448 -4.23695,-5.80791 z m -1.70067,5.55418 v 14.61668 c -0.87384,0.16879 -1.74768,0.33335 -2.62206,0.51211 v -14.61667 c 0.87438,-0.17878 1.74822,-0.34333 2.62206,-0.51212 z" /><path
           id="path6676"
           style="fill:#5c3b92;fill-opacity:1;stroke:none;stroke-width:0.0499999;stroke-linecap:round;stroke-linejoin:round;stroke-dasharray:none;stroke-opacity:1"
           d="m -193.78441,-130.376 c -0.17105,-0.003 -0.35033,9.5e-4 -0.53796,0.0109 -3.36107,0.17147 -6.65953,0.47813 -9.91154,0.80667 v 25.4 c 1.86494,-0.18841 9.74122,-0.79148 10.55853,-0.84749 2.62818,-0.18011 3.54081,-2.7642 3.52899,-4.29845 l -0.047,-6.10557 c -0.0116,-1.50571 -0.38326,-2.22357 -1.33377,-2.65255 0.64157,-0.47481 1.04645,-1.0991 1.04645,-2.05155 v -4.99608 c -9.4e-4,-3.79143 -0.73795,-5.22735 -3.30367,-5.26583 z m -2.33371,5.60844 v 4.7625 c -0.82951,0.0586 -1.65563,0.12052 -2.4784,0.18604 v -4.76198 c 0.82276,-0.0656 1.64893,-0.1279 2.4784,-0.18656 z m 0,10.05417 v 4.56251 c -0.82946,0.0586 -1.65568,0.12053 -2.4784,0.18604 v -4.56251 c 0.82272,-0.0655 1.64895,-0.12743 2.4784,-0.18604 z" /></g></g><g
       id="g5791"
       transform="matrix(0.70663343,0,0,0.70663343,-84.415219,-58.507359)"
       style="stroke:none"><g
         id="g5683"
         style="stroke:none"><path
           style="fill:#5c3b92;fill-opacity:1;stroke:none;stroke-width:0.0499999;stroke-linecap:round;stroke-linejoin:round;stroke-dasharray:none;stroke-opacity:1"
           d="m -213.90463,20.447356 c -0.23928,9.570992 2.23767,22.993226 7.01249,40.850737 10.41531,9.751227 21.19924,17.315204 31.67352,23.032186 0.65151,0.355602 1.29505,1.090784 2.69389,1.149284 1.39884,-0.0585 2.04238,-0.793682 2.69389,-1.149284 12.45363,-6.797334 25.34402,-16.209227 37.53311,-28.800826 -40.43631,8.985974 -65.41691,-12.425946 -81.6069,-35.082097 z"
           id="path5600" /><path
           style="fill:#5c3b92;fill-opacity:1;stroke:none;stroke-width:0.0499999;stroke-linecap:round;stroke-linejoin:round;stroke-dasharray:none;stroke-opacity:1"
           d="m -127.65253,-91.367007 c 29.834572,32.710566 21.40978,64.331855 9.3679,90.3655435 8.56699,-4.6646447 13.82277,-8.3348051 32.728234,-25.0666875 4.734522,-15.076699 8.476743,-31.806034 10.926982,-50.34163 -17.753205,-7.49645 -35.412546,-12.214635 -53.023116,-14.957226 z"
           id="path5598" /><path
           style="fill:#5c3b92;fill-opacity:1;stroke:none;stroke-width:0.0499999;stroke-linecap:round;stroke-linejoin:round;stroke-dasharray:none;stroke-opacity:1"
           d="m -217.25533,-91.388711 c -17.65752,2.739306 -35.36393,7.462388 -53.16472,14.97893 2.64637,20.019259 6.79922,37.933161 12.08247,53.931592 13.82229,-42.431422 46.41721,-51.521577 75.97262,-52.854138 -7.98045,-4.87743 -13.3651,-8.638222 -34.89037,-16.056384 z"
           id="path7440" /><path
           id="path594"
           style="fill:#000000;stroke:none;stroke-width:0.0499999;stroke-linecap:round;stroke-linejoin:round;stroke-dasharray:none;stroke-opacity:1"
           d="m -190.59908,-94.195258 c -4.99377,0.02011 -10.06861,0.53254 -15.15566,1.596285 11.74467,4.632525 23.32094,8.334332 32.61454,21.283455 l -0.0315,0.0052 c -38.57185,1.753693 -51.95552,22.85067 -59.83821,39.612052 -11.32757,24.0863706 -3.38196,59.287558 16.74472,83.492578 -2.91799,-12.899038 -6.85036,-27.346243 -0.21808,-43.4195716 20.00443,31.1898516 44.37374,32.6157066 62.5197,31.4213376 26.55957,-1.74814 53.51539,-25.741404 64.952108,-55.070023 -9.894872,8.8158824 -20.656788,19.2761254 -37.995098,21.2224769 16.70601,-30.3447309 8.34957,-51.4735229 -0.6103,-66.6600139 -11.41191,-19.342595 -36.01579,-33.592321 -62.9822,-33.483744 z" /></g><g
         id="g5688"
         transform="translate(0.06781212)"
         style="stroke:none"><circle
           style="fill:#ffffff;stroke:none;stroke-width:0.0628767;stroke-linecap:round;stroke-linejoin:round;stroke-dasharray:none;stroke-opacity:1"
           id="circle7696"
           cx="-172.59254"
           cy="-18.916361"
           r="45.719246" /><circle
           style="fill:#5c3b92;fill-opacity:1;stroke:none;stroke-width:0.058968;stroke-linecap:round;stroke-linejoin:round;stroke-dasharray:none;stroke-opacity:1"
           id="circle7694"
           cx="-172.59254"
           cy="-18.916361"
           r="42.877151" /><circle
           style="fill:#ffffff;fill-opacity:1;stroke:none;stroke-width:0.0539426;stroke-linecap:round;stroke-linejoin:round;stroke-dasharray:none;stroke-opacity:1"
           id="path7692"
           cx="-172.59254"
           cy="-18.916361"
           r="39.22303" /></g><g
         id="g2373"
         style="fill:#ffbf1f;fill-opacity:1;stroke:none"><path
           d="m -174.4147,-11.125519 c 0,0 8.85622,0.535473 13.47792,2.9949103 v -0.9215108 c 0,0 3.77857,0.3860383 5.77717,1.9177385 l -1.00554,1.1518885 c 0,0 3.39133,3.2315138 4.24073,4.3024587 l -0.69326,0.69113306 c 0,0 0.14989,1.15188839 0.7682,1.45698316 0,0 -1.54266,1.30754908 -1.54266,2.84547568 v 0.2303777 l -1.46144,0.1494342 -0.45594,0.3050947 -2.70432,-0.3050947 0.23732,0.9962277 c 0,0 -0.77445,-0.4545288 -1.31156,3.6113258 0,0 -2.3858,0.5416989 -3.00411,1.6126438 -0.61207,1.0771707 -0.0749,-0.2303777 -0.0749,-0.2303777 l -1.77375,-0.074717 -0.0749,1.1456624 -0.53713,0.466982 0.22485,0.386038 c 0,0 -1.53642,1.226604 -1.7675,2.29755 0,0 -6.23932,-7.8266146 -7.55089,-17.5087036 -1.30532,-9.6696354 -0.7682,-7.5215204 -0.7682,-7.5215204"
           style="fill:#ffbf1f;fill-opacity:1;fill-rule:nonzero;stroke:none;stroke-width:0.0492786;stroke-miterlimit:4;stroke-dasharray:none;stroke-opacity:1"
           id="path17314"
           inkscape:connector-curvature="0" /><path
           style="fill:#ffbf1f;fill-opacity:1;fill-rule:nonzero;stroke:none;stroke-width:0.0495011;stroke-dasharray:none"
           d="m -159.72256,-53.833812 -0.53955,0.457351 c 0,0 -1.00254,1.778131 -8.73557,9.498754 -7.72049,7.726885 -8.19055,15.059197 -8.19055,15.059197 l -5.01939,-2.930602 -0.23187,-2.009718 c -2.70718,-1.934853 -2.70718,-7.03169 -2.70718,-7.03169 -2.31238,-0.763923 -2.08678,-1.233535 -2.08678,-1.233535 l 0.77092,-1.077463 c -3.89585,-1.104688 -5.9335,-4.550456 -6.48572,-5.624525 -0.10152,0.546643 -0.47,1.764762 -1.47291,4.390997 -2.23719,5.867171 -1.54786,10.732795 -1.54786,10.732795 l 1.31587,3.011735 -0.9274,0.07495 c 0.53016,5.466155 4.18348,13.943657 4.30781,14.230817 -0.54646,0.697455 -1.91866,2.496474 -5.07208,6.6895832 -7.26931,9.65547648 -5.25797,17.382599 -5.25797,17.382599 3.40279,-1.6280322 4.86949,-1.0082215 4.86949,-1.0082215 l 1.38474,-1.2335286 -0.0689,-0.4635509 1.54127,-1.3901077 1.69827,0.2252946 0.1504,-0.6133924 3.25269,-1.8536523 0.38853,-0.76998406 0.61414,-0.23149364 0.15039,-0.38859874 1.70434,-1.85313266 0.9279,0.7012561 0.1504,-0.3880978 c 0.5452,-2.0099872 7.26265,-7.1887886 7.26265,-7.1887886 -0.0689,-3.393814 1.16597,-4.858667 1.16597,-4.858667 l -1.7049,-1.546693 1.00893,-0.232057 2.08679,1.622139 c 1.54159,-2.009987 3.86682,-1.233666 3.32162,-1.540487 -0.53892,-0.313084 -0.77092,-2.322883 -0.77092,-2.322883 l -0.92739,-0.150405 -0.23187,-0.776709 1.07786,-1.158082 v -1.772 l 2.32479,0.619591 -0.0815,0.388098 -0.0752,0.764299 3.23954,1.778206 -3.86001,0.388097 -0.0814,1.621626 c 5.3391,1.314943 5.72794,4.865387 5.72794,4.865387 2.162,0.15028 4.94444,1.7720057 4.94444,1.7720057 -0.15666,-2.5484957 1.15883,-1.9285847 1.15883,-1.9285847 l 0.1504,0.613893 1.46683,-0.06875 c 0.77707,-1.083267 1.31586,-0.313146 1.31586,-0.313146 l 2.7822,1.6216261 6.57383,-2.0851641 c 1.00266,-2.705038 5.63377,-1.697073 5.63377,-1.697073 0.31333,-3.706904 4.56806,-2.780222 4.56806,-2.780222 -3.87279,-6.255394 -7.97072,-5.948541 -7.97072,-5.948541 0,0 -7.41381,2.07e-4 -8.9554,-0.07495 -1.54786,-0.07514 -3.9476,-1.239734 -3.9476,-1.239734 h -2.77612 l -0.54582,-0.538441 2.93918,-2.085164 0.62039,-7.182076 0.61413,-1.308976 c -0.61413,-0.156542 -1.93025,-1.390113 -1.93025,-1.390113 l 0.23187,-1.08315 -0.5452,-1.151882 c -0.45747,-0.619904 0.777,-3.249966 0.777,-3.249966 -1.39119,-1.001866 -0.85245,-2.085164 -0.85245,-2.085164 l 0.46373,-1.853659 c -1.54159,-1.853445 -1.08388,-8.797491 -1.08388,-8.797491 z"
           id="path7706" /></g></g><g
       id="g3945"
       transform="matrix(0.70663343,0,0,0.70663343,-84.415219,-58.507359)"
       style="stroke:none"><path
         id="rect2465"
         style="fill:#ffffff;stroke:none;stroke-width:0.0499999;stroke-linecap:round;stroke-linejoin:round;stroke-dasharray:none;stroke-opacity:1"
         d="m -163.87048,61.274839 c -1.15391,0 -2.08308,1.025288 -2.08308,2.298567 v 7.218164 c 0,1.273279 0.92917,2.298051 2.08308,2.298051 h 2.29805 c 1.15391,0 2.08308,-1.024772 2.08308,-2.298051 v -7.218164 c 0,-1.273279 -0.92917,-2.298567 -2.08308,-2.298567 z m 0.30541,2.172994 h 1.68723 v 7.469311 h -1.68723 z" /><path
         id="rect2579"
         style="fill:#ffffff;stroke:none;stroke-width:0.0499999;stroke-linecap:round;stroke-linejoin:round;stroke-dasharray:none;stroke-opacity:1"
         d="m -173.13245,63.321742 v 1.580265 h 2.51768 v -1.468644 h 1.42885 v 1.468644 l -3.80597,6.105054 v 2.118734 h 6.00485 v -2.118734 h -3.43188 l 3.65047,-5.905191 v -1.780128 c 0,-1.134012 -0.50856,-2.046903 -1.26457,-2.046903 0,0 -2.48977,0 -3.49489,0.0071 -1.00512,0.0071 -1.60454,0.914696 -1.60454,2.039848 z"
         sodipodi:nodetypes="scccccccccccsscss" /><path
         id="rect2575"
         style="fill:#ffffff;stroke:none;stroke-width:0.0499999;stroke-linecap:round;stroke-linejoin:round;stroke-dasharray:none;stroke-opacity:1"
         d="m -178.61945,61.23887 c -0.93506,-1.06e-4 -1.68775,1.025085 -1.68775,2.298363 v 3.057637 c 0,1.273277 0.75269,1.898133 1.68775,1.898133 h 2.12028 v 2.262394 h -3.26956 v 2.334473 h 3.33798 c 1.61639,0 2.264,-0.66124 2.264,-2.334473 v -7.218164 c 0,-1.273278 -0.75243,-2.297945 -1.68749,-2.298051 z m 0.60048,2.198627 h 1.56425 v 2.85719 h -1.56425 z"
         sodipodi:nodetypes="ssssccccsssssccccc" /><path
         id="rect2826"
         style="fill:#ffffff;stroke:none;stroke-width:0.0499999;stroke-linecap:round;stroke-linejoin:round;stroke-dasharray:none;stroke-opacity:1"
         d="m -184.01705,61.238665 c -0.1094,1.458971 -0.20615,1.853682 -1.4728,2.298568 l 5.2e-4,2.182637 c 0.56503,-0.0179 0.97472,-0.358446 1.47226,-0.793058 v 8.162809 h 2.58589 V 61.238665 Z"
         sodipodi:nodetypes="cccccccc" /></g></g></svg>
