<?xml version="1.0" encoding="UTF-8"?>
<svg id="Calque_2" data-name="Calque 2" xmlns="http://www.w3.org/2000/svg" viewBox="0 0 4742.51 3140.66">
  <defs>
    <style>
      .cls-1, .cls-2, .cls-3, .cls-4 {
        fill-rule: evenodd;
      }

      .cls-1, .cls-5 {
        fill: #fffffe;
      }

      .cls-6 {
        fill: #7acbe7;
      }

      .cls-2, .cls-7 {
        fill: #fff;
      }

      .cls-8, .cls-3 {
        fill: #08305d;
      }

      .cls-4 {
        fill: #c59c32;
      }
    </style>
  </defs>
  <g id="Calque_1-2" data-name="Calque 1">
    <g>
      <g>
        <path class="cls-8" d="M2332.67,3125.66c-94.23-25.93-182.25-60.98-261.67-104.2-529.27-288.1-524.89-840.18-522.64-902.18l-.03-988.52h1677.69v989.79c2.24,60.7,6.84,612.67-522.67,900.89-79.36,43.21-167.41,78.26-261.64,104.19l-54.51,15.03-54.54-15Z"/>
        <path class="cls-7" d="M2341.99,3091.75c-91.65-25.21-177.17-59.25-254.19-101.17-508.49-276.78-506.81-801.37-504.32-870.02v-954.64h1607.39v954.64c2.5,68.65,4.16,593.22-504.33,870.02-77,41.91-162.51,75.95-254.17,101.17l-45.19,12.44-45.2-12.44Z"/>
        <g>
          <path class="cls-8" d="M2377.84,2961.38c-81.67-22.46-157.51-52.59-225.41-89.57-458.48-249.57-433.99-744.81-433.7-749.79l-.05-449.41h1336.96v451.54c.24,2.85,24.73,498.08-433.75,747.67-67.9,36.97-143.73,67.11-225.41,89.57h-18.65Z"/>
          <g>
            <path class="cls-5" d="M2387.16,1707.75h-217.91v1133.19c62.75,34.16,134.87,63.7,217.91,86.55,83.04-22.85,155.17-52.39,217.92-86.55v-1133.19h-217.92Z"/>
            <path class="cls-6" d="M1753.84,1707.75v416.39s-28.75,475.01,415.41,716.8v-1133.19h-415.41Z"/>
            <path class="cls-6" d="M3020.49,2124.14v-416.39h-415.41v1133.19c444.16-241.79,415.41-716.8,415.41-716.8Z"/>
          </g>
        </g>
        <g>
          <path id="Fill-6" class="cls-3" d="M2138.97,1574.05c7.36-.92,12.82-2.79,16.33-5.54,3.54-2.79,6.46-8.49,8.76-17.12l37.94-141.76c1.11-4,1.92-7.36,2.43-10.03.6-2.79.89-5.19.89-7.25,0-5.35-1.46-8.68-4.38-10.03-2.92-1.43-9.01-2.57-18.28-3.38v-8.17h98.28l-.03,8.17c-10.76,1.14-18.04,2.87-21.77,5.25-3.73,2.27-6.84,8.06-9.36,17.42l-40.21,150.87c-.41,1.62-.76,3.16-1.08,4.62-.19,1.43-.27,3.14-.27,5.08,0,3.49,1.51,6,4.52,7.55,3.03,1.43,7.27,2.16,12.71,2.16,21.26,0,39.59-3.7,55.01-11.09,15.55-7.41,29.18-21.26,40.97-41.51l7.41,1.41-18.12,61.39h-171.75v-8.03h0Z"/>
          <path id="Fill-7" class="cls-3" d="M2537.59,1576.48l154.63-191.12h-24.5c-20.01.51-37.35,5.6-52,15.25-9.49,6.3-20.15,16.69-31.94,31.18l-8.55-1.24,22.96-56.3h147.66l-.84,9.28-154.34,191.12h22.36c17.69,0,32.64-2.16,44.84-6.49,22.31-7.92,40.59-23.04,54.84-45.35l8.36,1.38-24.18,61.39h-160.12l.81-9.09h0Z"/>
          <path id="Fill-8" class="cls-3" d="M2727.17,1574.05c7.49-.92,13.06-2.79,16.66-5.54,3.6-2.79,6.57-8.49,8.95-17.12l38.73-141.76c1.11-4,1.95-7.36,2.46-10.03.62-2.76.92-5.19.92-7.25,0-5.35-1.51-8.68-4.46-10.03-3-1.43-9.22-2.57-18.69-3.38v-8.17h93.95v8.17c-7.71,1.03-13.31,2.87-16.82,5.54-3.38,2.68-6.25,8.38-8.63,17.12l-38.89,141.76-2.46,10.95c-.19,1.03-.41,2.11-.6,3.25-.11,1.03-.16,2-.16,2.92,0,5.35,1.43,8.73,4.3,10.17,2.89,1.46,9.11,2.6,18.69,3.41v8.03h-93.95v-8.03h0Z"/>
          <path id="Fill-10" class="cls-3" d="M1704.25,1594.71l16.31-70.58,9.03.62c-.08,10.03.27,17.36,1.08,21.99,1.41,7.68,4.49,14.5,9.19,20.44,4.33,5.44,9.38,9.6,15.12,12.47,5.87,2.76,12.33,4.14,19.39,4.14,12.63,0,22.64-3.98,30.07-11.98,7.55-8.09,11.68-17.47,12.44-28.15.92-13.22-10.79-29.94-35.1-50.11-24.29-21.12-35.78-40.67-34.53-58.6,1.19-16.93,7.84-31.32,19.96-43.22,12.2-11.87,28.45-17.82,48.76-17.82,5.65,0,11.39.57,17.25,1.68,3.84.73,7.22,1.6,10.14,2.62l7.82,2.62c1.7.51,3.46.97,5.27,1.38,1.84.3,3.46.46,4.89.46,3.68,0,6.57-.76,8.63-2.3,2.03-1.54,3.87-3.43,5.46-5.68h9.38l-17.17,63.04-8.25-1.08-.35-10.3c-.65-9.74-3.08-18.09-7.3-25.07-6.63-10.95-17.01-16.44-31.15-16.44-12.12-.03-21.23,4.38-27.37,13.2-4.11,5.87-6.41,12.17-6.87,18.93-.51,7.17.95,13.52,4.35,19.07,1.95,3.08,4.92,6.41,8.98,10.01l25.69,22.28c9.09,7.9,16.63,16.93,22.72,27.07,6.06,10.03,8.63,21.53,7.73,34.45-1.16,16.6-8.79,31.61-22.85,45.05-13.95,13.33-32.34,19.99-55.22,19.99-5.73,0-11.49-.57-17.25-1.7-5.68-1.03-11.25-2.57-16.74-4.62l-7.82-2.92c-2.6-1.03-4.38-1.62-5.38-1.84-1.03-.3-2.19-.46-3.52-.46-3.49,0-6.06.87-7.73,2.62-1.54,1.62-3.38,4.54-5.52,8.76h-9.55Z"/>
          <path id="Fill-11" class="cls-3" d="M1856.83,1553.52c4.92-4.52,10.57-6.76,16.93-6.79,6.46,0,11.79,2.33,15.98,6.92,4.3,4.52,6.22,9.95,5.76,16.31-.43,6.46-3.14,12.01-8.06,16.6-4.84,4.52-10.49,6.76-16.96,6.76s-11.68-2.24-15.96-6.76c-4.19-4.6-6.08-10.14-5.63-16.6.46-6.46,3.08-11.95,7.92-16.44h0Z"/>
          <path id="Fill-12" class="cls-3" d="M1901.94,1594.74l16.33-70.58,9.03.62c-.11,10.03.24,17.36,1.05,21.99,1.41,7.68,4.46,14.5,9.19,20.44,4.33,5.44,9.36,9.57,15.12,12.47,5.84,2.76,12.3,4.14,19.39,4.14,12.63,0,22.64-4,30.07-11.98,7.52-8.09,11.66-17.47,12.41-28.15.92-13.22-10.79-29.91-35.1-50.11-24.26-21.15-35.75-40.67-34.51-58.6,1.19-16.93,7.84-31.32,19.93-43.22,12.22-11.87,28.48-17.82,48.79-17.82,5.63,0,11.39.57,17.25,1.7,3.84.7,7.22,1.57,10.11,2.6l7.82,2.62c1.7.51,3.49.97,5.3,1.38,1.81.3,3.46.46,4.89.46,3.68,0,6.54-.76,8.6-2.3,2.06-1.54,3.89-3.43,5.49-5.71h9.38l-17.17,63.07-8.25-1.08-.35-10.3c-.65-9.74-3.08-18.09-7.33-25.07-6.6-10.95-16.98-16.44-31.13-16.44-12.12,0-21.23,4.41-27.39,13.2-4.08,5.84-6.38,12.17-6.84,18.93-.51,7.17.95,13.52,4.35,19.07,1.95,3.06,4.92,6.41,9.01,9.98l25.64,22.31c9.09,7.9,16.66,16.93,22.74,27.07,6.06,10.06,8.63,21.53,7.73,34.45-1.16,16.6-8.79,31.61-22.85,45.05-13.95,13.31-32.34,19.96-55.22,19.99-5.73,0-11.49-.57-17.25-1.7-5.68-1.03-11.25-2.57-16.74-4.62l-7.79-2.92c-2.62-1.03-4.41-1.62-5.44-1.84-1-.3-2.16-.46-3.49-.46-3.49,0-6.06.87-7.73,2.62-1.54,1.62-3.38,4.54-5.52,8.76h-9.55Z"/>
          <path id="Fill-13" class="cls-3" d="M2064.66,1553.52c4.92-4.49,10.57-6.73,16.93-6.76,6.46.03,11.76,2.33,15.96,6.92,4.3,4.52,6.22,9.95,5.79,16.31-.46,6.46-3.14,12.01-8.09,16.6-4.81,4.52-10.47,6.76-16.93,6.76s-11.68-2.24-15.98-6.76c-4.19-4.62-6.06-10.17-5.6-16.6.43-6.46,3.08-11.95,7.92-16.47h0Z"/>
          <path id="Fill-14" class="cls-3" d="M2899.62,1417.6c27.56-32.29,58.44-48.43,92.57-48.43,22.72,0,41.38,6.84,55.98,20.53,14.6,13.68,21.91,32.18,21.91,55.52,0,34.05-12.9,66.39-38.7,97.03-27.58,32.8-59.25,49.19-95.03,49.19-22.53,0-40.89-6.84-55.09-20.5-14.09-13.79-21.12-32.13-21.12-55.09,0-34.53,13.14-67.28,39.48-98.25ZM2909.36,1561.53c5.03,12.63,14.2,18.96,27.45,18.96,12.44,0,23.74-4.57,33.94-13.74,10.2-9.25,20.72-26.83,31.61-52.73,6.9-16.36,12.3-33.59,16.2-51.68,3.89-18.09,5.87-32.75,5.87-43.97,0-10.57-2.62-19.63-7.87-27.12-5.25-7.63-13.41-11.41-24.53-11.41-26.23,0-48.27,23.28-66.18,69.85-13.58,35.4-20.36,64.85-20.36,88.4,0,9.14,1.27,16.96,3.87,23.45h0Z"/>
          <path id="Fill-15" class="cls-3" d="M2459.11,1505.28l-.97-76.83-57.49,76.83h58.47ZM2318.41,1575.91c6.11-1.73,10.71-3.65,13.77-5.71,4.52-2.97,9.87-8.52,16.06-16.66l143.22-185.71h8.17l4.95,180.62c.38,12.14,1.78,19.58,4.3,22.36,2.49,2.68,8.57,4.38,18.25,5.08l-1.05,7.55h-95.79l1.05-7.55c9.14-.7,15.71-2.16,19.74-4.33,4.08-2.24,6.65-6.87,7.63-13.87.32-2.35.57-8,.68-16.96.05-1.87.11-9.52.14-22.99h-68.01l-23.01,32.07c-1.54,2.16-3,4.52-4.38,7.09-1.3,2.6-2.08,5.06-2.43,7.41-.6,4.33.3,7.11,2.68,8.33,2.51,1.24,7.87,2.33,16.06,3.25l-1.05,7.55h-62.01l1.05-7.55h0Z"/>
        </g>
      </g>
      <g>
        <path class="cls-4" d="M3219.05,0c-402.71,0-452.56,172.34-605.73,279.44-112.28,78.5-306.41,151.64-482.89-47.23C1934.05,10.93,1679.39.22,1679.39.22H0s57.17,190.78,382.49,190.78c101.31,136.9,240.7,127.51,240.7,127.51,76.12,99.36,209.31,99.36,209.31,99.36,57.75,62.71,124.59,89.46,195.57,89.46,42.14,79.26,182.81,77.16,182.81,77.16,41.16,54.28,170.28,78.96,170.28,78.96,37.45,56.14,124.04,60.83,124.04,60.83,32.99,52.41,88.49,69.24,125.89,69.24,32.07,54.53,119.2,48.19,119.2,48.19,33.7,72.99,225.72,110.06,225.72,110.06-9.33,18.68-102.84,46.67-102.84,46.67,5.65,14.96,35.56,24.34,35.56,24.34-21.88,28.14-93.49,54.94-116.31,62.95-.43.15-.84.29-1.23.43-3.71,1.29-5.83,1.98-5.83,1.98,39.29,39.33,73.15,41.79,73.15,41.79l3.36,1.92,13.33,7.62s41.27,11.36,54.19,27.53c4.38,5.47,5.51,11.5.7,17.82,0,0-19.03,67.99-44.05,83.46-23.05,14.28,122.93-29.04,121.66-101.28-.11-6.15-1.28-12.51-3.72-19.06,0,0,18.64,2.97,30.57,19.06,12.04,16.22,17.28,45.76-10.21,99.01,0,0,101.09-33.65,96.62-99.01-.21-3.07-.65-6.22-1.35-9.43,0,0,9.99,1.87,18.74,9.43,14.49,12.5,25.61,40.56-17.44,101.47,0,0,104.82-21.1,121.85-101.47,2.02-9.51,2.8-19.86,2.04-31.1l84.64.08s29.26,8.2,41.63,31.02c9.41,17.34,9.06,43.13-21.29,80.19,0,0,110.62-17.84,115.87-80.19.49-5.84.06-12.07-1.48-18.71,0,0,11.91,5.74,20.48,18.71,10.98,16.62,16.47,45.13-15.64,88.65,0,0,101.45-38.12,106.99-88.65.5-4.52.23-9.14-.95-13.84,0,0,13.61,2.03,22.64,13.84,10.62,13.87,14.92,41.25-16.61,94.71,0,0,93.87-41.67,104.58-89.38.43-1.9.82-3.67,1.18-5.33,8.87-40.04,1.47-12.54,1.47-12.54v1.32c-.44-8.18-2.02-16.29-4.2-23.93-7.27-25.56-21.22-45.84-21.22-45.84,89.19-64.28,98.06-110.18,98.06-110.18,165.42,0,273.21-122.26,273.21-122.26,53.25-1.93,81.2-31.61,93.21-59.58,90.3,0,106.59-34.23,108.3-46.19,89.92,0,118.99-61.58,120.5-61.58,136.05,0,201.26-57.53,201.26-97.89,136.3,0,173.49-81.44,173.49-81.44,124.71,0,182.04-89.01,182.04-89.01,153.7,0,220.7-99.36,220.7-99.36,176.57,0,268.65-128.03,268.65-128.03,292.81,0,340.2-189.18,340.2-189.18,0,0-1168.65-1.3-1523.46-1.3ZM2771.49,194.84c37.9-37.9,80.65-68.24,125.5-91.38,75-38.7,155.91-57.3,230-57.6h684.6s14.68,31.48-79.33,57.6h-712.13c-28.91,5.84-77.66,24.7-154.66,78.32l689.25,2.59s-28.72,47.3-133.13,52.52l-610.94-.3-112.25,80.94s527.37-2.7,628.89-.08c-56.09,42.76-132.84,42.19-132.84,42.19h-543.06s-48.02,24.26-74.85,24.26c-31.56,0-40.76-6.33-40.76-6.33,0,0,120.83-67.88,235.71-182.73Z"/>
        <path id="Fill-17" class="cls-1" d="M876.82,44.77s26.23,46.87,95.63,74.99H419.32s-241.88,3.76-307.51-74.99h765Z"/>
        <path id="Fill-18" class="cls-1" d="M1157.69,191s26.23,43.86,95.63,72.02h-527.14s-200.85,6.73-266.48-72.02h698Z"/>
        <path id="Fill-19" class="cls-1" d="M1397.67,318.51s26.26,36.35,95.63,64.5h-550.9s-168.46,6.73-239.7-64.5h694.97Z"/>
        <path id="Fill-20" class="cls-1" d="M1561.18,417.86s26.26,19.88,95.63,48h-586s-82.73,6.36-152.13-48h642.5Z"/>
        <path id="Fill-21" class="cls-1" d="M1737.42,509.73s9.76,12.36,79.13,40.48h-538.98s-102.7,13.87-172.06-40.48h631.91Z"/>
        <path id="Fill-22" class="cls-1" d="M1878.42,586.59s.76,12.39,70.12,40.51h-436.74s-160.54,13.85-229.9-40.51h596.52Z"/>
        <path id="Fill-23" class="cls-1" d="M2049.42,663.44s-29.23,3.38,40.13,31.51h-499.66s-113.96,10-155.47-31.51h615Z"/>
        <path id="Fill-24" class="cls-1" d="M2083.95,725.7s28.45-11.63-21.39,31.51h-359.89s-113.23,11.01-155.75-31.51h537.03Z"/>
        <path id="Fill-25" class="cls-1" d="M2041.2,791.33s28.48-17.63-21.36,25.47h-208.08s-114.84,8.28-148.59-25.47h378.04Z"/>
        <path id="Fill-26" class="cls-1" d="M1990.22,841.55s28.48-17.61-21.36,25.53h-68.49s-71.71,1.33-133.68-25.53h223.54Z"/>
        <path id="Fill-27" class="cls-1" d="M3891.74,44.77s-26.23,46.87-95.63,74.99h640.65s127.34,3.76,192.97-74.99h-738Z"/>
        <path id="Fill-28" class="cls-1" d="M3610.87,191s-26.26,43.86-95.63,72.02h592.21s130.78,6.73,196.42-72.02h-693Z"/>
        <path id="Fill-29" class="cls-1" d="M3370.89,318.51s-26.26,36.35-95.63,64.5h502.11s208.22,6.73,279.48-64.5h-685.97Z"/>
        <path id="Fill-30" class="cls-1" d="M3207.39,417.86s19.85,6.65,19.85,43.49h496.04s82.53,10.57,136.59-43.49h-652.47Z"/>
        <path id="Fill-31" class="cls-1" d="M2837.84,747.52s2.62-18.25-18.28,23.5l78.32,1.41s211.88,10.14,301.51-25.5l-361.54.59h0Z"/>
        <path id="Fill-32" class="cls-1" d="M2788.24,851.96s-38.4-17.52,11.44,25.61h55.17s57.39,10.11,147.03-25.53l-213.64-.08h0Z"/>
        <path id="Fill-33" class="cls-1" d="M2412.28,395.07h668.38s96.6-7.82,107.04,73.1c0,0,7.84,18.28-18.28,20.9-26.1,2.6-271.52,0-271.52,0l-23.5,28.69h182.76s31.32-2.6,28.72,28.75l114.88-49.62h114.88s133.13-10.44,117.48,138.38c0,0-18.28-65.28-114.88-65.28h-266.3l-23.5,28.75,300.24,2.6s65.26,5.22,80.94,52.22h-412.52s-20.88-26.12-75.69-5.22c-54.84,20.88-5.22,0-5.22,0,0,0-130.57,83.54-193.22,73.1-62.63-10.44-78.32-44.38-44.38-78.32,0,0-148.82,15.66-36.54-62.69,0,0-80.94-28.69,60.04-96.57h-143.6s-93.98-7.84-133.13-62.66c-39.16-54.84-13.06-26.12-13.06-26.12h0Z"/>
        <path id="Fill-34" class="cls-1" d="M2928.38,686.89s-6.98-7.25-51.36,25.5h287.64s108.46,7.79,141.76-25.5h-378.04Z"/>
        <path id="Fill-35" class="cls-1" d="M3434.2,504.78s-6.3-5.27,21.36,42h159.64s44.27,0,78.54-42h-259.54Z"/>
        <path id="Fill-36" class="cls-1" d="M2801.33,793.12s2.6-18.28-18.28,23.5l10.41,1.41s245.42,18.28,301.48-24.1l-293.61-.81h0Z"/>
        <path id="Fill-37" class="cls-1" d="M3469.68,585.67l-2.62,48.12s49.6-19.11,49.6-48.12h-46.97Z"/>
        <path id="Fill-38" class="cls-1" d="M1044.22,100.05s-83.54-11.36-101.82-55.28h728.41s232.38,8.3,407.3,188.44c174.92,180.14,214.08,159.26,295.02,167.07l36.56,57.44s-47,10.44-114.88-20.88h-577s-75.72,0-93.98-28.72h608.31s-52.22-20.88-80.94-49.6h-553.5s-114.88,5.22-133.13-39.16h623.97s-26.1-54.84-99.22-88.78h-686.63s-65.26-2.6-86.16-41.75h731.04s-2.94-2.48-8.31-6.63c-69.19-53.39-154.23-82.16-241.63-82.16h-653.41Z"/>
        <path id="Fill-39" class="cls-1" d="M1861.41,533.45s-47-10.44-65.28-28.72h548.28s60.04-33.94,99.22-20.88c0,0,36.54,23.47,52.19,18.28,0,0-65.26,70.47-216.7,62.63,0,0,2.62-23.47,26.12-33.94l-443.84,2.62h0Z"/>
        <path id="Fill-40" class="cls-1" d="M2527.16,507.32h86.16s-2.62,49.62-125.32,44.41l39.16-44.41h0Z"/>
        <path id="Fill-41" class="cls-1" d="M2584.6,567.39s-39.16,20.88-75.72,18.28c0,0-13.06,23.5-62.66,52.22,0,0,88.78,31.32,154.04-54.84l-15.66-15.66h0Z"/>
        <path id="Fill-42" class="cls-1" d="M2454.07,559.54s-60.06,28.72-104.44,23.5c0,0-20.88,39.16-52.22,60.06,0,0,104.44,28.72,182.76-65.28l-26.1-18.28h0Z"/>
        <path id="Fill-43" class="cls-1" d="M2574.17,640.48s-31.34,15.69-60.06,20.9c-28.72,5.22-5.22,2.6-5.22,2.6,0,0-5.22,26.1-36.54,39.16,0,0,75.72,47,140.98-26.1,0,0-36.56-15.66-36.56-28.72s-2.6-7.84-2.6-7.84h0Z"/>
        <path id="Fill-44" class="cls-1" d="M2422.72,656.17s-57.44,18.25-75.72,15.66c0,0-5.19,26.1-39.16,36.54-33.91,10.47-5.22,0-5.22,0,0,0,109.66,41.78,167.1-39.16l-47-13.03h0Z"/>
        <path id="Fill-45" class="cls-1" d="M2454.07,718.8s-26.12,20.9-99.22,41.78c0,0,54.84,78.32,198.42-13.06,0,0-73.1-2.6-86.16-18.25-13.03-15.66-13.03-10.47-13.03-10.47h0Z"/>
        <path id="Fill-46" class="cls-1" d="M2467.1,810.18s-23.47,33.94-54.82,41.78c-31.32,7.84-7.84,2.6-7.84,2.6,0,0,90.57,24.74,148.82-62.63,31.34-47-36.54,15.66-86.16,18.25h0Z"/>
        <path id="Fill-47" class="cls-1" d="M2417.5,812.8s-67.88,2.62-75.69-28.72c0,0-49.62,26.1-80.94,20.88-31.34-5.22-5.22,0-5.22,0,0,0-7.84,26.12-36.56,41.78,0,0,94,47,172.29-13.06,78.34-60.04,26.12-20.88,26.12-20.88h0Z"/>
        <path id="Fill-48" class="cls-1" d="M2271.31,721.43s23.47,15.66,67.88,18.28c0,0-39.16,60.04-151.42,33.94-112.28-26.12-5.22-2.62-5.22-2.62,0,0,28.72-18.28,36.54-31.32,0,0,31.34-7.84,41.78-13.06l10.44-5.22h0Z"/>
        <path id="Fill-49" class="cls-1" d="M2271.31,653.55s7.82,18.28,39.16,13.06c0,0-47,62.66-164.48,47-117.48-15.69-5.22-2.62-5.22-2.62,0,0,57.44-28.72,70.5-49.6l60.04-7.84h0Z"/>
        <path id="Fill-50" class="cls-1" d="M2117.27,731.86s49.6,18.28,57.44,13.06c0,0-23.5,23.5-83.54,31.32-60.06,7.84-5.22,0-5.22,0l31.32-44.38h0Z"/>
        <path id="Fill-51" class="cls-1" d="M2153.83,786.71s41.75,26.1,62.66,20.88c0,0-5.22,65.28-185.38,39.16-180.16-26.1-5.22-2.62-5.22-2.62,0,0,91.38-36.54,109.63-49.6,18.31-13.06,18.31-7.82,18.31-7.82h0Z"/>
        <path id="Fill-52" class="cls-1" d="M2294.81,585.67s7.82,49.6-107.04,60.04c-114.88,10.47-5.25,0-5.25,0l20.9-36.54h-229.76s-44.38-10.44-52.22-23.5h373.36Z"/>
        <path id="Fill-53" class="cls-1" d="M2080.71,658.77h65.28s4.22,16.04-26.1,26.1l-39.19-26.1h0Z"/>
        <path id="Fill-54" class="cls-1" d="M1934.51,1008.63s91.38-39.19,177.54-101.85c0,0,125.32-83.54,167.07-13.03,41.78,70.48-195.79,125.32-195.79,125.32l-148.82-10.44h0Z"/>
        <path id="Fill-55" class="cls-1" d="M1934.51,1037.35s117.5,23.47,161.88,5.22c0,0-112.26,88.76-245.45,57.41-133.13-31.32,0-5.19,0-5.19,0,0,39.19-18.31,67.91-41.78,28.72-23.5,15.66-15.66,15.66-15.66h0Z"/>
        <path id="Fill-56" class="cls-1" d="M1908.39,1136.54s88.78-41.75,44.41,26.1l-44.41-26.1h0Z"/>
        <path id="Fill-57" class="cls-1" d="M2010.23,1144.38s99.2-67.91,60.04,18.25c0,0-23.5-26.1-39.16-15.66-15.66,10.47-5.22,0-5.22,0l-15.66-2.6h0Z"/>
        <path id="Fill-58" class="cls-1" d="M2119.89,1146.98s86.13-44.38,62.63,20.9c0,0-13.03-20.9-41.75-15.69l-20.88-5.22h0Z"/>
        <path id="Fill-59" class="cls-1" d="M2407.06,1006s174.92-96.6,201.04-127.92c0,0,83.54-86.16,135.76-28.75,52.22,57.44-120.1,138.41-151.42,148.82-31.34,10.47-185.38,7.84-185.38,7.84h0Z"/>
        <path id="Fill-60" class="cls-1" d="M2396.63,1026.88s112.26,26.12,190.6,0c0,0-80.94,109.66-295.04,65.28,0,0,62.66-26.12,86.16-49.6,23.5-23.5,18.28-15.69,18.28-15.69h0Z"/>
        <path id="Fill-61" class="cls-1" d="M2365.28,1133.94s88.78-41.78,44.41,26.1l-44.41-26.1h0Z"/>
        <path id="Fill-62" class="cls-1" d="M2474.94,1141.76s99.22-67.88,60.06,18.28c0,0-23.5-26.1-39.19-15.66-15.66,10.44-5.22,0-5.22,0l-15.66-2.62h0Z"/>
        <path id="Fill-63" class="cls-1" d="M2576.76,1144.38s107.04-54.84,62.66,20.88c0,0-13.03-20.88-41.76-15.66l-20.9-5.22h0Z"/>
        <path class="cls-2" d="M3733.35,102.38h-618.94c-87.21,0-172.48,26.29-244.26,75.83-1.19.82-2.39,1.65-3.59,2.49l689.25,2.59s-28.72,47.3-133.13,52.52l-610.94-.3-112.25,80.94s527.37-2.7,628.89-.08c-56.09,42.76-132.84,42.19-132.84,42.19h-543.06s-48.02,24.26-74.85,24.26c-31.56,0-40.76-6.33-40.76-6.33,0,0,120.83-67.88,235.71-182.73,37.9-37.9,80.65-68.24,125.5-91.38,75-38.7,155.91-57.3,230-57.6h684.6s14.68,31.48-79.33,57.6Z"/>
      </g>
    </g>
  </g>
</svg>