<?xml version="1.0" encoding="UTF-8" standalone="no"?>
<!-- Created with Inkscape (http://www.inkscape.org/) -->

<svg
   xmlns:dc="http://purl.org/dc/elements/1.1/"
   xmlns:cc="http://creativecommons.org/ns#"
   xmlns:rdf="http://www.w3.org/1999/02/22-rdf-syntax-ns#"
   xmlns:svg="http://www.w3.org/2000/svg"
   xmlns="http://www.w3.org/2000/svg"
   xmlns:sodipodi="http://sodipodi.sourceforge.net/DTD/sodipodi-0.dtd"
   xmlns:inkscape="http://www.inkscape.org/namespaces/inkscape"
   id="svg2"
   version="1.1"
   inkscape:version="0.91 r13725"
   xml:space="preserve"
   width="575"
   height="700"
   viewBox="0 0 575.00002 700"
   sodipodi:docname="Logo Levante UD.svg"><metadata
     id="metadata8"><rdf:RDF><cc:Work
         rdf:about=""><dc:format>image/svg+xml</dc:format><dc:type
           rdf:resource="http://purl.org/dc/dcmitype/StillImage" /><dc:title></dc:title></cc:Work></rdf:RDF></metadata><defs
     id="defs6" /><sodipodi:namedview
     pagecolor="#ffffff"
     bordercolor="#666666"
     borderopacity="1"
     objecttolerance="10"
     gridtolerance="10"
     guidetolerance="10"
     inkscape:pageopacity="0"
     inkscape:pageshadow="2"
     inkscape:window-width="1440"
     inkscape:window-height="788"
     id="namedview4"
     showgrid="false"
     inkscape:zoom="0.77679834"
     inkscape:cx="195.30331"
     inkscape:cy="395.96693"
     inkscape:window-x="0"
     inkscape:window-y="1"
     inkscape:window-maximized="1"
     inkscape:current-layer="g10" /><g
     id="g10"
     inkscape:groupmode="layer"
     inkscape:label="Logo Levante UD"
     transform="matrix(1.25,0,0,-1.25,0,700.00002)"><g
       id="g5191"
       transform="matrix(1.000698,0,0,1.0020061,-0.56108223,-0.56006486)"><g
         id="g5187"><path
           inkscape:connector-curvature="0"
           id="path422"
           style="fill:#0c0802;fill-opacity:1;fill-rule:nonzero;stroke:none"
           d="m 230.38359,0.55895953 c -10.42188,0 -20.2699,7.49151997 -39.80276,25.41620047 -40.84168,37.46577 -75.90129,76.05267 -104.216049,114.69401 -2.605469,-0.54152 -5.276213,-0.81637 -7.944227,-0.81637 -21.197321,0 -38.445634,17.25526 -38.445634,38.46446 0,8.32693 2.610909,16.2348 7.549877,22.88818 -48.658089,88.3526 -59.952989,173.94315 -31.795971,241.03212 21.575352,51.40114 65.699712,88.67914 124.249324,104.97109 l 0.44603,0.12518 9.28233,-18.888 -0.46507,-0.25851 c -11.87691,-6.5908 -19.25273,-19.11386 -19.25273,-32.68458 0,-20.5942 16.74246,-37.34604 37.32511,-37.34604 20.57995,0 37.3224,16.75184 37.3224,37.34604 0,4.24782 -0.70712,8.41945 -2.10504,12.39788 -13.09806,1.27081 -23.30508,12.49312 -23.30508,25.71281 0,25.58492 0.24205,25.82439 25.81264,25.82439 9.16266,0 17.67259,-4.89004 22.29063,-12.7843 l 6.17099,0 c 4.62348,7.89426 13.13341,12.7843 22.28519,12.7843 25.57331,0 25.81537,-0.23947 25.81537,-25.82439 0,-13.24418 -10.22063,-24.47194 -23.33773,-25.72098 -1.39519,-3.97026 -2.0996,-8.13645 -2.0996,-12.38971 0,-20.5942 16.74246,-37.34604 37.32239,-37.34604 20.57995,0 37.3224,16.75184 37.3224,37.34604 0,13.57072 -7.37582,26.0965 -19.25273,32.68458 l -0.46507,0.25851 9.2932,18.888 0.44604,-0.12518 c 58.54146,-16.29195 102.6631,-53.56995 124.23845,-104.96564 28.15701,-67.07809 16.87028,-152.65776 -31.76605,-240.99947 4.958,-6.67515 7.57435,-14.59391 7.57435,-22.92628 0,-21.2092 -17.24831,-38.46446 -38.45107,-38.46446 -2.65986,0 -5.3442,0.28029 -7.98231,0.83542 C 346.19099,102.10947 311.16402,63.54977 270.33049,26.06768 251.10767,8.4287295 240.77827,0.55895953 230.38359,0.55895953" /><path
           inkscape:connector-curvature="0"
           id="path446"
           style="fill:#b2b2b2;fill-opacity:1;fill-rule:nonzero;stroke:none"
           d="m 124.82102,526.28029 c -6.26074,-8.6426 -9.95681,-19.27441 -9.95681,-30.77701 0,-28.97556 23.47914,-52.47874 52.44934,-52.47874 11.69198,0 22.48373,3.82876 31.20581,10.2971 -10.86791,-11.97881 -26.8135,-19.57102 -45.11977,-19.57102 -30.89032,0 -54.815487,22.61879 -60.714501,51.74129 l -3.165725,-1.83682 C 44.388716,456.16531 17.028569,409.3576 15.940691,349.87444 11.056115,435.33981 53.991964,498.8395 124.82102,526.28029 m 210.81183,0 C 406.46191,498.8395 449.38959,435.33981 444.5023,349.87444 443.42531,409.3576 416.05427,456.16531 370.92636,483.65509 l -3.16573,1.83682 c -5.89087,-29.1225 -29.81604,-51.74129 -60.7145,-51.74129 -18.30629,0 -34.2437,7.59221 -45.11161,19.57102 8.72206,-6.46834 19.51382,-10.2971 31.20852,-10.2971 28.96748,0 52.44662,23.50318 52.44662,52.47874 0,11.5026 -3.69606,22.13441 -9.95681,30.77701" /></g><g
         id="g5166"><path
           style="fill:#ffffff;fill-opacity:1;fill-rule:nonzero;stroke:none"
           d="m 408.74509,339.37352 c 1.64542,-18.48525 0.3998,-38.55698 -4.12306,-59.91312 L 78.78336,214.60555 c -9.06475,19.05943 -15.733442,37.46849 -20.210064,55.06934 l 350.171794,69.69863 z"
           id="path4993"
           inkscape:connector-curvature="0" /><g
           id="g5105"><path
             inkscape:connector-curvature="0"
             id="path5095"
             d="m 119.16514,357.81822 c 16.67173,3.32806 28.94844,5.93771 28.94844,5.93771 9.91058,2.14704 18.08327,9.03445 21.99419,18.1587 3.19565,-0.79732 6.37225,-1.47762 9.72564,-1.47762 3.44313,0 6.76932,0.56873 9.86161,1.60824 l 0,-80.70052 -70.52988,-14.0415 0,70.51499 z"
             style="fill:#b4053f;fill-opacity:1;fill-rule:nonzero;stroke:none" /><path
             inkscape:connector-curvature="0"
             id="path5093"
             d="m 189.69502,67.26805 c -28.16789,27.28296 -51.53553,54.16862 -70.52988,80.28145 l 0,69.51903 70.52988,14.0415 0,-43.39803 c -7.86536,-9.31202 -12.62211,-21.34526 -12.62211,-34.49419 0,-13.15166 4.75675,-25.1849 12.62211,-34.4942 l 0,-51.45556 z"
             style="fill:#b4053f;fill-opacity:1;fill-rule:nonzero;stroke:none" /><path
             inkscape:connector-curvature="0"
             id="path5091"
             d="m 271.13906,382.08063 c 3.13036,-1.06672 6.48375,-1.64362 9.97585,-1.64362 3.3425,0 6.51095,0.66942 9.69571,1.46946 3.91909,-9.12698 12.08361,-16.0035 21.9833,-18.15054 l 28.87502,-5.74178 0,-26.42033 -70.52988,-14.0415 0,64.52831 z"
             style="fill:#b4053f;fill-opacity:1;fill-rule:nonzero;stroke:none" /><path
             inkscape:connector-curvature="0"
             id="path434"
             d="M 341.66894,147.42705 C 322.65827,121.33326 299.30967,94.45849 271.13906,67.19186 l 0,51.39025 c 7.94967,9.33106 12.74178,21.42961 12.74178,34.6357 0,13.21424 -4.79211,25.31279 -12.74178,34.64386 l 0,59.45595 70.52988,14.04149 0,-113.93206 z"
             style="fill:#b4053f;fill-opacity:1;fill-rule:nonzero;stroke:none" /></g><g
           id="g5157"><path
             id="path5079"
             d="m 265.67845,61.95024 c -3.19564,-3.02872 -6.44568,-6.06832 -9.76099,-9.11609 -2.62995,-2.41644 -20.71048,-20.85271 -25.04025,-20.97245 -4.64252,-0.12245 -23.21805,18.53968 -25.87519,20.97245 -3.3425,3.06682 -6.62246,6.13363 -9.8453,9.19229 l 0,51.12085 c 9.41015,-8.30789 21.77933,-13.36392 35.3207,-13.36392 13.48698,0 25.80176,5.00977 35.20103,13.26051 l 0,-51.09364 z"
             style="fill:#005ca5;fill-opacity:1;fill-rule:nonzero;stroke:none"
             inkscape:connector-curvature="0" /><path
             inkscape:connector-curvature="0"
             id="path5087"
             d="m 195.15672,384.50741 c 2.82305,1.63545 5.36053,3.68998 7.52268,6.08737 7.51452,-6.26425 17.20208,-10.03586 27.79802,-10.05491 10.56874,0 20.26446,3.7825 27.78986,10.05491 2.13496,-2.37018 4.64252,-4.39477 7.41117,-6.0139 l 0,-68.11487 -70.52173,-14.03334 0,82.07474 z"
             style="fill:#005ca5;fill-opacity:1;fill-rule:nonzero;stroke:none" /><path
             inkscape:connector-curvature="0"
             id="path5085"
             d="m 347.13064,356.92784 24.29776,-4.83289 c 6.13021,-1.21911 11.62671,-1.74702 16.47593,-1.6164 l 0.27741,23.63924 -5.53458,0 c -4.24545,0 -7.42205,3.28996 -7.42205,7.23028 0,3.98659 3.22556,7.2194 7.21807,7.2194 8.34131,0 19.94897,-11.04815 24.16723,-33.56625 0.6228,-3.3335 1.15042,-6.71598 1.56926,-10.17465 l -61.04903,-12.15297 0,24.25424 z"
             style="fill:#005ca5;fill-opacity:1;fill-rule:nonzero;stroke:none" /><path
             inkscape:connector-curvature="0"
             id="path5083"
             d="m 57.28171,274.99189 c -6.772045,29.26128 -7.430216,56.18232 -2.980789,80.00933 4.215527,22.5181 15.834076,33.56625 24.164507,33.56625 3.995231,0 7.226231,-3.23281 7.226231,-7.2194 0,-3.94032 -3.17661,-7.23028 -7.430216,-7.23028 l -5.523695,0 0.269249,-23.63924 c -0.03808,-0.11429 7.97687,0.0163 16.484072,1.59735 8.311403,1.5511 16.598311,3.15934 24.202581,4.66418 l 0,-70.52316 -56.41194,-11.22503 z"
             style="fill:#005ca5;fill-opacity:1;fill-rule:nonzero;stroke:none" /><path
             inkscape:connector-curvature="0"
             id="path5081"
             d="M 403.31141,273.62583 C 394.65734,237.19685 376.5632,197.1813 347.13064,155.08402 l 0,107.36304 56.18077,11.17877 z"
             style="fill:#005ca5;fill-opacity:1;fill-rule:nonzero;stroke:none" /><path
             inkscape:connector-curvature="0"
             id="path5077"
             d="m 113.69365,155.21464 c -12.95392,18.54784 -23.729346,36.69838 -32.448699,54.3074 l 32.448699,6.46018 0,-60.76758 z"
             style="fill:#005ca5;fill-opacity:1;fill-rule:nonzero;stroke:none" /><path
             inkscape:connector-curvature="0"
             id="path442"
             d="m 195.15672,193.29812 0,38.89985 70.52173,14.0415 0,-52.84066 c -9.39927,8.25346 -21.71405,13.25234 -35.20103,13.25234 -13.54137,0 -25.91055,-5.04514 -35.3207,-13.35303"
             style="fill:#005ca5;fill-opacity:1;fill-rule:nonzero;stroke:none" /></g><g
           id="g5133"><path
             id="path5131"
             d="m 321.98025,419.44897 45.57396,-9.06983 c -10.50348,-5.42611 -17.69163,-16.41168 -17.69163,-29.05719 0,-7.92692 2.82304,-15.20618 7.52267,-20.8636 l -42.6122,8.48477 -0.86214,0.16599 c -11.50976,2.5008 -20.13664,12.74076 -20.13664,25.00802 0,14.13402 11.44993,25.59036 25.57603,25.59036 l 2.62995,-0.25852 z"
             style="fill:#fac400;fill-opacity:1;fill-rule:nonzero;stroke:none"
             inkscape:connector-curvature="0" /><path
             id="path5129"
             d="m 138.92835,419.44897 2.62995,0.25852 c 14.13427,0 25.58691,-11.45634 25.58691,-25.59036 0,-12.26726 -8.62688,-22.50722 -20.13664,-25.00802 l -0.87302,-0.16599 -42.60132,-8.48477 c 4.69963,5.65742 7.52267,12.93668 7.52267,20.8636 0,12.64551 -7.18815,23.63108 -17.702496,29.05719 l 45.573946,9.06983 z"
             style="fill:#fac400;fill-opacity:1;fill-rule:nonzero;stroke:none"
             inkscape:connector-curvature="0" /><path
             id="path5127"
             d="m 91.154167,381.34916 c 0,6.99626 -5.676009,12.67545 -12.687379,12.67545 -12.668351,0 -25.236068,-15.06468 -29.525029,-38.01818 C 34.035103,276.32909 74.667367,165.0475 201.31547,48.81056 c 33.29453,-30.56203 26.50616,-29.17965 58.28854,0 126.64811,116.23694 167.28037,227.51853 152.37371,307.19587 -4.29168,22.9535 -16.86756,38.01818 -29.5359,38.01818 -7.00049,0 -12.6765,-5.67919 -12.6765,-12.67545 0,-7.00714 5.67601,-12.68633 12.8832,-12.68633 l -0.14142,-12.7217 c -14.0146,0 -25.37206,11.35565 -25.37206,25.38082 0,14.02245 11.35746,25.3781 25.45637,25.3781 25.23606,-0.11157 36.18556,-25.53865 40.59691,-50.67457 C 438.03785,271.41457 393.55178,156.92465 266.98798,40.76391 227.92227,4.9036595 232.98634,4.9118195 193.92062,40.76391 67.356824,156.92465 22.878908,271.41457 37.731171,356.02548 c 4.411347,25.13592 15.352682,50.563 40.58603,50.67457 14.098909,0 25.459079,-11.35565 25.459079,-25.3781 0,-14.02517 -11.36017,-25.38082 -25.374766,-25.38082 l -0.138702,12.7217 c 7.215346,0 12.891355,5.67919 12.891355,12.68633"
             style="fill:#fac400;fill-opacity:1;fill-rule:nonzero;stroke:none"
             inkscape:connector-curvature="0" /><path
             id="path450"
             d="m 230.47878,386.00517 c -11.40641,0.0163 -21.58623,5.00705 -28.52418,12.90675 -4.32703,-7.7582 -12.61123,-13.02104 -22.12201,-13.02104 l -6.26074,0.78371 c 0.55753,2.38651 0.85399,4.88731 0.85399,7.44254 l -0.53851,5.92682 6.01053,-1.513 c 6.98419,0 12.64931,5.6683 12.64931,12.6564 l -0.0272,8.55007 13.03006,0 c 2.02345,-11.93255 12.41814,-21.02959 24.92873,-21.02959 12.51061,0 22.90257,9.09704 24.92603,21.02959 l 13.03278,0 -0.0299,-8.55007 c 0,-6.9881 5.65697,-12.6564 12.64114,-12.6564 l 5.97246,1.50483 -0.53035,-5.91865 c 0,-2.56611 0.29918,-5.05603 0.85671,-7.44254 l -6.23354,-0.78371 c -9.51078,0 -17.79498,5.26284 -22.12473,13.02104 -6.95427,-7.91875 -17.14225,-12.90675 -28.51059,-12.90675"
             style="fill:#fac400;fill-opacity:1;fill-rule:nonzero;stroke:none"
             inkscape:connector-curvature="0" /></g></g><g
         id="g5001"><path
           style="fill:#000000;fill-opacity:1;fill-rule:nonzero;stroke:none"
           d="m 450.50781,295.99414 c -1.1206,0.0485 -2.3216,0.20107 -3.60156,0.45703 l -14.54687,2.9043 0,57.11523 14.54687,-2.89062 c 5.11983,-1.02386 8.96222,-3.18446 11.55273,-6.49414 2.63472,-3.32329 3.94532,-7.93581 3.94532,-13.84766 l 0,-22.61719 c 0,-5.91185 -1.3106,-10.00027 -3.94532,-12.27929 -1.94288,-1.70672 -4.58937,-2.49308 -7.95117,-2.34766 z m -4.9375,8.79688 5.44531,0.65039 c 1.05389,0.95242 1.5879,2.92519 1.5879,5.93554 l 0,25.01172 c 0,2.99335 -0.53401,5.18972 -1.5879,6.56055 l -5.44531,2.82422 -3.41406,0.68359 0,-40.99219 3.41406,-0.67382 z"
           transform="matrix(0.8,0,0,-0.8,0,560.00002)"
           id="path4991"
           inkscape:connector-curvature="0" /><path
           style="fill:#000000;fill-opacity:1;fill-rule:nonzero;stroke:none"
           d="m 331.33165,271.92534 7.47645,1.49395 0,7.46431 -7.47645,-1.48851 0,-7.46975 z"
           id="path4989"
           inkscape:connector-curvature="0" /><path
           style="fill:#000000;fill-opacity:1;fill-rule:nonzero;stroke:none"
           d="m 300.21832,311.4293 0,-34.18125 c 0,-3.96754 1.0498,-6.76496 3.15757,-8.41674 2.15672,-1.63817 5.09943,-2.08445 8.86078,-1.33884 3.75317,0.75106 6.68773,2.37019 8.78733,4.84922 2.154,2.48992 3.231,5.73633 3.231,9.69299 l 0,34.18125 -7.84904,-1.56198 0,-34.49692 c 0,-3.33621 -1.39249,-5.26828 -4.16929,-5.82613 -2.78497,-0.55785 -4.18018,0.83814 -4.18018,4.17435 l 0,34.4942 -7.83817,-1.57015 z"
           id="path4987"
           inkscape:connector-curvature="0" /><path
           style="fill:#000000;fill-opacity:1;fill-rule:nonzero;stroke:none"
           d="m 258.07935,257.34232 21.89356,4.3594 0,6.84114 -14.04452,-2.79741 0,13.41834 10.12543,2.01642 0,6.83843 -10.12543,-2.01642 0,11.77472 13.16061,2.62053 0,6.83027 -21.00965,-4.18252 0,-45.7029 z"
           id="path4985"
           inkscape:connector-curvature="0" /><path
           style="fill:#000000;fill-opacity:1;fill-rule:nonzero;stroke:none"
           d="m 238.0379,292.22021 0,-38.86176 7.83817,1.55926 0,38.86448 7.58795,1.50483 0,6.83843 -23.02223,-4.57982 0,-6.83026 7.59611,1.50484 z"
           id="path4983"
           inkscape:connector-curvature="0" /><path
           style="fill:#000000;fill-opacity:1;fill-rule:nonzero;stroke:none"
           d="m 201.85234,246.15538 7.07937,1.41232 0.12783,28.56737 9.99488,-26.55911 6.82644,1.36605 0,45.69202 -7.07665,-1.40415 -0.13055,-26.16726 -9.54885,24.23519 -7.27247,-1.43953 0,-45.7029 z"
           id="path4981"
           inkscape:connector-curvature="0" /><path
           style="fill:#000000;fill-opacity:1;fill-rule:nonzero;stroke:none"
           d="m 236.09961,338.4082 -12.18164,2.41602 -10.51758,59.2168 9.49805,-1.88086 1.74023,-12.99805 10.75,-2.14844 1.74414,12.3125 9.48438,-1.88086 -10.51758,-55.03711 z m -6.00391,12.58985 3.86524,23.75586 -7.9043,1.58203 4.03906,-25.33789 z"
           transform="matrix(0.8,0,0,-0.8,0,560.00002)"
           id="path4979"
           inkscape:connector-curvature="0" /><path
           style="fill:#000000;fill-opacity:1;fill-rule:nonzero;stroke:none"
           d="m 161.68515,283.86606 -5.8256,-32.86963 -5.69232,30.57292 -7.7185,-1.54293 9.54886,-43.78717 7.84632,1.55382 9.55701,47.60504 -7.71577,-1.53205 z"
           id="path4977"
           inkscape:connector-curvature="0" /><path
           style="fill:#000000;fill-opacity:1;fill-rule:nonzero;stroke:none"
           d="m 117.58526,229.38178 21.89084,4.36756 0,6.83026 -14.04179,-2.79741 0,13.41834 10.12271,2.01642 0,6.84115 -10.12271,-2.01643 0,11.772 13.15245,2.62326 0,6.83027 -21.0015,-4.18252 0,-45.7029 z"
           id="path4975"
           inkscape:connector-curvature="0" /><path
           style="fill:#000000;fill-opacity:1;fill-rule:nonzero;stroke:none"
           d="m 92.602136,224.41827 20.182864,4.01652 0,6.82755 -12.33382,-2.45182 0,38.86175 -7.849044,-1.55926 0,-45.69474 z"
           id="path4973"
           inkscape:connector-curvature="0" /><path
           style="fill:#000000;fill-opacity:1;fill-rule:nonzero;stroke:none"
           d="m 377.00896,281.0115 7.46828,1.49667 0,7.46431 -7.46828,-1.47763 0,-7.48335 z"
           id="path430"
           inkscape:connector-curvature="0" /></g><g
         id="g5048"><path
           inkscape:connector-curvature="0"
           style="fill:#dca43d;fill-opacity:1;fill-rule:evenodd;stroke:none"
           d="m 243.81481,107.13366 c -4.22641,-1.22727 -8.70303,-1.8858 -13.33739,-1.8858 -7.06849,0 -13.7807,1.54293 -19.81843,4.2832 16.88388,1.58919 30.21311,10.72433 36.72134,18.79819 2.97263,3.68997 4.73772,7.11055 5.54547,10.17736 14.34095,5.05603 23.72118,-6.57991 10.26412,-20.31391 l -0.56569,-0.56873 -3.99523,-3.23281 c -4.43039,-3.21377 -9.41831,-5.7064 -14.81419,-7.2575"
           id="path5026" /><path
           inkscape:connector-curvature="0"
           style="fill:#dca43d;fill-opacity:1;fill-rule:evenodd;stroke:none"
           d="m 278.22713,157.56604 c -9.82627,14.02245 -24.52078,21.08674 -34.82027,22.69226 -4.6806,0.72657 -8.50721,0.55785 -11.57231,-0.2694 -11.49888,9.89708 -6.11116,23.81068 12.4834,19.02406 5.66513,-1.46946 14.93386,-6.26425 22.51365,-14.515 6.33417,-7.36906 10.47355,-16.69196 11.39553,-26.93192"
           id="path5022" /><path
           inkscape:connector-curvature="0"
           style="fill:#dca43d;fill-opacity:1;fill-rule:evenodd;stroke:none"
           d="m 227.70061,201.11374 c -7.2072,-4.60975 -7.65323,-14.70276 0.43787,-22.66777 -8.45282,-4.96895 -7.33774,-17.11648 0.20397,-25.71281 -4.58812,-13.92993 -17.85208,-17.7859 -24.5099,-0.55785 -3.86469,9.9896 -4.86825,27.83264 4.89274,43.79804 5.74943,2.9362 12.16792,4.74037 18.97532,5.14039"
           id="path5020" /><path
           inkscape:connector-curvature="0"
           style="fill:#dca43d;fill-opacity:1;fill-rule:evenodd;stroke:none"
           d="m 202.61413,192.25616 c -7.16912,-15.4919 -5.93438,-31.68861 -2.17304,-41.40065 1.69165,-4.38388 3.7423,-7.61941 5.98334,-9.84809 -2.74962,-14.54493 -16.82949,-17.08111 -22.30968,-0.0381 -1.03076,3.91311 -1.58015,8.00855 -1.58015,12.24821 0,16.09602 7.92248,30.33073 20.07953,39.03863"
           id="path5018" /><path
           inkscape:connector-curvature="0"
           style="fill:#dca43d;fill-opacity:1;fill-rule:evenodd;stroke:none"
           d="m 190.53051,126.69652 c 7.51453,-3.64372 16.25563,1.02862 19.05964,11.84819 8.55345,-4.87915 18.53745,2.17426 22.19816,13.02648 14.35728,2.99335 24.33312,-6.57719 12.74994,-20.95339 -6.68502,-8.29973 -21.52912,-18.04714 -40.10193,-17.67705 -5.52642,3.58929 -10.27229,8.28067 -13.90581,13.75577"
           id="path5016" /><path
           inkscape:connector-curvature="0"
           style="fill:#dca43d;fill-opacity:1;fill-rule:evenodd;stroke:none"
           d="m 273.31264,131.64914 c -0.4542,8.49293 -8.95324,13.87278 -19.86739,10.83318 -0.10062,9.81544 -11.16163,14.90684 -22.37222,12.65912 -9.76099,10.94747 -6.45656,24.36581 11.76813,21.51397 10.58777,-1.64634 26.57144,-9.71204 35.50564,-26.18903 -0.38892,-6.73774 -2.154,-13.10268 -5.03416,-18.81724"
           id="path438" /></g></g></g></svg>