<?xml version="1.0" encoding="UTF-8"?>
<svg xmlns="http://www.w3.org/2000/svg" xmlns:xlink="http://www.w3.org/1999/xlink" width="507.2pt" height="567pt" viewBox="0 0 507.2 567" version="1.1">
<g id="surface1">
<path style=" stroke:none;fill-rule:evenodd;fill:rgb(45.092773%,49.021912%,47.459412%);fill-opacity:1;" d="M 9.261719 57.789063 C 55.660156 39.140625 170.917969 -0.0195313 250.257813 -0.0195313 C 329.597656 -0.0195313 440.816406 34.75 497.074219 57.789063 C 507.296875 137.6875 495.105469 217.3125 473.511719 282.195313 C 427.691406 419.871094 330.941406 513.484375 252.894531 566.910156 C 152.960938 497.292969 57.386719 391.101563 20.1875 240.730469 C 6.324219 184.6875 0.0703125 121.742188 9.261719 57.789063 Z M 9.261719 57.789063 "/>
<path style=" stroke:none;fill-rule:evenodd;fill:rgb(100%,100%,100%);fill-opacity:1;" d="M 18.085938 64.699219 C 10.574219 122.621094 15.585938 181.828125 29.582031 238.40625 C 62.222656 370.347656 143.421875 477.199219 252.941406 555.105469 C 349.425781 487.488281 426.910156 391.566406 464.328125 279.140625 C 475.605469 245.253906 483.441406 209.957031 487.613281 174.492188 C 491.894531 138.078125 492.335938 101.074219 488.15625 64.621094 C 469.742188 57.273438 450.882813 50.707031 432.027344 44.6875 C 406.800781 36.636719 381.175781 29.511719 355.351563 23.648438 C 321.621094 15.984375 284.914063 9.65625 250.257813 9.65625 C 218.050781 9.65625 183.714844 15.820313 152.390625 23.050781 C 125.378906 29.285156 98.589844 36.9375 72.222656 45.484375 C 54.066406 51.375 35.878906 57.707031 18.085938 64.699219 Z M 18.085938 64.699219 "/>
<path style=" stroke:none;fill-rule:evenodd;fill:rgb(80.859375%,77.34375%,76.5625%);fill-opacity:1;" d="M 181.347656 197.042969 C 178.328125 219.726563 181.105469 243.011719 188.6875 264.621094 C 192.488281 275.457031 197.585938 285.875 203.59375 295.582031 C 216.203125 315.957031 233.371094 333.238281 252.808594 346.40625 C 267.902344 336.296875 281.199219 323.695313 291.304688 310.90625 C 302.082031 297.273438 310.652344 281.976563 316.527344 265.644531 C 324.421875 243.699219 327.203125 220.152344 324.308594 196.984375 C 301.382813 188.191406 273.03125 180.15625 251.90625 180.15625 C 230.78125 180.15625 199.871094 189.886719 181.347656 197.042969 Z M 181.347656 197.042969 "/>
<path style=" stroke:none;fill-rule:evenodd;fill:rgb(100%,100%,100%);fill-opacity:1;" d="M 252.820313 341.378906 C 265.964844 332.234375 278.152344 320.855469 288.050781 308.335938 C 298.542969 295.066406 306.898438 280.160156 312.625 264.238281 C 319.996094 243.742188 322.792969 221.636719 320.480469 199.96875 C 312.910156 197.128906 305.226563 194.546875 297.46875 192.277344 C 283.285156 188.132813 266.730469 184.304688 251.90625 184.304688 C 240.816406 184.304688 228.535156 186.878906 217.820313 189.636719 C 206.820313 192.472656 195.808594 196.003906 185.15625 200.027344 C 182.730469 221.304688 185.519531 243.066406 192.597656 263.246094 C 196.296875 273.785156 201.246094 283.90625 207.121094 293.398438 C 218.816406 312.296875 234.640625 328.625 252.820313 341.378906 Z M 252.820313 341.378906 "/>
<path style=" stroke:none;fill-rule:evenodd;fill:rgb(100%,87.889099%,0%);fill-opacity:1;" d="M 317.089844 202.582031 C 310.289063 200.078125 303.40625 197.796875 296.449219 195.761719 C 282.4375 191.667969 266.550781 187.933594 251.90625 187.933594 C 240.976563 187.933594 229.285156 190.433594 218.726563 193.152344 C 208.515625 195.785156 198.421875 198.980469 188.53125 202.640625 C 186.59375 222.671875 189.371094 243.078125 196.023438 262.046875 C 199.636719 272.339844 204.46875 282.214844 210.207031 291.488281 C 221.199219 309.25 235.921875 324.683594 252.828125 336.925781 C 264.894531 328.246094 276.007813 317.71875 285.203125 306.085938 C 295.449219 293.125 303.617188 278.558594 309.210938 263.011719 C 316.140625 243.746094 318.925781 222.980469 317.089844 202.582031 Z M 317.089844 202.582031 "/>
<path style=" stroke:none;fill-rule:evenodd;fill:rgb(89.0625%,0%,12.156677%);fill-opacity:1;" d="M 317.089844 202.582031 C 310.289063 200.078125 303.40625 197.796875 296.449219 195.761719 C 286.082031 192.730469 274.683594 189.898438 263.527344 188.632813 L 263.527344 207.894531 L 317.464844 207.894531 C 317.375 206.121094 317.25 204.347656 317.089844 202.582031 Z M 241.8125 188.558594 C 233.992188 189.46875 226.085938 191.257813 218.726563 193.152344 C 208.515625 195.785156 198.421875 198.980469 188.53125 202.640625 C 188.359375 204.386719 188.230469 206.140625 188.132813 207.894531 L 241.8125 207.894531 Z M 188.691406 229.605469 C 189.859375 240.65625 192.347656 251.570313 196.023438 262.046875 C 199.636719 272.339844 204.46875 282.214844 210.207031 291.488281 C 218.734375 305.269531 229.511719 317.652344 241.8125 328.226563 L 241.8125 229.605469 Z M 263.527344 328.53125 C 271.464844 321.75 278.800781 314.1875 285.203125 306.085938 C 295.449219 293.125 303.617188 278.558594 309.210938 263.011719 C 313.085938 252.234375 315.664063 240.992188 316.863281 229.605469 L 263.527344 229.605469 Z M 263.527344 328.53125 "/>
<path style=" stroke:none;fill-rule:evenodd;fill:rgb(100%,87.889099%,0%);fill-opacity:1;" d="M 56.707031 267.609375 L 170.828125 267.609375 C 185.128906 308.339844 213.71875 344.9375 253.433594 372.3125 C 293.402344 345.535156 322.125 308.902344 336.082031 267.609375 L 449.171875 267.609375 C 447.402344 273.222656 445.523438 278.796875 443.539063 284.335938 C 430.53125 320.632813 413.132813 355.257813 391.945313 387.429688 L 114.148438 387.429688 C 111.441406 383.324219 108.792969 379.179688 106.210938 374.996094 C 87.996094 345.457031 72.691406 314.015625 61.234375 281.242188 C 59.65625 276.722656 58.148438 272.179688 56.707031 267.609375 Z M 56.707031 267.609375 "/>
<path style=" stroke:none;fill-rule:evenodd;fill:rgb(89.0625%,0%,12.156677%);fill-opacity:1;" d="M 80.320313 327.519531 L 204.640625 327.519531 C 218.160156 344.171875 234.535156 359.289063 253.433594 372.3125 C 272.617188 359.460938 289.203125 344.335938 302.816406 327.519531 L 425.632813 327.519531 C 415.832031 348.25 404.558594 368.273438 391.945313 387.429688 L 114.148438 387.429688 C 111.441406 383.324219 108.792969 379.179688 106.210938 374.996094 C 96.753906 359.65625 88.078125 343.804688 80.320313 327.519531 Z M 80.320313 327.519531 "/>
<path style=" stroke:none;fill-rule:evenodd;fill:rgb(80.859375%,77.34375%,76.5625%);fill-opacity:1;" d="M 36.011719 76.324219 C 26.84375 145.460938 35.277344 216.417969 58.296875 282.269531 C 69.84375 315.296875 85.320313 347.039063 103.5625 376.628906 C 132.726563 423.925781 169.925781 465.753906 212.082031 500.742188 L 212.082031 496.242188 C 170.8125 461.613281 134.757813 420.632813 106.507813 374.8125 C 88.3125 345.308594 73.003906 313.863281 61.5625 281.128906 C 38.980469 216.539063 30.507813 146.785156 39.175781 78.808594 C 54.90625 72.75 70.820313 67.117188 86.835938 61.859375 C 105.84375 55.617188 125.050781 49.894531 144.421875 44.886719 C 162.691406 40.160156 181.199219 36.023438 199.828125 32.980469 C 216.386719 30.277344 233.464844 28.324219 250.257813 28.324219 C 272.707031 28.324219 295.585938 31.214844 317.640625 35.234375 C 342.457031 39.757813 367.078125 45.929688 391.273438 53.03125 C 416.804688 60.523438 442.066406 69.125 466.917969 78.636719 C 470.976563 112.578125 471.039063 146.964844 467.222656 180.933594 C 463.269531 216.152344 455.167969 250.859375 443.210938 284.222656 C 425.496094 333.648438 399.648438 379.957031 367.167969 421.195313 C 345.804688 448.316406 320.996094 473.710938 294.121094 496.238281 L 294.121094 500.710938 C 323.042969 476.710938 348.757813 450.15625 369.882813 423.335938 C 402.613281 381.78125 428.625 335.167969 446.464844 285.386719 C 470.433594 218.515625 478.878906 146.753906 470.097656 76.15625 C 400.480469 49.355469 314.398438 24.867188 250.257813 24.867188 C 186.117188 24.867188 92.261719 54.527344 36.011719 76.324219 Z M 36.011719 76.324219 "/>
<path style=" stroke:none;fill-rule:evenodd;fill:rgb(80.859375%,77.34375%,76.5625%);fill-opacity:1;" d="M 253.269531 463.207031 C 257.6875 463.207031 261.917969 464.023438 265.820313 465.503906 C 254.519531 474.84375 243.988281 485.613281 234.929688 497.136719 C 234.167969 494.492188 233.773438 491.695313 233.8125 488.800781 C 233.957031 478.066406 240.378906 468.609375 249.34375 463.425781 C 250.632813 463.285156 251.941406 463.207031 253.269531 463.207031 Z M 269.359375 467.070313 C 275.949219 470.441406 281.339844 475.816406 284.734375 482.390625 C 282.074219 485.84375 279.171875 489.171875 276.234375 492.355469 C 271.925781 497.027344 267.378906 501.515625 262.671875 505.785156 C 258.917969 509.191406 255.035156 512.484375 251.011719 515.570313 C 244.507813 512.660156 239.253906 507.4375 236.332031 500.960938 C 245.878906 488.539063 257.1875 476.949219 269.359375 467.070313 Z M 286.332031 485.957031 C 287.835938 489.882813 288.660156 494.144531 288.660156 498.601563 C 288.660156 499.71875 288.605469 500.824219 288.503906 501.917969 C 283.878906 511.464844 274.378906 518.09375 262.863281 518.09375 C 260.085938 518.09375 257.394531 517.699219 254.84375 516.96875 C 258.328125 514.21875 261.710938 511.324219 264.996094 508.347656 C 269.777344 504.007813 274.394531 499.445313 278.773438 494.699219 C 281.367188 491.890625 283.929688 488.972656 286.332031 485.957031 Z M 286.335938 511.230469 C 283.816406 517.828125 279.375 523.476563 273.699219 527.5 C 275.273438 524.664063 276.207031 521.449219 276.84375 518.351563 C 280.449219 516.589844 283.65625 514.164063 286.335938 511.230469 Z M 271.105469 529.171875 C 265.867188 532.234375 259.773438 533.992188 253.269531 533.992188 C 233.726563 533.992188 217.875 518.144531 217.875 498.601563 C 217.875 492.089844 219.636719 485.992188 222.707031 480.75 C 221.621094 484.851563 221.003906 488.796875 221.140625 492.878906 C 221.53125 504.683594 226.976563 515.011719 235.320313 521.878906 C 244.636719 529.542969 257.5625 532.894531 271.105469 529.171875 Z M 224.753906 477.636719 C 228.804688 472.136719 234.40625 467.851563 240.917969 465.425781 C 238.042969 468.148438 235.628906 471.339844 233.839844 474.855469 C 230.050781 475.71875 227.347656 476.585938 224.753906 477.636719 Z M 232.132813 478.839844 C 231.027344 481.980469 230.402344 485.3125 230.355469 488.753906 C 230.113281 506.671875 244.703125 521.550781 262.863281 521.550781 C 266.402344 521.550781 269.78125 520.988281 272.929688 519.945313 C 272.40625 521.957031 271.714844 523.917969 270.753906 525.679688 C 259.167969 529.03125 246.960938 526.976563 237.519531 519.210938 C 229.546875 512.652344 224.9375 503.066406 224.59375 492.765625 C 224.457031 488.65625 225.191406 484.679688 226.285156 480.753906 C 228.230469 479.984375 230.160156 479.367188 232.132813 478.839844 Z M 232.132813 478.839844 "/>
<path style=" stroke:none;fill-rule:evenodd;fill:rgb(45.092773%,49.414063%,47.851563%);fill-opacity:1;" d="M 128.207031 160.832031 L 128.207031 81.410156 L 104.199219 81.410156 L 91.75 132.5625 L 91.300781 132.5625 L 78.511719 81.410156 L 55.851563 81.410156 L 55.851563 160.832031 L 72.117188 160.832031 L 71.554688 106.3125 L 71.894531 106.3125 L 84.792969 160.832031 L 97.46875 160.832031 L 110.820313 106.3125 L 111.269531 106.3125 L 110.59375 160.832031 Z M 128.207031 160.832031 "/>
<path style=" stroke:none;fill-rule:evenodd;fill:rgb(45.092773%,49.414063%,47.851563%);fill-opacity:1;" d="M 181.707031 160.832031 L 181.707031 144.789063 L 159.160156 144.789063 L 159.160156 127.628906 L 178.679688 127.628906 L 178.679688 112.820313 L 159.160156 112.820313 L 159.160156 97.226563 L 180.359375 97.226563 L 180.359375 81.410156 L 141.996094 81.410156 L 141.996094 160.832031 Z M 181.707031 160.832031 "/>
<path style=" stroke:none;fill-rule:evenodd;fill:rgb(45.092773%,49.414063%,47.851563%);fill-opacity:1;" d="M 234.777344 87.242188 C 232.457031 84.757813 229.578125 82.8125 226.136719 81.410156 C 222.699219 80.007813 218.808594 79.296875 214.472656 79.277344 C 212.136719 79.277344 209.816406 79.578125 207.5 80.195313 C 205.160156 80.8125 202.953125 81.765625 200.878906 83.054688 C 198.785156 84.328125 196.933594 85.972656 195.289063 87.953125 C 193.664063 89.933594 192.390625 92.289063 191.457031 95.019531 C 190.523438 97.75 190.035156 100.890625 190.015625 104.40625 C 190.035156 107.695313 190.445313 110.558594 191.269531 112.96875 C 192.09375 115.382813 193.234375 117.457031 194.691406 119.214844 C 196.132813 120.953125 197.8125 122.484375 199.71875 123.777344 C 201.628906 125.066406 203.664063 126.242188 205.835938 127.289063 C 208.117188 128.394531 210.039063 129.460938 211.613281 130.523438 C 213.183594 131.570313 214.359375 132.710938 215.164063 133.964844 C 215.96875 135.21875 216.378906 136.695313 216.378906 138.394531 C 216.359375 140.078125 216.023438 141.539063 215.351563 142.734375 C 214.675781 143.929688 213.761719 144.867188 212.582031 145.5 C 211.425781 146.136719 210.117188 146.472656 208.640625 146.472656 C 207.085938 146.472656 205.554688 146.210938 204.019531 145.726563 C 202.488281 145.238281 201.03125 144.546875 199.644531 143.667969 C 198.242188 142.769531 196.992188 141.722656 195.851563 140.527344 L 186.652344 153.988281 C 188.242188 155.617188 190.183594 157.113281 192.464844 158.457031 C 194.765625 159.804688 197.328125 160.886719 200.167969 161.710938 C 202.992188 162.515625 206.003906 162.945313 209.199219 162.964844 C 212.472656 162.964844 215.59375 162.421875 218.546875 161.335938 C 221.5 160.269531 224.121094 158.644531 226.417969 156.496094 C 228.71875 154.34375 230.53125 151.652344 231.859375 148.4375 C 233.167969 145.203125 233.859375 141.460938 233.878906 137.164063 C 233.839844 133.722656 233.316406 130.75 232.269531 128.226563 C 231.242188 125.71875 229.878906 123.570313 228.195313 121.773438 C 226.53125 120 224.71875 118.484375 222.753906 117.230469 C 220.808594 115.996094 218.902344 114.933594 217.050781 114.054688 C 214.921875 112.988281 213.125 111.976563 211.6875 111.023438 C 210.226563 110.070313 209.144531 109.023438 208.394531 107.882813 C 207.667969 106.742188 207.292969 105.359375 207.292969 103.734375 C 207.3125 101.789063 207.683594 100.21875 208.433594 99.023438 C 209.164063 97.804688 210.132813 96.925781 211.3125 96.367188 C 212.507813 95.804688 213.78125 95.523438 215.144531 95.542969 C 217.070313 95.542969 218.941406 95.972656 220.734375 96.835938 C 222.511719 97.675781 224.101563 98.890625 225.464844 100.480469 Z M 234.777344 87.242188 "/>
<path style=" stroke:none;fill-rule:evenodd;fill:rgb(45.092773%,49.414063%,47.851563%);fill-opacity:1;" d="M 286.492188 87.242188 C 284.171875 84.757813 281.292969 82.8125 277.851563 81.410156 C 274.414063 80.007813 270.523438 79.296875 266.1875 79.277344 C 263.847656 79.277344 261.53125 79.578125 259.210938 80.195313 C 256.875 80.8125 254.667969 81.765625 252.59375 83.054688 C 250.5 84.328125 248.648438 85.972656 247.003906 87.953125 C 245.378906 89.933594 244.105469 92.289063 243.171875 95.019531 C 242.238281 97.75 241.75 100.890625 241.730469 104.40625 C 241.75 107.695313 242.160156 110.558594 242.984375 112.96875 C 243.808594 115.382813 244.945313 117.457031 246.40625 119.214844 C 247.84375 120.953125 249.527344 122.484375 251.433594 123.777344 C 253.34375 125.066406 255.378906 126.242188 257.546875 127.289063 C 259.828125 128.394531 261.753906 129.460938 263.324219 130.523438 C 264.894531 131.570313 266.074219 132.710938 266.878906 133.964844 C 267.683594 135.21875 268.09375 136.695313 268.09375 138.394531 C 268.074219 140.078125 267.738281 141.539063 267.066406 142.734375 C 266.390625 143.929688 265.476563 144.867188 264.296875 145.5 C 263.140625 146.136719 261.832031 146.472656 260.351563 146.472656 C 258.800781 146.472656 257.269531 146.210938 255.734375 145.726563 C 254.203125 145.238281 252.742188 144.546875 251.359375 143.667969 C 249.957031 142.769531 248.707031 141.722656 247.566406 140.527344 L 238.367188 153.988281 C 239.957031 155.617188 241.898438 157.113281 244.179688 158.457031 C 246.480469 159.804688 249.042969 160.886719 251.882813 161.710938 C 254.707031 162.515625 257.71875 162.945313 260.914063 162.964844 C 264.1875 162.964844 267.308594 162.421875 270.261719 161.335938 C 273.214844 160.269531 275.832031 158.644531 278.132813 156.496094 C 280.433594 154.34375 282.246094 151.652344 283.574219 148.4375 C 284.882813 145.203125 285.574219 141.460938 285.59375 137.164063 C 285.554688 133.722656 285.03125 130.75 283.984375 128.226563 C 282.957031 125.71875 281.59375 123.570313 279.910156 121.773438 C 278.246094 120 276.433594 118.484375 274.46875 117.230469 C 272.523438 115.996094 270.617188 114.933594 268.765625 114.054688 C 266.636719 112.988281 264.839844 111.976563 263.402344 111.023438 C 261.941406 110.070313 260.859375 109.023438 260.109375 107.882813 C 259.382813 106.742188 259.007813 105.359375 259.007813 103.734375 C 259.027344 101.789063 259.398438 100.21875 260.148438 99.023438 C 260.875 97.804688 261.847656 96.925781 263.027344 96.367188 C 264.222656 95.804688 265.496094 95.523438 266.859375 95.542969 C 268.785156 95.542969 270.65625 95.972656 272.449219 96.835938 C 274.226563 97.675781 275.816406 98.890625 277.179688 100.480469 Z M 286.492188 87.242188 "/>
<path style=" stroke:none;fill-rule:evenodd;fill:rgb(45.092773%,49.414063%,47.851563%);fill-opacity:1;" d="M 296.109375 160.832031 L 314.171875 160.832031 L 314.171875 81.410156 L 296.109375 81.410156 Z M 296.109375 160.832031 "/>
<path style=" stroke:none;fill-rule:evenodd;fill:rgb(45.092773%,49.414063%,47.851563%);fill-opacity:1;" d="M 381.730469 160.832031 L 381.730469 81.410156 L 366.25 81.410156 L 366.585938 130.429688 L 366.25 130.429688 L 347.964844 81.410156 L 328.222656 81.410156 L 328.222656 160.832031 L 344.261719 160.832031 L 343.8125 112.484375 L 344.152344 112.484375 L 362.546875 160.832031 Z M 381.730469 160.832031 "/>
<path style=" stroke:none;fill-rule:evenodd;fill:rgb(45.092773%,49.414063%,47.851563%);fill-opacity:1;" d="M 449.476563 160.832031 L 430.292969 81.410156 L 407.746094 81.410156 L 388.453125 160.832031 L 406.402344 160.832031 L 409.652344 146.359375 L 427.488281 146.359375 L 430.742188 160.832031 Z M 425.246094 132.449219 L 411.671875 132.449219 L 418.402344 98.683594 L 418.851563 98.683594 Z M 425.246094 132.449219 "/>
<path style=" stroke:none;fill-rule:evenodd;fill:rgb(80.859375%,77.34375%,76.5625%);fill-opacity:1;" d="M 241.488281 447.117188 L 233.5 414.042969 L 224.109375 414.042969 L 216.074219 447.117188 L 223.546875 447.117188 L 224.902344 441.089844 L 232.332031 441.089844 L 233.6875 447.117188 Z M 231.398438 435.296875 L 225.746094 435.296875 L 228.546875 421.234375 L 228.734375 421.234375 Z M 231.398438 435.296875 "/>
<path style=" stroke:none;fill-rule:evenodd;fill:rgb(80.859375%,77.34375%,76.5625%);fill-opacity:1;" d="M 264.75 443.519531 L 260.59375 438.332031 C 260.296875 438.792969 259.933594 439.214844 259.503906 439.585938 C 259.074219 439.96875 258.585938 440.273438 258.039063 440.503906 C 257.488281 440.730469 256.871094 440.847656 256.203125 440.855469 C 255.207031 440.847656 254.335938 440.574219 253.585938 440.054688 C 252.832031 439.523438 252.207031 438.792969 251.703125 437.859375 C 251.195313 436.917969 250.816406 435.828125 250.558594 434.589844 C 250.300781 433.351563 250.175781 432.011719 250.175781 430.578125 C 250.175781 429.121094 250.300781 427.769531 250.558594 426.53125 C 250.816406 425.285156 251.1875 424.195313 251.695313 423.269531 C 252.199219 422.332031 252.824219 421.609375 253.5625 421.089844 C 254.308594 420.574219 255.175781 420.308594 256.15625 420.300781 C 257.191406 420.308594 258.070313 420.527344 258.789063 420.957031 C 259.503906 421.382813 260.140625 421.976563 260.6875 422.730469 L 264.703125 417.3125 C 264.113281 416.511719 263.390625 415.792969 262.53125 415.171875 C 261.667969 414.546875 260.664063 414.058594 259.511719 413.699219 C 258.367188 413.339844 257.058594 413.160156 255.59375 413.15625 C 253.671875 413.164063 251.929688 413.582031 250.355469 414.414063 C 248.78125 415.25 247.4375 416.441406 246.300781 417.972656 C 245.164063 419.515625 244.289063 421.351563 243.675781 423.476563 C 243.066406 425.613281 242.757813 427.976563 242.75 430.578125 C 242.757813 433.148438 243.058594 435.492188 243.675781 437.617188 C 244.28125 439.742188 245.15625 441.582031 246.285156 443.128906 C 247.414063 444.679688 248.765625 445.878906 250.339844 446.71875 C 251.90625 447.566406 253.664063 447.996094 255.59375 448.003906 C 257.113281 447.996094 258.453125 447.792969 259.597656 447.402344 C 260.75 447.007813 261.746094 446.476563 262.585938 445.800781 C 263.425781 445.128906 264.152344 444.367188 264.75 443.519531 Z M 264.75 443.519531 "/>
<path style=" stroke:none;fill-rule:evenodd;fill:rgb(80.859375%,77.34375%,76.5625%);fill-opacity:1;" d="M 289.277344 447.117188 L 283.625 432.355469 C 284.167969 432.167969 284.714844 431.855469 285.257813 431.417969 C 285.804688 430.984375 286.308594 430.421875 286.769531 429.730469 C 287.222656 429.039063 287.585938 428.21875 287.867188 427.261719 C 288.148438 426.304688 288.289063 425.214844 288.296875 423.992188 C 288.289063 421.796875 287.890625 419.957031 287.089844 418.488281 C 286.292969 417.007813 285.140625 415.902344 283.632813 415.15625 C 282.121094 414.414063 280.300781 414.042969 278.160156 414.042969 L 267.554688 414.042969 L 267.554688 447.117188 L 274.75 447.117188 L 274.75 433.941406 L 276.945313 433.941406 L 281.382813 447.117188 Z M 280.914063 424.414063 C 280.90625 425.410156 280.71875 426.21875 280.355469 426.839844 C 279.988281 427.472656 279.503906 427.933594 278.90625 428.226563 C 278.304688 428.523438 277.652344 428.664063 276.945313 428.664063 L 274.75 428.664063 L 274.75 420.300781 L 277.085938 420.300781 C 277.519531 420.292969 277.964844 420.347656 278.414063 420.472656 C 278.859375 420.589844 279.273438 420.792969 279.644531 421.09375 C 280.027344 421.390625 280.332031 421.8125 280.554688 422.347656 C 280.789063 422.886719 280.90625 423.578125 280.914063 424.414063 Z M 280.914063 424.414063 "/>
</g>
</svg>
