<svg xmlns="http://www.w3.org/2000/svg" width="235.23" height="235.23" viewBox="0 0 235.23 235.23"><title>Montpellier HSC logo - Brandlogos.net</title><path d="M565.85,530.55A61.55,61.55,0,1,1,504.3,469a61.55,61.55,0,0,1,61.55,61.56" transform="translate(-386.76 -412.94)" style="fill:#fff"/><path d="M441.34,530.55a63,63,0,1,0,63-63,63,63,0,0,0-63,63m2.8,0a60.16,60.16,0,1,1,60.16,60.16,60.22,60.22,0,0,1-60.16-60.16" transform="translate(-386.76 -412.94)" style="fill:#929497"/><path d="M386.76,530.55A117.61,117.61,0,1,0,504.37,412.94,117.75,117.75,0,0,0,386.76,530.55" transform="translate(-386.76 -412.94)" style="fill:#929497"/><path d="M390.49,530.55A113.89,113.89,0,1,1,504.37,644.44,114,114,0,0,1,390.49,530.55" transform="translate(-386.76 -412.94)" style="fill:#fff"/><polygon points="90.53 179.06 117.69 184.38 180.17 134.39 182.71 105.3 90.53 179.06" style="fill:#003e7e"/><path d="M568.63,517.19l-94.44,75.56,30.61,6L568.22,548l2.86-32.78Zm-.77,4.05c-.43,4.87-2.13,24.41-2.22,25.4L504.1,595.88l-23.71-4.65,87.48-70" transform="translate(-386.76 -412.94)" style="fill:#fff"/><rect x="434.04" y="519.99" width="140.67" height="21.13" transform="translate(-607.68 18.47) rotate(-38.66)" style="fill:#003e7e"/><path d="M551.85,477.32,441,566l14.88,18.59,111.94-89.56L552.9,476.48Zm.63,2.94L564,494.65,456.26,580.86l-11.52-14.4,107.74-86.21" transform="translate(-386.76 -412.94)" style="fill:#fff"/><path d="M533.49,467.89A184.47,184.47,0,0,0,509,460.4L434.5,520l1.72,1.72v24Z" transform="translate(-386.76 -412.94)" style="fill:#003e7e"/><path d="M508.2,459.35l-75.71,60.58,2.39,2.39v26.2l101.27-81-2.17-.84a187.37,187.37,0,0,0-24.64-7.54l-.63-.15Zm1.16,2.51a187.62,187.62,0,0,1,21.45,6.46l-93.25,74.62V521.2l-1.05-1,72.86-58.3" transform="translate(-386.76 -412.94)" style="fill:#fff"/><path d="M427.05,530.55a77.32,77.32,0,1,0,77.32-77.32,77.41,77.41,0,0,0-77.32,77.32m16.77,0a60.56,60.56,0,1,1,60.56,60.56,60.62,60.62,0,0,1-60.56-60.56" transform="translate(-386.76 -412.94)" style="fill:#f26f21"/><path d="M441.42,530.55a63,63,0,1,0,63-63,63,63,0,0,0-63,63m2.79,0a60.16,60.16,0,1,1,60.16,60.16,60.23,60.23,0,0,1-60.16-60.16" transform="translate(-386.76 -412.94)" style="fill:#929497"/><path d="M424.58,530.56a79.79,79.79,0,1,0,79.79-79.79,79.88,79.88,0,0,0-79.79,79.79m2.8,0a77,77,0,1,1,77,77,77.08,77.08,0,0,1-77-77" transform="translate(-386.76 -412.94)" style="fill:#929497"/><path d="M409.52,584c-.81.14-.81.14-1.07-.26-.07-.11-.29-.46-.43-.74-.58-1-1-1.57-1.48-2.4-.32-.51-.79-1.19-1.12-1.65-.17-.27-.4-.57-.47-.68-.35-.56-.34-.95.09-1.21s.81,0,1.42.75c.71.94,1.26,1,2.63,0l11.18-7.57c1.95-1.31,2.06-1.6,1.24-3.26-.25-.52-.22-.87.13-1.1s.85,0,1.31.71a5.11,5.11,0,0,1,.33.58c1,1.83,1.79,3.17,2.25,3.9s1.15,1.71,1.87,2.67c.17.27.4.57.49.71.34.54.31,1,0,1.19s-.73.16-1.57-.88c-.72-.89-1.3-.94-2.47-.16l-10.93,7.19,13.68-2.37c.6-.12,1.2-.23,1.83-.37,1.62-.39,1.83-.37,2.24.27a.92.92,0,0,1-.11,1.19L421,594.24l8.08-4.7c.74-.43,1.67-1,2.55-1.54,1.58-1,1.89-1.76,1.19-3s-.7-1.46-.22-1.77.79-.05,1.15.5c.07.11.23.42.37.71.28.57.65,1.2,1,1.79a18.32,18.32,0,0,0,1.34,1.88c.23.3.48.64.57.77.3.48.27.84-.08,1.06s-.63.14-1.46-.76-1.2-.82-2.6,0l-11.69,6.58a10.82,10.82,0,0,0-1,.57l-.48.31c-.78.49-.84.87-.25,1.92s.55,1.34.12,1.61-.82.07-1.26-.63l-1.77-3c-.39-.61-1.18-1.8-1.48-2.21l-.19-.3c-.23-.38-.23-.49.08-.95l7.9-11.38Z" transform="translate(-386.76 -412.94)" style="fill:#003e7e"/><path d="M405.41,562.33c-.89-2.79,1.86-6.07,6.23-7.45,3.9-1.24,7.16-.41,7.93,2,.88,2.77-1.93,6.12-6.27,7.49-3.88,1.23-7.12.38-7.89-2.05m-.93.12a8.76,8.76,0,0,0,10.91,6,8.1,8.1,0,0,0,5.14-4.88,11.5,11.5,0,0,0,0-6.7c-1.53-4.86-6.32-7.56-10.87-6.12s-6.81,6.5-5.17,11.69" transform="translate(-386.76 -412.94)" style="fill:#003e7e"/><path d="M403.26,535c-1.93.19-2.06.35-2.17,2.4a.48.48,0,0,1-.44.49c-.39,0-.61-.23-.66-.81,0-.1,0-.34,0-.56,0-.92-.08-1.53-.13-2.06a11.28,11.28,0,0,0-.2-1.27c-.05-.29-.11-.59-.12-.74,0-.48.12-.74.48-.78s.55.19.8,1.23c.21.88.59,1,2.06.89l12.89-1.27c.73-.07.9,0,1,.61s-.1.72-.66,1.24l-12,11.67,8.87-.87c1.71-.17,2.28-.32,2.65-.7s.29-.3.32-1.76a.63.63,0,0,1,.52-.68c.32,0,.53.24.58.7,0,.1,0,.32,0,.51a18.18,18.18,0,0,0,.11,2.15,15.79,15.79,0,0,0,.23,1.59,5.25,5.25,0,0,1,.14.72c0,.43-.13.69-.46.72s-.56-.21-.68-1c-.18-1.08-.75-1.24-3.63-1l-6.82.67a15.41,15.41,0,0,0-2.26.29c-1.16.16-1.42.43-1.41,1.26s-.09,1.06-.5,1.1-.53-.22-.59-.8l-.19-2.42-.25-2.24c-.08-.82-.06-.91.47-1.43l8.7-8.52Z" transform="translate(-386.76 -412.94)" style="fill:#003e7e"/><path d="M413.47,521c1.76.14,1.92,0,2.37-1.7.07-.29.25-.44.49-.42s.52.26.48.67v.15c-.06.38,0,.14-.11.75l0,.21,0,.19,0,.19,0,.21c-.08.7-.16,1.35-.23,2.24s-.08,1.36-.12,2.44l0,.19,0,.22v.24l0,.22a3.06,3.06,0,0,1,0,.43c0,.41-.22.62-.58.58s-.38-.08-.49-1.11-.48-1.32-2-1.45l-11.54-.93c-.39,0-.44,0-.49.71-.12,1.53.25,2.26,1.83,3.55.57.46.83.82.81,1.11a.51.51,0,0,1-.57.44l-.32-.07-3.51-1.3c-.38-.13-.55-.36-.53-.65a.5.5,0,0,1,.43-.5c.57-.15.63-.2.67-.77l.8-9.88c.07-.94,0-1.27-.55-1.65s-.48-.43-.46-.69.29-.48.67-.41l3.9.73c.55.12.73.27.7.64s-.29.53-.83.71c-2.17.68-2.44,1-2.6,3.07,0,.53,0,.66.38.68Z" transform="translate(-386.76 -412.94)" style="fill:#003e7e"/><path d="M406.33,506.88c-2.21-.55-2.63-1-2.33-2.18a3.34,3.34,0,0,1,4.22-2.09c2.16.54,3.25,2,2.81,3.75-.28,1.1-.71,1.52-1.39,1.35Zm5.43,1.36c-.28-.07-.35-.19-.3-.42a3.51,3.51,0,0,1,.42-.87,8.39,8.39,0,0,0,1.14-2.48,5,5,0,0,0-3.7-6c-2.84-.71-5.07,1-6,4.66-.15.59-.37,1.68-.54,2.66-.23,1.19-.42,2.17-.53,2.62s-.24.94-.53,1.89-.29,1-.31,1a3,3,0,0,0-.13.41c-.1.4,0,.65.36.74a.47.47,0,0,0,.56-.33c.73-1.64.91-1.72,2.62-1.3l9.66,2.42c1.48.37,1.8.7,1.73,1.76s0,1.09.3,1.17.57-.08.67-.48a3,3,0,0,0,.09-.43l.05-.21,0-.24,0-.21,0-.19c.22-1.07.32-1.6.51-2.34s.39-1.45.58-2.13l.05-.21.07-.18,0-.19.05-.21c.17-.58.11-.35.23-.72l0-.14c.1-.4,0-.65-.37-.74a.48.48,0,0,0-.56.34c-.73,1.64-.9,1.72-2.62,1.29Z" transform="translate(-386.76 -412.94)" style="fill:#003e7e"/><path d="M420,494.14c1.75.77,2.69.44,3.38-1.14a4.34,4.34,0,0,0-.55-4.79c-.49-.61-.6-.9-.45-1.26a.49.49,0,0,1,.69-.25,6.43,6.43,0,0,1,1.07.68,13.69,13.69,0,0,0,1.81,1.12c.32.17.37.3.25.56,0,.11-.23.48-.37.79q-.68,1.37-1.79,3.89c-.66,1.51-1.57,3.57-1.88,4.34-.47,1.06-.3.69-1.05,2.63a3.07,3.07,0,0,1-.16.41c-.16.37-.41.5-.74.36s-.34-.21-.11-1.21,0-1.41-1.41-2l-9.11-4c-1.62-.71-1.79-.68-2.8.83a.47.47,0,0,1-.61.23c-.33-.15-.4-.41-.23-.79l.06-.13.08-.12.06-.14.09-.2.12-.21.09-.2.08-.18.11-.19.08-.18c.36-.69.63-1.31,1.18-2.58.4-.91.87-2,1.16-2.75,1.87-4.74,1.31-3.29,1.8-4.58l.08-.18c.12-.28.29-.34.57-.22l.85.4,1.53.62c.66.29.76.44.58.84s-.32.36-1,.46a3.31,3.31,0,0,0-3,2.19c-.92,2.11-.92,2.35,0,2.76l3.54,1.56c.64.28.91.22,1.12-.25,1.11-2.53,1.11-3,.08-3.86-.52-.44-.67-.75-.54-1.06a.55.55,0,0,1,.81-.23l2.24,1.12,2,.76c.42.18.57.46.43.77s-.4.43-.94.41c-1.39-.09-2.1.24-2.49,1.13l-.17.46c-.64,1.63-.64,1.57.09,1.89Z" transform="translate(-386.76 -412.94)" style="fill:#003e7e"/><path d="M416.81,479.36c-1.48-1-1.67-.94-2.9.38a.47.47,0,0,1-.64.14c-.31-.2-.33-.47-.11-.82a2.19,2.19,0,0,1,.18-.23l.08-.12.12-.18.15-.19.12-.18.1-.16.13-.15.12-.18c.37-.54.78-1.12,1.21-1.79s.76-1.21,1.32-2.17l.1-.16.12-.18.11-.22.12-.18a2.9,2.9,0,0,1,.21-.38c.22-.34.48-.44.79-.24s.29.27-.09,1.21-.21,1.39,1.07,2.22l8.19,5.28c1.4.9,2.33.76,3.13-.47a4.27,4.27,0,0,0,.08-4.73c-.31-.55-.35-.83-.18-1.1a.44.44,0,0,1,.67-.14,9.57,9.57,0,0,1,1.37,1.14,13.7,13.7,0,0,0,1.1.94c.42.32.45.46.19.87l-.16.25c-.47.68-.42.59-1.24,1.74-.62.87-1.26,1.81-2.23,3.31s-1.64,2.6-2.44,4c-.29.5-.38.68-.43.76a3,3,0,0,1-.21.38c-.23.35-.48.44-.79.25s-.29-.27.09-1.21.21-1.39-1.08-2.22Z" transform="translate(-386.76 -412.94)" style="fill:#003e7e"/><path d="M425.66,466.59c-1.32-1.18-1.51-1.18-2.92-.07a.47.47,0,0,1-.65,0c-.27-.24-.26-.51,0-.82a2,2,0,0,1,.21-.2l.09-.11.15-.16.18-.17.15-.16.13-.15.15-.12.14-.16c.46-.47.94-1,1.47-1.58s.93-1.08,1.63-2l.13-.14.15-.16.14-.2.15-.16a3.59,3.59,0,0,1,.27-.34c.28-.31.55-.36.82-.12s.24.32-.27,1.19-.41,1.35.73,2.36l7.28,6.46c1.26,1.11,2.2,1.11,3.16,0a4.26,4.26,0,0,0,.8-4.66c-.22-.59-.22-.88,0-1.12a.43.43,0,0,1,.68,0,9.59,9.59,0,0,1,1.18,1.34,11.79,11.79,0,0,0,.94,1.09c.36.39.38.53.05.89l-.2.21c-.56.6-.5.53-1.48,1.53-.74.77-1.52,1.6-2.71,2.94s-2,2.32-3,3.54c-.37.45-.48.61-.55.68a2.66,2.66,0,0,1-.27.34c-.27.31-.54.36-.82.12s-.24-.31.28-1.18.41-1.35-.73-2.36Z" transform="translate(-386.76 -412.94)" style="fill:#003e7e"/><path d="M446,460.21c1.16,1.33,1.35,1.37,2.89.44a.48.48,0,0,1,.65,0c.24.27.18.55-.12.82l-.11.1c-.31.23-.13.08-.6.46l-.17.14-.14.13-.16.11-.17.14c-.49.39-1.07.87-1.62,1.35-.91.8-1,.82-2.55,2.35a3.62,3.62,0,0,1-.32.3c-.31.27-.59.28-.82,0s-.2-.34.42-1.14.59-1.28-.41-2.43l-6.54-7.51c-1.16-1.34-1.35-1.37-2.89-.44a.48.48,0,0,1-.65,0c-.23-.27-.18-.55.13-.81a2.89,2.89,0,0,1,.24-.18l.11-.09.16-.14.2-.14.17-.14.15-.12.16-.11.16-.14c.48-.38,1.07-.87,1.57-1.3,1-.84,1-.84,2.6-2.4a3.77,3.77,0,0,1,.31-.3c.31-.27.59-.29.82,0s.2.34-.42,1.14-.59,1.28.42,2.43Z" transform="translate(-386.76 -412.94)" style="fill:#003e7e"/><path d="M453.49,454.07c1.05,1.6,2,1.83,3.45.89a4.34,4.34,0,0,0,2.15-4.31c-.09-.79,0-1.09.3-1.3a.49.49,0,0,1,.71.16,6.43,6.43,0,0,1,.53,1.16,13,13,0,0,0,.91,1.92c.18.32.15.46-.09.61s-.46.27-.74.46q-1.31.78-3.62,2.29c-1.37.91-3.26,2.14-3.93,2.62-1,.64-.63.41-2.31,1.64a3.27,3.27,0,0,1-.35.26c-.34.23-.62.21-.82-.1s-.18-.35.57-1.07.75-1.19-.09-2.47l-5.47-8.32c-1-1.48-1.13-1.54-2.8-.82a.47.47,0,0,1-.64-.13c-.2-.3-.11-.56.23-.79l.12-.08.14-.05.12-.09.18-.11.21-.11.18-.12.17-.1.19-.11.16-.1c.67-.39,1.24-.76,2.39-1.52.83-.55,1.83-1.23,2.47-1.68,4.14-3,2.89-2,4-2.86l.16-.11a.37.37,0,0,1,.6.13l.5.8L454,442c.4.61.4.78,0,1s-.47.13-1.09-.16a3.31,3.31,0,0,0-3.73.19c-1.92,1.27-2,1.46-1.49,2.32l2.13,3.23c.39.59.64.68,1.07.4,2.31-1.52,2.54-1.87,2.17-3.19-.2-.66-.16-1,.12-1.19a.55.55,0,0,1,.8.25l1.27,2.15,1.24,1.71c.25.39.23.69-.06.88s-.57.15-1-.17c-1.12-.82-1.89-.93-2.7-.4l-.39.28c-1.42,1-1.39,1-.95,1.64Z" transform="translate(-386.76 -412.94)" style="fill:#003e7e"/><path d="M462.39,437.47c-.42-1-.24-1.42.71-1.83a3,3,0,0,1,3.87,1.81,3.13,3.13,0,0,1-1.91,4.33c-.6.26-.73.21-1-.5Zm-4.88-.51-.21.06-.18.08-.2.09-.23.07-.2.09-.13.05a2.45,2.45,0,0,0-.28.1c-.38.16-.51.4-.37.73a.47.47,0,0,0,.61.24c1.75-.41,1.92-.32,2.61,1.3l3.93,9.15c.6,1.41.54,1.85-.35,2.44s-.89.64-.75,1,.41.4.79.24a3.08,3.08,0,0,0,.39-.2l.2-.09.21-.11.2-.09.18-.08c1-.46,1.44-.7,2.09-1,.82-.35,1.36-.58,2-.82l.2-.09.19-.05.18-.08.2-.09c.57-.22.34-.12.71-.25l.13-.06c.38-.16.51-.4.37-.73a.47.47,0,0,0-.6-.24c-1.75.41-1.92.32-2.62-1.3L465,443.5c-.18-.42-.16-.54.2-.69.73-.32,1.12-.16,2.52,1l4.57,3.89c.39.36.53.38.93.21a1.72,1.72,0,0,0,.3-.16l1-.48c.32-.17.57-.27.61-.3l2.21-.81a.54.54,0,0,0,.38-.72c-.12-.27-.32-.37-.73-.27-.87.19-1,.13-2.09-.76l-3.37-2.82a3.05,3.05,0,0,0-3.17-.85c2.58-1.56,3.39-3.28,2.52-5.3-1-2.29-3.3-3-6-1.85-.6.26-1.47.68-2.39,1.13-1.16.61-2.24,1.12-2.86,1.39-.78.33-1.18.5-1.91.76Z" transform="translate(-386.76 -412.94)" style="fill:#003e7e"/><path d="M497.46,430.39c.6-.06.68-.2.61-.86l-.43-4.19c-.24-2.3-.39-2.48-2.73-2.65-.39-.06-.63-.22-.66-.57s.21-.69.75-.74a2.35,2.35,0,0,1,.39,0l.47,0h.29l.31,0,.25,0H497l.25,0c.92,0,1.74-.12,3-.25,1-.1,1.73-.21,3.11-.41l.25,0,.28,0,.31-.06.29,0a4.78,4.78,0,0,1,.56-.09c.53-.06.84.14.89.58s0,.54-1.31.9-1.59.93-1.39,2.94l1.33,13c.24,2.3.39,2.47,2.76,2.65a.63.63,0,0,1,.66.57c0,.44-.22.69-.75.75l-.19,0-2.06.12c-.76,0-1.8.12-2.56.2-1.8.18-1.77.18-4.68.61a3.74,3.74,0,0,1-.53.09c-.54.06-.84-.13-.89-.58s0-.54,1.3-.93,1.57-.89,1.36-2.91l-.55-5.42c-.13-1-.17-1-.71-.95l-6.74.7c-.88.09-.91.12-.83.94l.57,5.58c.24,2.3.38,2.44,2.72,2.65a.62.62,0,0,1,.66.57c0,.44-.21.69-.75.74l-.19,0-2,.11c-.82.06-1.77.12-2.72.21-1.58.16-1.7.18-4.52.59a4.35,4.35,0,0,1-.57.09c-.53.06-.84-.14-.89-.58s0-.54,1.3-.93,1.6-.89,1.39-2.91l-1.32-13c-.24-2.31-.39-2.48-2.76-2.65-.42-.05-.63-.23-.66-.6s.25-.66.75-.71a3.09,3.09,0,0,1,.39,0l.19,0,.28,0h.32l.28,0,.25,0h.25l.29,0c.82,0,1.8-.12,2.75-.22,1.58-.16,1.67-.17,4.49-.59a3.84,3.84,0,0,1,.53-.09c.54-.06.84.14.89.58s0,.54-1.31.89-1.56.93-1.35,2.94l.43,4.19c.06.63.24.78.9.71Z" transform="translate(-386.76 -412.94)" style="fill:#003e7e"/><path d="M516.69,431a1.67,1.67,0,0,1,1.55,2c-.14,1.27-.82,1.47-3.93,1.12-.75-.08-.94-.2-.89-.58a3.09,3.09,0,0,1,3.27-2.52m3.82,4.78c.87.1,1.23-.14,1.31-.84.27-2.37-2.1-4.53-5.4-4.9-3.95-.44-7.44,2.08-7.84,5.65a6.9,6.9,0,0,0,6.31,7.44,7.91,7.91,0,0,0,5.31-1.3c.52-.35.81-.7.84-1a.41.41,0,0,0-.38-.45,1.68,1.68,0,0,0-.79.29,4.41,4.41,0,0,1-2.89.74c-2.6-.3-4.37-2.84-4-5.82.06-.55.2-.66.67-.6Zm-5.76-7.33c.08.14.11.16.18.17s.15,0,.47-.15l5.43-2.36c.32-.11.46-.23.47-.38s0-.15-.09-.31l-.53-.89c-.15-.25-.15-.27-.27-.29a.89.89,0,0,0-.5.23l-5,3.16c-.39.24-.38.21-.39.29s0,0,.09.26Z" transform="translate(-386.76 -412.94)" style="fill:#003e7e"/><path d="M524.8,436.8c.36-1.39.2-1.79-.85-2.14-.46-.14-.62-.32-.54-.61s.09-.34,1.5-.39a13.06,13.06,0,0,0,3.68-1.07c.59-.29.79-.34,1-.28s.28.23.2.52l-.43,1.7c-.08.3-.08.43,0,.44a.23.23,0,0,0,.18-.08,5,5,0,0,1,3.9-1,2.21,2.21,0,0,1,1.76,2.56,2.18,2.18,0,0,1-2.71,1.56,2.21,2.21,0,0,1-1.52-1.35c-.32-.59-.45-.79-.67-.85a1.1,1.1,0,0,0-1,.56,7.21,7.21,0,0,0-.88,2.4l-.83,3.24c-.48,1.88-.46,1.91.94,2.61.39.18.54.42.46.71s-.39.42-.93.28a3.28,3.28,0,0,1-.46-.14c-1.18-.36-2.24-.66-2.83-.81s-1.67-.4-2.8-.64a3.23,3.23,0,0,1-.47-.09c-.53-.14-.76-.38-.68-.69s.32-.43.75-.4c1.56.09,1.6,0,2.08-1.83Z" transform="translate(-386.76 -412.94)" style="fill:#003e7e"/><path d="M541.16,445.06a3,3,0,0,1-1.09,1.56,2.5,2.5,0,0,1-2.06.12,1.49,1.49,0,0,1-.69-2,2.3,2.3,0,0,1,1.87-1.37,11.28,11.28,0,0,1,2.56-.27c.12,0,.14.19.05.4Zm1.38-3.33c-.11.25-.11.25-1.13.3l-.72,0-.75,0-.72,0c-1.16.06-2.07.12-2.75.19a3.41,3.41,0,0,0-3.06,2.05,2.65,2.65,0,0,0,1.55,3.56,5.49,5.49,0,0,0,2.24.38,8.85,8.85,0,0,0,2.74-.63.3.3,0,0,1,.19,0,.23.23,0,0,1,.11.24l.06.84c0,.14,0,.29.07.41a2,2,0,0,0,1.24,1.28,4.62,4.62,0,0,0,3.23,0c.59-.19.94-.43,1-.68a.39.39,0,0,0-.19-.51.41.41,0,0,0-.3,0c-1,.16-.9.14-1.14,0-.43-.21-.43-.59,0-1.52l2.55-6.13c.73-1.76-.23-3.12-3.08-4.3a8.61,8.61,0,0,0-5.21-.5,4.39,4.39,0,0,0-2.53,1.64.69.69,0,0,0,.47.9,6.63,6.63,0,0,0,2.34.34c.64,0,.92-.19,1.61-.86.87-.84,1.71-1.15,2.42-.84s.9,1.05.32,2.45Z" transform="translate(-386.76 -412.94)" style="fill:#003e7e"/><path d="M550.32,444.6c1-1.64,1-1.7-.12-2.77-.32-.29-.39-.57-.23-.82s.5-.28,1,0c0,0,.22.14.4.28l.51.32.22.17,1.6,1,.79.49c.25.12.59.33.63.36.39.24.38.3,0,.91l-3.79,6.11c-.9,1.45-.82,2.57.25,3.23a3.21,3.21,0,0,0,2.26.31c.46-.11.64-.26,1-.9l2.67-4.29c1-1.65,1-1.7-.12-2.76-.34-.31-.41-.58-.25-.84s.5-.29,1,0a4.67,4.67,0,0,1,.4.27l.25.16.25.18.25.16,1.13.76c.34.21.66.41,1.38.82l.58.36c.3.19.32.25,0,.71l-4.22,6.79c-.81,1.31-.82,1.51.05,2.2.3.24.36.43.23.64s-.48.26-1.39-.09a29,29,0,0,0-2.88-.84c-.87-.18-1-.21-1.11-.31s-.25-.27-.06-.57l.57-.92c.14-.24.16-.4,0-.48s0-.07-1,0a6.28,6.28,0,0,1-3.79-.81c-2.08-1.29-2.47-3.42-1-5.71Z" transform="translate(-386.76 -412.94)" style="fill:#003e7e"/><path d="M563.78,460.87c-1.23,1.5-1.22,1.54-.24,2.76.29.33.31.61.12.84s-.53.22-1-.14a2.93,2.93,0,0,1-.35-.32c-.94-.83-1.77-1.54-2.3-2-.34-.29-1.32-1-2.21-1.71a3.32,3.32,0,0,1-.39-.29c-.43-.34-.54-.66-.33-.91s.48-.26.85,0c1.38.74,1.43.71,2.66-.79l7.19-8.81c.91-1.11.9-1.34,0-2.43-.22-.25-.25-.46-.07-.67s.52-.2,1.45.34A14,14,0,0,0,573,448.3a.76.76,0,0,1,.36.16c.22.18.17.46-.11.81Z" transform="translate(-386.76 -412.94)" style="fill:#003e7e"/><path d="M571.12,458.48c.59-.62.65-.81.36-1.09l-.59-.58c-.32-.32-.42-.58-.24-.77s.52-.13,1.09.11a7,7,0,0,0,4.63.4c.75-.22,1.05-.21,1.28,0s.27.48-.08.84l-1.46,1.49c-.44.46-.49.72-.15,1.05l1.41,1.37c.4.39.4.5,0,.85s-.58.42-.91.1L575.23,461c-.39-.38-.57-.38-1,0l-3.58,3.68c-1.65,1.69-2,2.62-1.37,3.27a2.18,2.18,0,0,0,1,.45c.66.11.71.13.82.24a.38.38,0,0,1,0,.5,2.34,2.34,0,0,1-1.55.28,5.37,5.37,0,0,1-3.23-1.43c-1.55-1.51-1.45-3.2.31-5Z" transform="translate(-386.76 -412.94)" style="fill:#003e7e"/><path d="M594.61,476.92c-.47.32-.83.3-1.1-.09s-.18-.72.27-1.3c1.62-2.13,1.88-3.77.85-5.29-1.19-1.75-3.29-2.4-4.67-1.46-.91.63-1.23,1.57-1,3.08.07.26.11.5.17.76l.25.87.27.85.23.84c1.08,3.78.36,6.65-2.1,8.33-3.67,2.5-8.5,1.19-11.41-3.08-1.33-2-2.47-5-2.3-6.14,0-.29.15-.45.68-.85a11.41,11.41,0,0,1,1-.73c.53-.4.84-.62,1-.71,1.23-.84,1.64-.92,2-.43a.94.94,0,0,1-.11,1.08c-.08.17.26-.3-1.11,1.41s-1.38,3.54,0,5.59c1.51,2.23,3.86,3,5.57,1.81,1.15-.79,1.52-1.81,1.38-3.54-.07-.5-.17-1-.59-3.12-1-4.63-.54-6.87,1.61-8.34,3.09-2.1,7.86-.56,10.6,3.47a11.47,11.47,0,0,1,1.73,4.19c0,.43-.11.68-.61,1Z" transform="translate(-386.76 -412.94)" style="fill:#003e7e"/><path d="M592.14,489.47a2,2,0,0,1,1.3-.28,2.34,2.34,0,0,1,1.46,1.3c.74,1.65-.67,3.88-3.15,5-2.74,1.21-5.18.79-6-1-.55-1.24,0-2.16,1.67-2.92ZM584,493.11c.36-.16.51-.15.61.06a.61.61,0,0,1,.05.19,7.61,7.61,0,0,0,.65,2.44,6.62,6.62,0,0,0,8.82,3.36,5.92,5.92,0,0,0,3.3-7.75,3.87,3.87,0,0,0-1.46-1.8c-1.57-1-1.49-.94-1.54-1s0-.29.38-.44l1.26-.57c.27-.12.37-.27.27-.5s-.19-.25-1-.53a7.52,7.52,0,0,1-2.9-2.31c-1-1.24-.95-1.2-1.3-1a.43.43,0,0,0-.2.59c.47,1.5.4,1.64-1.12,2.31l-9.7,4.32c-1.44.65-1.94.59-2.53-.33s-.66-.92-1-.76-.41.43-.24.82a3.27,3.27,0,0,0,.21.41l.09.21.12.22.09.21.08.18c.52,1,.73,1.46,1.05,2.18s.54,1.28.79,1.9l.09.21.06.2.08.18.09.21.08.24.09.21.06.14a2.76,2.76,0,0,0,.1.28c.18.39.43.52.77.38a.5.5,0,0,0,.25-.64c-.45-1.81-.37-2,1.32-2.73Z" transform="translate(-386.76 -412.94)" style="fill:#003e7e"/><path d="M601.61,506c.48,1.93-1.69,4-5.07,4.86-3.05.76-5.35.14-5.78-1.57-.47-1.88,1.91-4.11,5.33-5,2.76-.68,5.11,0,5.52,1.66m1,.19c-1.05-4.25-4.69-6.77-8.42-5.84-3.49.87-5.45,4.67-4.45,8.67,1.05,4.25,4.75,6.81,8.45,5.89,3.44-.86,5.41-4.74,4.42-8.72" transform="translate(-386.76 -412.94)" style="fill:#003e7e"/><path d="M599.5,518.09c1.43-.13,1.76-.41,1.73-1.52,0-.48.09-.69.39-.72s.35,0,.87,1.28a13.21,13.21,0,0,0,2.26,3.1c.47.46.59.63.61.88s-.12.34-.42.37l-1.75.16c-.3,0-.42.07-.41.17a.33.33,0,0,0,.14.14,5,5,0,0,1,2.25,3.33,2.11,2.11,0,1,1-3.44-1.4c.46-.5.59-.68.57-.91s-.38-.59-.85-.73a7,7,0,0,0-2.56,0l-3.33.31c-1.93.18-1.95.2-2.14,1.76,0,.43-.22.65-.52.68s-.53-.23-.57-.78a2.55,2.55,0,0,1,0-.48c-.06-1.23-.14-2.34-.2-2.94s-.18-1.7-.34-2.85c0-.17-.06-.39-.07-.47,0-.55.1-.84.43-.87s.52.16.64.57c.44,1.5.5,1.53,2.42,1.35Z" transform="translate(-386.76 -412.94)" style="fill:#003e7e"/><path d="M602.6,530.76c.86,0,1-.07,1-.48l0-.83c0-.45.14-.7.39-.7s.45.29.66.88a7,7,0,0,0,2.85,3.67c.67.4.87.63.85,1s-.16.53-.67.51l-2.08-.06c-.63,0-.86.13-.87.61l-.05,2c0,.55-.09.63-.6.61s-.7-.14-.68-.6l0-1.78c0-.55-.11-.68-.68-.7l-5.13-.14c-2.36-.06-3.31.29-3.33,1.22a2.11,2.11,0,0,0,.35,1c.36.56.38.62.38.77a.38.38,0,0,1-.36.34,2.27,2.27,0,0,1-1.26-.94,5.39,5.39,0,0,1-1.14-3.36c.06-2.16,1.37-3.23,3.88-3.16Z" transform="translate(-386.76 -412.94)" style="fill:#003e7e"/><path d="M590,563.45a1.8,1.8,0,0,1-1.42-1.35,12.91,12.91,0,0,1,.08-6.82,16.9,16.9,0,0,1,3.6-7,10.85,10.85,0,0,1,10.29-3c6.2,1.59,9.41,8.56,7.45,16.2a20,20,0,0,1-2.13,5,1,1,0,0,1-1,.53l-2.62-.25-.51-.07a.7.7,0,0,1-.48-.81c.1-.37.46-.63,1.26-1,2.63-1,3.63-1.91,4.17-4,1.09-4.23-2-8.27-7.49-9.67s-10.24.65-11.3,4.82c-.62,2.39.17,4.29,2.77,6.66.45.41.58.67.49,1a.7.7,0,0,1-1,.46Z" transform="translate(-386.76 -412.94)" style="fill:#003e7e"/><path d="M587.53,568.92c-1.78-.78-1.81-.76-2.72.52-.23.36-.5.46-.78.34s-.35-.46-.13-1a4.22,4.22,0,0,1,.22-.43c.55-1.13,1-2.12,1.27-2.74.18-.42.65-1.55,1-2.59a3,3,0,0,1,.17-.45c.22-.51.49-.69.79-.56s.38.38.28.8c-.34,1.53-.3,1.57,1.48,2.35l10.42,4.54c1.32.57,1.54.5,2.34-.66.18-.28.38-.36.63-.25s.33.45.07,1.49a14,14,0,0,0-.48,4.07.84.84,0,0,1-.06.39c-.11.25-.4.29-.82.11Z" transform="translate(-386.76 -412.94)" style="fill:#003e7e"/><path d="M591,575.16c1.67,1,1.72,1,2.77-.16.28-.32.56-.4.82-.24s.29.5,0,1c0,0-.13.22-.27.4l-.31.52-.17.22c-.47.75-.86,1.34-1,1.62l-.48.8c-.12.25-.32.59-.35.64-.23.39-.29.39-.91,0l-6.17-3.7c-1.47-.88-2.58-.78-3.23.3a3.25,3.25,0,0,0-.28,2.27c.11.44.27.63.92,1l4.34,2.6c1.66,1,1.71,1,2.76-.16.3-.36.57-.42.83-.27s.29.5,0,1c0,0-.14.23-.27.4l-.16.25-.18.25-.15.26-.75,1.14c-.21.34-.4.67-.8,1.39l-.34.59c-.18.3-.25.32-.71,0l-6.86-4.11c-1.32-.79-1.52-.8-2.19.09-.24.3-.43.36-.64.23s-.27-.49.07-1.39.54-1.79.8-2.9a3.43,3.43,0,0,1,.29-1.12c.14-.23.27-.25.57-.07l.92.56c.24.14.41.16.49,0s.07,0,0-1a6.27,6.27,0,0,1,.75-3.79c1.26-2.09,3.38-2.51,5.7-1.13Z" transform="translate(-386.76 -412.94)" style="fill:#003e7e"/><path d="M579.65,592.75c.53.46.57.5.59.74a2.31,2.31,0,0,1-.62,1.56c-1.34,1.54-4.06,1.27-6.21-.59s-2.89-4.43-1.62-5.89a2,2,0,0,1,1.58-.7c.55,0,.91.22,2.18,1.32Zm6.53,5.64c.65.56.8.62,1,.32s.18-.28.48-1.05a11.8,11.8,0,0,1,1.47-3.16c.46-.73.55-1.05.32-1.25s-.4-.15-.7.13c-1,.87-1.17.88-2.17,0l-10-8.63a9.77,9.77,0,0,1-1.07-1,3.68,3.68,0,0,0-.33-.35.49.49,0,0,0-.7,0c-.13.15-.11.37,0,.73.39,1,.46,1.3.33,1.45a.62.62,0,0,1-.23.16c-2.12.83-2.58,1.13-3.56,2.27-2.85,3.29-2.83,7.74,0,10.2a5.94,5.94,0,0,0,8.57-.53c.56-.64.56-.64,1-2.12.16-.53.29-.91.3-1a.74.74,0,0,1,.12-.33c.1-.11.1-.11.5.23Z" transform="translate(-386.76 -412.94)" style="fill:#003e7e"/><path d="M484,632.56c-.52,2-.36,2.44,1.24,2.83,1,.25,1.34.56,1.2,1s-.51.51-1.17.34l-.71-.24c-1.39-.49-2.81-.93-4.22-1.3-1.26-.32-2.36-.55-3.39-.73-.26,0-.55-.08-.65-.11-.6-.16-.81-.4-.71-.78s.49-.55,1.22-.36c2,.54,2.53.32,2.89-1.09l2.65-10.34c.33-1.26.29-1.43-.21-1.59a1.21,1.21,0,0,0-.39,0l-1.88.09a4.45,4.45,0,0,1-1,0,.53.53,0,0,1-.45-.65c.12-.46.55-.56,2-.56a26.1,26.1,0,0,0,6.2-.46,1.08,1.08,0,0,1,.5,0c.33.08.4.34.23,1Z" transform="translate(-386.76 -412.94)" style="fill:#003e7e"/><path d="M493.55,624.4c-.31,3,1.1,6,2.94,6.19a2.19,2.19,0,0,0,.77-.08,1.43,1.43,0,0,1,.27,0,.41.41,0,0,1,.3.42c-.07.7-1.66,1.17-3.4,1a5.44,5.44,0,0,1-4.62-6,6.57,6.57,0,0,1,7.21-5.73c4,.41,6.8,4.06,6.37,8.4s-3.74,8.35-8.65,10.48a25.53,25.53,0,0,1-4.59,1.37,2.7,2.7,0,0,1-.71.07.54.54,0,0,1-.49-.6c0-.31.23-.42,1.08-.62a12.58,12.58,0,0,0,9.25-10.69c.38-3.77-1-7.21-3-7.41-1.4-.14-2.47,1.14-2.68,3.19" transform="translate(-386.76 -412.94)" style="fill:#003e7e"/><path d="M514.6,627.37c.09-.24.38-1.18.54-1.77a2.06,2.06,0,0,0,.12-.74c0-.23-.13-.3-.47-.28l-7.39.59c-.7.05-1.19.12-1.37.14a6.4,6.4,0,0,1-.75.14c-.34,0-.49-.25-.55-.92,0-.05,0-.55-.13-1.25,0-.23-.09-.88-.12-1.19-.08-1-.06-1,.41-1.08a5.68,5.68,0,0,1,.76,0,19.91,19.91,0,0,0,3.53,0l8.9-.71c.64-.05.73,0,.75.2s0,.18-.48,1.51c-.14.3-.18.43-.18.43l-.7,1.68-.67,1.67-.68,1.68c-.73,1.73-1.78,4.57-3.08,8.29-.45,1.26-.79,2.26-1,2.85-.36,1.13-.38,1.15-.77,1.19l-.31,0h-.19c-.49,0-.54,0-.58-.16a.23.23,0,0,1,0-.13,1.64,1.64,0,0,1,.07-.4Z" transform="translate(-386.76 -412.94)" style="fill:#003e7e"/><path d="M531.64,632c.33,1.34.52,1.43,2.19,1.26a.51.51,0,0,1,.61.41c.1.41-.2.7-.88.87l-4.2.85-2,.63-.78.22c-.61.16-.87.06-1-.34s0-.58,1.18-1c.82-.28,1-.77.81-1.71l-.5-2c-.19-.76-.22-.78-1-.6l-5.5,1.36c-1,.25-1,.29-1.23-.85a1.37,1.37,0,0,1,.18-.9l6.09-14.38c.27-.66.4-.75,1.44-1,.2,0,.4,0,.45.07s-.11.43-.75,1.72c-1.1,2.21-2,4.18-2.77,6l-2.23,5.31a14.47,14.47,0,0,0-.74,1.79c-.09.27-.11.3-.09.37s.17.15.6,0l4.1-1c.79-.19.82-.25.64-1l-.94-3.77c-.21-.84-.19-.89.17-1.17a.35.35,0,0,1,.14-.09,24.86,24.86,0,0,1,2.34-1.41c.27-.12.45-.25.57-.3a.35.35,0,0,1,.15-.06c.15,0,.22,0,.29.3l1.37,5.55c.17.68.27.74.87.59l1.64-.41c.51-.12.51-.12.71.68.16.63.11.75-.42.89l-1.6.39c-.56.14-.62.24-.46.84Z" transform="translate(-386.76 -412.94)" style="fill:#003e7e"/><polygon points="76.17 205.68 65.75 205.59 60.6 196.54 71.01 196.63 76.17 205.68" style="fill:#003e7e"/><polygon points="158.11 205.68 168.52 205.59 173.68 196.54 163.27 196.63 158.11 205.68" style="fill:#003e7e"/></svg>