<?xml version="1.0" encoding="UTF-8" standalone="no"?>
<svg
   width="523.57648"
   height="600"
   viewBox="0 0 523.57648 600"
   fill="none"
   version="1.1"
   id="svg850"
   sodipodi:docname="Logo Norwich City FC - 2022.svg"
   inkscape:version="1.1.1 (c3084ef, 2021-09-22)"
   xmlns:inkscape="http://www.inkscape.org/namespaces/inkscape"
   xmlns:sodipodi="http://sodipodi.sourceforge.net/DTD/sodipodi-0.dtd"
   xmlns="http://www.w3.org/2000/svg"
   xmlns:svg="http://www.w3.org/2000/svg">
  <defs
     id="defs854" />
  <sodipodi:namedview
     id="namedview852"
     pagecolor="#ffffff"
     bordercolor="#666666"
     borderopacity="1.0"
     inkscape:pageshadow="2"
     inkscape:pageopacity="0.0"
     inkscape:pagecheckerboard="0"
     showgrid="false"
     inkscape:zoom="0.91854557"
     inkscape:cx="228.6223"
     inkscape:cy="244.95246"
     inkscape:window-width="1440"
     inkscape:window-height="900"
     inkscape:window-x="0"
     inkscape:window-y="0"
     inkscape:window-maximized="0"
     inkscape:current-layer="svg850" />
  <path
     d="M 523.54839,206.53731 V 0 H 0.02808135 v 206.53731 c 0,0 -8.32621565,307.68665 261.76412865,393.46269 270.08276,-85.77604 261.75618,-393.46269 261.75618,-393.46269 z"
     fill="#038c40"
     id="path824"
     style="stroke-width:6.2148" />
  <g
     id="g1021">
    <path
       d="m 96.548767,165.87574 c -7.206682,0 -11.659586,5.7953 -14.405284,10.97782 -1.781162,3.31124 -4.37149,7.56652 -8.685804,9.76842 l -16.824084,8.5932 c -0.937814,0.47606 -2.01981,0.56742 -3.022879,0.25668 -4.943873,-1.55619 -11.627393,-7.83997 -14.217597,-2.19383 -3.358229,-0.28961 -6.356994,1.83834 -5.768639,5.86988 1.822117,-1.80478 5.180346,-2.18575 10.54869,-0.89431 h -2.492197 c -5.065994,0 -6.536726,3.80843 -5.32745,6.10169 1.135754,-1.325 3.341946,-1.83772 7.607163,-1.83772 H 56.56026 l 41.565818,-13.9833 c 5.498862,-1.85387 8.538522,-7.28498 8.538522,-12.50914 0,-5.22354 -3.17017,-10.14939 -10.115833,-10.14939 z"
       fill="#fff200"
       id="path828"
       style="stroke-width:6.2148" />
    <path
       d="m 112.07645,121.21805 c 2.86813,0 9.74791,0.0416 9.74791,0.0416 -5.66231,-6.94566 -11.88021,-10.76217 -20.74562,-10.48064 l 1.7159,-4.56974 c -22.813286,-0.52204 -16.946515,17.33556 -28.246885,17.32686 h -4.08561 c -1.479122,5.17444 0.522665,10.09221 5.858692,11.5241 0.343057,-3.89916 4.084988,-5.91897 7.754205,-5.91897 4.084988,0 7.157585,1.65562 7.157585,5.01659 0,4.08995 -4.175724,6.34158 -8.408002,6.34158 -1.898,0.0329 -3.766169,-0.48414 -5.384503,-1.49031 -1.634492,3.12977 -0.417013,8.56834 2.312527,10.76279 2.867509,-6.69769 22.559721,0.67057 26.424711,-19.50515 0.79798,1.46856 1.23799,3.10926 1.28273,4.78539 0,11.43275 -21.987961,18.00614 -25.289262,31.41768 4.085609,-4.41251 8.914508,-6.58147 14.389125,-6.58147 10.360697,0 17.485967,7.9885 15.729037,19.57102 3.59526,-4.18939 5.71948,-13.32888 4.35533,-17.98998 l 9.04502,14.23935 c 3.16209,-10.45578 -1.63387,-28.25496 -6.11163,-35.3995 h 7.83562 c -2.76994,-8.58512 -9.80509,-16.57425 -15.33688,-19.09124 z m -26.0077,0 c 3.736338,-2.32496 8.034493,-3.55735 12.419658,-3.55984 -2.925308,10.01764 -10.458889,6.79713 -12.419658,3.5356 z"
       fill="#fff200"
       id="path830"
       style="stroke-width:6.2148" />
    <path
       d="m 196.54862,150.44812 h 12.87707 c 7.13335,0 11.11268,-4.82642 11.11268,-10.76217 0,-5.93576 -3.66859,-10.76217 -11.11268,-10.76217 H 145.9297 c -0.87628,0.0261 -1.74884,-0.12927 -2.5636,-0.45679 -0.81476,-0.32752 -1.55432,-0.82097 -2.17456,-1.44867 -0.61962,-0.62831 -1.10624,-1.37782 -1.4294,-2.20314 -0.3238,-0.82595 -0.4773,-1.70969 -0.4512,-2.59717 -0.023,-0.88126 0.133,-1.75816 0.45865,-2.57541 0.32628,-0.81787 0.81476,-1.55805 1.43624,-2.1758 0.62086,-0.61775 1.36104,-1.09878 2.17332,-1.41387 0.81289,-0.31509 1.6811,-0.45679 2.55055,-0.41639 h 10.67951 c 18.59655,0 27.96101,3.5182 44.93984,3.5182 13.77635,0 16.65256,-4.13906 19.03842,-8.32038 h -74.99275 c -7.44408,0 -11.57009,5.10857 -11.57009,11.38365 0,6.27509 4.08561,11.48247 11.57009,11.48247 h 63.7334 c 4.21612,0 6.16073,2.69038 6.16073,6.00225 0,3.31124 -1.94461,6.00163 -6.16073,6.00163 h -80.51646 c 2.71276,7.87353 4.4529,18.27959 3.49707,26.73234 l 30.64082,-8.02206 c -3.26836,-4.25528 -4.98427,-7.88969 -5.46654,-11.73106 l 12.6813,13.03057 c 6.06316,6.22599 14.8714,12.31028 22.78097,12.31028 7.2477,0 10.87528,-2.88926 15.0423,-7.33471 l 3.83267,16.94652 c 1.23364,5.43919 -1.24234,8.21223 -7.64793,8.21223 -4.49454,0 -10.46697,-4.20555 -14.61783,-4.20555 -1.3076,0 -2.41072,0.57984 -3.17887,2.31004 -3.63628,-0.22373 -6.39752,2.11117 -5.71948,5.53863 1.82218,-1.70534 5.18003,-2.07015 10.54838,-0.82781 h -2.45112 c -5.07438,0 -6.53673,3.57599 -5.3354,5.73688 1.34799,-1.48161 4.41188,-1.73828 7.61499,-1.73828 h 26.62109 c 4.08561,-12.14496 4.18381,-30.8714 -0.9316,-41.54283 -8.1302,-0.0665 -18.91536,-5.03337 -20.17386,-10.67143 z"
       fill="#fff200"
       id="path832"
       style="stroke-width:6.2148" />
    <path
       d="m 165.9022,169.7662 -17.55121,4.58652 7.83562,15.27412 c 2.07574,4.03962 -0.41639,6.19242 -4.90224,6.19242 -4.90285,0 -10.4999,-4.20555 -14.11132,-4.20555 -1.29889,0 -2.40202,0.57922 -3.17017,2.30942 -3.63628,-0.22311 -6.39814,2.11116 -5.71948,5.53863 1.82156,-1.70534 5.18004,-2.06953 10.54838,-0.82781 h -2.45112 c -5.07438,0 -6.53672,3.57661 -5.33602,5.73688 1.34861,-1.48161 4.4125,-1.73828 7.61561,-1.73828 h 26.6211 c 1.85387,-2.69287 3.05706,-5.78971 3.51322,-9.04067 -9.5683,-7.43414 -8.38314,-14.58676 -2.89237,-23.82568 z"
       fill="#fff200"
       id="path834"
       style="stroke-width:6.2148" />
    <path
       d="m 48.80419,140.87422 3.104914,10.53036 c 0.10068,0.38345 0.293338,0.73521 0.561818,1.02419 0.267858,0.28961 0.602835,0.50651 0.97448,0.63143 0.475433,0.1361 0.968266,0.20011 1.462343,0.19079 l 27.895749,0.1734 c -3.636279,3.63379 -6.059429,8.32907 -6.92888,13.42831 l -27.1276,-8.14636 c -0.686735,-0.19887 -1.2933,-0.6134 -1.732065,-1.18392 -7.672791,-9.93435 -14.560902,-3.19565 -14.560902,-3.19565 0,-3.20372 3.211187,-6.75548 10.72028,-6.19242 -3.652375,-2.98 -8.048352,-4.96687 -11.177814,-4.03962 2.729105,-2.75689 6.1772,-4.71082 13.28575,0.19825 -1.748409,-9.10655 -6.291428,-8.66778 -6.291428,-8.66778 0,0 7.337379,-3.07943 9.813355,5.24902 z"
       fill="#fff200"
       id="path836"
       style="stroke-width:6.2148" />
  </g>
  <path
     d="M 209.7501,32.014732 V 37.18066 H 198.77663 V 32.014732 H 187.80316 V 37.18066 H 176.83777 V 32.014732 H 165.86429 V 37.18066 H 154.89082 V 32.014732 H 143.92481 V 37.18066 H 132.95134 V 32.014732 H 121.97786 V 37.18066 H 111.00439 V 32.014732 H 100.039 V 37.18066 H 89.065527 V 32.014732 H 78.083354 V 37.18066 H 67.117962 V 32.014732 H 56.152569 V 37.18066 H 45.179097 V 32.014732 H 34.205688 v 59.565561 h 75.507892 v -9.512372 c -0.051,-2.394563 0.37102,-4.774831 1.23985,-7.002215 0.86945,-2.226763 2.16897,-4.255895 3.8221,-5.967451 1.65376,-1.711555 3.62758,-3.071354 5.80649,-3.999223 2.17891,-0.928491 4.51878,-1.407031 6.88289,-1.407031 2.36349,0 4.70336,0.47854 6.88227,1.407031 2.17891,0.927869 4.15335,2.287668 5.80649,3.999223 1.65313,1.711556 2.95265,3.740688 3.8221,5.967451 0.86945,2.227384 1.29081,4.607652 1.24047,7.002215 v 9.512372 h 75.50733 V 32.014732 Z M 61.798715,76.305558 H 54.592033 V 55.998079 c 0,-0.968266 0.379724,-1.896757 1.055273,-2.581628 0.67617,-0.684249 1.592853,-1.068945 2.548068,-1.068945 0.955836,0 1.872519,0.384696 2.548068,1.068945 0.67617,0.684871 1.055273,1.613362 1.055273,2.581628 z m 27.585631,0 H 82.168963 V 55.998079 c 0,-0.479161 0.09322,-0.953972 0.274694,-1.397087 0.180851,-0.443115 0.446223,-0.845212 0.780579,-1.184541 0.334978,-0.338706 0.732104,-0.607807 1.169004,-0.791144 0.437522,-0.183336 0.906118,-0.277801 1.379064,-0.277801 0.473568,0 0.942164,0.09446 1.379064,0.277801 0.437522,0.183337 0.834648,0.452438 1.169004,0.791144 0.334978,0.339329 0.60035,0.741426 0.7812,1.184541 0.180851,0.443115 0.274073,0.917926 0.274073,1.397087 z m 83.343574,0 h -7.21538 V 55.998079 c 0,-0.968266 0.37972,-1.896757 1.05589,-2.581628 0.67555,-0.684249 1.59223,-1.068945 2.54745,-1.068945 0.95583,0 1.87252,0.384696 2.54806,1.068945 0.67617,0.684871 1.05528,1.613362 1.05528,2.581628 z m 27.58501,0 h -7.18245 V 55.998079 c 0,-0.968266 0.37973,-1.896757 1.05528,-2.581628 0.67617,-0.684249 1.59223,-1.068945 2.54806,-1.068945 0.95584,0 1.87252,0.384696 2.54807,1.068945 0.67555,0.684871 1.05528,1.613362 1.05528,2.581628 z"
     fill="#fff200"
     id="path838"
     style="stroke-width:6.2148" />
  <g
     id="g1028">
    <path
       d="m 483.1497,78.084856 c -6.75984,-5.294388 -14.25115,-9.55339 -22.23344,-12.641524 -6.39752,4.760536 -11.31653,12.244398 -15.27163,23.081144 12.16547,-4.618218 24.71812,-8.112178 37.50507,-10.43962 z"
       fill="#fff200"
       id="path840"
       style="stroke-width:6.2148" />
    <path
       d="m 345.02516,168.50335 h -50.27587 l -60.38361,61.17973 h 4.90285 c 48.05346,-0.0161 81.84829,-19.50452 105.75663,-61.17973 z"
       fill="#fff200"
       id="path842"
       style="stroke-width:6.2148" />
    <path
       d="m 403.15839,166.84649 c -6.12841,1.44059 -13.17164,1.65624 -22.11039,1.65624 h -25.55898 c -25.80385,48.01617 -63.38226,70.36894 -116.20743,70.36894 h -14.01313 l -43.48558,44.06728 h 45.75709 c 73.4409,0.0249 139.51106,-29.12442 175.61842,-116.09246 z"
       fill="#fff200"
       id="path844"
       style="stroke-width:6.2148" />
    <path
       d="m 172.64278,292.199 -92.772671,94.03799 23.107251,0.22312 c 25.97537,0 37.04704,-5.8444 57.92379,-27.00517 l 66.60153,-67.223 z"
       fill="#fff200"
       id="path846"
       style="stroke-width:6.2148" />
    <path
       d="m 407.94938,127.11092 c -17.90235,0 -30.88569,-13.58555 -30.88569,-32.287123 0,-20.100526 16.89742,-38.976116 39.53918,-38.976116 8.36699,0 13.89008,2.102467 17.90235,5.927676 -4.02035,12.73226 -17.25725,15.663159 -25.87718,4.378948 -7.55844,2.061449 -22.44599,10.895165 -22.44599,28.669492 0,13.585553 8.94744,23.072443 21.76733,23.072443 15.52519,0 22.24153,-11.08472 27.51976,-27.741622 2.90915,-9.173044 7.58267,-20.829522 16.70973,-29.273571 -8.39184,-15.655142 -22.5678,-20.17529 -35.76431,-20.17529 -23.8263,0 -43.55083,12.956179 -57.19666,45.739869 -8.62801,20.738164 -17.40393,34.423154 -32.37289,49.581054 l -22.98482,23.28809 h 79.72345 c 17.25726,0 25.25632,-2.97191 34.38338,-8.19607 -38.30554,118.02961 -122.88275,138.11397 -177.2523,140.73848 l -41.17305,41.71622 c 10.98963,0.53013 21.77542,0.63764 31.98882,0.36419 l 38.15017,107.87214 c 3.78357,10.64595 4.08561,15.53887 2.25535,19.49645 -3.69346,-1.83834 -6.53673,-4.96749 -10.51606,-16.07769 l -13.22075,-37.39507 -21.84875,22.44413 c -4.47776,4.47341 -8.1476,9.70752 -10.84296,15.46429 -4.18318,-5.68717 -1.25042,-15.72966 6.4143,-23.60257 l 22.98481,-23.61064 -8.03201,-22.6921 c -20.98489,6.05197 -39.12278,19.54616 -51.10367,38.02152 -11.98089,18.47474 -17.00618,40.69824 -14.15918,62.61535 2.84762,21.91711 13.37736,42.06674 29.66883,56.77095 16.29086,14.70484 37.2571,22.98482 59.07292,23.32912 21.81581,0.34367 43.0263,-7.2707 59.76151,-21.45474 16.73521,-14.18403 27.87897,-33.99122 31.39779,-55.80827 3.51882,-21.81644 -0.8216,-44.18785 -12.22886,-63.03175 -11.40789,-18.84389 -29.12255,-32.90363 -49.91106,-39.61437 l -13.25306,-37.38699 c -2.9744,0.45865 -5.98672,0.87753 -9.03756,1.25849 l 11.83173,33.44619 c -5.64241,-1.09442 -11.3737,-1.64878 -17.11804,-1.65562 -2.38586,0 -4.73941,0.11559 -7.07617,0.29769 l -13.8416,-39.06685 c 156.80064,-7.87353 218.16432,-111.38226 218.73609,-234.18049 -5.49202,-1.00804 -10.85974,-2.620782 -16.00684,-4.809634 -5.3845,16.350514 -14.02929,32.543794 -35.65804,32.543794 z m -115.4225,282.60186 c 10.32776,5.62936 15.42638,11.1102 14.7732,21.75677 -3.89854,-4.54302 -8.59134,-8.31789 -13.8416,-11.13506 l -27.06234,-14.74461 -4.47777,-12.54209 z"
       fill="#fff200"
       id="path848"
       style="stroke-width:6.2148" />
  </g>
</svg>
