<?xml version="1.0" encoding="UTF-8" standalone="no"?>
<!-- Generator: Adobe Illustrator 15.0.2, SVG Export Plug-In . SVG Version: 6.00 Build 0)  -->

<svg
   xmlns:dc="http://purl.org/dc/elements/1.1/"
   xmlns:cc="http://creativecommons.org/ns#"
   xmlns:rdf="http://www.w3.org/1999/02/22-rdf-syntax-ns#"
   xmlns:svg="http://www.w3.org/2000/svg"
   xmlns="http://www.w3.org/2000/svg"
   xmlns:sodipodi="http://sodipodi.sourceforge.net/DTD/sodipodi-0.dtd"
   xmlns:inkscape="http://www.inkscape.org/namespaces/inkscape"
   version="1.2"
   id="Capa_1"
   x="0px"
   y="0px"
   width="128.98976"
   height="290"
   viewBox="0 0 128.98976 565.99902"
   xml:space="preserve"
   inkscape:version="0.48.2 r9819"
   sodipodi:docname="real_oviedo [(VFL).svg"><metadata
   id="metadata51"><rdf:RDF><cc:Work
       rdf:about=""><dc:format>image/svg+xml</dc:format><dc:type
         rdf:resource="http://purl.org/dc/dcmitype/StillImage" /></cc:Work></rdf:RDF></metadata><defs
   id="defs49" /><sodipodi:namedview
   pagecolor="#ffffff"
   bordercolor="#666666"
   borderopacity="1"
   objecttolerance="10"
   gridtolerance="10"
   guidetolerance="10"
   inkscape:pageopacity="0"
   inkscape:pageshadow="2"
   inkscape:window-width="1920"
   inkscape:window-height="1024"
   id="namedview47"
   showgrid="false"
   fit-margin-top="0"
   fit-margin-left="0"
   fit-margin-right="0"
   fit-margin-bottom="0"
   inkscape:zoom="2.7827586"
   inkscape:cx="6.8183008"
   inkscape:cy="145"
   inkscape:window-x="-4"
   inkscape:window-y="-4"
   inkscape:window-maximized="1"
   inkscape:current-layer="Capa_1" />
<path
   d="m -61.381117,164.725 v 326.95 c 0,13.391 2.885,24.035 10.193,32.924 15.111999,18.38 61.283999,41.4 115.682998,41.4 54.398999,0 100.569999,-23.021 115.683999,-41.4 7.308,-8.889 10.192,-19.533 10.192,-32.924 V 164.725 H -61.381117 z"
   id="path3"
   inkscape:connector-curvature="0"
   style="fill:#d6b048" />
<rect
   x="-47.117115"
   y="178.99001"
   width="223.224"
   height="37.724998"
   id="rect5"
   style="fill:#122680;fill-opacity:1" />
<path
   d="m 169.15988,515.54 c -5.038,6.128 -17.499,15.492 -37.366,23.399 -14.667,5.837 -38.247998,12.796 -67.298999,12.796 -29.049999,0 -52.631999,-6.959 -67.2989994,-12.796 -19.8659996,-7.907 -32.3279996,-17.271 -37.3659996,-23.398 -4.803999,-5.845 -6.946999,-13.204 -6.946999,-23.865 V 230.979 H 176.10688 v 260.696 c 0,10.662 -2.142,18.021 -6.947,23.865 z"
   id="path7"
   inkscape:connector-curvature="0"
   style="fill:#ffffff" />
<path
   d="m 139.56888,245.243 v 132.883 c 0,12.698 -2.693,22.43 -8.447,30.068 -10.744,14.264 -40.100998,26.612 -66.626999,26.612 -26.525999,0 -55.8829994,-12.349 -66.6269994,-26.612 -5.753,-7.639 -8.4469996,-17.37 -8.4469996,-30.068 V 245.243 H 139.56888"
   id="path9"
   inkscape:connector-curvature="0"
   style="fill:#d6b048" />
<path
   d="M 125.30588,259.506 H 3.6838816 v 118.619 c 0,9.607 1.772,16.436 5.577,21.486 7.4570004,9.899 31.9750004,20.931 55.2339994,20.931 23.259001,0 47.775999,-11.031 55.232999,-20.931 3.805,-5.052 5.577,-11.879 5.577,-21.486 V 259.506 l 0.001,0 z"
   id="path11"
   inkscape:connector-curvature="0"
   style="fill:#122680;fill-opacity:1" />
<path
   d="m 75.151882,338.161 38.820998,2.553 v -20.521 l -38.819998,2.553 c -0.82,-1.133 -1.814,-2.127 -2.946,-2.947 l 2.549,-52.157 H 54.234881 l 2.55,52.157 c -1.133,0.82 -2.127,1.814 -2.947,2.947 l -38.819999,-2.553 v 20.521 l 38.820999,-2.553 c 0.917,1.265 2.045,2.367 3.345,3.237 l -2.948,69.385 h 20.521001 l -2.947,-69.385 c 1.298,-0.87 2.425,-1.973 3.342,-3.237 z"
   id="path13"
   inkscape:connector-curvature="0"
   style="fill:#d6b048" />
<path
   d="m 19.124882,493.271 c 0.002,-25.058 20.314,-45.369 45.369999,-45.37 l 0,0 c 25.058001,10e-4 45.367999,20.313 45.369999,45.37 l 0,0 c -0.002,25.058 -20.312998,45.368 -45.369999,45.369 l 0,0 C 39.438882,538.639 19.126882,518.329 19.124882,493.271 l 0,0 z"
   id="path15"
   inkscape:connector-curvature="0"
   style="fill:#122680;fill-opacity:1" />
<path
   d="m 59.268881,521.881 c -9.345,-5.436 -15.085999,-13.616 -17.645999,-17.909 -4.085,3.354 -8.036,7.962 -11.306,14.324 1.283,1.749 2.691,3.4 4.222,4.933 7.671,7.668 18.253999,12.407 29.956999,12.408 9.654001,-10e-4 18.541001,-3.231 25.665001,-8.665 -2.419,0.378 -5.271,0.663 -8.424,0.666 -6.684,0 -14.722001,-1.286 -22.468001,-5.757 z"
   id="path17"
   inkscape:connector-curvature="0"
   style="fill:#ffffff" />
<path
   d="m 48.992881,493.163 c 6.612,-2.856 12.404,-3.543 15.402,-3.699 0.087,-0.223 0.174,-0.437 0.262,-0.674 1.271,-3.431 2.546,-8.337 2.544,-14.152 -10e-4,-0.359 -0.008,-0.725 -0.019,-1.091 -4.277,0.015 -13.767,0.754 -22.128999,5.604 -15.138,8.646 -19.17,26.174 -19.52,28.141 -0.024,0.128 -0.031,0.163 -0.031,0.163 l -0.29,1.686 c 0.537,1.326 1.136,2.62 1.8,3.877 6.274,-10.724 14.623,-16.687 21.980999,-19.855 z"
   id="path19"
   inkscape:connector-curvature="0"
   style="fill:#ffffff" />
<path
   d="m 67.840881,495.089 c 1.303001,1.63 3.058001,3.563 5.311001,5.495 1.981,1.693 4.335,3.38 7.085,4.871 0.685,-1.206 1.583,-2.915 2.48,-5.015 1.881,-4.38 3.731,-10.419 3.728,-16.946 0.003,-8.741 -3.212,-16.123 -6.69,-21.541 -3.472,-5.408 -7.187,-8.797 -7.919,-9.436 -0.098,-0.085 -0.126,-0.107 -0.126,-0.107 h 0.001 l -1.307,-1.087 c -1.398,-0.195 -2.818001,-0.322 -4.257001,-0.378 4.858001,8.538 6.505001,16.717 6.498001,23.692 -0.014,9.772 -3.119,17.154 -4.804001,20.452 z"
   id="path21"
   inkscape:connector-curvature="0"
   style="fill:#ffffff" />
<path
   d="m 42.331882,474.438 c 9.374999,-5.392 19.335999,-6.242 24.327999,-6.328 -0.862,-5.217 -2.866,-10.939 -6.749,-16.955 -9.869,1.063 -18.716999,5.505 -25.372999,12.157 -7.67,7.672 -12.409,18.255 -12.409,29.959 0,1.818 0.128,3.606 0.35,5.365 0.5,-1.294 1.091,-2.69 1.802,-4.159 3.196,-6.61 8.721,-14.647 18.051,-20.039 z"
   id="path23"
   inkscape:connector-curvature="0"
   style="fill:#ffffff" />
<path
   d="m 69.605882,504.714 c -4.284001,-3.681 -6.981001,-7.332 -8.358001,-9.455 -2.705,0.41 -6.256,1.236 -10.094,2.9 -1.655,0.719 -3.361999,1.596 -5.080999,2.649 0.7,1.196 1.734,2.829 3.101999,4.656 2.854,3.818 7.158,8.443 12.814,11.703 6.708001,3.873 13.746001,5.027 19.747001,5.027 7.379,0.005 13.123,-1.766 14.315,-2.17 0.171,-0.058 0.225,-0.077 0.225,-0.077 l 1.583,-0.583 c 0.881,-1.123 1.705,-2.291 2.469998,-3.501 -14.178998,-0.075 -24.297998,-5.614 -30.722998,-11.149 z"
   id="path25"
   inkscape:connector-curvature="0"
   style="fill:#ffffff" />
<path
   d="m 91.886882,483.494 c -0.035,10.803 -4.243,19.86 -6.682,24.226 4.341,1.632 9.452,2.703 15.458998,2.708 0.847,0 1.718,-0.027 2.602,-0.07 2.307,-5.227 3.597,-11.003 3.597,-17.086 0,-11.704 -4.739,-22.287 -12.407998,-29.959 -3.874,-3.872 -8.491,-6.993 -13.619,-9.139 0.878,1.087 1.798,2.306 2.724,3.666 4.125,6.074 8.323,14.877 8.327,25.654 z"
   id="path27"
   inkscape:connector-curvature="0"
   style="fill:#ffffff" />
<rect
   x="-16.531116"
   y="142.64101"
   width="162.052"
   height="16.517"
   id="rect29"
   style="fill:#d6b048" />
<path
   d="m -4.6971184,26.119 c 7.256,0 14.181,1.771 20.3690004,4.881 6.191,-3.108 13.117,-4.881 20.374,-4.881 10.619,0 20.524999,3.794 28.449999,10.035 7.924001,-6.241 17.831001,-10.035 28.450001,-10.035 7.255998,0 14.181998,1.772 20.372998,4.881 6.188,-3.11 13.113,-4.881 20.368,-4.881 25.2,0 46.473,21.283 46.473,46.22 0,17.129 -6.508,25.549 -12.216,33.501 l -22.423,31.233 H -16.531118 l -22.422,-31.233 c -5.708999,-7.952 -12.215999,-16.372 -12.215999,-33.501 0,-24.937 21.272999,-46.22 46.4719986,-46.22 z"
   id="path31"
   inkscape:connector-curvature="0"
   style="fill:#d6b048" />
<path
   d="m -27.050118,107.854 15.073,20.997 H 140.96688 l 15.073,-20.997 c 7.403,-10.313 12.217,-17.017 12.217,-29.659 0,-18.55 -15.824,-34.382 -34.57,-34.382 -1.454,0 -2.888,0.106 -4.3,0.292 6.248,7.889 10.03,17.733 10.03,28.233 0,3.29 -0.38,6.513 -1.08,9.635 h -11.049 c 0.146,-1.244 0.227,-2.504 0.227,-3.778 0,-18.55 -15.824,-34.382 -34.568998,-34.382 -7.718,0 -14.934,2.692 -20.76,7.146 V 81.974 H 56.805881 V 50.959 c -5.827,-4.453 -13.041999,-7.146 -20.759999,-7.146 -18.746,0 -34.5700004,15.832 -34.5700004,34.382 0,1.274 0.082,2.534 0.227,3.778 h -11.049 c -0.6999996,-3.122 -1.0809996,-6.345 -1.0809996,-9.635 0,-10.5 3.7819996,-20.345 10.03099956,-28.233 -1.41299996,-0.186 -2.84599996,-0.292 -4.29999996,-0.292 -18.7449996,0 -34.5689996,15.832 -34.5689996,34.382 -10e-4,12.643 4.812,19.347 12.215,29.659 z"
   id="path33"
   inkscape:connector-curvature="0"
   style="fill:#c51718" />
<path
   d="m 76.090882,26.997 c -0.874,-4.451 -4.242,-8.002 -8.593001,-9.144 v -6.029 h 5.818001 V 5.817 H 67.497881 V 0 h -6.006 v 5.817 h -5.818 v 6.007 h 5.818 v 6.029 c -4.352,1.142 -7.719,4.692 -8.593,9.144 4.153,1.586 8.05,3.729 11.596,6.328 3.545,-2.599 7.442001,-4.742 11.596001,-6.328 z"
   id="path35"
   inkscape:connector-curvature="0"
   style="fill:#d6b048" />
<path
   d="m 76.067882,101.913 c -0.662,0 -1.309,0.068 -1.937,0.187 0.559,-1.285 0.873,-2.7 0.873,-4.19 0,-5.805 -4.705,-10.511 -10.511001,-10.511 -5.804,0 -10.509,4.706 -10.509,10.511 0,1.49 0.313,2.905 0.873,4.19 -0.628,-0.118 -1.274,-0.187 -1.937,-0.187 -5.803999,0 -10.509999,4.706 -10.509999,10.511 0,5.805 4.706,10.511 10.509999,10.511 4.809,0 8.854,-3.233 10.104,-7.641 0.479,0.081 0.969,0.133 1.47,0.133 0.503,0 0.991,-0.052 1.471,-0.134 1.25,4.408 5.295001,7.642 10.104001,7.642 5.806,0 10.511,-4.706 10.511,-10.511 0,-5.805 -4.706,-10.511 -10.512,-10.511 z"
   id="path37"
   inkscape:connector-curvature="0"
   style="fill:#d6b048" />
<path
   d="m 130.62288,101.913 c -0.663,0 -1.309,0.068 -1.937,0.187 0.559,-1.285 0.873,-2.7 0.873,-4.19 0,-5.805 -4.706,-10.511 -10.511,-10.511 -5.805,0 -10.51,4.706 -10.51,10.511 0,1.49 0.313,2.905 0.873,4.19 -0.628,-0.118 -1.274,-0.187 -1.937,-0.187 -5.805,0 -10.509998,4.706 -10.509998,10.511 0,5.805 4.704998,10.511 10.509998,10.511 4.809,0 8.854,-3.233 10.104,-7.641 0.479,0.081 0.968,0.133 1.47,0.133 0.502,0 0.991,-0.052 1.471,-0.134 1.25,4.408 5.295,7.642 10.104,7.642 5.805,0 10.511,-4.706 10.511,-10.511 0,-5.805 -4.706,-10.511 -10.511,-10.511 z"
   id="path39"
   inkscape:connector-curvature="0"
   style="fill:#d6b048" />
<path
   d="m -1.6331184,101.913 c 0.66299996,0 1.30899996,0.068 1.93699996,0.187 -0.559,-1.285 -0.873,-2.7 -0.873,-4.19 0,-5.805 4.70500004,-10.511 10.51000004,-10.511 5.8040004,0 10.5100004,4.706 10.5100004,10.511 0,1.49 -0.314,2.905 -0.873,4.19 0.628,-0.118 1.274,-0.187 1.937,-0.187 5.805,0 10.51,4.706 10.51,10.511 0,5.805 -4.705,10.511 -10.51,10.511 -4.809,0 -8.854,-3.233 -10.104,-7.641 -0.479,0.081 -0.968,0.133 -1.4700004,0.133 -0.502,0 -0.991,-0.052 -1.471,-0.134 -1.25,4.408 -5.295,7.642 -10.104,7.642 -5.805,0 -10.5109996,-4.706 -10.5109996,-10.511 0,-5.805 4.7069996,-10.511 10.5119996,-10.511 z"
   id="path41"
   inkscape:connector-curvature="0"
   style="fill:#d6b048" />
<path
   d="m 73.995882,197.851 c 0.003,-8.863 7.184,-16.044 16.049,-16.047 l 0,0 c 8.863,0.003 16.043998,7.184 16.046998,16.047 l 0,0 c -0.003,8.865 -7.183998,16.045 -16.046998,16.048 l 0,0 c -8.865,-0.003 -16.046,-7.183 -16.049,-16.048 l 0,0 z m 7.133,0 c 0.01,4.922 3.993,8.906 8.916,8.915 l 0,0 c 4.921,-0.009 8.904,-3.993 8.914,-8.915 l 0,0 c -0.01,-4.921 -3.993,-8.906 -8.914,-8.915 l 0,0 c -4.923,0.009 -8.906,3.994 -8.916,8.915 l 0,0 z"
   id="path43"
   inkscape:connector-curvature="0"
   style="fill:#ffffff" />
<path
   d="m 40.304882,200.953 c 4.177,-1.1 7.258,-4.887 7.259,-9.408 -10e-4,-5.381 -4.357,-9.738 -9.74,-9.741 h -11.359 c -0.939,0 -1.859,0.382 -2.522,1.046 -0.665,0.664 -1.044,1.582 -1.044,2.521 v 24.962 c 0,1.969 1.596,3.567 3.567,3.567 1.968,0 3.566,-1.599 3.566,-3.567 l 0,-9.048 h 1.203 l 9.633,11.355 c 0.706,0.831 1.71,1.259 2.722,1.259 0.814,0 1.634,-0.278 2.304,-0.847 1.503,-1.274 1.688,-3.524 0.413,-5.027 l -6.002,-7.072 z m -2.481,-12.016 c 1.439,0.002 2.605,1.168 2.608,2.607 -0.003,1.438 -1.168,2.605 -2.608,2.606 h -7.793 l 0,-5.214 h 7.793 z"
   id="path45"
   inkscape:connector-curvature="0"
   style="fill:#ffffff" />
</svg>