<?xml version="1.0" encoding="UTF-8" standalone="no"?>
<svg
   width="525pt"
   height="359.625pt"
   version="1.2"
   viewBox="0 0 525.00002 359.625"
   id="svg950"
   sodipodi:docname="Logo SC Paderborn 07.svg"
   inkscape:version="1.1.1 (c3084ef, 2021-09-22)"
   xmlns:inkscape="http://www.inkscape.org/namespaces/inkscape"
   xmlns:sodipodi="http://sodipodi.sourceforge.net/DTD/sodipodi-0.dtd"
   xmlns="http://www.w3.org/2000/svg"
   xmlns:svg="http://www.w3.org/2000/svg"
   xmlns:rdf="http://www.w3.org/1999/02/22-rdf-syntax-ns#"
   xmlns:cc="http://creativecommons.org/ns#"
   xmlns:dc="http://purl.org/dc/elements/1.1/">
  <sodipodi:namedview
     id="namedview952"
     pagecolor="#ffffff"
     bordercolor="#666666"
     borderopacity="1.0"
     inkscape:pageshadow="2"
     inkscape:pageopacity="0.0"
     inkscape:pagecheckerboard="0"
     inkscape:document-units="pt"
     showgrid="false"
     inkscape:zoom="0.79598188"
     inkscape:cx="322.24352"
     inkscape:cy="209.80377"
     inkscape:window-width="1440"
     inkscape:window-height="900"
     inkscape:window-x="0"
     inkscape:window-y="0"
     inkscape:window-maximized="0"
     inkscape:current-layer="svg950" />
  <metadata
     id="metadata824">
    <rdf:RDF>
      <cc:Work
         rdf:about="">
        <dc:format>image/svg+xml</dc:format>
        <dc:type
           rdf:resource="http://purl.org/dc/dcmitype/StillImage" />
        <dc:title />
      </cc:Work>
    </rdf:RDF>
  </metadata>
  <defs
     id="defs842" />
  <g
     id="g3371"
     transform="translate(0,-0.05883789)">
    <circle
       style="fill:#ffffff;fill-rule:evenodd;stroke-width:2.16451"
       id="path2020"
       cx="267.60007"
       cy="179.87134"
       r="179.8125" />
    <path
       style="color:#000000;fill:#ffffff;stroke-miterlimit:3.864;-inkscape-stroke:none"
       d="m 87.767578,191.34766 0.556641,4.94336 c 0.583985,5.19386 0.969778,8.27615 1.83789,13.51562 l 0.0059,0.0371 0.0059,0.0352 c 0.965614,5.29576 1.707415,8.396 2.964844,13.51757 l 0.832031,3.38672 H 97.457031 519.60547 L 525,191.34766 Z"
       id="path872"
       sodipodi:nodetypes="ccccccccccc" />
    <path
       id="path884"
       style="color:#000000;fill:#ffffff;stroke-width:1.33333;stroke-miterlimit:3.864;-inkscape-stroke:none"
       d="M 82.060547,167.27148 70.806641,196.3418 c 0.644203,-9.60915 -2.355348,-17.51479 -8.304688,-22.28516 -6.736032,-5.40117 -15.676617,-6.78816 -25.253906,-6.76758 H 13.837891 L 0,256.53906 h 32.416016 l 0.773437,-5.02929 3.164063,-20.58789 c 7.479996,-0.3542 14.485462,-2.01198 20.349609,-6.07032 1.679826,-1.16253 3.222159,-2.51853 4.630859,-4.04492 l -13.826172,35.71484 h 34.080079 l 2.980468,-10.20312 h 3.421875 v 10.20312 h 33.166016 l -0.33594,-6.24804 -4.46289,-83.00196 z"
       transform="scale(0.75)" />
    <path
       d="M 100.12452,230.4195 H 434.9963 C 411.79195,308.39063 339.33096,355.19901 267.66229,355.23036 194.16056,355.19901 123.35316,308.3922 100.11668,230.4195"
       fill="#1963b8"
       id="path916"
       style="stroke-width:7.83692" />
    <path
       d="m 97.459961,222.34747 c -1.255161,-5.11234 -1.959231,-8.05087 -2.908282,-13.25538 -0.857125,-5.17354 -1.22452,-8.11278 -1.806176,-13.28593 H 519.82653 l -4.04095,26.54131 z"
       fill="#141414"
       id="path918"
       style="stroke-width:7.83692" />
    <path
       d="M 113.60403,121.40788 H 102.82825 C 129.00201,47.140484 193.65821,4.5279917 267.67796,4.4339486 366.52509,4.5256406 447.52754,89.017874 442.8724,187.95904 H 432.31058 C 436.71885,94.895567 360.61526,15.178372 267.67247,15.241067 198.85487,15.178372 139.40553,53.201562 113.59854,121.40788"
       fill="#1961b5"
       id="path946"
       style="stroke-width:7.83692" />
  </g>
  <g
     id="g1411"
     transform="translate(0,-0.05883789)">
    <g
       id="g1140">
      <path
         d="m 33.118812,149.30733 c -0.5815,4.37771 -3.551145,6.76546 -7.622663,6.52056 l 2.020516,-13.25537 1.102028,-0.24452 c 3.704201,0.0627 5.173624,3.36737 4.500119,6.97972 m -12.582182,38.66426 2.908204,-19.10251 c 13.102554,0.39812 22.77567,-4.19401 24.980197,-19.3478 2.449039,-15.12291 -7.102213,-19.59231 -20.480235,-19.56174 H 14.230179 l -8.9999245,58.01205 z"
         id="path922"
         style="fill:#141411;fill-rule:evenodd;stroke-width:7.83692" />
      <path
         d="m 64.153033,168.19432 4.040875,-13.50067 c 1.193955,-3.61235 2.142928,-7.31647 3.153186,-11.02028 h 0.244512 c -0.306424,3.7042 -0.5815,7.40832 -0.703756,11.02028 l -0.428679,13.50067 z m 22.04135,19.80626 -3.153187,-58.04183 H 64.611885 l -22.500594,58.04183 h 15.734977 l 2.265341,-7.65323 H 70.4587 v 7.65323 z"
         id="path924"
         style="fill:#141411;fill-rule:evenodd;stroke-width:7.83692" />
      <path
         d="m 112.97707,144.2917 c 6.94908,0.0314 6.79603,8.78598 5.84705,15.06179 -0.8572,5.47973 -3.42865,14.41837 -10.34709,14.41837 z m -20.939477,43.62346 h 13.285937 c 9.21466,-0.0917 25.92925,-2.54089 29.90884,-29.23565 2.81636,-17.60251 -4.77567,-28.80697 -22.04135,-28.7764 h -12.36745 z"
         id="path926"
         style="fill:#141411;fill-rule:evenodd;stroke-width:7.83692" />
      <path
         d="m 137.27154,187.94337 h 28.10242 l 2.26535,-13.71462 h -13.07199 l 1.34693,-9.03049 h 11.72482 l 2.02044,-13.4701 h -11.69426 l 1.34701,-8.11279 h 13.04143 l 2.02043,-13.71461 H 146.0264 Z"
         id="path928"
         style="fill:#141411;fill-rule:evenodd;stroke-width:7.83692" />
      <path
         d="m 194.40272,156.67404 2.23477,-14.38781 c 4.19393,-0.18338 6.82667,1.95923 6.09196,6.97972 -0.61207,3.82662 -3.33681,7.43897 -7.43897,7.40833 z m 20.02099,31.25601 -7.65323,-24.27644 c 6.45927,-2.4184 10.04067,-8.08144 11.02028,-14.38781 2.32655,-15.36743 -6.6124,-19.37758 -19.80704,-19.3478 h -14.60254 l -8.99992,58.01205 h 15.30629 l 2.2347,-15.52103 c 0.52037,-2.87764 0.796,-5.69408 1.13275,-8.54068 l 0.21395,-0.21395 4.71438,24.27644 z"
         id="path930"
         style="fill:#141411;fill-rule:evenodd;stroke-width:7.83692" />
      <path
         d="m 240.01362,152.4421 1.56127,-9.88784 h 1.56127 c 3.0307,-0.12226 5.14298,1.34693 4.50012,4.71438 -0.48981,3.85725 -3.58171,5.17362 -6.7349,5.17362 z m -3.61228,22.92928 1.8061,-11.23502 h 1.13275 c 3.58171,0.0627 6.24501,1.68376 5.63279,5.60223 -0.61207,3.91846 -3.85726,5.60214 -7.22471,5.63279 z m -17.08214,12.61274 h 20.44967 c 13.59236,-0.12225 19.22476,-9.48973 20.2655,-16.65346 1.25516,-7.74508 -1.98987,-12.52027 -9.24522,-13.04143 v -0.24451 c 6.33694,0 11.20445,-5.08178 12.1535,-11.69426 1.98988,-12.42858 -7.83692,-16.43873 -16.86741,-16.40895 h -17.75533 z"
         id="path932"
         style="fill:#141411;fill-rule:evenodd;stroke-width:7.83692" />
      <path
         d="m 282.95996,158.94675 c 0.67319,-3.67356 2.69394,-15.4599 8.54068,-15.52103 5.63279,0.0627 4.04088,11.84708 3.58171,15.52103 -0.64263,3.55107 -2.69394,15.3063 -8.29617,15.27573 -5.87769,0.0314 -4.28578,-11.72482 -3.82661,-15.27573 m -15.3063,0 c -2.26542,14.08217 1.31637,29.87827 16.86742,29.87827 15.33686,0 23.81719,-15.7961 25.86812,-29.87827 2.26534,-14.23499 -1.31637,-30.06166 -16.86742,-30.15413 -15.33686,0.0917 -23.78663,15.91836 -25.86812,30.15413"
         id="path934"
         style="fill:#141411;fill-rule:evenodd;stroke-width:7.83692" />
      <path
         d="m 333.35139,156.67404 2.23477,-14.38781 c 4.16337,-0.18338 6.82667,1.95923 6.09196,6.97972 -0.61207,3.82662 -3.33681,7.43897 -7.43897,7.40833 z m 20.02099,31.25601 -7.65331,-24.27644 c 6.45935,-2.4184 10.01089,-8.08144 11.02028,-14.38781 2.32663,-15.36743 -6.6124,-19.37758 -19.80625,-19.3478 h -14.60255 l -8.99992,58.01205 h 15.3063 l 2.2347,-15.52103 c 0.4898,-2.87764 0.79599,-5.69408 1.13267,-8.54068 l 0.21394,-0.21395 4.71439,24.27644 z"
         id="path936"
         style="fill:#141411;fill-rule:evenodd;stroke-width:7.83692" />
      <path
         d="m 358.35117,187.94337 h 14.63311 l 2.69394,-17.11271 c 0.79592,-5.44909 0.94898,-10.8369 1.34693,-16.19422 l 0.24452,-0.21395 6.27565,33.52088 h 14.6331 l 8.75542,-58.04183 h -14.63311 l -2.23478,14.84705 c -1.01018,6.58185 -0.91833,13.16369 -1.34693,19.80705 l -0.24451,0.21394 -6.7349,-34.86804 H 367.3518 Z"
         id="path938"
         style="fill:#141411;fill-rule:evenodd;stroke-width:7.83692" />
    </g>
    <g
       id="g1144">
      <path
         style="fill:#141411;fill-rule:evenodd;stroke-width:7.83692"
         d="m 229.50508,98.419048 c 3.91847,1.653122 8.29617,2.571532 12.61275,2.479682 11.72482,0.0917 19.83682,-9.459168 19.7757,-21.368159 0.0627,-4.867435 -1.01026,-8.296168 -2.93885,-11.235014 -1.95923,-2.846998 -4.77567,-5.234831 -8.29617,-7.867489 -0.94897,-0.703756 -2.20413,-1.561194 -3.15311,-2.479603 -0.8572,-1.13267 -1.59191,-2.326626 -1.56127,-3.581709 -0.0314,-2.57153 2.35719,-4.040954 4.25522,-4.071518 3.97966,0.03135 8.0203,3.704123 9.88784,6.979722 V 37.713213 c -3.42865,-1.959231 -7.80636,-3.245035 -11.9082,-3.153187 -14.35725,-0.09169 -18.98025,13.561798 -18.88856,21.153427 -0.0917,4.62261 1.22452,8.204476 3.36745,11.235015 2.08164,3.000053 4.95928,5.479656 8.32673,8.081436 1.01018,0.826482 2.02044,1.591836 2.69394,2.479603 0.88777,0.979615 1.40814,2.081722 1.34694,3.612352 0.0627,2.816355 -2.6021,4.285779 -4.92865,4.285779 -4.28585,0 -8.32673,-3.58171 -10.59238,-7.193983 z"
         id="path1111" />
      <path
         style="fill:#141411;fill-rule:evenodd;stroke-width:7.83692"
         d="m 301.69021,35.907037 c -2.75515,-1.010258 -5.66343,-1.438859 -8.51011,-1.347011 -8.32674,-0.09169 -27.52093,4.775665 -27.4598,33.521661 -0.0627,22.102478 11.69425,32.908813 25.40887,32.817123 3.82669,0.0917 6.88795,-0.67319 10.37766,-2.23478 l 0.88776,-18.000631 c -2.7245,2.602094 -5.11234,4.132723 -8.99992,4.040875 -8.3573,0.09169 -10.53126,-9.459168 -10.59239,-16.867413 0.0627,-7.163497 2.23478,-17.143272 11.02029,-17.082144 3.45929,-0.06269 5.44917,1.285726 7.86748,3.612352 z"
         id="path940" />
    </g>
    <g
       id="g1191">
      <path
         style="fill:#ffffff;stroke-width:7.83692"
         d="m 265.87108,250.86619 v 14.84706 h 21.15342 l -20.2655,42.98082 -2.9082,6.48992 h 18.21458 l 2.69394,-6.48992 25.40888,-57.82788 z"
         id="path1150" />
      <path
         id="path1148"
         style="fill:#ffffff;stroke-width:10.4492"
         d="m 319.39062,333.01953 c -23.26626,-0.0417 -29.55157,25.3057 -29.67382,44.36719 0.12226,11.38757 2.40858,25.18529 9.30664,34.20508 4.53078,6.08176 11.06109,10.08246 20.36718,10.16406 9.06147,-0.0836 15.63301,-4.0823 20.12305,-10.16406 6.93902,-9.02062 9.22488,-22.81751 9.26563,-34.20508 -0.0417,-19.06149 -6.32495,-44.40794 -29.38672,-44.36719 z m 0,19.79492 c 6.73485,-0.0417 7.143,14.85762 7.22461,24.57227 -0.0836,9.63293 -0.48997,24.53179 -7.22461,24.61328 -6.93891,-0.0836 -7.38713,-14.98013 -7.46874,-24.61328 0.0836,-9.71455 0.53004,-24.61303 7.46874,-24.57227 z"
         transform="scale(0.75)" />
    </g>
  </g>
</svg>
