<?xml version="1.0" encoding="UTF-8" standalone="no"?>
<svg
   xmlns:dc="http://purl.org/dc/elements/1.1/"
   xmlns:cc="http://creativecommons.org/ns#"
   xmlns:rdf="http://www.w3.org/1999/02/22-rdf-syntax-ns#"
   xmlns:svg="http://www.w3.org/2000/svg"
   xmlns="http://www.w3.org/2000/svg"
   viewBox="0 0 523.4197 699.99981"
   height="699.99982"
   width="523.41968"
   xml:space="preserve"
   id="svg833"
   version="1.1"><metadata
     id="metadata839"><rdf:RDF><cc:Work
         rdf:about=""><dc:format>image/svg+xml</dc:format><dc:type
           rdf:resource="http://purl.org/dc/dcmitype/StillImage" /><dc:title></dc:title></cc:Work></rdf:RDF></metadata><defs
     id="defs837" /><g
     transform="matrix(1.3333333,0,0,-1.3333333,-1050.9734,227.43522)"
     id="g841"><g
       id="g16995"><path
         id="path5859"
         style="fill:#1e3a62;fill-opacity:1;fill-rule:nonzero;stroke:none;stroke-width:5.14031"
         d="m 1180.7948,-106.10027 c 0,-27.14082 -4.0403,-54.29191 -13.7349,-82.029 -9.6843,-27.70111 -24.9973,-55.95737 -47.5427,-85.32908 l -0.01,0.005 c -3.516,-4.63142 -7.8852,-9.54555 -12.897,-14.56249 -5.0272,-5.03236 -10.7021,-10.17267 -16.8191,-15.25129 -31.582,-26.20528 -75.5882,-51.15632 -105.073,-51.15632 h -0.005 v 0.005 c -10.32688,0.005 -22.41688,3.03792 -35.12371,8.10112 -6.20435,2.47249 -12.51665,5.4076 -18.81352,8.68712 -32.50216,16.94245 -65.61601,43.57951 -81.26824,64.17672 -22.34491,29.38199 -37.65788,57.63311 -47.38848,85.32394 -9.74088,27.73195 -13.88911,54.88304 -13.88911,82.029 v 274.79048 1.88649 h 1.88649 388.74587 1.8814 v -1.88649 l 0.041,-274.79048 z" /><path
         id="path5863"
         style="fill:#ffffff;fill-opacity:1;fill-rule:nonzero;stroke:none;stroke-width:5.14031"
         d="m 1163.5064,-186.89149 c 9.5404,27.28989 13.5139,54.0349 13.5139,80.79019 h 0.01 l -0.041,272.90399 H 792.00624 V -106.1013 c 0,-26.75529 4.08141,-53.49516 13.67322,-80.79019 9.60209,-27.33615 24.73515,-55.24287 46.82304,-84.29074 15.3541,-20.2014 47.94878,-46.38612 80.01915,-63.10239 6.26089,-3.25896 12.4601,-6.14781 18.45884,-8.53805 12.29047,-4.90385 23.9127,-7.83383 33.74096,-7.83383 v 0.005 0 c 28.56985,0 71.62505,24.52954 102.67245,50.28762 6.0604,5.03236 11.6428,10.08528 16.5518,14.99941 4.9193,4.92441 9.1755,9.71004 12.5681,14.17182 v 0 l 0.01,0.005 0.01,0.0154 c 22.2987,29.04787 37.4317,56.9546 46.9824,84.28046" /><path
         id="path5867"
         style="fill:#1e3a62;fill-opacity:1;fill-rule:nonzero;stroke:none;stroke-width:5.14031"
         d="M 800.03077,158.02818 V -70.273366 l 27.80392,13.0975 c 0,0 12.92787,-9.293673 29.49508,-9.833405 13.77602,-0.447207 21.59956,3.716441 25.28516,8.157665 1.05376,1.125727 2.00472,3.084184 2.02528,3.125306 h -0.0154 c 0.46777,1.136008 0.72992,2.369681 0.72992,3.665038 0,5.494988 -4.61599,9.946493 -10.31659,9.946493 -5.7006,0 -10.32174,-4.451505 -10.32174,-9.946493 0,-3.449145 1.82995,-6.492206 4.60058,-8.270752 l -0.0617,-0.03084 c 0,0 -5.18657,-2.097245 -10.65072,-1.552372 -5.459,0.550013 -11.10306,2.004719 -19.66167,6.918852 -8.55347,4.914132 -10.19837,7.463724 -10.19837,7.463724 0,0 -3.54681,32.137193 16.93731,50.4315422 20.76684,18.5513648 44.05242,24.0309308 69.53806,22.9360458 25.49078,-1.094886 41.69302,-8.008597 61.35469,-21.4813392 19.65653,-13.4727421 29.66982,-18.9317468 46.97212,-20.5715048 17.292,-1.639757 33.4942,7.6487755 53.8858,0.550013 20.3865,-7.103903 24.3908,-14.022755 24.3908,-14.022755 0,0 -27.1254,-5.823967 -19.6617,-32.224578 7.4637,-26.395472 23.3062,-42.232754 44.4225,-53.705924 11.0466,-5.99873 28.1278,-7.58709 41.9038,-7.73616 v 281.38549 z" /><path
         id="path5871"
         style="fill:#396dbe;fill-opacity:1;fill-rule:nonzero;stroke:none;stroke-width:5.14031"
         d="m 857.3457,-263.94416 c 23.4912,-30.9138 88.86561,-76.3284 127.22771,-76.3284 38.36209,0 103.34589,45.4146 126.83189,76.3284 18.9215,24.64777 32.4456,48.45252 41.6468,71.78437 -5.0684,-0.0822 -10.7278,-0.072 -17.0915,0.0771 -45.3324,1.10002 -89.5236,47.51699 -120.9771,53.25871 -23.33702,4.25103 -32.64612,-4.67768 -37.13361,-13.6578 -5.19171,-10.37827 -0.54487,-21.29628 -0.54487,-21.29628 0,0 -26.71417,0.24673 -49.20301,36.31626 -19.07053,30.57968 -26.9866,38.773327 -45.83097,41.230393 -18.00135,2.34912 -22.66361,-2.18463 -64.99403,6.281454 -7.16558,1.434145 -12.80964,2.616416 -17.24572,3.593074 v -36.696641 c 3.23839,-45.5791 19.77476,-91.53343 57.31441,-140.89065" /><path
         id="path5875"
         style="fill:#1e3a62;fill-opacity:1;fill-rule:nonzero;stroke:none;stroke-width:5.14031"
         d="m 1162.1561,-162.10699 c 0.3341,1.33648 0.6528,2.67296 0.9561,4.01458 -6.0913,-0.072 -18.0117,1.12059 -36.3831,8.61515 -28.1226,11.46803 -69.5843,45.71274 -82.1524,53.793306 -19.1116,12.290471 -67.21976,36.593838 -101.35139,40.140649 -26.78614,2.786046 -30.8624,0.822449 -30.8624,0.822449 v -3.274375 c 0,0 11.93579,1.629477 33.04703,-4.3744 27.85017,-7.916071 58.70746,-25.937984 91.75446,-48.061859 19.0089,-12.72226 63.8991,-40.41309 91.7493,-46.96698 16.67,-3.92205 27.3362,-4.70852 33.2424,-4.70852" /></g><g
       id="g16984"><g
         id="g16950"><path
           d="m 826.57634,123.9495 c 0.72479,0.21589 1.45471,0.38038 2.18463,0.38038 2.2566,0 4.13281,-1.19255 4.13281,-4.75992 0,-6.43567 -3.75242,-6.86745 -6.31744,-6.86745 z m -6.92913,-32.22458 h 6.92913 v 15.1382 h 4.06084 c 6.16323,0 9.64836,5.73144 9.64836,13.51901 0,7.67447 -3.09961,10.43482 -8.27075,10.43482 h -12.36758 z"
           style="fill:#ffffff;fill-opacity:1;fill-rule:nonzero;stroke:none;stroke-width:5.14031"
           id="path5879" /><path
           d="m 842.88962,130.81695 h 18.91632 v -6.48707 h -11.52456 v -9.51985 h 9.45816 v -5.83424 h -9.45816 V 98.211986 h 12.44468 V 91.72492 h -19.83644 z"
           style="fill:#ffffff;fill-opacity:1;fill-rule:nonzero;stroke:none;stroke-width:5.14031"
           id="path5883" /><path
           d="m 864.29437,99.564915 c 2.37482,-1.351901 4.93983,-2.328559 7.50484,-2.328559 1.95332,0 4.59544,0.760765 4.59544,4.271594 0,6.32772 -12.32646,6.98054 -12.32646,19.30699 0,7.83897 4.97582,10.97455 9.83855,10.97455 2.7552,0 5.51555,-0.48319 8.23477,-1.18741 v -7.40718 c -2.26174,1.13087 -4.67254,2.10753 -7.08848,2.10753 -1.45471,0 -3.59822,-0.81217 -3.59822,-3.35148 0,-5.89593 12.78908,-6.65156 12.78908,-19.41494 0,-3.942613 -1.4547,-11.78672 -11.33437,-11.78672 -3.56223,0 -6.58473,0.488329 -8.61515,0.976658 z"
           style="fill:#ffffff;fill-opacity:1;fill-rule:nonzero;stroke:none;stroke-width:5.14031"
           id="path5895" /><path
           d="m 909.55836,122.97747 c -2.64212,1.4033 -5.39732,2.32341 -8.23477,2.32341 -6.69782,0 -8.80535,-6.7595 -8.80535,-13.7863 0,-8.75908 3.25382,-14.274626 9.57125,-14.274626 2.64212,0 5.51555,1.187411 7.92636,2.811746 v -7.191286 c -3.14073,-1.459847 -6.50763,-2.107526 -10.33716,-2.107526 -9.00068,0 -15.00969,7.515127 -15.00969,20.489262 0,12.97927 6.00901,20.55094 15.00969,20.55094 3.67532,0 6.85717,-0.38038 9.87967,-1.3005 z"
           style="fill:#ffffff;fill-opacity:1;fill-rule:nonzero;stroke:none;stroke-width:5.14031"
           id="path5899" /><path
           d="m 918.97746,107.83721 3.75242,13.84284 3.75242,-13.84284 z M 909.6735,91.72235 h 4.93984 l 2.71922,9.95163 h 10.83576 l 2.6781,-9.95163 h 7.43288 l -10.60959,39.09717 h -7.39176 z"
           style="fill:#ffffff;fill-opacity:1;fill-rule:nonzero;stroke:none;stroke-width:5.14031"
           id="path5903" /><path
           d="m 947.00806,124.32782 h 2.26173 c 3.2898,0 4.13281,-1.78368 4.13281,-4.43608 0,-2.86315 -1.3776,-6.70296 -3.94262,-6.70296 h -2.45192 z m -6.92913,-32.604956 h 6.92913 v 15.626526 h 2.60613 l 5.97304,-15.626526 h 8.91843 l -8.88245,18.170986 c 2.98652,1.99957 5.17115,6.37912 5.17115,11.1339 0,7.03194 -4.09683,9.78714 -7.54597,9.78714 h -13.16946 z"
           style="fill:#ffffff;fill-opacity:1;fill-rule:nonzero;stroke:none;stroke-width:5.14031"
           id="path5915" /><path
           d="m 972.85609,107.83721 3.75242,13.84284 3.75242,-13.84284 z m -9.30396,-16.11486 h 4.93984 l 2.71922,9.95163 h 10.83576 l 2.68324,-9.95163 h 7.42775 l -10.6096,39.09717 h -7.39176 z"
           style="fill:#ffffff;fill-opacity:1;fill-rule:nonzero;stroke:none;stroke-width:5.14031"
           id="path5919" /><path
           d="m 1028.2285,122.97747 c -2.6421,1.4033 -5.3973,2.32341 -8.2348,2.32341 -6.6978,0 -8.8053,-6.7595 -8.8053,-13.7863 0,-8.75908 3.2538,-14.274626 9.5712,-14.274626 2.6421,0 5.5156,1.187411 7.9315,2.811746 v -7.191286 c -3.1458,-1.459847 -6.5127,-2.107526 -10.3423,-2.107526 -9.0007,0 -15.0097,7.515127 -15.0097,20.489262 0,12.97927 6.009,20.55094 15.0097,20.55094 3.6753,0 6.8572,-0.38038 9.8797,-1.3005 z"
           style="fill:#ffffff;fill-opacity:1;fill-rule:nonzero;stroke:none;stroke-width:5.14031"
           id="path5931" /><path
           d="m 1037.6491,107.83721 3.7525,13.84284 3.7524,-13.84284 z M 1028.34,91.72235 h 4.9399 l 2.7243,9.95163 h 10.8307 l 2.6832,-9.95163 h 7.4277 l -10.6044,39.09717 h -7.3918 z"
           style="fill:#ffffff;fill-opacity:1;fill-rule:nonzero;stroke:none;stroke-width:5.14031"
           id="path5935" /><path
           d="m 1058.748,130.81695 h 7.3918 V 98.211986 h 12.4447 V 91.72492 h -19.8365 z"
           style="fill:#ffffff;fill-opacity:1;fill-rule:nonzero;stroke:none;stroke-width:5.14031"
           id="path5939" /><path
           d="m 1103.628,122.97747 c -2.6421,1.4033 -5.4024,2.32341 -8.2347,2.32341 -6.703,0 -8.8054,-6.7595 -8.8054,-13.7863 0,-8.75908 3.2538,-14.274626 9.5713,-14.274626 2.6421,0 5.5155,1.187411 7.9263,2.811746 v -7.191286 c -3.1407,-1.459847 -6.5076,-2.107526 -10.3371,-2.107526 -9.0007,0 -15.0097,7.515127 -15.0097,20.489262 0,12.97927 6.009,20.55094 15.0097,20.55094 3.6753,0 6.852,-0.38038 9.8796,-1.3005 z"
           style="fill:#ffffff;fill-opacity:1;fill-rule:nonzero;stroke:none;stroke-width:5.14031"
           id="path5951" /><path
           id="path5953"
           style="fill:#ffffff;fill-opacity:1;fill-rule:nonzero;stroke:none;stroke-width:5.14031"
           d="m 1106.4619,130.81798 h 7.3918 V 91.725948 h -7.3918 z" /><path
           d="m 1124.382,111.24369 c 0,6.27117 1.9174,14.05874 7.1605,14.05874 5.2071,0 7.1244,-7.78757 7.1244,-14.05874 0,-6.27117 -1.9173,-14.002194 -7.1244,-14.002194 -5.2431,0 -7.1605,7.731024 -7.1605,14.002194 m -7.8492,0 c 0,-12.974132 6.0141,-20.4944 15.0097,-20.4944 9.0006,0 14.9737,7.520268 14.9737,20.4944 0,12.97927 -5.9731,20.5458 -14.9737,20.5458 -8.9956,0 -15.0097,-7.56653 -15.0097,-20.5458"
           style="fill:#ffffff;fill-opacity:1;fill-rule:nonzero;stroke:none;stroke-width:5.14031"
           id="path5965" /></g><g
         id="g16956"><path
           d="m 943.48489,-221.6965 h -3.67532 v 5.24825 l 11.06708,1.6192 v -40.06355 h -7.39176 z"
           style="fill:#1e3a62;fill-opacity:1;fill-rule:nonzero;stroke:none;stroke-width:5.14031"
           id="path5969" /><path
           d="m 968.87286,-220.66844 c 2.79633,0 3.98374,-3.99916 3.98374,-7.40718 0,-3.30008 -1.3005,-7.08848 -3.94261,-7.08848 -2.87344,0 -3.90664,4.11224 -3.90664,7.52027 0,3.56737 1.0332,6.97539 3.86551,6.97539 m 4.44123,-16.33075 c -0.072,-3.56737 -1.14629,-13.03068 -7.16045,-13.03068 -2.4108,0 -4.86273,0.92012 -7.04736,2.37997 v -6.86231 c 2.68324,-0.86872 5.43845,-1.35704 8.19879,-1.35704 9.38106,0 13.40078,10.54276 13.40078,21.25002 0,11.89467 -4.17393,19.79018 -12.13626,19.79018 -8.2759,0 -10.954,-8.86703 -10.954,-13.95079 0,-7.08334 3.82953,-12.21851 8.80535,-12.21851 2.41594,0 5.21227,1.18741 6.43566,3.99916 z"
           style="fill:#1e3a62;fill-opacity:1;fill-rule:nonzero;stroke:none;stroke-width:5.14031"
           id="path5981" /><path
           d="m 986.26046,-237.42995 v 5.83939 h 2.601 c 4.13794,0 6.39454,2.21547 6.39454,6.37912 0,3.30008 -2.02528,4.54403 -4.24589,4.54403 -2.37483,0 -4.74965,-0.76077 -6.93428,-2.22061 v 6.11182 c 2.76035,1.24396 5.62864,1.94818 8.53805,1.94818 5.66976,0 10.03392,-2.86829 10.03392,-9.40676 0,-5.3562 -2.87347,-8.65114 -6.2815,-9.84369 v -0.10795 c 3.6753,-0.86357 7.582,-4.91927 7.582,-10.54276 0,-4.22019 -1.758,-11.13905 -11.60172,-11.13905 -2.90941,0 -5.81882,0.32384 -8.65113,1.29536 v 6.87259 c 2.4108,-1.35704 4.93983,-2.32856 7.50485,-2.32856 2.36968,0 4.89871,1.51125 4.89871,5.3562 0,5.13517 -3.48513,7.24269 -7.35064,7.24269 z"
           style="fill:#1e3a62;fill-opacity:1;fill-rule:nonzero;stroke:none;stroke-width:5.14031"
           id="path5985" /><path
           d="m 1017.5439,-250.02884 c -2.7964,0 -3.9786,3.99916 -3.9786,7.40718 0,3.30008 1.3005,7.08334 3.9426,7.08334 2.8683,0 3.9066,-4.1071 3.9066,-7.51512 0,-3.56738 -1.0383,-6.9754 -3.8706,-6.9754 m -4.4413,16.33075 c 0.077,3.56738 1.1515,13.03068 7.1605,13.03068 2.4159,0 4.8627,-0.92012 7.0473,-2.37996 v 6.86745 c -2.6832,0.86357 -5.4384,1.3519 -8.1936,1.3519 -9.3862,0 -13.4059,-10.54791 -13.4059,-21.25003 0,-11.89981 4.1739,-19.79018 12.1362,-19.79018 8.2759,0 10.954,8.86703 10.954,13.95079 0,7.08335 -3.8295,12.21851 -8.8053,12.21851 -2.4108,0 -5.2072,-1.18741 -6.4305,-3.99916 z"
           style="fill:#1e3a62;fill-opacity:1;fill-rule:nonzero;stroke:none;stroke-width:5.14031"
           id="path5989" /></g><path
         id="path5993"
         style="fill:#ffffff;fill-opacity:1;fill-rule:nonzero;stroke:none;stroke-width:5.14031"
         d="m 1144.3043,-106.00826 c -4.5183,0 -8.1217,3.60336 -8.1217,8.121684 0,4.487488 3.6034,8.095982 8.1217,8.095982 4.4875,0 8.096,-3.608494 8.096,-8.095982 0,-4.518324 -3.6085,-8.121684 -8.096,-8.121684 m 0,-1.88135 c 5.4847,0 9.9773,4.49263 9.9773,10.003034 0,5.479567 -4.4926,9.972194 -9.9773,9.972194 -5.5361,0 -9.9979,-4.492627 -9.9979,-9.972194 0,-5.510404 4.4618,-10.003034 9.9979,-10.003034 m 2.3543,9.113762 c 1.9019,0.128507 2.9197,0.940676 2.9197,2.924834 0,1.120586 -0.2879,2.169209 -1.2543,2.796326 -0.807,0.467768 -2.0098,0.493469 -2.9197,0.493469 h -5.2225 v -10.758661 h 2.1127 v 4.544032 h 2.1126 l 2.4057,-4.544032 h 2.4519 z m -4.3641,1.619196 v 3.053342 h 2.6112 c 1.0435,0 2.5856,0 2.5856,-1.434146 0,-1.35704 -0.8327,-1.644898 -2.0356,-1.619196 z" /></g></g></svg>
