<?xml version="1.0" encoding="utf-8"?>
<!-- Generator: Adobe Illustrator 19.1.0, SVG Export Plug-In . SVG Version: 6.00 Build 0)  -->
<svg version="1.1" id="Livello_1" xmlns="http://www.w3.org/2000/svg" xmlns:xlink="http://www.w3.org/1999/xlink" x="0px" y="0px"
	 viewBox="-156 279.9 283 283" enable-background="new -156 279.9 283 283" xml:space="preserve">
<g>
	<polygon fill-rule="evenodd" clip-rule="evenodd" fill="#ED3024" points="127,421.4 -14.5,279.9 -156,421.4 -14.5,562.8 127,421.4 
			"/>
	<polygon fill="none" stroke="#FFFFFF" stroke-width="1.0001" stroke-miterlimit="2.6131" points="114.3,421.4 -14.5,292.6 
		-143.3,421.4 -14.5,550.1 114.3,421.4 	"/>
	<polygon fill-rule="evenodd" clip-rule="evenodd" fill="#FFFFFF" points="120.7,421.4 -14.5,286.2 -149.7,421.4 -14.5,556.5 
		120.7,421.4 	"/>
	<path fill-rule="evenodd" clip-rule="evenodd" fill="#ED3024" d="M18.8,486.7c-1.9-0.1-3.7,0.2-5.2,0.7c-1.5,0.6-2.9,1.5-4.2,2.7
		c-1,1-1.8,2.2-2.4,3.6c-0.6,1.4-0.8,2.8-0.8,4.3c0,1.5,0.3,2.9,0.9,4.2c0.6,1.3,1.4,2.5,2.6,3.7c0.9,0.9,1.8,1.6,2.8,2.2
		c1,0.5,2,0.9,3.1,1.1c1.9,0.3,3.7,0.2,5.4-0.3c1.7-0.5,3.2-1.5,4.6-2.8c1.2-1.2,2.1-2.6,2.7-4.2c0.5-1.6,0.7-3.3,0.6-5.2l3,3
		c-0.3,1.7-0.8,3.2-1.5,4.7c-0.7,1.5-1.7,2.8-2.9,4c-1,1-2.2,1.9-3.4,2.5c-1.3,0.7-2.6,1.1-4,1.4c-2.4,0.4-4.7,0.3-6.8-0.4
		c-2.2-0.7-4.1-1.9-5.8-3.6c-1.5-1.5-2.6-3.1-3.3-4.8C3.3,501.9,3,500,3,498c0-1.9,0.4-3.7,1.1-5.4c0.7-1.7,1.8-3.2,3.2-4.6
		c1.1-1.1,2.4-2,3.8-2.7c1.4-0.7,2.9-1.2,4.7-1.5L18.8,486.7L18.8,486.7z M28.5,476.4l4,10.2l6.1-6.1L28.5,476.4L28.5,476.4z
		 M23.4,471.3l28.9,11.3l-2.5,2.5l-8.4-3.4l-7.5,7.5l3.4,8.4l-2.5,2.5L23.4,471.3L23.4,471.3z M54.3,480.6L35,461.3l2.3-2.3
		l17.1,17.1l7.3-7.3l2.2,2.2L54.3,480.6L54.3,480.6z M67.6,437.9c-1.9-0.1-3.7,0.2-5.2,0.7c-1.5,0.6-2.9,1.5-4.2,2.7
		c-1,1-1.8,2.2-2.4,3.6c-0.6,1.4-0.8,2.8-0.8,4.3c0,1.5,0.3,2.9,0.9,4.2c0.6,1.3,1.4,2.5,2.6,3.7c0.9,0.9,1.8,1.6,2.8,2.2
		c1,0.5,2,0.9,3.1,1.1c1.9,0.3,3.7,0.2,5.4-0.3c1.7-0.5,3.2-1.5,4.6-2.8c1.2-1.2,2.1-2.6,2.7-4.2c0.5-1.6,0.7-3.3,0.6-5.2l3,3
		c-0.3,1.7-0.8,3.2-1.5,4.7c-0.7,1.5-1.7,2.8-2.9,4c-1,1-2.2,1.9-3.4,2.5c-1.3,0.7-2.6,1.1-4,1.4c-2.4,0.4-4.7,0.3-6.8-0.4
		c-2.2-0.7-4.1-1.9-5.8-3.6c-1.5-1.5-2.6-3.1-3.3-4.8c-0.7-1.7-1.1-3.6-1-5.6c0-1.9,0.4-3.7,1.1-5.4c0.7-1.7,1.8-3.2,3.2-4.6
		c1.1-1.1,2.4-2,3.8-2.7c1.4-0.7,2.9-1.2,4.7-1.5L67.6,437.9L67.6,437.9z M86.2,448.7l-19.3-19.3l2.3-2.3l19.3,19.3L86.2,448.7
		L86.2,448.7z M101,430.6c1.1-1.1,1.9-2.3,2.4-3.6c0.6-1.4,0.8-2.8,0.8-4.3c0-1.5-0.3-2.9-0.8-4.3c-0.6-1.4-1.4-2.6-2.5-3.6
		c-1.1-1.1-2.3-1.9-3.7-2.5c-1.4-0.6-2.8-0.9-4.3-0.9c-1.5,0-2.9,0.3-4.3,0.8c-1.4,0.6-2.6,1.4-3.6,2.4c-1.1,1.1-1.9,2.3-2.5,3.6
		c-0.6,1.4-0.8,2.8-0.8,4.3c0,1.5,0.3,3,0.9,4.3c0.6,1.4,1.4,2.6,2.5,3.7c1.1,1.1,2.3,1.9,3.6,2.4c1.3,0.6,2.8,0.8,4.3,0.9
		c1.5,0,3-0.3,4.3-0.8C98.7,432.5,99.9,431.7,101,430.6L101,430.6z M103.3,412.3c1.4,1.4,2.4,2.9,3.1,4.7c0.7,1.7,1.1,3.6,1,5.5
		c0,1.9-0.4,3.8-1.2,5.6c-0.8,1.8-1.8,3.4-3.2,4.7c-1.4,1.4-2.9,2.4-4.7,3.2c-1.8,0.7-3.6,1.1-5.6,1.2c-1.9,0-3.8-0.3-5.5-1
		c-1.7-0.7-3.3-1.7-4.7-3.1c-1.4-1.4-2.4-2.9-3.1-4.7c-0.7-1.7-1.1-3.6-1-5.5c0-1.9,0.4-3.8,1.2-5.5c0.8-1.8,1.8-3.4,3.2-4.7
		c1.4-1.4,2.9-2.4,4.7-3.2c1.8-0.8,3.6-1.2,5.5-1.2c1.9,0,3.8,0.3,5.5,1C100.4,409.9,102,410.9,103.3,412.3L103.3,412.3z
		 M-130.9,416.5l-8.7,8.7l-2.2-2.2l19.3-19.3l4,4c1.4,1.4,2.4,2.5,2.9,3.3c0.5,0.8,0.9,1.6,1,2.5c0.2,1.1,0.1,2.1-0.4,3.3
		c-0.4,1.1-1.1,2.1-2,3.1c-0.9,0.9-2,1.6-3.1,2c-1.1,0.4-2.2,0.5-3.3,0.4c-0.8-0.1-1.7-0.5-2.5-1c-0.8-0.5-1.9-1.5-3.4-2.9l-0.6-0.6
		L-130.9,416.5L-130.9,416.5z M-128.8,414.4l1.2,1.2c2,2,3.5,3.1,4.7,3.3c1.1,0.2,2.3-0.2,3.4-1.4c1.2-1.2,1.7-2.4,1.5-3.6
		c-0.2-1.2-1.3-2.8-3.2-4.7l-1.2-1.2L-128.8,414.4L-128.8,414.4z M-127.6,437.2l19.3-19.3l2.3,2.3l-19.3,19.3L-127.6,437.2
		L-127.6,437.2z M-99,435.7l-10.2,4l6.1,6.1L-99,435.7L-99,435.7z M-93.9,430.6l-11.3,28.9l-2.5-2.5l3.4-8.4l-7.5-7.5l-8.4,3.4
		l-2.5-2.5L-93.9,430.6L-93.9,430.6z M-72.9,462.5c0.1-1.9-0.2-3.7-0.7-5.2c-0.6-1.5-1.5-2.9-2.7-4.2c-1-1-2.2-1.8-3.6-2.4
		c-1.4-0.6-2.8-0.8-4.3-0.8c-1.5,0-2.9,0.3-4.2,0.9c-1.3,0.6-2.5,1.4-3.7,2.6c-0.9,0.9-1.6,1.8-2.2,2.8c-0.5,1-0.9,2-1.1,3.1
		c-0.3,1.9-0.2,3.7,0.3,5.4c0.5,1.7,1.5,3.2,2.8,4.6c1.2,1.2,2.6,2.1,4.2,2.7c1.6,0.5,3.3,0.7,5.2,0.6l-3,3
		c-1.7-0.3-3.2-0.8-4.7-1.5c-1.5-0.7-2.8-1.7-4-2.9c-1-1-1.9-2.2-2.5-3.4c-0.7-1.3-1.1-2.6-1.4-4c-0.4-2.4-0.3-4.7,0.4-6.8
		c0.7-2.2,1.9-4.1,3.6-5.8c1.5-1.5,3.1-2.6,4.8-3.3c1.7-0.7,3.6-1.1,5.6-1c1.9,0,3.7,0.4,5.4,1.1c1.7,0.7,3.2,1.8,4.6,3.2
		c1.1,1.1,2,2.4,2.7,3.8c0.7,1.4,1.2,2.9,1.5,4.7L-72.9,462.5L-72.9,462.5z M-83.2,481.6l19.3-19.3l10.2,10.2l-2.1,2.1l-7.9-7.9
		l-5.5,5.5l7.9,7.9l-2.1,2.1l-7.9-7.9l-7.4,7.4l7.9,7.9l-2.1,2.1L-83.2,481.6L-83.2,481.6z M-68.6,496.1l20.1-20.1l-1.3,29.6
		l14.7-14.7l2.2,2.2L-53,513.2l1.1-29.4l-14.5,14.5L-68.6,496.1L-68.6,496.1z M-49.2,515.5l28.1-6.4l-8.8-8.8l2.1-2.1l12.7,12.7
		l-27.9,6.4l10.3,10.3l-2.2,2.2L-49.2,515.5L-49.2,515.5z M-8.4,526l-10.2,4l6.1,6.1L-8.4,526L-8.4,526z M-3.3,520.9l-11.3,28.9
		l-2.5-2.5l3.4-8.4l-7.5-7.5l-8.4,3.4l-2.5-2.5L-3.3,520.9L-3.3,520.9z"/>
	<path fill-rule="evenodd" clip-rule="evenodd" fill="#ED3024" d="M90.9,398L-14.5,292.6L-119.9,398l41.6,41.6l9.6-23.2l-9.3,0.9
		l16.8-36.8l-8.5-1.6l29-27.6l-4.1-3.4l14.1-19.5l7.6,23.4l31.4-0.3l9.1-8.9l0.2,19.2l3.7,6.7L20.9,385l-4.3-0.1L16.1,368l-7.2-8.8
		l-0.1,28.2L28.6,405l-0.2,2.5c-11.1-3.3-12.8,10.9-2.3,10.9l0.6,3.2l-17.7,0l-22.5-14.3l-16.4,15l5.9-0.1l9.4-3.5L1.8,435l5.8-3.3
		l1.6,4l9.4-1.2l-5.8,8.2l-15.1-0.6l-19.7-14.7l-16.8,10l-2.3-9.8l-24.8,5.7l2.1,6.4l17.7-1.9l1.6,10.5l22.2-11.6l16.7,13.2l24.1,0
		L29.7,432l27.2,0L90.9,398L90.9,398z M-18.9,370.3l1.5,11.2l15.4,4.6l-2.7-9.9L-18.9,370.3L-18.9,370.3z"/>
</g>
</svg>
