<?xml version="1.0" encoding="UTF-8"?>
<svg id="Calque_2" data-name="Calque 2" xmlns="http://www.w3.org/2000/svg" viewBox="0 0 6993.86 6993.86">
  <defs>
    <style>
      .cls-1, .cls-2 {
        fill: #dce2ee;
      }

      .cls-3, .cls-4 {
        fill: #fff;
      }

      .cls-3, .cls-2 {
        fill-rule: evenodd;
      }

      .cls-5 {
        fill: #001389;
      }
    </style>
  </defs>
  <g id="svg2">
    <g id="g10">
      <g id="g5289">
        <g id="g5283">
          <path id="path808" class="cls-1" d="M3496.98,6993.86C1568.67,6993.86,0,5425.05,0,3496.88S1568.67,0,3496.98,0s3496.88,1568.81,3496.88,3496.88-1568.67,3496.98-3496.88,3496.98"/>
          <path id="path5281" class="cls-4" d="M3496.98,152.76c-1844.06,0-3344.3,1500.2-3344.3,3344.12s1500.24,3344.31,3344.3,3344.31,3344.21-1500.3,3344.21-3344.31S5340.95,152.76,3496.98,152.76"/>
          <path id="path806" class="cls-5" d="M3496.98,264.28c-1785.37,0-3232.72,1447.32-3232.72,3232.64s1447.35,3232.73,3232.72,3232.73,3232.63-1447.41,3232.63-3232.73S5282.35,264.28,3496.98,264.28"/>
          <path id="path5269" class="cls-4" d="M3496.98,5828.33c-1287.66,0-2331.48-1043.88-2331.48-2331.41S2209.32,1165.6,3496.98,1165.6s2331.38,1043.79,2331.38,2331.32-1043.81,2331.41-2331.38,2331.41"/>
        </g>
        <g id="g5213">
          <g id="g5185">
            <path id="path836" class="cls-1" d="M5090.08,1682.95c-2.9,2.53-335.3,313.86-739.78,313.86-286.34,0-585.23-152.58-850.89-481.88-265.75,329.3-564.55,481.88-850.89,481.88-404.48,0-736.88-311.33-739.78-313.86-264.63,382.38-423.76,993.99-423.76,1461.64,0,579.6,186.47,1114.08,554.44,1588.66,303.57,391.74,858.47,823.35,1459.99,1150.21,601.33-326.87,1156.24-758.48,1459.9-1150.21,368.06-474.58,554.53-1009.06,554.53-1588.66,0-467.65-159.13-1079.26-423.76-1461.64"/>
            <path id="path838" class="cls-4" d="M5072.48,1797.82s-803.24,714.77-1573.26-170.08c-769.82,884.84-1572.98,170.08-1572.98,170.08-241.13,400.35-366.85,923.78-366.85,1346.78,0,562.85,181.32,1082.44,539.08,1543.73,310.68,400.91,829.64,800.51,1400.74,1111.18,571.29-310.67,1090.24-710.27,1401.11-1111.18,357.49-461.28,538.99-980.88,538.99-1543.73,0-423-125.81-946.44-366.85-1346.78"/>
            <path id="path840" class="cls-5" d="M5018,2019.09s-772.07,557.42-1519.9-182.44c-747.83,739.85-1519.99,182.44-1519.99,182.44-175.79,339.97-270.9,717.76-270.9,1125.88,0,1123.35,758.5,1925.35,1790.89,2486.7,1032.3-561.35,1790.99-1363.35,1790.99-2486.7,0-408.12-95.2-785.9-271.08-1125.88"/>
          </g>
          <g id="g5190">
            <g id="g5159">
              <path id="path842" class="cls-4" d="M4952.76,2736.84c5.9,52.61,7.39,105.49,7.39,159.69,0,776.64-642.42,1427.28-1450.16,1433.27-807.74-5.99-1450.07-656.64-1450.07-1433.27,0-54.2,1.5-107.08,7.39-159.69-1.97,13.57-29.3,202.37-29.3,389.11,0,785.16,673.41,1516.3,1475.34,1530.72,801.93-14.41,1468.7-745.56,1468.7-1530.72,0-186.74-27.33-375.54-29.3-389.11"/>
              <path id="path844" class="cls-1" d="M3509.99,4010.7c-746.61,0-1361.42-557.51-1442.58-1274.71-5.99,52.89-9.08,106.8-9.08,161.37,0,793.21,649.91,1436.36,1451.66,1436.36s1457.93-642.5,1451.75-1436.36c0-54.57-3.09-108.49-9.08-161.37-81.16,717.2-696.06,1274.71-1442.67,1274.71"/>
            </g>
            <g id="g5173">
              <path id="path830" class="cls-4" d="M3493.79,2757.12c0-.09.13-.19.13-.19"/>
              <path id="path846" class="cls-3" d="M3236.28,2852.67l-146.59-309.36,296.74,159.69,112.33-499.85,99.41,497.13,312.37-156.32-160.44,307.4,569.51,106.05-569.88,107.36,159.98,299.53-309.47-149.58-101.28,518.2-112.33-515.76-295.8,146.49,139.85-298.88-551.72-106.99,557.34-105.12Z"/>
              <path id="path848" class="cls-2" d="M3494.36,2959l-107.84-256.01-296.36-159.97,404.2,415.98Z"/>
              <path id="path850" class="cls-2" d="M3496.13,2958.91l2.53-755.02,100.25,496.76-102.78,258.26h0Z"/>
              <path id="path852" class="cls-2" d="M3497.82,2958.7l410.75-413.64-157.91,307.21-252.83,106.43h0Z"/>
              <path id="path854" class="cls-2" d="M3496.98,2959.79l821.4-1.78-568.66,106.71-252.74-104.93Z"/>
              <path id="path856" class="cls-2" d="M3909.13,3363.93l-412.81-403.81,103.34,254.23,309.47,149.58h0Z"/>
              <path id="path858" class="cls-2" d="M3495.67,2961.25l-108.86,255.45,111.86,515.11-3-770.55Z"/>
              <path id="path860" class="cls-2" d="M3091,3363.25l404.01-403.34-264.07,104.56-139.94,298.79Z"/>
              <path id="path862" class="cls-2" d="M2679.69,2956.35l556.77-104,257.42,107.55-814.19-3.56Z"/>
            </g>
            <g id="g5151">
              <path id="path832" class="cls-4" d="M3498.1,5023.86s-.94-.09-1.02-.09c-.94,0-.94.09-1.12.09h2.15,0Z"/>
              <path id="path834" class="cls-4" d="M3497.91,4883.23l-.94-.09c-.94,0-.94.09-1.12.09h2.06Z"/>
              <path id="path864" class="cls-4" d="M3161.49,5151.5h-45.59v-169.8l2.81-26.68h-.94l-15.35,20.69-17.04,17.04-29.21-30.23,66.37-65.71h38.66v254.7h.28Z"/>
              <path id="path866" class="cls-4" d="M3319.31,4935.49c-42.78,0-53.45,18.53-53.45,31.08,0,11.7,13.85,32.11,52.79,32.11s53.45-20.41,53.45-32.11c0-12.54-10.39-31.08-52.79-31.08M3318.37,5036.77c-41.19,0-61.88,20.41-61.88,38.94,0,14.13,16.94,37.44,62.16,37.44s62.34-23.31,62.34-37.44c0-18.53-21.06-38.94-62.62-38.94M3318.37,5154.62c-72.26,0-108.77-39.88-108.77-78.25,0-27.71,19.19-48.39,45.59-60.66v-.66c-18.54-7.58-36.41-25.18-36.41-50.36,0-37.07,29.58-71.05,99.04-71.05s100.63,33.7,100.63,71.05c0,24.24-19.19,41.56-38.38,50.36v.66c25.18,7.49,47.18,31.08,47.18,60.66,0,38.38-36.51,78.25-108.87,78.25"/>
              <path id="path868" class="cls-4" d="M3568.31,4935.17c-38.66,0-59.72,25.46-60.1,47.46,0,21.06,17.04,47.83,57.85,47.83s59.82-26.77,60.1-48.39c0-21.15-17.6-46.9-57.85-46.9M3566.06,5154.95c-39.59,0-67.58-10.67-94.92-39.59l32.67-32.67c18.25,22.28,37.44,30.8,62.25,30.8,35.85,0,59.44-24.9,65.43-65.43h-.94c-14.79,13.2-39.88,23.59-65.34,23.59-68.61,0-104.09-42.12-103.15-89.3.94-44.37,34.26-88.64,106.25-88.64s111.67,54.01,110.36,129.17c-1.5,82.09-47.46,132.08-112.89,132.08"/>
              <path id="path870" class="cls-4" d="M3822.64,4935.49c-42.78,0-53.45,18.53-53.45,31.08,0,11.7,13.85,32.11,52.79,32.11s53.45-20.41,53.45-32.11c0-12.54-10.39-31.08-52.79-31.08M3821.7,5036.77c-41.19,0-61.87,20.41-61.87,38.94,0,14.13,16.94,37.44,62.25,37.44s62.25-23.31,62.25-37.44c0-18.53-21.06-38.94-62.62-38.94M3821.7,5154.62c-72.36,0-108.86-39.88-108.86-78.25,0-27.71,19.19-48.39,45.68-60.66v-.66c-18.63-7.58-36.51-25.18-36.51-50.36,0-37.07,29.58-71.05,99.04-71.05s100.63,33.7,100.63,71.05c0,24.24-19.19,41.56-38.38,50.36v.66c25.18,7.49,47.18,31.08,47.18,60.66,0,38.38-36.51,78.25-108.77,78.25"/>
            </g>
          </g>
        </g>
        <g id="g5241">
          <g id="g5125">
            <path id="path810" class="cls-4" d="M979.51,2028.6l-76.48,135.73,15.73-4.4,87.62,49.42,4.4,15.73,76.2-135.17c28.08-49.7,14.88-79.94-16.38-97.54-32.39-18.25-63.09-13.48-91.08,36.22M1182.54,2143.83l-76.2,135.17,15.73-4.4,143.59,80.87-61.41,108.96-452.5-255.07,132.17-234.57c62.06-110.08,161.28-142.47,249-93.04,84.9,47.93,112.24,150.89,49.61,262.09"/>
            <path id="path812" class="cls-4" d="M1355.15,1513.77c-71.52,77.13-53.64,153.14,14.98,216.79,67.31,62.34,142.1,72.26,213.61-4.87,71.89-77.6,55.51-150.52-11.7-212.86-67.21-62.34-145.37-76.19-216.89.94M1664.15,1801.14c-122.44,132.17-266.97,127.68-380.33,22.56-111.96-103.81-132.55-252.26-10.02-384.43,123.37-133.11,272.12-123.75,384.54-19.56,113.36,105.12,126.65,251.14,5.8,381.44"/>
            <path id="path814" class="cls-4" d="M1911.55,1052.95l-121.97,80.59,15.91,3.28,53.08,80.31-3.28,15.91,116.17-76.66c53.45-35.38,54.57-74.51,39.69-96.97-19.47-29.39-53.54-36.88-99.6-6.46M2360.58,1247.46l-116.63,77.04-137.51-74.42c-35.48-18.81-66.65-18.16-115.32,13.95l-79.75,52.7,15.07,3.09,98.66,149.3-104.28,68.99-286.44-433.48,216.7-143.12c87.8-58.03,200.6-71.05,263.5,24.15,27.99,42.31,22.93,107.93-3.28,149.77l.94,1.03c19-2.53,44.65,1.31,72.17,16.19l176.36,94.82h-.19Z"/>
            <path id="path816" class="cls-4" d="M2685.87,688.27l-173.83,66.27,10.11,8.52,141.91,372.08-116.92,44.56-141.81-372.17,1.87-13.01-173.83,66.18-39.03-102.4,452.5-172.51,39.03,102.5h0Z"/>
            <path id="path818" class="cls-4" d="M3127.04,1027.69c-96.98,14.7-190.02-3.74-262.19-52.51l71.52-97.72c47.93,34.26,126.09,49.05,185.06,40.16,74.89-11.33,97.35-34.17,93.42-60.19-1.59-10.11-14.7-32.76-83.03-38.66-11.8-.84-86.68-7.02-98.57-8.42-94.73-8.42-188.06-29.3-201.72-120-13.11-86.21,61.22-165.59,209.59-188.05,98.38-14.79,183.94,6.65,246.94,54.2l-72.92,97.26c-35.76-30.89-103.15-51.86-159.6-43.34-73.01,10.39-102.31,35.57-98.94,57.75,3,19.66,28.46,24.9,108.02,32.39,11.89,1.4,73.11,7.11,85.56,7.77,112.89,8.89,179.54,59.16,190.21,130.2,12.26,81.16-51.67,164.74-213.33,189.17"/>
            <path id="path820" class="cls-4" d="M4023.14,1032.98l-124.4-11.79,26.02-274.54-1.31-.19-29.95,51.95-155.67,213.98-1.87-.19-112.61-239.44-19.75-56.63-1.4-.09-26.02,274.54-124.5-11.79,49.24-517.82,102.03,9.64,136.76,290.64,15.45,47.27,1.4.09,22.75-43.62,189.65-259.66,103.44,9.83-49.24,517.82h0Z"/>
            <path id="path822" class="cls-4" d="M4515.24,760.38c-98.57-36.6-162.04,8.99-194.61,96.79-31.92,85.93-12.45,158.85,86.12,195.45,99.22,36.79,160.35-6.18,192.27-92.2,31.92-85.93,14.79-163.43-83.78-200.03M4367.81,1155.76c-168.96-62.62-220.07-197.88-166.25-342.87,53.08-143.03,182.44-218.85,351.5-156.13,170.18,63.09,218.38,204.15,165.03,347.84-53.82,144.99-183.75,213.04-350.28,151.17"/>
            <path id="path824" class="cls-4" d="M5258.29,1377.43c-87.43,127.4-206.5,156.98-347.19,60.37-140.6-96.51-157.07-217.54-68.89-345.96l158.2-230.55,103.15,70.77-157.91,229.99c-52.23,76.1-49.8,131.51,27.9,184.87,76.2,52.23,129.74,35.38,181.97-40.81l157.91-229.99,103.15,70.77-158.29,230.55h0Z"/>
            <path id="path826" class="cls-4" d="M5803.55,1698.38l-126.27-136.57-4.12,12.54-292.34,270.42-84.99-91.83,292.43-270.42,12.82-3.09-126.28-136.57,80.5-74.42,328.75,355.51-80.5,74.42h0Z"/>
            <path id="path828" class="cls-4" d="M5791.85,2459.5l-62.62-108.3,167.09-96.69,15.82,4.21-132.08-228.21-4.21,15.82-167.09,96.69-62.62-108.3,449.78-260.22,62.62,108.3-167.18,96.69-15.73-4.21,131.99,228.21,4.21-15.82,167.18-96.69,62.62,108.3-449.78,260.22Z"/>
          </g>
          <g id="g5137">
            <path id="path872" class="cls-4" d="M1319.39,5001.6l-134.61-229.14-3.28,13.1-59.91,35.1-13.1-3.37,120.85,205.65-78.82,46.24-120.85-205.74-3.37,13.2-130.68,76.76-52.61-89.77,372.74-218.94,182.35,310.67-78.72,46.24h0Z"/>
            <path id="path874" class="cls-4" d="M1511.76,5229.37c-57.48-65.9-121.97-57.85-180.66-6.65-57.48,50.17-72.26,111.11-14.79,177.1,57.94,66.37,119.63,59.16,177.1,9.08,57.57-50.17,75.92-113.64,18.35-179.53M1246.85,5459.73c-98.57-112.98-82.09-232.14,14.79-316.66,95.67-83.4,220.35-87.43,318.92,25.55,99.22,113.82,78.44,236.07-17.69,319.85-96.88,84.53-218.85,82.65-316.02-28.74"/>
            <path id="path876" class="cls-4" d="M1905.56,5597.1c-69.74-52.98-131.14-32.01-178.32,30.05-46.15,60.75-48.3,123.56,21.44,176.45,70.11,53.26,129.08,33.79,175.33-26.96,46.15-60.75,51.3-126.55-18.44-179.53M1692.7,5876.32c-119.44-90.7-127.4-210.7-49.61-313.11,76.85-101.09,198.17-130.2,317.61-39.5,120.19,91.36,124.59,215.29,47.46,316.85-77.88,102.4-197.7,125.24-315.46,35.76"/>
            <path id="path878" class="cls-4" d="M2501.37,5950.87l-138.45-68.99v10.95l-147.81,296.54-93.14-46.43,147.81-296.54,9.08-6.18-138.54-69.08,40.72-81.62,360.58,179.72-40.72,81.62h.47Z"/>
            <path id="path880" class="cls-4" d="M2810.09,6046.85l-120.19-33.79,6.65,11.79-16.2,57.57-11.79,6.65,120.1,33.79c47.83,13.48,61.03-3.93,66.37-22.93,5.62-20.03,0-40.34-44.93-53.07M2776.11,6202.98l-129.93-36.6,7.11,12.08-19.19,68.24-11.89,6.65,129.93,36.6c54.48,15.35,69.36-2.06,75.82-25.18,6.08-21.62,0-47.18-51.86-61.78M2727.43,6377.74l-220.82-62.15,117.1-415.98,216.23,60.84c99.6,28.08,136.1,99.31,117.48,165.59-8.71,30.8-30.61,57.38-60.28,66.18,28.46,21.25,44.65,58.04,31.83,103.71-22.84,81.16-99.88,110.45-201.54,81.81"/>
            <path id="path882" class="cls-4" d="M3323.24,6289.08l-9.83-10.48-27.43-69.74-12.35-44.84-19.56,42.22-38.01,64.31-11.98,8.71,119.16,9.83h0ZM3505.87,6488.93l-113.26-9.36-38.57-96.88,7.21-9.08-209.02-17.22,5.62,10.02-52.89,89.39-114.39-9.45,249.93-413.08,87.8,7.3,177.57,448.37h0Z"/>
            <path id="path884" class="cls-4" d="M3956.87,6448.94l-344.47,30.7-38.28-430.58,103.62-9.27,29.39,330.14-8.15,10.39,249.75-22.28,8.14,90.89Z"/>
            <path id="path886" class="cls-4" d="M4424.25,6337.19l-334.93,85.74-107.27-418.69,100.81-25.74,82.19,320.97-6.36,11.51,242.91-62.15,22.65,88.36Z"/>
            <path id="path888" class="cls-4" d="M5073.13,5945.51c-14.98,66.37-59.72,127.12-126.28,163.25-136.48,74.13-252.36,33.88-314.05-79.56-61.31-112.98-31.36-236.73,103.16-309.83,71.8-38.94,138.91-43.81,204.25-17.41l-28.08,93.6c-40.06-21.34-88.27-19.47-131.89,4.21-82.47,44.84-90.99,111.95-54.57,178.97,35.67,65.62,93.42,95.01,177.85,49.14,42.69-23.12,73.48-64.77,78.54-108.21l91.08,25.83h0Z"/>
            <path id="path890" class="cls-4" d="M5509.34,5704.18l-269.96,216.23-270.24-337.35,81.25-65.15,207.25,258.72-1.12,13.1,195.83-156.79,57.01,71.23h0Z"/>
            <path id="path892" class="cls-4" d="M5721.36,5179.08c96.42,85.09,108.86,186.27,14.98,292.8-93.89,106.43-195.45,107.93-292.71,22.18l-174.48-153.89,68.89-78.07,174.02,153.51c57.66,50.83,103.62,54.38,155.48-4.4,50.83-57.66,42.22-103.62-15.35-154.45l-174.11-153.51,68.8-77.97,174.48,153.79Z"/>
            <path id="path894" class="cls-4" d="M5941.34,4861.93l-67.58,116.91,13.38-4.02,61.41,35.57,3.56,13.1,67.58-116.91c28.27-48.96,15.07-67.68-5.71-79.66-19.38-11.23-45.68-11.61-72.64,35.01M5798.4,4790.42l-62.53,108.02,13.2-3.46,51.67,29.95,3.56,13.1,62.44-108.11c24.9-42.96,11.33-60-5.71-69.92-18.07-10.39-39.13-10.3-62.63,30.42M6098.69,4952.26l-114.95,198.63-374.05-216.32,112.42-194.51c51.76-89.58,129.83-107.27,189.46-72.82,27.71,16.01,48.02,43.81,49.24,74.7,27.61-22.28,67.3-28.92,108.4-5.15,72.92,42.22,82.38,124.03,29.49,215.48"/>
          </g>
        </g>
      </g>
    </g>
  </g>
</svg>