<?xml version="1.0" encoding="UTF-8"?>
<svg id="Calque_2" data-name="Calque 2" xmlns="http://www.w3.org/2000/svg" viewBox="0 0 189.19 120.27">
  <defs>
    <style>
      .cls-1 {
        fill: #dd0741;
      }

      .cls-1, .cls-2, .cls-3, .cls-4 {
        stroke-width: 0px;
      }

      .cls-2 {
        fill: #001f47;
      }

      .cls-3 {
        fill: #fff;
      }

      .cls-4 {
        fill: #dadada;
      }
    </style>
  </defs>
  <g id="Calque_1-2" data-name="Calque 1">
    <g>
      <path id="b" class="cls-3" d="M186.78,51.08c-5.26-2.55-14.42-5.49-14.42-5.49-.39-.1-1.18-.36-1.18-.36.22-.32.39-.66.52-1.03.32-1.12.25-2.43-.48-2.84,0,0,3.99.22,4.86-.11,2.46-.95,3.4-4.21,2.54-6.51-.45-1.21-2.38-1.96-2.77-2.97-.38-.96-.63-1.71-1.65-2.22-1.66-.83-5.86-1.56-7.71-1.4-1.56.14-1.86,1.92-2.82,2.33-3.86,1.64-5.58.87-5.54,6.57,0,.17.02.33.04.49-1.4-.67-4.89-2.36-6.5-3.07V0H37.53v34.46c-1.62.71-5.11,2.4-6.5,3.07.03-.16.04-.33.04-.49.04-5.69-1.68-4.92-5.54-6.57-.96-.42-1.26-2.19-2.82-2.33-1.85-.16-6.05.57-7.71,1.4-1.03.52-1.26,1.27-1.65,2.22-.39,1.01-2.31,1.77-2.77,2.97-.86,2.31.08,5.57,2.54,6.51.87.33,4.86.12,4.86.12-.73.42-.8,1.72-.48,2.84.12.36.3.71.52,1.03,0,0-.79.26-1.18.36,0,0-9.15,2.94-14.42,5.49,0,0-6.31,2.94,1.52,2.37.38,0,6.25-.45,12.36-1.35l-.04.34c0,1.96.42,1.95,2.07,2.51l-.05.35c-2.06.42-6.16.82-7.59,1.76-1.56,1.04-5.83.23-8.4,3.68-.67.91-1.8,3.66-1.14,4.56,1.08,1.46,7.27,3.61,8.08,3.62,1.94.04,2.13-1.53,3.5-2.45.66-.45,1.44-.15,2.17-.34,1.1-.29,1.7-1.27,2.67-1.77.56-.29,1.77-.56,2.54-.12,3.4,2.07,13.82-.56,17.45-2.67v18.68c0,6.65.85,9.19,2.89,12.7l.17.28c11.61,17.18,31.3,27.03,54,27.03s42.36-9.82,53.94-26.95l.17-.27c2.08-3.58,2.94-6.15,2.94-12.79v-18.67c3.62,2.11,14.04,4.74,17.44,2.67.77-.44,1.98-.17,2.54.12.96.49,1.57,1.48,2.67,1.77.73.19,1.51-.11,2.17.34,1.37.93,1.57,2.5,3.5,2.45.81-.02,7-2.16,8.08-3.62.66-.9-.46-3.65-1.14-4.56-2.56-3.45-6.83-2.65-8.4-3.68-1.43-.93-5.53-1.35-7.59-1.77l-.05-.36c1.65-.56,2.08-.55,2.07-2.51l-.04-.34c6.12.9,11.98,1.35,12.36,1.35,7.83.56,1.52-2.37,1.52-2.37h0s0,0,0,0Z"/>
      <path class="cls-4" d="M89.03,67.42c-5.84,0-11.57-1.62-16.52-4.7,5.83,7.41,15.05,11.4,24.51,10.59,9.46-.81,17.85-6.3,22.31-14.59h-.03c-.55-.16-1.37-.48-2.33-.85-1.07-.42-3.02-1.17-3.68-1.25-.19.12-.37.26-.54.4-.37.31-.76.59-1.17.85-5.87,6.11-14.02,9.56-22.54,9.55h0s0,0,0,0Z"/>
      <path id="a" class="cls-1" d="M175.97,37.99c.34-.49.34-1.41.08-1.94-.3-.62-1.22-.79-1.81-1.01-.73.16.08.79-.55,1.06l-1.41-.18c-.89-.91.97-.78,1.07-1.27.15-.7-.52-1.35-.08-2.04-.06-.18-.19-.33-.37-.42-.73-.26-5.07-1.29-5.68-1.25l-.18.21c.17.24.91.9.94.96.29.52-1.66.89-1.99.96-1.56.32-5.73.82-5.12,3.26.29,1.15,4.43,4.06,4.94,5.33.11.27.65.84.29,1.09-.76.51-4.6-.17-4.81.42.21.79,2.5,1.4,3.24,1.68.88.33,1.68.58,2.61.13,1.03-.5,1.7-1.85,1.52-2.98-.21-.78-.53-1.52-.97-2.2-.3-.4-2.83-2.37-2.12-2.64.85.27,2.01.03,2.61.83,1.59.44,3.29.72,4.91,1.01,1.05.19,2.23-.1,2.85-1.01h0s0,0,0,0ZM141.21,57.39c.15-.3.16-.65.03-.96-.12-.15-.28-.26-.47-.31-.73.16-1.47.49-2.3.28-.76,0-1.99-.67-2.33.34-.13.65-.5,1.19-.66,1.81,0,.33.32.65.63.8.47.1,1.05.36,1.47.28.78-.54.73-1.53,1.52-2.09.42.1.47.67.94.62.5-.05.93-.34,1.18-.78h-.01s0,0,0,0ZM160.26,45.37c.14-.73-.7-.85-1.2-1.01-1.21-.39-2.41-.77-3.63-1.11-.9-.25-1.8-.72-2.69-.91-1.13-.23-2.03-.26-2.82-1.25l.18-.1c1.07.42,2.8,1.33,3.92.59.53-.35,1.09-1.3.84-1.94-.19-.48-.79-.55-1.2-.73-1.76-.76-3.49-1.69-5.21-2.54-3.64-1.8-7.27-3.6-10.9-5.42-1.65-.83-3.52-1.78-5.33-2.17-1.47-.32-3.15.09-4.44.85-1.29.77-1.24,2.54-2.2,2.35-.15-.14-.24-.34-.24-.54-.38-.6-1.59,1.09-2.56,1.58-2.17,1.08-5.99,5.2-7.55,7.16-.99,1.25-1.39,2.82-1.75,4.32l.21.28c.48.11.91-.08,1.33-.28.4.1.36.59.58.88,1.58,2.11,5.8.89,8.1,1.66.03.14,0,.27-.16.28-1.03.13-2.4-.08-3.46-.11-2.44-.06-4.88-.09-7.31-.22l-.29.16c-.22.49-1.56,3.33-1.78,3.57-.33.36-.81.62-1.16,1.01-.94,1.04-1.63,2.31-2.82,3.12-.36.24-1.07.38-1.23.78l.18.21c3.6.29,3.96-3.45,6.38-4.29.06.02.11.06.14.11.03.05.04.12.02.18-.65.65-1.19,1.39-1.62,2.2-1.41,2.82-2.41,1.96-3.76,3.26l.21.31c3.99-.12,4.71-2.33,6.01-2.51,1.11-.15,5.26,1.77,6.64,2.15.69.19,1.37.42,2.1.42.24,0,.57-.13.78-.12.53.02.63.96,1.81.42.7-.33.75-1.32.84-1.99.11-.81-.91-1.5-.84-1.94.1-.62.89.21,1.07-.34.11-.33-.3-.99-.5-1.25-.53-.66-2.01-1.8-1.8-2.77.09-.14.23-.24.39-.28l4.83.59c.17.02.9,1.72.91,1.89.01.26-.69,2.01-.84,2.35-.4.95-1.11,1.64-1.1,2.74.01,1.35.93,2.61,1.62,3.72.76,1.25,1.98.65,3.08,1.01.45.15.94.46,1.39.66,1.44.65,2.93,1.19,4.46,1.59.82.19,2.08-.08,2.56-.83.35-.55-.84-.72-.31-1.32.28-.32.63-.3,1.02-.26.84.09,5.14.61,5.59.13.15-.16-.08-.38-.21-.44-.87-.42-2.21-.61-3.15-.88-1.15-.32-2.35-.4-3.5-.75-.98-.3-.92.7-1.62,1.14-1.05.67-3.89-.66-4.23-1.87-.33-1.15.73-2.61,1.49-3.39.6-.61,1.32-.7,1.91-1.16.37-.3.11-.88.11-1.27.58-.72,2.76.42,3.66.18.97-.27.25-1.53,1.07-1.78.73.21,1.3.72,2.01.98.53.19,1.46.29,1.8.75.28.37,0,.88-.08,1.27.26.48,1.07.62,1.57.7.8.11,1.68.07,2.5.15.82.09,1.64.32,2.44.39l2.71.26c.66.31-.16.87.44,2.12-.65-.09-3.3-.88-3.61,0,2.35,2.16,7.68,3.7,10.83,4.14,1.93.27,3.97.21,5.91.05.26,0,.51-.07.73-.22,0,.01,1.04-.85,1.59-.76.76.12,1.64,1.56,3.22,2.16,1.07.6,2.1-.44,2.93.03,1.02.57,1.66,3.45,3.29,3,.33-.09,1.74-.58,1.94-.76.54-.44-.37-1.58-.84-2.35-.17-.23-.28-.42-.48-.46-1.89-.48-1-2.62-3.71-3.12-1.22-.22-1.52-.33-2.73-.55-.33-.06-1.08.1-1.12-.37l.21-.23,2.17-.05-.05-.28c-3.47-.43-6.88-1.41-10.35-1.81-.26-.15-.59-.94-.55-1.19.11-.62,1.11.54,1.62-.7.3-.72-.42-1.33.16-1.68,1.53.2,3.05.38,4.58.6-8.62-2.04-17.31-3.74-25.93-5.76-1.87-.44-3.78-.73-5.62-1.29l.03-.21c7.6,1.05,15.13,2.87,22.77,3.67v-.19c-4.22-.8-8.41-1.86-12.63-2.61-6.31-1.12-12.65-2.05-18.98-3.01-4.13-.62-8.33-1.39-12.49-1.74l-.13.28c.28.34.67.5,1.05.7.06.08.05.19-.03.26-.53-.06-2.9.09-2.9-.46.88-.83,1.1-1.25,2.38-1.14,1.99.18,3.99.47,5.99.72,11.44,1.46,22.95,2.97,34.32,4.91,11.98,2.05,18.32,2.97,28.17,4.84-3.34-1.19-18.43-5.37-26.13-6.68-.36-.06-.82,0-.99-.42l-.02.02h0ZM157.45,58.65c.57.02,1.15.09,1.71.2,1.28.26,2.56.36,3.87.73.24.11.41.32.46.58-.09.11-.23.17-.37.17l-5.1-1.29-.57-.37h0ZM129.32,56.57l1.41-3.28c.05-.25.27-.43.52-.44.31.1.71.15.81.52l-1.21,2.57c-.84,1.09-.24,2.59.05,3.67-.04.14-.17.25-.32.26-.84-.83-1.59-1.99-1.28-3.29h0s0,0,0,0ZM118.58,54.27c-.32.24-.88.11-1.29.05-.49-.27-.59-.83-.65-1.36-.01-.14.05-.28.16-.37.57,0,1.13.14,1.51.59.16.35.46.72.27,1.09h0ZM135.73,40.87l.7.32s-10.35-1.46-15.35-2.17c-.21-.02-.86-.09-.75-.45.13-.09.29-.12.44-.1l14.95,2.41s0,0,0,0ZM138.39,36.3l-.11.1c-2.64-.51-5.36-1.12-7.95-1.83-.2-.05-.66-.09-.6-.39.95-.18,5.29.95,6.38,1.32.48.16.77.05,1.26,0,.38.21.73.48,1.02.8h0ZM47.95,56.42c-.14.31-.13.66.03.96.24.43.68.72,1.18.78.47.05.52-.52.94-.62.78.57.73,1.55,1.52,2.09.42.08.99-.18,1.47-.28.31-.15.63-.47.63-.8-.16-.62-.53-1.16-.66-1.81-.34-1.01-1.57-.34-2.33-.34-.84.21-1.57-.13-2.3-.28-.19.05-.35.16-.47.31h-.01s0,0,0,0ZM83.5,55.83l.18-.21c-.16-.4-.87-.53-1.23-.78-1.19-.81-1.87-2.08-2.82-3.12-.35-.38-.84-.66-1.16-1.01-.21-.23-1.55-3.07-1.78-3.57l-.29-.16c-2.44.13-4.88.16-7.31.22-1.05.03-2.42.24-3.46.11-.16-.02-.19-.14-.16-.28,2.31-.77,6.52.46,8.1-1.66.21-.28.18-.78.58-.88.42.21.86.4,1.33.28l.21-.28c-.37-1.5-.76-3.08-1.75-4.32-1.57-1.96-5.38-6.08-7.55-7.16-.98-.48-2.18-2.18-2.56-1.58,0,.21-.09.4-.24.54-.95.19-.92-1.59-2.2-2.35-1.27-.76-2.97-1.16-4.45-.85-1.81.39-3.68,1.35-5.33,2.17-3.62,1.82-7.25,3.63-10.89,5.43-1.72.85-3.45,1.78-5.21,2.54-.42.18-1.01.24-1.2.73-.25.64.3,1.58.84,1.94,1.12.74,2.85-.17,3.92-.59l.18.1c-.79.99-1.68,1.01-2.82,1.25-.9.19-1.8.65-2.69.91-1.22.34-2.42.72-3.63,1.11-.5.16-1.34.28-1.2,1.01-.17.42-.63.35-.99.42-7.7,1.31-22.79,5.49-26.13,6.68,9.85-1.87,16.19-2.79,28.17-4.84,11.36-1.95,22.88-3.46,34.32-4.91,1.99-.25,3.99-.54,5.99-.72,1.28-.12,1.5.31,2.38,1.14,0,.56-2.37.42-2.9.46-.07-.07-.09-.18-.03-.26.38-.21.77-.36,1.05-.7l-.13-.28c-4.16.35-8.36,1.11-12.49,1.74-6.33.96-12.68,1.89-18.98,3.01-4.23.75-8.41,1.82-12.63,2.61v.18c7.63-.8,15.16-2.62,22.77-3.67l.03.21c-1.84.55-3.76.83-5.62,1.27-8.62,2.02-17.31,3.73-25.93,5.76,1.52-.21,3.05-.4,4.57-.6.58.35-.14.96.16,1.68.52,1.24,1.52.07,1.62.7.04.25-.29,1.04-.55,1.19-3.47.41-6.88,1.38-10.35,1.81l-.05.28,2.17.05.21.23c-.04.47-.78.31-1.12.37-1.22.22-1.52.33-2.73.55-2.71.51-1.81,2.65-3.71,3.12-.2.05-.31.22-.48.46-.46.77-1.37,1.91-.84,2.35.19.19,1.61.67,1.94.76,1.63.45,2.27-2.43,3.29-3,.84-.47,1.85.57,2.93-.03,1.58-.6,2.46-2.03,3.22-2.16.55-.09,1.59.78,1.59.76.21.15.47.22.73.22,1.94.16,3.98.22,5.91-.05,3.15-.44,8.47-1.97,10.82-4.14-.3-.88-2.96-.09-3.61,0,.6-1.25-.21-1.81.44-2.12l2.72-.26c.8-.07,1.62-.31,2.44-.39.82-.08,1.7-.04,2.5-.15.5-.07,1.31-.22,1.57-.7-.07-.39-.36-.9-.08-1.27.35-.46,1.28-.56,1.8-.75.71-.26,1.28-.78,2.01-.98.83.25.1,1.52,1.07,1.78.89.24,3.08-.9,3.66-.18,0,.38-.27.97.11,1.27.59.46,1.31.55,1.91,1.16.76.78,1.82,2.23,1.49,3.39-.34,1.2-3.18,2.53-4.23,1.87-.7-.44-.63-1.43-1.62-1.14-1.15.35-2.35.43-3.5.75-.95.26-2.3.46-3.16.88-.13.06-.36.28-.21.44.45.48,4.75-.04,5.59-.13.39-.04.74-.06,1.02.26.52.61-.67.77-.31,1.32.48.75,1.74,1.02,2.56.83,1.53-.41,3.02-.94,4.46-1.59.45-.2.94-.51,1.39-.66,1.1-.36,2.32.23,3.08-1.01.69-1.12,1.61-2.37,1.62-3.72.01-1.1-.69-1.79-1.1-2.74-.15-.35-.84-2.1-.84-2.35.01-.17.75-1.87.91-1.89l4.83-.59c.16.04.3.14.39.28.21.97-1.28,2.1-1.8,2.77-.2.25-.61.91-.49,1.25.18.55.97-.28,1.07.34.08.44-.94,1.13-.84,1.94.09.68.13,1.66.84,1.99,1.17.54,1.27-.4,1.81-.42.21-.01.54.12.78.12.73.01,1.41-.22,2.1-.42,1.37-.37,5.53-2.3,6.64-2.15,1.3.18,2.03,2.39,6.01,2.51l.21-.31c-1.35-1.3-2.36-.44-3.76-3.26-.42-.81-.97-1.55-1.62-2.2-.02-.06-.01-.12.02-.18.03-.05.08-.09.14-.11,2.41.84,2.78,4.57,6.38,4.29h0s0,0,0,0ZM31.74,58.65l-.57.37-5.1,1.29c-.14,0-.28-.06-.37-.17.06-.25.23-.46.46-.58,1.31-.36,2.59-.47,3.87-.73.56-.11,1.14-.17,1.71-.2h0ZM59.87,56.57c.32,1.3-.45,2.46-1.28,3.29-.15-.01-.27-.12-.32-.26.29-1.09.89-2.58.05-3.67l-1.2-2.56c.11-.36.5-.42.81-.52.26,0,.47.19.52.44,0,0,1.41,3.28,1.41,3.28ZM59.45,34.19c.06.29-.4.33-.6.39-2.59.71-5.31,1.33-7.95,1.83l-.11-.1c.29-.32.64-.59,1.02-.8.49.05.77.16,1.26,0,1.09-.36,5.43-1.5,6.38-1.32,0,0,0,0,0,0ZM68.11,39.03c-4.99.73-15.35,2.17-15.35,2.17l.7-.32,14.95-2.41c.16-.02.31.02.44.1.11.36-.54.42-.75.45,0,0,0,0,0,0ZM72.55,52.98c-.05.53-.16,1.09-.65,1.36-.4.05-.97.19-1.29-.05-.19-.37.11-.74.27-1.09.38-.45.94-.59,1.51-.59.11.09.17.23.16.37h0ZM28.3,36.34c.61-2.44-3.56-2.93-5.12-3.26-.32-.07-2.27-.44-1.99-.96.03-.06.77-.72.94-.96l-.18-.21c-.6-.05-4.94.98-5.68,1.25-.17.08-.31.23-.37.42.44.69-.23,1.34-.08,2.04.1.48,1.96.36,1.07,1.27l-1.41.18c-.63-.27.18-.9-.55-1.06-.58.21-1.5.4-1.81,1.01-.26.53-.26,1.44.08,1.94.62.91,1.8,1.19,2.85,1.01,1.62-.29,3.32-.56,4.91-1.01.6-.8,1.76-.56,2.61-.83.71.27-1.82,2.24-2.12,2.64-.43.68-.76,1.41-.97,2.19-.19,1.12.49,2.47,1.52,2.98.92.45,1.74.21,2.61-.13.74-.28,3.02-.88,3.24-1.68-.21-.59-4.05.1-4.81-.42-.36-.24.18-.82.29-1.09.51-1.26,4.65-4.18,4.94-5.33h0s0,0,0,0ZM9.07,59.71c-.13-.42-2.71.05-2.85.54-.21.72,1.94,1.68,2.85-.54ZM3.3,64.14c.15.12.31.23.48.32.55.29,1.07.81,1.43.34.19-.24,1.2-1.96,1.39-2.61.08-.26-.1-.64-.73-.66h-.13c-1.64.16-2.16,1.56-2.45,2.62h0s0,0,0,0ZM182.97,60.24c-.14-.49-2.72-.95-2.85-.54.92,2.21,3.06,1.26,2.85.54ZM182.58,62.18c.19.65,1.2,2.37,1.39,2.61.37.47.88-.05,1.43-.34.17-.09.34-.19.49-.31-.29-1.06-.81-2.46-2.45-2.62h-.13c-.63.02-.81.4-.73.66h0Z"/>
      <path class="cls-2" d="M148.65,80.26v-16.59h-3.13v16.59c0,5.9-.69,7.28-2.08,9.68-10.59,15.69-28.53,24.26-48.85,24.26s-38.25-8.57-48.85-24.26c-1.39-2.39-2.08-3.78-2.08-9.68v-16.64h-3.13v16.63c0,6.27.76,8.23,2.5,11.23l.11.18c11.58,17.14,30.82,25.63,51.45,25.63s39.87-8.5,51.45-25.64l.11-.18c1.74-2.99,2.5-4.96,2.5-11.23h0ZM71.03,33.48c1.19-2.59,2.52-5.11,3.99-7.55-2.29,2.22-4.18,4.8-5.59,7.65.3.25.6.51.9.79.23-.3.46-.59.71-.89h0ZM119.46,98.74l5.2-3.23-1.17-1.85-3.25,2.02-4.67-14.52-1.12-1.78-5.2,3.23,1.17,1.85,3.26-2.02,4.67,14.52,1.12,1.78h0ZM116.9,36.22c-2.73-1.87-6.8-3.87-6.8-3.87-2.89,4.03-5.3,9-5.3,9,1.42,2.94,3.55,6.26,4.72,8.32,1.58-2.29,2.22-4.44,3.2-7.53.71-2.24,1.68-3.46,4.16-5.91h0s0,0,0,0ZM92.83,41.46s-3.49-5.5-7.15-9.61c0,0-7.7,3.4-10.54,4.86l-.12,2.08c.04.14,1.05,1.59,1.49,3.16l.87,2.72c.1.31.2.59.2.59.19.56.46,1.25.78,1.97.29.67.63,1.31,1,1.94.29.49.66.94,1.1,1.32l.04.03c.39.33.85.57,1.34.71,1.33.37,2.83.75,4.46,1.14,0,0,4.86-7.66,6.55-10.91h0s0,0,0,0ZM94.59,18.03c-3.07,0-6.11.5-9.02,1.48l5.33,4.16s6.5-.61,12.34.13c.63-1.01,1.12-2.1,1.47-3.24,6.19,2.91,11.05,8.02,13.59,14.32.48-.46.97-.89,1.45-1.3-4.69-9.52-14.46-15.56-25.16-15.56h0ZM130.73,91.02l1.57-1.54-13.47-13.43-.08-.08-1.57,1.54,13.47,13.43s.08.08.08.08ZM131.83,76.34l5.33,3.33-.92,1.45-12.54-7.82.92-1.45,1.68,1.05,1.18-1.84-1.09-.68c-.93-.58-2.1-.62-3.07-.12s-1.6,1.48-1.64,2.57.5,2.11,1.43,2.69l11.35,7.07c1.43.89,3.33.47,4.23-.95.9-1.42.47-3.29-.96-4.19l-6.6-4.12-1.63,2.56,1.87,1.17.45-.71h0s0,0,0,0ZM109.26,102.81l-2.49-8.06,1.77-.53c.53-.16.98-.52,1.24-1,.26-.48.31-1.05.15-1.58l-1.91-6.18c-.27-.87-1.07-1.46-1.99-1.46-.21,0-.41.03-.61.09l-3.87,1.16,5.59,18.09.04.11,2.1-.64h0s0,0,0,0ZM106.12,92.67l-1.84-5.96,1.65-.5,1.84,5.97-1.65.5h0s0,0,0,0ZM100.33,104.57l-1.66-18.97-2.2.19,1.66,18.97s2.2-.19,2.2-.19ZM92.02,102.72l-3.91-.46.74-6.19,2.93.35.26-2.17-2.93-.35.74-6.2,3.91.47.26-2.17-4.03-.47c-1.14-.13-2.18.68-2.31,1.81l-1.77,14.8c-.13,1.13.68,2.15,1.82,2.29l4.03.47.25-2.17h0ZM94.59,73.42c10.35,0,19.86-5.65,24.72-14.69h-.03c-.55-.16-1.37-.48-2.33-.85l-.14-.05c-2.44,4.35-6.05,7.94-10.42,10.38l-2.23-6.21-12.12.32-4.75,6.59s1.98,1.48,5.55,2.72c-5.64-.05-11.12-1.85-15.67-5.15.14-.12.27-.24.4-.38,0,0-3.28-4.68-5.29-8.24l-.05.02c-.95.37-1.77.69-2.33.84h-.03c4.86,9.05,14.37,14.71,24.72,14.7h0ZM81.59,101.07l-3.72-1.26,5.56-15.93-2.08-.71-6.28,17.99,5.8,1.98.72-2.06h0s0,0,0,0ZM68.47,86.89c.09.01.18.02.27.02.48,0,.89-.21,1.29-.67l3.93-4.51c.36-.41.55-.95.51-1.5s-.3-1.05-.72-1.41l-3.07-2.62-12.56,14.42,3.06,2.61c.42.36.96.54,1.52.5s1.07-.3,1.43-.72l3.77-4.33c.6-.69.79-1.25.59-1.8h0s0,0,0,0ZM66.75,86.78l-.05.06-4.17,4.78-1.43-1.22,4.22-4.85,1.43,1.22h0s0,0,0,0ZM68.08,85.13l-1.31-1.12,4.12-4.73,1.31,1.11-4.12,4.73h0ZM58.57,77.98l.99,1.4-5.72,3.96c-.41.32-.73.73-.95,1.19l-.03.06,1.32,1.86.09-.18c.21-.44.42-.85.84-1.14l5.19-3.59c.75-.52,1.07-1.03,1.02-1.61.19.08.4.12.61.13.38-.01.75-.15,1.05-.38l4.92-3.41c.45-.31.76-.79.86-1.33.1-.54-.03-1.1-.35-1.54l-2.32-3.29-15.77,10.92,1.26,1.79,6.99-4.83h0ZM60.26,76.7l.07-.05,5.23-3.62,1.08,1.53-.07.05-5.23,3.62-1.08-1.53h0ZM145.52,31.66l3.13,1.44V2.98H40.53v30.1l3.13-1.46V6.08h101.85v25.57h0s0,0,0,0Z"/>
    </g>
  </g>
</svg>