<?xml version="1.0" encoding="utf-8"?>
<!-- Generator: Adobe Illustrator 13.0.2, SVG Export Plug-In . SVG Version: 6.00 Build 14948)  -->
<!DOCTYPE svg PUBLIC "-//W3C//DTD SVG 1.0//EN" "http://www.w3.org/TR/2001/REC-SVG-20010904/DTD/svg10.dtd">
<svg version="1.0" id="Ebene_1" xmlns="http://www.w3.org/2000/svg" xmlns:xlink="http://www.w3.org/1999/xlink" x="0px" y="0px"
	 width="566px" height="566px" viewBox="0 0 566 566" enable-background="new 0 0 566 566" xml:space="preserve">
<path fill="#DB2F36" d="M283,566c156.294,0,283-126.706,283-283C566,126.706,439.294,0,283,0C126.706,0,0,126.706,0,283
	C0,439.294,126.706,566,283,566"/>
<path d="M283,557.947c151.847,0,274.946-123.101,274.946-274.947c0-151.848-123.1-274.948-274.946-274.948
	C131.152,8.052,8.052,131.152,8.052,283C8.052,434.847,131.152,557.947,283,557.947"/>
<path fill="#FFFFFF" d="M283,549.896c147.4,0,266.894-119.497,266.894-266.896C549.894,135.601,430.4,16.105,283,16.105
	S16.104,135.601,16.104,283C16.104,430.398,135.6,549.896,283,549.896"/>
<path d="M283.001,472.817c104.831,0,189.816-84.985,189.816-189.817c0-104.832-84.985-189.816-189.816-189.816
	C178.169,93.184,93.183,178.168,93.183,283C93.183,387.832,178.169,472.817,283.001,472.817"/>
<path fill="#EBB300" d="M283,465.915c101.018,0,182.915-81.896,182.915-182.915c0-101.02-81.897-182.914-182.915-182.914
	c-101.02,0-182.915,81.894-182.915,182.914C100.085,384.02,181.98,465.915,283,465.915"/>
<path fill="#DB2F36" d="M457.572,283c0-96.413-78.161-174.572-174.572-174.572V283H457.572z"/>
<path fill="#DB2F36" d="M283,457.572V283H108.428C108.428,379.412,186.588,457.572,283,457.572z"/>
<path fill="#005AA1" d="M457.572,283H283v43.643h169.072C455.662,312.693,457.572,298.07,457.572,283z"/>
<path fill="#FFFFFF" d="M452.072,326.643H283v43.644h151.21C442.026,356.777,448.087,342.128,452.072,326.643z"/>
<path fill="#005AA1" d="M434.21,370.286H283v43.643h115.452C412.597,401.447,424.706,386.716,434.21,370.286z"/>
<path fill="#FFFFFF" d="M283,413.929v43.644c44.268,0,84.68-16.487,115.452-43.644H283z"/>
<path fill="#005AA1" d="M108.428,283H283v-43.643H113.928C110.338,253.307,108.428,267.93,108.428,283z"/>
<path fill="#FFFFFF" d="M113.928,239.357H283v-43.643H131.79C123.974,209.223,117.914,223.873,113.928,239.357z"/>
<path fill="#005AA1" d="M131.79,195.714H283v-43.643H167.548C153.403,164.552,141.294,179.284,131.79,195.714z"/>
<path fill="#FFFFFF" d="M283,152.071v-43.643c-44.268,0-84.68,16.487-115.452,43.643H283z"/>
<path fill="#FFFFFF" d="M283,352.024c38.121,0,69.024-30.903,69.024-69.024c0-38.12-30.903-69.025-69.024-69.025
	c-38.12,0-69.024,30.905-69.024,69.025C213.976,321.121,244.88,352.024,283,352.024"/>
<path d="M282.669,219.476c-35.027,0-63.524,28.497-63.524,63.524s28.497,63.524,63.524,63.524s63.524-28.497,63.524-63.524
	S317.696,219.476,282.669,219.476z"/>
<path fill="#EBB300" d="M316.263,237.905c0.749,2.321,2.001,6.203,2.464,8.355c-1.319,0.332-3.25,0.937-6.272,1.913
	c-3.66,1.181-8.671,2.798-10.196,2.798c-1.589,0-4.424-1.638-6.301-2.722c-0.75-0.434-1.343-0.763-1.88-1.041
	c0.826-4.087,2.973-14.792,4.179-21.579c5.918,1.609,11.468,4.114,16.503,7.356C315.008,233.988,315.48,235.482,316.263,237.905z"/>
<path fill="#EBB300" d="M332.337,298.315c0,0.254-0.013,0.46-0.045,0.6c-0.693,1.852-9.657,14.791-12.015,16.992
	c-1.201-0.227-4.222-1.191-6.569-1.948c-5.608-1.812-9.435-2.997-11.45-2.997c-2.679,0-5.814,1.811-8.335,3.266
	c-0.876,0.505-2.073,1.198-2.45,1.296c-0.685,0.045-5.128,0.283-8.799,0.274c-3.687,0.009-8.125-0.229-8.927-0.292
	c-0.258-0.08-1.458-0.773-2.333-1.278c-2.519-1.455-5.655-3.266-8.334-3.266c-2.017,0-5.844,1.188-11.454,2.997
	c-2.347,0.757-5.365,1.722-6.565,1.948c-2.357-2.201-11.321-15.145-12.043-17.093c-0.025-0.115-0.037-0.285-0.037-0.496
	c0-1.07,0.301-3.199,0.63-4.801c6.148,2.505,21.869,5.333,49.057,5.326l0,0h0.001l0,0l0,0c27.187,0.007,42.909-2.821,49.057-5.325
	C332.047,295.092,332.337,297.18,332.337,298.315z"/>
<path fill="#EBB300" d="M314.65,333.081c-4.996,3.203-10.498,5.68-16.361,7.277c-1.196-6.741-3.371-17.472-4.209-21.569
	c0.536-0.277,1.128-0.607,1.877-1.039c1.877-1.083,4.712-2.72,6.301-2.72c1.527,0,6.541,1.616,10.201,2.799
	c3.015,0.973,4.94,1.577,6.26,1.908c-0.471,2.124-1.725,5.919-2.475,8.189C315.368,330.574,314.877,332.097,314.65,333.081z"/>
<path fill="#EBB300" d="M249.064,327.866c-0.743-2.254-1.983-6.017-2.449-8.129c1.317-0.329,3.244-0.936,6.259-1.907
	c3.663-1.182,8.678-2.8,10.205-2.8c1.589,0,4.425,1.636,6.3,2.72c0.744,0.429,1.333,0.756,1.865,1.033
	c-0.872,4.1-3.12,14.791-4.334,21.536c-5.821-1.603-11.285-4.068-16.249-7.254C250.446,332.089,249.955,330.565,249.064,327.866z"/>
<path fill="#EBB300" d="M282.669,271.224c31.157-0.009,44.735,3.674,48.063,5.206c-0.17,1.417-0.403,3.826-0.412,6.564
	c-0.009,2.74,0.229,5.155,0.405,6.578c-3.336,1.534-16.918,5.212-48.056,5.203h-0.001c-31.258,0.01-44.79-3.689-48.061-5.213
	c0.175-1.388,0.412-3.698,0.412-6.437c0-0.044-0.001-0.087-0.001-0.131c-0.007-2.789-0.244-5.149-0.416-6.554
	c3.26-1.521,16.791-5.225,48.066-5.216H282.669z"/>
<path fill="#EBB300" d="M331.728,272.483c-6.148-2.505-21.869-5.333-49.059-5.326l0,0l0,0h-0.001l0,0
	c-27.187-0.008-42.908,2.82-49.056,5.325c-0.322-1.573-0.613-3.662-0.613-4.798c0-0.253,0.015-0.459,0.046-0.6
	c0.695-1.851,9.659-14.792,12.015-16.991c1.201,0.226,4.222,1.191,6.57,1.95c5.608,1.81,9.434,2.995,11.449,2.995
	c2.679,0,5.815-1.811,8.334-3.266c0.876-0.505,2.075-1.198,2.452-1.296c0.683-0.044,5.122-0.283,8.8-0.275
	c3.68-0.008,8.123,0.23,8.926,0.292c0.259,0.081,1.456,0.774,2.332,1.28c2.521,1.455,5.656,3.266,8.335,3.266
	c2.016,0,5.841-1.186,11.445-2.995c2.35-0.759,5.373-1.725,6.574-1.95c2.355,2.199,11.321,15.143,12.042,17.09
	c0.026,0.116,0.038,0.286,0.038,0.498C332.357,268.753,332.057,270.881,331.728,272.483z"/>
<path fill="#EBB300" d="M250.633,232.951c4.978-3.196,10.456-5.671,16.294-7.277c1.217,6.767,3.453,17.447,4.318,21.542
	c-0.533,0.277-1.123,0.604-1.867,1.034c-1.875,1.084-4.71,2.722-6.3,2.722c-1.526,0-6.539-1.619-10.2-2.8
	c-3.018-0.974-4.946-1.579-6.266-1.91c0.465-2.124,1.708-5.922,2.453-8.197C249.922,235.451,250.407,233.936,250.633,232.951z"/>
<path fill="#EBB300" d="M294.291,224.691c-1.18,6.677-3.342,17.466-4.188,21.642c-1.879-0.092-4.815-0.205-7.439-0.199
	c-2.628-0.006-5.57,0.107-7.447,0.2c-0.88-4.158-3.139-14.956-4.33-21.614c3.809-0.769,7.748-1.177,11.781-1.177
	C286.646,223.543,290.53,223.942,294.291,224.691z"/>
<path fill="#EBB300" d="M223.211,283c0-18.577,8.567-35.185,21.955-46.096c-1.764,5.393-2.635,8.348-2.778,10.151
	c-4.401,4.022-13.057,18.047-13.303,19.105c-0.409,1.746,0.279,7.451,1.363,9.85c0.118,0.822,0.493,3.681,0.502,6.996
	c0.01,3.312-0.378,6.167-0.499,6.979c-1.086,2.396-1.775,8.109-1.366,9.855c0.247,1.06,8.902,15.082,13.303,19.106
	c0.144,1.806,1.023,4.762,2.806,10.172C231.792,318.207,223.211,301.59,223.211,283z"/>
<path fill="#EBB300" d="M270.871,341.276c1.185-6.637,3.46-17.451,4.344-21.611c1.876,0.093,4.823,0.207,7.458,0.201
	c2.62,0.006,5.555-0.106,7.435-0.2c0.854,4.18,3.045,15.005,4.216,21.636c-3.771,0.753-7.667,1.154-11.655,1.154
	C278.629,342.456,274.685,342.047,270.871,341.276z"/>
<path fill="#EBB300" d="M320.132,329.125c1.787-5.411,2.67-8.372,2.816-10.179c4.405-4.022,13.058-18.05,13.304-19.107
	c0.409-1.745-0.279-7.457-1.367-9.854c-0.119-0.81-0.509-3.668-0.497-6.979c0.01-3.313,0.382-6.171,0.5-6.994
	c1.086-2.4,1.773-8.106,1.364-9.852c-0.246-1.057-8.899-15.084-13.304-19.106c-0.142-1.794-0.995-4.747-2.719-10.103
	c13.353,10.912,21.896,27.5,21.896,46.049C342.125,301.595,333.54,318.216,320.132,329.125z"/>
<path d="M403.437,216.594c-1.438-0.843-4.134-1.129-4.134-1.129s-3.881-4.671-6.386-9.542c-2.465-4.792-2.576-8.924-2.576-8.924
	s-0.945-0.74-1.798-1.549c-0.827-0.788-1.497-1.564-1.497-1.564s-2.229-0.708-3.753-2.145c-1.968-1.851-2.11-3.752-2.11-3.752
	s-0.741,0.073-1.246-0.18c-0.811-0.405-1.258-1.073-1.258-1.073s-0.841-0.046-1.767-0.448c-3.264-1.424-2.858-2.26-4.908-2.546
	c-2.748-0.384-4.903-0.289-6.735,0.063c-2.551,0.489-4.424,1.185-7.582,1.349c-2.458,0.13-2.861-0.592-5.43-0.723
	c-1.417-0.131-6.195-0.49-7.681,6.058c-1.373,6.054,2.572,11.371,3.035,11.996c3.096,3.658,3.568,3.951,3.896,6.137
	c0.33,2.21-1.656,2.561-1.656,2.561s0.986,1.788,2.545,3.229c1.202,1.115,2.827,1.979,3.755,2.959
	c0.848,0.895,0.948,1.718,0.948,1.718s2.576,1.042,4.737,0.994c0.874-0.02,1.706-0.173,2.404-0.358
	c0.02-0.349,0.003-0.719-0.139-1.041c-0.071-0.164-0.499-1.1-0.499-1.1s1.042,0.665,1.186,1.981
	c0.854-0.268,1.403-0.542,1.403-0.542s-0.228-1.299-1.761-2.111c-1.29-0.685-3.478-0.689-3.478-0.689s-1.754-1.058-2.939-2.946
	c-1.236-1.966-2.135-4.071-1.839-4.731c0.495-1.317,2.654-3.106,3.005-7.973c0.289-3.979-1.588-8.959-1.588-8.959
	s1.269,1.896,1.944,4.827c0.618,2.689,0.264,5.023,0.528,4.991c0.263-0.033,2.072,0.125,3.374,0.916
	c1.303,0.792,3.642,1.292,3.642,1.292s1.267,0.167,2.996,0.097c1.913-0.077,3.497,0.102,5.738-1.272
	c2.589-1.585,0.721-4.954,0.721-4.954s1.635,1.316,1.56,2.786c-0.069,1.417,0.028,2.691,0.294,3.785
	c0.624,2.572,1.84,4.263,1.84,4.263s-0.531-1.831-0.593-3.322c-0.052-1.293,0.522-2.833,0.522-2.833s-0.344,1.523,0.236,3.325
	c0.658,2.049,2.367,3.429,2.367,3.429s-0.685-1.336-0.817-3.027c-0.143-1.823-0.006-1.915-0.006-1.915s0.626,1.836,1.448,3.195
	c0.889,1.469,2.144,2.735,2.144,2.735s-0.398-0.986-0.635-1.917c-0.187-0.742-0.189-1.178-0.189-1.178s3.659,2.579,5.94,5.845
	c2.061,2.95,0.847,4.465,0.847,4.465s1.643-0.982,3.156-0.374c1.341,0.538,1.095,2.219,1.095,2.219s2.266,0.902,4.544,0.85
	c0.705-0.016,1.441-0.115,2.111-0.242c0.003-0.028,0.009-0.055,0.011-0.085c0.043-0.472,0.139-1.106-0.087-1.62
	c-0.071-0.163-0.499-1.098-0.499-1.098s1.311,0.835,1.197,2.487c-0.006,0.066-0.017,0.129-0.023,0.193
	c1.043-0.232,1.805-0.486,1.805-0.486S404.864,217.431,403.437,216.594 M328.435,196.661c1.851-2.478,5.407-4.296,5.407-4.296
	c0.001,0,1.615-0.875,4.151-1.451c2.24-0.508,5.437-0.723,5.437-0.723l1.186-2.602c0,0-4.662,0.094-10.201,2.558
	c-4.752,2.112-7.489,6.173-7.489,6.173s-1.919,2.762-1.89,6.935c0.013,1.752,1.56,5.568,1.842,6.605
	c-0.034,0.428,0.672,1.68-1.051,2.839c-0.734,0.496-1.998,0.505-2.081,0.455c-0.396-0.295-0.891-1.758-2.408-3.231
	c-1.392-1.35-3.324-1.875-3.324-1.875s1.039,0.847,1.606,1.548c0.545,0.671,0.831,1.4,0.831,1.4s-2.104-0.739-4.197-0.762
	c-2.668-0.027-4.696,1.322-4.696,1.322s1.399-0.212,3.014,0.159c1.464,0.336,2.669,1.11,2.669,1.11s-0.535,0.291-0.909,0.688
	c-0.416,0.442-0.639,1.173-0.639,1.173s1.096-0.566,1.914-0.622c1.437-0.095,1.924,0.178,1.924,0.178s3.054,1.543,5.371,0.962
	c3.955-0.989,3.639-3.615,3.522-4.405c-0.115-0.79-1.264-2.918-1.711-5.668c-0.41-2.521-0.183-2.981-0.183-2.981
	S326.631,199.073,328.435,196.661z M396.926,198.816c0.363-1.337,0.424-2.945,0.424-2.945s-0.443,0.678-1.058,1.458
	c-0.588,0.747-1.363,1.54-1.363,1.54s-0.869-0.084-1.904-0.42c-1.261-0.408-1.967-0.947-1.967-0.947s0.06,1.428,0.474,3.196
	c0.428,1.823,1.387,4.183,1.387,4.183s0.945-1.001,1.695-2.313c0.601-1.045,1.021-2.496,1.021-2.496s0.039,0.037,0.067,0.413
	c0.038,0.546-0.13,1.267-0.13,1.267S396.504,200.363,396.926,198.816z M379.154,208.021c0,0-0.886-1.31-1.233-2.743
	c-0.396-1.648-0.402-3.395-0.402-3.395s-0.643,0.939-1.652,1.523c-1.169,0.677-2.729,1.015-2.729,1.015s0.453,2.408-0.343,5.568
	c-0.841,3.342-2.754,5.518-2.754,5.518s0.971,0.366,1.157,1.144c0.192,0.804-0.301,2.084-0.301,2.084s1.092,0.291,3.92,0.314
	c2.476,0.021,4.184-0.676,4.184-0.676s-0.132-0.938-1.157-1.512c-0.914-0.51-2.73-0.663-2.73-0.663s-0.076-2.611,0.977-5.112
	C376.984,208.958,379.154,208.021,379.154,208.021z M344.954,199.655c-1.88-3.928-1.697-7.796-1.697-7.796s-2.959,3.801-3.632,8.321
	c-0.629,4.228-1.245,4.923-1.245,4.923s0.845-0.025,1.603-0.211c0.724-0.176,1.364-0.514,1.364-0.514s-0.366,0.393-1.084,0.819
	c-0.853,0.506-1.995,0.986-2.08,1.06c-0.083,0.071-1.138,2.11-1.73,2.6c-0.939,0.778-1.963,1.329-2.354,1.814
	c-0.392,0.485-0.381,0.639-1.059,2.839c-0.604,1.956-0.942,2.916-0.942,2.916s0.562,0.301,0.688,0.814
	c0.12,0.475-0.193,1.195-0.193,1.195s2.416,0.463,4.443,0.408c1.573-0.042,3.135-0.342,3.135-0.342s-0.266-1.617-1.521-1.991
	c-1.625-0.483-3.323-0.052-3.323-0.052s0.617-1.165,2.14-3.229c1.209-1.642,2.689-2.283,3.021-2.427
	c0.463-0.197,2.942-1.224,4.69-2.241c2.122-1.235,3.976-2.996,3.976-2.996S346.615,203.123,344.954,199.655z M394.559,182.66
	c-2.526,0.078-2.438,4.529-2.438,4.529s0.208-1.084,0.646-1.902c0.435-0.813,1.099-1.358,1.099-1.358s0.115-0.048,0.207,0.013
	c0.103,0.069,0.089,0.184,0.089,0.184s-0.573,0.53-0.814,1.243c-0.311,0.924-0.305,2.084-0.305,2.084s0.747,0.201,1.549,0.214
	c0.923,0.015,1.745-0.247,1.745-0.247s-0.028-1.07-0.328-1.934c-0.257-0.741-0.791-1.296-0.791-1.296s-0.035-0.064-0.003-0.146
	c0.032-0.083,0.167-0.117,0.167-0.117s0.622,0.372,0.971,0.977c0.522,0.9,0.842,2.152,0.842,2.152S397.369,182.575,394.559,182.66z
	 M402.365,175.305c0,0,1.83,4.786,1.558,8.111c-0.469,5.69-3.237,8.592-3.237,8.592s0.648-1.784,0.711-2.664
	c0.123-1.701-0.414-3.464-0.414-3.464s0.182,2.958-0.525,5.151c-0.876,2.719-3.05,4.024-3.05,4.024l-1.153,0.708
	c0,0,0.496-1.438,0.547-2.211c0.119-1.868-0.601-2.541-0.601-2.541s0.31,1.236,0.137,2.729c-0.083,0.717-0.447,1.922-0.364,1.701
	c-0.527,1.388-1.249,2.349-1.249,2.349s-0.707-1.097-1.111-2.182c-0.52-1.396-0.536-3.37-0.536-3.37s-0.565,1.092-0.345,2.505
	c0.166,1.054,1.233,2.997,1.233,2.997s-3.38-0.711-6.166-4.236c-2.891-3.655-3.124-8.712-3.124-8.712s-0.266,1.634-0.012,3.46
	c0.278,2,1.494,4.1,1.494,4.1s-2.691-1.043-4.157-4.298c-0.892-1.979-1.181-5.438-1.181-5.438c0.001,0-0.135,1.292-0.046,2.491
	c0.104,1.389,0.274,2.265,0.274,2.265c0.002,0-1.441-0.086-2.193-1.453c-0.594-1.083-0.804-3.204-0.804-3.204
	s-0.159,1.078-0.154,1.397c0.006,0.319,0.106,1.618,0.106,1.618s-0.998-0.201-2.102-0.891c-0.829-0.521-1.605-1.234-1.605-1.234
	s1.23-1.541,3.173-2.735c1.746-1.073,3.549-1.22,3.549-1.22l-1.779-0.296c0,0,1.009-2.716,2.645-4.862
	c1.137-1.488,3.336-2.452,3.336-2.452s-0.567,0.06-0.919,0.154c-0.204,0.056-0.762,0.292-0.762,0.292s1.276-4.547,4.034-4.722
	c3.435-0.217,4.329,3.102,4.329,3.102l0.161,0.402c-0.347,0.119-0.653,0.296-1.087,0.524c-0.804,0.428-1.247,1-1.491,1.485
	c0.378-0.199,1.22-0.607,2.013-0.765c0.955-0.19,1.818-0.233,1.722-0.081c-0.108,0.175-0.516,0.328-0.948,0.747
	c-0.323,0.314-0.498,0.834-0.672,0.862c-0.214,0.036-0.656-0.583-1.449-0.583c-0.291,0-0.636,0.149-0.846,0.257
	c-0.103,0.316-0.117,0.533-0.117,0.533s-0.001,0.826,0.406,1.409c0.63,0.905,1.506,1.326,1.506,1.326s0.009,1.359,0.183,2.473
	c0.205,1.327,1.397,2.716,1.397,2.716s0.895-0.781,1.96-0.8c0.921-0.018,1.83,0.733,1.83,0.733s0.647-0.533,1.096-1.955
	c0.643-2.04,0.271-3.119,0.271-3.119s1.022-0.586,1.573-1.389c0.417-0.603,0.304-1.361,0.304-1.361l-0.017-0.428
	c0,0-0.019-0.087-0.073-0.226c-0.198-0.087-0.446-0.17-0.665-0.17c-0.791,0-1.341,0.586-1.449,0.583
	c-0.16,0.006-0.349-0.548-0.671-0.862c-0.434-0.419-0.841-0.572-0.948-0.747c-0.097-0.152,0.766-0.109,1.722,0.081
	c0.658,0.131,1.349,0.433,1.78,0.647c-0.153-0.254-0.378-0.539-0.699-0.789c-0.729-0.565-1.796-1.063-1.796-1.063
	s2.194-4.103,5.206-2.272c3.596,2.185,2.338,11.356,2.338,11.356s-0.255-2.071-0.765-3.321
	C403.149,175.779,402.365,175.305,402.365,175.305z M395.342,170.875c0,0,0.111,0.018,0.292,0.053
	c0.092,0.017,0.322,0.08,0.322,0.08s0.524-1.764,1.229-3.267c0.463-0.988,1.283-1.931,1.283-1.931s-0.457-0.328-0.858-0.552
	c-0.287-0.16-0.532-0.248-0.532-0.248s-0.772,0.821-1.148,2.232C395.516,168.792,395.342,170.875,395.342,170.875z M396.319,178.007
	c-0.065-0.132-1.004-0.4-1.837-0.378c-1.021,0.025-1.623,0.263-1.771,0.427c-0.147,0.165,0,1.103,0,1.103s-0.384-0.391-0.601-0.944
	c-0.244-0.625-0.404-0.873-0.502-0.95c-0.229-0.181-0.196,1.143,0.024,2.199c0.224,1.083,0.882,2.036,0.882,2.036
	s0.175-0.747,0.154-1.354c-0.01-0.35,0.174-0.558,0.174-0.558c0.001,0,0.068,0.311,0.198,0.601c0.163,0.361,0.396,0.717,0.396,0.717
	s0.12-0.039,0.413-0.146c0.483-0.177,1.049-0.142,1.426,0.028c0.269,0.124,0.469-0.114,0.469-0.114s0.139-0.167,0.236-0.402
	c0.113-0.271,0.19-0.619,0.19-0.619s0.079,0.297,0.211,0.573c0.229,0.475,0.283,1.206,0.283,1.206s0.553-0.695,0.765-1.684
	c0.217-1.02,0.29-2.796,0.075-2.484c-0.213,0.314-0.131,0.58-0.426,1.171c-0.236,0.476-0.776,0.889-0.776,0.889
	S396.387,178.138,396.319,178.007z M395.229,174.093c-0.334-0.025-0.531,0.158-0.814,0.163c-0.251,0.004-0.438-0.197-0.798-0.145
	c-0.723,0.104-0.985,0.347-0.921,0.502c0.082,0.198,0.394,0.392,0.856,0.894c0.519,0.562,0.717,1.212,0.914,1.212
	c0.196,0,0.35-0.713,0.819-1.232c0.713-0.784,0.688-0.593,0.902-0.939C396.304,174.363,395.881,174.145,395.229,174.093z
	 M396.183,171.032c0,0,0.059,0.001,0.23,0.076c0.121,0.053,0.209,0.085,0.209,0.085s0.624-1.095,1.675-2.082
	c1.181-1.109,2.45-1.041,2.45-1.041s-0.413-0.635-0.842-1.064c-0.321-0.321-1.029-0.807-1.029-0.807s-0.652,0.601-1.252,1.596
	C396.839,169.094,396.183,171.032,396.183,171.032z M392.244,171.23c0.961-0.336,1.716-0.389,1.716-0.389s-0.015-1.124-0.645-2.724
	c-0.551-1.4-1.792-3.027-1.792-3.027s-0.734,0.402-1.481,0.953c-0.853,0.63-1.567,1.451-1.567,1.451s1.421,0.131,2.268,0.927
	C391.73,169.352,392.244,171.23,392.244,171.23z M393.414,167.499c-0.438-1.401-1.154-2.815-1.154-2.815s1.026-0.395,1.976-0.411
	c1.039-0.016,2.012,0.346,2.012,0.346s-0.431,1.122-0.685,2.507c-0.303,1.656-0.393,3.7-0.393,3.7s-0.291-0.053-0.48-0.053
	c-0.249,0-0.52,0.037-0.52,0.037S393.927,169.141,393.414,167.499z"/>
<path d="M166.604,383.688c1.641,0,2.968-1.328,2.968-2.97c0-1.639-1.328-2.969-2.968-2.969c-1.64,0-2.968,1.33-2.968,2.969
	C163.636,382.36,164.964,383.688,166.604,383.688"/>
<path d="M180.312,378.944c1.639,0,2.968-1.328,2.968-2.969c0-1.64-1.329-2.968-2.968-2.968c-1.641,0-2.97,1.328-2.97,2.968
	C177.342,377.616,178.671,378.944,180.312,378.944"/>
<path d="M184.349,349.241c1.426,0,2.58-1.155,2.58-2.583c0-1.424-1.154-2.581-2.58-2.581s-2.583,1.157-2.583,2.581
	C181.766,348.086,182.923,349.241,184.349,349.241"/>
<path d="M172.895,344.869c1.426,0,2.582-1.157,2.582-2.583c0-1.424-1.156-2.581-2.582-2.581s-2.583,1.157-2.583,2.581
	C170.312,343.712,171.469,344.869,172.895,344.869"/>
<path d="M166.63,344.05c1.426,0,2.583-1.154,2.583-2.58s-1.157-2.583-2.583-2.583s-2.58,1.157-2.58,2.583
	S165.205,344.05,166.63,344.05"/>
<path d="M160.647,345.917c1.427,0,2.582-1.154,2.582-2.581c0-1.426-1.154-2.582-2.582-2.582c-1.426,0-2.58,1.156-2.58,2.582
	C158.067,344.763,159.222,345.917,160.647,345.917"/>
<path d="M155.564,350.035c1.426,0,2.582-1.157,2.582-2.583c0-1.424-1.156-2.581-2.582-2.581s-2.581,1.157-2.581,2.581
	C152.983,348.878,154.139,350.035,155.564,350.035"/>
<path d="M154.337,356.471c1.426,0,2.58-1.155,2.58-2.58c0-1.426-1.154-2.583-2.58-2.583c-1.427,0-2.583,1.157-2.583,2.583
	C151.754,355.315,152.91,356.471,154.337,356.471"/>
<path d="M178.366,347.451c1.424,0,2.58-1.157,2.58-2.582c0-1.426-1.156-2.58-2.58-2.58c-1.426,0-2.583,1.154-2.583,2.58
	C175.783,346.294,176.94,347.451,178.366,347.451"/>
<path d="M155.84,362.962c1.426,0,2.58-1.156,2.58-2.582s-1.154-2.581-2.58-2.581s-2.583,1.155-2.583,2.581
	S154.415,362.962,155.84,362.962"/>
<path d="M158.374,369c1.425,0,2.583-1.158,2.583-2.583c0-1.426-1.157-2.583-2.583-2.583c-1.424,0-2.58,1.157-2.58,2.583
	C155.794,367.842,156.95,369,158.374,369"/>
<path d="M193.41,370.915c12.325,0,23.559,3.4,32.262,8.471l4.169-8.477c0,0-7.213,2.922-12.217,0.93
	c-4.965-1.975-6.916-8.439-6.916-8.439s-3.875,5.058-9.846,4.244c-5.973-0.814-7.453-9.275-7.453-9.275s-1.479,8.461-7.451,9.275
	c-5.971,0.813-9.846-4.244-9.846-4.244s-1.953,6.465-6.917,8.439c-5.004,1.992-12.216-0.93-12.216-0.93l4.169,8.477
	C169.853,374.315,181.084,370.915,193.41,370.915"/>
<path d="M193.41,382.455c11.097,0,19.863,2.743,26.858,7.775l2.009-3.716c-7.167-5.008-18.016-8.263-28.868-8.289
	c-10.851-0.027-21.699,3.281-28.866,8.289l2.01,3.716C173.547,385.198,182.313,382.455,193.41,382.455"/>
<path d="M220.217,383.688c-1.64,0-2.969-1.328-2.969-2.97c0-1.639,1.329-2.969,2.969-2.969c1.639,0,2.968,1.33,2.968,2.969
	C223.185,382.36,221.856,383.688,220.217,383.688"/>
<path d="M206.51,378.944c-1.64,0-2.97-1.328-2.97-2.969c0-1.64,1.33-2.968,2.97-2.968c1.639,0,2.968,1.328,2.968,2.968
	C209.478,377.616,208.148,378.944,206.51,378.944"/>
<path d="M193.41,377.619c1.641,0,2.97-1.328,2.97-2.969c0-1.64-1.329-2.968-2.97-2.968c-1.639,0-2.966,1.328-2.966,2.968
	C190.443,376.291,191.771,377.619,193.41,377.619"/>
<path d="M193.41,354.409c0,0,1.188,11.477,7.654,12.358c5.973,0.814,10.034-5.243,10.034-5.243s2.69,9.414,9.014,10.011
	c0,0,9.993-14.186,1.043-20.151c-7.505-5.004-19.995,0.8-27.746,0.792c-7.749-0.007-20.24-5.796-27.744-0.792
	c-8.949,5.966,1.042,20.151,1.042,20.151c6.324-0.597,9.014-10.011,9.014-10.011s4.063,6.058,10.034,5.243
	C192.224,365.886,193.41,354.409,193.41,354.409"/>
<path d="M202.472,349.241c-1.426,0-2.582-1.155-2.582-2.583c0-1.424,1.156-2.581,2.582-2.581c1.427,0,2.582,1.157,2.582,2.581
	C205.054,348.086,203.899,349.241,202.472,349.241"/>
<path d="M213.926,344.869c-1.425,0-2.581-1.157-2.581-2.583c0-1.424,1.156-2.581,2.581-2.581c1.426,0,2.582,1.157,2.582,2.581
	C216.507,343.712,215.352,344.869,213.926,344.869"/>
<path d="M220.189,344.05c-1.426,0-2.582-1.154-2.582-2.58s1.156-2.583,2.582-2.583s2.581,1.157,2.581,2.583
	S221.615,344.05,220.189,344.05"/>
<path d="M226.172,345.917c-1.426,0-2.582-1.154-2.582-2.581c0-1.426,1.156-2.582,2.582-2.582s2.583,1.156,2.583,2.582
	C228.755,344.763,227.598,345.917,226.172,345.917"/>
<path d="M231.255,350.035c-1.426,0-2.58-1.157-2.58-2.583c0-1.424,1.154-2.581,2.58-2.581s2.582,1.157,2.582,2.581
	C233.836,348.878,232.681,350.035,231.255,350.035"/>
<path d="M232.485,356.471c-1.426,0-2.583-1.155-2.583-2.58c0-1.426,1.157-2.583,2.583-2.583s2.58,1.157,2.58,2.583
	C235.065,355.315,233.911,356.471,232.485,356.471"/>
<path d="M208.455,347.451c-1.426,0-2.582-1.157-2.582-2.582c0-1.426,1.156-2.58,2.582-2.58s2.582,1.154,2.582,2.58
	C211.037,346.294,209.881,347.451,208.455,347.451"/>
<path d="M230.982,362.962c-1.427,0-2.583-1.156-2.583-2.582s1.156-2.581,2.583-2.581c1.425,0,2.58,1.155,2.58,2.581
	S232.408,362.962,230.982,362.962"/>
<path d="M228.446,369c-1.426,0-2.583-1.158-2.583-2.583c0-1.426,1.157-2.583,2.583-2.583s2.582,1.157,2.582,2.583
	C231.027,367.842,229.872,369,228.446,369"/>
<path d="M193.41,349.447c0.822,0,1.487-0.667,1.487-1.487c0-0.821-0.666-1.488-1.487-1.488c-0.82,0-1.487,0.667-1.487,1.488
	C191.923,348.78,192.59,349.447,193.41,349.447 M188.089,345.586c0-2.94,2.381-5.322,5.32-5.322s5.324,2.382,5.324,5.322
	c0,2.938-2.385,5.322-5.324,5.322S188.089,348.523,188.089,345.586z"/>
<polyline points="193.41,342.344 195.212,342.344 195.212,338.224 199.972,341.325 199.972,331.167 195.212,334.27 198.844,328.738 
	187.976,328.738 191.609,334.27 186.849,331.167 186.849,341.325 191.609,338.224 191.609,342.344 193.41,342.344 "/>
<path fill="#005AA1" d="M437.002,141.565l-21.389-19.629l0.804-0.876c2.37,2.176,4.531,1.786,7.889-1.874l17.028-18.555
	c3.122-3.402,2.946-5.176,0.577-7.352l0.804-0.877l10.566,9.696l-0.806,0.877c-2.473-2.271-4.669-1.533-7.556,1.611l-18.114,19.74
	c-2.129,2.32-1.727,3.641,0.747,5.91l5.877,5.392c3.556,3.264,5.244,3.391,10.412,0.347l0.875,0.804L437.002,141.565"/>
<path fill="#005AA1" d="M498.215,309.897c-5.315-0.877-6.786-0.127-7.298,2.98l-0.534,3.243c-0.661,4.005,1.405,8.242,7.203,9.2
	c5.798,0.955,10.46-2.813,11.611-9.783l0.614-3.729L498.215,309.897 M510.658,316.132c-0.956,5.798,1.777,9.866,6.747,10.685
	c4.968,0.82,8.989-1.636,10.049-8.057l0.648-3.935l-16.773-2.765L510.658,316.132z M523.031,308.601
	c5.039,0.832,6.475-0.138,7.022-3.45l1.173,0.194l-2.459,14.909c-1.57,9.523-6.891,12.974-11.93,12.142
	c-4.347-0.717-6.768-3.669-7.664-9.418l-0.137-0.022c-2.245,5.869-7.483,9.26-12.797,8.384c-5.938-0.98-8.8-6.841-7.571-14.295
	l3.007-18.223l1.173,0.193c-0.547,3.313,0.711,4.727,5.541,5.523L523.031,308.601z"/>
<path fill="#005AA1" d="M56.677,320.07l-0.625-4.856c-0.867-6.73-5.786-8.776-10.364-8.187c-5.274,0.679-8.512,5.116-7.724,11.222
	l0.534,4.163L56.677,320.07 M69.237,318.453c4.856-0.624,6.152-2.061,5.732-5.321l1.18-0.153l1.839,14.293l-1.179,0.153
	c-0.393-3.053-1.551-4.387-6.894-3.697l-24.909,3.207c-5.204,0.669-6.006,2.113-5.595,5.305l-1.179,0.153l-2.1-16.306
	c-1.153-8.952,3.428-13.913,8.702-14.594c4.37-0.562,8.351,1.322,10.836,6.929c3.832-8.042,16.623-12.227,16.259-18.882l1.181-0.149
	l1.045,8.116c-8.064,8.585-17.163,11.874-16.225,19.159l0.412,3.191L69.237,318.453z"/>
<path fill="#005AA1" d="M60.177,258.345l-0.079,1.187c-3.478,0.605-3.939,1.206-4.218,5.324l-0.668,9.911l14.307,0.968
	c1.956,0.131,2.77-0.514,2.92-2.749l0.473-6.979c0.396-5.862,0.216-7.348-4.858-10.074l0.08-1.188l7.346,2.321l-1.95,28.824
	l-1.187-0.078c0.211-3.141-0.671-4.604-5.974-4.963l-24.989-1.688c-4.956-0.336-6.426,0.688-6.657,4.106l-1.188-0.079l1.949-28.827
	l6.7,0.453l-0.049,0.768c-4.46,0.61-4.903,1.983-5.201,6.379l-0.778,11.517l17.1,1.157l0.754-11.167
	c0.184-2.723-0.232-3.804-3.616-4.592l0.082-1.187L60.177,258.345"/>
<path fill="#005AA1" d="M45.311,225.814l-0.035,0.137l15.123,9.571l2.745-10.922L45.311,225.814 M65.741,224.314l-3.157,12.551
	l7.138,4.607c3.474,2.244,6.222,3.657,7.313-0.398l1.154,0.291l-2.525,10.042l-1.153-0.29c0.378-3.8-1.367-5.176-4.657-7.303
	l-29.329-18.769l1.007-4.003l36.279-2.854c3.885-0.25,5.21-0.927,6.078-4.387l1.154,0.291l-3.445,13.706l-1.153-0.29
	c0.666-2.647-0.165-4.226-3.032-4.008L65.741,224.314z"/>
<path fill="#005AA1" d="M82.535,197.535c5.587,2.748,7.271,2.017,8.91-1.309l1.821-3.703c4.385-8.913,0.861-17.275-8.932-22.094
	c-8.6-4.231-19.391-4.163-24.983,7.197l-3.366,6.843L82.535,197.535 M59.036,191.895c-4.333-2.131-6.237-1.744-7.72,1.268
	l-1.067-0.524l8.184-16.633c6.765-13.746,19.204-15.733,28.557-11.131c9.039,4.447,14.575,14.268,7.626,28.391l-8.401,17.072
	l-1.068-0.524c1.421-2.889,0.753-4.698-3.704-6.892L59.036,191.895z"/>
<path fill="#005AA1" d="M106.611,158.283c4,2.822,5.888,2.698,7.823-0.048l0.97,0.686l-8.305,11.777l-0.973-0.686
	c1.896-2.687,1.593-4.441-2.58-7.385l-20.41-14.395c-4.115-2.903-5.847-2.754-7.823,0.047l-0.97-0.686l8.305-11.777l0.972,0.686
	c-1.935,2.745-1.363,4.604,2.582,7.385L106.611,158.283"/>
<path fill="#005AA1" d="M143.599,127.393l-0.814,0.868l-44.745-3.215l-0.095,0.102l20.513,19.236
	c2.961,2.775,5.132,2.606,7.62-0.046l0.868,0.813l-8.327,8.879l-0.868-0.814c2.298-2.449,2.633-4.339-1.602-8.312l-17.096-16.031
	c-3.266-3.062-5.916-3.917-9.475-0.735l-0.868-0.813l7.035-7.502l39.888,3.073l0.096-0.101l-17.096-16.031
	c-3.826-3.589-5.752-3.477-8.146-0.926l-0.868-0.813l8.278-8.828l0.868,0.814c-2.681,2.857-2.368,4.875,1.051,8.083L143.599,127.393
	"/>
<path fill="#005AA1" d="M176.009,103.389c-1.491,1.784-7.186,6.1-8.686,7.126c-14.551,9.952-25.405,4.492-30.619-3.131
	c-8.014-11.723-3.625-24.387,4.518-29.955c4.677-3.198,7.533-2.863,10.075-4.601c1.039-0.71,1.303-1.315,1.096-2.361l1.041-0.71
	l6.673,9.758l-0.924,0.632c-5.172-5.702-12.589-4.527-17.093-1.448c-6.813,4.661-7.886,14.123-1.685,23.188
	c6.634,9.701,17.306,12.913,25.158,7.542c2.369-1.618,5.15-4.368,3.135-7.313l-2.447-3.581c-2.764-4.042-4.675-4.854-7.39-2.998
	l-1.27,0.868l-0.673-0.981l13.396-9.162l0.673,0.981c-3.234,2.211-3.035,4.363-1.06,7.25L176.009,103.389"/>
<path fill="#005AA1" d="M204.048,81.957c1.664,4.605,3.282,5.583,6.438,4.443l0.406,1.118l-13.554,4.897l-0.404-1.118
	c3.159-1.141,3.801-2.861,2.114-7.533l-8.485-23.489c-1.71-4.737-3.281-5.584-6.438-4.443l-0.404-1.119l25.857-9.339l2.424,6.711
	l-0.855,0.31c-2.584-4.274-3.798-4.133-7.877-2.659l-9.607,3.47l5.705,15.79l9.802-3.542c2.831-1.022,3.359-2.849,2.596-5.995
	l1.052-0.38l3.826,10.594l-1.053,0.379c-1.105-2.649-2.992-3.754-5.623-2.803l-9.935,3.589L204.048,81.957"/>
<path fill="#005AA1" d="M245.909,77.374c10.006-1.176,14.098-11.306,12.964-20.963c-1.469-12.506-8.963-18.74-17.163-17.776
	c-9.38,1.101-14.448,9.516-13.093,21.049C229.981,71.286,236.948,78.427,245.909,77.374 M241.393,37.122
	c11.812-1.388,22.19,6.62,23.553,18.223c1.388,11.812-6.905,22.153-18.787,23.549c-11.88,1.396-22.274-6.751-23.664-18.562
	C221.107,48.52,229.234,38.55,241.393,37.122z"/>
<path fill="#005AA1" d="M293.179,73.928c10.067,0.363,15.656-9.026,16.007-18.743c0.454-12.583-6.004-19.886-14.253-20.184
	c-9.438-0.341-15.729,7.202-16.148,18.808C278.364,65.483,284.162,73.604,293.179,73.928 M294.848,33.457
	c11.887,0.429,20.924,9.925,20.502,21.601c-0.428,11.884-10.2,20.843-22.155,20.411c-11.954-0.431-20.987-10.068-20.558-21.952
	C273.063,41.633,282.615,33.017,294.848,33.457z"/>
<path fill="#005AA1" d="M334.752,73.772c-1.099,4.699-0.514,6.201,2.824,6.981l-0.271,1.157l-13.829-3.229l0.27-1.158
	c2.793,0.653,4.619,0.217,5.877-5.165l6.952-29.77l-5.653-1.321c-5.246-1.225-7.981-0.283-9.275,3.726l-1.157-0.271l2.082-8.923
	l1.159,0.27c0.435,0.604,0.969,1.088,1.857,1.583c0.838,0.411,2.033,0.834,3.667,1.216l20.438,4.773
	c3.406,0.794,5.066,0.751,6.533,0.016l1.226,0.287l-2.084,8.924l-0.75-0.175c0.015-3.445-0.738-6.063-6.938-7.512l-5.927-1.384
	L334.752,73.772"/>
<path fill="#005AA1" d="M362.354,81.416c-2.096,4.961-1.71,6.567,1.188,7.792l3.029,1.279c3.737,1.58,8.344,0.563,10.631-4.849
	c2.288-5.414-0.285-10.829-6.793-13.579l-3.48-1.47L362.354,81.416 M371.332,70.778c5.411,2.288,10.005,0.583,11.967-4.057
	c1.959-4.64,0.514-9.124-5.48-11.656l-3.673-1.552l-6.617,15.659L371.332,70.778z M366.906,56.985
	c1.987-4.704,1.384-6.327-1.71-7.634l0.462-1.095l13.919,5.882c8.893,3.757,11,9.735,9.013,14.438
	c-1.716,4.061-5.152,5.722-10.95,5.247l-0.056,0.128c5.181,3.556,7.25,9.442,5.154,14.405c-2.343,5.541-8.709,6.952-15.67,4.011
	l-17.011-7.188l0.461-1.095c3.094,1.305,4.762,0.417,6.667-4.095L366.906,56.985z"/>
<path fill="#005AA1" d="M415.738,78.21l-0.115-0.08l-14.239,10.842l9.283,6.377L415.738,78.21 M410.029,97.885l-10.666-7.33
	l-6.805,5.086c-3.313,2.476-5.593,4.559-2.173,6.994l-0.674,0.98l-8.534-5.863l0.673-0.98c3.433,1.678,5.329,0.521,8.467-1.821
	l27.809-20.956l3.403,2.338l-9.96,35.001c-1.119,3.729-0.945,5.206,1.995,7.227l-0.675,0.98l-11.646-8.002l0.675-0.98
	c2.247,1.545,4.016,1.317,4.813-1.447L410.029,97.885z"/>
<path fill="#005AA1" d="M437.002,141.565l-21.389-19.629l0.804-0.876c2.37,2.176,4.531,1.786,7.889-1.874l17.028-18.555
	c3.122-3.402,2.946-5.176,0.577-7.352l0.804-0.877l10.566,9.696l-0.806,0.877c-2.473-2.271-4.669-1.533-7.556,1.611l-18.114,19.74
	c-2.129,2.32-1.727,3.641,0.747,5.91l5.877,5.392c3.556,3.264,5.244,3.391,10.412,0.347l0.875,0.804L437.002,141.565"/>
<path fill="#005AA1" d="M457.092,167.956l-17.303-23.313l0.954-0.709c1.918,2.584,4.114,2.609,8.104-0.351l20.222-15.01
	c3.708-2.751,3.87-4.528,1.954-7.112l0.954-0.71l8.547,11.517l-0.954,0.708c-2.002-2.696-4.298-2.385-7.724,0.157l-21.517,15.97
	c-2.527,1.875-2.38,3.248-0.379,5.944l4.754,6.403c2.877,3.876,4.511,4.318,10.16,2.305l0.707,0.954L457.092,167.956"/>
<path fill="#005AA1" d="M507.672,207.312c6.386-4.488,8.012-9.51,5.578-15.992c-3.396-9.037-12.486-11.153-22.111-7.539
	c-11.265,4.232-16.476,12.839-13.303,21.287c2.215,5.895,6.611,9.25,13.171,10l-0.547,1.326c-6.896-0.25-12.866-4.808-15.572-12.012
	c-3.395-9.038-0.78-20.78,11.729-25.478c11.919-4.478,23.769,0.414,27.975,11.612c1.771,4.717,1.527,8.842,2.364,11.069
	c0.369,0.983,1.008,1.49,1.942,1.588l0.393,1.048l-11.199,4.205L507.672,207.312"/>
<path fill="#005AA1" d="M489.968,251.974l-6.306-28.34l1.16-0.258c0.701,3.141,2.697,4.06,7.543,2.981l24.584-5.471
	c4.508-1.002,5.38-2.558,4.68-5.701l1.161-0.257l3.114,13.998l-1.161,0.259c-0.729-3.279-2.951-3.93-7.117-3.004l-26.153,5.821
	c-3.072,0.683-3.496,1.996-2.767,5.273l1.73,7.786c1.048,4.711,2.361,5.779,8.341,6.241l0.259,1.161L489.968,251.974"/>
<path fill="#005AA1" d="M496.863,284.688c-4.656-3.629-6.955-7.721-7.209-13.032c-0.467-9.713,6.193-13.954,13.11-14.286
	l19.706-0.946c5.311-0.255,6.293-1.702,6.141-4.847l1.188-0.057l0.694,14.465l-1.188,0.056c-0.159-3.284-1.41-4.555-6.512-4.31
	l-20.263,0.971c-6.15,0.296-10.389,3.93-10.063,10.708c0.222,4.611,2.722,8.555,7.188,11.141l24.107-1.155
	c4.611-0.222,6.168-1.347,6.155-4.569l1.187-0.057l0.678,14.115l-1.189,0.058c-0.16-3.355-1.755-4.469-6.575-4.236l-24.946,1.196
	c-5.24,0.251-6.288,1.773-6.141,4.848l-1.189,0.057l-0.472-9.853L496.863,284.688"/>
<path fill="#005AA1" d="M180.542,493.754l-1.043-0.571c0.905-3.41,0.554-4.081-3.069-6.059l-8.718-4.762l-6.874,12.586
	c-0.939,1.72-0.694,2.729,1.27,3.802l6.141,3.355c5.157,2.816,6.581,3.274,11.184-0.19l1.042,0.569l-5.183,5.698l-25.357-13.847
	l0.569-1.045c2.762,1.509,4.461,1.319,7.009-3.347l12.004-21.979c2.381-4.361,2.071-6.125-0.94-7.768l0.572-1.044l25.356,13.848
	l-3.221,5.896l-0.676-0.368c1.315-4.305,0.255-5.282-3.613-7.396l-10.13-5.532l-8.214,15.044l9.823,5.364
	c2.395,1.308,3.55,1.381,5.685-1.359l1.042,0.57L180.542,493.754"/>
<path fill="#005AA1" d="M218.144,491.331l-1.124-0.39c1.357-5.824-1.849-9.382-5.682-10.714c-3.965-1.378-7.562-0.184-8.781,3.318
	c-2.434,7.005,6.571,12.207,10.105,19.508c1.725,3.563,1.559,6.17,0.686,8.683c-2.066,5.946-8.566,9.095-14.514,7.028
	c-4.029-1.402-6.71-4.555-7.968-4.992c-0.66-0.229-1.283,0.072-1.958,0.949l-1.122-0.391l3.559-10.243l1.123,0.392
	c-2.367,7.026,2.577,11.337,5.882,12.485c4.559,1.585,8.517-0.001,9.94-4.099c2.274-6.542-6.847-13.119-9.605-18.816
	c-1.509-3.117-1.516-6.082-0.483-9.057c2.021-5.813,7.562-8.332,13.707-6.196c4.031,1.399,5.443,3.521,6.895,4.025
	c0.596,0.207,0.773,0.119,1.36-0.713l1.057,0.368L218.144,491.331"/>
<path fill="#005AA1" d="M241.314,521.478c-0.868,4.747-0.214,6.219,3.158,6.835l-0.213,1.17l-13.971-2.555l0.216-1.169
	c2.821,0.515,4.623-0.009,5.617-5.444l5.5-30.073l-5.712-1.044c-5.299-0.97-7.984,0.104-9.083,4.171l-1.17-0.215l1.649-9.015
	l1.169,0.214c0.462,0.582,1.02,1.041,1.932,1.491c0.856,0.369,2.071,0.734,3.723,1.035l20.645,3.776
	c3.441,0.631,5.099,0.508,6.527-0.301l1.236,0.228l-1.648,9.016l-0.756-0.14c-0.154-3.441-1.033-6.02-7.295-7.165l-5.987-1.095
	L241.314,521.478"/>
<path fill="#005AA1" d="M265.509,531.282c0,1.828-1.477,3.375-3.304,3.375c-1.829,0-3.375-1.547-3.375-3.375
	c0-1.829,1.547-3.304,3.375-3.304C264.032,527.979,265.509,529.453,265.509,531.282"/>
<path fill="#005AA1" d="M305.915,526.692c0.294,3.716,1.05,4.36,4.483,4.091l0.083,1.052l-12.897,1.015l-0.082-1.051
	c3.294-0.26,4.085-0.956,3.787-4.741l-2.17-27.547c-0.095-1.191-0.319-1.385-0.671-1.357c-0.49,0.038-2.564,1.471-5.357,1.833
	l-0.095-1.192c4.235-2.66,7.762-5.337,8.928-7.543l1.192-0.095L305.915,526.692"/>
<path fill="#005AA1" d="M337.251,524.862c4.051-0.791,6.51-4.266,5.745-8.178c-0.778-3.982-4.771-6.909-11.059-8.816
	c-3.552,2.617-5.023,6.041-4.244,10.023C328.632,522.697,332.72,525.748,337.251,524.862 M335.17,502.889
	c3.207-2.553,3.552-5.541,2.947-8.63c-0.965-4.946-4.505-7.745-8.763-6.914c-3.638,0.71-5.875,3.856-5.205,7.289
	C324.819,498.065,327.909,500.386,335.17,502.889z M329.54,485.739c5.837-1.139,10.982,1.849,11.987,6.997
	c0.604,3.09-0.182,6.736-4.961,10.734c6.081,2.662,9.247,6.105,10.118,10.57c1.166,5.973-3.016,11.563-9.538,12.838
	c-6.591,1.287-12.039-1.784-13.139-7.414c-0.856-4.394,1.135-8.063,6.465-12.523c-5.371-1.59-8.743-4.992-9.603-9.387
	C319.745,491.788,323.292,486.961,329.54,485.739z"/>
<path fill="#005AA1" d="M346.25,481.181l1.11-0.425c0.372,0.382,0.628,0.659,1.029,0.729c0.402,0.071,0.883-0.038,1.536-0.289
	l20.646-7.9l0.499,1.308l1.157,41.578l-4.705,1.801l1.378-39.853l-16.398,6.275c-2.354,0.9-2.835,1.983-3.492,6.73l-1.111,0.425
	L346.25,481.181"/>
<path fill="#005AA1" d="M403.014,495.618c1.763,3.262,2.711,3.547,5.726,1.916l0.499,0.923l-11.325,6.118l-0.499-0.923
	c2.894-1.563,3.333-2.515,1.537-5.841l-13.065-24.188c-0.564-1.047-0.85-1.13-1.157-0.965c-0.431,0.233-1.741,2.371-4.137,3.824
	l-0.565-1.046c2.782-4.125,4.914-7.98,5.086-10.459l1.046-0.566L403.014,495.618"/>
</svg>
