<?xml version="1.0" encoding="utf-8"?>
<!-- Generator: Adobe Illustrator 12.0.0, SVG Export Plug-In  -->
<!DOCTYPE svg PUBLIC "-//W3C//DTD SVG 1.1//EN" "http://www.w3.org/Graphics/SVG/1.1/DTD/svg11.dtd" [
	<!ENTITY ns_flows "http://ns.adobe.com/Flows/1.0/">
	<!ENTITY ns_svg "http://www.w3.org/2000/svg">
	<!ENTITY ns_xlink "http://www.w3.org/1999/xlink">
]>
<svg  version="1.1" xmlns="&ns_svg;" xmlns:xlink="&ns_xlink;" xmlns:a="http://ns.adobe.com/AdobeSVGViewerExtensions/3.0/"
	 width="301" height="301" viewBox="-0.3779297 -0.3779297 301 301" enable-background="new -0.3779297 -0.3779297 301 301"
	 xml:space="preserve">
<defs>
</defs>
<polygon opacity="0" fill-rule="evenodd" clip-rule="evenodd" fill="#FFFFFF" points="0,0 300,0 300,300 0,300 0,0 "/>
<path fill-rule="evenodd" clip-rule="evenodd" fill="#0E005D" d="M149.9990234,13.2353516
	c17.0224609,21.1206055,31.125,29.7358398,48.8427734,35.0507813c17.4042969,5.1762695,33.6611328,6.3920898,60.6181641,6.3920898
	c0,29.7700195-1.8056641,54.1220703-7.8857422,82.8510742c-6.4257813,30.5341797-19.5576172,60.375-36.5107422,84.4130859
	c-17.6455078,25.046875-47.2431641,49.6416016-65.0644531,64.8222656
	c-17.8198242-15.1806641-47.4165039-39.7753906-65.0644531-64.8222656
	c-16.9521484-24.0380859-30.0830078-53.8789063-36.5097656-84.4130859
	c-6.0791016-28.7290039-7.8852539-53.0810547-7.8852539-82.8510742c26.956543,0,43.2143555-1.2158203,60.6176758-6.3920898
	C118.8740234,42.9711914,132.9780273,34.355957,149.9990234,13.2353516L149.9990234,13.2353516z"/>
<path fill-rule="evenodd" clip-rule="evenodd" fill="#FFFFFF" d="M149.9990234,23.2050781
	c-16.6738281,18.862793-29.5957031,25.8105469-46.6181641,31.0566406
	c-16.3271484,5.0712891-35.0859375,6.8427734-56.4155273,6.8076172c0,13.1318359,0.7299805,27.1660156,2.2587891,41.1308594
	h201.5512695c1.5283203-13.9648438,2.2587891-27.9990234,2.2587891-41.1308594
	c-21.3310547,0.0351563-40.0878906-1.7363281-56.4160156-6.8076172
	C179.5966797,49.015625,166.6728516,42.0678711,149.9990234,23.2050781L149.9990234,23.2050781z M71.2133789,185.3632813
	c5.3842773,11.6376953,11.7416992,22.7197266,18.9672852,32.8984375c0.5205078,0.7626953,1.0771484,1.5273438,1.5976563,2.2568359
	V107.6889648H71.2133789V185.3632813L71.2133789,185.3632813z M116.9633789,248.7265625
	c6.5654297,6.390625,13.5136719,12.7138672,20.5649414,18.8964844v-159.934082h-20.5649414V248.7265625L116.9633789,248.7265625z
	 M162.6435547,267.4501953c7.0527344-6.1835938,14.0351563-12.5058594,20.6015625-18.9316406V107.6889648h-20.6015625V267.4501953
	L162.6435547,267.4501953z M208.3945313,220.2753906c0.4863281-0.6591797,0.9726563-1.3193359,1.4238281-2.0136719
	c7.2958984-10.2841797,13.7236328-21.5390625,19.1767578-33.2802734v-77.2924805h-20.6005859V220.2753906L208.3945313,220.2753906z"
	/>
<path fill-rule="evenodd" clip-rule="evenodd" fill="#0E005D" d="M82.4677734,85.8735352l5.315918,0.5551758
	c-0.3481445,3.1264648-1.5639648,5.6972656-3.6826172,7.7119141c-2.1196289,2.0146484-4.9326172,3.0224609-8.371582,3.0224609
	c-2.9189453,0-5.2807617-0.6953125-7.0864258-2.1196289c-1.8071289-1.4580078-3.1962891-3.3686523-4.2041016-5.8354492
	c-0.972168-2.4667969-1.4589844-5.1757813-1.4589844-8.128418c0-4.7246094,1.1464844-8.6157227,3.4736328-11.6030273
	c2.2929688-2.9521484,5.4541016-4.4462891,9.484375-4.4462891c3.1611328,0,5.8012695,0.9379883,7.8852539,2.8481445
	c2.0844727,1.9106445,3.4042969,4.6206055,3.9604492,8.1635742l-5.315918,0.5561523
	c-0.9726563-4.6904297-3.1254883-7.0522461-6.4956055-7.0522461c-2.1191406,0-3.8212891,0.9726563-5.0019531,2.953125
	c-1.1811523,1.9448242-1.7714844,4.7939453-1.7714844,8.5112305c0,3.7514648,0.6254883,6.5996094,1.9101563,8.5449219
	c1.2851563,1.9458008,2.9526367,2.8833008,5.0722656,2.8833008c1.6669922,0,3.0913086-0.6254883,4.2729492-1.9453125
	C81.6342773,89.2080078,82.3291016,87.6791992,82.4677734,85.8735352L82.4677734,85.8735352z"/>
<path fill-rule="evenodd" clip-rule="evenodd" fill="#0E005D" d="M138.8134766,96.7119141h-6.0786133l-4.9331055-12.8540039
	h-8.0942383v12.8540039h-5.7314453V65.5166016h13.8256836c3.8212891,0,6.6704102,0.8334961,8.4418945,2.5361328
	c1.8061523,1.7011719,2.7089844,3.8901367,2.7089844,6.6000977c0,3.9951172-1.909668,6.7392578-5.7314453,8.2675781
	L138.8134766,96.7119141L138.8134766,96.7119141z M119.7075195,79.3764648h7.1567383
	c2.0493164,0,3.612793-0.4165039,4.6206055-1.2851563c1.0073242-0.8334961,1.4931641-2.0146484,1.4931641-3.5083008
	c0-1.3896484-0.4858398-2.5009766-1.4931641-3.3339844c-0.9736328-0.8344727-2.362793-1.2509766-4.1694336-1.2509766h-7.6079102
	V79.3764648L119.7075195,79.3764648z"/>
<path fill-rule="evenodd" clip-rule="evenodd" fill="#0E005D" d="M191.3027344,96.7119141h-6.1474609l-2.5371094-7.4345703
	h-12.2617188l-2.5009766,7.4345703h-4.8984375l10.5957031-31.1953125h7.0517578L191.3027344,96.7119141L191.3027344,96.7119141z
	 M181.0898438,84.7617188l-4.6542969-13.8959961l-4.6552734,13.8959961H181.0898438L181.0898438,84.7617188z"/>
<path fill-rule="evenodd" clip-rule="evenodd" fill="#0E005D" d="M233.5107422,85.8735352l5.3154297,0.5551758
	c-0.3486328,3.1264648-1.5644531,5.6972656-3.6835938,7.7119141c-2.1181641,2.0146484-4.9316406,3.0224609-8.3710938,3.0224609
	c-2.9179688,0-5.2802734-0.6953125-7.0869141-2.1196289c-1.8056641-1.4580078-3.1953125-3.3686523-4.203125-5.8354492
	c-0.9726563-2.4667969-1.4589844-5.1757813-1.4589844-8.128418c0-4.7246094,1.1464844-8.6157227,3.4726563-11.6030273
	c2.2939453-2.9521484,5.4550781-4.4462891,9.484375-4.4462891c3.1611328,0,5.8017578,0.9379883,7.8867188,2.8481445
	c2.0839844,1.9106445,3.4042969,4.6206055,3.9599609,8.1635742l-5.3154297,0.5561523
	c-0.9726563-4.6904297-3.1269531-7.0522461-6.4960938-7.0522461c-2.1191406,0-3.8212891,0.9726563-5.0019531,2.953125
	c-1.1806641,1.9448242-1.7724609,4.7939453-1.7724609,8.5112305c0,3.7514648,0.6259766,6.5996094,1.9111328,8.5449219
	c1.2851563,1.9458008,2.953125,2.8833008,5.0712891,2.8833008c1.6679688,0,3.0917969-0.6254883,4.2724609-1.9453125
	C232.6757813,89.2080078,233.3720703,87.6791992,233.5107422,85.8735352L233.5107422,85.8735352z"/>
</svg>
