<?xml version="1.0" encoding="utf-8"?>
<!-- Generator: Adobe Illustrator 19.1.0, SVG Export Plug-In . SVG Version: 6.00 Build 0)  -->
<svg version="1.1" id="Livello_1" xmlns="http://www.w3.org/2000/svg" xmlns:xlink="http://www.w3.org/1999/xlink" x="0px" y="0px"
	 viewBox="0 0 283.5 283.5" style="enable-background:new 0 0 283.5 283.5;" xml:space="preserve">
<style type="text/css">
	.st0{fill-rule:evenodd;clip-rule:evenodd;fill:#C3992D;}
	.st1{fill-rule:evenodd;clip-rule:evenodd;fill:#681A12;}
	.st2{fill-rule:evenodd;clip-rule:evenodd;fill:#FFFFFF;}
</style>
<g>
	<path class="st0" d="M141.7,281.6c-23.3-8.4-45-20.2-64.2-36c-28.7-23.7-50.2-54.9-62.9-90.6C5,128.1,0.2,98.5,0.3,67.5
		c0-16.4,1.5-33.1,3.9-48.7c6.8-2,13.6-3.7,20.5-5.2C41,10,58.4,7.6,75.4,6c23.8-2.2,46.9-2.9,66.3-2.9c19.4,0,42.6,0.7,66.3,2.9
		c17,1.6,34.4,4,50.7,7.5c6.9,1.5,13.8,3.3,20.5,5.2c2.5,15.6,3.9,32.3,3.9,48.7c0,31-4.8,60.6-14.4,87.6
		c-12.7,35.7-34.2,66.9-62.9,90.6C186.8,261.4,165,273.2,141.7,281.6L141.7,281.6z"/>
	<path class="st1" d="M141.7,274.9c50.4-18.6,86.8-52.1,109.1-94.5c23.4-44.6,31.1-99.2,22.8-156.6c-20.5-5.8-43.5-9.3-66.1-11.4
		c-23.4-2.2-46.4-2.8-65.8-2.8c-19.4,0-42.4,0.7-65.8,2.8C53.4,14.4,30.3,18,9.9,23.8c-8.3,57.4-0.6,112,22.8,156.6
		C54.9,222.8,91.4,256.3,141.7,274.9L141.7,274.9z"/>
	<polygon class="st2" points="226.4,36.2 229,42.4 235.3,40 232.8,46.1 239.1,48.9 232.9,51.5 235.3,57.8 229.1,55.3 226.4,61.5 
		223.8,55.4 217.5,57.8 220,51.6 213.8,48.9 219.9,46.3 217.5,40 223.7,42.5 226.4,36.2 	"/>
	<polygon class="st2" points="76.9,188.2 73.2,181.6 87.2,174 98.2,174 89.5,207.7 78.6,207.7 84.7,183.9 76.9,188.2 	"/>
	<path class="st2" d="M97.8,186.7c0,6.1,5.1,8.9,10.4,8.9c2.4,0,4.9-0.7,6.9-1.7c-1,5.2-5,6.9-9.4,7c-3.4,0.1-7.2-0.9-10-1.9
		l-1.8,7.1c3.6,1.3,7.8,2.2,11.8,2.2c8.4,0,14.5-3.6,18-9.5c1.9-3.2,3.4-8.2,3.5-12.8c0.1-9.1-5.5-12.4-14.3-12.4
		C104.9,173.4,97.9,178.5,97.8,186.7L97.8,186.7L97.8,186.7z M111.3,189.5c-2.4-0.1-3.9-1.7-3.9-3.9c-0.1-3.5,2.6-6,5.5-6
		c2.5,0,3.9,1.1,3.9,4C116.7,187,114.1,189.5,111.3,189.5L111.3,189.5z"/>
	<path class="st2" d="M152.3,186.7c0,6.1,5.1,8.9,10.4,8.9c2.4,0,4.9-0.7,6.9-1.7c-1,5.2-5,6.9-9.4,7c-3.5,0.1-7.2-0.9-10-1.9
		l-1.9,7.1c3.6,1.3,7.8,2.2,11.9,2.2c8.4,0,14.5-3.6,17.9-9.5c1.9-3.2,3.4-8.2,3.5-12.8c0.1-9.1-5.4-12.4-14.2-12.4
		C159.4,173.4,152.4,178.5,152.3,186.7L152.3,186.7L152.3,186.7z M165.8,189.5c-2.4-0.1-3.9-1.7-4-3.9c-0.1-3.5,2.7-6,5.6-6
		c2.4,0,3.9,1.1,3.9,4C171.2,187,168.6,189.5,165.8,189.5L165.8,189.5z"/>
	<polygon class="st2" points="139.4,183.9 133.2,207.7 144.2,207.7 152.8,174 141.8,174 127.9,181.6 131.6,188.2 139.4,183.9 	"/>
	<path class="st2" d="M110.8,153.4v-4.1h85.7l22.8,67.4L215,217c-3.2-10.5-6.3-20.2-12.3-29.4c-9.8-15-24.3-25.3-43.3-30.4
		C143.3,152.8,127.2,153.4,110.8,153.4L110.8,153.4z"/>
	<path class="st2" d="M30,44.6h107.3c-1.5,3.1-6.1,7.1-9.8,8.5h-20.6l-2.7,3.3H41.2c1.3,1.5,2.5,2.9,3.7,4.5h82.5l30.1,32.9
		c4.9-12.5,13.6-3.2,18.6,3c1.3-10.4,6.4-13.5,13-13.6c9.7-0.2,19.6,7.9,25,13c3.6-7.8,11.7-16.2,15.2-19.1c-9.6,0.8-42,0.8-35.6-18
		c-11.3,2.3-14-8.5-13.4-11.5c-7.8,6.6-18.2,2.9-18.1-12.7c-8.8,6.9-16.6,2.9-21.1-3.5l-0.7,5.4h-19l-2.7,3.3H24.8
		C26.5,41.4,28.3,42.9,30,44.6L30,44.6L30,44.6z M173.3,58.1c2.5,0,4.6,2,4.6,4.6c0,2.6-2.1,4.6-4.6,4.6c-2.6,0-4.6-2-4.6-4.6
		C168.6,60.1,170.7,58.1,173.3,58.1L173.3,58.1z"/>
	<path class="st2" d="M57.5,79.2h63.4l23.6,13.6c0.7-1.2,4.3-1.5,8,0.5l-25.4-27.7c-0.5,2.6-1.4,5.3-2,6H98.4l-2.7,3.3H54.9
		C55.7,76.3,56.6,77.7,57.5,79.2L57.5,79.2z"/>
	<path class="st2" d="M65.8,95.4h76.3l-24.4-14.1c-0.1,3-0.4,5.7-1.1,6.5H91.8L89,91.1H63.8C64.5,92.5,65.1,93.9,65.8,95.4
		L65.8,95.4z"/>
	<path class="st2" d="M71.8,112.5h85c-6.6-4.5-11.1-9.1-13-13.7h-34.5c-0.1,2.9-0.4,5.1-1.1,5.9H87.1l-2.7,3.3H70.5
		C71,109.5,71.4,111,71.8,112.5L71.8,112.5z"/>
	<path class="st2" d="M74.5,128.9H187c-7.4-4.2-15.5-9.3-20-13h-60.5c0,1.8,0,4-0.4,5.2H85.3l-2.7,3.3H74
		C74.2,125.8,74.4,127.4,74.5,128.9L74.5,128.9z"/>
	<path class="st2" d="M74.6,145.9h125.6c-4.2-3.6-9.5-9.2-13.1-13.6h-76.6c0.7,1.9,1,3.8,0.8,5.8H90.8l-2.7,3.3H74.6V145.9
		L74.6,145.9z"/>
</g>
</svg>
