<?xml version="1.0" encoding="UTF-8"?>
<svg id="Calque_2" data-name="Calque 2" xmlns="http://www.w3.org/2000/svg" viewBox="0 0 7261.84 8182">
  <defs>
    <style>
      .cls-1 {
        fill: #0057bf;
      }

      .cls-2 {
        fill: #e4b632;
      }

      .cls-3 {
        fill: #e2101a;
      }

      .cls-4 {
        fill: #fff;
      }

      .cls-5 {
        fill: #d97624;
      }
    </style>
  </defs>
  <g id="Capa_1" data-name="Capa 1">
    <path class="cls-4" d="M3502.89,8182c-222.05,0-428.47-44.07-613.5-131.01l-20.17-9.46-15.09-16.36c-228.77-247.71-478.15-505.32-791.67-698.45-332.65-75.5-574.12-421.19-663.73-568.65l-5.68-10.39c-38.95-77.79-92.19-159.83-158.19-243.86-175.19-222.98-366.43-402.05-568.42-532.19-165.02-106.35-261.75-197.03-332.56-397.42-21.81-61.77-47.08-121.93-73.81-185.63-24.24-57.78-49.32-117.54-71.67-178.78-36.01-98.58-64.84-188.19-85.72-266.34-79.28-297.1-36.28-591.64,16.23-840.59,21.15-100.14,43-203.66,54.15-311.48,11.31-109.13,2.16-211.72-27.2-304.91-177.33-574.48-67.58-1209.54,77.17-1819.21-83.98-28.31-153.6-92.46-192.06-181.07-59.01-135.93-32.32-293.07,67.98-400.33l113.45-121.35c73.41-78.5,167.05-121.75,263.69-121.75,122.77,0,240.83,71.03,300.77,180.93,45.32,83.11,52.55,178.49,22.66,267.56l1503.55,1614.77c26.71-17.72,53.78-34.88,81.11-51.46-.13-.33-.24-.67-.38-1-17.34-46.63-23.55-102.88-15.2-157.88l-174.46-39.37,105.48-179.51c-12.38-9.97-24.13-21.1-35.19-33.32-32.07-35.5-55.98-78.15-70.11-123.38-49.79-4.74-100.67-13.4-152.11-25.91-104.12-25.15-178.11-106.33-192.98-211.81-1.78-12.6-2.78-24.91-3-36.93-53.29-52.57-84.31-124.82-84.31-202.35,0-48.92,12.69-96.58,36.06-138.53-10.31-29.78-15.69-61.25-15.69-92.97,0-63.21,21.1-123.84,58.61-172.92-2.03-13.76-3.05-27.76-3.05-41.91,0-91.95,43.16-175.1,113.34-227.63,6.94-136.73,110.87-248.29,244.17-267.14,47.65-91.97,144.05-154.69,253.01-154.69,8.24,0,16.43.36,24.57,1.07,43.45-101.7,144.48-173.14,261.86-173.14,83.11,0,159.52,36.77,212.19,95.6,28.62-9.5,58.96-14.49,90.06-14.49,2.25,0,4.5.02,6.74.09,40.87-80.64,119.01-139.29,211.61-153.18V203.57h154.31V0h366.72v203.57h154.2v299.73c92.59,13.89,170.74,72.54,211.61,153.18,2.25-.07,4.52-.09,6.77-.09,31.09,0,61.43,4.99,90.06,14.49,52.66-58.83,129.07-95.58,212.19-95.58,117.39,0,218.4,71.45,261.84,173.14,8.15-.71,16.34-1.07,24.57-1.07,108.97,0,205.35,62.7,253.01,154.67,133.3,18.85,237.2,130.41,244.17,267.14,70.2,52.51,113.36,135.68,113.36,227.65,0,14.18-1.02,28.16-3.05,41.91,37.5,49.06,58.61,109.69,58.61,172.9,0,31.72-5.39,63.19-15.69,92.95,23.39,41.98,36.08,89.63,36.08,138.56,0,77.52-31.03,149.77-84.34,202.37-.22,12.04-1.22,24.39-3.03,37.06-14.78,105.28-88.76,186.45-193.04,211.67-51.3,12.49-102.16,21.15-151.98,25.91-14.13,45.21-38.04,87.85-70.09,123.31-11.06,12.26-22.84,23.39-35.21,33.36l105.44,179.51-174.44,39.37c8.35,55,2.14,111.25-15.2,157.88-.11.31-.22.62-.36.93,699.39,422.77,1128.75,1178.27,1128.75,2000.95,0,117.28-8.79,234.82-26.2,350.5,174.68,116.59,342.08,262.51,497.78,433.92l29.6,32.59v.22c48.5,53.42,98.38,107.64,150.37,163.06,65.3,69.58,125.98,132.5,185.45,192.35,128.52,129.36,235.36,231.71,336.18,322.07l158.01,141.63-205.33,53.53c-282.43,73.61-561.52,190.71-869.26,365.43l862.05,874.29-517.07,339.9-870.33-883.77c-32.34,21.72-64.75,43.65-97.24,65.71-211.23,143.39-429.27,291.4-659.7,424.26-389.94,224.78-756.21,367.3-1088.64,423.55-107.02,18.12-212.47,27.29-313.41,27.29ZM713.55,2087.48c48.74,119.88,104.06,238.65,166.4,357.55,189.26,360.89,433.45,720.09,763.02,1121.31,61.39-92.62,129.39-180.89,203.44-264.09l-1132.86-1214.77Z"/>
    <g>
      <path id="path5" d="M3369.45,317.52h154.22V113.97h138.78v203.56h154.21v138.78h-154.21v100.92c49.38,17.25,90.36,52.37,115.19,97.62,29.79-25.39,68.4-40.74,110.59-40.74,94.22,0,170.62,76.41,170.62,170.62,0,3.91-.14,7.78-.4,11.62,26.25-16.47,57.27-25.99,90.54-25.99,54.04,0,102.21,25.13,133.48,64.34,12.18-82.28,83.1-145.44,168.77-145.44,94.22,0,170.62,76.41,170.62,170.62,0,19.75-3.35,38.7-9.53,56.34,31.17-33.75,75.77-54.89,125.34-54.89,89.73,0,163.32,69.3,170.1,157.3,13.7-3.55,28.06-5.42,42.87-5.42,94.22,0,170.62,76.41,170.62,170.62,0,17.37-2.62,34.1-7.43,49.88,69.72,21.46,120.41,86.38,120.41,163.12,0,26.9-6.24,52.34-17.34,74.97,44.06,30.85,72.9,82.01,72.9,139.86,0,39.5-13.46,75.87-36.01,104.8,34.62,31.22,56.38,76.43,56.38,126.71,0,66.1-37.61,123.41-92.58,151.75,8.12,19.46,10.29,43.9,6.37,71.65-7.45,52.93-41.06,101-107.03,116.96-73.46,17.85-149.22,27.96-224.9,26.94,8.15,100.93-69.1,210.77-169.23,212.83l91.8,156.26-160.54,36.24c54.81,45.4,65.32,133.71,41.39,198.12-11.77,31.68-31.9,57.65-56.52,79.01,700.75,374.29,1177.75,1112.79,1177.75,1962.56,0,138.56-12.72,274.14-36.99,405.69,16.09,10.02,31.99,20.14,47.54,30.36,181.66,119.24,344.71,264.32,490.63,425v.13c58.18,64.42,118.17,129.87,181.23,197.09,61.56,65.59,124,130.59,187.71,194.72,111.11,111.81,223.54,221.35,340.97,326.62-376.45,98.1-705.85,259.36-1024.52,451.4l867.37,879.68-322.84,212.21-870.81-884.28c-58.62,38.9-117.3,78.46-176.3,118.51-212.18,144.04-425.69,289-652.64,419.83-362.92,209.22-718.77,353.75-1050.73,409.93-291.51,49.32-588.65,32.72-859.44-94.52-253.31-274.25-510.59-533.86-832.8-728.66-258.79-49.05-482.21-311.73-608.93-520.3l-1.18-2.23c-42.67-85.19-99.61-173.04-170.46-263.23-167.62-213.37-367.65-410.26-596.31-557.59-148.96-96-226.73-169.46-286.83-339.56-43.7-123.69-100.81-242.1-145.88-365.54-32.99-90.35-61.93-179.06-82.64-256.66-69.56-260.6-37.45-526.67,17.62-787.66,21.92-103.85,44.25-209.64,56.01-323.27,12.19-117.82,3.82-237.57-31.87-350.88-185.52-601.01-37.75-1282.76,110.35-1887.01-220.06,41.86-331.77-242.12-182.72-401.55l113.45-121.36c209.15-223.65,519.4,35.23,367.97,270.2l1623.35,1743.4c82.63-60.07,169.52-114.66,260.18-163.07-24.63-21.35-44.75-47.32-56.52-78.99-23.95-64.42-13.43-152.72,41.39-198.12l-160.54-36.24,91.8-156.26c-100.14-2.06-177.38-111.9-169.23-212.83-75.69,1.04-151.45-9.09-224.92-26.94-65.97-15.94-99.58-64.03-107.04-116.96-3.91-27.74-1.75-52.18,6.37-71.65-54.97-28.33-92.58-85.65-92.58-151.75,0-50.27,21.76-95.48,56.38-126.71-22.56-28.92-36.01-65.29-36.01-104.8,0-57.86,28.84-109.01,72.9-139.86-11.1-22.64-17.34-48.07-17.34-74.97,0-76.74,50.69-141.66,120.39-163.12-4.82-15.78-7.43-32.52-7.43-49.88,0-94.22,76.41-170.62,170.62-170.62,14.81,0,29.17,1.88,42.87,5.42,6.8-87.99,80.37-157.3,170.1-157.3,49.55,0,94.17,21.15,125.34,54.89-6.18-17.64-9.53-36.59-9.53-56.34,0-94.22,76.41-170.62,170.62-170.62,85.65,0,156.59,63.15,168.77,145.44,31.27-39.22,79.44-64.34,133.48-64.34,33.26,0,64.29,9.52,90.52,25.99-.26-3.84-.39-7.71-.39-11.62,0-94.22,76.41-170.62,170.62-170.62,42.22,0,80.85,15.35,110.63,40.75,24.83-45.24,65.8-80.37,115.15-97.62v-100.93h-154.22v-138.75h.1,0ZM1657.05,3761.14c95.08-167.76,211.38-321.92,345.17-458.91L442.58,1629.84c78.23,303.71,187.38,583.84,336.46,868.12,238.49,454.8,546.8,871.7,878.01,1263.18Z"/>
      <path id="path7" class="cls-1" d="M909.22,5511.01c-265.7-299.89-190.3-780.96-128.99-1171.9,9.04-57.67,17.78-113.36,25.1-166.52h0c14.69-176.01,16.88-362.85.4-545.17-14.53-160.72-43.57-317.98-91.31-461.29l-.23-.92c-13.23-93.67-18.26-193.65-16.91-293.93,1.5-110.26,10.71-220.82,25.23-323.75l1.47-10.31-4.33-8.21c-125.53-239.37-257.55-505.43-326.28-768.65-119.6,536.64-233.53,1133.26-74.59,1671.98,38.47,122.13,47.63,250.68,34.49,377.67-12.15,117.3-34.82,224.69-57.07,330.12-41.37,196.04-70.01,362.98-42.11,531.88,38.37,232.31,186.85,441.54,353.58,601.31,93.87,91.79,194.63,171.59,301.55,237.71Z"/>
      <path id="path9" class="cls-2" d="M4661.51,2411.1c-1.45-.6-2.88-1.24-4.33-1.9-161.46-73.1-332.3-128.2-509.78-165.06-359.82-74.71-748.9-74.71-1108.72,0-177.48,36.84-348.3,91.96-509.78,165.06-1.45.65-2.88,1.29-4.31,1.9l169.64,20.97,12.84,1.6-8.12,10.03-117.02,144.7c153.16-68.44,314.18-121.8,481.17-158.13,347.76-75.69,712.2-75.44,1059.94.23,164.71,35.85,326.08,88.64,481.16,157.91l-117.03-144.72-8.12-10.03,12.84-1.6s169.62-20.97,169.62-20.97Z"/>
      <path id="path11" class="cls-4" d="M1298.59,5681.95c-52.92-88.05-95.55-186.79-130.54-288.29-37.23-108.02-65.87-219.34-89.01-324.25h0c-50.41-220.55-31.19-442.86-11.86-666.65,11.51-133.16,23.06-266.85,20-400.53-5.91-56.9-13.23-114.43-20.63-172.45-30.52-239.8-62.12-488.26,1.87-716.39-121.44-181.5-234.33-368.47-336.17-560.47-12.98,97.47-23.07,215.78-24.47,318.44-1.35,99.56,3.65,198.86,16.78,291.95,47.91,143.98,77.05,301.86,91.64,463.13,16.55,183.1,14.38,370.54-.34,546.99l-.04.27c-7.27,52.86-16.07,108.95-25.17,167-62.84,400.67-140.55,896.61,151.95,1190.36,89.79,52.53,183.78,95.54,281.51,128.07,24.61,8.28,49.44,15.89,74.49,22.8Z"/>
      <path id="path13" class="cls-1" d="M1546.64,5726.6c-114.08-267.54-177.23-561.98-177.23-871.14,0-367.39,89.23-713.97,247.09-1019.32-191.68-226.11-373.95-463.56-540.34-711.22-60.2,223.74-29.14,467.83.86,703.53,7.43,58.36,14.79,116.23,20.67,172.82v.43c3.13,134.65-8.44,268.58-19.97,401.95-19.26,222.99-38.41,444.52,11.62,663.38v.04c23.04,104.42,51.56,215.32,88.74,323.15,36.05,104.58,80.19,206.1,135.27,295.7,75.79,20.05,153.6,33.74,233.3,40.67Z"/>
      <path id="path15" class="cls-1" d="M3246.19,7666.91c-21.49,97.15-52.67,193.92-93.24,289.59,195.36,53.76,408.36,57.69,633.31,19.62,323.92-54.81,672.3-196.5,1028.39-401.78,224.76-129.58,437.26-273.84,648.43-417.19,445.64-302.53,882.23-600,1424.92-754.03-62.58-57.8-122.82-119.22-182.8-180.37-695.5,14.35-1245.29,400.89-1791.61,785.04-55.69,39.16-111.35,78.29-167.78,117.46l-.26.19c-229.59,138.32-464.57,273.62-712.46,374.38-247.11,100.44-506.96,166.54-786.91,167.09Z"/>
      <path id="path17" class="cls-4" d="M3281.56,7341.68c.52,104.7-10.64,209.87-33.05,314.65,277.56-.91,535.37-66.59,780.63-166.28,247.2-100.48,481.75-235.54,710.95-373.63,55.43-38.48,111.42-77.86,167.45-117.25,545.04-383.26,1093.53-768.84,1787.6-786.68-18.63-18.99-37.23-37.95-55.89-56.73-59.69-60.07-117.75-120.32-174.62-180.68-197.22,14.65-379.76,58.88-554.65,122.09-178.04,64.36-348.2,148.38-517.86,240.85-331.73,210.02-668.67,420.74-1019.39,599.3-347.34,176.86-708.28,322.24-1091.17,404.37h0Z"/>
      <path id="path19" class="cls-1" d="M3194.51,6864.6c47.97,129.24,75.82,261.69,84.28,395.45,1.5,23.59,2.37,47.22,2.66,70.87,381.04-81.98,740.46-226.84,1086.48-403.03,350.5-178.46,687.17-389,1018.63-598.87l.29-.16c170.16-92.75,340.84-177.03,519.51-241.62,173.24-62.62,353.98-106.71,548.97-122.06l-5.13-5.46c-59.9-63.86-120.7-130.24-181.96-198.08l-.07.06c-30.81-33.93-62.42-67.13-94.83-99.55-767.96,28.28-1411.8,421.89-2038.68,805.18l-14.23,8.7-.33.19-11.59,5.97c-295.46,151.95-588.7,302.72-913.99,382.41Z"/>
      <path id="path21" class="cls-4" d="M3085.27,6634.23c42.03,72.15,77.15,145.74,105.52,220.43,324.54-79.31,617.61-230.01,912.9-381.85l11.43-5.88,14.06-8.6c625.37-382.36,1267.6-774.95,2034.01-806.28-58.41-57.82-119.4-113.01-183.04-164.93-201.27-35.08-402.5-28.49-596.01,7.03-223.61,41.04-437.03,120.74-628.49,219.44l-.27.11c-243.95,108.59-472.18,259.3-700.66,410.19-309.14,204.17-618.82,408.67-969.44,510.33Z"/>
      <path id="path23" class="cls-1" d="M2724.29,6215.45c124.13,97.81,235.3,219.31,328.15,364.95,9.4,14.75,18.5,29.57,27.3,44.45,350.16-100.96,659.9-305.51,969.15-509.72,228.74-151.06,457.23-301.94,701.91-410.89h.03c192.29-99.13,406.68-179.18,631.38-220.43,188.79-34.66,384.84-41.93,581.18-10.18-55.65-44.58-113.28-86.67-172.98-125.86-50.75-33.31-101.32-63.44-151.24-93.17-54.08-32.22-107.43-64-157.93-97.74-28.59-19.09-56.52-38.41-83.95-58.11-765.23-70.07-1370.93,335.19-1959.54,729.12-81.52,54.55-162.73,108.91-243.95,161.72l-.29.19c-151.11,84.89-304.9,168.82-469.21,225.67h0Z"/>
      <path id="path25" class="cls-4" d="M2440.43,6041.98c21.33,9.79,42.46,20.11,63.35,30.99,73.31,38.17,143.78,83.06,210.59,134.73,166.17-56.61,321.42-141.41,473.97-227.12,81.12-52.76,162.18-107.01,243.56-161.46,585.64-391.93,1188.13-795.09,1948.73-732.4-40.48-29.48-79.94-59.82-118.91-91.34-37.48-30.32-74.82-62-112.5-95.41-161.85-3.98-329.13,7.94-492.78,32.37-179.46,26.81-354.54,68.71-513.35,121.21l-.33.09c-300.09,78.53-558.96,260.53-818.18,442.75-140.81,98.99-281.73,198.05-429.51,280.77h0c-146.62,96.57-309.16,166.57-454.65,264.82h0Z"/>
      <path id="path27" class="cls-1" d="M561.11,5321.64c-96.19-92.18-182.8-199.19-250.35-313.08,14.4,45.14,30.55,92.05,47.8,139.3,45.14,123.63,102.37,242.2,146.14,366.06,55,155.7,123.11,217.33,259.76,305.39,121.31,78.17,229.98,167.83,334.43,267.7,106.36-52.92,214.38-93.24,325.37-123.84,112.78-31.11,226.87-49.6,340.37-53.45,229.63-7.82,456.94,34.11,664.55,127.17,146.89-100.37,311.93-170.82,460.45-268.72l.3-.22c147.38-82.5,288.05-181.39,428.59-280.19,259.88-182.68,519.44-365.15,821.27-444.23h0c159.34-52.67,335.02-94.71,515.12-121.62,159.96-23.89,323.46-35.85,482.17-32.75-29.18-26.09-58.57-53.25-88.41-81.55-51.16-48.56-100.81-98.69-148.56-150.71-44.62-48.63-87.58-98.83-128.54-150.84-340.55-3.48-673.76,86.9-978.54,235.48-242.54,118.24-469.63,266.02-680.07,434.64-222.76,178.44-430.95,338.79-696.53,454.65-156.17,68.13-321.51,119-498.15,147.65-253.97,41.2-493.34,19.13-715.45-55.73-240.37-76.15-456.95-213.13-641.71-401.1Z"/>
      <path id="path29" class="cls-4" d="M2978.46,7892.8c35.9,16.59,72.54,31.21,109.87,43.89,95.04-221.67,137.56-449.07,123.41-672.41-14.12-222.93-84.69-442.16-215.85-647.86-138.22-216.8-319.09-377.54-523.15-483.78-216.91-112.92-460.03-164.27-706.04-155.89-107.9,3.67-216.72,21.35-324.6,51.1-98.95,27.28-195.64,62.48-291.78,108.84,87.52,86.01,162.21,172.76,226.99,255.22,72.8,92.66,131.84,183.82,176.73,273.16,119.98,190.07,332.73,436.77,574.77,489.79,327.59,194.89,600.03,457.22,849.63,737.93Z"/>
      <polygon id="polygon31" class="cls-2" points="5914.69 6937.18 6712.9 7749.55 6561.64 7848.97 5763.63 7038.63 5914.69 6937.18"/>
      <path id="path33" class="cls-2" d="M529.47,1316.27l1676.98,1801c-45.58,36.41-89.67,74.62-132.24,114.46L404.87,1441.74c-49.01,32.76-108.05,39.73-154.22-6.44h0c-58.85-58.85-51.54-142.14,5.3-202.95l113.45-121.36c56.84-60.81,142.55-77.02,201.41-18.17h0c58.85,58.85,39.03,137.46-17.83,198.27l-23.53,25.19Z"/>
      <path id="path35" class="cls-2" d="M4536.63,2841.62c27.34-14.45,54.04-34.52,64.57-62.84,8.19-22.07,10.95-76.2-16.17-88.65-154.69-70.99-316.88-124.85-483.27-161.06-334.36-72.77-682.98-73-1017.36-.23-168.8,36.74-330.61,91.2-483.35,161.29-27.11,12.45-24.35,66.59-16.16,88.65,10.52,28.32,37.22,48.37,64.56,62.84,286.47-134.5,606.23-209.8,943.59-209.8s657.13,75.28,943.59,209.8Z"/>
      <path id="path37" d="M3257.32,2277.74c14.49,26.52.68,56.18-21.39,72.88-14.42,10.93-31.55,16.19-49.55,20.17l-214.67,47.44c-21.99,4.86-45.14,6.94-67.65-3.34-36.53-16.7-45.35-55.7-19.23-86.31,15.6-18.29,37.05-26.98,59.7-31.32l217.27-48.09c33.05-7.29,77.08-5.25,95.52,28.56Z"/>
      <path id="path39" class="cls-3" d="M3162.37,2256.44l-216.74,47.74c-20.51,4.51-40.55,11.41-55.5,28.94-23.06,27.03-15.41,60.66,16.83,75.41,20.27,9.27,42.72,7.94,63.18,3.41l215.03-47.61c15.86-3.34,31.57-8.45,44.72-17.9,19.9-14.27,34.2-40.17,21.84-64.32-16.6-32.37-59.08-32.34-89.36-25.67Z"/>
      <path id="path41" class="cls-1" d="M2066.67,6101.97c1.84-1.8,3.59-3.44,5.43-5.16,48.19,45.97,97.28,92.25,147.05,139.54,50.86,48.16,102.57,97.25,155.25,147.12-2.5,2.98-4.96,6.01-7.48,8.98-82.59-70.35-156.97-119.14-215.47-145.23-58.51-25.88-102.32-29.94-122.97-9.55-32.16,31.28,5.71,108.66,68.53,172.61,21.13,21.58,39.63,37.29,59.72,51.75,26.11,17.19,54.77,30.81,86.54,41.52,24.51,9.46,67.16,16.17,130.86,26.11,45.73,7.03,87.75,16.65,125.54,28.13,37.84,11.66,72.19,25.96,102.6,42.68,60.19,35.74,127.18,85.92,199.66,155.48,91.89,87.95,169.95,186.21,220.82,275.94,52.92,93.11,77.11,177.29,56.28,229.52-13.51,34-35.84,49.95-100.3,48.3-17.94,3.29-27.86,7.5-31.15,15.08-6.64,15.09,8.91,57.07,57.5,122.35-2.18,5.46-4.34,10.78-6.48,16.24-81.26-84.43-160.85-167.43-238.09-247.8-75.33-78.56-148.96-155.41-220.75-229.82,2.54-4.53,5.2-8.68,7.91-13.28,128.9,116.01,238.06,192.85,319.32,231.09,81.48,38.3,132.96,36.64,149.03-1.25,23.45-55.59-47.54-175.74-136.72-262.83-56.44-55.1-108.3-87.86-165.52-110.37-31.63-12.98-67.98-18.06-119.01-25.17-73.57-10.22-129.77-23.13-179.41-41.73-49.65-18.85-92.2-42.84-138.95-74.41-42.77-30.82-92.56-72.71-137.39-119.46-76.53-79.58-133.59-162.28-163.03-231.07-28.49-66.76-31.53-120.85-1.94-148.53,10.12-9.53,24.19-15.01,40.6-15.32,27.21-3.05,90.13,12.75,98.23,4.7,8.08-7.83,4.21-19.56-46.2-76.15Z"/>
      <path id="path43" class="cls-2" d="M3593.06,854.93c54.57,0,99.09-44.51,99.09-99.09s-44.51-99.09-99.09-99.09-99.09,44.51-99.09,99.09,44.52,99.09,99.09,99.09Z"/>
      <path id="path45" class="cls-3" d="M2199.1,1919.56c16.63-10.16,36.25-15.83,55.46-16.26,25.24-.57,51.03,7.65,70.97,26.09,3.97,3.68,7.27,7.13,9.82,10.31,1.27,1.58,2.43,3.23,3.51,4.9,4.2,5.75,7.49,11.21,10.06,16.42,43.08-6.4,83.59-19.98,121.06-39.7,39.09-20.59,74.85-47.74,106.67-80.33-22.56-18.53-39.69-44.05-47.68-74.36-8.42-32.03-5.35-64.45,6.7-92.81,11.69-27.54,32.01-51.28,58.59-67.16,2.42-36.6,17.75-67.02,40.34-89.62,18.6-18.62,41.9-31.63,66.66-38.14,1.14-.3,2.26-.58,3.39-.85-14.73-23.48-23.27-51.26-23.27-81.02,0-66.72,42.84-123.43,102.53-144.14-12.87-23.98-20.15-51.41-20.15-80.52,0-75.63,49.22-139.76,117.38-162.13-6.15-13.83-10.51-28.64-12.81-44.12-31.27,39.22-79.42,64.37-133.46,64.37-49.57,0-94.19-21.16-125.37-54.91,6.17,17.65,9.55,36.61,9.55,56.35,0,94.22-76.41,170.62-170.62,170.62-14.81,0-29.18-1.9-42.88-5.43-5.48,70.86-54.25,129.57-119.89,149.76,4.82,15.78,7.43,32.55,7.43,49.91,0,57.86-28.84,108.99-72.91,139.84,11.08,22.64,17.35,48.09,17.35,75,0,50.27-21.78,95.47-56.38,126.69,22.54,28.92,36.01,65.31,36.01,104.81.03,27.49-6.48,53.43-18.03,76.42Z"/>
      <path id="path47" class="cls-3" d="M3393.77,1501.51c-42.7-23.55-71.63-68.99-71.63-121.18,0-55.98,33.28-104.18,81.12-125.93-47.84-21.76-81.12-69.98-81.12-125.94,0-74.84,59.49-135.8,133.75-138.21,2.72-21.43,10.34-41.33,21.69-58.55-17.25-11.36-32.75-25.2-45.96-41.01-31.27,39.39-79.57,64.66-133.75,64.66-33.25,0-64.3-9.55-90.54-26.01.26,3.84.4,7.72.4,11.63,0,75.63-49.24,139.77-117.39,162.14,9.42,21.18,14.66,44.61,14.66,69.26,0,80.32-55.53,147.68-130.28,165.82,7.58,18.1,11.77,37.98,11.77,58.84,0,66.27-42.29,122.68-101.35,143.74,20.51,4.56,39.69,13.53,56.14,26.15,24.48,18.77,43.14,45.48,51.58,77.51,9.14,34.75,4.74,69.89-9.95,99.81,82.34,31.51,172.2,43.56,257.84,32.55,63.76-8.21,125.12-29.43,179-65.24-36.36-26.16-60.06-68.84-60.06-117.06,0-35.42,12.84-67.88,34.07-92.98Z"/>
      <path id="path49" class="cls-3" d="M3730.26,990.25c74.25,2.4,133.71,63.37,133.71,138.19,0,55.98-33.28,104.19-81.12,125.94,47.84,21.76,81.12,69.97,81.12,125.94,0,52.18-28.92,97.64-71.62,121.18,21.23,25.1,34.04,57.55,34.04,92.98,0,48.22-23.69,90.91-60.06,117.06,53.88,35.81,115.25,57.03,178.99,65.24,85.65,11.03,175.5-1.04,257.84-32.55-14.69-29.92-19.11-65.08-9.95-99.81,8.42-32.03,27.1-58.74,51.58-77.51,16.45-12.62,35.62-21.59,56.14-26.15-59.05-21.05-101.35-77.47-101.35-143.74,0-20.86,4.2-40.74,11.77-58.84-74.75-18.14-130.28-85.51-130.28-165.82,0-24.65,5.25-48.09,14.66-69.26-68.15-22.37-117.4-86.53-117.4-162.14,0-3.91.16-7.79.42-11.63-26.25,16.46-57.29,26.01-90.54,26.01-54.18,0-102.44-25.26-133.71-64.65-13.21,15.8-28.69,29.64-45.94,41,11.37,17.22,19,37.12,21.71,58.55Z"/>
      <path id="path51" class="cls-3" d="M4986.99,1919.56c-16.63-10.16-36.25-15.83-55.46-16.26-25.24-.57-51.03,7.65-70.97,26.09-3.97,3.68-7.27,7.13-9.82,10.31-1.27,1.58-2.43,3.23-3.51,4.9-4.2,5.75-7.49,11.21-10.06,16.42-43.08-6.4-83.59-19.98-121.06-39.7-39.1-20.59-74.85-47.74-106.67-80.33,22.56-18.53,39.69-44.05,47.68-74.36,8.41-32.03,5.35-64.45-6.7-92.81-11.69-27.54-32.01-51.28-58.59-67.16-2.42-36.6-17.75-67.02-40.34-89.62-18.59-18.62-41.9-31.63-66.66-38.14-1.14-.3-2.26-.58-3.39-.85,14.75-23.48,23.27-51.26,23.27-81.02,0-66.72-42.84-123.43-102.53-144.14,12.87-23.98,20.15-51.41,20.15-80.52,0-75.63-49.22-139.76-117.38-162.13,6.15-13.83,10.51-28.64,12.81-44.12,31.27,39.22,79.42,64.37,133.46,64.37,49.55,0,94.19-21.16,125.37-54.91-6.17,17.65-9.55,36.61-9.55,56.35,0,94.22,76.41,170.62,170.62,170.62,14.81,0,29.18-1.9,42.88-5.43,5.48,70.86,54.25,129.57,119.88,149.76-4.82,15.78-7.43,32.55-7.43,49.91,0,57.86,28.84,108.99,72.91,139.84-11.08,22.64-17.35,48.09-17.35,75,0,50.27,21.78,95.47,56.38,126.69-22.56,28.92-36.01,65.31-36.01,104.81-.01,27.49,6.5,53.43,18.04,76.42h0Z"/>
      <path id="path53" class="cls-2" d="M3593.06,1054.59c25.82,0,46.88-21.06,46.88-46.88s-21.05-46.88-46.88-46.88-46.86,21.06-46.86,46.88,21.05,46.88,46.86,46.88Z"/>
      <path id="path55" class="cls-2" d="M3593.06,1272.2c25.82,0,46.88-21.06,46.88-46.88s-21.05-46.88-46.88-46.88-46.86,21.06-46.86,46.88,21.05,46.88,46.86,46.88Z"/>
      <path id="path57" class="cls-2" d="M3460.42,1315.41c35.84,0,64.91,29.07,64.91,64.91,0,.68-.01,1.34-.04,2.01-26.34,14.06-47.78,36.05-61.15,62.78-1.24.07-2.46.12-3.71.12-35.85,0-64.91-29.07-64.91-64.91s29.07-64.91,64.91-64.91Z"/>
      <path id="path59" class="cls-2" d="M3460.42,1063.54c2.1,0,4.17.1,6.22.3,9.23,20.76,23.43,38.84,41.09,52.7-24.19,19-41.89,45.89-49.22,76.79-34.96-1.02-62.99-29.67-62.99-64.88s29.07-64.92,64.91-64.92Z"/>
      <path id="path61" class="cls-2" d="M3297.89,883.8c54.57,0,99.09-44.51,99.09-99.09s-44.51-99.09-99.09-99.09-99.09,44.51-99.09,99.09,44.51,99.09,99.09,99.09Z"/>
      <path id="path63" class="cls-2" d="M2046.55,1942.23c54.57,0,99.09-44.51,99.09-99.09s-44.51-99.09-99.09-99.09-99.09,44.52-99.09,99.09,44.51,99.09,99.09,99.09Z"/>
      <path id="path65" class="cls-2" d="M2066.92,1710.72c54.57,0,99.08-44.51,99.08-99.08s-44.51-99.09-99.08-99.09-99.09,44.52-99.09,99.09,44.51,99.08,99.09,99.08Z"/>
      <path id="path67" class="cls-2" d="M2122.46,1495.89c54.57,0,99.09-44.51,99.09-99.09s-44.51-99.09-99.09-99.09-99.09,44.51-99.09,99.09c.01,54.58,44.52,99.09,99.09,99.09Z"/>
      <path id="path69" class="cls-2" d="M2235.46,1282.9c54.57,0,99.09-44.51,99.09-99.09s-44.51-99.09-99.09-99.09-99.09,44.51-99.09,99.09,44.51,99.09,99.09,99.09Z"/>
      <path id="path71" class="cls-2" d="M2448.44,1131.03c54.57,0,99.09-44.51,99.09-99.09s-44.51-99.09-99.09-99.09-99.09,44.51-99.09,99.09,44.51,99.09,99.09,99.09Z"/>
      <path id="path73" class="cls-2" d="M2734.89,958.95c54.57,0,99.09-44.51,99.09-99.09s-44.51-99.09-99.09-99.09-99.09,44.51-99.09,99.09,44.51,99.09,99.09,99.09Z"/>
      <path id="path75" class="cls-2" d="M3037.12,1040.06c54.58,0,99.09-44.51,99.09-99.09s-44.51-99.09-99.09-99.09-99.09,44.52-99.09,99.09,44.52,99.09,99.09,99.09Z"/>
      <path id="path77" class="cls-2" d="M2934.39,1271.45c54.57,0,99.09-44.51,99.09-99.08s-44.51-99.09-99.09-99.09-99.09,44.51-99.09,99.09c.01,54.58,44.52,99.08,99.09,99.08Z"/>
      <path id="path79" class="cls-2" d="M2833.96,1478.05c44.62,0,81.02-36.38,81.02-81.02s-36.4-81.02-81.02-81.02-81.02,36.4-81.02,81.02,36.4,81.02,81.02,81.02Z"/>
      <path id="path81" class="cls-2" d="M5139.55,1942.23c54.57,0,99.09-44.51,99.09-99.09s-44.52-99.09-99.09-99.09-99.09,44.52-99.09,99.09c.01,54.58,44.52,99.09,99.09,99.09Z"/>
      <path id="path83" class="cls-2" d="M5119.18,1710.72c54.57,0,99.09-44.51,99.09-99.08s-44.51-99.09-99.09-99.09-99.09,44.52-99.09,99.09,44.52,99.08,99.09,99.08Z"/>
      <path id="path85" class="cls-2" d="M5063.62,1495.89c54.57,0,99.09-44.51,99.09-99.09s-44.51-99.09-99.09-99.09-99.09,44.51-99.09,99.09c.01,54.58,44.52,99.09,99.09,99.09Z"/>
      <path id="path87" class="cls-2" d="M4950.64,1282.9c54.58,0,99.09-44.51,99.09-99.09s-44.51-99.09-99.09-99.09-99.08,44.51-99.08,99.09,44.51,99.09,99.08,99.09Z"/>
      <path id="path89" class="cls-2" d="M4737.66,1131.03c54.57,0,99.09-44.51,99.09-99.09s-44.51-99.09-99.09-99.09-99.09,44.51-99.09,99.09,44.52,99.09,99.09,99.09Z"/>
      <path id="path91" class="cls-2" d="M4451.23,958.95c54.57,0,99.09-44.51,99.09-99.09s-44.52-99.09-99.09-99.09-99.09,44.51-99.09,99.09,44.51,99.09,99.09,99.09Z"/>
      <path id="path93" class="cls-2" d="M3888.21,883.8c54.57,0,99.09-44.51,99.09-99.09s-44.51-99.09-99.09-99.09-99.09,44.51-99.09,99.09,44.52,99.09,99.09,99.09Z"/>
      <path id="path95" class="cls-2" d="M4148.98,1040.06c54.57,0,99.09-44.51,99.09-99.09s-44.51-99.09-99.09-99.09-99.09,44.52-99.09,99.09,44.51,99.09,99.09,99.09Z"/>
      <path id="path97" class="cls-2" d="M4251.71,1271.45c54.57,0,99.09-44.51,99.09-99.08s-44.51-99.09-99.09-99.09-99.09,44.51-99.09,99.09,44.51,99.08,99.09,99.08Z"/>
      <path id="path99" class="cls-2" d="M4352.14,1478.05c44.62,0,81.02-36.38,81.02-81.02s-36.4-81.02-81.02-81.02-81.02,36.4-81.02,81.02,36.4,81.02,81.02,81.02Z"/>
      <path id="path101" class="cls-2" d="M3725.67,1315.41c-35.84,0-64.91,29.07-64.91,64.91,0,.68.01,1.34.03,2.01,26.34,14.06,47.78,36.05,61.17,62.78,1.22.07,2.46.12,3.69.12,35.84,0,64.91-29.07,64.91-64.91s-29.04-64.91-64.89-64.91Z"/>
      <path id="path103" class="cls-2" d="M3725.67,1063.54c-2.1,0-4.17.1-6.22.3-9.23,20.76-23.43,38.84-41.09,52.7,24.18,19,41.89,45.89,49.22,76.79,34.96-1.02,62.99-29.67,62.99-64.88.01-35.85-29.05-64.92-64.9-64.92Z"/>
      <path id="path105" class="cls-2" d="M2992.75,1986.05c-188.43,38.73-370.35,96.17-543.26,171.69-101.39,44.25-40.85,195.28,37.99,159.58,167.92-76.02,345.74-133.35,530.68-171.76,373.26-77.51,776.49-77.51,1149.73,0,184.94,38.4,362.76,95.74,530.68,171.76,78.85,35.69,139.4-115.33,37.99-159.58-172.89-75.51-354.81-132.96-543.25-171.69-390.51-80.26-810.06-80.26-1200.58,0Z"/>
      <polygon id="polygon107" points="3593.04 2208.18 3777.49 2281.9 3593.04 2355.62 3408.61 2281.9 3593.04 2208.18"/>
      <polygon id="polygon109" class="cls-1" points="3758.66 2281.9 3593.04 2215.7 3427.42 2281.9 3593.04 2348.08 3758.66 2281.9"/>
      <path id="path111" d="M3928.77,2277.74c-14.48,26.52-.66,56.18,21.41,72.88,14.42,10.93,31.55,16.19,49.55,20.17l214.67,47.44c21.99,4.86,45.14,6.94,67.65-3.34,36.53-16.7,45.35-55.7,19.23-86.31-15.6-18.29-37.05-26.98-59.72-31.32l-217.27-48.09c-33.03-7.29-77.07-5.25-95.53,28.56Z"/>
      <path id="path113" class="cls-3" d="M4023.73,2256.44l216.72,47.74c20.53,4.51,40.55,11.41,55.52,28.94,23.06,27.03,15.41,60.66-16.83,75.41-20.25,9.27-42.72,7.94-63.18,3.41l-215.03-47.61c-15.84-3.34-31.57-8.45-44.72-17.9-19.9-14.27-34.2-40.17-21.84-64.32,16.59-32.37,59.08-32.34,89.36-25.67Z"/>
      <path id="path115" class="cls-1" d="M2522.68,7373.72c-45.61-42.21-92.89-86.47-141.76-131.88-50.5-46.98-102.91-95.68-157.04-146.17,4.96-1.32,10.01-2.5,14.96-3.9,106.55,89.11,188.52,148.05,251.28,184.02,62.12,35.65,108.07,50.03,139.18,46.91,63.4-6.27,22.51-77.8-40.65-142.52-38.73-39.47-76.99-70.76-116.24-91.77-26.88-14-70.27-34.16-121.24-51.98-29.86-11.27-59.33-22.37-88.73-33.47-42.72-16.73-81.65-33.45-117.58-50.96-35.88-17.42-69.33-35.97-101.51-56.44-60.28-37.13-128.17-91.86-202.51-161.26-85.36-79.65-169.17-171.27-226.63-254.37-61.79-89.36-94-169.54-63.17-210.83,15.99-21.65,53.16-26.72,86.93-27.36,34.67-.78,65.87,3.75,68.28.78,11.53-13.6-12.75-46.59-58.98-102.87,5.36-7.36,10.87-14.55,16.3-21.98,85.02,90.13,166.42,176.36,244.09,258.36,73.95,78.42,145.21,153.69,213.13,225.52-6.21,4-12.31,7.89-18.56,11.73-102.44-91.86-209-173.93-297.21-227.09-89.31-53.95-156.26-75.99-179.2-48.93-29.94,35.33,36.83,138.36,134.88,232.71,60.82,58.32,108.19,96.37,144,115.61,35.69,19.16,100.3,45.64,186.67,76.76,37.69,13.44,75.95,27.05,114.44,40.97,46.75,14.61,94.86,36.73,141.14,65.97,89.5,52.86,170.25,119.6,246.24,200.67,66.37,70.9,118.15,144.62,134.6,200.28,15.4,51.68.29,87.55-62.1,92.48-26.35,1.95-63.8-5.39-107.18-18.92-6.1-1.8-12.08-3.59-18.01-5.39-9.03-2.57-17.87-5.22-21.46-4.76-12.69,1.18-2.93,14.07,19.71,38.77-5.33.46-10.77.93-16.09,1.32Z"/>
      <path id="path117" class="cls-5" d="M2870.73,5280.15c66.69-49.91,132.69-102.25,200.15-156.3,214.18-171.63,445.83-322.46,692.71-442.79,14.42-7.03,28.89-13.92,43.41-20.67-260.87-248.02-511.69-532.29-637.41-872.13-36.43-98.46-52.64-181.6-39.82-278.8-228.7,40.12-538.03,115.26-743.54,272.23-231.01,176.44-228.2,436.19-131.13,699.12,123.96,335.75,358.18,570.43,615.63,799.35Z"/>
      <path id="path119" class="cls-5" d="M1519.21,4401.5c-31.88,146.28-48.85,298.13-48.85,453.96,0,312.48,67.58,609.19,188.88,876.37,81.05.52,163.91-5.87,248.51-19.59,170.62-27.67,330.56-76.92,481.86-142.92,146.6-63.97,275.05-141.8,398.27-228.81-258.77-233.51-472.91-463.21-609.96-804.49-76.25-189.88-115.72-392.25-59.14-560.97-233.57,102.15-427.47,245.93-599.57,426.46Z"/>
      <path id="path121" class="cls-5" d="M3689.59,2735.05c-32.01-1.44-64.19-2.29-96.55-2.29-947.53,0-1750.15,621.22-2022.98,1478.46,187.14-170.06,401.62-308.19,642.44-393.37,220.88-260.86,614.19-358.52,939.64-412.47,24.11-72.96,68.05-161.36,124.71-241.21,71.5-100.77,149.45-195.3,238.7-281.96,53.69-52.1,111.37-101.26,174.04-147.16Z"/>
      <path id="path123" class="cls-5" d="M4655.29,3017.46c-83.31-48.26-170.25-90.97-260.24-127.71-131.32,49.06-245.16,122.26-347.55,210.46-93.8,80.78-178.61,174.69-258.74,274.46,140.87,87.85,277.3,182.54,410.35,282.42l70.87-99.38c-50.2-45.58-98.27-78.92-149-111.37-22.8-18.01-29.66-58.54-11.64-81.34,18-22.8,58.54-28.18,81.32-10.16,45.43,50.07,93.31,84.13,141.99,115l94.04-131.87c-34.16-29.35-71.27-53.49-109.77-75.01-22.22-15.34-27.8-45.81-12.46-68.04,15.35-22.22,45.81-27.82,68.04-12.46,32.62,31.3,68.02,58.81,106.15,82.67l73.33-102.83c-20.66-17.67-42.72-31.18-66.59-39.78-22.33-15.12-28.16-45.5-13.04-67.82,15.12-22.32,45.5-28.16,67.82-13.04,18.47,20.76,39.4,37.05,61.25,51.29,0,0,53.88-75.5,53.88-75.5Z"/>
      <path id="path125" class="cls-5" d="M4982.17,3250.53c-75.76-65.61-156.22-125.93-240.79-180.43l-61.67,86.47c21.42,20.13,45.43,36.79,70.15,52.76,19.56,18.62,20.36,49.6,1.72,69.16-18.62,19.58-49.58,20.36-69.16,1.72-14.98-21.85-32.32-40.01-51.56-55.14l-72.37,101.46c28.81,25.47,58.77,49.91,91.76,71.7,20.33,17.9,22.3,48.88,4.41,69.2-17.88,20.33-48.88,22.3-69.2,4.41-24.68-31.02-51.18-53.88-78.25-73.43l-96.43,135.19c43.41,40.87,89.85,76.95,140.84,114.17,21.76,19.26,22.31,65.94,3.05,87.7-19.26,21.78-59.97,16.36-81.75-2.9-38.63-44.16-77.71-80.16-123.27-113.26l-70.45,98.79c121.83,94.22,241.75,193.16,360.38,295.33,89.44-98.01,164.01-197.69,220.91-311.89,62.84-126.07,104.58-270.55,121.69-451.02Z"/>
      <path id="path127" class="cls-5" d="M5332.11,3638.38c-76.56-109.2-163.18-210.83-258.46-303.61-22.04,160.17-63.83,293.29-122.85,411.71-76.99,154.51-186.18,282.25-304.11,406.31-158.62-137.8-319.57-272.53-487.17-399.36-167.42-126.69-340.5-243.17-519.83-352.17,104.62-134.45,212.3-265.53,341.95-377.17,83.87-72.22,175.02-135.26,276.35-184.88-130.73-43.13-267.07-73.86-407.63-90.85-99.75,61.35-186.75,130.46-264.61,206.04-84.54,82.07-158.68,172.03-226.87,268.15-70.87,99.87-111.08,189.37-125.07,275.45-13.73,84.5-2.14,167.49,30.43,255.58,125.04,338,382.62,618.95,642.86,862.79,263.13-109.18,540.47-172.4,826.63-176.89,117.82-99.64,229.5-211.39,330.68-342.39,101.23-131.1,191.94-281.59,267.7-458.69Z"/>
      <path id="path129" class="cls-5" d="M5715.73,4855.46c0-410-116.4-792.83-317.83-1117.39-73.67,159.77-159.38,298.16-253.84,420.5-94.2,121.99-197.13,227.97-305.54,323.25,232.15,287.21,518.19,526.41,835.11,715.19l13.46,8.01c18.83-113.72,28.64-230.5,28.64-349.55Z"/>
      <path id="path131" class="cls-1" d="M4632.93,2612.55l-140.16-173.34,214.65-26.54,96.27,162.03-170.77,37.85h0ZM2553.2,2612.55l140.16-173.34-214.65-26.54-96.27,162.03s170.77,37.85,170.77,37.85Z"/>
      <path id="path133" class="cls-2" d="M3512.05,1485.38c-6.37,24.8-11.79,25.17-36,31.4-36.07,9.29-62.72,42.05-62.72,80.99,0,58.18,76.39,101.29,129.93,84.47-166.47,184.88-454.75,190.24-665.19,78.85,42.91-12.91,68.17-57.66,56.67-101.33-9.92-37.68-44.05-62.56-81.28-62.35-25.01.16-30.35,1.18-42.82-21.18-41.5-74.31-157.12-43.85-156.63,41.29.17,25.57-4.97,27.31-26.81,39.52-32.53,18.16-49.94,56.62-40.04,94.3,10.68,40.51,49.28,66.23,89.69,61.87-13.28,19.49-27.7,37.65-42.85,54.44-74.78,92.82-173.89,152.39-294.9,155.23-60.69,6.34-25.63-14.19-50.82-45.7-15.84-19.81-50.07-17.16-66.62.72-29.92,32.34-54.2,39.68-109.11,26.34-53.17-12.87-72.9,68.63-19.72,81.49,222.63,54.09,453,32.39,603.28-161.9,32.65-36.14,62.35-77.64,86.22-124.12,238.24,148.17,595.26,156.53,810.73-47.14h0c215.47,203.66,572.5,195.29,810.73,47.14,23.88,46.48,53.59,87.99,86.22,124.12,150.28,194.3,380.65,215.99,603.28,161.9,53.19-12.87,33.45-94.36-19.72-81.49-54.91,13.34-79.19,6.01-109.1-26.34-16.56-17.9-50.79-20.54-66.63-.72-25.19,31.5,9.88,52.04-50.82,45.7-121.01-2.85-220.13-62.42-294.9-155.23-15.17-16.79-29.58-34.95-42.85-54.44,40.41,4.36,79.01-21.36,89.69-61.87,9.9-37.68-7.5-76.13-40.04-94.3-21.84-12.19-26.97-13.94-26.8-39.52.47-85.12-115.15-115.59-156.63-41.29-12.48,22.35-17.8,21.33-42.82,21.18-37.22-.22-71.36,24.67-81.28,62.35-11.5,43.67,13.77,88.41,56.67,101.33-210.46,111.41-498.74,106.03-665.19-78.85,53.53,16.82,129.93-26.29,129.93-84.47,0-38.94-26.65-71.72-62.72-80.99-24.22-6.22-29.64-6.6-36-31.4-21.16-82.14-140.91-82.14-162.03,0Z"/>
      <path id="path135" d="M3590.67,1628.89c24.73,0,44.91-20.18,44.91-44.92s-20.18-44.91-44.91-44.91-44.92,20.18-44.92,44.91c.01,24.75,20.2,44.92,44.92,44.92Z"/>
      <circle id="circle137" cx="2757.44" cy="1692.22" r="44.91"/>
      <circle id="circle139" cx="4428.64" cy="1692.22" r="44.91"/>
    </g>
  </g>
</svg>