<?xml version="1.0" encoding="UTF-8" standalone="no"?>
<!-- Generator: Adobe Illustrator 25.4.1, SVG Export Plug-In . SVG Version: 6.00 Build 0)  -->

<svg
   version="1.1"
   id="Livello_1"
   x="0px"
   y="0px"
   viewBox="0 0 599.99997 739.69354"
   xml:space="preserve"
   sodipodi:docname="Logo Spezia Calcio - 2023.svg"
   width="600"
   height="739.69354"
   inkscape:version="1.2 (dc2aeda, 2022-05-15)"
   xmlns:inkscape="http://www.inkscape.org/namespaces/inkscape"
   xmlns:sodipodi="http://sodipodi.sourceforge.net/DTD/sodipodi-0.dtd"
   xmlns="http://www.w3.org/2000/svg"
   xmlns:svg="http://www.w3.org/2000/svg"><defs
   id="defs157" /><sodipodi:namedview
   id="namedview155"
   pagecolor="#ffffff"
   bordercolor="#000000"
   borderopacity="0.25"
   inkscape:showpageshadow="2"
   inkscape:pageopacity="0.0"
   inkscape:pagecheckerboard="0"
   inkscape:deskcolor="#d1d1d1"
   showgrid="false"
   inkscape:zoom="0.90769231"
   inkscape:cx="101.35593"
   inkscape:cy="124.49153"
   inkscape:window-width="1440"
   inkscape:window-height="900"
   inkscape:window-x="0"
   inkscape:window-y="0"
   inkscape:window-maximized="0"
   inkscape:current-layer="Livello_1" />
<style
   type="text/css"
   id="style132">
	.st0{fill:#FFFFFF;}
</style>
<g
   id="g466"
   transform="matrix(2.9658922,0,0,2.9658922,-80.968857,-15.719229)"
   style="stroke-width:0.337167"><path
     class="st0"
     d="m 29.6,142.1 c 2.2,-5.4 4.8,-10.7 7.7,-15.7 8.6,-15.1 20,-28.3 33.6,-39.2 C 79.5,80.3 89,74.5 99.1,69.9 l 2.2,-1 2.2,1 c 8.8,4 17.1,9 24.9,14.8 7.8,-5.8 16.1,-10.8 24.9,-14.8 l 2.2,-1 2.2,1 c 10,4.6 19.5,10.4 28.2,17.3 19.5,15.5 34.3,36 43,59.2 0.5,-4.3 0.7,-8.7 0.7,-13.2 0,-14 -2.3,-27.5 -6.7,-40 -5.9,-17.3 -15.6,-32.8 -28,-45.7 -15.2,8.9 -32.4,14.8 -50.7,17 l -4,-8.9 c -0.2,-0.5 -0.2,-1.1 0.1,-1.6 0.3,-0.5 0.7,-1.1 1.2,-1.7 1,-1.5 2.3,-3.4 3.2,-4.7 0,0 1.3,-2 2.8,-2.3 0.1,0 0.2,0 0.3,0 h 0.1 c 0.9,0 1.7,0.7 1.8,1.7 0.4,-1.4 0.6,-2.8 0.5,-4.2 -0.2,-5.5 -2.6,-5 -8.8,-3.9 -1,0.2 -1.5,0.3 -1.5,0.3 -1.9,-2.7 -5,-2 -7.6,-0.9 -0.1,0 -0.1,0 -0.1,0.1 -3.8,1.7 -7,4.3 -10.1,7 -0.8,0.7 -1.5,1.6 -1.9,2.6 l -7.5,16.6 c -0.2,0 -0.3,0 -0.5,-0.1 C 94.1,62.3 77.1,56.4 62,47.6 49.6,60.4 39.9,76 34,93.2 c -4.3,12.6 -6.7,26 -6.7,40.1 0,4.5 0.3,9 0.7,13.4 0.4,-1.6 1,-3.1 1.6,-4.6"
     id="path134"
     style="fill:#000000;stroke-width:0.337167" /><path
     class="st0"
     d="m 128.4,228.5 c -7.1,5.3 -14.6,9.9 -22.6,13.7 l 18.5,10.2 4.1,2.3 3.8,-2.1 18.8,-10.4 c -8,-3.9 -15.6,-8.4 -22.6,-13.7"
     id="path136"
     style="fill:#000000;stroke-width:0.337167" /><path
     class="st0"
     d="m 196.5,163.8 c -8.9,19.1 -23.1,34.8 -41,45.7 -2.7,-1.6 -5.4,-3.4 -7.9,-5.3 5.2,-6.1 9.8,-12.8 13.8,-19.7 2.8,-4.9 5.3,-10 7.4,-15.2 1.7,-4.1 3.2,-8.3 4.4,-12.5 l 0.1,-0.2 -0.1,-0.2 c -1.3,-4.2 -2.7,-8.5 -4.4,-12.5 l -0.2,-0.5 h -51.1 c 3.1,-5.7 6.8,-11.1 10.9,-16.2 0.7,0.8 1.3,1.6 1.8,2.3 l 0.2,0.3 H 162 l -0.6,-1.1 c -4,-7 -8.6,-13.6 -13.8,-19.7 2.5,-1.9 5.2,-3.6 7.9,-5.3 18,10.8 32.2,26.6 41,45.7 l 0.2,0.4 h 28.5 l -0.4,-1 C 216.5,126 202,106 183,90.8 174.6,84.1 165.5,78.5 155.8,74.1 l -0.3,-0.1 -0.3,0.1 C 145.7,78.5 136.7,84 128.4,90.5 120.2,84 111.2,78.5 101.6,74.1 L 101.3,74 H 101 c -9.7,4.4 -18.9,10.1 -27.2,16.7 -13.2,10.5 -24.1,23.2 -32.5,37.9 -2.8,4.9 -5.3,10 -7.4,15.2 -1.7,4.1 -3.2,8.3 -4.4,12.5 l -0.1,0.2 0.1,0.2 c 1.3,4.2 2.7,8.4 4.4,12.5 l 0.2,0.5 h 54.2 c 5.2,12.5 12.3,24.1 21,34.4 -2.5,1.9 -5.2,3.6 -7.9,5.3 -11.2,-6.8 -21,-15.4 -29,-25.8 l -0.2,-0.3 H 40.6 l 0.6,1.1 c 8.4,14.6 19.3,27.4 32.5,37.9 8.4,6.7 17.5,12.3 27.2,16.7 l 0.3,0.1 0.3,-0.1 c 9.5,-4.4 18.5,-9.9 26.8,-16.4 8.2,6.5 17.2,12 26.8,16.4 l 0.3,0.1 0.3,-0.1 c 9.7,-4.4 18.9,-10.1 27.2,-16.7 19.1,-15.2 33.5,-35.2 41.8,-58 l 0.4,-1 h -28.5 z m -57.2,6 c -2.6,4.8 -5.7,9.5 -9.1,13.9 -0.6,0.8 -1.2,1.6 -1.8,2.3 -4.1,-5.1 -7.8,-10.5 -10.9,-16.2 z M 109.2,109 c -8.7,10.4 -15.8,21.9 -21,34.4 h -25 c 2.7,-4.9 5.7,-9.5 9.1,-13.9 8,-10.4 17.7,-19.1 29,-25.8 2.7,1.6 5.4,3.4 7.9,5.3"
     id="path138"
     style="fill:#000000;stroke-width:0.337167" /></g><g
   id="g461"
   transform="matrix(2.9658922,0,0,2.9658922,-80.968857,-15.719229)"
   style="stroke-width:0.337167"><path
     class="st0"
     d="m 87.1,17.7 c 0.5,0 1.1,-0.1 1.7,-0.2 0.6,-0.1 1.3,-0.2 2,-0.4 0.8,-0.2 1.5,-0.3 2.2,-0.4 0.7,-0.1 1.3,-0.2 2,-0.3 0.6,-0.1 1.2,0 1.8,0.2 0.6,0.2 1,0.5 1.4,1 0.4,0.5 0.7,1.1 0.9,1.9 0.4,1.4 0.4,2.5 0.1,3.4 -0.4,0.9 -1,1.6 -2,2.2 -1,0.6 -2.2,1.1 -3.7,1.5 -1.6,0.5 -3,0.8 -4.1,0.9 -1.2,0.1 -2.2,-0.1 -3.2,-0.5 -1,-0.5 -1.7,-1.5 -2.3,-3.3 l 3.5,-1.1 c 0.2,0.8 0.8,1.2 1.6,1.4 0.9,0.2 2,0 3.3,-0.4 1.5,-0.5 2.4,-0.9 2.8,-1.4 0.4,-0.5 0.5,-1 0.4,-1.5 -0.1,-0.3 -0.4,-0.5 -0.9,-0.6 -0.5,0 -1.1,0 -1.8,0.1 -0.8,0.1 -1.5,0.2 -2.3,0.4 -0.8,0.2 -1.4,0.3 -2.1,0.4 -0.6,0.1 -1.3,0.2 -2,0.3 -0.7,0 -1.3,0 -1.9,-0.2 C 84,21 83.5,20.6 83,20.1 82.6,19.6 82.2,19 82,18.2 81.6,17 81.6,16 81.9,15.2 c 0.3,-0.8 1,-1.6 2.1,-2.2 1.1,-0.6 2.4,-1.2 4.1,-1.7 1.7,-0.5 3.1,-0.8 4.2,-0.8 1.1,0 2.1,0.2 3,0.7 0.9,0.5 1.6,1.5 2,2.9 L 94,15.2 c -0.2,-0.6 -0.7,-1 -1.5,-1.1 -0.8,-0.1 -1.9,0 -3.1,0.4 -1.4,0.4 -2.4,0.9 -2.8,1.2 -0.5,0.4 -0.6,0.8 -0.4,1.3 0,0.5 0.3,0.7 0.9,0.7"
     id="path140"
     style="fill:#000000;stroke-width:0.337167" /><path
     class="st0"
     d="M 99.7,8.4 108.3,7 c 1.3,-0.2 2.5,-0.2 3.6,0 1,0.2 1.9,0.7 2.5,1.4 0.6,0.7 1,1.6 1.2,2.7 0.3,1.7 0.1,3.1 -0.7,4.1 -0.7,1 -2.3,1.8 -4.8,2.2 l -4.7,0.8 0.8,4.8 -4,0.6 z m 9.6,5.9 c 1.1,-0.2 1.7,-0.5 1.9,-0.9 0.2,-0.4 0.3,-1 0.2,-1.6 -0.1,-0.6 -0.3,-1.1 -0.7,-1.4 -0.4,-0.3 -1,-0.4 -1.9,-0.2 l -4.5,0.7 0.7,4.1 z"
     id="path142"
     style="fill:#000000;stroke-width:0.337167" /><polygon
     class="st0"
     points="132.3,17.6 132.4,20.7 118.8,21.1 118.4,5.7 132,5.3 132.1,8.5 122.5,8.8 122.6,11.6 131.8,11.4 131.8,14.5 122.7,14.7 122.8,17.8 "
     id="polygon144"
     style="fill:#000000;stroke-width:0.337167" /><polygon
     class="st0"
     points="134.5,17.5 144.7,9.8 135.4,8.8 135.8,5.5 150.1,7 149.8,10.3 139.6,18.1 148.8,19.1 148.5,22.4 134.1,20.8 "
     id="polygon146"
     style="fill:#000000;stroke-width:0.337167" /><rect
     x="7.8773093"
     y="151.85995"
     transform="rotate(-78.369832)"
     class="st0"
     width="15.400483"
     height="4.1001287"
     id="rect148"
     style="fill:#000000;stroke-width:0.337177" /><path
     class="st0"
     d="m 170.6,25.3 -7.9,-2.6 -2.2,2.5 -4.2,-1.4 11.3,-12.5 5.9,2 1.6,16.8 -4.2,-1.4 z m -0.4,-3.6 -0.6,-6.2 -0.3,-0.1 -4.2,4.6 z"
     id="path150"
     style="fill:#000000;stroke-width:0.337167" /></g>
</svg>
