<?xml version="1.0" encoding="UTF-8"?>
<svg id="Calque_2" data-name="Calque 2" xmlns="http://www.w3.org/2000/svg" xmlns:xlink="http://www.w3.org/1999/xlink" viewBox="0 0 804.02 761.37">
  <defs>
    <style>
      .cls-1 {
        fill: none;
      }

      .cls-2 {
        clip-path: url(#clippath-17);
      }

      .cls-3 {
        clip-path: url(#clippath-11);
      }

      .cls-4 {
        clip-path: url(#clippath-16);
      }

      .cls-5 {
        clip-path: url(#clippath-10);
      }

      .cls-6 {
        clip-path: url(#clippath-15);
      }

      .cls-7 {
        clip-path: url(#clippath-13);
      }

      .cls-8 {
        clip-path: url(#clippath-14);
      }

      .cls-9 {
        clip-path: url(#clippath-12);
      }

      .cls-10 {
        clip-path: url(#clippath-1);
      }

      .cls-11 {
        clip-path: url(#clippath-3);
      }

      .cls-12 {
        clip-path: url(#clippath-4);
      }

      .cls-13 {
        clip-path: url(#clippath-2);
      }

      .cls-14 {
        clip-path: url(#clippath-7);
      }

      .cls-15 {
        clip-path: url(#clippath-6);
      }

      .cls-16 {
        clip-path: url(#clippath-9);
      }

      .cls-17 {
        clip-path: url(#clippath-8);
      }

      .cls-18 {
        clip-path: url(#clippath-5);
      }

      .cls-19 {
        clip-path: url(#clippath);
      }
    </style>
    <clipPath id="clippath">
      <rect class="cls-1" x="0" y="0" width="804.02" height="761.37"/>
    </clipPath>
    <clipPath id="clippath-1">
      <rect class="cls-1" x="0" y="0" width="804.02" height="761.37"/>
    </clipPath>
    <clipPath id="clippath-2">
      <rect class="cls-1" x="0" y="0" width="804.02" height="761.37"/>
    </clipPath>
    <clipPath id="clippath-3">
      <rect class="cls-1" x="0" y="0" width="804.02" height="761.37"/>
    </clipPath>
    <clipPath id="clippath-4">
      <rect class="cls-1" x="0" y="0" width="804.02" height="761.37"/>
    </clipPath>
    <clipPath id="clippath-5">
      <rect class="cls-1" x="0" y="0" width="804.02" height="761.37"/>
    </clipPath>
    <clipPath id="clippath-6">
      <rect class="cls-1" x="0" y="0" width="804.02" height="761.37"/>
    </clipPath>
    <clipPath id="clippath-7">
      <rect class="cls-1" x="0" y="0" width="804.02" height="761.37"/>
    </clipPath>
    <clipPath id="clippath-8">
      <rect class="cls-1" y="0" width="804.02" height="761.37"/>
    </clipPath>
    <clipPath id="clippath-9">
      <rect class="cls-1" x="0" y="0" width="804.02" height="761.37"/>
    </clipPath>
    <clipPath id="clippath-10">
      <rect class="cls-1" x="0" y="0" width="804.02" height="761.37"/>
    </clipPath>
    <clipPath id="clippath-11">
      <rect class="cls-1" x="0" width="804.02" height="761.37"/>
    </clipPath>
    <clipPath id="clippath-12">
      <rect class="cls-1" x="0" y="0" width="804.02" height="761.37"/>
    </clipPath>
    <clipPath id="clippath-13">
      <rect class="cls-1" x="0" y="0" width="804.02" height="761.37"/>
    </clipPath>
    <clipPath id="clippath-14">
      <rect class="cls-1" x="0" y="0" width="804.02" height="761.37"/>
    </clipPath>
    <clipPath id="clippath-15">
      <rect class="cls-1" x="0" y="0" width="804.02" height="761.37"/>
    </clipPath>
    <clipPath id="clippath-16">
      <rect class="cls-1" x="0" y="0" width="804.02" height="761.37"/>
    </clipPath>
    <clipPath id="clippath-17">
      <rect class="cls-1" x="0" y="0" width="804.02" height="761.37"/>
    </clipPath>
  </defs>
  <g id="svg2">
    <g id="g763">
      <g class="cls-19">
        <path id="path36" d="M12.74,486.61l3.84,7.57c-6.9,3.49-8.09,9.7-3.71,18.36,4.22,8.33,9.46,10.96,15.52,7.89,6.14-3.11,7.13-8.26,3.23-19.5-4.87-14.02-2.89-21.15,6.96-26.13,10.94-5.54,20.19-1.45,26.71,11.42,6.39,12.62,4.07,21.83-7.12,27.49l-3.84-7.57c6.65-3.37,7.93-8.77,3.93-16.68-3.96-7.82-9.33-10.5-15.14-7.56-5.72,2.9-6.62,7.79-2.99,18.11,5.22,14.69,3.15,22.29-7.29,27.57-11.19,5.67-20.14,1.75-26.92-11.63-6.9-13.63-4.71-23.51,6.81-29.34"/>
      </g>
      <g class="cls-10">
        <path id="path40" d="M124.96,577.43l-61.58,24.87-5.23-6.93,31.37-40.94-48.02,18.88-5.17-6.85,40.78-52.42,5.29,7-32.14,40.69,48.34-19.24,5,6.62-31.83,41.41,48.09-19.89,5.11,6.77Z"/>
      </g>
      <g class="cls-13">
        <path id="path44" d="M126.25,641.84l-19.18-17.3-15.33,8.27-6.51-5.87,60.3-31.94,6.37,5.75-25.58,63.26-6.72-6.06,6.65-16.09ZM114.27,620.62l15.12,13.64,11.95-28.45-27.07,14.81Z"/>
      </g>
      <g class="cls-11">
        <path id="path48" d="M220.59,649.43l-33.96,54.37-7.03-4.4.82-60.4-27.36,43.82-6.95-4.34,33.96-54.37,8.55,5.34-.79,56.97,25.82-41.34,6.95,4.34Z"/>
      </g>
      <g class="cls-12">
        <path id="path52" d="M217.41,699.11l7.85,3.23c-2.95,7.14.2,12.62,9.17,16.32,8.63,3.56,14.32,2.13,16.9-4.15,2.62-6.36,0-10.9-10.27-16.88-12.84-7.43-15.99-14.13-11.79-24.33,4.67-11.33,14.35-14.28,27.68-8.78,13.07,5.39,17.33,13.87,12.55,25.46l-7.85-3.23c2.84-6.88.28-11.81-7.91-15.19-8.11-3.34-13.92-1.86-16.39,4.15-2.44,5.93.07,10.22,9.55,15.66,13.54,7.72,16.93,14.83,12.48,25.64-4.78,11.59-14.12,14.47-27.98,8.76-14.12-5.82-18.91-14.73-13.98-26.67"/>
      </g>
      <g class="cls-18">
        <path id="path56" d="M321.18,743.86l-1.84,7.51-41.67-10.22,15.26-62.28,40.75,9.99-1.84,7.51-32.51-7.97-4.69,19.14,27.93,6.85-1.84,7.51-27.93-6.85-5.05,20.61,33.43,8.19Z"/>
      </g>
      <g class="cls-15">
        <path id="path60" d="M337.4,754.62l8.73.77,7.26-15.84,25.74,2.26,4.39,16.86,9.02.79-17.68-65.92-8.55-.75-28.91,61.82ZM356.79,732.09l12.7-28.13,7.59,29.91-20.29-1.78Z"/>
      </g>
      <g class="cls-14">
        <path id="path64" d="M445.81,733.31l-2.26-15.48c-2.44-16.7,4.08-26.23,20.03-28.56,14.92-2.18,23.64,3.98,26.35,18.64l-8.21,1.2c-1.89-9.73-7.32-13.61-17.02-12.19-10.64,1.55-14.51,7.65-12.72,19.87l2.21,15.11c1.79,12.22,7.24,16.95,17.88,15.4,9.7-1.42,13.79-6.69,12.84-16.46l8.21-1.2c1.58,14.73-5,23.12-19.93,25.3-15.95,2.33-24.92-4.93-27.36-21.63"/>
      </g>
      <g class="cls-17">
        <path id="path68" d="M504.55,682.1l8.19-2.22,16.76,61.89-8.19,2.22-16.76-61.89Z"/>
      </g>
      <g class="cls-16">
        <path id="path72" d="M572.95,666.64l-17.65,6.92,20.55,52.41-7.91,3.1-20.55-52.41-17.64,6.92-2.86-7.29,43.19-16.93,2.86,7.29Z"/>
      </g>
      <g class="cls-5">
        <path id="path76" d="M619.31,674.33l13.53,23.76-7.37,4.2-13.53-23.76-37.94-20.71,8.6-4.9,28.93,15.75,1.14-32.87,8.19-4.66-1.56,43.19Z"/>
      </g>
      <g class="cls-3">
        <path id="path80" d="M711.11,617.12l-18.72,17.8,7.07,15.92-6.35,6.04-27.23-62.58,6.22-5.91,61.12,30.36-6.56,6.24-15.54-7.86ZM689.04,627.44l14.76-14.03-27.45-14.1,12.69,28.13Z"/>
      </g>
      <g class="cls-9">
        <path id="path84" d="M708.89,559.51l15.64,11.99,16.98-22.14,6.13,4.7-16.98,22.14,22.97,17.61-5.16,6.73-50.87-39,25.01-32.62,6.13,4.7-19.84,25.89Z"/>
      </g>
      <g class="cls-7">
        <path id="path88" d="M764.31,537.5l-13.72-7.52c-14.8-8.11-18.48-19.06-10.73-33.19,7.25-13.23,17.42-16.48,30.75-9.81l-3.99,7.28c-8.91-4.34-15.27-2.35-19.98,6.25-5.17,9.43-2.63,16.19,8.2,22.12l13.39,7.34c10.83,5.94,17.89,4.43,23.06-5,4.72-8.6,2.98-15.04-5.4-20.16l3.99-7.28c12.71,7.61,15.44,17.93,8.19,31.16-7.75,14.14-18.95,16.92-33.75,8.81"/>
      </g>
    </g>
    <g id="g769">
      <g class="cls-8">
        <path id="path20" d="M648.99,409.08s-67.25-38.48-135.58-9.71c-68.33,28.77-121.56,119.39-160.04,143.85-37.4,23.74-71.56,19.42-71.56,19.42,0,0,92.06,42.08,152.84,6.83,70.85-41,81.63-88.11,131.98-124.43,52.51-37.4,82.36-35.96,82.36-35.96"/>
      </g>
      <g class="cls-6">
        <path id="path24" d="M543.98,348.3s-67.25-38.48-135.58-9.71c-68.33,28.77-121.55,119.39-160.03,143.85-37.4,23.74-71.57,19.42-71.57,19.42,0,0,88.82,45.31,149.6,10.07,70.85-41,84.87-91.34,134.86-127.67,52.86-37.4,82.71-35.96,82.71-35.96"/>
      </g>
      <g class="cls-4">
        <path id="path28" d="M438.97,287.53s-67.25-38.48-135.58-9.71c-68.33,28.77-121.56,119.39-160.03,143.85-37.4,23.73-71.57,19.42-71.57,19.42,0,0,88.82,45.31,149.6,10.07,70.85-41,84.87-91.34,134.86-127.67,52.51-37.4,82.71-35.96,82.71-35.96"/>
      </g>
      <g class="cls-2">
        <path id="path32" d="M627.41,236.82c-47.47-26.25-73.36-39.92-111.48-60.06-24.81-14.39-37.4-20.14-53.23-41.36-19.06-34.88-4.32-63.29-4.32-63.29,41.35-79.48,195.64,55.38,195.64,55.38,13.66,8.27,15.46,1.8,9.35-11.15-8.27-17.26-16.54-30.93-16.54-30.93,32-40.64-27.33-61.49-27.33-61.49-157.87-58.62-201.39,18.34-201.39,18.34-16.18,19.06-28.77,69.76-10.79,112.2,26.25,61.14,94.22,99.62,192.04,147.45,157.15,76.6,29.49,185.57,29.49,185.57,90.27-38.12,108.97-86.67,105.01-128.02-6.84-73.72-106.45-122.63-106.45-122.63"/>
      </g>
    </g>
  </g>
</svg>