<?xml version="1.0" encoding="UTF-8"?>
<svg xmlns="http://www.w3.org/2000/svg" xmlns:xlink="http://www.w3.org/1999/xlink" width="302.57pt" height="249.79pt" viewBox="0 0 302.57 249.79" version="1.1">
<defs>
<clipPath id="clip1">
  <path d="M 0 230 L 18 230 L 18 249.789063 L 0 249.789063 Z M 0 230 "/>
</clipPath>
<clipPath id="clip2">
  <path d="M 20 230 L 40 230 L 40 249.789063 L 20 249.789063 Z M 20 230 "/>
</clipPath>
<clipPath id="clip3">
  <path d="M 41 230 L 58 230 L 58 249.789063 L 41 249.789063 Z M 41 230 "/>
</clipPath>
<clipPath id="clip4">
  <path d="M 58 230 L 80 230 L 80 249.789063 L 58 249.789063 Z M 58 230 "/>
</clipPath>
<clipPath id="clip5">
  <path d="M 81 230 L 88 230 L 88 249.789063 L 81 249.789063 Z M 81 230 "/>
</clipPath>
<clipPath id="clip6">
  <path d="M 90 230 L 109 230 L 109 249.789063 L 90 249.789063 Z M 90 230 "/>
</clipPath>
<clipPath id="clip7">
  <path d="M 110 230 L 131 230 L 131 249.789063 L 110 249.789063 Z M 110 230 "/>
</clipPath>
<clipPath id="clip8">
  <path d="M 142 230 L 158 230 L 158 249.789063 L 142 249.789063 Z M 142 230 "/>
</clipPath>
<clipPath id="clip9">
  <path d="M 155 244 L 162 244 L 162 249.789063 L 155 249.789063 Z M 155 244 "/>
</clipPath>
<clipPath id="clip10">
  <path d="M 165 230 L 183 230 L 183 249.789063 L 165 249.789063 Z M 165 230 "/>
</clipPath>
<clipPath id="clip11">
  <path d="M 185 244 L 192 244 L 192 249.789063 L 185 249.789063 Z M 185 244 "/>
</clipPath>
<clipPath id="clip12">
  <path d="M 194 230 L 214 230 L 214 249.789063 L 194 249.789063 Z M 194 230 "/>
</clipPath>
<clipPath id="clip13">
  <path d="M 216 244 L 222 244 L 222 249.789063 L 216 249.789063 Z M 216 244 "/>
</clipPath>
<clipPath id="clip14">
  <path d="M 234 230 L 246 230 L 246 249.789063 L 234 249.789063 Z M 234 230 "/>
</clipPath>
<clipPath id="clip15">
  <path d="M 251 230 L 267 230 L 267 249.789063 L 251 249.789063 Z M 251 230 "/>
</clipPath>
<clipPath id="clip16">
  <path d="M 268 230 L 285 230 L 285 249.789063 L 268 249.789063 Z M 268 230 "/>
</clipPath>
<clipPath id="clip17">
  <path d="M 286 230 L 302.570313 230 L 302.570313 249.789063 L 286 249.789063 Z M 286 230 "/>
</clipPath>
</defs>
<g id="surface1">
<g clip-path="url(#clip1)" clip-rule="nonzero">
<path style=" stroke:none;fill-rule:nonzero;fill:rgb(100%,0%,0%);fill-opacity:1;" d="M 0 230.328125 L 17.972656 230.328125 L 17.972656 235.054688 L 11.945313 235.054688 L 11.945313 249.464844 L 6.03125 249.464844 L 6.03125 235.054688 L 0 235.054688 "/>
</g>
<g clip-path="url(#clip2)" clip-rule="nonzero">
<path style=" stroke:none;fill-rule:nonzero;fill:rgb(100%,0%,0%);fill-opacity:1;" d="M 26.667969 238.082031 L 29.160156 238.082031 C 29.429688 238.082031 29.953125 237.992188 30.730469 237.820313 C 31.121094 237.742188 31.441406 237.542969 31.6875 237.21875 C 31.9375 236.898438 32.058594 236.527344 32.058594 236.109375 C 32.058594 235.492188 31.863281 235.019531 31.472656 234.6875 C 31.082031 234.355469 30.34375 234.191406 29.265625 234.191406 L 26.667969 234.191406 Z M 20.730469 249.464844 L 20.730469 230.328125 L 30.585938 230.328125 C 32.410156 230.328125 33.808594 230.484375 34.773438 230.796875 C 35.742188 231.109375 36.519531 231.691406 37.109375 232.539063 C 37.703125 233.386719 38 234.421875 38 235.640625 C 38 236.703125 37.773438 237.617188 37.320313 238.386719 C 36.867188 239.15625 36.242188 239.78125 35.453125 240.261719 C 34.945313 240.566406 34.253906 240.816406 33.375 241.019531 C 34.078125 241.253906 34.59375 241.488281 34.914063 241.722656 C 35.132813 241.878906 35.445313 242.214844 35.859375 242.730469 C 36.273438 243.246094 36.550781 243.640625 36.6875 243.917969 L 39.550781 249.464844 L 32.871094 249.464844 L 29.710938 243.617188 C 29.308594 242.859375 28.953125 242.367188 28.640625 242.140625 C 28.214844 241.84375 27.730469 241.695313 27.191406 241.695313 L 26.667969 241.695313 L 26.667969 249.464844 "/>
</g>
<g clip-path="url(#clip3)" clip-rule="nonzero">
<path style=" stroke:none;fill-rule:nonzero;fill:rgb(100%,0%,0%);fill-opacity:1;" d="M 41.433594 230.328125 L 57.28125 230.328125 L 57.28125 234.414063 L 47.359375 234.414063 L 47.359375 237.453125 L 56.5625 237.453125 L 56.5625 241.359375 L 47.359375 241.359375 L 47.359375 245.128906 L 57.566406 245.128906 L 57.566406 249.464844 L 41.433594 249.464844 "/>
</g>
<g clip-path="url(#clip4)" clip-rule="nonzero">
<path style=" stroke:none;fill-rule:nonzero;fill:rgb(100%,0%,0%);fill-opacity:1;" d="M 58.871094 230.328125 L 65.050781 230.328125 L 69.359375 244.097656 L 73.613281 230.328125 L 79.613281 230.328125 L 72.507813 249.464844 L 66.097656 249.464844 "/>
</g>
<g clip-path="url(#clip5)" clip-rule="nonzero">
<path style=" stroke:none;fill-rule:nonzero;fill:rgb(100%,0%,0%);fill-opacity:1;" d="M 81.78125 249.464844 L 87.707031 249.464844 L 87.707031 230.328125 L 81.78125 230.328125 Z M 81.78125 249.464844 "/>
</g>
<g clip-path="url(#clip6)" clip-rule="nonzero">
<path style=" stroke:none;fill-rule:nonzero;fill:rgb(100%,0%,0%);fill-opacity:1;" d="M 90.917969 243.132813 L 96.542969 242.78125 C 96.664063 243.695313 96.914063 244.390625 97.289063 244.871094 C 97.898438 245.644531 98.769531 246.03125 99.898438 246.03125 C 100.742188 246.03125 101.394531 245.832031 101.851563 245.4375 C 102.308594 245.042969 102.535156 244.582031 102.535156 244.058594 C 102.535156 243.5625 102.316406 243.121094 101.882813 242.726563 C 101.449219 242.335938 100.4375 241.964844 98.855469 241.617188 C 96.261719 241.035156 94.410156 240.261719 93.304688 239.296875 C 92.191406 238.328125 91.636719 237.097656 91.636719 235.601563 C 91.636719 234.617188 91.921875 233.6875 92.492188 232.8125 C 93.0625 231.941406 93.917969 231.253906 95.0625 230.75 C 96.207031 230.25 97.773438 230 99.769531 230 C 102.214844 230 104.078125 230.457031 105.363281 231.367188 C 106.644531 232.273438 107.410156 233.722656 107.652344 235.707031 L 102.078125 236.03125 C 101.929688 235.171875 101.621094 234.542969 101.144531 234.152344 C 100.671875 233.761719 100.015625 233.566406 99.179688 233.566406 C 98.492188 233.566406 97.976563 233.710938 97.628906 234.003906 C 97.277344 234.292969 97.105469 234.648438 97.105469 235.066406 C 97.105469 235.371094 97.25 235.644531 97.535156 235.886719 C 97.8125 236.140625 98.476563 236.375 99.519531 236.59375 C 102.105469 237.148438 103.957031 237.714844 105.074219 238.285156 C 106.191406 238.855469 107.007813 239.5625 107.515625 240.40625 C 108.023438 241.25 108.277344 242.191406 108.277344 243.238281 C 108.277344 244.464844 107.941406 245.59375 107.261719 246.632813 C 106.582031 247.667969 105.632813 248.453125 104.414063 248.988281 C 103.195313 249.523438 101.660156 249.789063 99.808594 249.789063 C 96.550781 249.789063 94.296875 249.164063 93.046875 247.910156 C 91.792969 246.65625 91.082031 245.066406 90.917969 243.132813 "/>
</g>
<g clip-path="url(#clip7)" clip-rule="nonzero">
<path style=" stroke:none;fill-rule:nonzero;fill:rgb(100%,0%,0%);fill-opacity:1;" d="M 116.425781 239.933594 C 116.425781 241.867188 116.785156 243.253906 117.503906 244.097656 C 118.21875 244.941406 119.195313 245.363281 120.433594 245.363281 C 121.703125 245.363281 122.6875 244.953125 123.382813 244.125 C 124.078125 243.296875 124.425781 241.8125 124.425781 239.675781 C 124.425781 237.871094 124.0625 236.554688 123.335938 235.726563 C 122.609375 234.894531 121.621094 234.476563 120.378906 234.476563 C 119.1875 234.476563 118.230469 234.898438 117.507813 235.746094 C 116.785156 236.589844 116.425781 237.984375 116.425781 239.933594 M 110.511719 239.910156 C 110.511719 236.785156 111.382813 234.351563 113.121094 232.613281 C 114.863281 230.871094 117.285156 230 120.394531 230 C 123.578125 230 126.03125 230.855469 127.753906 232.566406 C 129.480469 234.277344 130.339844 236.671875 130.339844 239.753906 C 130.339844 241.988281 129.964844 243.824219 129.210938 245.253906 C 128.457031 246.6875 127.371094 247.800781 125.945313 248.597656 C 124.523438 249.390625 122.753906 249.789063 120.628906 249.789063 C 118.46875 249.789063 116.683594 249.445313 115.269531 248.757813 C 113.855469 248.070313 112.710938 246.984375 111.828125 245.496094 C 110.949219 244.007813 110.511719 242.144531 110.511719 239.910156 "/>
</g>
<g clip-path="url(#clip8)" clip-rule="nonzero">
<path style=" stroke:none;fill-rule:nonzero;fill:rgb(100%,0%,0%);fill-opacity:1;" d="M 142.464844 230.328125 L 157.085938 230.328125 L 157.085938 234.4375 L 148.40625 234.4375 L 148.40625 237.78125 L 155.820313 237.78125 L 155.820313 241.644531 L 148.40625 241.644531 L 148.40625 249.464844 L 142.464844 249.464844 "/>
</g>
<g clip-path="url(#clip9)" clip-rule="nonzero">
<path style=" stroke:none;fill-rule:nonzero;fill:rgb(100%,0%,0%);fill-opacity:1;" d="M 155.847656 249.464844 L 161.523438 249.464844 L 161.523438 244.136719 L 155.847656 244.136719 Z M 155.847656 249.464844 "/>
</g>
<g clip-path="url(#clip10)" clip-rule="nonzero">
<path style=" stroke:none;fill-rule:nonzero;fill:rgb(100%,0%,0%);fill-opacity:1;" d="M 171.066406 245.351563 L 174.082031 245.351563 C 175.101563 245.351563 175.816406 245.171875 176.234375 244.8125 C 176.652344 244.449219 176.863281 243.964844 176.863281 243.355469 C 176.863281 242.789063 176.65625 242.335938 176.242188 241.992188 C 175.828125 241.648438 175.105469 241.476563 174.070313 241.476563 L 171.066406 241.476563 Z M 171.066406 237.832031 L 173.636719 237.832031 C 174.558594 237.832031 175.203125 237.675781 175.5625 237.355469 C 175.925781 237.039063 176.105469 236.582031 176.105469 235.980469 C 176.105469 235.421875 175.925781 234.988281 175.5625 234.675781 C 175.203125 234.359375 174.574219 234.207031 173.675781 234.207031 L 171.066406 234.207031 Z M 165.101563 230.328125 L 176.171875 230.328125 C 178.015625 230.328125 179.433594 230.785156 180.417969 231.699219 C 181.40625 232.613281 181.902344 233.742188 181.902344 235.09375 C 181.902344 236.222656 181.546875 237.195313 180.84375 238.003906 C 180.375 238.542969 179.6875 238.96875 178.78125 239.28125 C 180.15625 239.613281 181.167969 240.179688 181.816406 240.984375 C 182.464844 241.789063 182.789063 242.800781 182.789063 244.019531 C 182.789063 245.011719 182.558594 245.90625 182.097656 246.695313 C 181.636719 247.488281 181.003906 248.113281 180.203125 248.578125 C 179.707031 248.863281 178.960938 249.070313 177.960938 249.203125 C 176.628906 249.378906 175.742188 249.464844 175.308594 249.464844 L 165.101563 249.464844 "/>
</g>
<g clip-path="url(#clip11)" clip-rule="nonzero">
<path style=" stroke:none;fill-rule:nonzero;fill:rgb(100%,0%,0%);fill-opacity:1;" d="M 185.972656 249.464844 L 191.652344 249.464844 L 191.652344 244.136719 L 185.972656 244.136719 Z M 185.972656 249.464844 "/>
</g>
<g clip-path="url(#clip12)" clip-rule="nonzero">
<path style=" stroke:none;fill-rule:nonzero;fill:rgb(100%,0%,0%);fill-opacity:1;" d="M 207.957031 241.632813 L 213.140625 243.199219 C 212.789063 244.652344 212.242188 245.867188 211.492188 246.839844 C 210.746094 247.816406 209.816406 248.550781 208.707031 249.046875 C 207.597656 249.542969 206.183594 249.789063 204.472656 249.789063 C 202.390625 249.789063 200.691406 249.488281 199.371094 248.882813 C 198.054688 248.277344 196.917969 247.214844 195.960938 245.695313 C 195.003906 244.171875 194.523438 242.222656 194.523438 239.851563 C 194.523438 236.683594 195.367188 234.25 197.050781 232.550781 C 198.734375 230.851563 201.117188 230 204.195313 230 C 206.605469 230 208.503906 230.488281 209.882813 231.464844 C 211.261719 232.4375 212.285156 233.933594 212.957031 235.953125 L 207.734375 237.117188 C 207.550781 236.53125 207.359375 236.105469 207.160156 235.835938 C 206.828125 235.382813 206.425781 235.035156 205.945313 234.792969 C 205.46875 234.546875 204.933594 234.425781 204.339844 234.425781 C 203 234.425781 201.972656 234.964844 201.261719 236.042969 C 200.722656 236.84375 200.449219 238.097656 200.449219 239.8125 C 200.449219 241.933594 200.773438 243.386719 201.414063 244.171875 C 202.058594 244.957031 202.964844 245.351563 204.132813 245.351563 C 205.261719 245.351563 206.117188 245.035156 206.695313 244.398438 C 207.273438 243.765625 207.695313 242.839844 207.957031 241.632813 "/>
</g>
<g clip-path="url(#clip13)" clip-rule="nonzero">
<path style=" stroke:none;fill-rule:nonzero;fill:rgb(100%,0%,0%);fill-opacity:1;" d="M 216.128906 249.464844 L 221.804688 249.464844 L 221.804688 244.136719 L 216.128906 244.136719 Z M 216.128906 249.464844 "/>
</g>
<g clip-path="url(#clip14)" clip-rule="nonzero">
<path style=" stroke:none;fill-rule:nonzero;fill:rgb(100%,0%,0%);fill-opacity:1;" d="M 245.472656 230 L 245.472656 249.464844 L 240.09375 249.464844 L 240.09375 236.710938 C 239.222656 237.371094 238.382813 237.90625 237.566406 238.316406 C 236.753906 238.726563 235.734375 239.117188 234.507813 239.492188 L 234.507813 235.132813 C 236.316406 234.546875 237.722656 233.847656 238.722656 233.03125 C 239.726563 232.210938 240.507813 231.203125 241.074219 230 "/>
</g>
<g clip-path="url(#clip15)" clip-rule="nonzero">
<path style=" stroke:none;fill-rule:nonzero;fill:rgb(100%,0%,0%);fill-opacity:1;" d="M 261.28125 236.632813 C 261.28125 235.597656 261.019531 234.785156 260.496094 234.199219 C 259.972656 233.613281 259.339844 233.316406 258.589844 233.316406 C 257.886719 233.316406 257.300781 233.582031 256.835938 234.113281 C 256.367188 234.644531 256.136719 235.441406 256.136719 236.5 C 256.136719 237.570313 256.378906 238.390625 256.859375 238.957031 C 257.34375 239.519531 257.945313 239.804688 258.671875 239.804688 C 259.417969 239.804688 260.039063 239.53125 260.535156 238.980469 C 261.03125 238.433594 261.28125 237.652344 261.28125 236.632813 M 251.488281 245.167969 L 256.777344 244.503906 C 256.914063 245.242188 257.148438 245.765625 257.480469 246.070313 C 257.8125 246.375 258.21875 246.527344 258.695313 246.527344 C 259.546875 246.527344 260.214844 246.097656 260.691406 245.234375 C 261.039063 244.597656 261.300781 243.253906 261.476563 241.199219 C 260.839844 241.851563 260.1875 242.332031 259.515625 242.636719 C 258.847656 242.941406 258.074219 243.09375 257.195313 243.09375 C 255.480469 243.09375 254.03125 242.484375 252.855469 241.265625 C 251.675781 240.046875 251.085938 238.507813 251.085938 236.644531 C 251.085938 235.375 251.386719 234.21875 251.984375 233.171875 C 252.585938 232.128906 253.414063 231.339844 254.464844 230.804688 C 255.519531 230.269531 256.84375 230 258.433594 230 C 260.347656 230 261.882813 230.328125 263.042969 230.988281 C 264.199219 231.644531 265.125 232.6875 265.816406 234.121094 C 266.507813 235.550781 266.855469 237.441406 266.855469 239.792969 C 266.855469 243.246094 266.128906 245.777344 264.675781 247.382813 C 263.21875 248.988281 261.207031 249.789063 258.628906 249.789063 C 257.105469 249.789063 255.90625 249.613281 255.027344 249.261719 C 254.148438 248.910156 253.417969 248.394531 252.835938 247.714844 C 252.253906 247.035156 251.800781 246.1875 251.488281 245.167969 "/>
</g>
<g clip-path="url(#clip16)" clip-rule="nonzero">
<path style=" stroke:none;fill-rule:nonzero;fill:rgb(100%,0%,0%);fill-opacity:1;" d="M 279.109375 236.632813 C 279.109375 235.597656 278.851563 234.785156 278.328125 234.199219 C 277.804688 233.613281 277.171875 233.316406 276.421875 233.316406 C 275.71875 233.316406 275.132813 233.582031 274.664063 234.113281 C 274.199219 234.644531 273.96875 235.441406 273.96875 236.5 C 273.96875 237.570313 274.210938 238.390625 274.691406 238.957031 C 275.175781 239.519531 275.777344 239.804688 276.5 239.804688 C 277.25 239.804688 277.871094 239.53125 278.367188 238.980469 C 278.863281 238.433594 279.109375 237.652344 279.109375 236.632813 M 269.320313 245.167969 L 274.605469 244.503906 C 274.746094 245.242188 274.980469 245.765625 275.3125 246.070313 C 275.644531 246.375 276.046875 246.527344 276.527344 246.527344 C 277.378906 246.527344 278.046875 246.097656 278.523438 245.234375 C 278.871094 244.597656 279.132813 243.253906 279.304688 241.199219 C 278.671875 241.851563 278.019531 242.332031 277.347656 242.636719 C 276.679688 242.941406 275.902344 243.09375 275.023438 243.09375 C 273.3125 243.09375 271.863281 242.484375 270.683594 241.265625 C 269.507813 240.046875 268.914063 238.507813 268.914063 236.644531 C 268.914063 235.375 269.214844 234.21875 269.816406 233.171875 C 270.417969 232.128906 271.242188 231.339844 272.296875 230.804688 C 273.351563 230.269531 274.671875 230 276.265625 230 C 278.179688 230 279.714844 230.328125 280.875 230.988281 C 282.03125 231.644531 282.957031 232.6875 283.648438 234.121094 C 284.339844 235.550781 284.683594 237.441406 284.683594 239.792969 C 284.683594 243.246094 283.957031 245.777344 282.503906 247.382813 C 281.050781 248.988281 279.035156 249.789063 276.460938 249.789063 C 274.9375 249.789063 273.738281 249.613281 272.859375 249.261719 C 271.980469 248.910156 271.25 248.394531 270.664063 247.714844 C 270.082031 247.035156 269.632813 246.1875 269.320313 245.167969 "/>
</g>
<g clip-path="url(#clip17)" clip-rule="nonzero">
<path style=" stroke:none;fill-rule:nonzero;fill:rgb(100%,0%,0%);fill-opacity:1;" d="M 292.074219 235.863281 L 287.046875 234.960938 C 287.464844 233.359375 288.265625 232.132813 289.457031 231.28125 C 290.644531 230.425781 292.324219 230 294.503906 230 C 297 230 298.804688 230.46875 299.917969 231.398438 C 301.03125 232.328125 301.589844 233.5 301.589844 234.910156 C 301.589844 235.734375 301.363281 236.484375 300.910156 237.15625 C 300.457031 237.824219 299.773438 238.410156 298.859375 238.917969 C 299.601563 239.097656 300.167969 239.3125 300.558594 239.554688 C 301.191406 239.949219 301.6875 240.464844 302.039063 241.101563 C 302.390625 241.742188 302.566406 242.507813 302.566406 243.394531 C 302.566406 244.507813 302.277344 245.578125 301.695313 246.597656 C 301.109375 247.621094 300.269531 248.410156 299.175781 248.960938 C 298.078125 249.511719 296.636719 249.789063 294.855469 249.789063 C 293.113281 249.789063 291.738281 249.585938 290.734375 249.175781 C 289.730469 248.769531 288.902344 248.167969 288.257813 247.382813 C 287.605469 246.59375 287.109375 245.605469 286.761719 244.410156 L 292.074219 243.707031 C 292.28125 244.777344 292.605469 245.519531 293.046875 245.933594 C 293.484375 246.347656 294.046875 246.554688 294.722656 246.554688 C 295.4375 246.554688 296.03125 246.292969 296.503906 245.769531 C 296.980469 245.246094 297.21875 244.550781 297.21875 243.679688 C 297.21875 242.792969 296.988281 242.105469 296.53125 241.617188 C 296.074219 241.132813 295.453125 240.886719 294.671875 240.886719 C 294.253906 240.886719 293.679688 240.992188 292.949219 241.199219 L 293.222656 237.402344 C 293.519531 237.445313 293.75 237.46875 293.914063 237.46875 C 294.609375 237.46875 295.191406 237.246094 295.65625 236.800781 C 296.121094 236.359375 296.355469 235.832031 296.355469 235.222656 C 296.355469 234.640625 296.179688 234.175781 295.832031 233.824219 C 295.484375 233.476563 295.007813 233.304688 294.398438 233.304688 C 293.769531 233.304688 293.261719 233.492188 292.871094 233.871094 C 292.476563 234.25 292.214844 234.914063 292.074219 235.863281 "/>
</g>
<path style=" stroke:none;fill-rule:nonzero;fill:rgb(29.026794%,29.026794%,29.026794%);fill-opacity:1;" d="M 122.738281 46.378906 C 122.738281 46.378906 101.722656 49.136719 100.648438 50.167969 C 99.585938 51.203125 99.933594 52.585938 99.933594 52.585938 C 99.933594 52.585938 97.796875 53.617188 98.867188 55.347656 C 99.933594 57.0625 101.722656 58.457031 101.722656 58.457031 C 101.722656 58.457031 99.585938 59.484375 99.933594 61.894531 C 100.304688 64.320313 102.441406 68.800781 102.441406 68.800781 C 102.441406 68.800781 103.496094 70.523438 105.640625 70.175781 C 107.78125 69.832031 111.351563 68.800781 111.351563 68.800781 L 80.695313 80.523438 C 80.695313 80.523438 75.710938 82.25 76.421875 86.042969 C 77.136719 89.847656 77.484375 91.5625 79.273438 92.253906 C 81.050781 92.945313 81.761719 92.945313 83.195313 92.601563 C 84.617188 92.253906 79.625 93.292969 79.976563 95.019531 C 80.335938 96.742188 80.335938 98.804688 82.128906 98.457031 C 83.90625 98.109375 91.386719 95.703125 91.386719 95.703125 C 91.386719 95.703125 82.480469 98.804688 82.128906 101.910156 C 81.761719 105.015625 82.128906 108.117188 83.195313 108.8125 C 84.269531 109.503906 86.039063 109.503906 86.039063 109.503906 C 86.039063 109.503906 83.90625 110.195313 84.269531 111.21875 C 84.617188 112.257813 84.269531 114.679688 84.269531 114.679688 L 63.945313 122.265625 C 63.945313 122.265625 60.742188 124.34375 60.742188 126.402344 C 60.742188 128.46875 59.667969 133.996094 61.8125 134.679688 C 63.945313 135.363281 66.078125 135.027344 66.078125 135.027344 L 63.945313 137.09375 C 63.945313 137.09375 63.230469 140.542969 65.019531 141.585938 C 66.792969 142.609375 68.574219 145.722656 71.792969 144.675781 C 74.996094 143.648438 81.050781 141.921875 81.050781 141.921875 C 81.050781 141.921875 80.695313 143.984375 81.402344 146.054688 C 82.128906 148.136719 84.269531 149.867188 84.269531 149.867188 C 84.269531 149.867188 82.835938 151.574219 84.617188 152.621094 C 86.394531 153.652344 93.164063 151.574219 93.164063 151.574219 L 72.492188 161.242188 C 72.492188 161.242188 68.574219 163.660156 69.652344 167.796875 C 70.714844 171.933594 71.429688 173.65625 71.429688 173.65625 L 73.558594 174 C 73.558594 174 73.207031 177.453125 73.925781 178.488281 C 74.640625 179.523438 76.066406 181.597656 76.066406 181.597656 C 76.066406 181.597656 76.421875 182.285156 77.84375 181.9375 C 79.273438 181.597656 96.019531 174.351563 96.019531 174.351563 C 96.019531 174.351563 96.019531 179.179688 96.375 181.9375 C 96.726563 184.703125 99.226563 186.414063 99.226563 186.414063 C 99.226563 186.414063 98.867188 190.214844 100.648438 191.941406 C 102.441406 193.65625 107.78125 192.289063 107.78125 192.289063 L 113.484375 189.875 L 118.820313 188.144531 C 118.820313 188.144531 112.761719 190.90625 113.128906 192.628906 C 113.484375 194.359375 113.839844 196.085938 113.839844 196.085938 C 113.839844 196.085938 113.128906 199.175781 114.902344 199.527344 L 116.6875 199.878906 C 116.6875 199.878906 117.039063 203.316406 118.109375 204.355469 C 119.183594 205.394531 118.109375 208.144531 119.539063 207.8125 C 120.972656 207.460938 130.589844 203.316406 132.71875 202.28125 C 134.871094 201.253906 156.984375 194.015625 169.800781 190.90625 C 182.640625 187.792969 204.015625 184.703125 204.015625 184.703125 L 203.308594 182.972656 L 204.015625 181.25 L 203.308594 179.523438 L 201.882813 178.136719 L 202.949219 175.730469 C 202.949219 175.730469 203.648438 174.691406 203.308594 172.960938 C 202.949219 171.25 201.164063 166.765625 201.164063 166.765625 C 201.164063 166.765625 200.460938 165.027344 197.601563 165.027344 C 194.746094 165.027344 189.050781 165.722656 189.050781 165.722656 L 204.726563 161.589844 C 204.726563 161.589844 207.222656 160.554688 207.222656 158.484375 C 207.222656 156.414063 208.304688 156.414063 208.304688 156.414063 L 223.265625 151.929688 C 223.265625 151.929688 226.121094 150.207031 225.050781 147.09375 C 223.96875 143.984375 224.332031 141.921875 224.332031 141.921875 L 223.265625 139.511719 L 221.835938 134.679688 C 221.835938 134.679688 221.125 133.644531 218.277344 133.300781 C 215.410156 132.960938 208.65625 133.300781 208.65625 133.300781 L 237.875 126.742188 L 239.292969 125.375 L 238.949219 122.609375 L 236.796875 117.777344 L 238.949219 116.742188 L 238.582031 113.988281 L 235.382813 108.125 C 235.382813 108.125 235.382813 105.359375 231.8125 106.054688 C 228.261719 106.734375 217.925781 109.148438 217.925781 109.148438 L 217.925781 100.867188 L 218.632813 98.109375 C 218.632813 98.109375 218.984375 95.703125 216.492188 94.320313 C 214.007813 92.945313 209.011719 91.5625 209.011719 91.5625 C 209.011719 91.5625 219.339844 87.773438 222.902344 85.703125 C 226.464844 83.628906 231.8125 79.140625 231.8125 77.757813 C 231.8125 76.390625 230.378906 68.800781 230.378906 68.800781 L 222.195313 69.140625 C 222.195313 69.140625 230.035156 68.445313 230.035156 67.417969 C 230.035156 66.382813 229.316406 64.664063 228.972656 63.28125 C 228.613281 61.894531 226.820313 55.695313 225.050781 56.035156 C 223.265625 56.382813 214.347656 57.757813 214.347656 57.757813 C 214.347656 57.757813 216.851563 57.414063 217.925781 56.035156 C 218.984375 54.652344 219.695313 48.4375 219.339844 46.378906 C 218.984375 44.304688 218.984375 37.066406 215.78125 37.757813 C 212.566406 38.445313 200.804688 41.210938 200.804688 41.210938 L 191.539063 43.613281 C 191.539063 43.613281 192.609375 36.023438 190.839844 33.261719 C 189.050781 30.503906 187.628906 29.472656 183.003906 30.503906 C 178.371094 31.539063 168.027344 36.371094 168.027344 36.371094 "/>
<path style=" stroke:none;fill-rule:nonzero;fill:rgb(18.431091%,47.068787%,59.959412%);fill-opacity:1;" d="M 172.609375 193.617188 C 159.785156 196.726563 137.664063 203.96875 135.523438 204.996094 C 133.386719 206.035156 123.757813 210.167969 122.339844 210.523438 C 120.90625 210.863281 121.980469 208.105469 120.90625 207.070313 C 119.839844 206.035156 119.492188 202.597656 119.492188 202.597656 L 117.707031 202.242188 C 115.929688 201.890625 116.644531 198.796875 116.644531 198.796875 C 116.644531 198.796875 116.273438 197.0625 115.929688 195.34375 C 115.5625 193.617188 121.628906 190.855469 121.628906 190.855469 L 116.273438 192.582031 L 110.585938 195.003906 C 110.585938 195.003906 105.230469 196.371094 103.449219 194.652344 C 101.667969 192.933594 102.03125 189.140625 102.03125 189.140625 C 102.03125 189.140625 99.53125 187.40625 99.171875 184.65625 C 98.820313 181.890625 98.820313 177.054688 98.820313 177.054688 C 98.820313 177.054688 82.078125 184.304688 80.652344 184.65625 C 79.21875 184.992188 78.863281 184.304688 78.863281 184.304688 C 78.863281 184.304688 77.441406 182.230469 76.722656 181.195313 C 76.015625 180.164063 76.371094 176.710938 76.371094 176.710938 L 74.234375 176.375 C 74.234375 176.375 73.511719 174.648438 72.441406 170.5 C 71.371094 166.375 75.296875 163.949219 75.296875 163.949219 L 95.964844 154.292969 C 95.964844 154.292969 89.199219 156.359375 87.414063 155.324219 C 85.636719 154.292969 87.058594 152.566406 87.058594 152.566406 C 87.058594 152.566406 84.921875 150.851563 84.207031 148.777344 C 84.207031 148.777344 113.519531 132.851563 145.46875 121.25 C 185.144531 106.820313 219.292969 97.027344 219.292969 97.027344 C 221.785156 98.410156 221.429688 100.824219 221.429688 100.824219 L 220.726563 103.589844 L 220.726563 111.867188 C 220.726563 111.867188 231.046875 109.449219 234.609375 108.769531 C 238.183594 108.070313 238.183594 110.839844 238.183594 110.839844 L 241.394531 116.691406 L 241.75 119.453125 L 239.605469 120.488281 L 241.75 125.320313 L 242.09375 128.074219 L 240.671875 129.457031 L 211.441406 136.007813 C 211.441406 136.007813 218.226563 135.664063 221.070313 136.007813 C 223.914063 136.355469 224.636719 137.394531 224.636719 137.394531 L 226.0625 142.21875 L 227.132813 144.640625 C 227.132813 144.640625 226.777344 146.710938 227.847656 149.808594 C 228.910156 152.914063 226.0625 154.636719 226.0625 154.636719 L 211.085938 159.125 C 211.085938 159.125 210.035156 159.125 210.035156 161.191406 C 210.035156 163.269531 207.535156 164.304688 207.535156 164.304688 L 191.851563 168.429688 C 191.851563 168.429688 197.546875 167.746094 200.410156 167.746094 C 203.246094 167.746094 203.964844 169.46875 203.964844 169.46875 C 203.964844 169.46875 205.757813 173.953125 206.109375 175.683594 C 206.460938 177.410156 205.757813 178.445313 205.757813 178.445313 L 204.671875 180.847656 L 206.109375 182.230469 L 206.820313 183.960938 L 206.109375 185.691406 L 206.820313 187.40625 C 206.820313 187.40625 185.4375 190.507813 172.609375 193.617188 "/>
<path style=" stroke:none;fill-rule:nonzero;fill:rgb(100%,100%,100%);fill-opacity:1;" d="M 233.191406 71.511719 L 223.03125 72.535156 C 223.03125 72.535156 232.378906 69.652344 232.378906 68.617188 C 232.378906 67.585938 232.121094 67.371094 231.765625 65.988281 C 231.414063 64.605469 229.625 58.398438 227.847656 58.742188 C 226.152344 59.078125 218.003906 60.332031 217.210938 60.453125 C 217.171875 60.460938 217.144531 60.464844 217.144531 60.464844 C 217.144531 60.464844 217.171875 60.460938 217.210938 60.453125 C 217.601563 60.390625 219.753906 60 220.726563 58.742188 C 221.785156 57.355469 222.507813 51.160156 222.144531 49.085938 C 221.785156 47.015625 221.785156 39.773438 218.585938 40.464844 C 215.371094 41.15625 203.617188 43.914063 203.617188 43.914063 L 194.34375 46.320313 C 194.34375 46.320313 195.414063 38.738281 193.636719 35.988281 C 191.851563 33.230469 190.425781 32.183594 185.785156 33.230469 C 181.164063 34.257813 170.835938 39.085938 170.835938 39.085938 L 166.382813 40.066406 C 165.382813 39.214844 164.347656 38.226563 163.285156 37.085938 C 163.371094 37.050781 163.460938 37.019531 163.546875 36.988281 C 163.996094 36.808594 164.367188 36.460938 164.570313 36.019531 C 164.902344 35.324219 165.09375 34.546875 165.09375 33.742188 C 165.09375 32.753906 164.8125 31.800781 164.335938 30.902344 C 164.460938 30.625 164.734375 30.21875 165.25 29.769531 L 165.503906 29.488281 L 165.585938 29.367188 L 165.761719 29.042969 C 166.117188 28.132813 166.363281 27.320313 166.375 26.4375 L 166.375 26.394531 C 166.378906 25.921875 166.269531 25.410156 166.015625 24.953125 C 166.28125 23.996094 166.613281 23.304688 166.949219 22.847656 C 167.304688 22.375 167.621094 22.140625 167.980469 22.003906 C 168.875 22.097656 169.671875 22.144531 170.390625 22.144531 C 171.773438 22.121094 172.933594 22.027344 174.003906 21.300781 C 174.636719 20.839844 175.109375 20.261719 175.460938 19.640625 L 177.472656 20.136719 L 177.820313 20.179688 L 177.964844 20.183594 L 178.300781 20.152344 C 179.644531 19.894531 180.839844 19.148438 181.609375 18.074219 C 182.386719 17 182.757813 15.671875 182.824219 14.230469 L 182.828125 14.128906 C 182.804688 12.75 182.410156 11.445313 181.617188 10.40625 C 180.824219 9.359375 179.671875 8.636719 178.355469 8.242188 L 178.304688 8.226563 C 177.457031 8.003906 176.59375 7.886719 175.722656 7.886719 C 174.140625 7.886719 172.542969 8.265625 170.988281 9 C 169.816406 8.519531 168.472656 8.351563 166.929688 8.347656 L 166.847656 8.347656 C 166.9375 7.625 166.984375 6.941406 166.984375 6.296875 C 166.980469 4.609375 166.679688 3.085938 165.753906 1.851563 C 164.808594 0.585938 163.265625 -0.015625 161.742188 0.00390625 C 161.738281 0.00390625 161.726563 0.00390625 161.695313 0.00390625 C 161.328125 0.00390625 160.953125 0.0351563 160.566406 0.0898438 C 159.214844 0.207031 157.953125 0.699219 156.996094 1.582031 C 156.015625 2.472656 155.402344 3.714844 155.167969 5.097656 L 155.148438 5.230469 L 155.144531 5.285156 L 155.140625 5.425781 L 155.140625 6.847656 L 155.011719 6.925781 L 154.964844 6.894531 C 154.972656 6.710938 154.976563 6.53125 154.976563 6.351563 C 154.972656 4.59375 154.640625 3.011719 153.628906 1.777344 C 152.605469 0.523438 151.035156 0 149.507813 0.0117188 C 149.476563 0.0117188 149.460938 0.0117188 149.453125 0.0117188 C 147.921875 -0.00390625 146.347656 0.519531 145.320313 1.777344 C 144.3125 3.011719 143.976563 4.59375 143.972656 6.351563 C 143.972656 6.53125 143.976563 6.710938 143.984375 6.894531 L 143.9375 6.925781 L 143.8125 6.847656 L 143.8125 5.425781 L 143.804688 5.269531 L 143.796875 5.210938 L 143.78125 5.097656 C 143.550781 3.714844 142.933594 2.472656 141.953125 1.578125 C 140.988281 0.699219 139.722656 0.207031 138.363281 0.0898438 C 137.980469 0.03125 137.597656 0.00390625 137.222656 0.00390625 L 137.199219 0.00390625 C 135.679688 -0.015625 134.136719 0.585938 133.191406 1.855469 C 132.269531 3.085938 131.96875 4.609375 131.964844 6.296875 C 131.964844 6.941406 132.011719 7.621094 132.101563 8.34375 L 132.023438 8.34375 C 130.480469 8.351563 129.132813 8.519531 127.960938 9 C 126.402344 8.265625 124.808594 7.886719 123.226563 7.886719 C 122.355469 7.886719 121.496094 8 120.660156 8.222656 L 120.609375 8.238281 C 119.285156 8.636719 118.132813 9.355469 117.339844 10.398438 C 116.539063 11.433594 116.148438 12.730469 116.121094 14.097656 L 116.121094 14.203125 C 116.1875 15.65625 116.5625 16.988281 117.339844 18.066406 C 118.109375 19.148438 119.304688 19.894531 120.648438 20.152344 L 120.988281 20.183594 L 121.128906 20.179688 L 121.476563 20.136719 L 123.488281 19.640625 C 123.835938 20.261719 124.304688 20.832031 124.925781 21.289063 C 126.015625 22.023438 127.171875 22.121094 128.554688 22.144531 C 129.277344 22.144531 130.074219 22.097656 130.96875 22.003906 C 131.332031 22.140625 131.648438 22.375 132 22.847656 C 132.335938 23.304688 132.667969 23.996094 132.933594 24.957031 C 132.683594 25.414063 132.570313 25.925781 132.574219 26.394531 C 132.574219 26.394531 132.574219 26.429688 132.578125 26.503906 C 132.597656 27.359375 132.839844 28.152344 133.1875 29.042969 L 133.371094 29.375 L 133.453125 29.496094 L 133.699219 29.769531 C 134.214844 30.21875 134.488281 30.625 134.613281 30.902344 C 134.136719 31.800781 133.855469 32.753906 133.855469 33.742188 C 133.851563 34.546875 134.050781 35.324219 134.382813 36.027344 C 134.578125 36.449219 134.953125 36.8125 135.402344 36.988281 C 135.488281 37.019531 135.578125 37.050781 135.664063 37.085938 C 131.386719 41.679688 127.578125 43.839844 124.566406 44.21875 L 120.777344 44.726563 L 121.617188 48.457031 C 121.699219 48.835938 121.773438 49.207031 121.855469 49.585938 C 115.777344 50.429688 104.234375 52.117188 103.449219 52.878906 C 102.375 53.914063 102.738281 55.300781 102.738281 55.300781 C 102.738281 55.300781 100.601563 56.335938 101.667969 58.058594 C 102.738281 59.78125 104.519531 61.152344 104.519531 61.152344 C 104.519531 61.152344 102.375 62.195313 102.738281 64.605469 C 103.09375 67.019531 105.230469 71.511719 105.230469 71.511719 C 105.230469 71.511719 106.300781 73.234375 108.433594 72.882813 C 110.585938 72.550781 114.140625 71.511719 114.140625 71.511719 L 83.496094 83.242188 C 83.496094 83.242188 78.503906 84.964844 79.21875 88.761719 C 79.929688 92.558594 80.285156 94.277344 82.078125 94.960938 C 83.851563 95.660156 84.570313 95.660156 85.988281 95.304688 C 86.019531 95.300781 86.042969 95.292969 86.070313 95.285156 C 86.28125 95.226563 86.320313 95.226563 86.070313 95.285156 C 85.328125 95.496094 82.515625 96.410156 82.785156 97.71875 C 83.144531 99.449219 83.144531 101.515625 84.921875 101.171875 C 86.707031 100.824219 94.1875 98.40625 94.1875 98.40625 C 94.1875 98.40625 85.277344 101.515625 84.921875 104.625 C 84.570313 107.734375 84.921875 110.839844 85.988281 111.523438 C 87.058594 112.203125 88.847656 112.203125 88.847656 112.203125 C 88.847656 112.203125 86.707031 112.898438 87.058594 113.929688 C 87.414063 114.96875 87.058594 117.382813 87.058594 117.382813 L 66.753906 124.972656 C 66.753906 124.972656 63.539063 127.042969 63.539063 129.117188 C 63.539063 131.175781 62.472656 136.703125 64.601563 137.394531 C 66.753906 138.078125 68.886719 137.738281 68.886719 137.738281 L 66.753906 139.796875 C 66.753906 139.796875 66.035156 143.261719 67.816406 144.289063 C 69.613281 145.332031 71.371094 148.425781 74.585938 147.398438 C 77.789063 146.355469 83.851563 144.640625 83.851563 144.640625 C 83.851563 144.640625 83.496094 146.710938 84.207031 148.777344 C 84.207031 148.777344 109.066406 135.273438 137.953125 124.074219 L 137.953125 131.773438 L 149.472656 143.113281 L 151.929688 140.695313 L 160.996094 131.773438 L 160.996094 115.730469 C 193.652344 104.378906 219.292969 97.027344 219.292969 97.027344 C 216.800781 95.660156 211.808594 94.277344 211.808594 94.277344 C 211.808594 94.277344 222.136719 90.484375 225.699219 88.40625 C 229.265625 86.335938 234.609375 81.855469 234.609375 80.472656 C 234.609375 79.09375 233.191406 71.511719 233.191406 71.511719 "/>
<path style=" stroke:none;fill-rule:nonzero;fill:rgb(29.026794%,29.026794%,29.026794%);fill-opacity:1;" d="M 149.027344 142.660156 L 151.484375 140.242188 L 160.359375 131.507813 L 160.359375 113.378906 C 160.359375 113.367188 160.359375 113.355469 160.359375 113.351563 C 160.359375 109.546875 161.714844 105.285156 164.421875 100.847656 C 167.125 96.398438 171.152344 91.8125 176.289063 87.417969 L 177.722656 86.1875 L 177.15625 84.382813 C 175.417969 78.84375 174.546875 72.921875 174.546875 66.585938 C 174.546875 60.832031 175.265625 54.738281 176.710938 48.316406 L 177.550781 44.589844 L 178.789063 44.867188 L 177.953125 48.597656 C 176.523438 54.9375 175.820313 60.9375 175.820313 66.585938 C 175.820313 72.804688 176.671875 78.59375 178.371094 84.003906 L 179.191406 86.605469 L 177.113281 88.386719 C 172.066406 92.707031 168.121094 97.207031 165.507813 101.507813 C 162.890625 105.804688 161.628906 109.855469 161.632813 113.351563 L 161.632813 132.039063 L 152.375 141.148438 L 149.921875 143.566406 "/>
<path style=" stroke:none;fill-rule:nonzero;fill:rgb(80.076599%,63.867188%,14.501953%);fill-opacity:1;" d="M 148.914063 138.769531 L 140.894531 130.875 C 140.742188 130.726563 140.65625 130.519531 140.65625 130.308594 L 140.65625 113.378906 C 140.679688 104.785156 134.546875 94.859375 124.003906 85.847656 C 123.761719 85.640625 123.667969 85.308594 123.765625 85.003906 C 125.570313 79.246094 126.46875 73.109375 126.472656 66.585938 C 126.472656 60.660156 125.730469 54.414063 124.257813 47.863281 C 124.207031 47.644531 124.253906 47.414063 124.378906 47.234375 C 124.507813 47.050781 124.707031 46.929688 124.925781 46.898438 C 128.914063 46.371094 133.238281 43.703125 137.8125 38.746094 C 138.0625 38.480469 138.453125 38.414063 138.773438 38.585938 C 142.367188 40.503906 146 41.484375 149.460938 41.546875 C 152.949219 41.484375 156.578125 40.503906 160.175781 38.585938 C 160.496094 38.414063 160.886719 38.480469 161.136719 38.746094 C 165.714844 43.703125 170.035156 46.371094 174.023438 46.898438 C 174.246094 46.929688 174.441406 47.050781 174.570313 47.234375 C 174.695313 47.417969 174.742188 47.644531 174.691406 47.863281 C 173.21875 54.414063 172.476563 60.660156 172.480469 66.585938 C 172.480469 73.109375 173.375 79.246094 175.183594 85.003906 C 175.28125 85.308594 175.1875 85.640625 174.941406 85.847656 C 164.402344 94.859375 158.269531 104.785156 158.289063 113.378906 L 158.289063 130.308594 C 158.289063 130.519531 158.203125 130.726563 158.054688 130.875 L 150.03125 138.769531 C 149.878906 138.921875 149.675781 138.996094 149.476563 138.996094 C 149.273438 138.996094 149.070313 138.921875 148.914063 138.769531 "/>
<path style=" stroke:none;fill-rule:nonzero;fill:rgb(100%,100%,100%);fill-opacity:1;" d="M 142.25 113.378906 L 142.25 129.972656 L 149.476563 137.085938 L 156.699219 129.972656 L 156.699219 113.378906 C 156.71875 104.132813 163.03125 94.078125 173.511719 84.980469 C 171.753906 79.203125 170.886719 73.066406 170.886719 66.585938 C 170.886719 60.777344 171.585938 54.691406 172.960938 48.335938 C 168.828125 47.511719 164.65625 44.785156 160.382813 40.269531 C 156.765625 42.113281 153.074219 43.074219 149.460938 43.136719 C 145.871094 43.074219 142.183594 42.113281 138.566406 40.269531 C 134.289063 44.785156 130.117188 47.511719 125.988281 48.335938 C 127.363281 54.691406 128.0625 60.777344 128.0625 66.585938 C 128.0625 73.066406 127.191406 79.203125 125.4375 84.980469 C 135.917969 94.078125 142.230469 104.132813 142.25 113.378906 "/>
<path style=" stroke:none;fill-rule:nonzero;fill:rgb(100%,0%,0%);fill-opacity:1;" d="M 126.878906 48.578125 C 132.351563 47.878906 136.363281 45.332031 138.847656 41.070313 C 142.324219 43.15625 145.929688 44.1875 149.476563 44.1875 C 153.019531 44.1875 156.625 43.15625 160.105469 41.070313 C 162.585938 45.332031 166.597656 47.878906 172.070313 48.578125 C 169.523438 62.648438 169.652344 74.804688 172.453125 85.117188 C 165.285156 89.921875 155.140625 103.246094 155.140625 117.578125 L 155.140625 128.78125 L 149.476563 135.074219 L 143.808594 128.78125 L 143.808594 117.578125 C 143.808594 103.246094 133.664063 89.921875 126.496094 85.117188 C 129.296875 74.804688 129.425781 62.648438 126.878906 48.578125 "/>
<path style=" stroke:none;fill-rule:nonzero;fill:rgb(100%,100%,100%);fill-opacity:1;" d="M 169.652344 67.390625 L 153.578125 67.390625 L 153.578125 45.078125 L 145.371094 45.078125 L 145.371094 67.390625 L 129.296875 67.390625 L 129.296875 75.601563 L 145.371094 75.601563 L 145.371094 128.132813 L 149.472656 132.695313 L 153.578125 128.132813 L 153.578125 75.601563 L 169.652344 75.601563 "/>
<path style=" stroke:none;fill-rule:nonzero;fill:rgb(80.076599%,63.867188%,14.501953%);fill-opacity:1;" d="M 177.894531 9.765625 C 177.175781 9.574219 176.453125 9.480469 175.722656 9.480469 C 174.179688 9.480469 172.597656 9.90625 171 10.78125 C 170.046875 10.203125 168.703125 9.9375 166.925781 9.9375 C 166.324219 9.9375 165.667969 9.96875 164.960938 10.03125 C 165.246094 8.605469 165.394531 7.363281 165.394531 6.296875 C 165.390625 4.796875 165.109375 3.632813 164.488281 2.816406 C 163.867188 1.996094 162.90625 1.589844 161.726563 1.59375 C 161.421875 1.597656 161.097656 1.621094 160.757813 1.671875 C 158.566406 1.847656 157.117188 3.15625 156.734375 5.367188 L 156.730469 5.425781 L 156.730469 7.730469 L 155.011719 8.804688 L 153.3125 7.742188 C 153.359375 7.246094 153.382813 6.785156 153.382813 6.351563 C 153.382813 4.789063 153.074219 3.601563 152.402344 2.789063 C 151.730469 1.976563 150.714844 1.601563 149.476563 1.605469 C 148.234375 1.601563 147.21875 1.976563 146.546875 2.789063 C 145.878906 3.601563 145.566406 4.789063 145.566406 6.351563 C 145.566406 6.785156 145.589844 7.246094 145.636719 7.742188 L 143.9375 8.804688 L 142.21875 7.730469 L 142.21875 5.425781 L 142.214844 5.367188 C 141.835938 3.15625 140.382813 1.847656 138.171875 1.671875 C 137.851563 1.621094 137.527344 1.597656 137.222656 1.597656 C 136.046875 1.589844 135.082031 1.996094 134.460938 2.816406 C 133.839844 3.632813 133.558594 4.796875 133.558594 6.296875 C 133.558594 7.363281 133.703125 8.609375 133.992188 10.03125 C 133.28125 9.96875 132.628906 9.9375 132.023438 9.9375 C 130.246094 9.9375 128.902344 10.203125 127.949219 10.78125 C 126.351563 9.90625 124.769531 9.480469 123.230469 9.480469 C 122.496094 9.480469 121.773438 9.574219 121.070313 9.761719 C 118.917969 10.414063 117.761719 11.929688 117.714844 14.132813 C 117.824219 16.59375 118.960938 18.195313 120.960938 18.59375 L 121.097656 18.589844 L 124.425781 17.773438 C 124.703125 18.699219 125.160156 19.488281 125.863281 20.003906 C 126.421875 20.394531 127.289063 20.546875 128.5625 20.554688 C 129.285156 20.554688 130.136719 20.496094 131.125 20.386719 C 132.796875 20.800781 134.03125 22.375 134.671875 25.351563 C 134.328125 25.582031 134.15625 25.988281 134.167969 26.433594 C 134.167969 26.976563 134.34375 27.640625 134.667969 28.457031 L 134.753906 28.574219 C 135.757813 29.460938 136.265625 30.375 136.296875 31.175781 C 135.734375 32.066406 135.445313 32.914063 135.445313 33.742188 C 135.445313 34.296875 135.578125 34.832031 135.820313 35.347656 C 135.855469 35.421875 135.914063 35.476563 135.992188 35.507813 C 140.347656 37.238281 144.84375 38.269531 149.476563 38.269531 C 154.105469 38.269531 158.601563 37.238281 162.960938 35.507813 C 163.035156 35.476563 163.09375 35.421875 163.128906 35.347656 C 163.371094 34.832031 163.503906 34.296875 163.503906 33.742188 C 163.503906 32.914063 163.21875 32.0625 162.652344 31.175781 C 162.6875 30.375 163.195313 29.460938 164.199219 28.574219 L 164.28125 28.457031 C 164.609375 27.640625 164.78125 26.976563 164.785156 26.433594 C 164.796875 25.984375 164.621094 25.574219 164.28125 25.351563 C 164.921875 22.375 166.152344 20.800781 167.828125 20.386719 C 168.816406 20.496094 169.664063 20.554688 170.390625 20.554688 C 171.660156 20.550781 172.527344 20.398438 173.085938 20.003906 C 173.792969 19.488281 174.246094 18.699219 174.523438 17.773438 L 177.851563 18.589844 L 177.992188 18.59375 C 179.988281 18.195313 181.128906 16.59375 181.238281 14.160156 C 181.191406 11.929688 180.03125 10.414063 177.894531 9.765625 "/>
<path style=" stroke:none;fill-rule:nonzero;fill:rgb(100%,100%,100%);fill-opacity:1;" d="M 163.71875 28.152344 C 162.632813 29.128906 162.019531 30.199219 162.015625 31.265625 L 162.066406 31.441406 C 162.621094 32.289063 162.867188 33.046875 162.867188 33.742188 C 162.867188 34.160156 162.78125 34.5625 162.605469 34.964844 C 158.34375 36.640625 153.96875 37.628906 149.476563 37.628906 C 144.984375 37.628906 140.605469 36.640625 136.34375 34.964844 C 136.171875 34.5625 136.085938 34.15625 136.085938 33.742188 C 136.085938 33.046875 136.328125 32.292969 136.882813 31.441406 L 136.9375 31.265625 C 136.933594 30.195313 136.316406 29.128906 135.230469 28.148438 C 134.9375 27.40625 134.800781 26.820313 134.804688 26.433594 C 134.816406 26.023438 134.910156 25.90625 135.078125 25.832031 C 136.03125 25.515625 136.980469 25.136719 137.910156 24.890625 C 139.566406 24.445313 141.207031 24.003906 142.902344 23.753906 C 145.0625 23.371094 147.277344 23.117188 149.492188 22.992188 C 151.671875 23.117188 153.886719 23.371094 156.039063 23.75 C 157.742188 24.003906 159.386719 24.445313 161.039063 24.890625 C 161.96875 25.136719 162.921875 25.515625 163.886719 25.839844 C 164.039063 25.90625 164.132813 26.023438 164.148438 26.433594 C 164.148438 26.824219 164.011719 27.410156 163.71875 28.152344 "/>
<path style=" stroke:none;fill-rule:nonzero;fill:rgb(100%,100%,100%);fill-opacity:1;" d="M 177.929688 17.953125 L 174.378906 17.082031 C 174.203125 17.039063 174.035156 17.144531 173.992188 17.3125 C 173.746094 18.289063 173.328125 19.039063 172.710938 19.488281 C 172.382813 19.738281 171.601563 19.921875 170.390625 19.917969 C 169.6875 19.917969 168.839844 19.859375 167.84375 19.746094 L 167.734375 19.753906 C 165.722656 20.222656 164.355469 22.0625 163.6875 25.097656 C 162.867188 24.8125 162.042969 24.5 161.203125 24.277344 C 159.550781 23.828125 157.886719 23.382813 156.144531 23.121094 C 153.972656 22.738281 151.734375 22.484375 149.492188 22.355469 C 147.21875 22.484375 144.976563 22.738281 142.800781 23.125 C 141.066406 23.382813 139.398438 23.828125 137.746094 24.277344 C 136.90625 24.5 136.078125 24.8125 135.265625 25.097656 C 134.597656 22.0625 133.226563 20.222656 131.214844 19.753906 L 131.105469 19.746094 C 130.109375 19.863281 129.265625 19.917969 128.5625 19.917969 C 127.351563 19.921875 126.570313 19.734375 126.238281 19.488281 C 125.621094 19.039063 125.203125 18.289063 124.960938 17.3125 C 124.914063 17.144531 124.746094 17.039063 124.574219 17.082031 L 121.019531 17.953125 C 119.367188 17.570313 118.492188 16.378906 118.351563 14.128906 C 118.433594 12.15625 119.308594 11.003906 121.246094 10.375 C 121.886719 10.203125 122.550781 10.117188 123.230469 10.117188 C 124.699219 10.117188 126.230469 10.535156 127.804688 11.429688 C 127.910156 11.488281 128.039063 11.484375 128.140625 11.414063 C 128.925781 10.871094 130.203125 10.570313 132.023438 10.574219 C 132.722656 10.574219 133.496094 10.617188 134.355469 10.707031 C 134.460938 10.71875 134.558594 10.675781 134.628906 10.601563 C 134.695313 10.523438 134.722656 10.421875 134.703125 10.320313 C 134.359375 8.75 134.191406 7.40625 134.195313 6.296875 C 134.242188 3.433594 135.179688 2.265625 137.222656 2.230469 C 137.496094 2.230469 137.785156 2.253906 138.097656 2.300781 C 140.101563 2.507813 141.195313 3.480469 141.582031 5.453125 L 141.582031 7.90625 C 141.582031 8.015625 141.640625 8.117188 141.730469 8.175781 L 143.769531 9.449219 C 143.871094 9.511719 144.003906 9.511719 144.105469 9.449219 L 146.144531 8.175781 C 146.246094 8.109375 146.304688 7.992188 146.292969 7.871094 C 146.230469 7.320313 146.203125 6.816406 146.203125 6.351563 C 146.253906 3.375 147.265625 2.285156 149.476563 2.242188 C 151.6875 2.285156 152.699219 3.375 152.746094 6.351563 C 152.746094 6.816406 152.71875 7.320313 152.660156 7.871094 C 152.648438 7.992188 152.703125 8.109375 152.808594 8.175781 L 154.84375 9.449219 C 154.949219 9.511719 155.078125 9.511719 155.183594 9.449219 L 157.21875 8.175781 C 157.3125 8.117188 157.367188 8.015625 157.367188 7.90625 L 157.367188 5.453125 C 157.757813 3.480469 158.851563 2.507813 160.835938 2.304688 C 161.164063 2.253906 161.453125 2.230469 161.726563 2.230469 C 163.769531 2.265625 164.710938 3.433594 164.753906 6.296875 C 164.753906 7.40625 164.589844 8.75 164.25 10.320313 C 164.230469 10.421875 164.253906 10.523438 164.324219 10.601563 C 164.394531 10.675781 164.492188 10.714844 164.59375 10.707031 C 165.453125 10.617188 166.226563 10.574219 166.925781 10.574219 C 168.746094 10.570313 170.023438 10.871094 170.808594 11.414063 C 170.910156 11.484375 171.039063 11.488281 171.144531 11.429688 C 172.722656 10.535156 174.25 10.117188 175.722656 10.117188 C 176.398438 10.117188 177.0625 10.203125 177.71875 10.378906 C 179.644531 11.003906 180.519531 12.15625 180.601563 14.152344 C 180.460938 16.378906 179.582031 17.570313 177.929688 17.953125 "/>
<path style=" stroke:none;fill-rule:nonzero;fill:rgb(80.076599%,63.867188%,14.501953%);fill-opacity:1;" d="M 138.273438 27.449219 C 138.210938 27.894531 138.210938 28.277344 138.335938 28.722656 L 140.246094 28.019531 "/>
<path style=" stroke:none;fill-rule:nonzero;fill:rgb(80.076599%,63.867188%,14.501953%);fill-opacity:1;" d="M 149.476563 28.785156 L 150.273438 27.765625 L 148.679688 27.765625 "/>
<path style=" stroke:none;fill-rule:nonzero;fill:rgb(80.076599%,63.867188%,14.501953%);fill-opacity:1;" d="M 149.476563 29.738281 L 146.613281 28.085938 L 146.613281 28.210938 C 146.613281 28.722656 146.421875 29.230469 146.039063 29.613281 C 145.976563 29.675781 145.914063 29.738281 145.847656 29.804688 C 147.054688 29.804688 148.265625 29.738281 149.476563 29.738281 "/>
<path style=" stroke:none;fill-rule:nonzero;fill:rgb(80.076599%,63.867188%,14.501953%);fill-opacity:1;" d="M 143.492188 29.867188 C 143.367188 29.804688 143.300781 29.738281 143.175781 29.613281 C 142.792969 29.230469 142.601563 28.71875 142.601563 28.210938 L 142.601563 28.085938 L 139.292969 30.121094 C 140.691406 30.058594 142.09375 29.929688 143.492188 29.867188 "/>
<path style=" stroke:none;fill-rule:nonzero;fill:rgb(80.076599%,63.867188%,14.501953%);fill-opacity:1;" d="M 145.210938 28.019531 C 145.210938 28.371094 144.925781 28.65625 144.574219 28.65625 C 144.222656 28.65625 143.9375 28.371094 143.9375 28.019531 C 143.9375 27.667969 144.222656 27.382813 144.574219 27.382813 C 144.925781 27.382813 145.210938 27.667969 145.210938 28.019531 "/>
<path style=" stroke:none;fill-rule:nonzero;fill:rgb(80.076599%,63.867188%,14.501953%);fill-opacity:1;" d="M 160.679688 27.449219 C 160.742188 27.894531 160.742188 28.277344 160.617188 28.722656 L 158.703125 28.019531 "/>
<path style=" stroke:none;fill-rule:nonzero;fill:rgb(80.076599%,63.867188%,14.501953%);fill-opacity:1;" d="M 149.476563 29.738281 L 152.339844 28.085938 L 152.339844 28.210938 C 152.339844 28.722656 152.53125 29.230469 152.914063 29.613281 C 152.976563 29.675781 153.039063 29.738281 153.105469 29.804688 C 151.894531 29.804688 150.683594 29.738281 149.476563 29.738281 "/>
<path style=" stroke:none;fill-rule:nonzero;fill:rgb(80.076599%,63.867188%,14.501953%);fill-opacity:1;" d="M 155.460938 29.867188 C 155.585938 29.804688 155.648438 29.738281 155.777344 29.613281 C 156.160156 29.230469 156.351563 28.71875 156.351563 28.210938 L 156.351563 28.085938 L 159.660156 30.121094 C 158.261719 30.058594 156.859375 29.929688 155.460938 29.867188 "/>
<path style=" stroke:none;fill-rule:nonzero;fill:rgb(80.076599%,63.867188%,14.501953%);fill-opacity:1;" d="M 143.175781 26.746094 C 143.558594 26.367188 144.066406 26.175781 144.640625 26.175781 C 145.210938 26.175781 145.65625 26.367188 146.039063 26.746094 C 146.230469 26.9375 146.355469 27.066406 146.421875 27.257813 L 152.53125 27.257813 C 152.59375 27.066406 152.722656 26.9375 152.914063 26.746094 C 153.296875 26.367188 153.742188 26.175781 154.3125 26.175781 C 154.886719 26.175781 155.394531 26.367188 155.777344 26.746094 C 155.96875 26.9375 156.097656 27.128906 156.160156 27.320313 L 160.421875 26.554688 C 158.515625 25.984375 156.667969 25.601563 154.757813 25.285156 C 152.976563 24.964844 151.195313 24.839844 149.476563 24.773438 C 147.757813 24.839844 145.976563 24.964844 144.195313 25.285156 C 142.28125 25.601563 140.4375 25.984375 138.527344 26.554688 L 142.792969 27.320313 C 142.855469 27.128906 142.984375 26.9375 143.175781 26.746094 "/>
<path style=" stroke:none;fill-rule:nonzero;fill:rgb(80.076599%,63.867188%,14.501953%);fill-opacity:1;" d="M 158.449219 31.839844 C 158.003906 31.648438 157.433594 31.519531 156.796875 31.328125 C 154.695313 30.949219 152.277344 30.757813 149.476563 30.757813 C 146.675781 30.757813 144.257813 30.949219 142.15625 31.328125 C 141.519531 31.519531 140.945313 31.648438 140.503906 31.839844 C 139.355469 32.222656 138.78125 32.601563 138.78125 33.046875 C 138.78125 33.683594 139.929688 34.195313 142.15625 34.578125 C 144.257813 35.023438 146.675781 35.277344 149.476563 35.339844 C 152.277344 35.277344 154.695313 35.023438 156.796875 34.578125 C 159.023438 34.195313 160.167969 33.683594 160.167969 33.046875 C 160.167969 32.601563 159.597656 32.222656 158.449219 31.839844 "/>
<path style=" stroke:none;fill-rule:nonzero;fill:rgb(80.076599%,63.867188%,14.501953%);fill-opacity:1;" d="M 153.742188 28.019531 C 153.742188 28.371094 154.023438 28.65625 154.378906 28.65625 C 154.730469 28.65625 155.011719 28.371094 155.011719 28.019531 C 155.011719 27.667969 154.730469 27.382813 154.378906 27.382813 C 154.023438 27.382813 153.742188 27.667969 153.742188 28.019531 "/>
<path style=" stroke:none;fill-rule:nonzero;fill:rgb(80.076599%,63.867188%,14.501953%);fill-opacity:1;" d="M 145.210938 14.335938 C 144.894531 15.800781 144.003906 16.628906 142.539063 16.882813 C 145.339844 20.128906 147.503906 19.554688 149.09375 15.226563 C 147.695313 15.546875 146.355469 15.289063 145.210938 14.335938 "/>
<path style=" stroke:none;fill-rule:nonzero;fill:rgb(80.076599%,63.867188%,14.501953%);fill-opacity:1;" d="M 135.34375 14.082031 C 134.964844 15.546875 135.347656 17.625 136.234375 18.535156 C 138.65625 21.019531 140.117188 20.191406 140.691406 16.117188 C 139.101563 17.265625 137.320313 16.5625 135.34375 14.082031 "/>
<path style=" stroke:none;fill-rule:nonzero;fill:rgb(80.076599%,63.867188%,14.501953%);fill-opacity:1;" d="M 153.742188 14.335938 C 154.058594 15.800781 154.949219 16.628906 156.414063 16.882813 C 153.613281 20.128906 151.449219 19.554688 149.859375 15.226563 C 151.257813 15.546875 152.59375 15.289063 153.742188 14.335938 "/>
<path style=" stroke:none;fill-rule:nonzero;fill:rgb(80.076599%,63.867188%,14.501953%);fill-opacity:1;" d="M 163.605469 14.082031 C 163.988281 15.546875 163.601563 17.625 162.714844 18.535156 C 160.296875 21.019531 158.832031 20.191406 158.257813 16.117188 C 159.851563 17.265625 161.632813 16.5625 163.605469 14.082031 "/>
<path style=" stroke:none;fill-rule:nonzero;fill:rgb(80.076599%,63.867188%,14.501953%);fill-opacity:1;" d="M 152.785156 12.488281 L 146.164063 12.488281 C 145.65625 11.34375 146.355469 10.707031 148.265625 10.644531 L 148.265625 8.160156 C 148.394531 7.652344 148.773438 7.460938 149.476563 7.652344 C 150.175781 7.460938 150.558594 7.652344 150.683594 8.160156 L 150.683594 10.644531 C 152.59375 10.707031 153.296875 11.34375 152.785156 12.488281 M 151.511719 9.816406 L 151.511719 8.414063 C 152.402344 6.125 151.765625 4.789063 149.476563 4.40625 C 147.183594 4.789063 146.550781 6.125 147.4375 8.414063 L 147.4375 9.816406 C 144.703125 10.515625 144.066406 11.851563 145.464844 13.761719 C 146.992188 14.335938 148.328125 14.082031 149.476563 13 C 150.621094 14.082031 151.957031 14.335938 153.484375 13.761719 C 154.886719 11.851563 154.25 10.515625 151.511719 9.816406 "/>
<path style=" stroke:none;fill-rule:nonzero;fill:rgb(80.076599%,63.867188%,14.501953%);fill-opacity:1;" d="M 175.0625 11.664063 C 173.089844 11.664063 171.472656 12.640625 170.265625 14.105469 L 170.261719 14.105469 C 169.761719 13.660156 168.851563 13.007813 167.675781 12.984375 C 166.183594 13.003906 165.125 13.960938 165.082031 13.988281 C 164.980469 14.074219 164.917969 14.199219 164.90625 14.335938 C 164.746094 16.261719 164.355469 18.144531 163.710938 19.492188 C 163.046875 20.847656 162.230469 21.578125 161.148438 21.578125 C 160.234375 21.585938 159.175781 21.066406 158.378906 20.515625 C 157.574219 19.96875 157.035156 19.425781 157.035156 19.425781 C 156.863281 19.246094 156.589844 19.21875 156.382813 19.355469 C 156.378906 19.351563 156.007813 19.605469 155.363281 19.867188 C 154.71875 20.128906 153.832031 20.386719 152.878906 20.386719 C 152.035156 20.386719 151.246094 20.144531 150.675781 19.898438 C 150.105469 19.648438 149.773438 19.417969 149.769531 19.417969 C 149.679688 19.355469 149.578125 19.335938 149.476563 19.335938 C 149.371094 19.335938 149.269531 19.355469 149.179688 19.417969 C 149.179688 19.417969 148.847656 19.648438 148.273438 19.898438 C 147.703125 20.144531 146.917969 20.386719 146.074219 20.386719 C 145.121094 20.386719 144.230469 20.128906 143.585938 19.867188 C 142.945313 19.605469 142.570313 19.351563 142.566406 19.355469 C 142.359375 19.21875 142.085938 19.246094 141.914063 19.425781 C 141.914063 19.425781 141.378906 19.96875 140.574219 20.515625 C 139.773438 21.066406 138.71875 21.585938 137.800781 21.578125 C 136.722656 21.578125 135.90625 20.847656 135.242188 19.492188 C 134.59375 18.144531 134.207031 16.261719 134.046875 14.335938 C 134.035156 14.199219 133.96875 14.074219 133.871094 13.988281 C 133.824219 13.960938 132.765625 13.003906 131.277344 12.984375 C 130.097656 13.007813 129.1875 13.660156 128.691406 14.105469 L 128.6875 14.105469 C 127.476563 12.640625 125.859375 11.664063 123.886719 11.664063 C 120.386719 11.664063 119.433594 13.382813 120.960938 16.246094 C 122.550781 14.398438 125.097656 14.144531 128.535156 15.417969 C 129.453125 15.757813 129.890625 14.019531 131.277344 14.019531 C 131.777344 14.019531 132.265625 14.199219 132.625 14.394531 C 132.796875 14.488281 132.9375 14.578125 133.035156 14.648438 C 133.214844 16.578125 133.605469 18.464844 134.308594 19.9375 C 135.023438 21.453125 136.171875 22.613281 137.800781 22.609375 C 139.820313 22.578125 141.652344 21.0625 142.351563 20.425781 C 142.980469 20.765625 144.382813 21.414063 146.074219 21.417969 C 147.640625 21.414063 148.921875 20.773438 149.476563 20.449219 C 150.027344 20.773438 151.308594 21.414063 152.878906 21.417969 C 154.566406 21.414063 155.96875 20.765625 156.597656 20.425781 C 157.296875 21.0625 159.132813 22.578125 161.148438 22.609375 C 162.777344 22.613281 163.929688 21.453125 164.640625 19.9375 C 165.34375 18.464844 165.734375 16.578125 165.914063 14.648438 C 166.015625 14.578125 166.15625 14.488281 166.324219 14.394531 C 166.683594 14.199219 167.175781 14.019531 167.675781 14.019531 C 169.058594 14.019531 169.496094 15.757813 170.417969 15.417969 C 173.855469 14.144531 176.398438 14.398438 177.992188 16.246094 C 179.519531 13.382813 178.566406 11.664063 175.0625 11.664063 "/>
<path style=" stroke:none;fill-rule:nonzero;fill:rgb(80.076599%,63.867188%,14.501953%);fill-opacity:1;" d="M 128.757813 16.371094 C 128.179688 16.371094 127.707031 16.84375 127.707031 17.421875 C 127.707031 18.003906 128.179688 18.472656 128.757813 18.472656 C 129.339844 18.472656 129.808594 18.003906 129.808594 17.421875 C 129.808594 16.84375 129.339844 16.371094 128.757813 16.371094 "/>
<path style=" stroke:none;fill-rule:nonzero;fill:rgb(80.076599%,63.867188%,14.501953%);fill-opacity:1;" d="M 170.195313 16.371094 C 170.773438 16.371094 171.246094 16.84375 171.246094 17.421875 C 171.246094 18.003906 170.773438 18.472656 170.195313 18.472656 C 169.613281 18.472656 169.144531 18.003906 169.144531 17.421875 C 169.144531 16.84375 169.613281 16.371094 170.195313 16.371094 "/>
<path style=" stroke:none;fill-rule:nonzero;fill:rgb(80.076599%,63.867188%,14.501953%);fill-opacity:1;" d="M 143.238281 14.542969 C 142.492188 14.554688 142.175781 14.136719 141.429688 14.105469 C 140.445313 14.152344 140.246094 14.777344 139.476563 14.742188 C 138.769531 14.742188 138.128906 14.578125 137.691406 14.335938 C 137.242188 14.085938 137.035156 13.78125 137.039063 13.515625 C 136.984375 12.6875 138.296875 11.605469 138.335938 10.140625 C 138.335938 9.925781 138.300781 9.707031 138.230469 9.484375 C 138.925781 9.425781 139.53125 9.0625 139.90625 8.515625 C 140.535156 10.949219 142.679688 12.015625 143.613281 12.714844 C 143.644531 12.773438 143.703125 12.890625 143.765625 13.054688 C 143.855469 13.304688 143.945313 13.648438 143.945313 14.011719 C 143.945313 14.308594 143.6875 14.527344 143.238281 14.542969 M 144.082031 12.375 L 144.007813 12.292969 C 142.828125 11.402344 140.386719 10.285156 140.300781 7.242188 C 140.300781 5.992188 139.289063 4.980469 138.042969 4.980469 C 136.792969 4.980469 135.78125 5.992188 135.78125 7.242188 C 135.78125 8.34375 136.570313 9.257813 137.609375 9.457031 C 137.71875 9.699219 137.761719 9.925781 137.761719 10.140625 C 137.800781 11.242188 136.519531 12.253906 136.46875 13.515625 C 136.523438 14.65625 137.914063 15.296875 139.476563 15.3125 C 140.578125 15.277344 140.859375 14.628906 141.429688 14.675781 C 141.835938 14.648438 142.273438 15.097656 143.238281 15.113281 C 143.886719 15.113281 144.515625 14.707031 144.519531 14.011719 C 144.515625 13.09375 144.089844 12.398438 144.082031 12.375 "/>
<path style=" stroke:none;fill-rule:nonzero;fill:rgb(80.076599%,63.867188%,14.501953%);fill-opacity:1;" d="M 155.714844 14.542969 C 156.460938 14.554688 156.777344 14.136719 157.523438 14.105469 C 158.507813 14.152344 158.707031 14.777344 159.472656 14.742188 C 160.183594 14.742188 160.824219 14.578125 161.261719 14.335938 C 161.707031 14.085938 161.914063 13.78125 161.910156 13.515625 C 161.964844 12.6875 160.65625 11.605469 160.613281 10.140625 C 160.613281 9.925781 160.652344 9.707031 160.722656 9.484375 C 160.027344 9.425781 159.421875 9.0625 159.046875 8.515625 C 158.417969 10.949219 156.273438 12.015625 155.339844 12.714844 C 155.304688 12.773438 155.246094 12.890625 155.1875 13.054688 C 155.097656 13.304688 155.007813 13.648438 155.007813 14.011719 C 155.007813 14.308594 155.261719 14.527344 155.714844 14.542969 M 154.871094 12.375 L 154.945313 12.292969 C 156.121094 11.402344 158.566406 10.285156 158.652344 7.242188 C 158.652344 5.992188 159.660156 4.980469 160.910156 4.980469 C 162.15625 4.980469 163.171875 5.992188 163.171875 7.242188 C 163.171875 8.34375 162.382813 9.257813 161.34375 9.457031 C 161.234375 9.699219 161.191406 9.925781 161.1875 10.140625 C 161.152344 11.242188 162.429688 12.253906 162.484375 13.515625 C 162.425781 14.65625 161.039063 15.296875 159.472656 15.3125 C 158.371094 15.277344 158.09375 14.628906 157.523438 14.675781 C 157.117188 14.648438 156.679688 15.097656 155.714844 15.113281 C 155.066406 15.113281 154.4375 14.707031 154.433594 14.011719 C 154.4375 13.09375 154.859375 12.398438 154.871094 12.375 "/>
<path style=" stroke:none;fill-rule:nonzero;fill:rgb(100%,100%,100%);fill-opacity:1;" d="M 141.042969 57.652344 L 139.371094 57.117188 L 140.175781 55.558594 L 138.613281 56.359375 L 138.082031 54.691406 L 137.546875 56.359375 L 135.988281 55.558594 L 136.789063 57.117188 L 135.121094 57.652344 L 136.792969 58.183594 L 135.988281 59.742188 L 137.546875 58.941406 L 138.082031 60.609375 L 138.613281 58.941406 L 140.175781 59.742188 L 139.371094 58.183594 "/>
<path style=" stroke:none;fill-rule:nonzero;fill:rgb(100%,100%,100%);fill-opacity:1;" d="M 157.910156 57.652344 L 159.578125 57.117188 L 158.773438 55.558594 L 160.335938 56.359375 L 160.867188 54.691406 L 161.402344 56.359375 L 162.960938 55.558594 L 162.15625 57.117188 L 163.828125 57.652344 L 162.15625 58.183594 L 162.960938 59.742188 L 161.402344 58.941406 L 160.867188 60.609375 L 160.335938 58.941406 L 158.773438 59.742188 L 159.578125 58.183594 "/>
</g>
</svg>
