<?xml version="1.0" encoding="UTF-8" standalone="no"?>
<!-- Created with Inkscape (http://www.inkscape.org/) -->

<svg
   xmlns:dc="http://purl.org/dc/elements/1.1/"
   xmlns:cc="http://creativecommons.org/ns#"
   xmlns:rdf="http://www.w3.org/1999/02/22-rdf-syntax-ns#"
   xmlns:svg="http://www.w3.org/2000/svg"
   xmlns="http://www.w3.org/2000/svg"
   xmlns:sodipodi="http://sodipodi.sourceforge.net/DTD/sodipodi-0.dtd"
   xmlns:inkscape="http://www.inkscape.org/namespaces/inkscape"
   id="svg2"
   version="1.1"
   inkscape:version="0.91 r13725"
   xml:space="preserve"
   width="700"
   height="676"
   viewBox="0 0 700 676"
   sodipodi:docname="Logo Udinese_Calcio_2010.svg"><metadata
     id="metadata8"><rdf:RDF><cc:Work
         rdf:about=""><dc:format>image/svg+xml</dc:format><dc:type
           rdf:resource="http://purl.org/dc/dcmitype/StillImage" /><dc:title></dc:title></cc:Work></rdf:RDF></metadata><defs
     id="defs6" /><sodipodi:namedview
     pagecolor="#ffffff"
     bordercolor="#666666"
     borderopacity="1"
     objecttolerance="10"
     gridtolerance="10"
     guidetolerance="10"
     inkscape:pageopacity="0"
     inkscape:pageshadow="2"
     inkscape:window-width="1440"
     inkscape:window-height="788"
     id="namedview4"
     showgrid="false"
     inkscape:zoom="0.72973542"
     inkscape:cx="-30.182242"
     inkscape:cy="346.3137"
     inkscape:window-x="0"
     inkscape:window-y="1"
     inkscape:window-maximized="1"
     inkscape:current-layer="g10" /><g
     id="g10"
     inkscape:groupmode="layer"
     inkscape:label="Logo"
     transform="matrix(1.25,0,0,-1.25,0,676)"><g
       id="g6752"
       transform="translate(0.18621903,-1.3858843)"><g
         transform="matrix(3.1863836,0,0,3.1863836,-27.672869,-38.059759)"
         id="g5932"><g
           id="g5926"><path
             d="m 38.3754,97 c 0,32.102 26.0234,58.125 58.1246,58.125 32.101,0 58.125,-26.023 58.125,-58.125 0,-32.1012 -26.024,-58.1246 -58.125,-58.1246 -32.1012,0 -58.1246,26.0234 -58.1246,58.1246 l 0,0"
             style="fill:#acaaaa;fill-opacity:1;fill-rule:nonzero;stroke:none"
             id="path16"
             inkscape:connector-curvature="0" /><path
             d="M 50.6109,61.3266 96.5,123.64 142.389,61.3266 c -2.638,-3.3887 -5.642,-6.4789 -8.955,-9.2086 L 96.5,102.271 59.5656,52.118 c -3.3125,2.7293 -6.3164,5.8195 -8.9547,9.2086"
             style="fill:#ffffff;fill-opacity:1;fill-rule:nonzero;stroke:none"
             id="path284"
             inkscape:connector-curvature="0" /><path
             d="m 103.587,123.64 18.918,0 0,-31.9896 c 0,0 0.577,-12.2348 -8.922,-24.3727 C 105.748,57.2676 96.5,53.5668 96.5,53.5668 c 0,0 -9.2484,3.7008 -17.0828,13.7109 -9.4988,12.1379 -8.9219,24.3727 -8.9219,24.3727 l 0,31.9896 33.0917,0 0,0"
             style="fill:#ffffff;fill-opacity:1;fill-rule:nonzero;stroke:none"
             id="path286"
             inkscape:connector-curvature="0" /><path
             d="M 70.643,88.5285 96.5,123.64 122.357,88.5281 C 122.018,85.225 120.95,79.652 117.666,73.5293 L 96.5,102.271 75.3336,73.5297 c -3.2828,6.1226 -4.3508,11.6961 -4.6906,14.9988"
             style="fill:#231f20;fill-opacity:1;fill-rule:nonzero;stroke:none"
             id="path288"
             inkscape:connector-curvature="0" /></g><g
           id="g5911"><path
             d="m 42.4344,99.9863 0.3648,-0.0578 c 0.211,1.3335 0.5879,1.6265 2.2,1.3715 l 7.7602,-1.23 c 4.0191,-0.6364 5.3679,2.036 5.7054,4.164 0.4598,2.903 -0.85,5.071 -4.0093,5.571 l -7.9106,1.252 c -1.5906,0.253 -1.8769,0.673 -1.6793,1.92 l -0.3656,0.058 -0.6531,-4.128 0.3656,-0.058 c 0.2211,1.398 0.6129,1.644 2.2031,1.392 l 7.8242,-1.238 c 2.5801,-0.409 3.8707,-2.135 3.5301,-4.284 -0.2656,-1.676 -1.4449,-3.142 -4.2176,-2.703 l -8.2328,1.304 c -1.5695,0.248 -1.884,0.629 -1.673,1.962 l -0.3645,0.056 -0.8476,-5.3517 0,0"
             style="fill:#ffffff;fill-opacity:1;fill-rule:nonzero;stroke:none"
             id="path290"
             inkscape:connector-curvature="0" /><path
             d="m 47.7027,114.31 0.2828,-0.137 c 0.559,1.188 0.904,1.348 2.2016,0.716 l 7.7629,-3.786 c 1.2973,-0.633 1.3914,-0.988 0.8078,-2.184 l 0.282,-0.138 2.1567,4.421 c 1.4758,3.026 0.5805,6.549 -2.9266,8.26 -2.9422,1.435 -6.5379,1.11 -8.4515,-2.814 l -2.1157,-4.338 0,0 z m 2.2657,2.62 c 0.0847,0.597 0.1886,0.936 0.416,1.401 1.1515,2.362 3.7851,2.826 7.0273,1.245 3.1914,-1.556 4.4051,-3.794 3.2774,-6.106 -0.2672,-0.549 -0.6102,-0.999 -0.9797,-1.292 l -9.741,4.752 0,0"
             style="fill:#ffffff;fill-opacity:1;fill-rule:evenodd;stroke:none"
             id="path292"
             inkscape:connector-curvature="0" /><path
             d="m 53.8438,125.909 0.2515,-0.189 c 0.7461,0.989 1.127,1.095 2.2649,0.239 l 6.8972,-5.199 c 1.093,-0.824 1.1926,-1.246 0.4098,-2.254 l 0.2508,-0.19 2.916,3.872 -0.2504,0.189 c -0.7016,-0.931 -1.0531,-1.152 -2.2789,-0.229 l -6.8988,5.199 c -1.1371,0.857 -1.1551,1.264 -0.3938,2.242 l -0.2519,0.19 -2.9164,-3.87 0,0"
             style="fill:#ffffff;fill-opacity:1;fill-rule:nonzero;stroke:none"
             id="path294"
             inkscape:connector-curvature="0" /><path
             d="m 58.0902,132.134 0.2106,-0.234 c 0.4125,0.371 0.6945,0.5 1.2512,0.38 l 0.8546,-0.176 6.2372,-6.927 c 0.6937,-0.771 0.7226,-1.218 -0.1176,-1.999 l 0.2105,-0.234 2.9004,2.612 -0.2101,0.233 c -1.0204,-0.968 -1.4438,-1.049 -2.4465,0.063 l -5.3707,5.966 0.0277,0.025 12.1762,-2.799 0.1933,0.173 -7.4882,8.315 c -0.643,0.715 -0.6309,1.199 0.0843,1.843 l -0.2109,0.234 -2.7078,-2.438 0.2105,-0.234 c 0.977,0.905 1.3973,0.909 2.3371,-0.135 l 4.7645,-5.292 -0.0274,-0.026 -10.8445,2.482 -2.0344,-1.832 0,0"
             style="fill:#ffffff;fill-opacity:1;fill-rule:nonzero;stroke:none"
             id="path296"
             inkscape:connector-curvature="0" /><path
             d="m 76.9711,145.074 -7.4309,-3.624 0.1379,-0.282 c 1.2473,0.649 1.5918,0.405 2.1758,-0.792 l 3.7867,-7.763 c 0.6403,-1.313 0.4805,-1.658 -0.7086,-2.217 l 0.1383,-0.284 7.4805,3.649 -0.5141,3.247 -0.3234,-0.053 c 0.2625,-1.931 -0.1356,-2.886 -1.5153,-3.559 l -1.6289,-0.795 c -0.682,-0.333 -0.8714,-0.239 -1.2601,0.559 l -1.9785,4.055 2.0945,1.022 c 0.9637,0.47 1.4992,0.258 2.091,-0.996 l 0.2824,0.137 -1.9296,3.957 -0.2825,-0.139 c 0.6414,-1.271 0.495,-1.857 -0.7687,-2.473 l -1.7957,-0.876 -2.1645,4.439 2.2938,1.119 c 1.2972,0.631 1.9008,0.7 2.8871,-0.857 l 0.2988,0.147 -1.366,2.379 0,0"
             style="fill:#ffffff;fill-opacity:1;fill-rule:nonzero;stroke:none"
             id="path298"
             inkscape:connector-curvature="0" /><path
             d="m 84.3172,134.221 0.3406,0.084 c -0.0359,0.449 0.1301,0.701 0.4891,0.79 0.5383,0.134 1.4172,-0.332 2.6558,-0.025 1.902,0.475 3.0114,2.296 2.5414,4.18 -0.2328,0.933 -0.8824,1.781 -1.7351,2.293 -1.2774,0.768 -3.3223,1.249 -4.3539,1.868 -0.6957,0.418 -1.0942,0.948 -1.2555,1.594 -0.2277,0.916 0.3516,1.803 1.3742,2.058 1.1129,0.277 3.0149,-0.239 3.7168,-2.599 l 0.3055,0.076 -0.9981,4.002 -0.305,-0.076 c -0.0094,-0.422 -0.1891,-0.696 -0.4934,-0.771 -0.3769,-0.094 -1.2293,0.341 -2.575,0.005 -1.7586,-0.438 -2.666,-1.998 -2.2137,-3.811 0.2547,-1.023 0.8641,-1.71 1.7614,-2.249 1.0539,-0.633 3.1304,-1.239 3.9593,-1.738 0.8079,-0.485 1.1793,-0.984 1.3629,-1.719 0.2864,-1.149 -0.2925,-2.189 -1.3875,-2.462 -1.3816,-0.344 -3.1625,0.375 -3.8742,2.695 l -0.3406,-0.086 1.025,-4.109 0,0"
             style="fill:#ffffff;fill-opacity:1;fill-rule:nonzero;stroke:none"
             id="path300"
             inkscape:connector-curvature="0" /><path
             d="m 99.1191,149.562 -8.2554,-0.433 0.0168,-0.315 c 1.4011,0.112 1.6242,-0.248 1.6941,-1.577 l 0.4516,-8.625 c 0.0765,-1.46 -0.2063,-1.715 -1.5184,-1.766 l 0.0156,-0.314 8.3125,0.436 0.7961,3.19 -0.319,0.076 C 99.8,138.355 99.0602,137.63 97.5266,137.55 l -1.8094,-0.094 c -0.7574,-0.04 -0.8961,0.119 -0.9418,1.005 l -0.2363,4.508 2.3273,0.121 c 1.0715,0.056 1.4816,-0.348 1.5352,-1.734 l 0.3132,0.016 -0.23,4.397 -0.3129,-0.018 c 0.0926,-1.42 -0.2711,-1.903 -1.6754,-1.976 l -1.9942,-0.104 -0.2585,4.931 2.5492,0.133 c 1.441,0.076 2.0242,-0.097 2.3226,-1.915 l 0.3321,0.017 -0.3286,2.725 0,0"
             style="fill:#ffffff;fill-opacity:1;fill-rule:nonzero;stroke:none"
             id="path302"
             inkscape:connector-curvature="0" /><path
             d="m 115.245,149.254 -0.359,0.09 c -0.248,-0.633 -0.434,-0.835 -0.708,-0.766 -0.528,0.132 -1.151,1.23 -2.861,1.656 -3.485,0.87 -6.897,-1.847 -8.037,-6.407 -1.167,-4.688 1.183,-7.854 4.14,-8.591 2.11,-0.527 3.959,0.224 5.509,2.215 l -0.297,0.254 c -1.455,-1.702 -2.768,-2.293 -4.436,-1.878 -2.535,0.632 -3.671,2.911 -2.56,7.367 1.185,4.752 3.077,6.949 5.697,6.297 2.005,-0.502 3.025,-2.439 2.599,-4.956 l 0.381,-0.095 0.932,4.814 0,0"
             style="fill:#ffffff;fill-opacity:1;fill-rule:nonzero;stroke:none"
             id="path304"
             inkscape:connector-curvature="0" /><path
             d="m 117.116,136.381 2.727,-1.639 -0.512,-2.216 c -0.12,-0.489 -0.166,-0.635 -0.27,-0.809 -0.267,-0.444 -0.625,-0.465 -1.291,-0.065 l -0.162,-0.27 3.694,-2.22 0.161,0.27 c -0.761,0.457 -0.938,0.629 -0.531,2.348 l 2.602,11.08 -0.254,0.154 -8.356,-7.624 c -1.064,-0.979 -1.531,-1.109 -2.308,-0.642 l -0.161,-0.271 2.933,-1.762 0.163,0.271 c -0.803,0.459 -0.924,0.834 -0.675,1.247 0.065,0.11 0.194,0.25 0.364,0.427 l 1.876,1.721 0,0 z m 2.898,-0.921 -2.361,1.419 3.424,3.186 0.032,-0.019 -1.095,-4.586 0,0"
             style="fill:#ffffff;fill-opacity:1;fill-rule:evenodd;stroke:none"
             id="path306"
             inkscape:connector-curvature="0" /><path
             d="m 131.308,137.597 -0.21,-0.234 c 0.988,-0.864 1.074,-1.266 0.098,-2.352 l -5.78,-6.419 c -0.904,-1.003 -1.278,-1.114 -2.337,-0.136 l -0.211,-0.234 6.145,-5.532 2.9,1.868 -0.159,0.268 c -2.057,-1.208 -2.752,-1.18 -4.237,0.157 l -0.976,0.879 c -0.578,0.519 -0.577,0.742 -0.019,1.36 l 5.965,6.625 c 0.99,1.101 1.372,1.055 2.35,0.149 l 0.211,0.234 -3.74,3.367 0,0"
             style="fill:#ffffff;fill-opacity:1;fill-rule:nonzero;stroke:none"
             id="path308"
             inkscape:connector-curvature="0" /><path
             d="m 144.725,121.201 -0.163,0.27 c -0.53,-0.232 -0.76,-0.242 -0.884,-0.035 -0.24,0.395 0.045,1.43 -0.726,2.714 -1.572,2.617 -5.254,3.036 -8.679,0.978 -3.519,-2.115 -4.009,-5.43 -2.676,-7.649 0.953,-1.586 2.515,-2.244 4.643,-1.98 l -0.026,0.33 c -1.897,-0.147 -3.042,0.286 -3.794,1.539 -1.144,1.903 -0.457,3.955 2.888,5.966 3.567,2.142 6.025,2.325 7.206,0.359 0.906,-1.505 0.355,-3.282 -1.414,-4.54 l 0.172,-0.285 3.453,2.333 0,0"
             style="fill:#ffffff;fill-opacity:1;fill-rule:nonzero;stroke:none"
             id="path310"
             inkscape:connector-curvature="0" /><path
             d="m 145.571,118.611 -0.283,-0.139 c 0.544,-1.113 0.465,-1.501 -0.815,-2.124 l -7.763,-3.788 c -1.23,-0.599 -1.65,-0.496 -2.194,0.659 l -0.282,-0.137 2.124,-4.357 0.282,0.139 c -0.51,1.047 -0.548,1.461 0.832,2.134 l 7.763,3.786 c 1.28,0.624 1.651,0.456 2.178,-0.666 l 0.282,0.138 -2.124,4.355 0,0"
             style="fill:#ffffff;fill-opacity:1;fill-rule:nonzero;stroke:none"
             id="path312"
             inkscape:connector-curvature="0" /><path
             d="m 142.249,110.132 c -3.375,-0.839 -5.96,-3.314 -5.181,-6.437 0.814,-3.266 4.402,-4.0485 7.596,-3.253 3.141,0.784 6,3.154 5.181,6.44 -0.818,3.283 -4.456,4.034 -7.596,3.25 l 0,0 z m 0.501,-2.009 c 3.769,0.94 5.943,0.701 6.468,-1.399 0.496,-1.992 -1.016,-3.265 -5.054,-4.271 -3.518,-0.878 -5.908,-0.844 -6.468,1.399 -0.497,1.992 1.016,3.265 5.054,4.271 l 0,0"
             style="fill:#ffffff;fill-opacity:1;fill-rule:evenodd;stroke:none"
             id="path314"
             inkscape:connector-curvature="0" /></g></g><g
         transform="matrix(3.1863836,0,0,3.1863836,-27.486287,-38.059759)"
         id="g5816"><path
           style="fill:#927946;fill-opacity:1"
           inkscape:connector-curvature="0"
           d="m 69.272336,175.66743 c 0.280671,0.23749 0.519909,0.38295 0.717012,0.44107 0.304881,0.0889 0.539295,0.0255 0.698621,-0.18753 0.162764,-0.20976 0.307609,-0.54804 0.441508,-1.00477 l 3.827707,-13.26604 c 0.247361,-0.85846 0.267254,-1.45862 0.05952,-1.79833 -0.207027,-0.33928 -0.766546,-0.67081 -1.674971,-0.99359 l 0.123921,-0.42995 6.463587,1.8634 -0.11682,0.4026 c -0.866297,-0.2098 -1.484151,-0.25919 -1.856054,-0.14941 -0.36867,0.11071 -0.661771,0.53293 -0.874641,1.26813 l -4.977739,17.24784 c -0.02444,0.0855 -0.04432,0.13761 -0.05518,0.15626 -0.0097,0.0275 -0.03486,0.0617 -0.07937,0.0999 l -0.136875,-0.0391 -3.434184,-3.89225 0.115676,-0.40193 c 0.231117,0.23321 0.483236,0.45987 0.758285,0.68378 z"
           id="path5616" /><path
           style="fill:#927946;fill-opacity:1"
           inkscape:connector-curvature="0"
           d="m 83.269815,173.58674 c 0.443922,-0.62134 1.247623,-1.44065 2.412624,-2.46098 -1.017664,-0.98303 -1.721995,-1.81643 -2.115665,-2.49677 -0.59735,-1.04888 -0.851288,-2.22836 -0.75992,-3.54032 0.106601,-1.52631 0.672358,-2.72673 1.69459,-3.60048 1.034039,-0.86157 2.220744,-1.2442 3.567735,-1.15092 1.502703,0.10698 2.665047,0.69634 3.487026,1.77035 0.830352,1.0744 1.192034,2.35438 1.087717,3.84034 -0.09138,1.31196 -0.476665,2.4267 -1.154725,3.34196 -0.672357,0.9301 -1.753984,1.99612 -3.248693,3.19844 0.983019,0.78505 1.686596,1.46463 2.110337,2.04561 0.734409,1.01576 1.058019,2.1267 0.975025,3.33549 -0.08604,1.18862 -0.549001,2.20362 -1.398766,3.04767 -0.844824,0.8433 -1.933302,1.21869 -3.263919,1.12466 -1.443696,-0.10242 -2.590046,-0.65865 -3.430676,-1.67099 -0.833017,-1.0131 -1.20308,-2.20171 -1.10904,-3.56469 0.08566,-1.19775 0.465619,-2.26871 1.14635,-3.21937 z m 6.53469,-6.03138 c 0.569943,-0.65598 0.89165,-1.54573 0.97198,-2.67038 0.06661,-0.9914 -0.11764,-1.83431 -0.556233,-2.52875 -0.442399,-0.69633 -1.138357,-1.07629 -2.08673,-1.14368 -0.899643,-0.0613 -1.674408,0.3061 -2.319352,1.10181 -0.637704,0.79494 -1.005103,1.89826 -1.10333,3.31264 -0.05673,0.82769 0.04568,1.69574 0.304959,2.60528 0.260416,0.91107 0.72337,1.66908 1.396101,2.27747 1.699918,-1.30473 2.832565,-2.28775 3.392605,-2.95439 z m -5.270319,12.56302 c 0.452296,0.632 1.056885,0.97731 1.817946,1.02871 0.983019,0.0697 1.738371,-0.22463 2.265667,-0.88327 0.532626,-0.64875 0.835682,-1.46273 0.905354,-2.44309 0.07767,-1.12579 -0.109647,-2.10196 -0.567272,-2.93269 -0.264984,-0.48504 -0.761061,-1.09533 -1.490141,-1.83241 -1.001297,0.66665 -1.823656,1.39306 -2.468212,2.1781 -0.635047,0.79571 -0.988736,1.67899 -1.056124,2.6483 -0.05863,0.857 0.13706,1.60169 0.592782,2.23635 z"
           id="path5618" /><path
           style="fill:#927946;fill-opacity:1"
           inkscape:connector-curvature="0"
           d="m 100.78675,163.68536 c -0.73002,-0.59329 -1.635887,-1.04014 -2.711733,-1.34188 -0.600225,-0.16638 -1.337195,-0.29005 -2.206949,-0.37251 l 0.0071,-0.61885 c 1.3583,-0.0404 2.508571,0.0539 3.449772,0.27628 1.67766,0.39355 3.15717,1.20275 4.43211,2.42301 1.09727,1.06135 2.02004,2.32772 2.76561,3.80237 0.74568,1.47576 1.26309,2.96853 1.54559,4.47972 0.40698,2.14841 0.29447,4.18299 -0.33208,6.10176 -0.62572,1.92727 -1.81279,3.05794 -3.56253,3.38578 -1.4709,0.27777 -2.80877,-0.18125 -4.01271,-1.37563 -1.196723,-1.19323 -1.994417,-2.85042 -2.392766,-4.96827 -0.313365,-1.66033 -0.189755,-3.16391 0.370613,-4.51667 0.572215,-1.34272 1.53236,-2.14053 2.885453,-2.39578 0.34049,-0.0622 0.73182,-0.0755 1.1686,-0.0339 0.83305,0.0591 1.59748,0.31287 2.29136,0.75642 l 0.48876,0.30944 c -0.28154,-0.81087 -0.79838,-1.78877 -1.54019,-2.93472 -0.73455,-1.14067 -1.61693,-2.13171 -2.646,-2.97657 z m 3.23604,6.30797 c -0.646,-0.26992 -1.23761,-0.35303 -1.77702,-0.25281 -1.17832,0.22259 -1.87357,0.99152 -2.097,2.31053 -0.214379,1.31585 -0.184694,2.69841 0.0889,4.1529 0.33054,1.75809 0.81954,3.03603 1.46178,3.83024 0.65255,0.79242 1.36856,1.116 2.14919,0.97057 1.07099,-0.20376 1.76528,-1.00135 2.08063,-2.40017 0.31036,-1.39641 0.27329,-3.129 -0.11677,-5.19717 -0.0734,-0.39809 -0.18242,-0.91607 -0.33064,-1.55915 -0.14503,-0.62995 -0.23983,-0.99375 -0.28865,-1.08651 -0.12938,-0.24521 -0.51785,-0.50102 -1.17034,-0.76843 z"
           id="path5620" /><path
           style="fill:#927946;fill-opacity:1"
           inkscape:connector-curvature="0"
           d="m 113.95068,159.08713 c 1.44019,-0.43591 2.82109,-0.0897 4.14221,1.0435 1.32906,1.13022 2.26319,2.56882 2.79408,4.31846 0.59116,1.94933 0.63693,3.57548 0.13185,4.88025 -0.50736,1.30303 -1.36694,2.13906 -2.58233,2.50936 -0.61941,0.1863 -1.28378,0.22033 -1.98544,0.1017 -0.39727,-0.068 -0.88843,-0.20879 -1.47194,-0.42806 0.50127,0.98455 1.15534,1.93479 1.96861,2.84594 0.81328,0.91116 1.60217,1.62667 2.37073,2.14633 0.74686,0.51268 1.52341,0.85085 2.32711,1.01468 0.8107,0.17119 1.72808,0.21952 2.75235,0.14864 l 0.087,0.49091 c -2.38632,0.7247 -4.84356,0.36661 -7.37269,-1.0786 -2.87749,-1.76524 -4.82837,-4.33679 -5.85607,-7.70973 -0.7984,-2.61808 -0.88612,-4.88393 -0.26336,-6.79498 0.62583,-1.91451 1.61511,-3.07809 2.95799,-3.48841 z m -0.82521,8.64818 c 0.36757,1.20522 0.74325,2.03022 1.13157,2.47662 0.65947,0.76116 1.57907,0.96024 2.76522,0.60102 1.28164,-0.39172 1.94219,-1.49209 1.977,-3.29831 0.0221,-1.08276 -0.15841,-2.25965 -0.54845,-3.52924 -0.39523,-1.29985 -0.94786,-2.37452 -1.65566,-3.2241 -0.70923,-0.84141 -1.51809,-1.12052 -2.42435,-0.84372 -1.14767,0.34879 -1.76243,1.35151 -1.84374,3.00442 -0.0758,1.65264 0.12622,3.25571 0.59841,4.81331 z"
           id="path5622" /></g><g
         style="fill:#927946;fill-opacity:1"
         transform="matrix(1.0417357,0,0,1.0129223,693.89138,-112.88734)"
         id="g6586"><path
           style="fill:#927946;fill-opacity:1"
           inkscape:connector-curvature="0"
           d="m -536.41168,576.27773 c -3.32636,12.86713 12.87703,42.03067 44.07773,49.06826 0,0 -40.74346,-61.9453 -44.07773,-49.06826 z"
           id="path6256" /><path
           style="fill:#927946;fill-opacity:1"
           inkscape:connector-curvature="0"
           d="m -553.44815,551.73667 c 4.46813,-6.25103 14.53922,46.57597 12.03901,57.40593 0,0 -14.53922,-26.66332 -15.36735,-39.53343 0,0 -4.99746,-6.20848 3.32834,-17.8725 z"
           id="path6258" /><path
           style="fill:#927946;fill-opacity:1"
           inkscape:connector-curvature="0"
           d="m -552.61508,531.37186 c 0,0 2.8752,19.15972 11.20594,29.53258 8.33074,10.36989 49.90332,42.03067 52.40947,45.73894 0,0 -1.93329,-22.85512 -15.37329,-32.8718 -22.87194,-17.03746 -48.24212,-42.39972 -48.24212,-42.39972 z"
           id="path6260" /><path
           style="fill:#927946;fill-opacity:1"
           inkscape:connector-curvature="0"
           d="m -554.27628,521.37002 c 0,0 15.82841,28.70347 51.56551,29.53852 0,0 -14.76183,-14.30869 -26.1983,-20.37173 -9.29738,-4.92919 -25.36721,-9.16679 -25.36721,-9.16679 z"
           id="path6262" /><path
           style="fill:#927946;fill-opacity:1"
           inkscape:connector-curvature="0"
           d="m -598.35698,471.09073 c 0.83604,-2.50021 12.87703,21.57385 19.54558,29.90657 6.65965,8.33074 22.41187,47.86516 12.86714,56.57286 0,0 -10.3699,-19.53667 -16.2034,-26.1983 -3.13837,-3.59152 -11.00113,-23.42007 -14.53823,-38.24424 -3.0335,-12.73258 -2.05102,-20.88325 -1.67109,-22.03689 z"
           id="path6264" /><path
           style="fill:#927946;fill-opacity:1"
           inkscape:connector-curvature="0"
           d="m -600.01917,456.09144 c 0,0 34.91194,17.03943 39.07335,45.7419 0,0 -15.12989,-11.26728 -22.86996,-20.37173 -7.60156,-8.94417 -16.20339,-25.37017 -16.20339,-25.37017 z"
           id="path6266" /><path
           style="fill:#927946;fill-opacity:1"
           inkscape:connector-curvature="0"
           d="m -608.3519,384.61129 c 0.76283,-16.6684 20.8328,23.24693 15.00029,57.77697 0,0 -16.6694,-21.20184 -15.00029,-57.77697 z"
           id="path6268" /><path
           style="fill:#927946;fill-opacity:1"
           inkscape:connector-curvature="0"
           d="m -615.39345,395.81723 c 0,0 -2.03915,12.49512 1.66912,32.86488 3.70332,20.3747 6.20749,31.2007 4.53936,44.07279 -1.66219,12.87505 -7.87265,19.53668 -7.87265,19.53668 0,0 -3.33329,-14.53923 -5.8335,-22.86502 -2.49724,-8.32975 -3.33328,-35.74403 -3.33328,-42.40565 0,-20.37371 10.83095,-31.20368 10.83095,-31.20368 z"
           id="path6270" /><path
           style="fill:#927946;fill-opacity:1"
           inkscape:connector-curvature="0"
           d="m -595.83501,520.19462 c 0,0 24.54106,32.37116 20.36481,53.57003 0,0 -10.3412,-3.34021 -16.18855,-21.19788 -5.84834,-17.86162 -4.17626,-32.37215 -4.17626,-32.37215 z"
           id="path6272" /><path
           style="fill:#927946;fill-opacity:1"
           inkscape:connector-curvature="0"
           d="m -602.52532,489.79829 c 0,0 0.83604,25.69074 -1.6711,34.88325 -2.50219,9.18756 -5.84438,21.19986 -5.84438,21.19986 0,0 -8.1289,-17.38572 -6.15901,-27.35887 4.17625,-21.20085 13.67449,-28.72424 13.67449,-28.72424 z"
           id="path6274" /><path
           style="fill:#927946;fill-opacity:1"
           inkscape:connector-curvature="0"
           d="m -631.84122,448.87377 c 0,0 4.12876,35.1207 3.44706,44.75943 -0.68862,9.64764 -1.37922,15.8393 -5.51293,15.8393 -4.13569,0 -5.51293,-7.57089 -6.19364,-16.52891 -0.68862,-8.94912 8.25951,-44.06982 8.25951,-44.06982 z"
           id="path6276" /><path
           style="fill:#927946;fill-opacity:1"
           inkscape:connector-curvature="0"
           d="m -629.08278,409.62034 c 2.05894,-4.12876 -2.75844,16.52891 -4.13569,23.41809 -1.37724,6.88424 -8.9501,22.03689 -11.70657,25.47506 -2.75647,3.44409 -6.20156,8.26841 -6.20156,8.26841 0,0 -2.06091,-11.01796 0,-19.28735 2.06884,-8.25951 19.97598,-33.7405 22.04382,-37.87421 z"
           id="path6278" /><path
           style="fill:#927946;fill-opacity:1"
           inkscape:connector-curvature="0"
           d="m -589.83628,307.0137 c 0,0 2.75647,27.54982 0.68862,39.25343 -2.05795,11.70954 -4.81738,17.21653 -7.57088,21.34826 -2.75647,4.13075 -5.50798,-11.70954 -5.50798,-11.70954 0,0 1.37229,-19.96607 4.12876,-29.61074 2.75646,-9.63774 8.26148,-19.28141 8.26148,-19.28141 z"
           id="path6280" /><path
           style="fill:#927946;fill-opacity:1"
           inkscape:connector-curvature="0"
           d="m -600.85423,318.71829 c 0,0 -5.50502,15.84523 -7.57088,28.2424 -2.06785,12.39223 -5.50799,28.22757 -8.95308,34.42912 -3.44409,6.19463 -11.01597,21.3453 -24.10176,23.41414 0,0 6.19364,-17.21951 8.9501,-28.23845 2.75647,-11.01597 7.57287,-28.23746 13.77442,-37.87618 6.19463,-9.63972 17.9012,-19.97103 17.9012,-19.97103 z"
           id="path6282" /><path
           style="fill:#927946;fill-opacity:1"
           inkscape:connector-curvature="0"
           d="m -621.5119,330.42684 c 0,0 -13.77441,21.34827 -25.48099,26.17258 -11.70657,4.82431 -13.77144,5.50304 -19.27745,5.50304 0,0 2.06586,-11.70459 13.08382,-17.9012 l 17.21159,-8.26148 14.46303,-5.51294 z"
           id="path6284" /><path
           style="fill:#927946;fill-opacity:1"
           inkscape:connector-curvature="0"
           d="m -630.462,351.77511 c 0,0 -6.20057,22.72551 -11.70657,32.37018 -5.51195,9.63873 -11.01795,15.83335 -21.34827,19.96706 0,0 4.12876,-13.08381 7.57385,-22.72254 0,0 3.44707,-10.32735 14.46304,-19.96608 l 11.01795,-9.64862 z"
           id="path6286" /><path
           style="fill:#927946;fill-opacity:1"
           inkscape:connector-curvature="0"
           d="m -565.04589,247.10557 c 0,0 -11.70657,11.70459 -15.83237,19.96608 -4.13371,8.26544 -14.46304,26.86021 -20.66459,34.4301 -6.19463,7.58177 -13.77442,15.84029 -30.987,17.21654 0,0 10.32933,-12.39321 13.77442,-19.96707 3.43717,-7.5778 20.65668,-31.68056 27.54883,-36.49992 6.88326,-4.82333 26.16071,-15.14573 26.16071,-15.14573 z"
           id="path6288" /><path
           style="fill:#927946;fill-opacity:1"
           inkscape:connector-curvature="0"
           d="m -553.33932,242.96889 c 6.89216,-6.88424 -4.12579,37.87619 -24.10176,54.40509 0,0 -0.68863,-13.77442 2.75646,-26.16763 0,0 14.46304,-21.34728 21.3453,-28.23746 z"
           id="path6290" /><path
           style="fill:#927946;fill-opacity:1"
           inkscape:connector-curvature="0"
           d="m -585.70257,247.78826 c 0,0 -11.70657,13.08678 -32.36325,19.2824 -20.66459,6.20155 -23.41413,1.37724 -23.41413,1.37724 0,0 13.76749,-11.70459 22.0359,-13.77441 8.26247,-2.06092 33.74148,-6.88523 33.74148,-6.88523 z"
           id="path6292" /><path
           style="fill:#927946;fill-opacity:1"
           inkscape:connector-curvature="0"
           d="m -610.49296,273.27221 c 0,0 -13.08678,24.79039 -24.10176,32.36424 0,0 -4.82431,5.51195 -18.5918,8.95011 0,0 6.19363,-17.9012 12.39717,-21.34827 l 20.65668,-13.76947 9.63971,-6.19661 z"
           id="path6294" /><path
           style="fill:#927946;fill-opacity:1"
           inkscape:connector-curvature="0"
           d="m -502.37635,196.83122 c 0,0 -13.08678,4.13075 -23.41314,10.32735 -10.33032,6.20255 -22.03689,20.6646 -34.43209,26.16764 -12.39519,5.51689 -16.53088,6.89413 -34.43208,5.51689 0,0 15.84226,-10.33131 22.03689,-16.53286 0,0 30.30233,-21.34827 44.75844,-23.41315 l 25.48198,-2.06587 z"
           id="path6296" /><path
           style="fill:#927946;fill-opacity:1"
           inkscape:connector-curvature="0"
           d="m -491.35741,196.1426 c 0,0 -15.15364,25.47901 -22.72452,30.30234 -7.57088,4.8154 -15.15166,7.57286 -24.10474,9.63971 0,0 6.89216,-15.84622 15.15364,-20.66063 8.26149,-4.81937 31.67562,-19.28142 31.67562,-19.28142 z"
           id="path6298" /><path
           style="fill:#927946;fill-opacity:1"
           inkscape:connector-curvature="0"
           d="m -523.03303,191.32324 c 8.95011,0.68268 -20.65668,6.88424 -39.94501,6.19661 0,0 -11.70658,-0.68863 -24.10177,-4.13668 0,0 12.39519,-6.88424 27.54883,-6.88424 0,0 27.54686,4.14063 36.49795,4.82431 z"
           id="path6300" /><path
           style="fill:#927946;fill-opacity:1"
           inkscape:connector-curvature="0"
           d="m -558.15373,204.40903 c 8.2595,-2.75349 -22.0359,19.27746 -31.68255,22.03591 -9.63873,2.74954 -15.83533,3.43816 -24.79335,2.74954 0,0 6.89215,-9.63873 19.97597,-15.14771 13.08678,-5.51095 28.23053,-6.88918 36.49993,-9.63774 z"
           id="path6302" /><path
           style="fill:#927946;fill-opacity:1"
           inkscape:connector-curvature="0"
           d="m -414.2278,173.41709 c 0,0 -15.15067,12.39717 -30.3053,16.52891 -15.15166,4.13074 -15.83039,4.13074 -30.98403,2.74855 0,0 12.3952,-11.01598 27.54587,-15.14276 15.14671,-4.1347 33.74346,-4.1347 33.74346,-4.1347 z"
           id="path6304" /><path
           style="fill:#927946;fill-opacity:1"
           inkscape:connector-curvature="0"
           d="m -430.75868,167.22147 c 0,0 -25.47901,3.43816 -38.5658,8.26248 -13.08381,4.81342 -18.58883,8.94911 -31.67561,10.3313 -13.08382,1.37725 -27.54686,-3.44706 -30.98403,-8.95604 0,0 23.41116,-4.82332 29.60777,-7.57682 6.20156,-2.74954 32.36325,-8.95109 41.32127,-7.57385 2.42898,0.37498 9.91181,0.95477 13.49442,1.59491 9.613,1.72353 16.80198,3.91802 16.80198,3.91802 z"
           id="path6306" /><path
           style="fill:#927946;fill-opacity:1"
           inkscape:connector-curvature="0"
           d="m -486.53607,157.57285 c 3.44015,-0.68367 -30.99095,11.70954 -44.06982,11.02092 -13.08382,-0.68862 -14.46403,2.06586 -23.42106,-0.68862 0,0 14.46304,-11.01597 23.42106,-11.01597 8.95209,-9.9e-4 40.62474,1.37625 44.06982,0.68367 z"
           id="path6308" /><path
           style="fill:#927946;fill-opacity:1"
           inkscape:connector-curvature="0"
           d="m -452.7926,155.51193 c 6.20155,0 -16.53089,-11.70459 -39.25541,-15.14671 -22.72254,-3.44707 -24.79039,-0.69357 -24.79039,-0.69357 0,0 15.84028,11.02092 28.92608,13.08678 13.08382,2.06983 28.91816,2.7535 35.11972,2.7535 z"
           id="path6310" /><path
           style="fill:#927946;fill-opacity:1"
           inkscape:connector-curvature="0"
           d="m -407.34455,165.84324 c 0,0 -24.10176,-18.59873 -28.91717,-23.41315 -4.82431,-4.82431 -24.79336,-22.72551 -48.2065,-21.35321 0,0 16.52396,13.77046 19.96806,18.59477 3.44508,4.81936 24.79038,19.2824 37.18855,21.34728 12.39519,2.07081 19.96706,4.82431 19.96706,4.82431 z"
           id="path6312" /><path
           style="fill:#927946;fill-opacity:1"
           inkscape:connector-curvature="0"
           d="m -402.52123,161.01893 c 0,0 -5.51194,-20.65371 -16.53088,-34.42912 -11.01597,-13.77442 -15.14473,-13.77442 -15.14473,-13.77442 0,0 0,14.46304 5.506,22.03195 5.51294,7.58275 26.16961,26.17159 26.16961,26.17159 z"
           id="path6314" /><path
           style="fill:#927946;fill-opacity:1"
           inkscape:connector-curvature="0"
           d="m -258.57451,576.27773 c 3.33328,12.86713 -12.86813,42.03067 -44.07279,49.06826 0,0 40.74049,-61.9453 44.07279,-49.06826 z"
           id="path6316" /><path
           style="fill:#927946;fill-opacity:1"
           inkscape:connector-curvature="0"
           d="m -241.53706,551.73667 c -4.45922,-6.25103 -14.54021,46.57597 -12.03208,57.40593 0,0 14.53032,-26.66332 15.36438,-39.53343 0,0 5.00042,-6.20848 -3.3323,-17.8725 z"
           id="path6318" /><path
           style="fill:#927946;fill-opacity:1"
           inkscape:connector-curvature="0"
           d="m -242.36419,531.37186 c 0,0 -2.87124,19.15972 -11.20495,29.53258 -8.33767,10.36989 -49.91322,42.03067 -52.41145,45.73894 0,0 1.92735,-22.85512 15.37527,-32.8718 22.86798,-17.03746 48.24113,-42.39972 48.24113,-42.39972 z"
           id="path6320" /><path
           style="fill:#927946;fill-opacity:1"
           inkscape:connector-curvature="0"
           d="m -240.702,521.37002 c 0,0 -15.82544,28.70347 -51.57046,29.53852 0,0 14.76777,-14.30869 26.20622,-20.37173 9.29639,-4.92919 25.36424,-9.16679 25.36424,-9.16679 z"
           id="path6322" /><path
           style="fill:#927946;fill-opacity:1"
           inkscape:connector-curvature="0"
           d="m -196.62822,471.09073 c -0.82615,-2.50021 -12.86813,21.57385 -19.53866,29.90657 -6.66162,8.33074 -22.40693,47.86516 -12.86912,56.57286 0,0 10.3699,-19.53667 16.20636,-26.1983 3.13442,-3.59152 11.00114,-23.42007 14.53923,-38.24424 3.0335,-12.73258 2.05003,-20.88325 1.66219,-22.03689 z"
           id="path6324" /><path
           style="fill:#927946;fill-opacity:1"
           inkscape:connector-curvature="0"
           d="m -194.95713,456.09144 c 0,0 -34.91392,17.03943 -39.0783,45.7419 0,0 15.13187,-11.26728 22.87689,-20.37173 7.59661,-8.94417 16.20141,-25.37017 16.20141,-25.37017 z"
           id="path6326" /><path
           style="fill:#927946;fill-opacity:1"
           inkscape:connector-curvature="0"
           d="m -186.62935,384.61129 c -0.75491,-16.6684 -20.83082,23.24693 -14.99534,57.77697 0,0 16.66247,-21.20184 14.99534,-57.77697 z"
           id="path6328" /><path
           style="fill:#927946;fill-opacity:1"
           inkscape:connector-curvature="0"
           d="m -179.59275,395.81723 c 0,0 2.04608,12.49512 -1.66219,32.86488 -3.70826,20.3747 -6.21046,31.2007 -4.54332,44.07279 1.67011,12.87505 7.87661,19.53668 7.87661,19.53668 0,0 3.33329,-14.53923 5.83152,-22.86502 2.50219,-8.32975 3.32834,-35.74403 3.32834,-42.40565 9.9e-4,-20.37371 -10.83096,-31.20368 -10.83096,-31.20368 z"
           id="path6330" /><path
           style="fill:#927946;fill-opacity:1"
           inkscape:connector-curvature="0"
           d="m -199.14031,520.19462 c 0,0 -24.54403,32.37116 -20.36579,53.57003 0,0 10.34219,-3.34021 16.19251,-21.19788 5.83943,-17.86162 4.17328,-32.37215 4.17328,-32.37215 z"
           id="path6332" /><path
           style="fill:#927946;fill-opacity:1"
           inkscape:connector-curvature="0"
           d="m -192.45098,489.79829 c 0,0 -0.84495,25.69074 1.6711,34.88325 2.50219,9.18756 5.83943,21.19986 5.83943,21.19986 0,0 8.12495,-17.38572 6.16396,-27.35887 -4.17724,-21.20085 -13.67449,-28.72424 -13.67449,-28.72424 z"
           id="path6334" /><path
           style="fill:#927946;fill-opacity:1"
           inkscape:connector-curvature="0"
           d="m -163.13409,448.87377 c 0,0 -4.13668,35.1207 -3.44707,44.75943 0.68764,9.64764 1.37626,15.8393 5.51195,15.8393 4.12579,0 5.50304,-7.57089 6.19166,-16.52891 0.68862,-8.94912 -8.25654,-44.06982 -8.25654,-44.06982 z"
           id="path6336" /><path
           style="fill:#927946;fill-opacity:1"
           inkscape:connector-curvature="0"
           d="m -165.89352,409.62034 c -2.06587,-4.12876 2.75943,16.52891 4.13569,23.41809 1.37724,6.88424 8.9501,22.03689 11.70459,25.47506 2.74855,3.44409 6.19661,8.26841 6.19661,8.26841 0,0 2.06586,-11.01796 0,-19.28735 -2.07082,-8.25951 -19.97202,-33.7405 -22.03689,-37.87421 z"
           id="path6338" /><path
           style="fill:#927946;fill-opacity:1"
           inkscape:connector-curvature="0"
           d="m -205.14695,307.0137 c 0,0 -2.74954,27.54982 -0.69357,39.25343 2.06982,11.70954 4.82431,17.21653 7.58276,21.34826 2.74954,4.13075 5.50403,-11.70954 5.50403,-11.70954 0,0 -1.37725,-19.96607 -4.12679,-29.61074 -2.7535,-9.63774 -8.26643,-19.28141 -8.26643,-19.28141 z"
           id="path6340" /><path
           style="fill:#927946;fill-opacity:1"
           inkscape:connector-curvature="0"
           d="m -194.13098,318.71829 c 0,0 5.51194,15.84523 7.57781,28.2424 2.07081,12.39223 5.507,28.22757 8.95505,34.42912 3.44212,6.19463 11.01696,21.3453 24.10177,23.41414 0,0 -6.19661,-17.21951 -8.95011,-28.23845 -2.75943,-11.01597 -7.58275,-28.23746 -13.7754,-37.87618 -6.20057,-9.63972 -17.90912,-19.97103 -17.90912,-19.97103 z"
           id="path6342" /><path
           style="fill:#927946;fill-opacity:1"
           inkscape:connector-curvature="0"
           d="m -173.46638,330.42684 c 0,0 13.77441,21.34827 25.47901,26.17258 11.70855,4.82431 13.76947,5.50304 19.28141,5.50304 0,0 -2.06488,-11.70459 -13.0858,-17.9012 l -17.21653,-8.26148 -14.45809,-5.51294 z"
           id="path6344" /><path
           style="fill:#927946;fill-opacity:1"
           inkscape:connector-curvature="0"
           d="m -164.51133,351.77511 c 0,0 6.20155,22.72551 11.7036,32.37018 5.50403,9.63873 11.01696,15.83335 21.34431,19.96706 0,0 -4.12777,-13.08381 -7.5689,-22.72254 0,0 -3.44707,-10.32735 -14.46304,-19.96608 l -11.01597,-9.64862 z"
           id="path6346" /><path
           style="fill:#927946;fill-opacity:1"
           inkscape:connector-curvature="0"
           d="m -229.94229,247.10557 c 0,0 11.70954,11.70459 15.84523,19.96608 4.13569,8.26544 14.46304,26.86021 20.65965,34.4301 6.19661,7.58177 13.76947,15.84029 30.99194,17.21654 0,0 -10.32735,-12.39321 -13.7754,-19.96707 -3.44707,-7.5778 -20.65965,-31.68056 -27.54983,-36.49992 -6.88424,-4.82333 -26.17159,-15.14573 -26.17159,-15.14573 z"
           id="path6348" /><path
           style="fill:#927946;fill-opacity:1"
           inkscape:connector-curvature="0"
           d="m -241.64688,242.96889 c -6.88523,-6.88424 4.13569,37.87619 24.10276,54.40509 0,0 0.68763,-13.77442 -2.74954,-26.16763 0,0 -14.46304,-21.34728 -21.35322,-28.23746 z"
           id="path6350" /><path
           style="fill:#927946;fill-opacity:1"
           inkscape:connector-curvature="0"
           d="m -209.27769,247.78826 c 0,0 11.70855,13.08678 32.36424,19.2824 20.65866,6.20155 23.41809,1.37724 23.41809,1.37724 0,0 -13.77442,-11.70459 -22.0359,-13.77441 -8.26346,-2.06092 -33.74643,-6.88523 -33.74643,-6.88523 z"
           id="path6352" /><path
           style="fill:#927946;fill-opacity:1"
           inkscape:connector-curvature="0"
           d="m -184.48236,273.27221 c 0,0 13.0858,24.79039 24.10078,32.36424 0,0 4.81442,5.51195 18.58982,8.95011 0,0 -6.1966,-17.9012 -12.39717,-21.34827 l -20.65569,-13.76947 -9.63774,-6.19661 z"
           id="path6354" /><path
           style="fill:#927946;fill-opacity:1"
           inkscape:connector-curvature="0"
           d="m -292.59995,196.83122 c 0,0 13.08678,4.13075 23.41413,10.32735 10.32735,6.20255 22.0359,20.6646 34.42912,26.16764 12.39222,5.51689 16.52395,6.89413 34.43406,5.51689 0,0 -15.84424,-10.33131 -22.04085,-16.53286 0,0 -30.29738,-21.34827 -44.75646,-23.41315 l -25.48,-2.06587 z"
           id="path6356" /><path
           style="fill:#927946;fill-opacity:1"
           inkscape:connector-curvature="0"
           d="m -303.62483,196.1426 c 0,0 15.15067,25.47901 22.73442,30.30234 7.56791,4.8154 15.14176,7.57286 24.10176,9.63971 0,0 -6.89413,-15.84622 -15.1566,-20.66063 -8.26149,-4.81937 -31.67958,-19.28142 -31.67958,-19.28142 z"
           id="path6358" /><path
           style="fill:#927946;fill-opacity:1"
           inkscape:connector-curvature="0"
           d="m -271.94525,191.32324 c -8.94516,0.68268 20.66063,6.88424 39.94798,6.19661 0,0 11.70361,-0.68863 24.10078,-4.13668 0,0 -12.39717,-6.88424 -27.54883,-6.88424 0,0 -27.54488,4.14063 -36.49993,4.82431 z"
           id="path6360" /><path
           style="fill:#927946;fill-opacity:1"
           inkscape:connector-curvature="0"
           d="m -236.82158,204.40903 c -8.26346,-2.75349 22.03491,19.27746 31.67562,22.03591 9.63873,2.74954 15.84028,3.43816 24.79039,2.74954 0,0 -6.88523,-9.63873 -19.96707,-15.14771 -13.08579,-5.51095 -28.23844,-6.88918 -36.49894,-9.63774 z"
           id="path6362" /><path
           style="fill:#927946;fill-opacity:1"
           inkscape:connector-curvature="0"
           d="m -380.75048,173.41709 c 0,0 15.15067,12.39717 30.29738,16.52891 15.15166,4.13074 15.84127,4.13074 30.99195,2.74855 0,0 -12.39718,-11.01598 -27.54488,-15.14276 -15.15562,-4.1347 -33.74445,-4.1347 -33.74445,-4.1347 z"
           id="path6364" /><path
           style="fill:#927946;fill-opacity:1"
           inkscape:connector-curvature="0"
           d="m -364.22257,167.22147 c 0,0 25.48,3.43816 38.56085,8.26248 13.08678,4.81342 18.59873,8.94911 31.68551,10.3313 13.0858,1.37725 27.54884,-3.44706 30.98601,-8.95604 0,0 -23.41809,-4.82332 -29.61074,-7.57682 -6.20057,-2.74954 -32.37315,-8.95109 -41.32424,-7.57385 -2.43491,0.37498 -9.90983,0.95477 -13.49442,1.59491 -9.60806,1.72353 -16.80297,3.91802 -16.80297,3.91802 z"
           id="path6366" /><path
           style="fill:#927946;fill-opacity:1"
           inkscape:connector-curvature="0"
           d="m -308.44024,157.57285 c -3.44706,-0.68367 30.987,11.70954 44.06785,11.02092 13.08777,-0.68862 14.46304,2.06586 23.41413,-0.68862 0,0 -14.45314,-11.01597 -23.41413,-11.01597 -8.95011,-9.9e-4 -40.62474,1.37625 -44.06785,0.68367 z"
           id="path6368" /><path
           style="fill:#927946;fill-opacity:1"
           inkscape:connector-curvature="0"
           d="m -342.18568,155.51193 c -6.20056,0 16.52396,-11.70459 39.25442,-15.14671 22.72551,-3.44707 24.78544,-0.69357 24.78544,-0.69357 0,0 -15.8294,11.02092 -28.91717,13.08678 -13.0858,2.06983 -28.92608,2.7535 -35.12269,2.7535 z"
           id="path6370" /><path
           style="fill:#927946;fill-opacity:1"
           inkscape:connector-curvature="0"
           d="m -387.63077,165.84324 c 0,0 24.09287,-18.59873 28.91718,-23.41315 4.82431,-4.82431 24.79039,-22.72551 48.20353,-21.35321 0,0 -16.52693,13.77046 -19.96608,18.59477 -3.44706,4.81936 -24.79039,19.2824 -37.18756,21.34728 -12.39915,2.07081 -19.96707,4.82431 -19.96707,4.82431 z"
           id="path6372" /><path
           style="fill:#927946;fill-opacity:1"
           inkscape:connector-curvature="0"
           d="m -392.45508,161.01893 c 0,0 5.50403,-20.65371 16.52792,-34.42912 11.02092,-13.77442 15.14374,-13.77442 15.14374,-13.77442 0,0 0,14.46304 -5.50402,22.03195 -5.51294,7.58275 -26.16764,26.17159 -26.16764,26.17159 z"
           id="path6374" /></g></g></g></svg>