<?xml version="1.0" encoding="UTF-8"?>
<svg id="Calque_2" data-name="Calque 2" xmlns="http://www.w3.org/2000/svg" viewBox="0 0 1305.22 475.68">
  <defs>
    <style>
      .cls-1 {
        fill: #ffdc00;
      }

      .cls-1, .cls-2, .cls-3, .cls-4, .cls-5 {
        stroke-width: 0px;
      }

      .cls-2 {
        fill: #e30613;
      }

      .cls-3 {
        fill: #000;
      }

      .cls-4 {
        fill: #fff;
      }

      .cls-5 {
        fill: #eb1c24;
      }
    </style>
  </defs>
  <g id="Calque_1-2" data-name="Calque 1">
    <g>
      <path id="Path" class="cls-4" d="M1226.91,144.26c-.84-2.82-3.4-4.77-6.34-4.81h-532.34c-13.62-13.28-29.26-24.31-46.34-32.69h332.75s5,0,3.67-4.83l-26.96-97.11c-.83-2.81-3.38-4.75-6.31-4.81H3.89S-1.12,0,.23,4.81l26.93,97.17c.83,2.82,3.4,4.78,6.34,4.83h45.87c2.94.05,5.5,2,6.34,4.81l87.16,314.27c.84,2.82,3.4,4.77,6.34,4.81h228.4s5,0,5.8.71c.8.71,51.96,44.26,131.22,44.26s129.07-43.64,129.88-44.33c0,0,.78-.71,5.8-.71h621.03s4.99,0,3.65-4.81l-78.08-281.57h0Z"/>
      <path id="Path-2" data-name="Path" class="cls-1" d="M455.68,422.7c61.38,35.82,134.71,26.37,179.58,0h25.05c-70.32,51.48-164.83,45.67-229.33,0h24.7Z"/>
      <path id="Shape" class="cls-1" d="M430.98,422.7c-57.01-40.36-90.57-111.87-63.22-202.49h-52.82l52.64,193.92h-179.18L97.82,87.83h-55.67L22.25,16.47h917.51l19.56,73.86H279.88l17.03,63.09h114.73c92.45-87.38,221.35-53.59,271.29,2.74h531.42l72.21,257h-614.27c-3.92,3.36-7.9,6.56-11.98,9.53h-25.1c5.84-3.41,11.39-7.29,16.61-11.6-3.89-13.99-7.6-28.16-11.47-42.49-24.74,22.97-74.01,49.08-143.69,18.17-61.07-31.21-102.58-122.62-21.93-196.65,30.37-25.42,74.22-34.81,108.3-24.45-4.05-15.62-7.58-31.22-11.6-46.84-80.47-10.3-156.4,27.55-189.13,106.85-20.75,51.34-12.82,134.87,60.91,188.93,4.12,2.9,8.29,5.59,12.52,8.06h-24.74s0,.02,0,.02ZM499.06,358.37l-1.63,7.34c.57-2.48,1.09-4.9,1.63-7.34ZM441.96,273.16c9.28,15.6,26.1,26.55,52.21,32.02,1.02-3.54,2.02-6.92,3.03-10.46-22.44-4.51-38.13-13.36-45.55-27.03-3.2,1.77-6.41,3.7-9.62,5.47h-.07ZM591.77,187.71c12.49-25.1,30.54-39.16,51.3-47.48-1.35-3.38-2.9-6.76-4.35-9.98-23.45,9.18-43.35,25.1-57.02,53.11l10.15,4.35h-.07ZM684.07,173.21c-47.55,21.42-73.7,47.23-87.71,100.89,3.55.96,7.09,2.09,10.47,3.06,1.17-3.71,2.52-7.57,3.71-11.27,32.89,24.93,47.41,60.03,54.31,92.37,3.89-.64,6.93-1.45,10.8-1.93-9.95-46.19-30.19-80.14-61.75-101.23,6.22-17.4,16.79-32.91,30.7-45.06,43.03,32.67,64.12,77.57,66.81,132.77,3.71,0,7.43.16,11.14.16-3.87-62.61-28.18-108.3-69.51-140.01,10.75-8.05,22.49-14.71,34.92-19.8-.94-.34-1.91-.61-2.9-.8,2.2-3.06,4.35-5.96,6.42-9.02-1.1-.35-2.23-.56-3.38-.64-1.36.02-2.72.18-4.05.48h0s0,.01,0,.01ZM263.49,399.96h23.12c-1.45-5.31-3.03-10.93-4.55-16.58-6.76,3.86-13.68,6.76-21.26,7.41l2.7,9.17h0ZM695.57,170.32c54.21,68.07,52.76,164.95-8.44,228.69h580.11l-64.35-228.69h-507.32ZM144.39,30.64H41.42l11.98,42.97h55.73l90.76,326.31h48.25c-1-3.38-2.02-7.08-3.03-10.62-34.24-10.62-40.49-47.86-19.4-69.05L144.39,30.64h0ZM257.26,321.6c-15.95,0-29.01,12.4-29.01,27.55s13.05,27.67,29.01,27.67,28.85-12.39,28.85-27.67-13.05-27.55-28.85-27.55ZM198.38,30.64l79.13,281.8c21.6,11.91,30.7,34.59,16.53,59.06,2.52,9.66,5.22,19.16,7.93,28.48h46.41l-52.53-194.02h77.94c6.46-13.77,14.76-26.6,24.65-38.14h-113.18l-24.65-91.73h679.58l-12.15-45.39-729.67-.04h.01ZM552,210.89c-4.05-.16-7.6-.33-10.46-.16-3.11.1-6.22-.12-9.28-.65-1.35-.8-2.19-2.73-2.19-5.63-.02-.31-.21-.59-.49-.72-.28-.13-.61-.11-.87.07-2.22,1.56-2.94,4.53-1.68,6.93,1.3,1.95,3.29,3.33,5.57,3.86.66.18,1.34.29,2.03.32,1.17,0,2.52,0,5.06.16,2.19,0,4.35,0,6.41-.16,2.48-.16,4.63-.16,6.47-.32l-.35-2.41c-.09-.44-.16-.86-.22-1.29h0ZM260.3,307.61L183.03,30.6h-23.49l78.95,280.98c6.89-2.85,14.3-4.22,21.75-4.02l.06.03h0Z"/>
      <path id="Shape-2" data-name="Shape" class="cls-3" d="M572.75,193.5c1.38-.52,2.73-1.11,4.05-1.77.17-.16,1.02-.32,3.71-.32v-.81c.04-.26-.02-.53-.18-.74s-.4-.35-.66-.38c-.51,0-1.19-.16-1.86-.16-1.52,0-2.9.16-3.38.8-.84.97-1.68,1.77-2.36,2.58.19.3.42.57.68.8ZM556.9,198.81c-1.06-2.17-2.36-4.22-3.87-6.11-.85-.81-2.19-.81-3.05,0-.85,1.48-1.35,3.13-1.45,4.83-.17.3-.17.66,0,.96.33.16.49.49.84.65s.67.16,1.02,0c.66-.75.91-1.77.67-2.74l1.02-.48c.38.58.61,1.24.67,1.93v.84c-.16.49.35.81,1.02.81,1.02-.16,2.03-.48,3.21-.65,0,0-.06-.04-.06-.04ZM553.02,217.81l-.48-3.16c-.04-.81-.16-1.62-.35-2.41l-.22-1.45c-.67-.81-1.68-1.62-2.19-2.42-5.06-.96-9.62-2.09-14.5-3.22-.7-.12-1.35-.45-1.86-.96-1.8-1.76-3.28-3.84-4.35-6.12-.84-2.25.33-3.54,3.03-4.02,3.55-.49,7.25-.97,10.96-1.29.82-.09,1.59-.43,2.2-.97,5.22-4.99,12.47-5.95,20.07-5.31,2.36.16,6.74,1.13,9.28.32,7.93-.48,10.15,2.9,8.93,8.21-.25,1.22-.25,2.48,0,3.7,2.36,6.28,3.89,12.56,2.03,19.16-2.36,5.47-4.73,11.11-2.7,14.81,2.52,5.63,4.05,11.25,2.36,16.42-1.7,7.56-5.9,16.42-3.89,23.2,1.86,4.5,5.24,18.34,7.6,25.1,1.38,4.21,3.62,8.1,6.57,11.41,2.01,2.87,3.6,6.02,4.73,9.34-1.35,0-2.52.16-3.89.16,2.54,14.33,4.22,34.81,8.11,38.14-.33.96-.51,2.09-.84,3.06,0,.96-1.86,1.45-2.54,2.57-4.89,10.95-11.98,17.23-25.81,20.93v-.48c-1.45-3.83-4-9.08-6.34-13.56,4.33-2.48,8.33-5.5,11.91-8.98-20.3-17.69-20.91-23.33-24.47-42.16,0-.81-.33-1.13-.84-1.13s-1.35.16-2.02.16c1.68,6.12,3.21,12.24,4.89,18.19-12.66,9.18-20.07,16.58-22.77,36.53-.22,1.43-1.06,2.7-2.3,3.44-1.24.75-2.75.9-4.12.42-3.93-1.51-8.1-2.28-12.31-2.25-6.91-1.08-13.53-3.6-19.4-7.4,1.02-5,1.86-9.82,2.9-14.81,1.65.75,3.43,1.18,5.24,1.29,1.26.07,2.45.58,3.36,1.45.86.81,2.05,1.16,3.2.96,1.02,0,5.08,2.25,6.42,1.13-3.71-27.37,4.05-37.71,23.78-51.02.67-.32,1.02-.16,1.86.32.84.8,1.45,1.61,2.36,2.42,1.68.64,1.86-.49.84-1.45-6.92-3.86-9.79-10.95-11.14-19.16-.17-.32.17-.96-1.35-.32-29.19,9.82-34.59,5.96-53.82-10.15l4.93-8.02c1.25-1.97,2.51-3.93,3.8-5.92,5,2.57,9.17,6.51,12.02,11.36.67.97,1.17.81,1.86.33,8.93-5.15,18.06-9.82,27.16-14.33-.18-.57-.29-1.17-.33-1.77-2.03,1.13-4.06,2.25-6.08,3.22-22.93-13.34-35.91-11.75-43.33-42.23.22.05.45.01.64-.1,4.05-2.15,7.8-4.03,11.96-6.16l.52-.26c2.9,3.54,4.73,8.85,6.08,14.81-.33.48.33,1.28.68,1.45,10.46,2.74,20.75,5.48,31.04,7.89-2.3,3.54-4.22,7.32-5.73,11.27-.61,2.39-1.08,4.82-1.42,7.27h1.86c3.03-16.58,7.08-22.52,23.78-29.93,0-1.12-.17-2.41-.17-3.54-2.33.49-4.74.49-7.08,0-1.37-.42-2.79-.63-4.22-.64-4.05-1.29-2.7-4.99-.68-4.67,2.55-.42,5.16-.2,7.6.64.84.49,3.54.65,6.92.65l.03.04h0Z"/>
      <path id="Path-3" data-name="Path" class="cls-3" d="M442,273.15c3.2-1.77,6.41-3.7,9.62-5.47,7.43,13.68,23.12,22.52,45.55,27.03-1.02,3.54-2.02,6.92-3.03,10.46-25.99-5.47-42.86-16.42-52.21-32.02h.07Z"/>
      <path id="Path-4" data-name="Path" class="cls-3" d="M591.8,187.71l-10.15-4.35c13.68-28,33.57-43.93,57.02-53.11,1.45,3.22,3.05,6.6,4.35,9.98-20.75,8.37-38.81,22.38-51.3,47.48h.07Z"/>
      <path id="Path-5" data-name="Path" class="cls-3" d="M684.1,173.22c1.33-.3,2.68-.46,4.05-.48,1.15.07,2.28.29,3.38.64-2.03,3.06-4.22,5.96-6.42,9.02.99.19,1.96.45,2.9.8-12.45,5.1-24.19,11.77-34.95,19.84,41.33,31.7,65.64,77.4,69.51,140.01-3.71,0-7.43-.16-11.14-.16-2.7-55.2-23.78-100.07-66.81-132.77-13.92,12.15-24.49,27.66-30.7,45.06,31.56,21.09,51.8,55.11,61.75,101.23-3.87.48-6.92,1.29-10.8,1.93-6.9-32.34-21.42-67.44-54.31-92.37-1.19,3.7-2.54,7.56-3.71,11.27-3.38-.97-6.92-2.1-10.47-3.06,14.01-53.76,40.16-79.5,87.74-100.91v-.04h0Z"/>
      <path id="Shape-3" data-name="Shape" class="cls-4" d="M730.48,184.18l45.89,169.12c4.05,15.95,11.98,28.32,33.36,28.17h41c11.49,0,18.56-4.35,14.01-20.77-15.84-58.71-31.74-117.55-47.7-176.53h-24.31l47.41,172.19c1.36,4.02,0,5.8-3.03,5.95h-13.37c-2.49.07-4.66-1.71-5.06-4.18-15.85-57.94-31.91-115.86-47.74-173.95h-40.45,0ZM873.55,184.18h-41.11l54.33,197.24h24.8l-31.72-115.38,61.36,115.38h40.61l-53.94-197.24h-22.61l30.03,108.3s-61.75-108.3-61.75-108.3ZM1139.44,184.18h-41.33l54.49,197.24h24.65l-31.72-115.38,61.56,115.38h40.49l-53.82-197.24h-22.61l30.03,108.3s-61.75-108.3-61.75-108.3ZM943.07,184.18l54.7,197.24h31.21l-54.7-197.24s-31.21,0-31.21,0ZM998.57,205.94c9.79,48.92,26.32,102.02,41.16,150.62,5.57,17.87,16.37,25.92,27.18,24.94,1.23-.03,2.47.03,3.7.16,13.84,0,27.34,0,40.82-.16,12.33.32,19.91-4.51,20.93-16.1v-5.63c-.24-2.6-.64-5.18-1.17-7.73l-42.04-153.07c-2.9-9.5-9.62-13.37-18.56-14.33-2.46-.32-4.94-.48-7.43-.48-13.49-.16-28-.16-44.19,0-13.05.32-19.91,6.11-20.42,17.05v4.71h.03,0ZM695.56,170.32h507.31l64.28,228.69h-580.03c61.2-63.74,62.65-160.61,8.44-228.69h0ZM1070.6,241.13c10.63,38.78,21.09,77.08,31.91,116.02.51,2.9-.84,4.35-4.22,4.66h-10.6c-6.24-.32-9.95-8.03-12.31-15.95-1.45-5.8-3.03-11.75-4.73-17.55-11.3-40.71-23.78-82.39-31.91-121.5-.35-2.9.33-4.35,3.54-4.35,5.06,0,10.3-.16,15.18-.16,1.35,0,2.7.16,2.9,1.61,3.54,12.54,6.92,24.77,10.28,37.17l-.04.06h0Z"/>
      <path id="Path-6" data-name="Path" class="cls-2" d="M144.38,30.63l81.32,289.68c-21.09,21.25-14.84,58.43,19.4,69.05,1.02,3.54,2.03,7.25,3.03,10.62h-48.25L109.13,73.66h-55.67l-11.98-43.03h102.91,0Z"/>
      <path id="Path-7" data-name="Path" class="cls-2" d="M257.26,321.59c15.85,0,28.85,12.4,28.85,27.55s-13.05,27.67-28.85,27.67-29.01-12.39-29.01-27.67,13.05-27.55,29.01-27.55Z"/>
      <path id="Path-8" data-name="Path" class="cls-2" d="M198.37,30.63h729.67l12.15,45.39H260.63l24.65,91.73h113.21c-9.9,11.55-18.19,24.38-24.65,38.14h-77.98l52.47,194.07h-46.41c-2.71-9.33-5.41-18.85-7.93-28.48,14.17-24.47,5.06-47.15-16.53-59.06L198.39,30.63h-.01Z"/>
      <path id="Path-9" data-name="Path" class="cls-2" d="M582.99,165.67c-34.08-10.31-77.94-.97-108.3,24.45-80.65,73.96-39.16,165.44,21.93,196.65,69.68,30.9,118.92,4.83,143.75-18.19,3.87,14.33,7.58,28.5,11.47,42.49-43.87,36.69-136.99,54.38-208.71,3.54-73.72-54.07-81.65-137.6-60.91-188.93,32.73-79.33,108.65-117.15,189.13-106.85,4.05,15.62,7.58,31.22,11.6,46.84h.04,0Z"/>
      <path id="Path-10" data-name="Path" class="cls-5" d="M552.78,214.65l-.51-2.41c.18.84.39,1.65.51,2.41Z"/>
      <path id="Path-11" data-name="Path" class="cls-2" d="M551.99,210.88c0,.44.13.86.22,1.29l.33,2.47c-1.84.16-3.99.16-6.47.32-2.03.16-4.22.16-6.41.16-2.54-.16-3.89-.16-5.06-.16-.69-.03-1.37-.14-2.03-.32-2.28-.53-4.27-1.91-5.57-3.86-1.26-2.41-.54-5.37,1.68-6.93.26-.18.59-.2.87-.07.28.13.47.41.49.72,0,2.9.84,4.83,2.19,5.63,3.06.54,6.17.75,9.28.65,2.9-.17,6.41,0,10.46.16v-.06s.01,0,.01,0Z"/>
      <path id="Path-12" data-name="Path" class="cls-5" d="M481.17,218.98c4.19-2.1,8.4-4.12,12.62-6.27-4.18,2.13-7.92,4-11.98,6.16-.19.11-.42.15-.64.1Z"/>
      <path id="Path-13" data-name="Path" class="cls-2" d="M494.12,211.37c.12.36.18.75.16,1.13-4.35,2.25-8.77,4.35-13.15,6.42-1.52-.8-3.2-1.77-4.35-2.57-.84-.81,0-1.77,1.02-1.29,1.02.48,2.36.65,3.71.97h.68c-1.3-1.71-2.83-3.22-4.55-4.51l.51-.97c1.35.65,2.9,1.29,4.35,1.94l-2.54-3.87c.17-.16.51-.32.86-.64,1.73,1.93,3.68,3.66,5.8,5.15-.53-2.54-1.32-5.03-2.36-7.41l1.02-.48c1.32,2.42,2.91,4.69,4.73,6.76-.97-2.06-2.15-4-3.54-5.8-.68-1.45,1.17-1.61,1.68-1.29,2.34,1.82,4.39,3.99,6.08,6.44h-.09s0,.01,0,.01Z"/>
      <path id="Path-14" data-name="Path" class="cls-5" d="M489.73,262.37c-1.16,2.06-2.42,4.02-3.67,5.99l3.67-5.99Z"/>
      <path id="b" class="cls-2" d="M487.38,268.29c-1.88,2.64-3.7,5.28-5.54,8.03l5.54-8.03ZM491.66,262.39c-1.48,2.03-2.89,3.97-4.27,5.9l4.27-5.9ZM491.66,262.31l-4.27,5.98-5.54,8.03c-.77-.48-1.34-.97-2.09-1.45-.38-.32-2.85-1.45-4.17-2.25-.38-.48-.2-.97.57-1.13,1.32-.16,2.66-.16,3.98-.32-1.52-.64-3.03-1.45-4.55-2.09-.03-.39.04-.77.2-1.13,1.63,0,3.41-.16,5.12-.16-1.46-.83-2.85-1.75-4.17-2.74-.77-1.12.57-1.61,1.14-1.29,1.81.27,3.66.38,5.5.33l-3.6-3.06c.21-.3.46-.57.75-.81,1.71.49,3.62,1.13,5.32,1.77-.75-.96-1.52-2.09-2.27-3.06.18-.32.38-.32.75-.64,2.57,1.18,5.05,2.52,7.4,4.02h-.05Z"/>
      <path id="Path-15" data-name="Path" class="cls-5" d="M575.28,382.43c-1.31-2.52-2.55-5.16-3.8-7.86l-2.15-4.76c2.21,4.11,4.19,8.34,5.95,12.66v-.04h0Z"/>
      <path id="Path-16" data-name="Path" class="cls-5" d="M571.47,374.57c-.86-1.87-1.71-3.77-2.61-5.67l.46.87s2.15,4.8,2.15,4.8Z"/>
      <path id="Path-17" data-name="Path" class="cls-2" d="M568.86,368.74c2.18,4.8,4.19,9.44,6.37,14.07-1.64.9-3.16,1.55-4.51,2.19.84-1.45,1.68-2.9,2.36-4.35-1.68,1.12-3.38,2.41-5.06,3.7,1.17-1.77,2.19-3.54,3.21-5.32-2.03.33-4.22.81-6.24,1.29,1.68-1.6,3.36-3.06,5.06-4.67-1.86.65-3.55,1.45-5.24,2.1,1.02-1.61,2.19-3.06,3.21-4.51-1.69.02-3.38.13-5.06.32,1.86-1.61,3.89-3.22,5.9-4.83,0,0,0,.01,0,.01Z"/>
      <polygon id="Path-18" data-name="Path" class="cls-2" points="497.5 365.69 493.11 366.02 496.99 362.95 490.75 361.35 497.16 358.94 492.1 356.03 497.84 355.22 492.93 351.2 499.52 351.69 495.48 349.61 500.36 350.89 497.5 365.69"/>
      <path id="Path-19" data-name="Path" class="cls-2" d="M730.48,184.18h40.49c15.85,58.1,31.91,116.02,47.74,174.04.41,2.46,2.57,4.25,5.06,4.18h13.33c3.03-.16,4.35-1.93,3.03-5.95l-47.41-172.26h24.31c15.85,58.9,31.76,117.74,47.74,176.53,4.55,16.36-2.52,20.71-14.01,20.71h-41c-21.42.16-29.35-12.23-33.36-28.17l-45.93-169.08h0Z"/>
      <polygon id="Path-20" data-name="Path" class="cls-2" points="873.55 184.17 935.31 292.47 905.27 184.17 927.88 184.17 981.85 381.45 941.21 381.45 879.79 266.07 911.5 381.45 886.7 381.45 832.39 184.17 873.55 184.17"/>
      <polygon id="Path-21" data-name="Path" class="cls-2" points="1139.44 184.17 1201.18 292.47 1171.16 184.17 1193.76 184.17 1247.6 381.45 1207.1 381.45 1145.53 266.07 1177.25 381.45 1152.59 381.45 1098.1 184.17 1139.44 184.17"/>
      <polygon id="Path-22" data-name="Path" class="cls-2" points="943.06 184.17 974.28 184.17 1028.94 381.45 997.73 381.45 943.06 184.17"/>
      <path class="cls-2" d="M1070.61,241.14c-3.36-12.4-6.74-24.65-10.28-37.17-.17-1.45-1.45-1.61-2.9-1.61-4.89,0-10.15.16-15.18.16-3.21,0-3.89,1.45-3.54,4.35,8.09,39.16,20.58,80.79,31.91,121.5,1.7,5.8,3.22,11.75,4.73,17.55,2.36,7.89,6.08,15.6,12.31,15.95h10.63c3.38-.32,4.73-1.77,4.22-4.66-10.8-38.95-21.26-77.25-31.91-116.02v-.06s.01,0,.01,0ZM998.58,205.94v-4.67c.51-10.95,7.43-16.74,20.42-17.05,16.18-.16,30.7-.16,44.19,0,2.48,0,4.96.15,7.43.48,8.95.96,15.69,4.83,18.56,14.33l42.06,153.03c.54,2.55.93,5.13,1.17,7.73v5.63c-1.02,11.6-8.6,16.42-20.93,16.1-13.49.16-26.99.16-40.82.16-1.23-.13-2.46-.19-3.7-.16-10.8.97-21.61-7.08-27.18-24.94-14.88-48.64-31.41-101.75-41.2-150.62h0Z"/>
      <path id="a" class="cls-4" d="M572.75,193.5c-.27-.23-.5-.5-.68-.8.68-.81,1.52-1.61,2.36-2.58.51-.64,1.86-.8,3.38-.8.67,0,1.35.16,1.86.16.26.03.5.17.66.38s.22.48.18.74v.84c-2.7,0-3.54.16-3.71.32-1.32.66-2.67,1.25-4.05,1.77,0,0,0-.03,0-.03Z"/>
      <path class="cls-4" d="M556.89,198.8c-1.17.17-2.19.49-3.21.65-.67,0-1.17-.32-1.02-.81v-.8c-.06-.69-.29-1.35-.67-1.93l-1.02.48c.24.97,0,1.99-.67,2.74-.35.16-.68.32-1.02,0s-.51-.49-.84-.65c-.17-.3-.17-.66,0-.96.1-1.7.6-3.35,1.45-4.83.85-.81,2.19-.81,3.05,0,1.51,1.88,2.81,3.93,3.87,6.11,0,0,.06,0,.06,0Z"/>
    </g>
  </g>
</svg>