<?xml version="1.0" encoding="UTF-8" standalone="no"?>
<!-- Created with Inkscape (http://www.inkscape.org/) -->
<svg
   xmlns:svg="http://www.w3.org/2000/svg"
   xmlns="http://www.w3.org/2000/svg"
   version="1.0"
   width="1713"
   height="1653"
   id="svg2">
  <defs
     id="defs5" />
  <path
     d="M 554.25,40.28125 C 495.48524,40.514454 425.96208,50.922803 342.625,77.03125 C 273.54458,96.745973 199.98397,105.86613 131.1875,56.84375 L 40.25,283.34375 C 216.20022,411.70904 180.93177,612.99855 125.375,889.71875 C 103.88488,996.80966 75.014005,1078.0764 65.9375,1167.5625 C 47.037648,1355.5075 197.54849,1564.6639 500.3125,1550.0313 C 580.14157,1549.2705 642.90029,1522.933 700.28125,1520.4688 C 754.13374,1518.1228 812.79858,1541.0146 857.125,1615.8438 L 857.375,1618.25 C 901.7015,1543.4209 960.33501,1520.529 1014.1875,1522.875 C 1071.5685,1525.3392 1134.3585,1551.7079 1214.1875,1552.4688 C 1516.9515,1567.1014 1667.2721,1357.9297 1648.5313,1169.9688 C 1639.4547,1079.7097 1610.5838,999.24718 1589.0938,892.15625 C 1533.5369,615.43605 1498.2686,414.14655 1674.2188,285.78125 L 1583.2813,59.28125 C 1514.4849,108.30364 1440.9554,99.18347 1371.875,79.46875 C 1063.0376,-17.286089 943.84783,93.362309 859.1875,147.03079 C 796.83503,108.56041 716.60387,39.636959 554.25,40.28125 z "
     style="opacity:1;fill:none;fill-opacity:1;stroke:#000000;stroke-width:16;stroke-linecap:butt;stroke-linejoin:miter;stroke-miterlimit:0;stroke-dasharray:none;stroke-dashoffset:0;stroke-opacity:1"
     id="path2161" />
  <path
     d="M 96.132811,1145.8673 C 95.672799,1149.6378 95.248014,1153.4209 94.860745,1157.2196 C 68.087833,1328.2142 203.4469,1544.6169 512.10675,1522.7327 C 588.78787,1522.0058 649.07178,1496.8358 704.18999,1494.4808 C 755.2007,1496.5481 801.70093,1505.5733 856.48871,1567.7486 L 856.72886,1568.6117 C 907.92576,1516.4912 954.7071,1492.3838 1006.436,1494.6258 C 1061.5542,1496.9808 1121.8682,1514.2803 1198.5493,1522.9077 C 1508.7055,1535.4551 1643.4328,1346.8779 1620.7926,1159.5192 C 1612.074,1073.2614 1582.9052,995.64782 1562.2626,893.30439 C 1521.5193,691.40311 1492.8538,511.70756 1556.4454,385.10293 C 1556.4454,385.10293 96.132811,1145.8673 96.132811,1145.8673 z "
     style="opacity:1;fill:#044fa2;fill-opacity:1;stroke:none;stroke-width:11.49736881;stroke-linecap:butt;stroke-linejoin:miter;stroke-miterlimit:0;stroke-dasharray:none;stroke-dashoffset:0;stroke-opacity:1"
     id="path5077" />
  <path
     d="M 1351.8735,751.83563 L 1377.2656,754.12092 C 1381.9992,756.8733 1387.2098,758.86229 1388.692,766.81695 L 1382.8519,828.51967 C 1388.711,830.70751 1394.57,834.42266 1400.4291,833.51234 L 1475.025,876.7646 C 1493.5322,900.42374 1492.2848,919.26469 1483.1505,936.18202 L 1483.4044,938.21339 C 1514.2553,958.68567 1492.9265,1006.825 1469.6927,1011.3425 L 530.44022,1160.3939 C 479.57573,1156.4082 480.24826,1110.9131 491.59037,1093.3589 C 479.48206,1088.8658 462.18011,1045.9534 496.16094,1014.6435 L 914.11432,816.07756 C 917.52735,816.35224 919.3258,813.85907 927.15776,821.70905 L 933.55439,820.00592 L 945.68671,798.09711 C 962.46132,753.21885 1020.8824,745.61787 1049.2001,777.48162 C 1066.8899,740.57871 1117.3355,722.53673 1151.784,756.66013 C 1176.1452,714.04601 1227.3416,721.20888 1247.2582,743.96409 C 1271.7658,711.48672 1323.7162,707.74223 1351.8735,751.83563 z "
     style="opacity:1;fill:#ffffff;fill-opacity:1;stroke:none;stroke-width:2;stroke-linecap:butt;stroke-linejoin:miter;stroke-miterlimit:0;stroke-dasharray:none;stroke-dashoffset:0;stroke-opacity:1"
     id="path10060" />
  <path
     d="M 1363.9375,774.34375 C 1355.8191,806.04162 1353.3531,848.15904 1331.875,862.40625 C 1240.5996,886.39435 1137.3251,896.76002 1049.0625,907.375 C 987.22165,908.12991 950.96164,871.89148 913.96875,840.71875 L 518.1875,1024.3125 L 518,1027.1875 C 482.60151,1043.1154 501.81369,1082.8931 515.125,1084.5 C 484.36122,1100.1971 492.52942,1151.0397 532.15625,1146.6875 L 1462.5625,998.65625 C 1490.1696,992.67156 1497.1253,945.5286 1457.625,934.03125 C 1475.2825,914.88931 1462.4843,891.97175 1450.4063,884.5625 L 1449.9063,882.25 L 1390.8125,855.5 C 1384.1725,852.98057 1366.0295,850.27039 1359.125,835.28125 L 1363.9375,774.34375 z M 1357.375,816 L 1357.25,836.375 C 1364.1545,851.36409 1383.36,855.51182 1390,858.03125 L 1414.125,869.375 L 569.40625,1003.8125 L 913.53125,843.96875 C 950.52417,875.14148 986.78417,910.66116 1048.625,909.90625 C 1136.8876,899.29128 1240.8809,889.26935 1332.1563,865.28125 C 1350.7616,850.67491 1349.6157,848.05697 1357.375,816 z M 1417.4375,870.5625 L 1436.4063,878.78125 L 528.75,1022.375 L 558,1008.2188 L 1417.4375,870.5625 z M 1238.4375,916.40625 L 1248.6875,978.71875 L 1228.2188,981.5625 L 1217.9688,919.625 L 1238.4375,916.40625 z M 1199.75,922.78125 L 1209.9688,985.0625 L 1189.5,987.9375 L 1179.2813,926 L 1199.75,922.78125 z M 1160.2813,927.34375 C 1160.7863,927.33211 1161.2972,927.33789 1161.8125,927.34375 C 1165.8625,927.38981 1170.2307,927.98269 1174.9063,929.1875 L 1178.4375,949.5 C 1142.3638,937.53148 1143.6595,970.50104 1151.7813,994.1875 L 1130.1875,997 C 1117.0373,963.25665 1128.4644,928.07685 1160.2813,927.34375 z M 1094.3438,939.03125 C 1114.2852,939.70403 1134.2144,960.81693 1112.3125,983.65625 C 1119.1102,986.40582 1126.1666,988.81615 1127.375,997.8125 L 1107.0938,1001.25 L 1102.4375,994.40625 C 1097.7785,993.25 1093.8669,993.80034 1089.6875,994.125 L 1091.3125,1003.4063 L 1071.375,1006.625 L 1061.3125,944.6875 L 1094.3438,939.03125 z M 1452.7188,955.3125 C 1467.939,954.92753 1470.4474,977.83385 1456.125,980.84375 L 529.6875,1128.25 C 513.13419,1130.2448 509.96561,1105.9195 524.75,1102.8125 L 1451.2188,955.4375 C 1451.736,955.37516 1452.2274,955.32492 1452.7188,955.3125 z M 1089.2813,955.8125 C 1088.9145,955.80257 1088.5343,955.82198 1088.1563,955.84375 C 1086.9038,955.91582 1085.6097,956.17047 1084.25,956.625 L 1087.6563,979.96875 L 1093.75,979.34375 C 1106.2464,971.32164 1100.6501,956.12045 1089.2813,955.8125 z "
     style="opacity:1;fill:#231f20;fill-opacity:1;stroke:#231f20;stroke-width:3;stroke-linecap:butt;stroke-linejoin:miter;stroke-miterlimit:0;stroke-dasharray:none;stroke-dashoffset:0;stroke-opacity:1"
     id="path2203" />
  <path
     d="M 562.4809,67.114191 C 491.66953,68.055247 438.53365,78.111885 358.48285,103.06288 C 292.12652,121.9036 217.10778,131.60676 146.71504,96.248798 L 71.842005,278.69351 C 237.98106,412.85924 205.32036,625.04503 151.95441,889.49761 C 132.31671,986.85841 106.11788,1066.571 96.121396,1147.2723 C 96.121396,1147.2723 1553.3387,391.32154 1553.3387,391.32154 C 1572.7914,351.67575 1603.6117,306.89651 1642.5944,275.88588 L 1569.8761,97.750334 C 1487.9923,131.67193 1419.9658,119.92387 1350.7368,101.08313 C 1079.933,3.5902664 913.01501,144.8289 856.82999,187.49979 C 808.42745,147.14391 711.96881,72.244029 562.4809,67.114191 z "
     style="opacity:1;fill:#ee3224;fill-opacity:1;stroke:none;stroke-width:11.49736881;stroke-linecap:butt;stroke-linejoin:miter;stroke-miterlimit:0;stroke-dasharray:none;stroke-dashoffset:0;stroke-opacity:1"
     id="path3137" />
  <g
     style="fill:#ffffff;stroke:none"
     id="g13997">
    <path
       d="M 326.74415,331.16877 L 326.74415,314.08873 C 332.52901,317.67684 337.40771,320.18484 341.38026,321.61274 C 345.35276,323.04066 349.20629,323.75462 352.94086,323.75461 C 356.71198,323.75462 359.5678,323.17796 361.50834,322.02463 C 363.4488,320.87134 364.41904,319.15967 364.41909,316.88964 C 364.41904,315.059 363.81493,313.58533 362.60674,312.4686 C 361.39846,311.35192 358.57925,310.0247 354.1491,308.48692 C 343.20174,304.64257 335.66859,300.71581 331.54962,296.70664 C 327.43064,292.69754 325.37115,287.58086 325.37115,281.35657 C 325.37115,274.80288 328.05306,269.47567 333.4169,265.37492 C 338.7807,261.27433 345.76466,259.22399 354.36878,259.22391 C 358.7257,259.22399 363.10097,259.75488 367.49459,260.81659 C 371.88812,261.87844 376.22678,263.4345 380.51057,265.48476 L 380.51057,281.24673 C 375.34806,278.64725 370.7165,276.72506 366.61588,275.48016 C 362.51516,274.23537 358.78062,273.61295 355.41225,273.61289 C 351.7509,273.61295 348.95915,274.14384 347.03699,275.20556 C 345.11477,276.2674 344.15368,277.78684 344.1537,279.7639 C 344.15368,281.37493 345.01409,282.88522 346.73493,284.29477 C 348.45572,285.70443 351.05525,287.04996 354.53353,288.33138 C 355.26576,288.62433 356.38246,289.04538 357.88364,289.59453 C 365.20623,292.30395 370.46021,294.62888 373.6456,296.56934 C 376.97734,298.61971 379.4945,301.25586 381.19707,304.47778 C 382.89952,307.69977 383.75077,311.47092 383.75084,315.79124 C 383.75077,322.89421 381.06886,328.47771 375.70509,332.54176 C 370.34122,336.60583 362.8996,338.63785 353.38022,338.63786 C 348.62048,338.63785 344.01638,338.01543 339.56791,336.77058 C 335.11939,335.52574 330.84481,333.65847 326.74415,331.16877 L 326.74415,331.16877 z M 423.62256,292.2856 C 427.24722,292.28564 429.93829,291.56253 431.69576,290.11627 C 433.45315,288.6701 434.33186,286.46415 434.33191,283.49844 C 434.33186,280.67928 433.41654,278.50995 431.58592,276.99045 C 429.75522,275.47106 427.13739,274.71134 423.7324,274.71128 L 414.50589,274.71128 L 414.50589,292.2856 L 423.62256,292.2856 z M 395.17414,337.26486 L 395.17414,260.43215 L 423.51272,260.43215 C 433.91081,260.43222 441.60872,262.3178 446.60647,266.08888 C 451.6041,269.8601 454.10295,275.62667 454.10302,283.3886 C 454.10295,291.37031 451.43019,297.33825 446.08473,301.29243 C 440.73916,305.24669 432.70258,307.2238 421.97497,307.22377 L 414.50589,307.22377 L 414.50589,337.26486 L 395.17414,337.26486 z M 465.58124,337.26486 L 465.58124,260.43215 L 485.40727,260.43215 L 485.40727,337.26486 L 465.58124,337.26486 z M 500.83971,337.26486 L 500.83971,260.43215 L 552.24459,260.43215 L 552.24459,274.60144 L 520.06162,274.60144 L 520.06162,290.25357 L 550.81667,290.25357 L 550.81667,304.5327 L 520.06162,304.5327 L 520.06162,322.87589 L 553.17822,322.87589 L 553.17822,337.26486 L 500.83971,337.26486 z M 565.42533,337.26486 L 565.42533,260.43215 L 584.64724,260.43215 L 584.64724,322.43653 L 617.76384,322.43653 L 617.76384,337.26486 L 565.42533,337.26486 z "
       style="font-size:112.47562408px;font-style:normal;font-variant:normal;font-weight:bold;font-stretch:normal;text-align:center;line-height:100%;writing-mode:lr-tb;text-anchor:middle;fill-opacity:1;stroke-width:3;stroke-linecap:butt;stroke-linejoin:miter;stroke-miterlimit:0;stroke-dashoffset:0;stroke-opacity:1;font-family:Humanst521 BT"
       id="text13989" />
    <path
       d="M 642.41175,339.36027 L 607.53772,261.86852 L 628.13262,261.86852 L 647.13485,306.51827 L 667.40023,261.86852 L 688.21481,261.86852 L 650.75955,339.36027 L 642.41175,339.36027 z M 693.43219,338.70123 L 693.43219,261.86852 L 744.83707,261.86852 L 744.83707,276.03781 L 712.6541,276.03781 L 712.6541,291.68994 L 743.40915,291.68994 L 743.40915,305.96907 L 712.6541,305.96907 L 712.6541,324.31226 L 745.7707,324.31226 L 745.7707,338.70123 L 693.43219,338.70123 z M 786.9605,293.39245 C 790.51194,293.39249 793.15724,292.65108 794.89641,291.1682 C 796.63548,289.68542 797.50505,287.42456 797.50509,284.38561 C 797.50505,281.49323 796.59887,279.28729 794.78657,277.76778 C 792.97417,276.2484 790.36549,275.48868 786.9605,275.48861 L 777.73399,275.48861 L 777.73399,293.39245 L 786.9605,293.39245 z M 758.45716,338.70123 L 758.45716,261.86852 L 786.85066,261.86852 C 797.28537,261.8686 804.99243,263.68095 809.97187,267.30557 C 814.9512,270.93034 817.44089,276.55046 817.44096,284.16593 C 817.44089,288.41311 816.3425,292.04696 814.14577,295.0675 C 811.94892,298.08813 808.58052,300.64189 804.04054,302.7288 C 805.94437,303.42449 807.65603,304.58696 809.17554,306.21621 C 810.69492,307.84552 812.02215,309.90501 813.15722,312.39468 L 825.40432,338.70123 L 803.71102,338.70123 L 793.93531,316.56858 C 792.3609,313.05374 790.56686,310.63727 788.55318,309.31917 C 786.53942,308.00113 783.68359,307.34209 779.9857,307.34206 C 779.69276,307.34209 779.30832,307.3604 778.83238,307.39698 C 778.35638,307.43363 777.99025,307.45193 777.73399,307.4519 L 777.73399,338.70123 L 758.45716,338.70123 z M 831.39057,338.70123 L 831.39057,261.86852 L 882.79545,261.86852 L 882.79545,276.03781 L 850.61248,276.03781 L 850.61248,291.68994 L 881.36754,291.68994 L 881.36754,305.96907 L 850.61248,305.96907 L 850.61248,324.31226 L 883.72908,324.31226 L 883.72908,338.70123 L 831.39057,338.70123 z M 896.52537,338.70123 L 896.52537,261.86852 L 916.3514,261.86852 L 916.3514,338.70123 L 896.52537,338.70123 z M 950.78608,290.42678 L 950.78608,338.70123 L 931.78385,338.70123 L 931.78385,261.86852 L 948.64421,261.86852 L 989.83402,307.67158 L 989.83402,261.86852 L 1008.8362,261.86852 L 1008.8362,338.70123 L 993.78824,338.70123 L 950.78608,290.42678 z M 1024.3785,338.70123 L 1024.3785,261.86852 L 1044.2045,261.86852 L 1044.2045,338.70123 L 1024.3785,338.70123 z M 1129.7146,329.6944 C 1125.028,333.20926 1120.0578,335.81795 1114.8039,337.52046 C 1109.5498,339.22297 1103.7924,340.07422 1097.5316,340.07423 C 1091.4904,340.07422 1085.9435,339.14974 1080.8909,337.30078 C 1075.8383,335.45182 1071.463,332.76991 1067.7651,329.25504 C 1063.8841,325.55712 1060.9276,321.23677 1058.8956,316.29398 C 1056.8636,311.35123 1055.8475,306.04233 1055.8475,300.36726 C 1055.8475,288.3948 1059.8292,278.76555 1067.7926,271.47947 C 1075.7559,264.19353 1086.3097,260.55052 1099.4538,260.55045 C 1104.2501,260.55052 1108.9915,261.11803 1113.678,262.25296 C 1118.3644,263.38804 1123.1425,265.14547 1128.0121,267.52525 L 1128.0121,284.38561 C 1122.9228,281.78613 1118.0715,279.84564 1113.4583,278.56412 C 1108.845,277.28272 1104.5247,276.64199 1100.4973,276.64193 C 1092.7353,276.64199 1086.6483,278.74725 1082.2365,282.9577 C 1077.8246,287.16826 1075.6186,292.97144 1075.6186,300.36726 C 1075.6186,307.58008 1077.7239,313.31919 1081.9344,317.58459 C 1086.1449,321.85004 1091.8016,323.98276 1098.9046,323.98274 C 1100.8085,323.98276 1102.694,323.78139 1104.5613,323.37863 C 1106.4286,322.9759 1108.2958,322.39009 1110.1632,321.62119 L 1110.1632,311.95532 L 1099.5637,311.95532 L 1099.5637,297.51143 L 1129.7146,297.51143 L 1129.7146,329.6944 z M 1215.2246,261.86852 L 1215.2246,305.85923 C 1215.2246,316.62352 1212.0301,325.01708 1205.6412,331.03993 C 1199.2521,337.0628 1190.3276,340.07422 1178.8678,340.07423 C 1167.4444,340.07422 1158.5383,337.0628 1152.1493,331.03993 C 1145.7603,325.01708 1142.5658,316.62352 1142.5658,305.85923 L 1142.5658,261.86852 L 1161.8976,261.86852 L 1161.8976,305.09035 C 1161.8976,311.20478 1163.3621,315.8821 1166.2912,319.12235 C 1169.2202,322.36263 1173.4673,323.98276 1179.0325,323.98274 C 1184.5611,323.98276 1188.7716,322.37178 1191.6641,319.14981 C 1194.5565,315.92787 1196.0027,311.24139 1196.0027,305.09035 L 1196.0027,261.86852 L 1215.2246,261.86852 z M 1248.8904,290.42678 L 1248.8904,338.70123 L 1229.8882,338.70123 L 1229.8882,261.86852 L 1246.7485,261.86852 L 1287.9383,307.67158 L 1287.9383,261.86852 L 1306.9406,261.86852 L 1306.9406,338.70123 L 1291.8925,338.70123 L 1248.8904,290.42678 z M 1392.0113,329.6944 C 1387.3247,333.20926 1382.3545,335.81795 1377.1006,337.52046 C 1371.8465,339.22297 1366.0891,340.07422 1359.8283,340.07423 C 1353.7871,340.07422 1348.2402,339.14974 1343.1876,337.30078 C 1338.135,335.45182 1333.7597,332.76991 1330.0618,329.25504 C 1326.1808,325.55712 1323.2243,321.23677 1321.1923,316.29398 C 1319.1602,311.35123 1318.1442,306.04233 1318.1442,300.36726 C 1318.1442,288.3948 1322.1259,278.76555 1330.0893,271.47947 C 1338.0526,264.19353 1348.6063,260.55052 1361.7505,260.55045 C 1366.5468,260.55052 1371.2882,261.11803 1375.9747,262.25296 C 1380.6611,263.38804 1385.4391,265.14547 1390.3088,267.52525 L 1390.3088,284.38561 C 1385.2195,281.78613 1380.3682,279.84564 1375.755,278.56412 C 1371.1417,277.28272 1366.8214,276.64199 1362.794,276.64193 C 1355.0319,276.64199 1348.945,278.74725 1344.5332,282.9577 C 1340.1213,287.16826 1337.9153,292.97144 1337.9153,300.36726 C 1337.9153,307.58008 1340.0206,313.31919 1344.2311,317.58459 C 1348.4416,321.85004 1354.0983,323.98276 1361.2013,323.98274 C 1363.1051,323.98276 1364.9907,323.78139 1366.858,323.37863 C 1368.7253,322.9759 1370.5925,322.39009 1372.4599,321.62119 L 1372.4599,311.95532 L 1361.8603,311.95532 L 1361.8603,297.51143 L 1392.0113,297.51143 L 1392.0113,329.6944 z "
       style="font-size:112.47562408px;font-style:normal;font-variant:normal;font-weight:bold;font-stretch:normal;text-align:center;line-height:100%;writing-mode:lr-tb;text-anchor:middle;fill-opacity:1;stroke-width:3;stroke-linecap:butt;stroke-linejoin:miter;stroke-miterlimit:0;stroke-dashoffset:0;stroke-opacity:1;font-family:Humanst521 BT"
       id="text13993" />
  </g>
  <path
     d="M 479.11055,1288.7299 L 479.11055,1331.7723 C 479.11047,1342.3045 475.98484,1350.5171 469.73365,1356.4101 C 463.48233,1362.3031 454.75027,1365.2496 443.53746,1365.2496 C 432.36039,1365.2496 423.64624,1362.3031 417.395,1356.4101 C 411.14373,1350.5171 408.0181,1342.3045 408.01811,1331.7723 L 408.01811,1288.7299 L 426.9331,1288.7299 L 426.9331,1331.02 C 426.93308,1337.0026 428.36603,1341.5791 431.23197,1344.7494 C 434.09784,1347.9199 438.2534,1349.5051 443.69867,1349.5051 C 449.10802,1349.5051 453.22776,1347.9288 456.0579,1344.7763 C 458.88792,1341.6238 460.30296,1337.0384 460.30302,1331.02 L 460.30302,1288.7299 L 479.11055,1288.7299 z M 512.05058,1316.6725 L 512.05058,1363.9063 L 493.458,1363.9063 L 493.458,1288.7299 L 509.95489,1288.7299 L 550.25672,1333.5455 L 550.25672,1288.7299 L 568.8493,1288.7299 L 568.8493,1363.9063 L 554.1257,1363.9063 L 512.05058,1316.6725 z M 601.78935,1363.9063 L 601.78935,1302.7012 L 576.90968,1302.7012 L 576.90968,1288.7299 L 646.49752,1288.7299 L 646.49752,1302.7012 L 621.61785,1302.7012 L 621.61785,1363.9063 L 601.78935,1363.9063 z M 654.66534,1363.9063 L 654.66534,1288.7299 L 704.96204,1288.7299 L 704.96204,1302.5937 L 673.47287,1302.5937 L 673.47287,1317.9084 L 703.56491,1317.9084 L 703.56491,1331.8797 L 673.47287,1331.8797 L 673.47287,1349.8275 L 705.87554,1349.8275 L 705.87554,1363.9063 L 654.66534,1363.9063 z M 746.17738,1319.5742 C 749.65226,1319.5743 752.24053,1318.8488 753.9422,1317.3979 C 755.64379,1315.9471 756.49461,1313.735 756.49465,1310.7616 C 756.49461,1307.9315 755.60797,1305.7731 753.83473,1304.2864 C 752.06141,1302.7998 749.50896,1302.0564 746.17738,1302.0564 L 737.14977,1302.0564 L 737.14977,1319.5742 L 746.17738,1319.5742 z M 718.28851,1363.9063 L 718.28851,1288.7299 L 746.06991,1288.7299 C 756.27967,1288.73 763.82058,1290.5032 768.69268,1294.0497 C 773.56466,1297.5964 776.00068,1303.0953 776.00074,1310.5466 C 776.00068,1314.7022 774.92596,1318.2577 772.7766,1321.2132 C 770.6271,1324.1687 767.33131,1326.6674 762.88921,1328.7093 C 764.752,1329.39 766.42676,1330.5274 767.91351,1332.1215 C 769.40014,1333.7157 770.69875,1335.7308 771.80935,1338.1668 L 783.79243,1363.9063 L 762.5668,1363.9063 L 753.00183,1342.2507 C 751.46136,1338.8117 749.70599,1336.4473 747.73572,1335.1576 C 745.76537,1333.868 742.97112,1333.2231 739.35294,1333.2231 C 739.06632,1333.2231 738.69017,1333.2411 738.22449,1333.2769 C 737.75875,1333.3127 737.40051,1333.3306 737.14977,1333.3306 L 737.14977,1363.9063 L 718.28851,1363.9063 z M 789.64961,1363.9063 L 789.64961,1288.7299 L 808.45714,1288.7299 L 808.45714,1318.8757 L 841.93453,1318.8757 L 841.93453,1288.7299 L 860.74205,1288.7299 L 860.74205,1363.9063 L 841.93453,1363.9063 L 841.93453,1333.4381 L 808.45714,1333.4381 L 808.45714,1363.9063 L 789.64961,1363.9063 z M 897.33614,1336.3935 L 919.52902,1336.3935 L 908.99681,1307.8061 L 897.33614,1336.3935 z M 865.84697,1363.9063 L 898.6258,1288.7299 L 920.33506,1288.7299 L 949.62106,1363.9063 L 929.68508,1363.9063 L 924.3115,1349.2901 L 891.90883,1349.2901 L 885.89042,1363.9063 L 865.84697,1363.9063 z M 1020.5523,1357.6192 C 1016.0384,1360.1985 1011.4171,1362.1151 1006.6884,1363.3689 C 1001.9596,1364.6227 996.99804,1365.2496 991.80363,1365.2496 C 985.92848,1365.2496 980.52804,1364.354 975.60229,1362.5629 C 970.67648,1360.7717 966.36867,1358.1386 962.67883,1354.6637 C 958.88149,1351.0455 955.98872,1346.8183 954.0005,1341.9821 C 952.01228,1337.1459 951.01816,1331.9514 951.01817,1326.3987 C 951.01816,1314.7201 954.914,1305.3074 962.7057,1298.1605 C 970.49737,1291.0137 980.78776,1287.4403 993.57691,1287.4402 C 998.16231,1287.4403 1002.6313,1287.9418 1006.984,1288.9448 C 1011.3365,1289.948 1015.6443,1291.4884 1019.9074,1293.5661 L 1019.9074,1311.1914 C 1015.7518,1308.5047 1011.5783,1306.4986 1007.387,1305.173 C 1003.1956,1303.8476 999.00417,1303.1849 994.81283,1303.1848 C 987.21813,1303.1849 981.24451,1305.2447 976.89195,1309.3644 C 972.53932,1313.4842 970.36303,1319.1623 970.36305,1326.3987 C 970.36303,1333.4202 972.44081,1339.0266 976.5964,1343.218 C 980.75193,1347.4094 986.34045,1349.5051 993.36196,1349.5051 C 997.87572,1349.5051 1002.4074,1348.708 1006.9571,1347.1138 C 1011.5067,1345.5197 1016.0384,1343.1643 1020.5523,1340.0476 L 1020.5523,1357.6192 z M 1031.6756,1363.9063 L 1031.6756,1288.7299 L 1050.4831,1288.7299 L 1050.4831,1318.8757 L 1083.9605,1318.8757 L 1083.9605,1288.7299 L 1102.768,1288.7299 L 1102.768,1363.9063 L 1083.9605,1363.9063 L 1083.9605,1333.4381 L 1050.4831,1333.4381 L 1050.4831,1363.9063 L 1031.6756,1363.9063 z M 1117.9753,1363.9063 L 1117.9753,1288.7299 L 1137.3739,1288.7299 L 1137.3739,1363.9063 L 1117.9753,1363.9063 z M 1171.0662,1316.6725 L 1171.0662,1363.9063 L 1152.4736,1363.9063 L 1152.4736,1288.7299 L 1168.9705,1288.7299 L 1209.2723,1333.5455 L 1209.2723,1288.7299 L 1227.8649,1288.7299 L 1227.8649,1363.9063 L 1213.1413,1363.9063 L 1171.0662,1316.6725 z M 1311.1016,1355.0936 C 1306.5161,1358.5327 1301.653,1361.0851 1296.5124,1362.7509 C 1291.3716,1364.4167 1285.7383,1365.2496 1279.6125,1365.2496 C 1273.7015,1365.2496 1268.2742,1364.3451 1263.3305,1362.536 C 1258.3868,1360.7269 1254.1059,1358.1028 1250.4877,1354.6637 C 1246.6903,1351.0455 1243.7976,1346.8183 1241.8093,1341.9821 C 1239.8211,1337.1459 1238.827,1331.9514 1238.827,1326.3987 C 1238.827,1314.6843 1242.7228,1305.2627 1250.5145,1298.1337 C 1258.3062,1291.0048 1268.6324,1287.4403 1281.4932,1287.4402 C 1286.1861,1287.4403 1290.8253,1287.9956 1295.4108,1289.106 C 1299.9962,1290.2167 1304.6712,1291.9362 1309.4358,1294.2647 L 1309.4358,1310.7616 C 1304.4562,1308.2181 1299.7096,1306.3195 1295.1958,1305.0656 C 1290.682,1303.8118 1286.4548,1303.1849 1282.5142,1303.1848 C 1274.9195,1303.1849 1268.9638,1305.2447 1264.647,1309.3644 C 1260.3302,1313.4842 1258.1719,1319.1623 1258.1719,1326.3987 C 1258.1719,1333.456 1260.2317,1339.0714 1264.3515,1343.2448 C 1268.4712,1347.4183 1274.006,1349.5051 1280.9559,1349.5051 C 1282.8187,1349.5051 1284.6636,1349.308 1286.4906,1348.914 C 1288.3176,1348.5199 1290.1446,1347.9467 1291.9717,1347.1944 L 1291.9717,1337.7369 L 1281.6007,1337.7369 L 1281.6007,1323.6044 L 1311.1016,1323.6044 L 1311.1016,1355.0936 z "
     transform="scale(0.9964402,1.0035725)"
     style="font-size:110.05088043px;font-style:normal;font-variant:normal;font-weight:bold;font-stretch:normal;text-align:center;line-height:100%;writing-mode:lr-tb;text-anchor:middle;fill:#ffffff;fill-opacity:1;stroke:none;stroke-width:13;stroke-linecap:butt;stroke-linejoin:miter;stroke-miterlimit:0;stroke-dashoffset:0;stroke-opacity:1;font-family:Humanst521 BT"
     id="text2165" />
  <path
     d="M 681.0972 625.88788 A 171.09424 171.09424 0 1 1  338.90872,625.88788 A 171.09424 171.09424 0 1 1  681.0972 625.88788 z"
     transform="matrix(1.0998168,0,0,1.0998168,-75.184844,-92.671211)"
     style="opacity:1;fill:#ffffff;fill-opacity:1;stroke:none;stroke-width:13;stroke-linecap:butt;stroke-linejoin:miter;stroke-miterlimit:0;stroke-dasharray:none;stroke-dashoffset:0;stroke-opacity:1"
     id="path2169" />
  <path
     d="M 486.25,416.5625 C 387.49955,416.5625 307.34374,496.71833 307.34375,595.46875 C 307.34375,694.2192 387.49957,774.37502 486.25,774.375 C 585.00045,774.375 665.15626,694.21923 665.15625,595.46875 C 665.15625,496.7183 585.00046,416.56251 486.25,416.5625 z M 493.40625,437.1875 C 520.80146,440.12525 547.19689,444.02871 579.40625,466.9375 C 578.73302,472.92863 577.68639,478.94638 576.5,484.9375 L 532.625,487.0625 C 516.83099,475.9054 501.7636,469.81919 486.4375,461.9375 C 486.85403,452.50253 488.87178,444.04875 493.40625,437.1875 z M 471.75,480.09375 C 487.71626,487.35916 502.87578,496.18313 518.71875,505.03125 C 516.87336,521.52292 517.06431,539.53958 510.96875,556.03125 L 458.40625,581.75 C 444.36838,572.59063 431.29296,561.5242 416.28125,554.3125 C 417.25257,538.33621 419.31034,521.98207 422.09375,505.8125 C 437.43257,495.41867 454.36564,487.4193 471.75,480.09375 z M 598.71875,483.5625 C 614.77632,500.6837 636.48425,531.1513 642.40625,566.09375 L 622.5,556.625 C 618.71907,533.21386 610.80169,508.88665 596.78125,490.90625 L 598.71875,483.5625 z M 382.65625,495.75 C 388.95,497.78597 394.38195,501.51886 399.65625,505.59375 C 398.63058,522.40754 395.59701,537.49296 393.875,554.5 L 350,594.5 L 328.34375,583.875 C 329.61334,561.26842 337.16881,539.36014 347.6875,517.78125 L 382.65625,495.75 z M 521.40625,575.1875 C 536.53566,582.9557 552.55767,593.20404 565.875,603.96875 L 560.65625,659.625 C 544.10015,670.69115 527.52486,679.1177 510.96875,686.875 L 461.125,652.46875 C 464.48,635.65497 466.57944,618.845 467.875,602.03125 L 521.40625,575.1875 z M 614.1875,576.90625 L 644.53125,591.40625 C 646.19333,613.91298 639.77193,635.37391 633.71875,654.40625 L 596.78125,675.6875 L 583.65625,663.5 L 588.09375,602.625 L 614.1875,576.90625 z M 328.53125,608.03125 L 345.34375,615.375 C 355.87701,635.89287 370.04088,656.59379 383.25,675.6875 L 379.9375,707.9375 L 374.53125,707.5625 C 353.02947,685.41118 331.21526,653.87911 328.53125,608.03125 z M 449.125,670.46875 C 464.93245,682.82871 481.57949,692.69791 497.84375,703.6875 L 490.6875,727.09375 L 444.5,735.1875 C 430.97167,729.42166 417.43458,723.68816 403.90625,714.90625 L 406.03125,680.125 L 449.125,670.46875 z M 611.46875,693.46875 L 607.4375,697.71875 C 607.36038,696.75244 607.18744,695.77883 607.8125,694.8125 C 609.03649,693.69263 610.24476,693.73873 611.46875,693.46875 z M 496.28125,748.53125 L 504.8125,752.59375 C 494.95613,754.63597 485.07511,753.54501 475.21875,753.75 L 496.28125,748.53125 z "
     style="opacity:1;fill:#000000;fill-opacity:1;stroke:none;stroke-width:13;stroke-linecap:butt;stroke-linejoin:miter;stroke-miterlimit:0;stroke-dasharray:none;stroke-dashoffset:0;stroke-opacity:1"
     id="path2171" />
  <g
     style="opacity:1;fill:none;stroke:#000000"
     id="g3240">
    <path
       d="M 974.95611,886.01603 C 993.05432,868.72762 1016.744,859.37137 1042.4898,867.1499 C 1052.6933,870.23267 1056.2865,885.19523 1059.3631,904.12103 C 1064.9595,886.24516 1071.8193,868.04687 1083.6137,857.90038 C 1097.7077,845.77563 1137.0767,833.17929 1148.4633,871.32341 L 1146.2768,893.73512 C 1150.7522,871.472 1157.5279,854.87165 1169.7775,845.81068 C 1186.2472,833.62813 1231.665,810.1293 1240.8433,863.67064 L 1240.2966,878.42957 C 1242.4309,857.36062 1248.4092,845.98636 1262.7901,834.36629 C 1274.5053,824.9002 1304.2141,815.9669 1322.0865,824.98434 C 1330.4764,829.21744 1335.2841,841.67647 1337.0496,857.11111"
       style="opacity:1;fill:none;fill-opacity:1;stroke:#000000;stroke-width:5;stroke-linecap:butt;stroke-linejoin:miter;stroke-miterlimit:0;stroke-dasharray:none;stroke-dashoffset:0;stroke-opacity:1"
       id="path3176" />
    <path
       d="M 1250.7905,781.7757 C 1258.2317,768.95872 1263.6703,751.03269 1275.6569,745.72967 C 1286.6722,740.85643 1321.3236,732.52197 1333.1201,773.27218 C 1335.9039,785.24096 1329.7909,798.98092 1324.7969,808.29889 C 1319.7475,817.72006 1310.1699,822.76644 1302.5847,821.97416 C 1281.7907,822.07799 1280.649,808.04965 1280.6551,795.44632 C 1280.2838,782.52236 1274.278,779.29857 1269.8005,782.17934 C 1265.2032,784.69506 1256.9339,783.75768 1250.7905,781.7757 z "
       style="opacity:1;fill:none;fill-opacity:1;stroke:#000000;stroke-width:5;stroke-linecap:butt;stroke-linejoin:miter;stroke-miterlimit:0;stroke-dasharray:none;stroke-dashoffset:0;stroke-opacity:1"
       id="path3178" />
    <path
       d="M 1262.3862,783.12853 C 1263.1312,800.23219 1257.6365,823.98538 1292.7283,822.16742"
       style="opacity:1;fill:none;fill-opacity:1;stroke:#000000;stroke-width:5;stroke-linecap:butt;stroke-linejoin:miter;stroke-miterlimit:0;stroke-dasharray:none;stroke-dashoffset:0;stroke-opacity:1"
       id="path3180" />
    <path
       d="M 1157.902,788.03069 C 1165.4413,775.04488 1170.9515,756.88271 1183.096,751.50984 C 1194.2564,746.5724 1229.3643,738.12815 1241.3162,779.41516 C 1244.1366,791.5416 1237.9431,805.46255 1232.8833,814.90327 C 1227.7674,824.44854 1218.0636,829.5614 1210.3785,828.75868 C 1189.3106,828.86388 1188.1539,814.65074 1188.16,801.88139 C 1187.7839,788.78719 1181.6989,785.52093 1177.1625,788.43965 C 1172.5046,790.98851 1164.1264,790.03878 1157.902,788.03069 z "
       style="opacity:1;fill:none;fill-opacity:1;stroke:#000000;stroke-width:5.06586409;stroke-linecap:butt;stroke-linejoin:miter;stroke-miterlimit:0;stroke-dasharray:none;stroke-dashoffset:0;stroke-opacity:1"
       id="path3188" />
    <path
       d="M 1169.6505,789.40134 C 1170.4053,806.73031 1164.8382,830.79639 1200.3923,828.95449"
       style="opacity:1;fill:none;fill-opacity:1;stroke:#000000;stroke-width:5.06586409;stroke-linecap:butt;stroke-linejoin:miter;stroke-miterlimit:0;stroke-dasharray:none;stroke-dashoffset:0;stroke-opacity:1"
       id="path3190" />
    <path
       d="M 1061.3726,802.5198 C 1069.2138,789.01377 1074.9448,770.12402 1087.5758,764.53591 C 1099.1833,759.40068 1135.6976,750.61815 1148.1283,793.55912 C 1151.0617,806.17135 1144.6201,820.64998 1139.3576,830.46889 C 1134.0367,840.39655 1123.9443,845.71423 1115.9513,844.87935 C 1094.0394,844.98877 1092.8363,830.20625 1092.8427,816.92536 C 1092.4515,803.3066 1086.1228,799.90949 1081.4046,802.94514 C 1076.5601,805.5961 1067.8462,804.60833 1061.3726,802.5198 z "
       style="opacity:1;fill:none;fill-opacity:1;stroke:#000000;stroke-width:5.2688036;stroke-linecap:butt;stroke-linejoin:miter;stroke-miterlimit:0;stroke-dasharray:none;stroke-dashoffset:0;stroke-opacity:1"
       id="path3194" />
    <path
       d="M 1073.5917,803.94535 C 1074.3767,821.96852 1068.5866,846.9987 1105.565,845.083"
       style="opacity:1;fill:none;fill-opacity:1;stroke:#000000;stroke-width:5.2688036;stroke-linecap:butt;stroke-linejoin:miter;stroke-miterlimit:0;stroke-dasharray:none;stroke-dashoffset:0;stroke-opacity:1"
       id="path3196" />
    <path
       d="M 956.65943,822.40862 C 964.604,808.72462 970.4105,789.58595 983.20795,783.9242 C 994.9684,778.7213 1031.9638,769.82305 1044.5583,813.32987 C 1047.5305,826.10829 1041.0039,840.77771 1035.6721,850.72601 C 1030.2811,860.78449 1020.0556,866.17224 1011.9573,865.32637 C 989.75668,865.43722 988.53775,850.45991 988.54427,837.00401 C 988.14785,823.20579 981.73578,819.76392 976.95539,822.83956 C 972.0471,825.52546 963.21841,824.52467 956.65943,822.40862 z "
       style="opacity:1;fill:none;fill-opacity:1;stroke:#000000;stroke-width:5.33823252;stroke-linecap:butt;stroke-linejoin:miter;stroke-miterlimit:0;stroke-dasharray:none;stroke-dashoffset:0;stroke-opacity:1"
       id="path3200" />
    <path
       d="M 969.03954,823.85296 C 969.83493,842.11363 963.96854,867.47364 1001.4342,865.5327"
       style="opacity:1;fill:none;fill-opacity:1;stroke:#000000;stroke-width:5.33823252;stroke-linecap:butt;stroke-linejoin:miter;stroke-miterlimit:0;stroke-dasharray:none;stroke-dashoffset:0;stroke-opacity:1"
       id="path3202" />
  </g>
  <path
     d="M 489.0915,1041.097 C 482.64284,1054.5033 483.32848,1070.6157 494.77545,1081.8238"
     style="opacity:1;fill:none;fill-opacity:1;stroke:#231f20;stroke-width:4;stroke-linecap:butt;stroke-linejoin:miter;stroke-miterlimit:0;stroke-dasharray:none;stroke-dashoffset:0;stroke-opacity:1"
     id="path10062" />
  <path
     d="M 1073.344,1016.3192 L 1076.5759,1037.6855 L 1116.6152,1031.4013 C 1131.0653,1021.6846 1129.1637,1014.7872 1130.4406,1007.3418 L 1108.5356,1010.5736 C 1107.5037,1013.6187 1106.7729,1016.8144 1102.9696,1018.4738 L 1093.6331,1020.6284 L 1092.9148,1013.4464 L 1073.344,1016.3192 z "
     style="opacity:1;fill:#231f20;fill-opacity:1;stroke:none;stroke-width:4;stroke-linecap:butt;stroke-linejoin:miter;stroke-miterlimit:0;stroke-dasharray:none;stroke-dashoffset:0;stroke-opacity:1"
     id="path12002" />
  <path
     d="M 1185.7417,998.36431 L 1188.9735,1019.192 C 1153.4712,1033.5698 1141.7325,1016.3573 1134.5702,1006.444 L 1159.707,1002.6735 C 1165.3131,1007.0457 1175.3566,1007.3709 1185.7417,998.36431 z "
     style="opacity:1;fill:#231f20;fill-opacity:1;stroke:none;stroke-width:4;stroke-linecap:butt;stroke-linejoin:miter;stroke-miterlimit:0;stroke-dasharray:none;stroke-dashoffset:0;stroke-opacity:1"
     id="path12004" />
  <path
     d="M 1249.302,988.66867 C 1252.8434,1016.5512 1202.1285,1031.0083 1191.1282,997.82567 L 1213.5407,994.39669 C 1214.352,999.4446 1227.7709,997.85976 1227.454,992.14097 L 1249.302,988.66867 z "
     style="opacity:1;fill:#231f20;fill-opacity:1;stroke:none;stroke-width:4;stroke-linecap:butt;stroke-linejoin:miter;stroke-miterlimit:0;stroke-dasharray:none;stroke-dashoffset:0;stroke-opacity:1"
     id="path12008" />
  <path
     d="M 1316.3246,972.49268 L 1305.1521,1009.0572"
     style="opacity:1;fill:none;fill-opacity:1;stroke:#231f20;stroke-width:4;stroke-linecap:butt;stroke-linejoin:miter;stroke-miterlimit:0;stroke-dasharray:none;stroke-dashoffset:0;stroke-opacity:1"
     id="path13963" />
</svg>
