<?xml version="1.0" encoding="UTF-8"?>
<svg id="Calque_2" data-name="Calque 2" xmlns="http://www.w3.org/2000/svg" viewBox="0 0 4791.96 6262.69">
  <defs>
    <style>
      .cls-1 {
        fill: none;
      }

      .cls-1, .cls-2, .cls-3, .cls-4, .cls-5, .cls-6, .cls-7, .cls-8, .cls-9 {
        stroke-width: 0px;
      }

      .cls-2 {
        fill: #b23121;
      }

      .cls-3 {
        fill: #0a0909;
      }

      .cls-4 {
        fill: #e42219;
      }

      .cls-5 {
        fill: #0f0c0d;
      }

      .cls-6 {
        fill: #d38c09;
      }

      .cls-7 {
        fill: #1490cf;
      }

      .cls-8 {
        fill: #fff;
      }

      .cls-9 {
        fill: #fee003;
      }
    </style>
  </defs>
  <g id="Calque_1-2" data-name="Calque 1">
    <g>
      <path class="cls-8" d="M2396.22,6238.8c-611.53,0-1319.77-955.6-1398.51-1064.57C494.34,4490.61,176.2,3764.02,52.25,3014.82c-16.8-108.5-26.6-229.62-28.36-350.49v-64.54c2.09-302.65,62.5-762.28,338.42-1234.15,340.46-586.37,727.92-900.7,993-1061.13,90.53-56.74,162.55-90.22,197.17-106.32l2.48-1.15c2.86-1.41,5.83-2.78,8.45-3.98,2.36-1.1,4.4-2.02,6.05-2.88,31.46-16.26,62.87-24.49,93.4-24.49,57.97,0,102.57,30.26,124.97,58.58,78.01,88.83,153.3,136.28,216.96,136.28l3.94-.06c24.38-.89,48.31-9.3,71.24-25.02-10.83-32.18-23.68-74.99-32.32-119-13.29-65.79,8.17-109.33,28.52-134.25,47.82-58.32,124.08-58.32,152.79-58.32,37.8,0,78.14,18.25,120.04,54.31l43.15-7.44h8.14l42.99,7.44c41.89-36.04,82.24-54.3,120.04-54.3,28.13,0,102.87,0,150.49,56.62,20.55,24.32,42.69,67.3,31.22,133.66-8.6,44.74-22.16,88.4-33.74,121.32,18.2,12.21,42.82,23.67,71.75,24.52h4.39c63.62,0,138.52-47.06,216.64-136.1,11.39-14.65,51.65-58.66,123.99-58.66,30.48,0,62.19,8.11,94.24,24.11l14.13,6.74c38.06,18.04,115.07,54.54,216.63,117.11,259.8,159.7,640.17,471.89,976.79,1052.19,271.39,468.34,333.71,928.7,338.21,1232.44v64.55c-1.92,130.45-13.21,259.37-30.99,354.06-123.87,749.87-441.26,1476.09-943.26,2157.95-31.2,43.25-774.12,1063.18-1397.41,1063.92l-.19.47Z"/>
      <path class="cls-8" d="M2563.32,47.79c27.4,0,91.75,0,132.21,48.11,17.36,20.55,35.84,57.03,25.96,114.21-9.72,50.49-26.12,100.04-38.71,133.96,21.66,17.68,56.07,38.55,99.56,39.82h5.1c70.73,0,151.96-49.86,235.11-144.8,17.4-22.81,53.74-49.95,105.51-49.95,24.52,0,52.49,6.08,83.57,21.6,3.35,1.59,8.12,3.82,14.34,6.85,36.64,17.36,112.94,53.36,214.56,115.96,257.57,158.33,634.62,468,968.65,1043.84,268.88,464.02,330.53,919.91,334.99,1220.81v64.19c-1.91,129.19-13.06,256.3-30.58,349.65-123.29,746.28-439.33,1469.46-939.02,2148.2-30.9,42.85-773.52,1054.19-1378.83,1054.19l.48.48c-597.66,0-1301.09-946.67-1379.14-1054.67-501.29-680.81-817.96-1404.15-941.25-2149.32-11.47-74.07-25.81-193.54-28.04-346.94v-64.19c2.07-299.95,61.96-754.88,335.15-1222.08,337.86-581.89,722.07-893.79,984.74-1052.76,91.75-57.5,163.12-90.32,197.36-106.25,6.53-3.19,11.79-5.42,15.45-7.33,30.32-15.67,57.96-21.8,82.37-21.8,51.5,0,88.62,27.25,106.23,49.51,83.86,95.55,164.37,145.34,235.7,145.34,1.57,0,3.12-.02,4.68-.07,43.33-1.59,77.26-22.62,98.76-40.3-11.95-33.77-27.4-82.67-37.12-132.21-11.47-56.71,6.53-93.66,23.57-114.53,40.62-49.54,106.25-49.54,134.28-49.54,41.73,0,82.67,28.35,112.78,55.91l54.48-9.4,54.32,9.4c30.11-27.56,70.88-55.91,112.78-55.91M2563.32,0c-40.91,0-83.5,17.73-126.85,52.77l-32.1-5.56h-16.27s-32.27,5.56-32.27,5.56c-43.35-35.04-85.94-52.77-126.86-52.77-31.8,0-116.28,0-171.24,67.02-33.45,40.95-45.31,95.73-33.46,154.31,7.27,37.08,17.48,73.39,27.06,103.45-14.35,7.33-28.94,11.29-43.63,11.83-.78.02-1.85.04-2.92.04-56.4,0-125.23-44.35-199.08-128.28-13.75-17-60.97-66.58-142.85-66.58-34.39,0-69.48,9.13-104.31,27.13-1.52.79-3.23,1.55-5.21,2.47-2.63,1.21-5.57,2.57-8.8,4.14l-2.13.99c-35.05,16.29-107.99,50.2-200.1,107.93-266.83,161.48-657.66,478.46-1000.69,1069.26C63.1,1830.02,2.11,2294.07,0,2599.46v64.53c1.8,124.37,11.42,243.32,28.6,354.25,124.66,753.44,444.26,1483.49,950,2170.34,79.23,109.63,794.27,1074.12,1417.62,1074.12l.2-.48c264.87-.3,580.28-176.79,937.48-524.57,276.1-268.82,471.26-538.12,479.43-549.45,503.85-684.38,822.67-1413.91,947.33-2167.87,17.95-95.9,29.36-226.06,31.3-357.23v-64.9c-4.55-307.29-67.47-772-341.43-1244.77-339.13-584.62-722.82-899.44-984.97-1060.59-102.7-63.26-180.51-100.14-217.9-117.86l-1.22-.58c-4.37-2.13-8.36-4.02-11.52-5.51l-2.41-1.14c-35.24-17.51-70.37-26.39-104.44-26.39-82.1,0-128.53,49.69-142.38,67.3-72.25,82.2-142.62,127.44-198.25,127.44h-4.32c-15.97-.58-30.48-5.23-42.9-11.37,10.2-30.78,20.94-67.87,28.2-105.6l.16-.9c13.03-75.44-12.69-124.94-36.55-153.19C2677.32,0,2594.49,0,2563.32,0h0Z"/>
    </g>
    <g>
      <rect class="cls-1" x="47.59" y="47.82" width="4696.78" height="6167.06"/>
      <path id="Vector" class="cls-3" d="M4279.11,3830.71c-407.62,1042.84-1345.88,2171.14-1875.61,2171.14s-1451.82-1084.55-1856.7-2082.51c-309.41-762.37-310.1-1233.09-290.27-1351.8,10.48-61.97,38.51-147.87,70.86-241.51,43.29-125.77,102.99-241.52,102.99-241.52,38.51-69.95,79.06-144.68,128.73-219.19,336.52-512.87,630.21-438.14,630.21-438.14,69.95-49.67,142.41-81.34,214.63-94.78,289.13-56.51,571.43,162.68,601.05,454.1,0,0-40.56,54.22-4.56,85.9,33.95,29.39,49.67,4.55,49.67,4.55l94.78-97.06c171.57,0,248.58,210.07,248.58,210.07,0,0,81.34-210.07,250.63-210.07l97.29,97.06s13.44,24.84,49.67-4.55c36-31.67-4.56-85.9-4.56-85.9,29.39-295.97,320.81-517.44,616.77-451.81,67.9,15.72,133.29,45.11,198.68,92.5,0,0,291.41-74.5,630.22,438.14,47.39,74.51,172.02,296.2,217.36,402.6,36.23,85.44,64.02,141.49,88.17,299.62,20.05,131.01-28.93,674.65-258.83,1262.94M1404.17,613.78c58.78-83.62,131.01-171.56,223.74-259.74l11.17,18s-117.34,117.57-234.91,293.69c-119.62,178.4-239.47,415.59-234.91,653,0,0-38.28-316.25,234.91-704.72M3177.49,354.27c92.5,88.18,167.24,176.12,225.79,259.74,271.13,388.47,232.63,704.72,232.63,704.72,4.55-237.19-113.01-474.37-232.63-653-117.56-176.13-234.91-293.69-234.91-293.69l9.12-18v.23ZM4347.69,1413.74c-334.48-575.99-709.51-874.24-944.41-1018.92-117.56-72.23-200.96-108.45-223.74-119.85-72.23-36.23-101.62,9.11-101.62,9.11-291.41,334.25-478.93,76.78-478.93,76.78,0,0,36-81.34,51.95-162.68,13.44-79.06-56.51-79.06-88.18-79.06-33.94,0-87.95,61.06-87.95,61.06l-79.06-13.67-79.06,13.67s-54.22-61.06-88.17-61.06c-31.67,0-103.9,0-87.95,79.06,15.72,81.34,49.67,162.68,49.67,162.68,0,0-185.24,257.46-476.65-76.78,0,0-31.67-45.11-101.62-9.11-22.56,11.39-99.34,42.83-207.79,110.73-234.91,142.4-619.05,440.42-960.14,1027.8-257.46,440.43-322.86,874.24-325.13,1185.93v63.34c2.28,146.96,15.95,264.3,27.11,336.53,51.95,313.97,216.91,1152.21,928.47,2118.95,113.01,155.83,777.4,1025.28,1321.5,1025.28s1190.03-844.37,1321.49-1025.28c711.56-966.97,874.24-1804.98,926.19-2118.95,13.44-72.23,27.11-189.8,29.39-336.53v-63.34c-4.56-313.97-69.95-745.51-325.13-1185.93"/>
      <path id="Vector_3" data-name="Vector 3" class="cls-3" d="M4288.22,3830.71c-407.61,1042.84-1345.87,2171.14-1875.61,2171.14s-1451.82-1084.55-1856.7-2082.51c-309.41-762.37-310.1-1233.09-290.27-1351.8,10.48-61.97,38.51-147.87,70.86-241.51,43.29-125.77,103.21-241.52,103.21-241.52,38.51-70.18,79.06-144.68,128.73-219.19,336.53-512.87,630.22-438.37,630.22-438.37,69.94-49.67,142.4-81.34,214.63-94.78,289.13-56.51,571.43,162.68,600.82,454.09,0,0-40.55,54.23-4.55,85.9,33.95,29.4,49.67,4.56,49.67,4.56l94.78-97.06c171.57,0,248.58,210.07,248.58,210.07,0,0,81.34-210.07,250.86-210.07l97.06,97.06s13.44,24.84,49.67-4.56c36-31.67-4.55-85.9-4.55-85.9,29.39-295.97,320.8-517.43,616.77-451.81,67.89,15.72,133.29,45.11,198.91,92.51,0,0,291.41-74.5,630.22,438.37,47.39,74.51,172.02,295.97,217.36,402.6,36.23,85.44,64.02,141.49,88.17,299.62,20.05,131.01-28.93,674.65-258.83,1262.94M1413.29,613.78c58.78-83.62,131.01-171.56,223.74-259.74l11.16,18s-117.56,117.57-234.9,293.69c-119.85,178.4-239.47,415.59-234.91,653,0,0-38.28-316.25,234.91-704.72M3186.6,354.27c92.74,88.18,167.24,176.12,225.8,259.74,271.13,388.47,232.63,704.72,232.63,704.72,4.56-237.19-113.01-474.37-232.63-653-117.57-176.13-234.91-293.69-234.91-293.69l9.11-18v.23ZM4356.81,1413.74c-334.25-575.99-709.51-874.24-944.41-1018.92-117.57-72.23-200.96-108.45-223.51-119.85-72.23-36.23-101.62,9.11-101.62,9.11-291.41,334.25-478.93,76.78-478.93,76.78,0,0,36-81.34,51.95-162.68,13.67-79.06-56.51-79.06-87.95-79.06-33.95,0-88.18,61.06-88.18,61.06l-79.06-13.67-79.06,13.67s-54.22-61.06-88.17-61.06c-31.67,0-103.9,0-87.95,79.06,15.72,81.34,49.67,162.68,49.67,162.68,0,0-185.24,257.46-476.65-76.78,0,0-31.67-45.11-101.62-9.11-22.56,11.39-99.34,43.06-207.79,110.73-234.91,142.4-619.05,440.65-960.14,1027.8-257.69,440.43-323.31,874.24-325.36,1185.93v63.11c2.28,146.96,15.72,264.3,27.11,336.52,51.95,313.97,216.68,1152.21,928.47,2118.96,113.01,155.85,777.4,1025.3,1321.49,1025.3s1190.03-844.37,1321.5-1025.3c711.56-966.97,874.24-1804.99,926.18-2118.96,13.44-72.22,27.11-189.79,29.4-336.52v-63.11c-4.56-313.97-69.95-745.51-325.14-1186.16"/>
      <path id="Vector_4" data-name="Vector 4" class="cls-7" d="M4544.33,2550H269.05s22.1-86.58,67.44-226.02c38.96-119.16,98.66-226.25,98.66-226.25h3937.61s40.78,70.63,86.12,170.2c72,158.35,85.44,282.07,85.44,282.07Z"/>
      <path id="Vector_5" data-name="Vector 5" class="cls-8" d="M4372.3,2097.73H441.53s126.91-264.3,299.62-437.23c278.88-278.88,459.56-220.33,459.56-220.33,0,0,159.72-147.64,386.65-97.06,408.3,91.36,429.03,456.15,429.03,456.15,0,0-43.98,63.79,5.01,95.23,7.98,5.24,26.2,9.57,40.33-4.78,46.25-47.39,94.78-97.29,94.78-97.29,176.35,4.79,248.58,210.08,248.58,210.08,0,0,81.34-195.49,218.96-207.57l31.67-2.51,105.72,103.67s20.05,15.49,41.01-11.17c33.04-41.69-4.55-85.9-4.55-85.9,0,0,.68-305.08,344.5-434.04,267.49-100.25,470.96,74.96,470.96,74.96,0,0,148.78-53.09,386.19,151.06,218.96,188.2,372.98,506.27,372.98,506.27"/>
      <path id="Vector_6" data-name="Vector 6" class="cls-9" d="M2412.84,6001.86c483.94,2.52,1209.63-845.09,1646.18-1675.58,493.51-969.48,518.8-1651.87,485.53-1776.5H269.05c-72.23,372.52,196.86,1372.53,664.85,2113.48,441.33,688.07,995.45,1320.61,1478.71,1338.6"/>
      <path id="Vector_7" data-name="Vector 7" class="cls-5" d="M2414.89,6002.32h-2.05c-223.74-8.22-477.79-149.04-755.31-418.13-121.21-117.53-247.21-259.94-374.35-423.78-115.75-149.01-233.32-316.25-349.29-496.93-112.33-177.49-217.14-376.17-311.46-590.57-87.49-198.22-162.68-401.69-223.52-604.47-57.42-191.39-99.8-376.63-122.12-535.43-22.56-159.49-25.29-292.1-7.52-383.24l4275.95-.23c16.63,62.43,18.45,265.89-45.11,571.89-35.55,171.12-86.58,351.56-151.52,536.12-77.24,219.41-174.53,444.53-288.68,668.95-109.83,208.93-235.37,414.9-373.44,612.45-140.58,201.42-285.94,382.32-431.99,537.73-154.02,163.79-302.35,292.32-440.88,381.38-148.33,95.69-282.3,144-398.04,144l-.68.26ZM2412.84,6001.6h2.05c115.75,0,249.49-48.31,397.59-144,138.53-89.32,286.86-217.59,440.88-381.38,146.05-155.41,291.41-336.31,431.99-537.5,137.84-197.54,263.62-403.51,373.44-612.45,114.38-224.43,211.44-449.54,288.68-668.95,64.93-184.55,115.97-365.01,151.51-535.89,63.34-305.31,61.75-508.55,45.11-570.98H269.28c-35.77,184.79,12.99,527.92,129.87,917.99,60.83,202.78,136.02,406.24,223.51,604.47,94.56,214.17,199.37,412.85,311.46,590.35,115.98,180.68,233.54,347.92,349.29,496.93,127.14,163.6,253.14,306.21,374.35,423.54,277.29,268.88,531.33,409.44,754.85,417.87h.23Z"/>
      <path id="Vector_8" data-name="Vector 8" class="cls-4" d="M2152.19,5936.9s-90.68-25.95-294.6-177.92c-100.02-74.78-185.01-159.06-185.01-159.06v-3049.92h479.61v3386.9Z"/>
      <path id="Vector_9" data-name="Vector 9" class="cls-4" d="M2641.14,5946.05s90.68-26,294.6-178.18c100.25-74.52,185.01-159.06,185.01-159.06v-3058.81h-479.61v3396.05Z"/>
      <path id="Vector_10" data-name="Vector 10" class="cls-2" d="M3088.62,3689.68c0,382.1-305.99,691.96-683.76,691.96s-683.53-309.86-683.53-691.96,305.99-691.74,683.53-691.74,683.76,309.87,683.76,691.74Z"/>
      <path id="Vector_19" data-name="Vector 19" class="cls-4" d="M1213.24,5068.37s-157.67-215.08-279.34-405.1c-112.1-169.29-193.67-341.77-193.67-341.77v-1771.71h473v2518.59Z"/>
      <path id="Vector_20" data-name="Vector 20" class="cls-4" d="M3587.61,5075.2s159.72-220.78,279.34-411.71c112.1-169.52,193.67-341.77,193.67-341.77v-1771.72h-473v2525.2Z"/>
      <path id="Vector_21" data-name="Vector 21" class="cls-8" d="M786.72,2165.4h71.54l-112.55,323.08h-65.17l-111.42-323.08h73.59l71.54,245.39,72.46-245.39Z"/>
      <path id="Vector_22" data-name="Vector 22" class="cls-8" d="M1002.26,2366.36h84.53l-41.69-127.14-42.84,127.14ZM1006.81,2165.17h77.92l116.89,323.31h-74.73l-21.87-66.53h-121.67l-22.33,66.53h-72.23l117.8-323.31h.23Z"/>
      <path id="Vector_23" data-name="Vector 23" class="cls-8" d="M1290.48,2165.4h68.81v264.98h164.96v58.1h-233.77v-323.08Z"/>
      <path id="Vector_24" data-name="Vector 24" class="cls-8" d="M1861.46,2222.59h-174.76v68.58h160.41v56.27h-160.41v82.94h182.73v58.1h-250.17v-323.08h242.2v57.19Z"/>
      <path id="Vector_25" data-name="Vector 25" class="cls-8" d="M1968.77,2165.4h72.45l131.01,225.34v-225.34h64.25v323.08h-69.04l-134.43-229.21v229.21h-64.25v-323.08Z"/>
      <path id="Vector_26" data-name="Vector 26" class="cls-8" d="M2379.58,2199.12c26.66-26.66,60.38-39.88,101.39-39.88,54.91,0,95.01,17.77,120.53,53.55,14.12,20.05,21.64,40.1,22.56,60.38h-69.04c-4.33-15.49-10.02-27.11-16.86-35.09-12.3-13.9-30.53-20.96-54.69-20.96s-43.97,9.8-58.1,29.62c-14.13,19.82-21.19,47.85-21.19,84.07s7.52,63.34,22.56,81.57c15.04,18,33.95,27.11,57.19,27.11s41.69-7.75,54-23.24c6.84-8.43,12.53-20.73,17.09-37.59h68.58c-5.93,35.32-20.96,63.8-45.34,85.9-24.38,22.1-55.37,33.04-93.42,33.04-46.93,0-83.85-14.81-110.73-44.66-26.89-30.07-40.33-71.09-40.33-123.26,0-56.51,15.26-100.02,45.8-130.55Z"/>
      <path id="Vector_27" data-name="Vector 27" class="cls-8" d="M2789.01,2165.4h-68.58v323.08h68.58v-323.08Z"/>
      <path id="Vector_28" data-name="Vector 28" class="cls-8" d="M2989.97,2366.36h84.53l-41.69-127.14-42.84,127.14ZM2994.52,2165.17h78.15l116.66,323.31h-74.73l-21.87-66.53h-121.44l-22.33,66.53h-72.23l117.8-323.31Z"/>
      <path id="Vector_29" data-name="Vector 29" class="cls-8" d="M3467.08,2199.12c26.66-26.66,60.38-39.88,101.39-39.88,54.91,0,95.01,17.77,120.53,53.55,14.13,20.05,21.65,40.1,22.56,60.38h-69.04c-4.33-15.49-10.03-27.11-16.86-35.09-12.3-13.9-30.53-20.96-54.68-20.96s-43.98,9.8-58.1,29.62c-14.12,19.82-21.19,47.85-21.19,84.07s7.52,63.34,22.56,81.57c15.04,18,33.95,27.11,56.96,27.11s41.69-7.75,54.23-23.24c6.84-8.43,12.53-20.73,17.09-37.59h68.58c-5.92,35.32-20.96,63.8-45.34,85.9-24.38,22.1-55.37,33.04-93.42,33.04-46.94,0-83.85-14.81-110.73-44.66-26.88-30.07-40.33-71.09-40.33-123.26,0-56.51,15.26-100.02,45.8-130.55Z"/>
      <path id="Vector_30" data-name="Vector 30" class="cls-8" d="M3875.14,2422.87h-67.9v65.62h67.9v-65.62Z"/>
      <path id="Vector_31" data-name="Vector 31" class="cls-8" d="M3987.7,2165.86h235.37v56.73h-166.78v74.28h146.28v56.27h-146.28v135.34h-68.58v-322.62Z"/>
      <path id="Vector_32" data-name="Vector 32" class="cls-8" d="M4325.37,2422.87h-67.9v65.62h67.9v-65.62Z"/>
      <g>
        <path id="Vector_11" data-name="Vector 11" class="cls-6" d="M2541.8,4293.01c64.93-28.02,308.96-139.21,311.01-529.05,1.82-159.72-38.73-396.45-187.52-496.47-100.93-14.13-168.6,31.22-194.12,116.43,41.47,26.43,176.35,134.43,98.21,378.22,2.73,4.56,5.69,9.57,7.97,13.9,67.44,130.1,53.77,288.91-82.48,369.34-20.51,12.07-42.6,22.1-65.39,29.16,22.1,57.65,62.66,95.24,112.33,118.25"/>
        <path id="Vector_12" data-name="Vector 12" class="cls-6" d="M1885.38,4070.41c66.76,91.37,156.76,164.51,261.57,210.53-25.52-37.14-48.3-80.88-56.05-119.85-55.14-60.61-122.12-104.8-205.74-90.68"/>
        <path id="Vector_13" data-name="Vector 13" class="cls-6" d="M1762.8,3711.32c3.65,121.9,41.47,235.14,103.9,330.83,92.73-21.42,179.09,21.19,241.74,90.46,33.95-27.34,134.2-83.39,303.72,14.58,172.7-48.07,211.21-213.71,137.16-356.57l-4.1-7.75c-66.53,20.28-394.17,104.36-782.42-71.54Z"/>
        <path id="Vector_14" data-name="Vector 14" class="cls-6" d="M1864.42,3342.44c-61.97,96.61-98.88,210.99-101.85,334.25,211.9,98.88,406.25,117.8,548.2,111.64,108.68-4.78,193.21-26.43,228.98-37.14,38.73-123.49,30.31-269.08-87.26-341.76-84.76,38.73-184.78,52.17-263.84-4.1-118.94,56.73-236.96,41.69-319.9-57.19l-4.55-5.7h.23Z"/>
        <path id="Vector_15" data-name="Vector 15" class="cls-6" d="M2381.85,3047.16c-205.52,7.29-386.42,111.19-498.98,267.94,2.73,3.65,6.15,7.98,10.02,12.76,76.56,91.14,175.67,96.61,280.7,49.44-2.96-41.93,5.47-178.86,208.25-330.15Z"/>
        <path id="Vector_16" data-name="Vector 16" class="cls-6" d="M2779.22,3167.92c-97.75-70.63-215.77-114.38-343.59-120.53-98.88,67.44-224.42,181.14-230.81,310.1-.45,9.11,0,16.18.46,20.51,3.64,2.73,7.74,5.69,11.16,7.74,69.04,41.02,153.11,28.48,222.84-5.24,28.48-99.11,109.82-161.77,219.87-148.1l8.43-8.2c31.44-28.71,69.94-49.9,111.41-56.27"/>
        <path id="Vector_17" data-name="Vector 17" class="cls-6" d="M2585.55,4308.96c265.67-78.15,460.47-324.68,460.47-617,0-198.91-89.09-375.94-228.53-494.19-47.61-4.33-92.73,17.09-127.36,48.98,51.26,37.6,197.99,174.99,194.12,517.66-2.05,363.18-206.43,497.84-300.53,544.09l1.82.46Z"/>
        <path id="Vector_18" data-name="Vector 18" class="cls-6" d="M2405.32,4334.71c42.84,0,84.76-4.1,125.08-12.3-57.87-26.2-105.04-70.18-128.73-131.69-2.5-6.61-4.33-12.3-5.47-16.4-89.08-50.35-194.35-79.75-272.27-12.3,2.28,8.43,5.92,19.82,11.62,33.27,11.85,28.48,32.35,66.76,67.44,107.09,63.57,20.96,131.69,32.35,202.33,32.35Z"/>
      </g>
    </g>
  </g>
</svg>