<?xml version="1.0" encoding="UTF-8" standalone="no"?>
<!-- Generator: Adobe Illustrator 26.3.1, SVG Export Plug-In . SVG Version: 6.00 Build 0)  -->

<svg
   version="1.1"
   id="Layer_1"
   x="0px"
   y="0px"
   viewBox="0 0 415.47703 699.99998"
   xml:space="preserve"
   sodipodi:docname="Logo Real Valladolid CF - 2022.svg"
   width="415.47702"
   height="700"
   inkscape:version="1.2 (dc2aeda, 2022-05-15)"
   xmlns:inkscape="http://www.inkscape.org/namespaces/inkscape"
   xmlns:sodipodi="http://sodipodi.sourceforge.net/DTD/sodipodi-0.dtd"
   xmlns="http://www.w3.org/2000/svg"
   xmlns:svg="http://www.w3.org/2000/svg"><defs
   id="defs281" /><sodipodi:namedview
   id="namedview279"
   pagecolor="#ffffff"
   bordercolor="#666666"
   borderopacity="1.0"
   inkscape:showpageshadow="2"
   inkscape:pageopacity="0.0"
   inkscape:pagecheckerboard="0"
   inkscape:deskcolor="#d1d1d1"
   showgrid="false"
   inkscape:zoom="0.76988319"
   inkscape:cx="242.24454"
   inkscape:cy="226.00831"
   inkscape:window-width="1440"
   inkscape:window-height="900"
   inkscape:window-x="0"
   inkscape:window-y="0"
   inkscape:window-maximized="0"
   inkscape:current-layer="Layer_1" />
<style
   type="text/css"
   id="style132">
	.st0{fill:#63257E;}
	.st1{fill:#C8342C;}
	.st2{fill:none;}
	.st3{fill:#F4CF45;}
	.st4{fill:#FFFFFF;}
	.st5{fill:#5B2C7A;}
</style>
<path
   id="path242"
   style="fill:#63257e;fill-opacity:1;stroke-width:2.53701"
   d="m 201.86595,0 v 6.1142525 h -6.14022 V 17.885336 h 6.14022 v 4.338502 c -4.97253,1.775905 -8.90456,5.707935 -10.68047,10.680467 h -0.38152 c -19.53494,0 -36.76035,10.124447 -46.73077,25.371848 -28.56669,0.634252 -51.628584,24.076203 -51.628584,52.795107 0,3.88162 0.43058,7.68613 1.24242,11.41553 -2.257932,2.35942 -3.677338,5.50552 -3.677338,9.00659 0,7.23046 5.961218,13.09141 13.293162,13.09141 0.98943,0 1.95365,-0.12662 2.89234,-0.32958 2.91755,1.77591 6.31708,2.79046 9.84352,2.79046 h 0.12584 c 1.95349,1.14165 4.00833,2.23168 6.19016,3.27185 l 2.63865,13.34509 c -51.272879,4.61735 -93.31068,12.76082 -110.410094,22.22384 -6.2410334,3.37422 -11.4412304,7.10381 -12.2784424,20.80364 -11.974664,171.07026 24.9892454,277.52397 58.3001254,343.96814 37.547677,74.91776 91.662841,130.50343 144.838471,148.87135 2.02961,0.65962 2.66382,0.63327 4.92176,-0.12784 53.07415,-18.49476 107.03532,-73.97857 144.50689,-148.76948 33.31087,-66.4188 70.27478,-172.87191 58.30013,-343.94217 -0.83722,-13.69983 -6.06279,-17.45479 -12.27845,-20.80364 -17.09941,-9.46302 -59.13721,-17.60649 -110.41009,-22.22384 l 2.63865,-13.36906 c 2.18183,-1.04017 4.26063,-2.10623 6.21413,-3.24788 h 0.1538 c 3.19663,0 6.36748,-0.81323 9.2343,-2.43691 0.20296,-0.10145 0.3797,-0.2267 0.5573,-0.35355 0.93868,0.20296 1.87893,0.32958 2.86836,0.32958 7.33194,0 13.29315,-5.88632 13.29315,-13.09141 0,-3.4757 -1.39543,-6.64717 -3.65336,-9.00659 0.81184,-3.70403 1.24242,-7.53391 1.24242,-11.41553 0,-28.718904 -23.05989,-52.160855 -51.62658,-52.795107 C 261.4354,43.003382 244.20798,32.904305 224.67305,32.904305 h -0.37952 c -1.7759,-4.972532 -5.70933,-8.904562 -10.65649,-10.680467 v -4.338502 h 6.31799 V 6.1142525 h -6.31799 V 0 Z m -11.03602,48.051111 c 0.685,-10e-7 1.3704,0.02457 2.0554,0.04994 1.77591,2.816072 4.28771,5.075643 7.30674,6.521735 v 21.740451 c -18.13956,0.482032 -34.93547,2.613992 -49.52325,6.064317 2.99367,-19.45881 19.86509,-34.376441 40.16111,-34.376439 z m 33.86908,0 c 20.29603,0 37.1421,14.943595 40.16111,34.402407 -14.58775,-3.450323 -31.40904,-5.607657 -49.52323,-6.064315 v -21.76642 c 2.99364,-1.446092 5.53083,-3.705663 7.30674,-6.521735 0.68498,-0.02537 1.3704,-0.04994 2.05538,-0.04994 z m -87.78076,26.282695 c -1.06554,4.033834 -1.67547,8.245181 -1.82769,12.558087 -10.50319,3.602544 -19.25465,7.991644 -25.74936,12.989534 3.95771,-12.710378 14.46075,-22.553958 27.57705,-25.547621 z m 141.66649,0 c 13.11629,2.993662 23.61932,12.837243 27.57705,25.547621 -6.52009,-4.97252 -15.27355,-9.36162 -25.75137,-12.989534 -0.12686,-4.312906 -0.73478,-8.524253 -1.82568,-12.558087 z" /><g
   id="g2222"
   transform="matrix(1.0227041,0,0,1.0227041,-7.9741508,-7.9659059)"><g
     id="g2185"><path
       class="st1"
       d="M 203.54396,111.06032 V 87.394571 c -17.81132,0.496137 -34.50634,2.753561 -48.86951,6.325749 0,0.272876 -0.0248,0.520944 -0.0248,0.769013 0,6.176907 1.46361,12.204977 4.16755,17.662487 6.20172,0.0992 11.46077,4.56446 12.55228,10.69176 0.52094,2.85278 0.0496,5.63115 -1.14112,8.03742 0.76901,0.14884 1.53803,0.22326 2.35665,0.12403 1.95974,-0.24807 3.69622,-1.21553 4.91176,-2.77837 0.29768,-0.3721 0.57056,-0.79382 0.76901,-1.21553 -1.04189,-1.36438 -1.68686,-3.05125 -1.68686,-4.91176 0,-4.49004 3.64661,-8.13665 8.13665,-8.13665 4.49004,0 8.13665,3.64661 8.13665,8.13665 0,1.4388 -0.42172,2.80317 -1.0667,3.9691 1.33957,1.93493 3.597,3.20008 6.1521,3.20008 0.74421,0 1.46361,-0.17365 2.1582,-0.39691 -1.36438,-2.05897 -2.1582,-4.51485 -2.1582,-7.16918 0,-4.39081 2.20781,-8.28549 5.60635,-10.64214 z"
       id="path208"
       style="stroke-width:2.48069" /><path
       class="st1"
       d="m 276.10403,127.45765 c -0.44652,2.48069 -1.56283,4.66369 -3.15047,6.42498 0.52095,0.24807 1.0915,0.42171 1.68687,0.52094 2.30704,0.39691 4.56446,-0.42171 6.10249,-1.98455 -0.32249,-0.86824 -0.52095,-1.8109 -0.52095,-2.80317 0,-4.49004 3.64661,-8.13665 8.13665,-8.13665 4.49004,0 8.13665,3.64661 8.13665,8.13665 0,2.25742 -0.94266,4.31639 -2.43107,5.78 0.74421,2.05897 2.40627,3.74583 4.66369,4.366 0.62017,0.17365 1.24034,0.22327 1.86051,0.22327 -0.34729,-1.16593 -0.54575,-2.38146 -0.54575,-3.67142 0,-5.28386 3.27451,-9.84832 7.9382,-11.78326 0.59536,-2.65433 0.91785,-5.38309 0.91785,-8.16146 0,-1.04188 -0.0496,-2.05897 -0.12403,-3.05124 -0.0496,-0.0496 -0.0744,-0.0992 -0.12404,-0.14884 -0.66978,-0.66979 -1.36437,-1.33957 -2.13339,-2.00936 -0.0744,-0.0744 -0.17364,-0.14884 -0.27287,-0.22326 -0.69459,-0.59536 -1.41399,-1.16592 -2.1582,-1.73648 -0.24807,-0.17365 -0.49614,-0.3721 -0.76901,-0.54575 -0.64498,-0.47133 -1.28996,-0.91785 -1.98455,-1.36438 -0.29768,-0.19845 -0.57056,-0.3721 -0.86824,-0.57055 -0.74421,-0.47133 -1.48841,-0.91786 -2.28223,-1.36438 -0.24807,-0.14884 -0.49614,-0.29768 -0.76901,-0.44653 -2.1582,-1.21553 -4.51485,-2.38145 -7.02035,-3.52257 -0.0992,-0.0496 -0.19845,-0.0744 -0.27287,-0.12403 -1.14112,-0.52095 -2.33185,-1.01709 -3.54738,-1.488416 -0.24807,-0.09923 -0.52095,-0.198454 -0.76902,-0.297682 -1.0915,-0.421717 -2.23261,-0.843433 -3.37373,-1.26515 -0.14884,-0.04961 -0.29768,-0.09923 -0.47133,-0.173648 -0.52094,7.863776 -2.75356,15.529096 -6.47459,22.400596 0.81863,2.25742 1.0667,4.63888 0.62017,7.02034 z"
       id="path210"
       style="stroke-width:2.48069" /><path
       class="st1"
       d="m 263.08043,112.15182 c 2.70395,-5.45751 4.16755,-11.48558 4.16755,-17.662487 0,-0.272875 -0.0248,-0.520944 -0.0248,-0.769013 -14.36318,-3.547381 -31.083,-5.829612 -48.86952,-6.325749 v 23.640939 c 3.37373,2.35665 5.60635,6.25133 5.60635,10.69176 0,2.65433 -0.79382,5.11021 -2.1582,7.16918 0.6946,0.22326 1.41399,0.3721 2.1582,0.39691 0.0248,0 0.0744,0 0.0992,0 2.50549,0 4.73811,-1.26515 6.05287,-3.20009 -0.66978,-1.19073 -1.0915,-2.5303 -1.0915,-3.96909 0,-4.49005 3.64661,-8.13665 8.13665,-8.13665 4.49004,0 8.13665,3.6466 8.13665,8.13665 0,1.86051 -0.64498,3.54738 -1.68687,4.91175 0.22327,0.42172 0.47133,0.84344 0.76902,1.21554 1.21553,1.53803 2.95201,2.5303 4.91176,2.77837 0.79382,0.0992 1.58763,0.0248 2.33184,-0.12404 -1.21554,-2.48068 -1.63725,-5.25905 -1.14111,-8.03742 1.14111,-6.1521 6.40017,-10.61733 12.60188,-10.71656 z"
       id="path212"
       style="stroke-width:2.48069" /><path
       class="st1"
       d="m 136.11892,99.525126 c -0.24807,0.09923 -0.52095,0.198455 -0.76902,0.297682 -1.24034,0.496142 -2.48068,1.017082 -3.6466,1.538022 -0.0496,0.0248 -0.0992,0.0496 -0.17365,0.0744 -2.55511,1.14112 -4.93657,2.33185 -7.14438,3.597 -0.14884,0.0744 -0.27287,0.17365 -0.42172,0.24807 -0.94266,0.54575 -1.8357,1.06669 -2.70394,1.63725 -0.17365,0.0992 -0.32249,0.19846 -0.49614,0.32249 -0.86824,0.57056 -1.71167,1.14112 -2.5303,1.73648 -0.0744,0.0496 -0.17365,0.12403 -0.24807,0.17365 -1.8109,1.36438 -3.44815,2.75356 -4.83734,4.19236 -0.0744,1.01708 -0.12403,2.03416 -0.12403,3.07605 0,2.77837 0.32249,5.53193 0.91785,8.18626 4.66369,1.95974 7.9382,6.4994 7.9382,11.78326 0,1.26515 -0.19846,2.50549 -0.54575,3.67142 0.62017,0 1.24034,-0.0496 1.86051,-0.22327 2.25743,-0.64497 3.91949,-2.30703 4.66369,-4.366 -1.48841,-1.48841 -2.43107,-3.52258 -2.43107,-5.78 0,-4.49004 3.64661,-8.13665 8.13665,-8.13665 4.49004,0 8.13665,3.64661 8.13665,8.13665 0,0.99227 -0.19845,1.91013 -0.52094,2.80317 1.53802,1.56284 3.77064,2.35666 6.10248,1.98455 0.59537,-0.0992 1.14112,-0.29768 1.66206,-0.52094 -1.58764,-1.76129 -2.72875,-3.94429 -3.15047,-6.42498 -0.47133,-2.45588 -0.22326,-4.83734 0.64498,-7.04515 -3.72103,-6.8715 -5.95365,-14.51201 -6.47459,-22.400592 -0.14884,0.04961 -0.32249,0.124034 -0.47133,0.173648 -1.16592,0.421717 -2.28223,0.843433 -3.37373,1.26515 z"
       id="path214"
       style="stroke-width:2.48069" /><path
       class="st1"
       d="m 132.1002,151.34666 c 0.0992,0.0496 0.17365,0.0744 0.27288,0.12403 21.97888,-4.98618 49.29123,-8.50875 78.73698,-8.50875 29.42093,0 56.46041,3.52257 78.38968,8.50875 1.16592,-0.52094 2.33184,-1.04189 3.44815,-1.58764 -3.17528,-1.43879 -5.8048,-3.72103 -7.66532,-6.49939 -2.80317,1.68686 -6.07768,2.65433 -9.47622,2.65433 -1.01708,0 -2.03416,-0.0744 -3.07605,-0.24807 -4.56446,-0.76901 -8.58317,-3.17528 -11.43596,-6.79708 -3.15047,2.28223 -6.99554,3.6218 -11.06386,3.6218 -0.76902,0 -1.53803,-0.0496 -2.30704,-0.14884 -4.56446,-0.54575 -8.6576,-2.70395 -11.70884,-6.10249 -3.29931,2.77837 -7.51648,4.46524 -12.15536,4.46524 -0.0992,0 -0.17365,0 -0.27288,0 -4.86214,-0.0744 -9.37699,-1.95974 -12.84995,-5.33348 -3.47296,3.37374 -8.01262,5.25906 -12.84996,5.33348 -0.0992,0 -0.17364,0 -0.27287,0 -4.61408,0 -8.85605,-1.68687 -12.15536,-4.46524 -3.05125,3.37374 -7.14438,5.53193 -11.70884,6.10249 -0.76901,0.0992 -1.53803,0.14884 -2.30704,0.14884 -4.09313,0 -7.93819,-1.33957 -11.06386,-3.6218 -2.85279,3.6218 -6.8715,6.02807 -11.43596,6.79708 -1.04189,0.17365 -2.05897,0.24807 -3.07605,0.24807 -3.42335,0 -6.67305,-0.96747 -9.47622,-2.62953 -1.86052,2.77837 -4.49005,5.0606 -7.69013,6.52421 0.0496,0.0248 0.0992,0.0496 0.17365,0.0744 0.99227,0.44652 2.00935,0.89304 3.02643,1.33957 z"
       id="path216"
       style="stroke-width:2.48069" /></g><path
     class="st3"
     d="m 210.93641,163.87412 c 26.14643,0.22326 51.99518,1.48841 75.95861,3.49777 l 2.15819,-10.93983 c -17.93536,-4.11793 -44.8508,-8.53356 -77.94315,-8.53356 -26.64257,0 -54.2278,3.02644 -78.29046,8.53356 l 2.1582,10.93983 c 23.96343,-2.03416 49.81218,-3.27451 75.95861,-3.49777 z"
     id="path240"
     style="stroke-width:2.48069" /><path
     class="st3"
     d="m 316.88651,129.49181 c 1.24034,-4.21716 1.86052,-8.58317 1.86052,-13.09802 0,-25.74952 -20.9618,-46.711318 -46.71132,-46.711318 h -1.58764 C 261.86489,54.872776 245.83966,44.900418 227.5322,44.900418 c -1.73648,0 -3.44815,0.09923 -5.15983,0.272876 -0.27287,-5.631158 -4.56446,-10.170813 -10.09639,-10.815792 V 20.936991 h 6.59862 v -2.654335 h -6.59862 v -5.928839 h -2.62953 v 5.928839 h -6.59862 v 2.629528 h 6.59862 v 13.420511 c -5.50712,0.644979 -9.82351,5.184634 -10.09639,10.815792 -1.71167,-0.173648 -3.42335,-0.272876 -5.15983,-0.272876 -18.30746,0 -34.33269,9.972358 -42.91587,24.782054 h -1.58764 c -25.77432,0.02481 -46.73612,20.986605 -46.73612,46.736125 0,4.49004 0.62017,8.85605 1.86051,13.07322 -2.50549,1.33957 -4.24197,3.89467 -4.24197,6.8715 0,4.3412 3.6218,7.86377 8.06223,7.86377 1.14112,0 2.23262,-0.24807 3.22489,-0.66978 2.5303,2.20781 5.80481,3.47296 9.22815,3.47296 1.24035,0 2.5055,-0.17365 3.77065,-0.52095 5.18463,-1.4636 8.85605,-5.68077 9.89793,-10.61733 2.60472,3.44815 6.69786,5.58154 11.13828,5.58154 0.76902,0 1.53803,-0.0744 2.30704,-0.19845 3.67142,-0.62018 6.89631,-2.62953 9.05451,-5.68078 0.54575,-0.76901 1.01708,-1.58763 1.38918,-2.43107 0.3721,-0.0248 0.74421,-0.0248 1.14112,-0.0992 0.24807,-0.0496 0.44652,-0.12403 0.69459,-0.19845 2.65433,3.17528 6.64824,5.15983 10.98944,5.15983 0.57056,0 1.16592,-0.0248 1.76129,-0.0992 3.79544,-0.47133 7.19398,-2.38146 9.57544,-5.4079 0.94266,-1.19073 1.66206,-2.50549 2.1582,-3.89467 2.43107,4.53965 7.19399,7.64051 12.67631,7.64051 0.0744,0 0.14884,0 0.19845,0 3.84506,-0.0496 7.41725,-1.58764 10.09639,-4.3412 0.66979,-0.69459 1.26515,-1.4388 1.76129,-2.23262 0.3473,0.0496 0.69459,0.0992 1.04189,0.0992 0.34729,0 0.69459,-0.0496 1.04189,-0.0992 0.52094,0.79382 1.0915,1.53803 1.76128,2.23262 2.67915,2.75356 6.25133,4.29159 10.0964,4.3412 0.0744,0 0.14884,0 0.19845,0 5.48232,0 10.24523,-3.10086 12.67631,-7.64051 0.52094,1.38918 1.24034,2.70394 2.15819,3.89467 2.35666,3.02644 5.7552,4.93657 9.57545,5.4079 0.59537,0.0744 1.16592,0.0992 1.76129,0.0992 4.3412,0 8.3103,-1.98455 10.98944,-5.15983 0.22326,0.0744 0.44652,0.14884 0.66978,0.19845 0.37211,0.0744 0.76902,0.0992 1.14112,0.0992 0.3721,0.84344 0.84343,1.66206 1.38918,2.43107 2.1582,3.05125 5.38309,5.0606 9.05451,5.68078 0.76901,0.12403 1.56283,0.19845 2.30704,0.19845 4.44042,0 8.55836,-2.1582 11.13828,-5.58154 1.04188,4.93656 4.7133,9.15373 9.89793,10.61733 1.26515,0.3473 2.5303,0.52095 3.79545,0.52095 2.35666,0 4.71331,-0.59537 6.82189,-1.7861 0.86824,-0.47133 1.63725,-1.04188 2.38146,-1.68686 0.99227,0.42171 2.05897,0.64498 3.20008,0.64498 4.46524,0 8.06223,-3.52258 8.06223,-7.86378 0.0496,-2.92721 -1.66206,-5.48232 -4.16755,-6.82189 z m -161.41824,4.71331 c -1.7861,2.50549 -4.44043,4.16755 -7.46687,4.66369 -5.30867,0.89304 -10.39407,-2.03417 -12.45304,-6.77228 0.7194,-0.59536 1.19073,-1.4636 1.19073,-2.48068 0,-1.76129 -1.4388,-3.20009 -3.20009,-3.20009 -1.76128,0 -3.20008,1.4388 -3.20008,3.20009 0,1.51322 1.04189,2.75356 2.43107,3.10086 0.14884,5.15982 -3.20008,9.94755 -8.38472,11.41115 -3.6218,1.01708 -7.34283,0.14884 -10.1212,-1.98455 1.61245,-1.4388 2.65434,-3.49776 2.65434,-5.8048 0,-3.99391 -3.07605,-7.26841 -7.02035,-7.76455 -1.19072,-3.91948 -1.8109,-7.98781 -1.8109,-12.20498 0,-22.72308 18.25785,-41.278612 40.8569,-41.774749 -2.67914,6.077681 -4.16755,12.80034 -4.16755,19.870295 0,9.178534 2.55511,18.133814 7.29322,25.873554 -1.26515,1.71168 -1.86052,3.91949 -1.46361,6.20172 0.57056,3.10085 2.82799,5.4327 5.65597,6.27613 -0.22326,0.52095 -0.49614,0.96747 -0.79382,1.38919 z m 53.01226,-20.11837 c -3.2497,1.04189 -5.60635,4.06833 -5.60635,7.64052 0,3.17527 1.86051,5.90403 4.51485,7.21879 -0.32249,0.44653 -0.66979,0.86824 -1.04189,1.24035 -2.20781,2.28223 -5.18463,3.54738 -8.35991,3.59699 -5.55674,0.0992 -10.34446,-3.74584 -11.65923,-8.95528 0.94266,-0.54575 1.58764,-1.58764 1.58764,-2.75356 0,-1.76128 -1.4388,-3.20008 -3.20008,-3.20008 -1.76129,0 -3.20009,1.4388 -3.20009,3.20008 0,1.33957 0.81863,2.48069 1.98455,2.95202 -0.24807,2.1582 -1.06669,4.19236 -2.43107,5.95365 -1.95974,2.50549 -4.76292,4.09313 -7.91339,4.46523 -3.89468,0.47133 -7.56609,-0.99227 -10.07159,-3.64661 2.57992,-1.73648 4.04352,-4.88695 3.44816,-8.13665 -0.69459,-3.89468 -4.09313,-6.64824 -7.9382,-6.64824 -0.47133,0 -0.96747,0.0496 -1.4388,0.12404 -0.34729,0.0744 -0.69459,0.19845 -1.04188,0.29768 -4.14275,-6.89631 -6.40017,-14.85931 -6.40017,-22.995961 0,-24.633213 20.04394,-44.677156 44.67715,-44.677156 2.05897,0 4.09313,0.148841 6.10249,0.421717 1.4388,3.299312 4.36601,5.804805 7.98781,6.598625 z m 54.82316,3.00163 c -3.82025,0 -7.2436,2.72876 -7.93819,6.64824 -0.59537,3.2497 0.86824,6.40017 3.47296,8.13665 -2.5055,2.65434 -6.17691,4.11794 -10.07159,3.64661 -3.15047,-0.39691 -5.95364,-1.98455 -7.91339,-4.46523 -1.36437,-1.76129 -2.15819,-3.79545 -2.40626,-5.95365 1.14111,-0.49614 1.95974,-1.63725 1.95974,-2.95202 0,-1.76128 -1.4388,-3.20008 -3.20009,-3.20008 -1.76128,0 -3.20008,1.4388 -3.20008,3.20008 0,1.19073 0.64498,2.20781 1.58764,2.75356 -1.31477,5.20945 -6.05288,9.05451 -11.65923,8.95528 -3.17527,-0.0496 -6.1521,-1.31476 -8.35991,-3.59699 -0.3721,-0.39691 -0.7194,-0.81863 -1.04189,-1.24035 2.67914,-1.31476 4.51485,-4.04351 4.51485,-7.21879 0,-3.597 -2.35665,-6.59863 -5.60635,-7.64052 V 56.857325 c 3.597,-0.793819 6.57382,-3.299312 8.01262,-6.598625 2.00935,-0.272875 4.01871,-0.421717 6.07768,-0.421717 24.63321,0 44.67716,20.043944 44.67716,44.677157 0,8.16146 -2.25743,16.09965 -6.40017,22.99596 -0.3473,-0.0992 -0.66979,-0.22326 -1.04189,-0.29768 -0.52095,-0.0992 -0.99228,-0.12404 -1.46361,-0.12404 z m 48.69587,11.51039 c -3.9691,0.49613 -7.04515,3.77064 -7.04515,7.76454 0,2.30704 1.04189,4.36601 2.67914,5.80481 -0.44652,0.3473 -0.89304,0.64498 -1.38918,0.94266 -2.67914,1.51322 -5.78,1.88532 -8.73202,1.04189 -5.18463,-1.46361 -8.53356,-6.25133 -8.38472,-11.41116 1.38919,-0.34729 2.43108,-1.58764 2.43108,-3.10086 0,-1.76128 -1.4388,-3.20008 -3.20009,-3.20008 -1.76129,0 -3.20008,1.4388 -3.20008,3.20008 0,0.99228 0.47133,1.88533 1.19073,2.48069 -2.05897,4.73811 -7.11957,7.66532 -12.42824,6.77227 -3.02644,-0.49613 -5.68077,-2.15819 -7.46687,-4.66369 -0.29768,-0.42171 -0.57055,-0.86824 -0.81862,-1.33957 2.82798,-0.84343 5.0854,-3.17527 5.65596,-6.27613 0.39691,-2.25743 -0.17365,-4.46524 -1.4388,-6.20172 4.73811,-7.73974 7.29322,-16.69501 7.29322,-25.89836 0,-7.069955 -1.48841,-13.792615 -4.16755,-19.870296 22.62385,0.496138 40.8569,19.026863 40.8569,41.774756 -0.0248,4.16755 -0.64498,8.26068 -1.83571,12.18017 z"
     id="path266"
     style="fill:#f4cf45;fill-opacity:1;stroke-width:2.48069" /></g>
<g
   id="g2284"
   transform="matrix(1.0227041,0,0,1.0227041,-7.9741508,-7.9659059)"><g
     id="g2263"><path
       class="st1"
       d="M 397.06229,194.60982 C 372.62753,181.09008 292.6254,170.34871 210.93641,169.62931 c -81.68899,0.7194 -161.69112,11.46077 -186.076265,24.95571 -4.713303,2.5303 -8.359912,4.51485 -9.054504,15.65313 -7.6653202,109.64632 4.167553,204.18527 36.093983,287.31306 L 402.79267,198.8766 c -1.56283,-2.00935 -3.52257,-3.07605 -5.73038,-4.26678 z"
       id="path226"
       style="stroke-width:2.48069" /><g
       id="g2086"><path
         class="st3"
         d="m 13.945127,297.80636 c 0.595364,19.34936 1.910128,38.20257 3.944291,56.55965 54.029342,-1.0667 121.702462,-6.8467 201.233252,-22.4006 -81.83783,-1.8109 -150.701677,-16.39733 -205.177543,-34.15905 z"
         id="path228"
         style="stroke-width:2.48069" /><path
         class="st3"
         d="m 343.40505,226.08973 c -97.66462,-11.88249 -174.31782,-32.02566 -229.56269,-50.90368 -41.477076,4.56446 -74.71827,11.48558 -88.982215,19.37416 -4.713303,2.5303 -8.359912,4.51485 -9.054504,15.65313 0,0.0744 0,0.14884 -0.02481,0.22326 44.478702,10.86541 157.870869,31.65356 327.624219,15.65313 z"
         id="path230"
         style="stroke-width:2.48069" /><path
         class="st3"
         d="m 153.33488,387.73124 c -50.38274,-4.53966 -95.233541,-13.69339 -134.477995,-25.15416 1.860515,15.15699 4.241973,29.96669 7.094762,44.4787 37.979304,-2.05897 80.523073,-7.86377 127.383233,-19.32454 z"
         id="path232"
         style="stroke-width:2.48069" /><path
         class="st3"
         d="m 27.564093,414.89475 c 2.455879,11.60961 5.259055,23.02076 8.359912,34.23347 18.629953,-2.28224 38.25218,-6.00326 58.916295,-11.46077 -20.664115,-2.70395 -43.610461,-11.03906 -67.276207,-22.7727 z"
         id="path234"
         style="stroke-width:2.48069" /><path
         class="st3"
         d="m 15.235083,219.21823 c -1.463604,23.98823 -1.959742,47.25707 -1.513218,69.80651 59.6605,6.02806 149.138845,8.53356 263.895385,-6.97073 C 159.53659,272.50337 71.745112,243.97548 15.235083,219.21823 Z"
         id="path236"
         style="stroke-width:2.48069" /></g><g
       id="g2119"><path
         class="st4"
         d="m 178.11693,670.40541 c -20.93699,-13.32128 -41.42746,-32.1993 -60.30548,-55.41852 v -173.5488 l 60.30548,-51.3254 v 96.72195 c -3.22489,2.1582 -6.27613,4.63889 -9.07931,7.46687 -11.18789,11.18789 -17.33999,26.07201 -17.33999,41.87398 0,15.82678 6.1521,30.68609 17.33999,41.87398 2.80318,2.80318 5.85442,5.30867 9.07931,7.46687 z"
         id="path252"
         style="stroke-width:2.48069" /><path
         class="st4"
         d="m 402.79267,198.8518 c 1.73648,2.20781 2.92721,5.55673 3.27451,11.43596 7.66532,109.59671 -4.14275,204.08604 -36.06918,287.21383 V 226.78432 Z"
         id="path254"
         style="stroke-width:2.48069" /><path
         class="st4"
         d="m 304.21021,282.77341 v 331.99022 c -18.85322,23.24402 -39.34369,42.17166 -60.28068,55.51775 V 585.3675 c 3.15048,-2.13339 6.1273,-4.56447 8.88086,-7.31803 11.18789,-11.18789 17.34,-26.07201 17.34,-41.87398 0,-15.82678 -6.15211,-30.68609 -17.34,-41.87398 -2.75356,-2.75356 -5.73038,-5.20944 -8.88086,-7.31802 V 334.12361 Z"
         id="path256"
         style="stroke-width:2.48069" /></g></g><g
     id="g2267"><path
       id="path1946"
       style="fill:#ffffff;stroke-width:2.48069"
       d="m 210.93555,482.56836 c -29.54494,0 -53.58203,24.03709 -53.58203,53.58203 0,29.54495 24.03709,53.58398 53.58203,53.58399 29.54494,0 53.58398,-24.03904 53.58398,-53.58399 0,-29.54494 -24.03904,-53.58203 -53.58398,-53.58203 z" /><path
       class="st5"
       d="m 176.50449,511.59189 c 2.60472,-3.64661 5.77999,-6.84669 9.37699,-9.50103 l 3.86987,14.21434 h -8.53356 v 49.93621 c 1.73648,1.71167 3.6218,3.29931 5.63116,4.68849 v -23.46729 l 30.95896,-0.0248 -6.8715,25.27819 -5.33348,-19.62223 h -5.85442 l 8.40953,30.93416 c 0.91785,0.0496 1.83571,0.0744 2.77837,0.0744 0.94266,0 1.86051,-0.0248 2.77837,-0.0744 l 9.94755,-36.61493 h 3.79545 l 9.67467,21.92926 c 1.56284,-1.24034 3.02644,-2.57991 4.39082,-3.9939 l -8.50876,-19.29974 c 5.4079,-2.45588 9.15374,-7.88858 9.15374,-14.18952 0,-6.72266 -4.29159,-12.47785 -10.29485,-14.66086 l 4.11794,-15.13218 c 3.59699,2.65433 6.77227,5.87922 9.37699,9.50102 l 4.04352,-4.04351 c -4.44043,-5.95365 -10.22043,-10.8406 -16.86867,-14.21433 l -6.25132,22.94634 h -24.85648 l 1.53803,5.63116 h 21.75561 l -3.86987,14.21433 h 5.85442 l 3.67142,-13.47013 c 3.59699,1.48842 6.1521,5.0358 6.1521,9.17854 0,5.48232 -4.46524,9.92275 -9.92275,9.92275 h -24.06265 l -13.17244,-48.4478 c -6.67305,3.37373 -12.45305,8.26068 -16.86867,14.21433 z m 20.16797,30.21476 h -9.84832 v -19.8703 h 4.44043 z"
       id="path258"
       style="fill:#63257e;fill-opacity:1;stroke-width:2.48069" /></g></g></svg>
