<?xml version="1.0" encoding="UTF-8" standalone="no"?>
<!-- Created with Inkscape (http://www.inkscape.org/) -->

<svg
   width="155.92842mm"
   height="158.75mm"
   viewBox="0 0 155.92843 158.75"
   version="1.1"
   id="svg5"
   inkscape:version="1.1.1 (c3084ef, 2021-09-22)"
   sodipodi:docname="Logo Venezia FC - 2022.svg"
   xmlns:inkscape="http://www.inkscape.org/namespaces/inkscape"
   xmlns:sodipodi="http://sodipodi.sourceforge.net/DTD/sodipodi-0.dtd"
   xmlns="http://www.w3.org/2000/svg"
   xmlns:svg="http://www.w3.org/2000/svg">
  <sodipodi:namedview
     id="namedview7"
     pagecolor="#ffffff"
     bordercolor="#666666"
     borderopacity="1.0"
     inkscape:pageshadow="2"
     inkscape:pageopacity="0.0"
     inkscape:pagecheckerboard="0"
     inkscape:document-units="mm"
     showgrid="false"
     inkscape:zoom="0.46591611"
     inkscape:cx="244.67924"
     inkscape:cy="215.70407"
     inkscape:window-width="1440"
     inkscape:window-height="745"
     inkscape:window-x="0"
     inkscape:window-y="25"
     inkscape:window-maximized="0"
     inkscape:current-layer="layer1" />
  <defs
     id="defs2" />
  <g
     inkscape:label="Calque 1"
     inkscape:groupmode="layer"
     id="layer1"
     transform="translate(-55.076161,1.6727157)">
    <g
       id="g8236"
       transform="matrix(1.2077892,0,0,1.2077892,-11.444234,0.34757232)">
      <path
         id="path2738"
         style="fill:#9e8c5c;fill-opacity:1;fill-rule:evenodd;stroke:none;stroke-width:0.930036"
         d="m 351.66406,104.09766 -17.08008,46.76367 -49.66015,28.62305 v 15.29296 l -53.39063,44.80469 27.63282,74.85156 h 33.26953 l -16.90625,44.875 h 145.77929 l 10.66993,-29.21093 h -64 l 5.47851,-15 h 64 l 11.0293,-30.19922 h -64 l 5.47851,-15 h 64 l 11.03125,-30.20117 h -64 l 5.47852,-15 h 64 l 11.0293,-30.19922 h -64 l 5.47851,-15 h 64 l 11.03125,-30.19922 h -64 l 5.47852,-15 h 64 l 11.03125,-30.20117 z m -26.13281,75.38672 h 25.36719 l -5.62305,15 h -45.74414 z"
         transform="matrix(0.26458333,0,0,0.26458333,33.925163,-5.4647322)" />
      <path
         style="fill:#9e8c5c;fill-opacity:1;fill-rule:evenodd;stroke:none;stroke-width:0.930036"
         d="m 133.23633,104.09766 93.21484,255.21093 h 32.96485 l 11.01757,-29.63086 h -22.40234 l -34.91211,-95.41406 55.80469,-47.48633 v -15.29296 l 42.51758,-25.36719 -15.34766,-42.01953 z"
         transform="matrix(0.26458333,0,0,0.26458333,33.925163,-5.4647322)"
         id="path2736" />
      <path
         style="fill:#2c673c;fill-opacity:1;fill-rule:evenodd;stroke:none;stroke-width:0.930036"
         d="M 384.45117,14.332031 357.14258,89.097656 H 520.00195 L 547.30859,14.332031 Z"
         transform="matrix(0.26458333,0,0,0.26458333,33.925163,-5.4647322)"
         id="path2734" />
      <path
         style="fill:#ee732e;fill-opacity:1;fill-rule:evenodd;stroke:none;stroke-width:0.930036"
         d="m 100.45117,14.332031 27.30664,74.765625 H 290.61523 L 263.30859,14.332031 Z"
         transform="matrix(0.26458333,0,0,0.26458333,33.925163,-5.4647322)"
         id="rect1016" />
    </g>
    <g
       id="g4503"
       style="fill:#9e8c5c;fill-opacity:1"
       transform="matrix(1.2077892,0,0,1.2077892,-11.444234,0.34757232)">
      <path
         d="m 64.596428,105.61681 -2.255673,18.34393 h -0.06634 l -2.18933,-18.34393 h -5.008922 l 4.013772,23.68457 h 6.435302 l 4.013772,-23.68457 z"
         style="font-weight:bold;font-stretch:condensed;font-size:40px;line-height:1.25;font-family:Folio;-inkscape-font-specification:'Folio Bold Condensed';letter-spacing:0.510476px;white-space:pre;fill:#9e8c5c;fill-opacity:1;stroke-width:0.829292"
         id="path3938" />
      <path
         d="m 71.934163,129.30138 h 9.951499 v -4.31232 h -5.108436 v -5.90456 h 4.975882 v -4.31231 h -4.975882 v -4.84306 h 5.108436 v -4.31232 h -9.951499 z"
         style="font-weight:bold;font-stretch:condensed;font-size:40px;line-height:1.25;font-family:Folio;-inkscape-font-specification:'Folio Bold Condensed';letter-spacing:0.510476px;white-space:pre;fill:#9e8c5c;fill-opacity:1;stroke-width:0.829292"
         id="path3940"
         sodipodi:nodetypes="ccccccccccccc" />
      <path
         d="m 95.018546,122.30216 h -0.06634 L 90.83892,105.61681 h -6.136757 v 23.68457 h 4.577689 v -16.55266 h 0.06634 l 4.17963,16.55266 h 6.070413 v -23.68457 h -4.577689 z"
         style="font-weight:bold;font-stretch:condensed;font-size:40px;line-height:1.25;font-family:Folio;-inkscape-font-specification:'Folio Bold Condensed';letter-spacing:0.510476px;white-space:pre;fill:#9e8c5c;fill-opacity:1;stroke-width:0.829292"
         id="path3942" />
      <path
         d="m 102.64227,129.30138 h 9.9515 v -4.31232 h -5.10843 v -5.90456 h 4.97588 v -4.31231 h -4.97588 v -4.84306 h 5.10843 v -4.31232 h -9.9515 z"
         style="font-weight:bold;font-stretch:condensed;font-size:40px;line-height:1.25;font-family:Folio;-inkscape-font-specification:'Folio Bold Condensed';letter-spacing:0.510476px;white-space:pre;fill:#9e8c5c;fill-opacity:1;stroke-width:0.829292"
         id="path3944"
         sodipodi:nodetypes="ccccccccccccc" />
      <path
         d="m 127.48146,129.30138 v -4.31232 h -6.60116 l 6.56641,-15.05993 v -4.31232 h -11.74155 v 4.31232 h 5.73905 l -5.80504,15.05993 v 4.31232 z"
         style="font-weight:bold;font-stretch:condensed;font-size:40px;line-height:1.25;font-family:Folio;-inkscape-font-specification:'Folio Bold Condensed';letter-spacing:0.510476px;white-space:pre;fill:#9e8c5c;fill-opacity:1;stroke-width:0.829292"
         id="path3946"
         sodipodi:nodetypes="ccccccccccc" />
      <path
         d="m 135.19009,129.30138 v -23.68457 h -4.84306 v 23.68457 z"
         style="font-weight:bold;font-stretch:condensed;font-size:40px;line-height:1.25;font-family:Folio;-inkscape-font-specification:'Folio Bold Condensed';letter-spacing:0.510476px;white-space:pre;fill:#9e8c5c;fill-opacity:1;stroke-width:0.829292"
         id="path3948" />
      <path
         d="m 142.52225,129.30138 0.49758,-4.17963 h 3.35034 l 0.56391,4.17963 h 5.00892 l -4.01377,-23.68457 h -6.4353 l -4.01377,23.68457 z m 2.2225,-19.70397 h 0.0663 l 1.02832,11.21202 h -2.32202 z"
         style="font-weight:bold;font-stretch:condensed;font-size:40px;line-height:1.25;font-family:Folio;-inkscape-font-specification:'Folio Bold Condensed';letter-spacing:0.510476px;white-space:pre;fill:#9e8c5c;fill-opacity:1;stroke-width:0.829292"
         id="path3950" />
      <path
         d="m 159.10554,129.30138 h 4.84307 V 119.0845 h 4.87623 v -4.31231 h -4.87623 v -4.84306 h 5.10843 v -4.31232 h -9.9515 z"
         style="font-weight:bold;font-stretch:condensed;font-size:40px;line-height:1.25;font-family:Folio;-inkscape-font-specification:'Folio Bold Condensed';letter-spacing:0.510476px;white-space:pre;fill:#9e8c5c;fill-opacity:1;stroke-width:0.829292"
         id="path3952" />
      <path
         d="m 171.97134,124.19294 c 0,3.91426 1.69175,5.57284 6.10358,5.57284 4.41184,0 6.10359,-1.65858 6.10359,-5.57284 v -5.03767 h -4.84306 v 5.2367 c 0,0.69661 -0.59709,1.06149 -1.26053,1.06149 -0.86246,0 -1.26052,-0.36488 -1.26052,-1.65858 v -12.67157 c 0,-1.2937 0.39806,-1.65859 1.26052,-1.65859 0.66344,0 1.26053,0.36489 1.26053,1.0615 v 4.30805 h 4.84306 v -4.10902 c 0,-3.91426 -1.69175,-5.57284 -6.10359,-5.57284 -4.41183,0 -6.10358,1.65858 -6.10358,5.57284 z"
         style="font-weight:bold;font-stretch:condensed;font-size:40px;line-height:1.25;font-family:Folio;-inkscape-font-specification:'Folio Bold Condensed';letter-spacing:0.510476px;white-space:pre;fill:#9e8c5c;fill-opacity:1;stroke-width:0.829292"
         id="path3954"
         sodipodi:nodetypes="sssccssssssccssss" />
    </g>
  </g>
</svg>
