<?xml version="1.0" encoding="UTF-8" standalone="no"?>
<!-- Generator: Adobe Illustrator 22.0.1, SVG Export Plug-In . SVG Version: 6.00 Build 0)  -->

<svg
   version="1.1"
   id="Livello_1"
   x="0px"
   y="0px"
   viewBox="0 0 283 283"
   style="enable-background:new 0 0 283 283;"
   xml:space="preserve"
   sodipodi:docname="LR_Vicenza_Virtus_(logo).svg"
   inkscape:version="1.2 (dc2aeda, 2022-05-15)"
   xmlns:inkscape="http://www.inkscape.org/namespaces/inkscape"
   xmlns:sodipodi="http://sodipodi.sourceforge.net/DTD/sodipodi-0.dtd"
   xmlns="http://www.w3.org/2000/svg"
   xmlns:svg="http://www.w3.org/2000/svg"><defs
   id="defs43" /><sodipodi:namedview
   id="namedview41"
   pagecolor="#ffffff"
   bordercolor="#000000"
   borderopacity="0.25"
   inkscape:showpageshadow="2"
   inkscape:pageopacity="0.0"
   inkscape:pagecheckerboard="0"
   inkscape:deskcolor="#d1d1d1"
   showgrid="false"
   inkscape:zoom="1.7981861"
   inkscape:cx="122.06745"
   inkscape:cy="76.465944"
   inkscape:window-width="1427"
   inkscape:window-height="753"
   inkscape:window-x="0"
   inkscape:window-y="25"
   inkscape:window-maximized="0"
   inkscape:current-layer="Livello_1" />
<style
   type="text/css"
   id="style2">
	.st0{fill:#FF0003;}
</style>
<path
   id="path550"
   style="fill:#ffffff;stroke-width:36.6127"
   d="m 205.54899,54.244507 c -1.48535,28.764169 -18.25942,51.201783 -37.14932,50.132953 -18.8899,-1.06883 -32.88415,-25.247034 -31.25705,-54.003527 1.62711,-28.756492 16.73304,-51.25342538 37.14931,-50.13295165 23.178,1.27203905 32.88416,22.49416165 31.25706,54.00352565 z"
   sodipodi:nodetypes="sssss" /><circle
   style="fill:#ffffff;stroke-width:59.2016"
   id="path496"
   cx="141.67548"
   cy="154.50655"
   r="128.34233" /><g
   id="g38"
   transform="matrix(0.97369457,0,0,0.97369457,3.7268343,3.2164375)">
	<path
   class="st0"
   d="m 174.5,123.6 c 18.9,-20.4 26,-52.5 26,-52.5 0,0 7.2,-23.3 0.8,-47.2 C 194.8,0 176.5,0.4 176.5,0.4 c -12.9,-0.7 -20.7,6.4 -25.1,12.5 -3.5,4.8 -4.8,8.5 -4.8,8.5 l -22.2,56.8 c -6.1,-2 -15.1,-0.4 -15.1,-0.4 0,0 -21.5,3.8 -23.6,24.2 -2.1,20.4 18.2,29.3 18.2,29.3 0,0 -16.4,43.2 -18.4,47.5 -1.9,4.3 2,5.8 2,5.8 0,0 3.8,1.7 8.2,3.2 4.4,1.5 5.6,-2.1 5.6,-2.1 l 18.8,-48.5 c 26.5,6.6 40.9,-3 40.9,-3 13.1,22.1 22.8,47.2 24.7,51.3 1.8,4.1 5.5,2.4 5.5,2.4 0,0 4.3,-1.6 8.5,-3.3 4.2,-1.7 1.8,-6.2 1.8,-6.2 -12.5,-31.4 -27,-54.8 -27,-54.8 z m -64.3,-8.5 c -9.2,-5.8 -7.1,-13.7 -7.1,-13.7 0,0 1.7,-8.3 14.9,-6.9 z m 16.1,6.2 7.7,-19.9 c 10.9,5.4 17.7,18.2 17.7,18.2 -15.8,5.7 -25.4,1.7 -25.4,1.7 z m 38.3,-12.7 c 0,0 -10.4,-15.9 -24.3,-23.7 l 21.3,-54.7 c 0,0 4.4,-14 12.8,-13.2 8.5,0.8 10.8,14.2 10.8,14.2 0,0 3.6,14.4 -0.9,33.9 -4.5,19.5 -14.9,38.9 -19.7,43.5 z"
   id="path4" />
	<path
   class="st0"
   d="m 209.5,45.8 c 0,2.5 -0.2,5.2 -0.3,7.2 33.1,21.9 54.9,59.4 54.9,102 0,67.5 -54.7,122.2 -122.2,122.2 -67.5,0 -122.3,-54.6 -122.3,-122.1 0,-64.7 50.3,-117.7 114,-121.9 l 2.3,-6.4 C 67.7,29.9 13.4,86.1 13.4,155.1 c 0,70.9 57.5,128.4 128.4,128.4 70.9,0 128.5,-57.5 128.5,-128.4 0,-46.2 -24.3,-86.6 -60.8,-109.3 z"
   id="path6" />
	<polygon
   points="74,231.9 75,231.9 79.4,231.9 85.6,231.9 85.6,227.3 79.4,227.3 79.4,204.9 74,204.9 "
   id="polygon8" />
	<rect
   x="87.699997"
   y="226.7"
   width="5.1999998"
   height="5.1999998"
   id="rect10" />
	<rect
   x="111.1"
   y="226.7"
   width="5.1999998"
   height="5.1999998"
   id="rect12" />
	<rect
   x="134"
   y="204.89999"
   width="5.0999999"
   height="27"
   id="rect14" />
	<polygon
   points="132,204.9 127.7,204.9 125.4,222 123.1,204.9 118.2,204.9 122.2,231.9 127.8,231.9 "
   id="polygon16" />
	<polygon
   points="176,204.9 171.8,204.9 171.8,231.9 176,231.9 176,216 181.1,231.9 185.2,231.9 185.2,204.9 181.1,204.9 181.1,217.5 176.5,204.9 "
   id="polygon18" />
	<polygon
   points="187.1,228.6 187.1,231.9 198.6,231.9 198.6,227.4 192.8,227.4 198.9,208 198.9,204.9 187.6,204.9 187.6,209.7 193.1,209.7 "
   id="polygon20" />
	<path
   d="m 209.1,231.9 h 4.6 l -3.1,-27 h -7.4 l -3.7,27 h 4 l 0.9,-5.9 h 3.9 z m -3.9,-10.3 1.6,-10.3 1.2,10.3 z"
   id="path22" />
	<polygon
   points="167.8,215.9 163.2,215.9 163.2,209.4 169.4,209.4 169.4,204.9 163.2,204.9 160.1,204.9 158.1,204.9 158.1,231.9 161.3,231.9 163.2,231.9 169.7,231.9 169.7,227.4 163.2,227.4 163.2,220.4 167.8,220.4 "
   id="polygon24" />
	<path
   d="m 106.4,219.1 c 0,0 3.3,-0.4 3.2,-6.8 -0.1,-7.3 -8.6,-7.5 -8.6,-7.5 h -5.1 v 27 h 5.1 v -11.1 h 0.6 l 2.6,11.1 h 5.2 z m -4.6,-3 H 101 v -6.8 h 0.8 c 0,0 2.4,-0.2 2.4,3.4 -0.1,3.6 -2.4,3.4 -2.4,3.4 z"
   id="path26" />
	<path
   d="m 150.3,212.1 v 2.7 h 4.8 v -3.1 c 0,0 -0.4,-7.2 -6.4,-7.2 -6,0 -7.1,8.1 -7.1,13.8 0,5.8 0.8,14.2 6.8,14.2 6,0 6.6,-6.7 6.6,-7.8 0,-1.2 0,-3 0,-3 h -4.3 v 2.5 c 0,0 -0.2,4 -1.9,4 -1.7,0 -1.8,-4.8 -1.8,-9.8 0,-5 0.5,-9.4 1.6,-9.4 1.2,0 1.7,2.2 1.7,3.1 z"
   id="path28" />
	<path
   d="M 129.7,256.6 V 240.7 H 128 c 0,0 -2.4,1.8 -3.8,2.1 v 2.3 c 0,0 1.5,-0.1 2,-0.4 v 11.9 h -2.1 v 2.8 h 2.1 3.4 2 v -2.8 z"
   id="path30" />
	<path
   d="m 153.1,256.8 v 2.6 h 8.7 v -3.3 h -5.2 c 0,0 5.7,-6.3 5.7,-10.8 0,-4.5 -3.4,-4.9 -4.4,-4.9 -1,0 -4.4,0.4 -4.4,6.1 h 3.3 c 0,0 -0.1,-3.3 1,-3.3 1.1,0 1,2.2 1,2.2 0,0 -0.1,2.7 -2.8,6.9 z"
   id="path32" />
	<path
   d="m 147.6,240.5 c -4.8,0 -4.4,8 -4.4,8 v 3.9 c 0,0 0.2,7.5 4.4,7.5 4.2,0 4.5,-7.2 4.5,-7.2 v -4.1 c 0,-0.1 0.3,-8.1 -4.5,-8.1 z m 0.1,16.5 c -0.5,0 -0.9,-3.1 -0.9,-6.9 0,-3.8 0.4,-6.9 0.9,-6.9 0.5,0 0.9,3.1 0.9,6.9 0.1,3.8 -0.3,6.9 -0.9,6.9 z"
   id="path34" />
	<path
   d="m 137.1,240.5 c 0,0 -4.4,-0.5 -4.4,6.6 0,7.1 4.4,5.2 4.4,5.2 0,0 0.6,-0.3 0.8,-0.5 0,0 0,-0.1 0.1,-0.1 0.1,-0.2 0,5 -1.1,5 -1,0 -1,-2.3 -1,-2.3 l -2.9,0.1 c 0,0 -0.2,5.4 3.7,5.4 3.9,0 5.1,-5.3 5.1,-10.6 -0.1,-5.3 -1.4,-8.8 -4.7,-8.8 z m 0.7,8.9 c -2,1.1 -1.8,-3 -1.8,-3 0,0 0,-3.2 1,-3.2 1.2,0.1 0.8,6.2 0.8,6.2 z"
   id="path36" />
</g>
</svg>
