<?xml version="1.0" encoding="UTF-8"?>
<svg id="Calque_2" data-name="Calque 2" xmlns="http://www.w3.org/2000/svg" xmlns:xlink="http://www.w3.org/1999/xlink" viewBox="0 0 52.34 65.34">
  <defs>
    <style>
      .cls-1, .cls-2, .cls-3, .cls-4, .cls-5, .cls-6, .cls-7 {
        fill: none;
      }

      .cls-2, .cls-3, .cls-4, .cls-5, .cls-6, .cls-7 {
        stroke-miterlimit: 3.86;
      }

      .cls-2, .cls-3, .cls-4, .cls-7 {
        stroke: #000;
      }

      .cls-2, .cls-5 {
        stroke-width: .15px;
      }

      .cls-3 {
        stroke-width: .14px;
      }

      .cls-4, .cls-6 {
        stroke-width: .3px;
      }

      .cls-8 {
        fill: #ff1a36;
      }

      .cls-5 {
        stroke: #013764;
      }

      .cls-6 {
        stroke: #ff1a36;
      }

      .cls-9 {
        clip-path: url(#clippath-11);
      }

      .cls-10 {
        clip-path: url(#clippath-10);
      }

      .cls-11 {
        clip-path: url(#clippath-1);
      }

      .cls-12 {
        clip-path: url(#clippath-3);
      }

      .cls-13 {
        clip-path: url(#clippath-4);
      }

      .cls-14 {
        clip-path: url(#clippath-2);
      }

      .cls-15 {
        clip-path: url(#clippath-7);
      }

      .cls-16 {
        clip-path: url(#clippath-6);
      }

      .cls-17 {
        clip-path: url(#clippath-9);
      }

      .cls-18 {
        clip-path: url(#clippath-8);
      }

      .cls-19 {
        clip-path: url(#clippath-5);
      }

      .cls-20 {
        fill: #fff;
      }

      .cls-21 {
        fill: #013764;
      }

      .cls-22, .cls-23 {
        fill: #ffd72e;
      }

      .cls-23 {
        fill-rule: evenodd;
      }

      .cls-7 {
        stroke-width: .08px;
      }

      .cls-24 {
        clip-path: url(#clippath);
      }
    </style>
    <clipPath id="clippath">
      <path class="cls-1" d="M18.66,18.76c-2.53-.04-4.76-1.44-5.92-3.49-.1-.19-.14-.42-.14-.65,0-.51.28-.96.73-1.17,3.89-1.78,8.21-2.77,12.77-2.77s8.69.95,12.54,2.67h-.03c.44.21.76.67.76,1.2,0,.24-.11.55-.22.75-1.22,2.08-3.47,3.47-6.05,3.47-.32,0-.86.01-.86.01h-13.58Z"/>
    </clipPath>
    <clipPath id="clippath-1">
      <path class="cls-1" d="M18.66,18.76c-2.53-.04-4.76-1.44-5.92-3.49-.1-.19-.14-.42-.14-.65,0-.51.28-.96.73-1.17,3.89-1.78,8.21-2.77,12.77-2.77s8.69.95,12.54,2.67h-.03c.44.21.76.67.76,1.2,0,.24-.11.55-.22.75-1.22,2.08-3.47,3.47-6.05,3.47-.32,0-.86.01-.86.01h-13.58Z"/>
    </clipPath>
    <clipPath id="clippath-2">
      <path class="cls-1" d="M18.66,18.76c-2.53-.04-4.76-1.44-5.92-3.49-.1-.19-.14-.42-.14-.65,0-.51.28-.96.73-1.17,3.89-1.78,8.21-2.77,12.77-2.77s8.69.95,12.54,2.67h-.03c.44.21.76.67.76,1.2,0,.24-.11.55-.22.75-1.22,2.08-3.47,3.47-6.05,3.47-.32,0-.86.01-.86.01h-13.58Z"/>
    </clipPath>
    <clipPath id="clippath-3">
      <path class="cls-1" d="M18.66,18.76c-2.53-.04-4.76-1.44-5.92-3.49-.1-.19-.14-.42-.14-.65,0-.51.28-.96.73-1.17,3.89-1.78,8.21-2.77,12.77-2.77s8.69.95,12.54,2.67h-.03c.44.21.76.67.76,1.2,0,.24-.11.55-.22.75-1.22,2.08-3.47,3.47-6.05,3.47-.32,0-.86.01-.86.01h-13.58Z"/>
    </clipPath>
    <clipPath id="clippath-4">
      <path class="cls-1" d="M30.08,14.41l17,22.47-20.92,28.33L5.24,36.83,22.23,14.38s2.1-.27,3.87-.27c1.48,0,3.99.3,3.99.3Z"/>
    </clipPath>
    <clipPath id="clippath-5">
      <path class="cls-1" d="M30.08,14.41l17,22.47-20.92,28.33L5.24,36.83,22.23,14.38s2.1-.27,3.87-.27c1.48,0,3.99.3,3.99.3Z"/>
    </clipPath>
    <clipPath id="clippath-6">
      <path class="cls-1" d="M30.08,14.41l17,22.47-20.92,28.33L5.24,36.83,22.23,14.38s2.1-.27,3.87-.27c1.48,0,3.99.3,3.99.3Z"/>
    </clipPath>
    <clipPath id="clippath-7">
      <path class="cls-1" d="M30.08,14.41l17,22.47-20.92,28.33L5.24,36.83,22.23,14.38s2.1-.27,3.87-.27c1.48,0,3.99.3,3.99.3Z"/>
    </clipPath>
    <clipPath id="clippath-8">
      <path class="cls-1" d="M30.08,14.41l17,22.47-20.92,28.33L5.24,36.83,22.23,14.38s2.1-.27,3.87-.27c1.48,0,3.99.3,3.99.3Z"/>
    </clipPath>
    <clipPath id="clippath-9">
      <path class="cls-1" d="M30.08,14.41l17,22.47-20.92,28.33L5.24,36.83,22.23,14.38s2.1-.27,3.87-.27c1.48,0,3.99.3,3.99.3Z"/>
    </clipPath>
    <clipPath id="clippath-10">
      <path class="cls-1" d="M30.08,14.41l17,22.47-20.92,28.33L5.24,36.83,22.23,14.38s2.1-.27,3.87-.27c1.48,0,3.99.3,3.99.3Z"/>
    </clipPath>
    <clipPath id="clippath-11">
      <path class="cls-1" d="M30.08,14.41l17,22.47-20.92,28.33L5.24,36.83,22.23,14.38s2.1-.27,3.87-.27c1.48,0,3.99.3,3.99.3Z"/>
    </clipPath>
  </defs>
  <g id="Capa_1" data-name="Capa 1">
    <g>
      <path id="path3" class="cls-23" d="M26.13.08c.88,0,1.61.73,1.61,1.63,0,.27-.06.52-.18.74h.1c.9,0,1.63.73,1.63,1.63s-.73,1.63-1.63,1.63c-.33,0-.63-.11-.9-.28.01,1.86,1.5,3.35,3.34,3.35,1.57,0,2.89-1.09,3.25-2.56-.25.08-.59.11-.87.04-.88-.2-1.42-1.08-1.22-1.95.2-.88,1.08-1.42,1.96-1.22h.06c-.06-.23-.07-.49,0-.74.2-.88,1.08-1.42,1.96-1.22.88.2,1.42,1.08,1.22,1.96-.06.26-.18.49-.34.68l.1.02c.88.2,1.42,1.08,1.22,1.95-.2.88-1.08,1.43-1.96,1.22-.28-.07-.53-.2-.73-.38l-.02.05c-.42,1.8.7,3.61,2.5,4,1.56.34,2.56-.1,3.09-.63-.26-.05-.54-.16-.77-.35-.69-.58-.78-1.61-.2-2.3.58-.69,1.61-.78,2.3-.2l.42.39c.57-1,.65-1.17.94-1.61.49-.75,1.25-.54,2.05-.03l1.25.86-2.35,2.44c.07.15.08.31.08.48,0,.79-.64,1.44-1.44,1.44-.23,0-.44-.01-.64-.11-1.35,1.14-3.23,1.65-5.1,1.22-1.55-.36-2.82-1.3-3.62-2.53l.05-.07c-1.25.72-2.77.99-4.29.64-1.15-.27-2.14-.85-2.89-1.64-.74.79-1.74,1.38-2.89,1.64-1.52.35-3.02.16-4.26-.56l-.02.04c-.8,1.24-2.02,2.12-3.57,2.48-1.87.43-3.75-.08-5.1-1.22-.19.1-.41.11-.64.11-.79,0-1.44-.64-1.44-1.44,0-.17.02-.33.08-.48l-2.35-2.44,1.25-.86c.8-.51,1.56-.72,2.05.03.29.44.37.61.94,1.61l.42-.39c.69-.58,1.72-.49,2.3.2.58.69.49,1.72-.2,2.3-.23.19-.51.31-.77.35.53.53,1.53.97,3.09.63,1.8-.39,2.92-2.21,2.5-4l-.02-.05c-.2.18-.45.32-.73.38-.88.2-1.75-.34-1.95-1.22-.2-.88.35-1.75,1.22-1.95l.1-.02c-.16-.19-.28-.42-.34-.68-.2-.88.34-1.75,1.22-1.96.88-.2,1.75.34,1.95,1.22.06.26.05.52,0,.76h.05c.88-.22,1.75.33,1.96,1.21.2.88-.34,1.75-1.22,1.95-.28.07-.62.03-.87-.04.35,1.47,1.67,2.55,3.25,2.55,1.84,0,3.33-1.49,3.34-3.35-.27.17-.56.28-.9.28-.9,0-1.63-.73-1.63-1.63s.73-1.63,1.63-1.63h.1c-.11-.22-.18-.47-.18-.74,0-.9.73-1.63,1.61-1.63Z"/>
      <path id="path5" class="cls-5" d="M26.13.08c.88,0,1.61.73,1.61,1.63,0,.27-.06.52-.18.74h.1c.9,0,1.63.73,1.63,1.63s-.73,1.63-1.63,1.63c-.33,0-.63-.11-.9-.28.01,1.86,1.5,3.35,3.34,3.35,1.57,0,2.89-1.09,3.25-2.56-.25.08-.59.11-.87.04-.88-.2-1.42-1.08-1.22-1.95.2-.88,1.08-1.42,1.96-1.22h.06c-.06-.23-.07-.49,0-.74.2-.88,1.08-1.42,1.96-1.22.88.2,1.42,1.08,1.22,1.96-.06.26-.18.49-.34.68l.1.02c.88.2,1.42,1.08,1.22,1.95-.2.88-1.08,1.43-1.96,1.22-.28-.07-.53-.2-.73-.38l-.02.05c-.42,1.8.7,3.61,2.5,4,1.56.34,2.56-.1,3.09-.63-.26-.05-.54-.16-.77-.35-.69-.58-.78-1.61-.2-2.3.58-.69,1.61-.78,2.3-.2l.42.39c.57-1,.65-1.17.94-1.61.49-.75,1.25-.54,2.05-.03l1.25.86-2.35,2.44c.07.15.08.31.08.48,0,.79-.64,1.44-1.44,1.44-.23,0-.44-.01-.64-.11-1.35,1.14-3.23,1.65-5.1,1.22-1.55-.36-2.82-1.3-3.62-2.53l.05-.07c-1.25.72-2.77.99-4.29.64-1.15-.27-2.14-.85-2.89-1.64-.74.79-1.74,1.38-2.89,1.64-1.52.35-3.02.16-4.26-.56l-.02.04c-.8,1.24-2.02,2.12-3.57,2.48-1.87.43-3.75-.08-5.1-1.22-.19.1-.41.11-.64.11-.79,0-1.44-.64-1.44-1.44,0-.17.02-.33.08-.48l-2.35-2.44,1.25-.86c.8-.51,1.56-.72,2.05.03.29.44.37.61.94,1.61l.42-.39c.69-.58,1.72-.49,2.3.2.58.69.49,1.72-.2,2.3-.23.19-.51.31-.77.35.53.53,1.53.97,3.09.63,1.8-.39,2.92-2.21,2.5-4l-.02-.05c-.2.18-.45.32-.73.38-.88.2-1.75-.34-1.95-1.22-.2-.88.35-1.75,1.22-1.95l.1-.02c-.16-.19-.28-.42-.34-.68-.2-.88.34-1.75,1.22-1.96.88-.2,1.75.34,1.95,1.22.06.26.05.52,0,.76h.05c.88-.22,1.75.33,1.96,1.21.2.88-.34,1.75-1.22,1.95-.28.07-.62.03-.87-.04.35,1.47,1.67,2.55,3.25,2.55,1.84,0,3.33-1.49,3.34-3.35-.27.17-.56.28-.9.28-.9,0-1.63-.73-1.63-1.63s.73-1.63,1.63-1.63h.1c-.11-.22-.18-.47-.18-.74,0-.9.73-1.63,1.61-1.63Z"/>
      <circle id="circle7" class="cls-20" cx="26.17" cy="36.87" r="26.09"/>
      <circle id="circle9" class="cls-5" cx="26.17" cy="36.87" r="26.09"/>
      <path id="path11" class="cls-21" d="M1.04,37.01c0-13.84,11.22-25.06,25.06-25.06s25.06,11.22,25.06,25.06-11.22,25.06-25.06,25.06S1.04,50.85,1.04,37.01"/>
      <path id="path13" class="cls-20" d="M30.18,13.66l5.6,7.31,6,.02v4.24h-2.73l8.71,11.66-18.82,25.48h-5.61S4.49,36.85,4.49,36.85l8.86-11.65h-3.03v-4.25h6.2s5.54-7.31,5.54-7.31c0,0,2.16-.28,4-.28,1.53,0,4.12.31,4.12.31"/>
      <path id="path15" class="cls-22" d="M18.66,18.76c-2.53-.04-4.76-1.44-5.92-3.49-.1-.19-.14-.42-.14-.65,0-.51.28-.96.73-1.17,3.89-1.78,8.21-2.77,12.77-2.77s8.69.95,12.54,2.67h-.03c.44.21.76.66.76,1.19,0,.24-.1.55-.22.75-1.22,2.08-3.47,3.47-6.05,3.47-.32,0-.86.01-.86.01h-13.58"/>
      <g id="g17">
        <g class="cls-24">
          <circle id="circle25" cx="25.95" cy="39.51" r="25.63"/>
        </g>
        <g class="cls-11">
          <circle id="circle27" class="cls-4" cx="25.95" cy="39.51" r="25.63"/>
        </g>
        <g class="cls-14">
          <path id="path29" class="cls-22" d="M12.21,13.62c.19.17-1.18,1.63.3,2.77,2.15,1.67,2.18-2.42,13.72-2.42,7.91,0,11.02,2.62,11.02,2.62l-1.32.33-1.19.1.29-.86-.38-.52-.53.62-.33.05-.29-.9-.38.8-.91.43,1.43,2c2.86-.15,6.12-2.82,6.12-4.08,0-2.18-7.23-4.17-13.66-4.17-6.1,0-14.06,3.05-13.87,3.22h0Z"/>
        </g>
        <g class="cls-12">
          <path id="path31" class="cls-7" d="M12.21,13.62c.19.17-1.18,1.63.3,2.77,2.15,1.67,2.18-2.42,13.72-2.42,7.91,0,11.02,2.62,11.02,2.62l-1.32.33-1.19.1.29-.86-.38-.52-.53.62-.33.05-.29-.9-.38.8-.91.43,1.43,2c2.86-.15,6.12-2.82,6.12-4.08,0-2.18-7.23-4.17-13.66-4.17-6.1,0-14.06,3.05-13.87,3.22h0Z"/>
        </g>
      </g>
      <path id="path33" class="cls-2" d="M18.66,18.76c-2.53-.04-4.76-1.44-5.92-3.49-.1-.19-.14-.42-.14-.65,0-.51.28-.96.73-1.17,3.89-1.78,8.21-2.77,12.77-2.77s8.69.95,12.54,2.67h-.03c.44.21.76.66.76,1.19,0,.24-.1.55-.22.75-1.22,2.08-3.47,3.47-6.05,3.47-.32,0-.86.01-.86.01,0,0-13.58-.01-13.58-.01Z"/>
      <path id="path35" class="cls-22" d="M30.08,14.41l17,22.47-20.92,28.33L5.24,36.83,22.23,14.38s2.09-.27,3.87-.27c1.48,0,3.99.3,3.99.3"/>
      <g id="g37">
        <g class="cls-13">
          <polygon id="polygon45" class="cls-8" points="14.33 26.74 14.33 47.11 9.62 41.25 9.62 32.72 14.33 26.74"/>
        </g>
        <g class="cls-19">
          <polygon id="polygon47" class="cls-6" points="14.33 26.74 14.33 47.11 9.62 41.25 9.62 32.72 14.33 26.74"/>
        </g>
        <g class="cls-16">
          <polygon id="polygon49" class="cls-8" points="18.86 20.82 18.86 53.93 23.57 59.95 23.56 14.59 18.86 20.82"/>
        </g>
        <g class="cls-15">
          <polygon id="polygon51" class="cls-6" points="18.86 20.82 18.86 53.93 23.57 59.95 23.56 14.59 18.86 20.82"/>
        </g>
        <g class="cls-18">
          <polygon id="polygon53" class="cls-8" points="37.97 26.81 37.97 46.96 42.59 41.19 42.59 32.75 37.97 26.81"/>
        </g>
        <g class="cls-17">
          <polygon id="polygon55" class="cls-6" points="37.97 26.81 37.97 46.96 42.59 41.19 42.59 32.75 37.97 26.81"/>
        </g>
        <g class="cls-10">
          <polygon id="polygon57" class="cls-8" points="33.46 20.85 33.46 53.83 28.79 60 28.71 14.45 33.46 20.85"/>
        </g>
        <g class="cls-9">
          <polygon id="polygon59" class="cls-6" points="33.46 20.85 33.46 53.83 28.79 60 28.71 14.45 33.46 20.85"/>
        </g>
      </g>
      <path id="path61" class="cls-5" d="M30.08,14.41l17,22.47-20.92,28.33L5.24,36.83,22.23,14.38s2.09-.27,3.87-.27c1.48,0,3.99.3,3.99.3Z"/>
      <path id="path63" class="cls-8" d="M25.16,3.8c0-.56.45-1.01,1.01-1.01s1.01.45,1.01,1.01-.45,1.01-1.01,1.01-1.01-.45-1.01-1.01"/>
      <path id="path65" class="cls-8" d="M16.91,4.85c0-.56.45-1.01,1.01-1.01s1.01.45,1.01,1.01-.45,1.01-1.01,1.01-1.01-.45-1.01-1.01"/>
      <path id="path67" class="cls-8" d="M33.48,4.85c0-.56.45-1.01,1.01-1.01s1.01.45,1.01,1.01-.45,1.01-1.01,1.01-1.01-.45-1.01-1.01"/>
      <path id="path69" class="cls-8" d="M41.9,10.05c0-.56.45-1.01,1.01-1.01s1.01.45,1.01,1.01-.45,1.01-1.01,1.01-1.01-.45-1.01-1.01"/>
      <path id="path71" class="cls-8" d="M8.32,10.05c0-.56.45-1.01,1.01-1.01s1.01.45,1.01,1.01-.45,1.01-1.01,1.01-1.01-.45-1.01-1.01"/>
      <polyline id="polyline73" class="cls-8" points="26.09 11.29 23.71 12.21 26.1 13.3 28.49 12.23 26.09 11.29"/>
      <polyline id="polyline75" class="cls-21" points="15.46 13.35 13.57 15.06 16.18 15.22 18.04 13.37 15.46 13.35"/>
      <polyline id="polyline77" class="cls-21" points="36.67 13.35 38.57 15.06 35.95 15.22 34.09 13.37 36.67 13.35"/>
      <path id="path79" d="M18.43,31.05c-.8-.5-1.46-.69-2.34-.69-3.25,0-5.62,2.84-5.62,6.72,0,3.66,2.41,6.56,5.47,6.56.91,0,1.59-.19,2.5-.69v-3.75c-.58.55-1.15.83-1.79.83-1.48,0-2.48-1.24-2.48-3.06,0-1.71,1.04-2.97,2.43-2.97.64,0,1.15.22,1.84.8v-3.75"/>
      <polyline id="polyline81" points="41.86 33.32 41.86 30.53 34.38 30.53 34.38 43.61 37.77 43.61 37.77 38.22 41.48 38.22 41.48 35.43 37.77 35.43 37.77 33.32 41.86 33.32"/>
      <polyline id="polyline83" points="10.68 21.31 10.68 24.85 17.71 24.84 26.05 53.74 34.1 24.84 41.39 24.84 41.39 21.31 31.47 21.31 26.13 40.81 20.75 21.31 10.68 21.31"/>
      <polygon id="polygon85" class="cls-22" points="17.22 15.89 17.94 17.01 17.88 17.99 18.65 17.93 20.75 14.88 17.22 15.89"/>
      <polygon id="polygon87" class="cls-3" points="17.22 15.89 17.94 17.01 17.88 17.99 18.65 17.93 20.75 14.88 17.22 15.89"/>
    </g>
  </g>
</svg>