<?xml version="1.0" encoding="UTF-8" standalone="no"?>
<!-- Created with Inkscape (http://www.inkscape.org/) -->
<svg
   xmlns:dc="http://purl.org/dc/elements/1.1/"
   xmlns:cc="http://creativecommons.org/ns#"
   xmlns:rdf="http://www.w3.org/1999/02/22-rdf-syntax-ns#"
   xmlns:svg="http://www.w3.org/2000/svg"
   xmlns="http://www.w3.org/2000/svg"
   xmlns:xlink="http://www.w3.org/1999/xlink"
   xmlns:sodipodi="http://sodipodi.sourceforge.net/DTD/sodipodi-0.dtd"
   xmlns:inkscape="http://www.inkscape.org/namespaces/inkscape"
   width="500"
   height="593.65002"
   id="svg2"
   sodipodi:version="0.32"
   inkscape:version="0.46"
   version="1.0"
   sodipodi:docname="Logo West Bromwich Albion Football Club.svg"
   inkscape:output_extension="org.inkscape.output.svg.inkscape">
  <defs
     id="defs4">
    <inkscape:perspective
       sodipodi:type="inkscape:persp3d"
       inkscape:vp_x="0 : 526.18109 : 1"
       inkscape:vp_y="0 : 1000 : 0"
       inkscape:vp_z="744.09448 : 526.18109 : 1"
       inkscape:persp3d-origin="372.04724 : 350.78739 : 1"
       id="perspective10" />
    <linearGradient
       id="linearGradient2584"
       spreadMethod="pad"
       gradientTransform="matrix(15.63897,-6.33746,-6.33746,-15.63897,330.7753,268.56)"
       gradientUnits="userSpaceOnUse"
       y2="0"
       x2="1"
       y1="0"
       x1="0">
      <stop
         id="stop2586"
         offset="0"
         style="stop-opacity:1;stop-color:#ffffff" />
      <stop
         id="stop2588"
         offset="0.61236"
         style="stop-opacity:1;stop-color:#e4c691" />
      <stop
         id="stop2590"
         offset="1"
         style="stop-opacity:1;stop-color:#e4c691" />
    </linearGradient>
    <clipPath
       id="clipPath2482"
       clipPathUnits="userSpaceOnUse">
      <path
         id="path2484"
         d="M 233.058,247.878 L 357.8326,247.878 L 357.8326,286.4083 L 233.058,286.4083 L 233.058,247.878 z" />
    </clipPath>
    <clipPath
       id="clipPath2474"
       clipPathUnits="userSpaceOnUse">
      <path
         id="path2476"
         d="M 320.819,236.955 L 364.812,236.955 L 364.812,291.204 L 320.819,291.204 L 320.819,236.955 z" />
    </clipPath>
    <clipPath
       id="clipPath2442"
       clipPathUnits="userSpaceOnUse">
      <path
         id="path2444"
         clip-rule="evenodd"
         d="M 402.4005,298.37 L 479.527,298.37 C 484.4998,298.37 488.531,294.3388 488.531,289.366 L 488.531,179.815 C 488.531,174.8423 484.4998,170.811 479.527,170.811 L 325.274,170.811 C 320.3012,170.811 316.27,174.8423 316.27,179.815 L 316.27,289.366 C 316.27,294.3388 320.3012,298.37 325.274,298.37" />
    </clipPath>
    <clipPath
       id="clipPath2428"
       clipPathUnits="userSpaceOnUse">
      <path
         id="path2430"
         clip-rule="evenodd"
         d="M 183.543,298.37 L 302.098,298.37 C 307.0708,298.37 311.102,294.3388 311.102,289.366 L 311.102,179.815 C 311.102,174.8423 307.0708,170.811 302.098,170.811 L 64.988,170.811 C 60.0152,170.811 55.984,174.8423 55.984,179.815 L 55.984,289.366 C 55.984,294.3388 60.0152,298.37 64.988,298.37" />
    </clipPath>
    <inkscape:perspective
       id="perspective2410"
       inkscape:persp3d-origin="372.04724 : 350.78739 : 1"
       inkscape:vp_z="744.09448 : 526.18109 : 1"
       inkscape:vp_y="0 : 1000 : 0"
       inkscape:vp_x="0 : 526.18109 : 1"
       sodipodi:type="inkscape:persp3d" />
    <linearGradient
       inkscape:collect="always"
       xlink:href="#linearGradient2584"
       id="linearGradient2892"
       gradientUnits="userSpaceOnUse"
       gradientTransform="matrix(15.63897,-6.33746,-6.33746,-15.63897,330.7753,268.56)"
       spreadMethod="pad"
       x1="0"
       y1="0"
       x2="1"
       y2="0" />
    <linearGradient
       inkscape:collect="always"
       xlink:href="#linearGradient2584"
       id="linearGradient3171"
       gradientUnits="userSpaceOnUse"
       gradientTransform="matrix(15.63897,-6.33746,-6.33746,-15.63897,330.7753,268.56)"
       spreadMethod="pad"
       x1="0"
       y1="0"
       x2="1"
       y2="0" />
    <linearGradient
       inkscape:collect="always"
       xlink:href="#linearGradient2584"
       id="linearGradient3258"
       gradientUnits="userSpaceOnUse"
       gradientTransform="matrix(15.63897,-6.33746,-6.33746,-15.63897,330.7753,268.56)"
       spreadMethod="pad"
       x1="0"
       y1="0"
       x2="1"
       y2="0" />
  </defs>
  <sodipodi:namedview
     id="base"
     pagecolor="#ffffff"
     bordercolor="#666666"
     borderopacity="1.0"
     inkscape:pageopacity="0.0"
     inkscape:pageshadow="2"
     inkscape:zoom="0.175"
     inkscape:cx="-1675.1635"
     inkscape:cy="173.49119"
     inkscape:document-units="px"
     inkscape:current-layer="layer1"
     showgrid="false"
     inkscape:window-width="1280"
     inkscape:window-height="750"
     inkscape:window-x="-8"
     inkscape:window-y="-8" />
  <metadata
     id="metadata7">
    <rdf:RDF>
      <cc:Work
         rdf:about="">
        <dc:format>image/svg+xml</dc:format>
        <dc:type
           rdf:resource="http://purl.org/dc/dcmitype/StillImage" />
      </cc:Work>
    </rdf:RDF>
  </metadata>
  <g
     inkscape:label="Ebene 1"
     inkscape:groupmode="layer"
     id="layer1"
     transform="translate(-191.27844,100.06157)">
    <g
       id="g3173"
       transform="matrix(11.910586,0,0,11.910586,-2076.9597,-5157.105)">
      <g
         transform="matrix(1.25,0,0,-1.25,-215.71204,783.43398)"
         clip-path="url(#clipPath2474)"
         id="g2472">
        <g
           id="g2478">
          <g
             clip-path="url(#clipPath2482)"
             id="g2480">
            <path
               id="path2486"
               style="fill:#ffffff;fill-opacity:1;fill-rule:nonzero;stroke:none"
               d="M 326.2186,285.0913 L 325.5924,284.9712 L 325.5924,266.1533 C 325.5916,266.0083 325.5956,262.507 327.5596,258.4874 C 328.7129,256.1263 330.3065,254.0798 332.296,252.4044 C 334.7712,250.3201 337.8623,248.8134 341.4841,247.9265 L 341.5573,247.9086 C 341.5609,247.9077 341.6863,247.878 341.6863,247.878 L 341.8518,247.9042 L 341.9416,247.9265 C 345.5634,248.8134 348.6545,250.3201 351.1295,252.4044 C 353.1189,254.08 354.7128,256.1266 355.8656,258.4874 C 357.825,262.4977 357.8333,266.0092 357.8326,266.1567 L 357.8326,284.9713 L 357.2073,285.0912 C 357.1373,285.1045 350.1796,286.4083 341.7132,286.4083 C 333.2517,286.4083 326.2879,285.1045 326.2186,285.0913" />
            <path
               id="path2488"
               style="fill:#162d66;fill-opacity:1;fill-rule:nonzero;stroke:none"
               d="M 357.1305,284.6904 C 357.062,284.7034 350.1906,286.0004 341.7132,286.0004 C 333.2351,286.0004 326.3628,284.7034 326.2945,284.6904 L 326.0005,284.634 L 326.0005,266.1533 C 325.9995,266.0114 326.0056,262.5965 327.9258,258.6666 C 329.0548,256.3569 330.613,254.3552 332.5589,252.7167 C 334.9854,250.6729 338.0211,249.1945 341.581,248.3228 L 341.6542,248.3049 L 341.7017,248.2939 L 341.771,248.3049 L 341.8447,248.3228 C 345.4053,249.1945 348.4403,250.6729 350.8668,252.7167 C 352.8122,254.3552 354.3711,256.3569 355.4991,258.6666 C 357.4191,262.5965 357.4252,266.0116 357.4247,266.1549 C 357.4247,266.1533 357.4247,281.4593 357.4247,281.4593 L 357.4247,284.634" />
            <path
               id="path2490"
               style="fill:#ffffff;fill-opacity:1;fill-rule:nonzero;stroke:none"
               d="M 350.3931,253.2785 C 350.3451,253.2382 350.2949,253.199 350.2464,253.1591 L 350.2464,273.3237 L 346.6841,273.3237 L 346.6841,250.8555 C 345.7054,250.364 344.664,249.9363 343.56,249.576 L 343.56,273.3237 L 339.7345,273.3237 L 339.7345,249.6203 C 338.5971,249.9987 337.5257,250.4474 336.5232,250.9654 L 336.5232,273.3237 L 332.9606,273.3237 L 332.9606,253.3405 C 331.7604,254.362 330.7161,255.5295 329.8375,256.8279 L 329.8375,273.3237 L 326.7354,273.3237 L 326.7354,284.0228 C 328.143,284.2679 334.3261,285.2656 341.7132,285.2656 C 349.0984,285.2656 355.2832,284.2677 356.6898,284.0228 L 356.6898,273.3237 L 353.4573,273.3237 L 353.4573,256.6357 C 352.589,255.3882 351.564,254.2648 350.3931,253.2785" />
            <path
               id="path2492"
               style="fill:#162d66;fill-opacity:1;fill-rule:nonzero;stroke:none"
               d="M 331.1494,276.9135 L 330.2845,279.1632 L 329.4037,276.9135 L 331.1494,276.9135 z M 329.8801,280.3348 L 330.7449,280.3348 L 333.1653,274.8047 L 332.0226,274.8047 L 331.4987,276.0699 L 329.0627,276.0699 L 328.555,274.8047 L 327.436,274.8047" />
            <path
               id="path2494"
               style="fill:#162d66;fill-opacity:1;fill-rule:nonzero;stroke:none"
               d="M 333.5538,280.3348 L 334.5535,280.3348 L 334.5535,275.6948 L 336.9418,275.6948 L 336.9418,274.8047 L 333.5538,274.8047" />
            <path
               id="path2496"
               style="fill:#162d66;fill-opacity:1;fill-rule:nonzero;stroke:none"
               d="M 338.4336,275.6482 L 339.3541,275.6482 C 339.8699,275.6482 340.5837,275.734 340.5837,276.4606 C 340.5837,277.0386 340.2033,277.2418 339.3937,277.2418 L 338.4336,277.2418 L 338.4336,275.6482 z M 338.4336,278.0852 L 339.3463,278.0852 C 340.0126,278.0852 340.3458,278.3665 340.3458,278.7804 C 340.3458,279.2571 340.0126,279.4913 339.2589,279.4913 L 338.4336,279.4913 L 338.4336,278.0852 z M 337.4339,280.3348 L 339.6236,280.3348 C 340.4728,280.3348 341.346,279.9523 341.346,278.9444 C 341.346,278.3196 340.9489,277.9057 340.3698,277.7338 L 340.3698,277.7182 C 341.0757,277.6401 341.584,277.0932 341.584,276.3825 C 341.584,275.1794 340.5203,274.8047 339.4574,274.8047 L 337.4339,274.8047" />
            <path
               id="path2498"
               style="fill:#162d66;fill-opacity:1;fill-rule:nonzero;stroke:none"
               d="M 342.0755,274.8047 L 343.0758,274.8047 L 343.0758,280.3348 L 342.0755,280.3348 L 342.0755,274.8047 z" />
            <path
               id="path2500"
               style="fill:#162d66;fill-opacity:1;fill-rule:nonzero;stroke:none"
               d="M 346.5825,275.5545 C 347.749,275.5545 348.5186,276.4292 348.5186,277.6086 C 348.5186,278.7101 347.749,279.5849 346.5825,279.5849 C 345.4244,279.5849 344.6545,278.7101 344.6545,277.6086 C 344.6545,276.4292 345.4244,275.5545 346.5825,275.5545 z M 346.5747,280.4755 C 348.3284,280.5068 349.5664,279.3506 349.5664,277.5776 C 349.5664,275.8512 348.3284,274.6952 346.5747,274.6639 C 344.8449,274.6639 343.607,275.82 343.607,277.5463 C 343.607,279.3195 344.8449,280.4755 346.5747,280.4755" />
            <path
               id="path2502"
               style="fill:#162d66;fill-opacity:1;fill-rule:nonzero;stroke:none"
               d="M 350.1214,280.3348 L 351.4465,280.3348 L 354.1682,276.2262 L 354.1843,276.2105 L 354.1682,276.2105 L 354.1843,276.2262 L 354.1843,280.3348 L 355.1838,280.3348 L 355.1838,274.8047 L 353.9143,274.8047 L 351.1375,279.0461 L 351.1216,279.0461 L 351.1216,274.8047 L 350.1214,274.8047" />
            <path
               id="path2504"
               style="fill:#162d66;fill-opacity:1;fill-rule:nonzero;stroke:none"
               d="M 327.5356,283.2921 L 327.966,283.2921 L 328.3806,281.7267 L 328.3868,281.7267 L 328.8825,283.2921 L 329.2693,283.2921 L 329.7555,281.7267 L 329.7616,281.7267 L 330.1951,283.2921 L 330.5944,283.2921 L 329.9518,281.1189 L 329.5777,281.1189 L 329.0663,282.7733 L 329.06,282.7733 L 328.5489,281.1189 L 328.1875,281.1189" />
            <path
               id="path2506"
               style="fill:#162d66;fill-opacity:1;fill-rule:nonzero;stroke:none"
               d="M 330.9185,283.2921 L 332.3804,283.2921 L 332.3804,282.9423 L 331.3109,282.9423 L 331.3109,282.4082 L 332.3247,282.4082 L 332.3247,282.0583 L 331.3109,282.0583 L 331.3109,281.4688 L 332.437,281.4688 L 332.437,281.1189 L 330.9185,281.1189" />
            <path
               id="path2508"
               style="fill:#162d66;fill-opacity:1;fill-rule:nonzero;stroke:none"
               d="M 333.9832,282.8256 C 333.8992,282.9423 333.7494,282.9973 333.5964,282.9973 C 333.4157,282.9973 333.2351,282.9176 333.2351,282.7183 C 333.2351,282.2823 334.2825,282.5309 334.2825,281.7575 C 334.2825,281.2908 333.9085,281.0637 333.475,281.0637 C 333.2008,281.0637 332.9325,281.1466 332.7518,281.3583 L 333.048,281.6408 C 333.1447,281.4965 333.3097,281.4137 333.4843,281.4137 C 333.6654,281.4137 333.8708,281.512 333.8708,281.7116 C 333.8708,282.1872 332.8233,281.9138 332.8233,282.6906 C 332.8233,283.1385 333.2287,283.3475 333.637,283.3475 C 333.8681,283.3475 334.0985,283.2829 334.2701,283.1231" />
            <path
               id="path2510"
               style="fill:#162d66;fill-opacity:1;fill-rule:nonzero;stroke:none"
               d="M 335.2211,282.9423 L 334.5445,282.9423 L 334.5445,283.2921 L 336.2904,283.2921 L 336.2904,282.9423 L 335.6138,282.9423 L 335.6138,281.1189 L 335.2211,281.1189" />
            <path
               id="path2512"
               style="fill:#162d66;fill-opacity:1;fill-rule:nonzero;stroke:none"
               d="M 338.0302,281.4504 L 338.3918,281.4504 C 338.5945,281.4504 338.8753,281.4843 338.8753,281.7697 C 338.8753,281.9968 338.7252,282.0768 338.4077,282.0768 L 338.0302,282.0768 L 338.0302,281.4504 z M 338.0302,282.4082 L 338.3886,282.4082 C 338.6508,282.4082 338.7817,282.5186 338.7817,282.6812 C 338.7817,282.8684 338.6508,282.9605 338.3543,282.9605 L 338.0302,282.9605 L 338.0302,282.4082 z M 337.6375,283.2921 L 338.498,283.2921 C 338.8315,283.2921 339.1744,283.1417 339.1744,282.7456 C 339.1744,282.5002 339.0185,282.3376 338.7908,282.27 L 338.7908,282.2638 C 339.0686,282.2333 339.2681,282.0184 339.2681,281.7388 C 339.2681,281.2663 338.85,281.1189 338.4324,281.1189 L 337.6375,281.1189" />
            <path
               id="path2514"
               style="fill:#162d66;fill-opacity:1;fill-rule:nonzero;stroke:none"
               d="M 340.3874,282.3712 C 340.6087,282.3712 340.8674,282.3897 340.8674,282.6721 C 340.8674,282.93 340.6244,282.9605 340.4216,282.9605 L 340.0816,282.9605 L 340.0816,282.3712 L 340.3874,282.3712 z M 339.6887,283.2921 L 340.4559,283.2921 C 340.8799,283.2921 341.279,283.157 341.279,282.669 C 341.279,282.356 341.0948,282.1258 340.7678,282.0797 L 341.3539,281.1189 L 340.8799,281.1189 L 340.3685,282.0398 L 340.0816,282.0398 L 340.0816,281.1189 L 339.6887,281.1189" />
            <path
               id="path2516"
               style="fill:#162d66;fill-opacity:1;fill-rule:nonzero;stroke:none"
               d="M 342.7037,281.4137 C 343.1622,281.4137 343.4648,281.7575 343.4648,282.2208 C 343.4648,282.6537 343.1622,282.9973 342.7037,282.9973 C 342.2486,282.9973 341.9463,282.6537 341.9463,282.2208 C 341.9463,281.7575 342.2486,281.4137 342.7037,281.4137 z M 342.7007,283.3475 C 343.3899,283.3597 343.876,282.9054 343.876,282.2087 C 343.876,281.5302 343.3899,281.076 342.7007,281.0637 C 342.0209,281.0637 341.5348,281.5179 341.5348,282.1964 C 341.5348,282.8931 342.0209,283.3475 342.7007,283.3475" />
            <path
               id="path2518"
               style="fill:#162d66;fill-opacity:1;fill-rule:nonzero;stroke:none"
               d="M 344.2442,283.2921 L 344.8427,283.2921 L 345.432,281.7697 L 346.0278,283.2921 L 346.62,283.2921 L 346.62,281.1189 L 346.2457,281.1189 L 346.2457,282.9239 L 346.2396,282.9239 L 345.5691,281.1189 L 345.2946,281.1189 L 344.6244,282.9239 L 344.6183,282.9239 L 344.6183,281.1189 L 344.2442,281.1189" />
            <path
               id="path2520"
               style="fill:#162d66;fill-opacity:1;fill-rule:nonzero;stroke:none"
               d="M 346.9534,283.2921 L 347.384,283.2921 L 347.7987,281.7267 L 347.8048,281.7267 L 348.3005,283.2921 L 348.6871,283.2921 L 349.1732,281.7267 L 349.1796,281.7267 L 349.6132,283.2921 L 350.0119,283.2921 L 349.3698,281.1189 L 348.996,281.1189 L 348.4844,282.7733 L 348.4782,282.7733 L 347.9666,281.1189 L 347.6051,281.1189" />
            <path
               id="path2522"
               style="fill:#162d66;fill-opacity:1;fill-rule:nonzero;stroke:none"
               d="M 350.3116,281.1189 L 350.7043,281.1189 L 350.7043,283.2921 L 350.3116,283.2921 L 350.3116,281.1189 z" />
            <path
               id="path2524"
               style="fill:#162d66;fill-opacity:1;fill-rule:nonzero;stroke:none"
               d="M 352.7028,282.7826 C 352.5407,282.9513 352.3911,282.9973 352.2386,282.9973 C 351.7828,282.9973 351.4807,282.6537 351.4807,282.2208 C 351.4807,281.7575 351.7828,281.4137 352.2386,281.4137 C 352.4161,281.4137 352.5875,281.4935 352.7339,281.6776 L 353.0582,281.4504 C 352.8589,281.1804 352.5593,281.0637 352.2352,281.0637 C 351.5557,281.0637 351.069,281.5179 351.069,282.1964 C 351.069,282.8931 351.5557,283.3475 352.2352,283.3475 C 352.5346,283.3475 352.7904,283.2523 353.0085,283.0036" />
            <path
               id="path2526"
               style="fill:#162d66;fill-opacity:1;fill-rule:nonzero;stroke:none"
               d="M 353.4014,283.2921 L 353.7943,283.2921 L 353.7943,282.4266 L 354.8262,282.4266 L 354.8262,283.2921 L 355.2191,283.2921 L 355.2191,281.1189 L 354.8262,281.1189 L 354.8262,282.0768 L 353.7943,282.0768 L 353.7943,281.1189 L 353.4014,281.1189" />
            <path
               id="path2528"
               style="fill:#ffffff;fill-opacity:1;fill-rule:nonzero;stroke:none"
               d="M 345.5147,260.5697 C 345.3742,260.3447 345.1505,260.2262 345.146,260.2242 C 344.6562,260.015 344.2807,259.7626 343.9896,259.4962 C 344.1032,259.6664 344.2146,259.8199 344.3188,259.9445 C 344.3188,259.9445 344.5084,260.1498 344.5517,260.1858 C 344.6865,260.3234 345.1154,260.6847 345.4773,260.7016 L 345.4976,260.7024 L 345.5189,260.7063 C 345.5203,260.7065 345.5617,260.7139 345.6366,260.72 L 345.5147,260.5697 z M 341.4011,257.1332 C 341.384,257.3224 341.312,257.4957 341.2018,257.6375 C 341.2914,257.7204 341.6963,258.0943 342.1262,258.4688 C 341.9813,258.046 341.8185,257.5927 341.7086,257.3537 L 341.619,257.1591 C 341.5396,257.1466 341.4665,257.1381 341.4011,257.1332 z M 339.9279,258.0132 C 339.7644,258.6198 339.4596,259.7494 338.0429,260.4984 L 338.0378,260.5009 L 338.0314,260.5036 C 337.8197,260.602 337.5506,260.7552 337.4855,260.8316 L 337.1913,261.177 C 338.0314,260.5934 339.1213,260.1425 340.5435,259.9753 C 340.7247,259.9435 341.3127,259.8412 341.8067,259.7694 C 341.4471,259.423 340.8873,258.8399 340.4204,258.1562 L 340.3169,258.0051 C 340.1918,257.9887 340.0733,257.9464 339.9666,257.8832 C 339.9533,257.9241 339.9401,257.9665 339.9279,258.0132 z M 348.2445,254.8551 L 348.2318,254.9209 C 348.1884,255.0891 348.0273,255.5777 347.7733,255.8889 C 348.4344,255.9865 349.2411,256.2269 349.6134,256.7868 L 349.7059,256.9258 L 349.6065,257.0592 C 349.1919,257.6051 348.3502,257.8228 347.6888,257.9092 C 347.9351,258.2387 348.0369,258.6468 348.0506,258.7053 L 348.1211,259.0331 C 348.1211,259.0331 347.9302,258.9843 347.7647,258.9861 C 347.735,258.9819 347.632,258.9858 347.562,258.9915 C 347.2614,259.0319 346.8557,258.9934 346.7769,258.9851 C 346.5098,258.9591 346.2778,258.8918 346.076,258.8103 C 346.1522,259.0632 346.1931,259.3192 346.1931,259.494 C 346.1931,259.5246 346.1918,259.5528 346.1899,259.5775 C 346.1715,259.7848 345.9568,260.4678 345.9177,260.5885 L 345.8413,260.7285 C 346.0822,260.7303 346.4496,260.707 346.9184,260.5981 C 347.0278,260.5648 348.524,260.1058 350.1378,259.3398 C 350.1987,259.3075 351.8805,258.4411 353.1106,259.1329 C 353.1106,259.1329 353.267,259.2639 353.3255,259.4105 L 352.4083,259.8874 C 352.4083,259.8874 353.0394,259.8066 353.4357,259.9606 C 353.2817,260.6284 352.7679,260.8708 352.7679,260.8708 C 353.1787,260.8191 353.4357,260.966 353.4357,260.966 C 353.399,261.0688 353.3255,261.2084 353.3255,261.2084 C 353.3001,261.2394 352.9246,261.9251 351.739,262.4286 C 351.7598,262.4644 351.7708,262.5031 351.7779,262.5446 C 351.7762,262.5303 351.7733,262.51 351.7733,262.51 C 351.7836,262.5392 351.7955,262.5739 351.7955,262.6186 C 351.7955,262.8212 351.5476,263.3668 349.7446,264.2122 L 349.7343,264.2176 L 349.7241,264.2225 C 349.6743,264.2448 348.524,264.7605 347.6555,264.9674 C 347.1526,265.3786 343.3822,268.3599 338.6393,269.342 C 338.4507,269.6101 337.912,270.3701 337.6368,270.666 C 337.5377,270.7972 336.6324,271.9404 335.237,271.9219 C 335.2155,271.9223 334.569,271.9225 333.968,271.6311 C 333.8138,271.6256 333.6816,271.7015 333.6798,271.7023 C 332.9467,272.1101 332.3824,272.393 332.3768,272.3957 L 332.3467,272.411 L 332.3153,272.4247 C 332.024,272.4946 331.8953,272.3185 331.8637,272.2645 C 331.7538,272.0797 331.839,271.9207 331.8701,271.8609 L 331.8723,271.8595 C 331.943,271.7222 332.1969,271.3807 332.4336,271.0731 C 331.9317,271.1119 331.6583,271.094 331.5034,271.0508 L 331.5056,271.0527 C 331.5009,271.052 331.498,271.0496 331.4931,271.0488 C 331.4913,271.0482 331.4897,271.0476 331.4874,271.047 C 331.3185,271.0079 331.2434,270.8989 331.215,270.8348 C 331.192,270.7826 331.1834,270.732 331.1834,270.6852 C 331.1834,270.577 331.2294,270.4902 331.2483,270.4592 L 331.2411,270.4718 C 331.2656,270.4271 331.3401,270.2908 331.7694,270.0953 C 332.2179,269.8887 332.9332,269.4575 332.9964,269.4193 C 333.3389,269.1835 333.6581,268.1842 333.7795,267.6088 L 333.782,267.5963 C 334.0752,266.4474 334.3626,265.5549 334.4341,265.3118 C 334.7225,264.3464 335.3496,262.5107 337.0931,261.248 L 337.0716,260.6881 C 337.0647,260.5197 337.0432,260.0509 337.0226,259.9045 L 337.0226,259.9043 C 337.0155,259.8546 337.0118,259.7927 337.0118,259.7224 C 337.0118,259.5604 337.0346,259.3533 337.0787,259.1471 C 336.9016,259.2331 336.6978,259.306 336.464,259.3447 C 336.4485,259.3474 336.0353,259.4186 335.733,259.3932 C 335.662,259.3914 335.5759,259.3934 335.5521,259.3981 C 335.4182,259.4088 335.212,259.5195 335.212,259.5195 L 335.2498,259.1391 C 335.2588,259.0793 335.3298,258.6617 335.5423,258.3182 C 334.9217,258.2666 334.1281,258.0943 333.7095,257.5684 L 333.6133,257.447 L 333.6882,257.3107 C 334.0042,256.7209 334.7425,256.4406 335.3386,256.308 C 335.0826,256.0103 334.9447,255.6316 334.9254,255.5762 L 334.8434,255.304 C 334.8434,255.304 335.0725,255.2913 335.2106,255.2654 C 335.2365,255.2654 335.2885,255.2541 335.3575,255.2399 C 335.65,255.1628 336.0684,255.1606 336.086,255.1606 C 336.3536,255.1579 336.615,255.2051 336.8206,255.271 C 336.8128,255.2125 336.8079,255.1542 336.8079,255.0967 C 336.8079,254.9486 336.8295,254.8073 336.8468,254.6918 L 336.8681,254.5104 C 336.8635,254.3549 336.8326,253.9045 336.8052,253.7442 L 336.818,253.2519 L 337.1178,253.5234 C 337.1991,253.5894 337.5075,253.7099 337.7469,253.7833 C 338.1937,253.926 338.5179,254.1118 338.7673,254.3197 C 338.7225,254.1038 338.6909,253.8741 338.6909,253.6178 C 338.6909,253.4736 338.699,253.3228 338.7171,253.1647 C 338.7426,252.9931 338.7597,252.788 338.7597,252.6457 C 338.7597,252.5806 338.7563,252.529 338.7477,252.4996 L 338.6975,252.0075 L 339.1054,252.2401 C 339.2522,252.3385 339.6625,252.609 339.795,252.6746 C 339.9487,252.7505 340.1945,252.9343 340.4089,253.1566 C 340.438,252.9652 340.4914,252.7593 340.5933,252.5483 C 340.5996,252.5346 340.7759,252.161 340.972,251.9312 C 341.0133,251.8763 341.0598,251.8073 341.0701,251.785 C 341.1475,251.6445 341.2126,251.4631 341.2126,251.4631 L 341.4515,251.6839 C 341.497,251.7253 341.8126,252.0254 341.9793,252.3973 C 342.3779,251.9255 342.981,251.3806 343.6655,251.3436 L 343.8148,251.3356 L 343.8843,251.4692 C 344.0067,251.6976 344.055,251.9493 344.055,252.2041 C 344.055,252.6164 343.9272,253.0342 343.7842,253.3789 C 344.1818,253.3398 344.585,253.4396 344.643,253.455 L 345.0322,253.5623 C 345.0322,253.5623 345.1343,253.5424 345.114,253.563 C 345.2449,253.5018 345.2376,253.5067 345.382,253.4548 C 345.5911,253.3862 345.936,253.2506 346.0295,253.1716 L 346.4102,252.9405 L 346.4156,253.3723 C 346.4014,253.5275 346.3671,253.9442 346.3671,254.1273 C 346.3671,254.1402 346.3674,254.1523 346.3676,254.1625 C 346.3681,254.1711 346.3681,254.1801 346.3681,254.1895 C 346.3681,254.3593 346.315,254.6414 346.2114,254.9187 C 346.4158,254.8502 346.6484,254.798 346.9123,254.7863 C 346.9299,254.7853 347.3803,254.7635 347.6954,254.8235 C 347.7752,254.8342 347.809,254.8453 347.8362,254.8428 C 347.8362,254.8428 348.067,254.8741 348.2445,254.8551" />
            <path
               id="path2530"
               style="fill:#ffffff;fill-opacity:1;fill-rule:nonzero;stroke:none"
               d="M 334.252,269.4398 C 335.9506,268.8525 334.5219,269.8684 334.5229,269.8407 C 335.0946,269.3719 334.252,269.4398 334.252,269.4398" />
            <path
               id="path2532"
               style="fill:none;stroke:#ffffff;stroke-width:0.3646;stroke-linecap:butt;stroke-linejoin:miter;stroke-miterlimit:4;stroke-dasharray:none;stroke-opacity:1"
               d="M 334.252,269.4398 C 335.9506,268.8525 334.5219,269.8684 334.5229,269.8407 C 335.0946,269.3719 334.252,269.4398 334.252,269.4398 z" />
            <path
               id="path2534"
               style="fill:#ffffff;fill-opacity:1;fill-rule:nonzero;stroke:none"
               d="M 334.9687,269.9619 C 334.9687,269.9619 334.9447,270.3234 335.3438,270.3618 C 335.7433,270.4002 335.9837,270.1301 336.0569,269.9994 C 336.1306,269.8677 336.2191,269.6206 336.2596,269.465 C 336.2596,269.465 336.3198,269.3008 336.1687,269.3766 C 336.0177,269.4528 335.8179,269.5777 335.3469,269.6082 C 334.9863,269.6318 334.9687,269.9619 334.9687,269.9619" />
            <path
               id="path2536"
               style="fill:none;stroke:#ffffff;stroke-width:0.3646;stroke-linecap:butt;stroke-linejoin:miter;stroke-miterlimit:4;stroke-dasharray:none;stroke-opacity:1"
               d="M 334.9687,269.9619 C 334.9687,269.9619 334.9447,270.3234 335.3438,270.3618 C 335.7433,270.4002 335.9837,270.1301 336.0569,269.9994 C 336.1306,269.8677 336.2191,269.6206 336.2596,269.465 C 336.2596,269.465 336.3198,269.3008 336.1687,269.3766 C 336.0177,269.4528 335.8179,269.5777 335.3469,269.6082 C 334.9863,269.6318 334.9687,269.9619 334.9687,269.9619 z" />
            <path
               id="path2538"
               style="fill:#ffffff;fill-opacity:1;fill-rule:nonzero;stroke:none"
               d="M 335.4784,270.0047 C 335.4821,269.9288 335.4272,269.8634 335.355,269.86 C 335.2831,269.8562 335.2216,269.9157 335.2174,269.9915 C 335.2138,270.0681 335.2679,270.1331 335.3403,270.1367 C 335.4123,270.1404 335.4742,270.0812 335.4784,270.0047" />
            <path
               id="path2540"
               style="fill:none;stroke:#ffffff;stroke-width:0.3646;stroke-linecap:butt;stroke-linejoin:miter;stroke-miterlimit:4;stroke-dasharray:none;stroke-opacity:1"
               d="M 335.4784,270.0047 C 335.4821,269.9288 335.4272,269.8634 335.355,269.86 C 335.2831,269.8562 335.2216,269.9157 335.2174,269.9915 C 335.2138,270.0681 335.2679,270.1331 335.3403,270.1367 C 335.4123,270.1404 335.4742,270.0812 335.4784,270.0047 z" />
            <path
               id="path2542"
               style="fill:#ffffff;fill-opacity:1;fill-rule:nonzero;stroke:none"
               d="M 345.2185,263.8877 C 347.0714,263.6086 346.4694,264.4464 346.456,264.4583 C 347.432,264.2219 347.5167,263.8173 347.5299,263.8059 C 346.3375,263.3237 345.2185,263.8877 345.2185,263.8877" />
            <path
               id="path2544"
               style="fill:none;stroke:#ffffff;stroke-width:0.3646;stroke-linecap:butt;stroke-linejoin:miter;stroke-miterlimit:4;stroke-dasharray:none;stroke-opacity:1"
               d="M 345.2185,263.8877 C 347.0714,263.6086 346.4694,264.4464 346.456,264.4583 C 347.432,264.2219 347.5167,263.8173 347.5299,263.8059 C 346.3375,263.3237 345.2185,263.8877 345.2185,263.8877 z" />
            <path
               id="path2546"
               style="fill:#ffffff;fill-opacity:1;fill-rule:nonzero;stroke:none"
               d="M 335.98,267.5341 C 336.0508,267.3678 336.0522,267.2108 335.9837,267.1831 C 335.9159,267.1549 335.803,267.2671 335.7318,267.4327 C 335.6615,267.599 335.6595,267.7558 335.7281,267.7841 C 335.7966,267.812 335.9092,267.7002 335.98,267.5341" />
            <path
               id="path2548"
               style="fill:none;stroke:#ffffff;stroke-width:0.3646;stroke-linecap:butt;stroke-linejoin:miter;stroke-miterlimit:4;stroke-dasharray:none;stroke-opacity:1"
               d="M 335.98,267.5341 C 336.0508,267.3678 336.0522,267.2108 335.9837,267.1831 C 335.9159,267.1549 335.803,267.2671 335.7318,267.4327 C 335.6615,267.599 335.6595,267.7558 335.7281,267.7841 C 335.7966,267.812 335.9092,267.7002 335.98,267.5341 z" />
            <path
               id="path2550"
               style="fill:#ffffff;fill-opacity:1;fill-rule:nonzero;stroke:none"
               d="M 336.6094,266.479 C 336.7325,266.3066 336.7766,266.1298 336.7085,266.0837 C 336.6407,266.0372 336.4857,266.1393 336.3633,266.311 C 336.2409,266.4829 336.1964,266.66 336.2644,266.7063 C 336.3323,266.7527 336.487,266.6507 336.6094,266.479" />
            <path
               id="path2552"
               style="fill:none;stroke:#ffffff;stroke-width:0.3646;stroke-linecap:butt;stroke-linejoin:miter;stroke-miterlimit:4;stroke-dasharray:none;stroke-opacity:1"
               d="M 336.6094,266.479 C 336.7325,266.3066 336.7766,266.1298 336.7085,266.0837 C 336.6407,266.0372 336.4857,266.1393 336.3633,266.311 C 336.2409,266.4829 336.1964,266.66 336.2644,266.7063 C 336.3323,266.7527 336.487,266.6507 336.6094,266.479 z" />
            <path
               id="path2554"
               style="fill:#ffffff;fill-opacity:1;fill-rule:nonzero;stroke:none"
               d="M 337.4008,265.3652 C 337.5697,265.1382 337.6375,264.9064 337.5533,264.8469 C 337.4698,264.7882 337.2664,264.9235 337.0987,265.1508 C 336.9308,265.3776 336.8632,265.6098 336.9467,265.6689 C 337.0305,265.7278 337.2336,265.5918 337.4008,265.3652" />
            <path
               id="path2556"
               style="fill:none;stroke:#ffffff;stroke-width:0.3646;stroke-linecap:butt;stroke-linejoin:miter;stroke-miterlimit:4;stroke-dasharray:none;stroke-opacity:1"
               d="M 337.4008,265.3652 C 337.5697,265.1382 337.6375,264.9064 337.5533,264.8469 C 337.4698,264.7882 337.2664,264.9235 337.0987,265.1508 C 336.9308,265.3776 336.8632,265.6098 336.9467,265.6689 C 337.0305,265.7278 337.2336,265.5918 337.4008,265.3652 z" />
            <path
               id="path2558"
               style="fill:#ffffff;fill-opacity:1;fill-rule:nonzero;stroke:none"
               d="M 338.3629,264.1833 C 338.5308,263.9566 338.5991,263.7251 338.5154,263.6658 C 338.4316,263.6068 338.2282,263.7423 338.0608,263.9694 C 337.8929,264.1965 337.8246,264.4284 337.9088,264.4874 C 337.9922,264.5463 338.1957,264.4106 338.3629,264.1833" />
            <path
               id="path2560"
               style="fill:none;stroke:#ffffff;stroke-width:0.3646;stroke-linecap:butt;stroke-linejoin:miter;stroke-miterlimit:4;stroke-dasharray:none;stroke-opacity:1"
               d="M 338.3629,264.1833 C 338.5308,263.9566 338.5991,263.7251 338.5154,263.6658 C 338.4316,263.6068 338.2282,263.7423 338.0608,263.9694 C 337.8929,264.1965 337.8246,264.4284 337.9088,264.4874 C 337.9922,264.5463 338.1957,264.4106 338.3629,264.1833 z" />
            <path
               id="path2562"
               style="fill:#ffffff;fill-opacity:1;fill-rule:nonzero;stroke:none"
               d="M 339.8231,261.7853 C 340.1284,261.6316 340.3303,261.4179 340.273,261.3102 C 340.2158,261.202 339.922,261.2394 339.6165,261.3942 C 339.3105,261.5489 339.1093,261.7616 339.1663,261.8696 C 339.2236,261.9781 339.5176,261.94 339.8231,261.7853" />
            <path
               id="path2564"
               style="fill:none;stroke:#ffffff;stroke-width:0.3646;stroke-linecap:butt;stroke-linejoin:miter;stroke-miterlimit:4;stroke-dasharray:none;stroke-opacity:1"
               d="M 339.8231,261.7853 C 340.1284,261.6316 340.3303,261.4179 340.273,261.3102 C 340.2158,261.202 339.922,261.2394 339.6165,261.3942 C 339.3105,261.5489 339.1093,261.7616 339.1663,261.8696 C 339.2236,261.9781 339.5176,261.94 339.8231,261.7853 z" />
            <path
               id="path2566"
               style="fill:#ffffff;fill-opacity:1;fill-rule:nonzero;stroke:none"
               d="M 339.6444,263.1707 C 339.913,262.9613 340.0684,262.7135 339.9903,262.6186 C 339.9127,262.5232 339.6319,262.6167 339.3631,262.8265 C 339.0944,263.0363 338.9389,263.2834 339.017,263.3787 C 339.0944,263.4739 339.3754,263.3812 339.6444,263.1707" />
            <path
               id="path2568"
               style="fill:none;stroke:#ffffff;stroke-width:0.3646;stroke-linecap:butt;stroke-linejoin:miter;stroke-miterlimit:4;stroke-dasharray:none;stroke-opacity:1"
               d="M 339.6444,263.1707 C 339.913,262.9613 340.0684,262.7135 339.9903,262.6186 C 339.9127,262.5232 339.6319,262.6167 339.3631,262.8265 C 339.0944,263.0363 338.9389,263.2834 339.017,263.3787 C 339.0944,263.4739 339.3754,263.3812 339.6444,263.1707 z" />
            <path
               id="path2570"
               style="fill:#ffffff;fill-opacity:1;fill-rule:nonzero;stroke:none"
               d="M 341.1972,262.3217 C 341.4978,262.1589 341.6941,261.9412 341.6337,261.8343 C 341.5735,261.7281 341.2809,261.7733 340.9796,261.9357 C 340.6784,262.0985 340.4826,262.3167 340.5431,262.4229 C 340.6025,262.5298 340.8958,262.4838 341.1972,262.3217" />
            <path
               id="path2572"
               style="fill:none;stroke:#ffffff;stroke-width:0.3646;stroke-linecap:butt;stroke-linejoin:miter;stroke-miterlimit:4;stroke-dasharray:none;stroke-opacity:1"
               d="M 341.1972,262.3217 C 341.4978,262.1589 341.6941,261.9412 341.6337,261.8343 C 341.5735,261.7281 341.2809,261.7733 340.9796,261.9357 C 340.6784,262.0985 340.4826,262.3167 340.5431,262.4229 C 340.6025,262.5298 340.8958,262.4838 341.1972,262.3217 z" />
            <g
               id="g2574">
              <g
                 id="g2576">
                <g
                   id="g2582">
                  <path
                     id="path2592"
                     style="fill:url(#linearGradient3258);stroke:none"
                     d="M 334.7061,265.6265 C 334.7061,265.6265 335.6294,260.2331 341.6415,260.2061 C 343.1176,260.1995 343.0398,260.381 343.0398,260.381 L 343.1556,260.4277 C 343.1556,260.4277 344.0249,260.755 344.0378,260.8008 C 344.0506,260.8463 344.5859,261.4115 344.5859,261.4115 L 346.6797,262.8775 L 342.2146,263.2976 L 339.9622,264.1994 L 338.9247,265.3285 L 338.4645,266.1624 L 338.218,267.0307 L 337.6735,269.714 L 336.5719,270.8158 L 335.6329,270.9793 L 334.2948,270.8523 L 333.8378,271.1132 L 332.3474,271.8463 L 333.3472,270.5655 L 331.6262,270.6602 L 333.26,269.7283 L 333.7552,269.0559" />
                </g>
              </g>
            </g>
            <path
               id="path2594"
               style="fill:#7b5527;fill-opacity:1;fill-rule:nonzero;stroke:none"
               d="M 334.252,269.4398 C 335.9506,268.8525 334.5219,269.8684 334.5229,269.8407 C 335.0946,269.3719 334.252,269.4398 334.252,269.4398" />
            <path
               id="path2596"
               style="fill:#341612;fill-opacity:1;fill-rule:nonzero;stroke:none"
               d="M 334.9687,269.9619 C 334.9687,269.9619 334.9447,270.3234 335.3438,270.3618 C 335.7433,270.4002 335.9837,270.1301 336.0569,269.9994 C 336.1306,269.8677 336.2191,269.6206 336.2596,269.465 C 336.2596,269.465 336.3198,269.3008 336.1687,269.3766 C 336.0177,269.4528 335.8179,269.5777 335.3469,269.6082 C 334.9863,269.6318 334.9687,269.9619 334.9687,269.9619" />
            <path
               id="path2598"
               style="fill:#ffffff;fill-opacity:1;fill-rule:nonzero;stroke:none"
               d="M 335.4784,270.0047 C 335.4821,269.9288 335.4272,269.8634 335.355,269.86 C 335.2831,269.8562 335.2216,269.9157 335.2174,269.9915 C 335.2138,270.0681 335.2679,270.1331 335.3403,270.1367 C 335.4123,270.1404 335.4742,270.0812 335.4784,270.0047" />
            <path
               id="path2600"
               style="fill:#341612;fill-opacity:1;fill-rule:nonzero;stroke:none"
               d="M 335.6165,266.4873 C 335.7043,266.2803 335.707,266.0833 335.6219,266.049 C 335.5357,266.0142 335.3957,266.154 335.307,266.3621 C 335.2187,266.5696 335.2162,266.7656 335.3017,266.8002 C 335.3871,266.8353 335.5281,266.6953 335.6165,266.4873" />
            <path
               id="path2602"
               style="fill:#341612;fill-opacity:1;fill-rule:nonzero;stroke:none"
               d="M 335.98,267.5341 C 336.0508,267.3678 336.0522,267.2108 335.9837,267.1831 C 335.9159,267.1549 335.803,267.2671 335.7318,267.4327 C 335.6615,267.599 335.6595,267.7558 335.7281,267.7841 C 335.7966,267.812 335.9092,267.7002 335.98,267.5341" />
            <path
               id="path2604"
               style="fill:#341612;fill-opacity:1;fill-rule:nonzero;stroke:none"
               d="M 336.6094,266.479 C 336.7325,266.3066 336.7766,266.1298 336.7085,266.0837 C 336.6407,266.0372 336.4857,266.1393 336.3633,266.311 C 336.2409,266.4829 336.1964,266.66 336.2644,266.7063 C 336.3323,266.7527 336.487,266.6507 336.6094,266.479" />
            <path
               id="path2606"
               style="fill:#341612;fill-opacity:1;fill-rule:nonzero;stroke:none"
               d="M 336.2476,265.1377 C 336.3866,264.8923 336.4246,264.6549 336.3347,264.6062 C 336.2439,264.5574 336.0588,264.7162 335.9205,264.9615 C 335.7824,265.2068 335.7443,265.4455 335.8351,265.4934 C 335.9244,265.5426 336.1098,265.3829 336.2476,265.1377" />
            <path
               id="path2608"
               style="fill:#341612;fill-opacity:1;fill-rule:nonzero;stroke:none"
               d="M 337.4008,265.3652 C 337.5697,265.1382 337.6375,264.9064 337.5533,264.8469 C 337.4698,264.7882 337.2664,264.9235 337.0987,265.1508 C 336.9308,265.3776 336.8632,265.6098 336.9467,265.6689 C 337.0305,265.7278 337.2336,265.5918 337.4008,265.3652" />
            <path
               id="path2610"
               style="fill:#341612;fill-opacity:1;fill-rule:nonzero;stroke:none"
               d="M 338.3629,264.1833 C 338.5308,263.9566 338.5991,263.7251 338.5154,263.6658 C 338.4316,263.6068 338.2282,263.7423 338.0608,263.9694 C 337.8929,264.1965 337.8246,264.4284 337.9088,264.4874 C 337.9922,264.5463 338.1957,264.4106 338.3629,264.1833" />
            <path
               id="path2612"
               style="fill:#341612;fill-opacity:1;fill-rule:nonzero;stroke:none"
               d="M 335.9881,263.5913 C 336.1457,263.3265 336.2162,263.0797 336.1452,263.0391 C 336.0747,262.9988 335.8894,263.1801 335.7318,263.4453 C 335.5744,263.7099 335.5041,263.9579 335.5749,263.9979 C 335.6463,264.0385 335.8314,263.8564 335.9881,263.5913" />
            <path
               id="path2614"
               style="fill:#341612;fill-opacity:1;fill-rule:nonzero;stroke:none"
               d="M 337.0268,262.2956 C 337.2495,262.0815 337.3778,261.8534 337.3127,261.789 C 337.2461,261.7244 337.013,261.8458 336.7896,262.0605 C 336.5666,262.2758 336.439,262.5028 336.5049,262.5674 C 336.5697,262.6327 336.804,262.5107 337.0268,262.2956" />
            <path
               id="path2616"
               style="fill:#341612;fill-opacity:1;fill-rule:nonzero;stroke:none"
               d="M 338.3668,261.3293 C 338.6454,261.189 338.8361,261.0096 338.7932,260.9286 C 338.7502,260.8473 338.4902,260.8958 338.2119,261.0367 C 337.9345,261.1772 337.7426,261.357 337.7861,261.438 C 337.8282,261.5183 338.0892,261.4708 338.3668,261.3293" />
            <path
               id="path2618"
               style="fill:#341612;fill-opacity:1;fill-rule:nonzero;stroke:none"
               d="M 339.8231,261.7853 C 340.1284,261.6316 340.3303,261.4179 340.273,261.3102 C 340.2158,261.202 339.922,261.2394 339.6165,261.3942 C 339.3105,261.5489 339.1093,261.7616 339.1663,261.8696 C 339.2236,261.9781 339.5176,261.94 339.8231,261.7853" />
            <path
               id="path2620"
               style="fill:#341612;fill-opacity:1;fill-rule:nonzero;stroke:none"
               d="M 337.0968,263.847 C 337.3195,263.5906 337.4229,263.3182 337.3281,263.2397 C 337.2331,263.1609 336.9761,263.3051 336.7533,263.562 C 336.5313,263.8186 336.427,264.0898 336.522,264.1689 C 336.6165,264.2478 336.874,264.1032 337.0968,263.847" />
            <path
               id="path2622"
               style="fill:#341612;fill-opacity:1;fill-rule:nonzero;stroke:none"
               d="M 338.3012,262.6256 C 338.5656,262.41 338.7156,262.1593 338.6361,262.0665 C 338.557,261.9727 338.2777,262.0712 338.0133,262.2868 C 337.7484,262.5018 337.5986,262.7518 337.6782,262.8456 C 337.7578,262.9395 338.0368,262.8402 338.3012,262.6256" />
            <path
               id="path2624"
               style="fill:#341612;fill-opacity:1;fill-rule:nonzero;stroke:none"
               d="M 339.6444,263.1707 C 339.913,262.9613 340.0684,262.7135 339.9903,262.6186 C 339.9127,262.5232 339.6319,262.6167 339.3631,262.8265 C 339.0944,263.0363 338.9389,263.2834 339.017,263.3787 C 339.0944,263.4739 339.3754,263.3812 339.6444,263.1707" />
            <path
               id="path2626"
               style="fill:#341612;fill-opacity:1;fill-rule:nonzero;stroke:none"
               d="M 341.1972,262.3217 C 341.4978,262.1589 341.6941,261.9412 341.6337,261.8343 C 341.5735,261.7281 341.2809,261.7733 340.9796,261.9357 C 340.6784,262.0985 340.4826,262.3167 340.5431,262.4229 C 340.6025,262.5298 340.8958,262.4838 341.1972,262.3217" />
            <path
               id="path2628"
               style="fill:#341612;fill-opacity:1;fill-rule:nonzero;stroke:none"
               d="M 341.4704,261.2886 C 341.7661,261.2319 341.9891,261.1048 341.9685,261.0052 C 341.947,260.9053 341.6912,260.8705 341.3952,260.9281 C 341.0992,260.9853 340.877,261.1122 340.8976,261.2115 C 340.9183,261.3114 341.1749,261.3459 341.4704,261.2886" />
            <path
               id="path2630"
               style="fill:#341612;fill-opacity:1;fill-rule:nonzero;stroke:none"
               d="M 340.0138,260.7873 C 340.3132,260.7469 340.5446,260.6367 340.5311,260.5425 C 340.5174,260.4487 340.264,260.4054 339.9648,260.4465 C 339.6662,260.4882 339.4349,260.5978 339.4483,260.6916 C 339.4618,260.7861 339.7149,260.8292 340.0138,260.7873" />
            <path
               id="path2632"
               style="fill:#341612;fill-opacity:1;fill-rule:nonzero;stroke:none"
               d="M 342.8195,261.5618 C 343.0833,261.5107 343.2853,261.4052 343.2694,261.3258 C 343.2532,261.2463 343.0256,261.224 342.761,261.2747 C 342.4963,261.3254 342.2941,261.4316 342.3108,261.5102 C 342.3259,261.5902 342.5544,261.613 342.8195,261.5618" />
            <path
               id="path2634"
               style="fill:#341612;fill-opacity:1;fill-rule:nonzero;stroke:none"
               d="M 335.3078,265.0133 C 335.3981,264.7807 335.4192,264.5727 335.355,264.5492 C 335.2904,264.5254 335.1656,264.6948 335.0752,264.9269 C 334.9849,265.1593 334.9633,265.3675 335.0275,265.3915 C 335.0919,265.4153 335.2174,265.2464 335.3078,265.0133" />
            <path
               id="path2636"
               style="fill:#00a766;fill-opacity:1;fill-rule:nonzero;stroke:none"
               d="M 346.7698,257.729 C 346.8692,257.8345 347.2751,257.8255 347.2751,257.8255 C 347.6672,258.0933 347.8212,258.7587 347.8212,258.7587 C 347.7676,258.7381 347.5399,258.7572 347.5399,258.7572 C 347.2452,258.7993 346.8004,258.7513 346.8004,258.7513 C 345.9267,258.6651 345.4195,258.1153 345.4195,258.1153 C 345.4848,258.3554 345.6988,258.5018 345.6988,258.5018 C 345.8954,258.8436 345.9546,259.3447 345.9556,259.5572 C 345.9568,259.8368 345.714,260.4453 345.714,260.4453 C 345.5338,260.1562 345.2523,260.0142 345.2523,260.0142 C 343.8647,259.4279 343.4604,258.5173 343.1947,257.7819 C 343.1056,257.5361 343.0077,257.3643 342.9162,257.2433 C 343.1575,257.2203 343.416,257.1709 343.6866,257.08 C 344.8224,257.1596 346.5688,257.1909 348.339,256.8703 C 348.339,256.8703 346.0496,257.0154 344.2119,256.8544 C 344.3867,256.7628 344.5647,256.6531 344.7451,256.5195 L 344.76,256.5085 L 344.7727,256.4955 C 344.9199,256.3677 345.1456,256.235 345.2454,256.1618 L 345.6888,255.9349 L 345.2751,255.6977 C 345.1404,255.6303 344.7607,255.4357 344.6231,255.3486 C 344.4853,255.2605 344.2065,255.1537 343.9059,255.0864 C 344.0528,254.9674 344.1994,254.8191 344.3269,254.635 C 344.337,254.621 344.5485,254.3199 344.6555,254.0612 C 344.8841,253.9187 345.1483,253.788 345.4611,253.6763 C 345.4611,253.6763 346.0085,253.4969 346.1811,253.3512 C 346.1811,253.3512 346.1257,253.963 346.1326,254.1709 C 346.1404,254.3806 346.0263,254.8798 345.806,255.2103 C 345.806,255.2103 345.5835,255.3444 345.5013,255.5804 C 345.5013,255.5804 346.045,255.06 346.9228,255.0213 C 346.9228,255.0213 347.3701,254.9985 347.6609,255.056 C 347.6609,255.056 347.8871,255.0874 347.9429,255.07 C 347.9429,255.07 347.7436,255.726 347.3343,255.9716 C 347.3343,255.9716 346.9603,255.9562 346.854,256.0551 C 346.854,256.0551 348.8161,256.0127 349.4176,256.917 L 349.419,256.917 C 348.7593,257.7863 346.7698,257.729 346.7698,257.729" />
            <path
               id="path2638"
               style="fill:#00a766;fill-opacity:1;fill-rule:nonzero;stroke:none"
               d="M 344.1313,254.4967 C 343.6733,255.1557 342.9548,255.3053 342.9548,255.3053 C 343.2011,255.3645 343.4266,255.2622 343.4266,255.2622 C 343.8217,255.2646 344.3142,255.4352 344.4944,255.5503 C 344.6724,255.6639 345.2222,255.9266 345.2222,255.9266 C 345.0109,255.9831 344.6028,256.327 344.6028,256.327 C 343.4697,257.1645 342.468,257.0627 341.6858,256.931 C 341.5779,256.9131 341.4804,256.9021 341.3928,256.8967 C 341.3619,256.6955 341.2694,256.5097 341.122,256.3633 C 341.0679,256.3089 341.0079,256.2634 340.9443,256.225 C 341.5504,254.6421 343.1967,252.4384 343.1967,252.4384 C 341.9823,253.7243 341.132,255.198 340.6696,256.1131 C 340.6263,256.1026 340.5822,256.094 340.5377,256.0894 C 340.6042,255.9562 340.6498,255.8142 340.6498,255.6644 C 340.6498,255.1305 340.2155,254.6962 339.6819,254.6962 C 339.4938,254.6962 339.3186,254.751 339.17,254.844 C 338.98,254.4054 338.873,253.8702 338.9509,253.1916 C 338.9509,253.1916 339.0327,252.6404 338.9739,252.4352 C 338.9739,252.4352 339.5152,252.7987 339.6912,252.8854 C 339.885,252.9816 340.2868,253.3028 340.4904,253.6325 C 340.4904,253.6325 340.5161,253.8749 340.6946,254.0506 C 340.6946,254.0506 340.4581,253.3713 340.8053,252.6506 C 340.8053,252.6506 340.9778,252.2822 341.1575,252.0754 C 341.1575,252.0754 341.2843,251.9094 341.2926,251.8568 C 341.2926,251.8568 341.8004,252.3229 341.8456,252.7654 C 341.8456,252.7654 341.6418,253.0749 341.6858,253.2063 C 341.6858,253.2063 342.5969,251.6372 343.6782,251.5782 L 343.6768,251.5804 C 344.1786,252.5165 343.1925,254.0112 343.1925,254.0112 C 343.3311,253.9814 343.498,253.6832 343.498,253.6832 C 343.911,253.4949 344.581,253.6822 344.581,253.6822 C 344.5402,253.7155 344.4582,253.9074 344.4582,253.9074 C 344.3671,254.1628 344.1313,254.4967 344.1313,254.4967" />
            <path
               id="path2640"
               style="fill:#00a766;fill-opacity:1;fill-rule:nonzero;stroke:none"
               d="M 338.7144,255.6644 C 338.7144,255.8193 338.7636,255.9655 338.8366,256.1038 C 338.3399,256.1442 337.947,256.5567 337.947,257.0634 C 337.947,257.1016 337.9497,257.1388 337.9536,257.1755 C 336.4456,257.3334 334.8894,257.3173 334.8894,257.3173 C 336.0011,257.4685 337.0934,257.4617 338.0077,257.3986 C 338.1443,257.7675 338.499,258.0313 338.9144,258.0313 C 339.2206,258.0313 339.5002,257.8774 339.6821,257.6321 C 339.7093,257.6673 339.7389,257.6999 339.77,257.731 C 339.7458,257.7976 339.7227,257.871 339.7007,257.952 C 339.499,258.7001 339.1808,259.6309 337.933,260.2903 C 337.933,260.2903 337.4456,260.5156 337.3063,260.6791 C 337.3063,260.6791 337.2823,260.0617 337.2556,259.872 C 337.226,259.6615 337.2679,259.1564 337.4292,258.8049 C 337.4292,258.8049 337.6182,258.6465 337.6642,258.4037 C 337.6642,258.4037 337.2277,258.9802 336.4255,259.1126 C 336.4255,259.1126 336.0182,259.1841 335.7423,259.1581 C 335.7423,259.1581 335.5305,259.1516 335.4821,259.1746 C 335.4821,259.1746 335.5847,258.5023 335.9311,258.214 C 335.9311,258.214 336.307,258.2005 336.392,258.0901 C 336.392,258.0901 334.5565,258.2541 333.8936,257.4218 L 333.8958,257.4218 C 334.3964,256.4867 336.2128,256.4245 336.2128,256.4245 C 336.1085,256.331 335.7634,256.3669 335.7634,256.3669 C 335.3709,256.1432 335.1477,255.4994 335.1477,255.4994 C 335.1996,255.5133 335.4067,255.4698 335.4067,255.4698 C 335.6728,255.3968 336.087,255.3958 336.087,255.3958 C 336.9009,255.3873 337.4346,255.8781 337.4346,255.8781 C 337.345,255.6462 337.1308,255.5241 337.1308,255.5241 C 336.9078,255.2061 337.1097,254.6281 337.1022,254.4017 C 337.0995,254.3204 337.1103,254.2127 336.9692,253.7055 C 337.1369,253.8423 337.6779,254.008 337.6779,254.008 C 338.395,254.2372 338.7758,254.5789 339.0263,254.9542 C 338.8349,255.1309 338.7144,255.3838 338.7144,255.6644" />
            <path
               id="path2642"
               style="fill:#a92935;fill-opacity:1;fill-rule:nonzero;stroke:none"
               d="M 338.1232,257.0634 C 338.1232,256.6272 338.4782,256.272 338.9144,256.272 L 338.9431,256.2749 L 339.1786,256.3028 L 339.0515,256.1378 C 338.9462,255.9975 338.8907,255.834 338.8907,255.6644 C 338.8907,255.2276 339.2454,254.8725 339.6819,254.8725 C 340.1183,254.8725 340.4733,255.2276 340.4733,255.6644 C 340.4733,255.8271 340.4231,255.9843 340.3279,256.119 L 340.2155,256.2778 L 340.4292,256.2553 C 340.8741,256.2543 341.2292,256.6093 341.2292,257.0455 C 341.2292,257.482 340.8741,257.8372 340.4378,257.8372 C 340.1558,257.8372 339.9015,257.6896 339.757,257.4424 L 339.6787,257.3085 L 339.6035,257.4441 C 339.4633,257.6977 339.1991,257.8551 338.9144,257.8551 C 338.4782,257.8551 338.1232,257.4999 338.1232,257.0634" />
            <path
               id="path2644"
               style="fill:#ffffff;fill-opacity:1;fill-rule:nonzero;stroke:none"
               d="M 338.7186,257.3065 C 338.6212,257.1726 338.4882,257.1053 338.4221,257.1552 C 338.3558,257.2047 338.3812,257.3537 338.4782,257.4876 C 338.5761,257.6208 338.7083,257.6889 338.7751,257.6387 C 338.8415,257.589 338.8163,257.4402 338.7186,257.3065" />
            <path
               id="path2646"
               style="fill:#ffffff;fill-opacity:1;fill-rule:nonzero;stroke:none"
               d="M 340.2226,257.2788 C 340.1252,257.1451 339.992,257.0778 339.9259,257.1278 C 339.8598,257.177 339.8853,257.3263 339.9822,257.46 C 340.0802,257.5934 340.2129,257.6615 340.2792,257.6115 C 340.3455,257.5616 340.3203,257.4127 340.2226,257.2788" />
            <path
               id="path2648"
               style="fill:#ffffff;fill-opacity:1;fill-rule:nonzero;stroke:none"
               d="M 339.4961,255.9427 C 339.3984,255.8088 339.2654,255.7415 339.1993,255.7919 C 339.133,255.8411 339.1588,255.9902 339.2554,256.1239 C 339.3533,256.2573 339.486,256.3251 339.5524,256.2751 C 339.6189,256.2252 339.5938,256.0764 339.4961,255.9427" />
            <path
               id="path2650"
               style="fill:#6f5232;fill-opacity:1;fill-rule:nonzero;stroke:none"
               d="M 353.2374,260.0267 C 353.2374,260.0267 353.1045,260.7016 351.9559,261.1335 C 351.9559,261.1335 352.5703,260.9432 353.2521,261.0468 C 353.2521,261.0468 352.7162,261.7379 351.4812,262.2214 C 351.4812,262.2214 349.7801,262.8861 349.5901,262.9637 C 349.5901,262.9637 350.8908,262.6408 351.2971,262.563 C 351.2971,262.563 351.5045,262.5025 351.4954,262.6063 C 351.4954,262.6063 351.5175,262.9993 349.6036,263.9545 C 349.6036,263.9545 348.3762,264.5074 347.5208,264.6975 C 347.5208,264.6975 343.4937,268.0764 338.4645,269.0788 C 338.4645,269.0788 337.7213,270.1503 337.4099,270.4786 C 337.4099,270.4786 336.5543,271.6454 335.2409,271.628 C 335.2409,271.628 334.6006,271.6344 334.0412,271.3416 C 333.7609,271.307 333.5281,271.4505 333.5281,271.4505 C 332.8013,271.8548 332.2453,272.1328 332.2453,272.1328 C 332.0296,272.1847 332.133,271.9946 332.133,271.9946 C 332.2539,271.7617 333.0914,270.7083 333.0914,270.7083 C 331.7964,270.8723 331.5597,270.7639 331.5597,270.7639 C 331.4216,270.7381 331.4992,270.6129 331.4992,270.6129 C 331.5511,270.5178 331.8914,270.3629 331.8914,270.3629 C 332.3804,270.1372 333.1604,269.6635 333.1604,269.6635 C 333.7303,269.2751 334.0669,267.6693 334.0669,267.6693 C 334.3949,266.3826 334.7489,265.4334 334.7489,265.4334 C 334.8091,265.3386 334.7109,265.7991 334.7109,265.7991 C 334.6765,265.9113 334.5815,266.2653 334.5815,266.2653 C 334.4341,266.8857 334.2571,267.7295 334.2571,267.7295 C 333.9981,269.2147 333.4799,269.6982 333.4799,269.6982 C 333.2813,269.9484 331.9268,270.5825 331.9268,270.5825 C 332.3073,270.6256 333.7648,270.3715 333.7648,270.3715 L 332.6683,271.6407 L 333.4023,271.2176 C 333.6093,271.0968 333.8165,271.0277 333.8165,271.0277 C 333.8165,271.0277 333.8963,270.963 333.9633,270.6996 C 333.9633,270.6996 333.9981,270.4578 334.3604,270.4578 C 334.3604,270.4578 334.6799,270.4838 334.9819,270.5789 C 334.9819,270.5789 335.6554,270.7429 336.3117,270.4664 C 336.3117,270.4664 336.9249,270.2852 337.0978,269.9657 C 337.0978,269.9657 337.1925,269.8103 337.0114,269.7845 C 337.0114,269.7845 336.6138,269.724 336.3981,269.8363 L 336.4155,269.7931 C 336.4155,269.7931 337.4344,269.4822 337.3134,268.3773 C 337.3134,268.3773 337.2703,267.9023 337.2532,267.7382 C 337.2532,267.7382 337.0542,266.7108 337.8141,266.0891 C 337.8141,266.0891 337.6586,266.5294 337.9178,267.0129 C 337.9178,267.0129 337.9697,264.8891 340.1453,263.8011 C 340.1453,263.8011 342.8562,262.3076 345.8092,262.7134 C 345.8092,262.7134 344.2635,262.2558 342.5713,262.5667 C 342.5713,262.5667 341.8388,262.6927 341.6919,262.7273 C 341.6919,262.7273 340.8013,262.8861 340.4302,262.8945 C 340.4302,262.8945 340.404,262.8688 340.4819,262.8515 C 340.4819,262.8515 341.639,262.4198 342.9078,262.1176 C 342.9078,262.1176 343.8148,261.8759 344.0131,261.8066 C 344.0131,261.8066 344.3671,261.729 344.2635,261.496 C 344.2635,261.496 343.6332,260.2786 340.5164,260.2786 C 340.5164,260.2786 341.1891,260.1484 341.8021,260.0617 C 341.8021,260.0617 342.2094,260.0069 342.3639,259.8813 C 342.3639,259.8813 341.3884,259.0524 340.663,257.9907 C 340.663,257.9907 340.9223,257.9134 340.9825,257.835 C 340.9825,257.835 342.1051,258.8801 342.7267,259.3462 C 342.7267,259.3462 342.2261,257.7745 341.9756,257.2306 C 341.9756,257.2306 342.3727,257.2654 342.416,257.2654 C 342.416,257.2654 343.6582,259.7892 344.3414,260.3907 C 344.3414,260.3907 344.9027,260.9694 345.4636,260.9951 C 345.4636,260.9951 346.0334,261.1075 346.9916,260.883 C 346.9916,260.883 348.5544,260.4169 350.2639,259.6052 C 350.2639,259.6052 351.8614,258.7675 352.9662,259.3893 C 352.9662,259.3893 351.3172,260.2355 351.0154,260.3995 C 351.0154,260.3995 351.9943,259.9577 353.2374,260.0267" />
            <path
               id="path2652"
               style="fill:#ffffff;fill-opacity:1;fill-rule:nonzero;stroke:none"
               d="M 338.5842,266.9508 C 338.5842,266.9508 338.9923,266.5833 339.2845,266.8789 C 339.2912,266.8889 339.4324,266.1034 339.9666,265.5604 C 339.9666,265.5604 339.0988,265.612 338.5842,266.9508" />
            <path
               id="path2654"
               style="fill:#ffffff;fill-opacity:1;fill-rule:nonzero;stroke:none"
               d="M 343.4858,264.85 C 343.7992,264.6547 344.1568,264.1273 344.1818,264.1285 C 343.3979,264.0891 342.2525,264.6642 342.2525,264.6642 C 342.8158,264.3081 343.112,263.5042 343.0995,263.5033 C 341.2713,263.5481 339.8243,264.8024 339.8243,264.8024 L 339.8743,264.8169 C 341.0897,264.1216 341.8743,264.1361 341.8731,264.1609 C 341.5561,264.9015 341.018,265.4948 341.0045,265.4941 C 342.7786,264.7895 343.3778,265.204 343.3908,265.2047 C 343.5233,265.5708 343.2586,266.0292 343.2711,266.0298 C 343.5776,265.4999 345.3708,264.907 345.4094,264.8971 C 344.4346,264.6497 343.4846,264.8622 343.4858,264.85" />
            <path
               id="path2656"
               style="fill:#ffffff;fill-opacity:1;fill-rule:nonzero;stroke:none"
               d="M 345.2185,263.8877 C 347.0714,263.6086 346.4694,264.4464 346.456,264.4583 C 347.432,264.2219 347.5167,263.8173 347.5299,263.8059 C 346.3375,263.3237 345.2185,263.8877 345.2185,263.8877" />
          </g>
        </g>
      </g>
    </g>
  </g>
</svg>
